<?xml version="1.0" encoding="utf-8"?>
<!-- Generator: Adobe Illustrator 24.2.1, SVG Export Plug-In . SVG Version: 6.00 Build 0)  -->
<svg version="1.1" id="Layer_1" xmlns="http://www.w3.org/2000/svg" xmlns:xlink="http://www.w3.org/1999/xlink" x="0px" y="0px"
	 viewBox="0 0 154.4 91.1" style="enable-background:new 0 0 154.4 91.1;" xml:space="preserve">
<style type="text/css">
	.st0{fill:#191919;}
	.st1{fill:#FFFFFF;}
	.st2{fill:#282828;}
	.st3{fill:#2B2B2B;}
	.st4{fill:#232323;}
	.st5{fill:#0F0F0F;}
	.st6{fill:#303030;}
	.st7{fill:#1E1E1E;}
	.st8{fill:#D8D8D8;}
	.st9{fill:#F40000;}
</style>
<g>
	<g>
		<polygon class="st0" points="141.3,65.2 106.6,79.2 45.7,72.2 15.7,75.8 11.1,49.2 27.7,11.9 68,14.9 87,8.9 139.6,23.6 
			135.6,52.9 		"/>
		<path class="st1" d="M87,8.9l52.6,14.7l-4,29.3l5.7,12.3l-34.6,14l-60.9-7l-30,3.7l-4.7-26.6l16.6-37.3l40.3,3L87,8.9 M86.9,6.8
			L86.4,7l-18.6,5.9l-39.9-3l-1.4-0.1l-0.6,1.3L9.2,48.4L9,48.9l0.1,0.6l4.7,26.6l0.3,1.9l1.9-0.2l29.7-3.6l60.7,7l0.5,0.1l0.5-0.2
			L142,67l1.9-0.8l-0.9-1.9l-5.4-11.8l3.9-28.7l0.2-1.7l-1.7-0.5L87.5,7L86.9,6.8L86.9,6.8z"/>
	</g>
</g>
<polygon class="st0" points="115.3,35.9 87,8.9 139.6,23.6 "/>
<polygon class="st2" points="135.6,52.9 115.3,35.9 139.6,23.6 "/>
<polygon points="106.6,79.2 135.6,52.9 141.3,65.2 "/>
<polygon class="st0" points="106.6,79.2 115.3,35.9 135.6,52.9 "/>
<polygon class="st7" points="79,53.5 106.6,79.2 45.7,72.2 "/>
<polygon points="68,14.9 79,53.5 87,8.9 "/>
<polygon class="st7" points="115.3,35.9 79,53.5 87,8.9 "/>
<polygon class="st3" points="106.6,79.2 79,53.5 115.3,35.9 "/>
<polygon class="st5" points="45.7,72.2 68,14.9 79,53.5 "/>
<polygon class="st2" points="11.1,49.2 45.7,72.2 15.7,75.8 "/>
<polygon class="st3" points="11.1,49.2 68,14.9 45.7,72.2 "/>
<polygon class="st7" points="27.7,11.9 68,14.9 11.1,49.2 "/>
<g>
	<path class="st1" d="M100.1,29.4h3.3c2.3,0,3.5,1.3,3.5,3c0,1-0.5,2-1.5,2.5l1.6,2.3h-1.9l-1.2-1.8c-0.2,0-0.4,0.1-0.7,0.1h-1.5
		v1.8h-1.7V29.4z M103.4,34c1,0,1.7-0.7,1.7-1.6c0-0.9-0.7-1.6-1.7-1.6h-1.7V34H103.4z"/>
	<path class="st1" d="M107.8,29.4h1.7v7.8h-1.7V29.4z"/>
	<path class="st1" d="M110.4,36.3L111,35c0.6,0.5,1.4,0.9,2.6,0.9c0.6,0,1.4-0.3,1.4-0.9c0-0.6-0.7-0.8-1.4-0.9
		c-1.5-0.3-3-0.8-3-2.4c0-1.5,1.4-2.2,2.9-2.2c1.2,0,2.1,0.3,2.8,0.8l-0.6,1.3c-0.6-0.4-1.4-0.6-2.2-0.6c-0.4,0-1.2,0.2-1.2,0.7
		c0,0.5,0.6,0.7,1.3,0.9c1.4,0.3,3,0.8,3,2.5c0,1.7-1.6,2.4-3.2,2.4C111.7,37.3,110.8,36.6,110.4,36.3z"/>
	<path class="st1" d="M117.7,29.4h1.7v4.3c0-0.1,0.4-0.7,0.7-1l2.5-3.3h2l-2.7,3.5l3,4.2h-2l-2.1-3l-1.4,1.7v1.3h-1.7V29.4z"/>
	<path class="st9" d="M100.1,39.4h5.8v1.4h-4.1v1.6h3.5v1.4h-3.5v3.3h-1.7V39.4z"/>
	<path class="st9" d="M106.5,39.4h3.3c2.3,0,3.5,1.3,3.5,3c0,1-0.5,2-1.5,2.5l1.6,2.3h-1.9l-1.2-1.8c-0.2,0-0.4,0.1-0.7,0.1h-1.5
		v1.8h-1.7V39.4z M109.8,44c1,0,1.7-0.7,1.7-1.6c0-0.9-0.7-1.6-1.7-1.6h-1.7V44H109.8z"/>
	<path class="st9" d="M114.2,39.4h6.1v1.4h-4.4v1.6h4.2v1.4h-4.2v1.9h4.6v1.4h-6.2V39.4z"/>
	<path class="st9" d="M121.1,39.4h6.1v1.4h-4.4v1.6h4.2v1.4h-4.2v1.9h4.6v1.4h-6.2V39.4z"/>
	<path class="st1" d="M100.1,49.4h3.7c1.3,0,2.4,0.5,2.4,2c0,0.6-0.3,1.1-0.8,1.4c0.8,0.2,1.5,0.9,1.5,2c0,1.6-1.3,2.4-3,2.4h-3.8
		V49.4z M103.6,52.4c0.6,0,0.9-0.3,0.9-0.8s-0.3-0.8-0.9-0.8h-1.8v1.5H103.6z M103.8,55.8c0.8,0,1.3-0.3,1.3-1c0-0.7-0.5-1-1.2-1
		h-2.1v2H103.8z"/>
	<path class="st1" d="M107.8,49.4h6.1v1.4h-4.4v1.6h4.2v1.4h-4.2v1.9h4.6v1.4h-6.2V49.4z"/>
	<path class="st1" d="M116.9,50.9h-2.6v-1.4h7v1.4h-2.6v6.3h-1.7V50.9z"/>
</g>
<g>
	<path class="st9" d="M41.2,57.7c-1.1-0.1-2.1-0.4-3.1-0.8c-1-0.4-1.9-0.9-2.8-1.6l1.9-2.8c0.7,0.5,1.3,0.9,2,1.3
		c0.6,0.3,1.3,0.6,2.1,0.7v-4c-0.9-0.3-1.7-0.5-2.4-0.8c-0.7-0.3-1.2-0.7-1.7-1.1c-0.4-0.4-0.8-0.9-1-1.5S36,46,36,45.2v0
		c0-0.7,0.1-1.3,0.4-1.9s0.6-1.1,1.1-1.5c0.5-0.4,1-0.8,1.7-1s1.4-0.4,2.1-0.5v-1.5h2.6v1.5c0.9,0.1,1.7,0.4,2.5,0.7
		s1.5,0.7,2.2,1.2l-1.7,2.9c-0.5-0.3-1-0.6-1.5-0.9c-0.5-0.3-1-0.5-1.6-0.6v3.8c1.9,0.5,3.3,1.2,4.1,2c0.9,0.8,1.3,1.9,1.3,3.3v0
		c0,0.7-0.1,1.3-0.4,1.9c-0.3,0.6-0.6,1.1-1.1,1.5c-0.5,0.4-1,0.8-1.7,1s-1.4,0.4-2.2,0.5v2.5h-2.6V57.7z M41.4,43.4
		c-0.6,0.1-1,0.3-1.3,0.5c-0.3,0.3-0.4,0.6-0.4,1v0c0,0.4,0.1,0.7,0.4,1c0.2,0.3,0.7,0.5,1.4,0.8V43.4z M43.7,54.6
		c1.2-0.2,1.8-0.7,1.8-1.6v0c0-0.4-0.1-0.8-0.4-1.1c-0.3-0.3-0.7-0.5-1.4-0.8V54.6z"/>
	<path class="st1" d="M51.2,52.8l9.5-7.8c0.9-0.7,1.7-1.4,2.3-2s1.1-1.1,1.5-1.7c0.4-0.5,0.7-1,0.9-1.6c0.2-0.5,0.3-1.1,0.3-1.7
		c0-1.2-0.4-2.2-1.1-2.8c-0.7-0.6-1.6-0.9-2.8-0.9c-1.1,0-2.1,0.3-3,0.9C58,36,57,36.9,56,38.3l-4.4-3.6c0.7-1,1.4-1.8,2.1-2.6
		c0.7-0.7,1.5-1.4,2.3-1.9c0.8-0.5,1.8-0.9,2.8-1.2c1-0.3,2.2-0.4,3.4-0.4c1.5,0,2.8,0.2,4,0.6c1.2,0.4,2.3,1,3.1,1.8
		c0.9,0.8,1.5,1.7,2,2.8c0.5,1.1,0.7,2.3,0.7,3.6v0.1c0,1.2-0.2,2.3-0.5,3.2c-0.3,0.9-0.8,1.8-1.4,2.7c-0.6,0.8-1.4,1.7-2.4,2.5
		c-1,0.8-2.1,1.7-3.3,2.7l-4.7,3.6h12.5v5.4H51.2V52.8z"/>
	<path class="st1" d="M84.8,58.3c-2.3,0-4.3-0.4-6.1-1.1c-1.7-0.8-3.3-1.8-4.7-3.1l3.8-4.5c1.1,1,2.2,1.7,3.3,2.3
		c1.1,0.5,2.3,0.8,3.6,0.8c1.5,0,2.6-0.3,3.5-1s1.3-1.7,1.3-3v-0.1c0-1.2-0.5-2.2-1.4-2.9c-0.9-0.7-2.2-1-3.7-1
		c-0.9,0-1.8,0.1-2.6,0.3c-0.8,0.2-1.5,0.5-2.2,0.8L76,43.2l0.8-14.1h17.6v5.5H82.2l-0.3,5c0.6-0.1,1.1-0.3,1.7-0.3
		c0.6-0.1,1.3-0.1,2-0.1c1.4,0,2.7,0.2,3.9,0.5s2.3,0.9,3.2,1.6c0.9,0.7,1.6,1.7,2.2,2.8s0.8,2.5,0.8,4.1v0.1c0,1.5-0.3,2.9-0.8,4.1
		c-0.5,1.2-1.3,2.2-2.2,3.1c-0.9,0.9-2.1,1.5-3.5,2S86.5,58.3,84.8,58.3z"/>
</g>
<g>
	<path class="st8" d="M28.1,33.7v-3h1.1v3c0,0.8,0.4,1.1,1.1,1.1s1.1-0.4,1.1-1.1v-3h1.1v3c0,1.3-0.9,2.1-2.2,2.1
		C29,35.8,28.1,35.1,28.1,33.7z"/>
	<path class="st8" d="M33.2,30.7h2.2c1.5,0,2.3,0.9,2.3,1.9c0,1.1-0.8,1.9-2.3,1.9h-1.1v1.1h-1.1V30.7z M35.4,33.7
		c0.6,0,1.1-0.5,1.1-1c0-0.6-0.4-1-1.1-1h-1.1v2H35.4z"/>
	<path class="st8" d="M40.7,31.6H39v-0.9h4.5v0.9h-1.7v4.1h-1.1V31.6z"/>
	<path class="st8" d="M43.7,33.2c0-1.4,1.1-2.6,2.7-2.6s2.7,1.2,2.7,2.6c0,1.4-1.1,2.6-2.7,2.6S43.7,34.7,43.7,33.2z M47.9,33.2
		c0-0.9-0.6-1.6-1.5-1.6s-1.5,0.7-1.5,1.6c0,0.9,0.7,1.6,1.5,1.6C47.3,34.8,47.9,34.1,47.9,33.2z"/>
</g>
</svg>
