<?xml version="1.0" encoding="utf-8"?>
<!-- Generator: Adobe Illustrator 24.2.1, SVG Export Plug-In . SVG Version: 6.00 Build 0)  -->
<svg version="1.1" id="Layer_1" xmlns="http://www.w3.org/2000/svg" xmlns:xlink="http://www.w3.org/1999/xlink" x="0px" y="0px"
	 viewBox="0 0 154.4 91.1" style="enable-background:new 0 0 154.4 91.1;" xml:space="preserve">
<style type="text/css">
	.st0{fill:#191919;}
	.st1{fill:#FFFFFF;}
	.st2{fill:#282828;}
	.st3{fill:#2B2B2B;}
	.st4{fill:#232323;}
	.st5{fill:#0F0F0F;}
	.st6{fill:#303030;}
	.st7{fill:#1E1E1E;}
	.st8{fill:#D8D8D8;}
	.st9{fill:#F40000;}
</style>
<g>
	<g>
		<polygon class="st0" points="11.7,24.8 46.4,10.8 107.3,17.8 137.3,14.2 141.9,40.8 125.3,78.1 85,75.1 66,81.1 13.4,66.4 
			17.4,37.1 		"/>
		<path class="st1" d="M46.4,10.8l60.9,7l30-3.7l4.7,26.6l-16.6,37.3l-40.3-3l-19,6L13.4,66.4l4-29.3l-5.7-12.3L46.4,10.8 M46.1,8.8
			L45.6,9L11,23L9,23.8l0.9,1.9l5.4,11.8l-3.9,28.7l-0.2,1.7l1.7,0.5L65.5,83l0.6,0.2l0.6-0.2l18.6-5.9l39.9,3l1.4,0.1l0.6-1.3
			l16.6-37.3l0.2-0.6l-0.1-0.6l-4.7-26.6l-0.3-1.9l-1.9,0.2l-29.7,3.6l-60.7-7L46.1,8.8L46.1,8.8z"/>
	</g>
</g>
<polygon class="st0" points="37.7,54.1 66,81.1 13.4,66.4 "/>
<polygon class="st2" points="17.4,37.1 37.7,54.1 13.4,66.4 "/>
<polygon points="46.4,10.8 17.4,37.1 11.7,24.8 "/>
<polygon class="st0" points="46.4,10.8 37.7,54.1 17.4,37.1 "/>
<polygon class="st7" points="74,36.5 46.4,10.8 107.3,17.8 "/>
<polygon points="85,75.1 74,36.5 66,81.1 "/>
<polygon class="st2" points="37.7,54.1 74,36.5 66,81.1 "/>
<polygon class="st3" points="46.4,10.8 74,36.5 37.7,54.1 "/>
<polygon class="st5" points="107.3,17.8 85,75.1 74,36.5 "/>
<polygon class="st0" points="141.9,40.8 107.3,17.8 137.3,14.2 "/>
<polygon class="st3" points="141.9,40.8 85,75.1 107.3,17.8 "/>
<polygon class="st7" points="125.3,78.1 85,75.1 141.9,40.8 "/>
<g>
	<path class="st1" d="M26,52.7c6.8-4.3,11.5-9.6,11.5-12.5c0-1.1-0.5-2.2-2.5-2.2c-1.9,0-4,1-5.3,2.1l-3.3-4.6
		c3.2-3.3,7.4-3.9,9.3-3.9c4.4,0,9.1,2.1,9.1,7.8c0,4-2.5,8.1-6.9,11.5h7.7v6.2H26V52.7z"/>
	<path class="st9" d="M54.1,44.6L46.2,32h8.3l3.9,7.6l4.4-7.6h8l-7.9,12.6l8.3,12.5h-8.4l-4.3-7.6l-4.5,7.6h-8.1L54.1,44.6z"/>
</g>
<g>
	<path class="st1" d="M81.4,31.2h5.8v1.4h-4.1v1.6h3.5v1.4h-3.5V39h-1.7V31.2z"/>
	<path class="st1" d="M87.8,31.2h3.3c2.3,0,3.5,1.3,3.5,3c0,1-0.5,2-1.5,2.5l1.6,2.3h-1.9l-1.2-1.8c-0.2,0-0.4,0.1-0.7,0.1h-1.5V39
		h-1.7V31.2z M91.2,35.8c1,0,1.7-0.7,1.7-1.6c0-0.9-0.7-1.6-1.7-1.6h-1.7v3.1H91.2z"/>
	<path class="st1" d="M95.5,31.2h6.1v1.4h-4.4v1.6h4.2v1.4h-4.2v1.9h4.6V39h-6.2V31.2z"/>
	<path class="st1" d="M102.5,31.2h6.1v1.4h-4.4v1.6h4.2v1.4h-4.2v1.9h4.6V39h-6.2V31.2z"/>
	<path class="st9" d="M81.3,41.2h3.2c2.6,0,4.2,1.8,4.2,3.9S87.1,49,84.5,49h-3.2V41.2z M84.4,47.1c1.2,0,1.9-0.8,1.9-2
		c0-1.1-0.7-2-1.9-2h-0.9v3.9H84.4z"/>
	<path class="st9" d="M88.9,45.1c0-2.2,1.7-4,4.2-4s4.2,1.8,4.2,4c0,2.2-1.7,4-4.2,4S88.9,47.3,88.9,45.1z M94.9,45.1
		c0-1.1-0.7-1.9-1.8-1.9c-1,0-1.8,0.8-1.8,1.9c0,1.2,0.7,2,1.8,2C94.1,47.1,94.9,46.3,94.9,45.1z"/>
	<path class="st9" d="M97.6,45.9v-4.7h2.3v4.6c0,0.9,0.5,1.3,1.2,1.3c0.6,0,1.2-0.4,1.2-1.3v-4.6h2.3v4.7c0,2.1-1.5,3.2-3.5,3.2
		C99.1,49.1,97.6,48,97.6,45.9z"/>
	<path class="st9" d="M105.2,41.2h3.8c1.3,0,2.6,0.4,2.6,2.1c0,0.5-0.3,1.1-0.7,1.4c0.7,0.2,1.3,0.9,1.3,1.9c0,1.7-1.5,2.3-3.1,2.3
		h-3.9V41.2z M108.8,44.3c0.5,0,0.7-0.2,0.7-0.5c0-0.4-0.2-0.6-0.7-0.6h-1.3v1.1H108.8z M109.1,47.1c0.4,0,0.8-0.1,0.8-0.6
		s-0.4-0.6-0.8-0.6h-1.6v1.1H109.1z"/>
	<path class="st9" d="M112.6,41.2h2.3v5.8h4.1V49h-6.4V41.2z"/>
	<path class="st9" d="M119.3,41.2h6.2v1.9h-3.9v0.9h3.7V46h-3.7v1.1h4V49h-6.3V41.2z"/>
	<path class="st1" d="M81.3,55.9v-4.7H83v4.6c0,1.2,0.7,1.8,1.7,1.8c1,0,1.7-0.6,1.7-1.8v-4.6H88v4.7c0,2.1-1.4,3.2-3.4,3.2
		C82.7,59.1,81.3,57.9,81.3,55.9z"/>
	<path class="st1" d="M88.8,51.2h3.3c2.3,0,3.5,1.3,3.5,3s-1.2,3-3.5,3h-1.6V59h-1.7V51.2z M92.3,55.8c1,0,1.6-0.7,1.6-1.6
		s-0.6-1.6-1.6-1.6h-1.7v3.1H92.3z"/>
</g>
<polygon class="st1" points="104.7,52.3 99.4,58.8 104.7,54.9 109.9,58.8 "/>
<polygon class="st1" points="104.5,57.1 101.7,60.6 104.5,58.5 107.3,60.6 "/>
</svg>
