<?xml version="1.0" encoding="utf-8"?>
<!-- Generator: Adobe Illustrator 24.2.1, SVG Export Plug-In . SVG Version: 6.00 Build 0)  -->
<svg version="1.1" id="Layer_1" xmlns="http://www.w3.org/2000/svg" xmlns:xlink="http://www.w3.org/1999/xlink" x="0px" y="0px"
	 viewBox="0 0 154.4 91.1" style="enable-background:new 0 0 154.4 91.1;" xml:space="preserve">
<style type="text/css">
	.st0{fill:#191919;}
	.st1{fill:#FFFFFF;}
	.st2{fill:#282828;}
	.st3{fill:#2B2B2B;}
	.st4{fill:#232323;}
	.st5{fill:#0F0F0F;}
	.st6{fill:#303030;}
	.st7{fill:#1E1E1E;}
	.st8{fill:#D8D8D8;}
	.st9{fill:#F40000;}
	.st10{fill:#212121;}
	.st11{fill:#333333;}
</style>
<g>
	<polygon class="st10" points="59.4,77.1 29.2,79 13.9,66.3 19.5,25.7 14.3,12.6 44.1,16.1 85.3,10.3 117.4,17.2 132.4,16.1 
		140.9,28.5 131.8,59.1 135,73.5 102.3,81.5 	"/>
	<path class="st1" d="M85.2,11.3l32.1,6.9l14.5-1.1l8,11.5l-9.1,30.4l3,13.7l-31.5,7.7l-42.8-4.4L29.5,78L15,65.9l5.5-40.3
		l-4.7-11.8l28.3,3.3L85.2,11.3 M85.3,9.3l-0.3,0l-40.9,5.7l-28-3.3l-3.3-0.4l1.2,3.1l4.5,11.3L13,65.7l-0.1,1.1l0.9,0.7l14.5,12.1
		l0.6,0.5l0.8-0.1l29.7-1.9l42.6,4.4l0.3,0l0.3-0.1l31.5-7.7l1.9-0.5l-0.4-1.9l-2.9-13.2l8.9-30l0.3-0.9l-0.5-0.8l-8-11.5l-0.7-0.9
		l-1.1,0.1l-14.3,1.1L85.6,9.4L85.3,9.3L85.3,9.3z"/>
</g>
<polygon points="50.4,43.7 15,65.9 29.5,78 "/>
<polygon class="st3" points="59.4,76.1 50.4,43.7 29.5,78 "/>
<polygon class="st7" points="20.5,25.6 50.4,43.7 15,65.9 "/>
<polygon points="44.1,17.1 15.8,13.8 20.5,25.6 "/>
<polygon class="st3" points="44.1,17.1 50.4,43.7 20.5,25.6 "/>
<polygon class="st10" points="85.2,11.3 50.4,43.7 44.1,17.1 "/>
<polygon class="st0" points="117.3,18.2 50.4,43.7 85.2,11.3 "/>
<polygon class="st6" points="92.9,50.3 59.4,76.1 102.2,80.5 "/>
<polygon points="50.4,43.7 92.9,50.3 59.4,76.1 "/>
<polygon class="st2" points="117.3,18.2 92.9,50.3 50.4,43.7 "/>
<polygon class="st0" points="130.8,59.1 92.9,50.3 121.2,37.2 139.8,28.6 "/>
<polygon class="st7" points="117.3,18.2 121.2,37.2 139.8,28.6 131.9,17.1 "/>
<polygon class="st3" points="130.8,59.1 121.2,37.2 139.8,28.6 "/>
<polygon class="st2" points="130.8,59.1 92.9,50.3 102.2,80.5 133.8,72.8 "/>
<polygon class="st11" points="117.3,18.2 121.2,37.2 92.9,50.3 "/>
<g>
	<path class="st1" d="M53.2,46.4H42.1L41,41.8l12-14.3h6.5v14h2.9v4.8h-2.9v4.5h-6.2V46.4z M53.2,41.6V35l-5.5,6.6H53.2z"/>
	<path class="st1" d="M73.4,51.3c-1.6,0-3.1-0.3-4.5-0.9c-1.3-0.6-2.4-1.5-3.3-2.6S64,45.4,63.5,44c-0.5-1.5-0.7-3-0.7-4.6v-0.1
		c0-1.6,0.3-3.2,0.8-4.6c0.5-1.5,1.2-2.7,2.1-3.8s2-2,3.4-2.6c1.3-0.6,2.8-1,4.5-1c1.6,0,3.1,0.3,4.4,0.9c1.3,0.6,2.4,1.5,3.3,2.6
		s1.6,2.4,2.1,3.8s0.7,3,0.7,4.6v0.1c0,1.6-0.2,3.2-0.7,4.6s-1.2,2.7-2.1,3.8c-0.9,1.1-2.1,2-3.4,2.6C76.6,51,75.1,51.3,73.4,51.3z
		 M73.5,45.6c0.6,0,1.2-0.2,1.7-0.5c0.5-0.3,1-0.7,1.3-1.3c0.4-0.6,0.6-1.2,0.8-2c0.2-0.8,0.3-1.6,0.3-2.5v-0.1
		c0-0.9-0.1-1.8-0.3-2.5c-0.2-0.8-0.5-1.4-0.9-2c-0.4-0.6-0.8-1-1.4-1.3c-0.5-0.3-1.1-0.5-1.7-0.5s-1.2,0.2-1.7,0.5
		c-0.5,0.3-1,0.7-1.3,1.3c-0.4,0.5-0.7,1.2-0.9,2c-0.2,0.8-0.3,1.6-0.3,2.5v0.1c0,0.9,0.1,1.8,0.3,2.6s0.5,1.5,0.9,2s0.8,1,1.4,1.3
		C72.3,45.5,72.9,45.6,73.5,45.6z"/>
	<path class="st9" d="M90.7,39.3c-0.8,0-1.6-0.2-2.3-0.5c-0.7-0.3-1.3-0.7-1.8-1.3c-0.5-0.5-0.9-1.1-1.1-1.8
		c-0.3-0.7-0.4-1.5-0.4-2.3v-0.1c0-0.8,0.1-1.6,0.4-2.3c0.3-0.7,0.7-1.3,1.2-1.9c0.5-0.5,1.1-1,1.8-1.3c0.7-0.3,1.5-0.5,2.3-0.5
		s1.6,0.2,2.3,0.5c0.7,0.3,1.3,0.7,1.8,1.3c0.5,0.5,0.9,1.1,1.1,1.8c0.3,0.7,0.4,1.5,0.4,2.3v0.1c0,0.8-0.1,1.6-0.4,2.3
		c-0.3,0.7-0.7,1.3-1.2,1.9s-1.1,1-1.8,1.3C92.3,39.1,91.5,39.3,90.7,39.3z M104.3,27.7h3.9L91.4,50.8h-3.9L104.3,27.7z M90.8,36.3
		c0.7,0,1.2-0.3,1.6-0.9c0.4-0.6,0.5-1.2,0.5-2v-0.1c0-0.8-0.2-1.4-0.6-2c-0.4-0.6-0.9-0.9-1.6-0.9c-0.7,0-1.2,0.3-1.6,0.8
		c-0.4,0.6-0.5,1.2-0.5,2v0.1c0,0.8,0.2,1.4,0.6,2C89.6,36,90.1,36.3,90.8,36.3z M104.9,51.1c-0.8,0-1.6-0.2-2.3-0.5
		s-1.3-0.7-1.8-1.3c-0.5-0.5-0.9-1.1-1.1-1.8c-0.3-0.7-0.4-1.5-0.4-2.3v-0.1c0-0.8,0.1-1.6,0.4-2.3c0.3-0.7,0.7-1.3,1.2-1.9
		s1.1-1,1.8-1.3c0.7-0.3,1.5-0.5,2.3-0.5c0.8,0,1.6,0.2,2.3,0.5c0.7,0.3,1.3,0.7,1.8,1.3s0.9,1.1,1.1,1.8c0.3,0.7,0.4,1.5,0.4,2.3
		v0.1c0,0.8-0.1,1.6-0.4,2.3s-0.7,1.3-1.2,1.9c-0.5,0.5-1.1,1-1.8,1.3C106.5,51,105.7,51.1,104.9,51.1z M105,48.1
		c0.7,0,1.2-0.3,1.6-0.9c0.4-0.6,0.5-1.2,0.5-2v-0.1c0-0.8-0.2-1.4-0.6-2c-0.4-0.6-0.9-0.9-1.6-0.9c-0.7,0-1.2,0.3-1.6,0.8
		c-0.4,0.6-0.5,1.2-0.5,2v0.1c0,0.8,0.2,1.4,0.6,2C103.8,47.8,104.3,48.1,105,48.1z"/>
</g>
<g>
	<path class="st1" d="M41.1,56.4h1.4V63h4.7v1.2h-6V56.4z"/>
	<path class="st1" d="M47.5,60.3c0-2.2,1.7-4,4.1-4s4.1,1.8,4.1,4c0,2.2-1.7,4-4.1,4S47.5,62.5,47.5,60.3z M54.2,60.3
		c0-1.5-1.1-2.7-2.6-2.7c-1.5,0-2.7,1.2-2.7,2.7s1.1,2.7,2.7,2.7C53.1,63,54.2,61.8,54.2,60.3z"/>
	<path class="st1" d="M55.9,56.4h1.4l1.5,4.7c0.2,0.6,0.4,1.3,0.4,1.3s0.2-0.7,0.3-1.3l1.2-4.7h1.5l1.2,4.7c0.2,0.6,0.3,1.3,0.3,1.3
		s0.2-0.7,0.4-1.3l1.5-4.7H67l-2.5,7.8H63l-1.2-4.5c-0.2-0.7-0.3-1.5-0.3-1.5s-0.1,0.9-0.3,1.5l-1.2,4.5h-1.5L55.9,56.4z"/>
	<path class="st1" d="M67.6,56.4h6v1.2H69v1.9h4.4v1.2H69V63h4.8v1.2h-6.2V56.4z"/>
	<path class="st1" d="M74.6,56.4h3.3c2.2,0,3.4,1.3,3.4,3c0,1-0.6,2-1.6,2.5l1.7,2.3h-1.6l-1.4-1.9c-0.2,0-0.5,0.1-0.7,0.1H76v1.8
		h-1.4V56.4z M78,61.1c1.1,0,1.9-0.8,1.9-1.8c0-1-0.8-1.8-1.9-1.8h-2v3.5H78z"/>
	<path class="st1" d="M84.5,56.4h6v1.9h-3.7v0.9H90v1.9h-3.3v3h-2.3V56.4z"/>
	<path class="st1" d="M90.9,56.4h6.2v1.9h-3.9v0.9h3.7v1.9h-3.7v1.1h4v1.9h-6.3V56.4z"/>
	<path class="st1" d="M97.8,56.4h6.2v1.9h-3.9v0.9h3.7v1.9h-3.7v1.1h4v1.9h-6.3V56.4z"/>
	<path class="st1" d="M104.4,63.4l0.7-1.8c0.6,0.3,1.3,0.7,2.5,0.7c0.2,0,0.9-0.1,0.9-0.5c0-0.4-0.5-0.4-0.9-0.5
		c-1.5-0.3-3.1-0.9-3.1-2.7c0-1.6,1.5-2.4,3.1-2.4c1.3,0,2.2,0.3,3,0.8l-0.8,1.8c-0.5-0.3-1.5-0.6-2.2-0.6c-0.2,0-0.7,0-0.7,0.4
		c0,0.3,0.3,0.4,0.7,0.5c1.2,0.3,3.3,0.7,3.3,2.7c0,1.8-1.7,2.5-3.3,2.5C105.5,64.3,104.7,63.5,104.4,63.4z"/>
</g>
</svg>
