<?xml version="1.0" encoding="utf-8"?>
<!-- Generator: Adobe Illustrator 24.2.1, SVG Export Plug-In . SVG Version: 6.00 Build 0)  -->
<svg version="1.1" id="Layer_1" xmlns="http://www.w3.org/2000/svg" xmlns:xlink="http://www.w3.org/1999/xlink" x="0px" y="0px"
	 viewBox="0 0 154.4 91.1" style="enable-background:new 0 0 154.4 91.1;" xml:space="preserve">
<style type="text/css">
	.st0{fill:#212121;}
	.st1{fill:#FFFFFF;}
	.st2{fill:#2B2B2B;}
	.st3{fill:#1E1E1E;}
	.st4{fill:#191919;}
	.st5{fill:#303030;}
	.st6{fill:#282828;}
	.st7{fill:#333333;}
	.st8{fill:#F40000;}
</style>
<g>
	<polygon class="st0" points="59.4,77.1 29.2,79 13.9,66.3 19.5,25.7 14.3,12.6 44.1,16.1 85.3,10.3 117.4,17.2 132.4,16.1 
		140.9,28.5 131.8,59.1 135,73.5 102.3,81.5 	"/>
	<path class="st1" d="M85.2,11.3l32.1,6.9l14.5-1.1l8,11.5L130.7,59l3,13.7l-31.5,7.7L59.4,76l-29.9,2L15,65.9l5.5-40.3l-4.7-11.8
		l28.3,3.3L85.2,11.3 M85.3,9.3H85L44.1,15l-28-3.3l-3.3-0.4l1.2,3.1l4.5,11.3l-5.5,40l-0.1,1.1l0.9,0.7l14.5,12.1l0.6,0.5l0.8-0.1
		l29.7-1.9l42.6,4.4h0.3l0.3-0.1l31.5-7.7l1.9-0.5l-0.4-1.9l-2.9-13.2l8.9-30l0.3-0.9l-0.5-0.8l-8-11.5l-0.7-0.9l-1.1,0.1l-14.3,1.1
		L85.6,9.4L85.3,9.3L85.3,9.3z"/>
</g>
<polygon points="50.4,43.7 15,65.9 29.5,78 "/>
<polygon class="st2" points="59.4,76.1 50.4,43.7 29.5,78 "/>
<polygon class="st3" points="20.5,25.6 50.4,43.7 15,65.9 "/>
<polygon points="44.1,17.1 15.8,13.8 20.5,25.6 "/>
<polygon class="st2" points="44.1,17.1 50.4,43.7 20.5,25.6 "/>
<polygon class="st0" points="85.2,11.3 50.4,43.7 44.1,17.1 "/>
<polygon class="st4" points="117.3,18.2 50.4,43.7 85.2,11.3 "/>
<polygon class="st5" points="92.9,50.3 59.4,76.1 102.2,80.5 "/>
<polygon points="50.4,43.7 92.9,50.3 59.4,76.1 "/>
<polygon class="st6" points="117.3,18.2 92.9,50.3 50.4,43.7 "/>
<polygon class="st4" points="130.8,59.1 92.9,50.3 121.2,37.2 139.8,28.6 "/>
<polygon class="st3" points="117.3,18.2 121.2,37.2 139.8,28.6 131.9,17.1 "/>
<polygon class="st2" points="130.8,59.1 121.2,37.2 139.8,28.6 "/>
<polygon class="st6" points="130.8,59.1 92.9,50.3 102.2,80.5 133.8,72.8 "/>
<polygon class="st7" points="117.3,18.2 121.2,37.2 92.9,50.3 "/>
<g>
	<path class="st1" d="M53.2,46.4H42.1L41,41.8l12-14.3h6.5v14h2.9v4.8h-2.9v4.5h-6.2L53.2,46.4L53.2,46.4z M53.2,41.6V35l-5.5,6.6
		H53.2z"/>
	<path class="st1" d="M73.4,51.3c-1.6,0-3.1-0.3-4.5-0.9c-1.3-0.6-2.4-1.5-3.3-2.6S64,45.4,63.5,44c-0.5-1.5-0.7-3-0.7-4.6v-0.1
		c0-1.6,0.3-3.2,0.8-4.6c0.5-1.5,1.2-2.7,2.1-3.8s2-2,3.4-2.6c1.3-0.6,2.8-1,4.5-1c1.6,0,3.1,0.3,4.4,0.9s2.4,1.5,3.3,2.6
		s1.6,2.4,2.1,3.8s0.7,3,0.7,4.6v0.1c0,1.6-0.2,3.2-0.7,4.6s-1.2,2.7-2.1,3.8s-2.1,2-3.4,2.6C76.6,51,75.1,51.3,73.4,51.3z
		 M73.5,45.6c0.6,0,1.2-0.2,1.7-0.5s1-0.7,1.3-1.3c0.4-0.6,0.6-1.2,0.8-2c0.2-0.8,0.3-1.6,0.3-2.5v-0.1c0-0.9-0.1-1.8-0.3-2.5
		c-0.2-0.8-0.5-1.4-0.9-2s-0.8-1-1.4-1.3c-0.5-0.3-1.1-0.5-1.7-0.5s-1.2,0.2-1.7,0.5s-1,0.7-1.3,1.3c-0.4,0.5-0.7,1.2-0.9,2
		c-0.2,0.8-0.3,1.6-0.3,2.5v0.1c0,0.9,0.1,1.8,0.3,2.6s0.5,1.5,0.9,2s0.8,1,1.4,1.3C72.3,45.5,72.9,45.6,73.5,45.6z"/>
	<path class="st8" d="M90.7,39.3c-0.8,0-1.6-0.2-2.3-0.5c-0.7-0.3-1.3-0.7-1.8-1.3c-0.5-0.5-0.9-1.1-1.1-1.8
		c-0.3-0.7-0.4-1.5-0.4-2.3v-0.1c0-0.8,0.1-1.6,0.4-2.3c0.3-0.7,0.7-1.3,1.2-1.9c0.5-0.5,1.1-1,1.8-1.3c0.7-0.3,1.5-0.5,2.3-0.5
		s1.6,0.2,2.3,0.5c0.7,0.3,1.3,0.7,1.8,1.3c0.5,0.5,0.9,1.1,1.1,1.8c0.3,0.7,0.4,1.5,0.4,2.3v0.1c0,0.8-0.1,1.6-0.4,2.3
		s-0.7,1.3-1.2,1.9s-1.1,1-1.8,1.3C92.3,39.1,91.5,39.3,90.7,39.3z M104.3,27.7h3.9L91.4,50.8h-3.9L104.3,27.7z M90.8,36.3
		c0.7,0,1.2-0.3,1.6-0.9c0.4-0.6,0.5-1.2,0.5-2v-0.1c0-0.8-0.2-1.4-0.6-2s-0.9-0.9-1.6-0.9s-1.2,0.3-1.6,0.8c-0.4,0.6-0.5,1.2-0.5,2
		v0.1c0,0.8,0.2,1.4,0.6,2C89.6,36,90.1,36.3,90.8,36.3z M104.9,51.1c-0.8,0-1.6-0.2-2.3-0.5s-1.3-0.7-1.8-1.3
		c-0.5-0.5-0.9-1.1-1.1-1.8c-0.3-0.7-0.4-1.5-0.4-2.3v-0.1c0-0.8,0.1-1.6,0.4-2.3s0.7-1.3,1.2-1.9s1.1-1,1.8-1.3
		c0.7-0.3,1.5-0.5,2.3-0.5s1.6,0.2,2.3,0.5c0.7,0.3,1.3,0.7,1.8,1.3s0.9,1.1,1.1,1.8c0.3,0.7,0.4,1.5,0.4,2.3v0.1
		c0,0.8-0.1,1.6-0.4,2.3s-0.7,1.3-1.2,1.9c-0.5,0.5-1.1,1-1.8,1.3C106.5,51,105.7,51.1,104.9,51.1z M105,48.1c0.7,0,1.2-0.3,1.6-0.9
		c0.4-0.6,0.5-1.2,0.5-2v-0.1c0-0.8-0.2-1.4-0.6-2s-0.9-0.9-1.6-0.9s-1.2,0.3-1.6,0.8c-0.4,0.6-0.5,1.2-0.5,2v0.1
		c0,0.8,0.2,1.4,0.6,2C103.8,47.8,104.3,48.1,105,48.1z"/>
</g>
<g>
	<path class="st1" d="M38,56.2h1.4v6.6h4.7V64h-6v-7.8H38z"/>
	<path class="st1" d="M44.4,60.1c0-2.2,1.7-4,4.1-4s4.1,1.8,4.1,4s-1.7,4-4.1,4S44.4,62.3,44.4,60.1z M51.1,60.1
		c0-1.5-1.1-2.7-2.6-2.7s-2.7,1.2-2.7,2.7s1.1,2.7,2.7,2.7C50,62.8,51.1,61.6,51.1,60.1z"/>
	<path class="st1" d="M52.8,56.2h1.4l1.5,4.7c0.2,0.6,0.4,1.3,0.4,1.3s0.2-0.7,0.3-1.3l1.2-4.7h1.5l1.2,4.7c0.2,0.6,0.3,1.3,0.3,1.3
		s0.2-0.7,0.4-1.3l1.5-4.7h1.4L61.4,64h-1.5l-1.2-4.5c-0.2-0.7-0.3-1.5-0.3-1.5s-0.1,0.9-0.3,1.5L56.9,64h-1.5L52.8,56.2z"/>
	<path class="st1" d="M64.5,56.2h6v1.2h-4.6v1.9h4.4v1.2h-4.4v2.3h4.8V64h-6.2C64.5,64,64.5,56.2,64.5,56.2z"/>
	<path class="st1" d="M71.5,56.2h3.3c2.2,0,3.4,1.3,3.4,3c0,1-0.6,2-1.6,2.5l1.7,2.3h-1.6l-1.4-1.9c-0.2,0-0.5,0.1-0.7,0.1h-1.7V64
		h-1.4V56.2z M74.9,60.9c1.1,0,1.9-0.8,1.9-1.8s-0.8-1.8-1.9-1.8h-2v3.5L74.9,60.9L74.9,60.9z"/>
</g>
<g>
	<path class="st1" d="M81,62.4l1.5-1.3c0.4,0.8,0.9,1,1.5,1c0.8,0,1.2-0.5,1.2-1.3v-4.5h2.3v4.4c0,2.2-1.3,3.5-3.5,3.5
		C82.8,64.2,81.6,63.7,81,62.4z"/>
	<path class="st1" d="M88.8,61v-4.7h2.3v4.6c0,0.9,0.5,1.3,1.2,1.3s1.2-0.4,1.2-1.3v-4.6h2.3V61c0,2.1-1.5,3.2-3.5,3.2
		S88.8,63.1,88.8,61z"/>
	<path class="st1" d="M97.1,56.3h2.3V64h-2.3V56.3z"/>
	<path class="st1" d="M100.4,60.2c0-2.2,1.6-4,4.1-4c1.2,0,2.3,0.4,3,1.1l-1.5,1.5c-0.6-0.6-1-0.6-1.4-0.6c-1,0-1.8,0.8-1.8,1.9
		c0,1.2,0.8,2,1.8,2c0.6,0,1.2-0.3,1.7-0.9l1.5,1.6c-0.8,0.9-1.9,1.3-3.2,1.3C102.1,64.2,100.4,62.4,100.4,60.2z"/>
	<path class="st1" d="M108.6,56.3h6.2v1.9h-3.9v0.9h3.7v1.9h-3.7v1.1h4V64h-6.3V56.3z"/>
</g>
</svg>
