<?xml version="1.0" encoding="utf-8"?>
<!-- Generator: Adobe Illustrator 24.2.1, SVG Export Plug-In . SVG Version: 6.00 Build 0)  -->
<svg version="1.1" id="Layer_1" xmlns="http://www.w3.org/2000/svg" xmlns:xlink="http://www.w3.org/1999/xlink" x="0px" y="0px"
	 viewBox="0 0 154.4 91.1" style="enable-background:new 0 0 154.4 91.1;" xml:space="preserve">
<style type="text/css">
	.st0{fill:#191919;}
	.st1{fill:#FFFFFF;}
	.st2{fill:#282828;}
	.st3{fill:#2B2B2B;}
	.st4{fill:#232323;}
	.st5{fill:#0F0F0F;}
	.st6{fill:#303030;}
	.st7{fill:#1E1E1E;}
	.st8{fill:#D8D8D8;}
	.st9{fill:#F40000;}
</style>
<g>
	<g>
		<polygon class="st0" points="42.4,77.7 78.4,74.9 130.4,79.9 143.4,63.7 140.4,28 125.4,15.9 88.4,22.6 50.4,18.9 10.4,7.9 		"/>
		<path class="st1" d="M10.4,7.9l40,11l38,3.7l37-6.7l15,12.1l3,35.7l-13,16.2l-52-5l-36,2.8L10.4,7.9 M6.8,4.8l1.8,3.9l32,69.8
			l0.6,1.3l1.4-0.1l35.8-2.8l51.8,5l1.1,0.1l0.7-0.8l13-16.2l0.5-0.6l-0.1-0.8l-3-35.7l-0.1-0.9l-0.7-0.5l-15-12.1l-0.7-0.6
			l-0.9,0.2l-36.7,6.7l-37.6-3.7L11,6L6.8,4.8L6.8,4.8z"/>
	</g>
</g>
<polygon class="st2" points="42.5,77.9 50.5,18.9 10.5,7.9 "/>
<polygon class="st0" points="88.5,22.9 42.5,77.9 50.5,18.9 "/>
<polygon class="st3" points="78.5,74.9 88.5,22.9 42.5,77.9 "/>
<polygon class="st4" points="130.5,79.9 110.5,51.9 88.5,22.9 78.5,74.9 "/>
<polygon class="st2" points="143.5,63.9 110.5,51.9 130.5,79.9 "/>
<polygon class="st5" points="140.5,27.9 110.5,51.9 143.5,63.9 "/>
<polygon class="st6" points="125.5,15.9 110.5,51.9 88.5,22.9 "/>
<polygon class="st7" points="140.5,27.9 110.5,51.9 125.5,15.9 "/>
<g>
	<path class="st1" d="M70.1,54.1c-1.9,0-3.6-0.3-5.1-1c-1.4-0.6-2.7-1.5-3.9-2.6l3.2-3.8c0.9,0.8,1.8,1.5,2.7,1.9
		c0.9,0.5,1.9,0.7,3,0.7c1.2,0,2.2-0.3,2.9-0.9c0.7-0.6,1.1-1.4,1.1-2.5v-0.1c0-1-0.4-1.8-1.2-2.4c-0.8-0.6-1.8-0.9-3.1-0.9
		c-0.8,0-1.5,0.1-2.1,0.3c-0.7,0.2-1.3,0.4-1.9,0.6l-3-2l0.7-11.8h14.7v4.6H67.9l-0.3,4.2c0.5-0.1,1-0.2,1.4-0.3
		c0.5-0.1,1-0.1,1.7-0.1c1.2,0,2.3,0.1,3.3,0.4c1,0.3,1.9,0.8,2.7,1.4c0.8,0.6,1.4,1.4,1.8,2.4c0.4,1,0.7,2.1,0.7,3.5v0.1
		c0,1.3-0.2,2.4-0.7,3.4c-0.4,1-1.1,1.9-1.8,2.6c-0.8,0.7-1.8,1.3-2.9,1.7C72.7,53.9,71.5,54.1,70.1,54.1z"/>
	<path class="st1" d="M91.7,54.1c-1.6,0-3.1-0.3-4.4-0.9c-1.3-0.6-2.4-1.5-3.4-2.6c-0.9-1.1-1.6-2.4-2.1-3.9
		c-0.5-1.5-0.8-3.1-0.8-4.9v-0.1c0-1.7,0.3-3.4,0.8-4.9c0.5-1.5,1.2-2.8,2.2-3.9c0.9-1.1,2.1-2,3.4-2.6c1.3-0.6,2.8-1,4.4-1
		c1.6,0,3,0.3,4.3,0.9c1.3,0.6,2.4,1.5,3.4,2.6c0.9,1.1,1.6,2.4,2.2,3.9c0.5,1.5,0.8,3.1,0.8,4.9v0.1c0,1.7-0.3,3.4-0.8,4.9
		c-0.5,1.5-1.2,2.8-2.2,3.9c-0.9,1.1-2.1,2-3.4,2.6C94.8,53.8,93.3,54.1,91.7,54.1z M91.8,49.3c0.8,0,1.5-0.2,2.2-0.6
		c0.6-0.4,1.2-0.9,1.6-1.6c0.5-0.7,0.8-1.5,1-2.4c0.2-0.9,0.4-1.9,0.4-3v-0.1c0-1.1-0.1-2.1-0.4-3c-0.3-0.9-0.6-1.7-1.1-2.4
		c-0.5-0.7-1-1.2-1.7-1.6c-0.7-0.4-1.4-0.6-2.1-0.6c-0.8,0-1.5,0.2-2.2,0.6c-0.6,0.4-1.2,0.9-1.6,1.6c-0.4,0.7-0.8,1.5-1,2.4
		c-0.3,0.9-0.4,1.9-0.4,3v0.1c0,1.1,0.1,2.1,0.4,3c0.3,0.9,0.6,1.7,1.1,2.4c0.5,0.7,1,1.2,1.7,1.6C90.3,49.2,91,49.3,91.8,49.3z"/>
	<path class="st1" d="M114.8,54.1c-1.6,0-3.1-0.3-4.4-0.9c-1.3-0.6-2.4-1.5-3.4-2.6c-0.9-1.1-1.6-2.4-2.1-3.9
		c-0.5-1.5-0.8-3.1-0.8-4.9v-0.1c0-1.7,0.3-3.4,0.8-4.9c0.5-1.5,1.2-2.8,2.2-3.9c0.9-1.1,2.1-2,3.4-2.6c1.3-0.6,2.8-1,4.4-1
		c1.6,0,3,0.3,4.3,0.9c1.3,0.6,2.4,1.5,3.4,2.6c0.9,1.1,1.6,2.4,2.2,3.9c0.5,1.5,0.8,3.1,0.8,4.9v0.1c0,1.7-0.3,3.4-0.8,4.9
		c-0.5,1.5-1.2,2.8-2.2,3.9c-0.9,1.1-2.1,2-3.4,2.6C117.8,53.8,116.4,54.1,114.8,54.1z M114.9,49.3c0.8,0,1.5-0.2,2.2-0.6
		c0.6-0.4,1.2-0.9,1.6-1.6c0.5-0.7,0.8-1.5,1-2.4c0.2-0.9,0.4-1.9,0.4-3v-0.1c0-1.1-0.1-2.1-0.4-3c-0.3-0.9-0.6-1.7-1.1-2.4
		c-0.5-0.7-1-1.2-1.7-1.6c-0.6-0.4-1.4-0.6-2.1-0.6c-0.8,0-1.5,0.2-2.2,0.6c-0.6,0.4-1.2,0.9-1.6,1.6c-0.4,0.7-0.8,1.5-1,2.4
		c-0.3,0.9-0.4,1.9-0.4,3v0.1c0,1.1,0.1,2.1,0.4,3c0.3,0.9,0.6,1.7,1.1,2.4c0.5,0.7,1,1.2,1.7,1.6C113.3,49.2,114.1,49.3,114.9,49.3
		z"/>
</g>
<g>
	<path class="st8" d="M36.1,32.9v-3.3h1.2v3.3c0,0.8,0.5,1.3,1.2,1.3c0.7,0,1.2-0.4,1.2-1.3v-3.3h1.2v3.3c0,1.5-1,2.3-2.4,2.3
		C37,35.2,36.1,34.4,36.1,32.9z"/>
	<path class="st8" d="M41.4,29.6h2.4c1.6,0,2.5,1,2.5,2.1c0,1.2-0.9,2.1-2.5,2.1h-1.2v1.3h-1.2V29.6z M43.9,32.8
		c0.7,0,1.2-0.5,1.2-1.1c0-0.6-0.5-1.1-1.2-1.1h-1.2v2.2H43.9z"/>
	<path class="st8" d="M49.3,30.6h-1.9v-1h5v1h-1.9v4.5h-1.2V30.6z"/>
	<path class="st8" d="M52.3,32.3c0-1.6,1.2-2.9,2.9-2.9s2.9,1.3,2.9,2.9c0,1.6-1.2,2.9-2.9,2.9S52.3,33.9,52.3,32.3z M56.9,32.3
		c0-1-0.7-1.8-1.7-1.8c-1,0-1.7,0.8-1.7,1.8c0,1,0.7,1.8,1.7,1.8C56.2,34.1,56.9,33.3,56.9,32.3z"/>
</g>
<g>
	<path class="st1" d="M55.9,59.2h1.7v6.3H62V67h-6.2V59.2z"/>
	<path class="st1" d="M62.1,63.1c0-2.2,1.7-4,4.1-4s4.1,1.8,4.1,4c0,2.2-1.7,4-4.1,4S62.1,65.3,62.1,63.1z M68.5,63.1
		c0-1.4-1-2.5-2.4-2.5c-1.4,0-2.4,1.1-2.4,2.5c0,1.4,1,2.5,2.4,2.5C67.5,65.6,68.5,64.5,68.5,63.1z"/>
	<path class="st1" d="M73.5,59.2h1.7l3.4,7.8h-1.7l-0.5-1.2h-3.9L71.8,67h-1.7L73.5,59.2z M75.7,64.4l-0.9-2.2
		c-0.2-0.6-0.5-1.4-0.6-1.4c0,0-0.3,0.8-0.6,1.4l-0.9,2.2H75.7z"/>
	<path class="st1" d="M78.7,59.2h3.1c2.6,0,4.2,1.8,4.2,3.9S84.4,67,81.8,67h-3.1V59.2z M81.8,65.5c1.5,0,2.5-1,2.5-2.4
		c0-1.4-1-2.4-2.5-2.4h-1.4v4.9H81.8z"/>
	<path class="st9" d="M88.4,59.2h3.8c1.3,0,2.6,0.4,2.6,2.1c0,0.5-0.3,1.1-0.7,1.4c0.7,0.2,1.3,0.9,1.3,1.9c0,1.7-1.5,2.3-3.1,2.3
		h-3.9V59.2z M92,62.2c0.5,0,0.7-0.2,0.7-0.5c0-0.4-0.2-0.6-0.7-0.6h-1.3v1.1H92z M92.3,65c0.4,0,0.8-0.1,0.8-0.6s-0.4-0.6-0.8-0.6
		h-1.6V65H92.3z"/>
	<path class="st9" d="M95.6,63.1c0-2.2,1.7-4,4.2-4s4.2,1.8,4.2,4c0,2.2-1.7,4-4.2,4S95.6,65.3,95.6,63.1z M101.6,63.1
		c0-1.1-0.7-1.9-1.8-1.9c-1,0-1.8,0.8-1.8,1.9c0,1.2,0.7,2,1.8,2C100.9,65.1,101.6,64.2,101.6,63.1z"/>
	<path class="st9" d="M104.4,59.2h2l2.5,3.4c0.2,0.2,0.3,0.6,0.3,0.6v-4h2.3V67h-2l-2.5-3.4c-0.2-0.2-0.3-0.6-0.3-0.6v4h-2.3V59.2z"
		/>
	<path class="st9" d="M112.1,63.9v-4.7h2.3v4.6c0,0.9,0.5,1.3,1.2,1.3c0.6,0,1.2-0.4,1.2-1.3v-4.6h2.3v4.7c0,2.1-1.5,3.2-3.5,3.2
		C113.6,67.1,112.1,66,112.1,63.9z"/>
	<path class="st9" d="M119.4,66.2l0.7-1.8c0.6,0.3,1.3,0.7,2.5,0.7c0.2,0,0.9-0.1,0.9-0.5c0-0.4-0.5-0.4-0.9-0.5
		c-1.5-0.3-3.1-0.9-3.1-2.7c0-1.6,1.5-2.4,3.1-2.4c1.3,0,2.2,0.3,3,0.8l-0.8,1.8c-0.5-0.3-1.5-0.6-2.2-0.6c-0.2,0-0.7,0-0.7,0.4
		c0,0.3,0.3,0.4,0.7,0.5c1.2,0.3,3.3,0.7,3.3,2.7c0,1.8-1.7,2.5-3.3,2.5C120.5,67.1,119.6,66.3,119.4,66.2z"/>
</g>
<g>
	<path class="st9" d="M52.5,52c-0.9-0.1-1.8-0.3-2.6-0.7c-0.8-0.3-1.6-0.8-2.3-1.4l1.3-1.9c0.6,0.5,1.2,0.9,1.7,1.2
		c0.6,0.3,1.2,0.5,1.9,0.6v-4c-1.5-0.4-2.6-0.9-3.3-1.5c-0.7-0.6-1.1-1.5-1.1-2.7v0c0-0.5,0.1-1.1,0.3-1.5c0.2-0.5,0.5-0.9,0.9-1.2
		c0.4-0.3,0.8-0.6,1.4-0.8c0.5-0.2,1.1-0.3,1.8-0.4v-1.2h1.8v1.2c0.8,0.1,1.4,0.3,2.1,0.5c0.6,0.3,1.2,0.6,1.8,1L57,41.2
		c-0.9-0.7-1.8-1.1-2.8-1.3v3.9c1.6,0.4,2.7,0.9,3.4,1.6c0.7,0.7,1.1,1.5,1.1,2.6v0c0,0.6-0.1,1.1-0.3,1.5c-0.2,0.5-0.5,0.9-0.9,1.2
		c-0.4,0.3-0.8,0.6-1.4,0.8c-0.5,0.2-1.1,0.3-1.8,0.4v2h-1.8V52z M52.6,39.8c-0.7,0.1-1.2,0.2-1.5,0.6c-0.3,0.3-0.5,0.7-0.5,1.2v0
		c0,0.4,0.1,0.8,0.4,1.1c0.3,0.3,0.8,0.6,1.6,0.8V39.8z M54.2,50c0.7-0.1,1.2-0.2,1.5-0.5c0.3-0.3,0.5-0.7,0.5-1.2v0
		c0-0.5-0.1-0.8-0.4-1.1c-0.3-0.3-0.8-0.6-1.6-0.8V50z"/>
</g>
</svg>
