<?xml version="1.0" encoding="utf-8"?>
<!-- Generator: Adobe Illustrator 22.1.0, SVG Export Plug-In . SVG Version: 6.00 Build 0)  -->
<svg version="1.1" id="Capa_1" xmlns="http://www.w3.org/2000/svg" xmlns:xlink="http://www.w3.org/1999/xlink" x="0px" y="0px"
	 viewBox="0 0 512.1 512.1" style="enable-background:new 0 0 512.1 512.1;" xml:space="preserve">
<style type="text/css">
	.st0{fill:#FFFFFF;}
</style>
<g>
	<path class="st0" d="M74.7,170.8c-17.7,0-32,14.3-32,32v149.3c0,17.7,14.3,32,32,32s32-14.3,32-32V202.8
		C106.7,185.1,92.4,170.8,74.7,170.8z"/>
	<path class="st0" d="M437.4,170.8c-17.7,0-32,14.3-32,32v149.3c0,17.7,14.3,32,32,32s32-14.3,32-32V202.8
		C469.4,185.1,455.1,170.8,437.4,170.8z"/>
	<path class="st0" d="M373.4,170.8H138.7c-5.9,0-10.7,4.8-10.7,10.7v170.7c0,25.3,17.8,47.2,42.7,52.3v75.7c0,17.7,14.3,32,32,32
		s32-14.3,32-32v-74.7h42.7v74.7c0,17.7,14.3,32,32,32s32-14.3,32-32v-75.7c24.8-5.1,42.7-26.9,42.7-52.3V181.5
		C384.1,175.6,379.3,170.8,373.4,170.8z"/>
	<path class="st0" d="M333.6,44.3l26-26c4.2-4.1,4.4-10.9,0.3-15.1C355.8-1,349-1.1,344.8,3c-0.1,0.1-0.2,0.2-0.3,0.3l-30.3,30.3
		c-37.1-16.1-79.2-16.1-116.3,0L167.6,3.2c-4.2-4.1-11-4-15.1,0.3c-4,4.1-4,10.7,0,14.8l26,26c-31.7,21-50.7,56.5-50.5,94.5
		c0,5.9,4.8,10.7,10.7,10.7h234.7c5.9,0,10.7-4.8,10.7-10.7C384.3,100.8,365.3,65.3,333.6,44.3z M202.7,106.8
		c-5.9,0-10.7-4.8-10.7-10.7s4.8-10.7,10.7-10.7c5.9,0,10.7,4.8,10.7,10.7S208.6,106.8,202.7,106.8z M309.4,106.8
		c-5.9,0-10.7-4.8-10.7-10.7s4.8-10.7,10.7-10.7s10.7,4.8,10.7,10.7S315.3,106.8,309.4,106.8z"/>
</g>
</svg>
