<svg id="Capa_1" data-name="Capa 1" xmlns="http://www.w3.org/2000/svg" viewBox="0 0 2119 569"><defs><style>.cls-1{fill:#a16552;}.cls-2{fill:#f5dcb4;}.cls-3,.cls-7{fill:#4e3f3f;}.cls-4{fill:#e6646e;}.cls-5{fill:#5d5360;}.cls-6{fill:#fff;}.cls-7{opacity:0.35;}</style></defs><path class="cls-1" d="M212.69,218.94a140.69,140.69,0,0,0-5,36.64c0,.87,0,1.72,0,2.57a188.47,188.47,0,0,1-5,44.45c-6.9-2.45-14-7.41-20.78-16C164.07,264,170,227.76,192,219.23c8.32-3.22,15.28-2.54,20.72-.43A.74.74,0,0,0,212.69,218.94Z"/><path class="cls-2" d="M212.69,218.94a140.69,140.69,0,0,0-5,36.64c0,.87,0,1.72,0,2.57a188.47,188.47,0,0,1-5,44.45c-6.9-2.45-14-7.41-20.78-16C164.07,264,170,227.76,192,219.23c8.32-3.22,15.28-2.54,20.72-.43A.74.74,0,0,0,212.69,218.94Z"/><path class="cls-1" d="M541.4,286.61c-6.77,8.57-13.88,13.53-20.78,16a188.85,188.85,0,0,1-5-44.44c0-.85,0-1.7,0-2.57a140.21,140.21,0,0,0-5.05-36.78c5.44-2.11,12.4-2.79,20.72.43C553.29,227.76,559.23,264,541.4,286.61Z"/><path class="cls-2" d="M541.4,286.61c-6.77,8.57-13.88,13.53-20.78,16a188.85,188.85,0,0,1-5-44.44c0-.85,0-1.7,0-2.57a140.21,140.21,0,0,0-5.05-36.78c5.44-2.11,12.4-2.79,20.72.43C553.29,227.76,559.23,264,541.4,286.61Z"/><path class="cls-1" d="M472.85,303.06a39.84,39.84,0,0,0-4.38,34.18c2.93,8.62,5.55,18.38,5.55,25.64C474,416,423.71,459,361.65,459s-112.38-43-112.38-96.14c0-7.26,2.62-17,5.55-25.64a39.81,39.81,0,0,0-4.37-34.17,61.8,61.8,0,0,1-9.72-33.14c0-35.25,30-63.84,67-63.84a69.31,69.31,0,0,1,34.15,8.9,39.88,39.88,0,0,0,39.44,0,69.23,69.23,0,0,1,34.14-8.89c37,0,67.06,28.59,67.06,63.84A60.89,60.89,0,0,1,477,295.45,61.61,61.61,0,0,1,472.85,303.06Z"/><path class="cls-2" d="M472.85,303.06a39.84,39.84,0,0,0-4.38,34.18c2.93,8.62,5.55,18.38,5.55,25.64C474,416,423.71,459,361.65,459s-112.38-43-112.38-96.14c0-7.26,2.62-17,5.55-25.64a39.81,39.81,0,0,0-4.37-34.17,61.8,61.8,0,0,1-9.72-33.14c0-35.25,30-63.84,67-63.84a69.31,69.31,0,0,1,34.15,8.9,39.88,39.88,0,0,0,39.44,0,69.23,69.23,0,0,1,34.14-8.89c37,0,67.06,28.59,67.06,63.84A60.89,60.89,0,0,1,477,295.45,61.61,61.61,0,0,1,472.85,303.06Z"/><path class="cls-3" d="M304.41,374.76a6.45,6.45,0,0,0-6.41,7.29c4,28.45,31,50.45,63.65,50.45s59.67-22,63.65-50.45a6.45,6.45,0,0,0-6.4-7.29Z"/><path class="cls-4" d="M324.68,421.91a69.83,69.83,0,0,0,73.94,0c-4.64-16.06-19.47-12.36-37-12.36S329.32,405.85,324.68,421.91Z"/><path class="cls-1" d="M538.9,207.36c-13.3-5.16-23.85-2.44-31.27,1.83a163.15,163.15,0,0,0-6.25-15.69q-2.58-5.62-5.57-11.09c-20.35-37.23-54.57-68.13-93.84-81.19l-.77-21.14L375.78,95.34,372.72,95c-1.88-.17-3.74-.3-5.64-.38l-3.71-16L362.28,74c-1.27,0-2.51,0-3.72.14-23.65,1.92-35.42,23.41-37.26,27.09-39.26,13.06-73.46,44-93.81,81.18q-3,5.46-5.57,11.09a167,167,0,0,0-6.26,15.69l-.95-.53c-7.36-3.95-17.58-6.23-30.31-1.3-28,10.84-35.49,56.9-12.84,85.6,9.24,11.68,19,18.08,28.32,20.93-.12.52-.24,1.05-.35,1.58A109.88,109.88,0,0,0,197,339c0,54.83,40.44,102,98.38,122.73a191.69,191.69,0,0,0,42.06,9.87A201.87,201.87,0,0,0,359.88,473h1.78c90.93,0,164.64-60,164.64-134a109.88,109.88,0,0,0-2.53-23.51c-.12-.53-.23-1.06-.36-1.58,9.37-2.85,19.09-9.25,28.32-20.94C574.39,264.26,566.84,218.19,538.9,207.36ZM212.69,218.94a140.69,140.69,0,0,0-5,36.64c0,.87,0,1.72,0,2.57a188.47,188.47,0,0,1-5,44.45c-6.9-2.45-14-7.41-20.78-16C164.07,264,170,227.76,192,219.23c8.32-3.22,15.28-2.54,20.72-.43A.74.74,0,0,0,212.69,218.94ZM477,295.45a61.61,61.61,0,0,1-4.15,7.61,39.84,39.84,0,0,0-4.38,34.18c2.93,8.62,5.55,18.38,5.55,25.64C474,416,423.71,459,361.65,459s-112.38-43-112.38-96.14c0-7.26,2.62-17,5.55-25.64a39.81,39.81,0,0,0-4.37-34.17,61.8,61.8,0,0,1-9.72-33.14c0-35.25,30-63.84,67-63.84a69.31,69.31,0,0,1,34.15,8.9,39.88,39.88,0,0,0,39.44,0,69.23,69.23,0,0,1,34.14-8.89c37,0,67.06,28.59,67.06,63.84A60.89,60.89,0,0,1,477,295.45Zm64.4-8.84c-6.77,8.57-13.88,13.53-20.78,16a188.85,188.85,0,0,1-5-44.44c0-.85,0-1.7,0-2.57a140.21,140.21,0,0,0-5.05-36.78c5.44-2.11,12.4-2.79,20.72.43C553.29,227.76,559.23,264,541.4,286.61Z"/><rect class="cls-3" x="339.43" y="319.71" width="10.8" height="24.52" rx="5.24" transform="translate(-100.41 507.68) rotate(-65.45)"/><rect class="cls-3" x="373.08" y="319.71" width="10.8" height="24.52" rx="5.24" transform="translate(233.78 814.17) rotate(-114.55)"/><path class="cls-3" d="M303.91,295.43h0c-10.63,0-19.25-8.16-19.25-18.24v-6.08c0-10.07,8.62-18.24,19.25-18.24h0c10.63,0,19.24,8.17,19.24,18.24v6.08C323.15,287.27,314.54,295.43,303.91,295.43Z"/><path class="cls-5" d="M303.91,252.87v21.28a9.63,9.63,0,0,0,19.24,0v-3C323.15,261,314.54,252.87,303.91,252.87Z"/><ellipse class="cls-6" cx="303.91" cy="265.03" rx="6.42" ry="6.08"/><path class="cls-3" d="M419.39,295.43h0c-10.63,0-19.24-8.16-19.24-18.24v-6.08c0-10.07,8.61-18.24,19.24-18.24h0c10.63,0,19.25,8.17,19.25,18.24v6.08C438.64,287.27,430,295.43,419.39,295.43Z"/><path class="cls-5" d="M419.39,252.87v21.28a9.64,9.64,0,0,0,19.25,0v-3C438.64,261,430,252.87,419.39,252.87Z"/><ellipse class="cls-6" cx="419.39" cy="265.03" rx="6.42" ry="6.08"/><path class="cls-7" d="M363.37,78.66c-4.31-.42-13.74,6.35-25,18.1-2.81,2.93-5.75,6.18-8.75,9.7-22.12,26-47.77,66.87-56.56,108.86-14.74,70.5-20.73,152.3,5.29,197.67,22.05,38.44,59.11,58.59,59.11,58.59a191.69,191.69,0,0,1-42.06-9.87C237.43,441,197,393.81,197,339a109.88,109.88,0,0,1,2.54-23.51c.11-.53.23-1.06.35-1.58-9.36-2.85-19.08-9.25-28.32-20.93-22.65-28.7-15.11-74.76,12.84-85.6,12.73-4.93,22.95-2.65,30.31,1.3l.95.53a167,167,0,0,1,6.26-15.69q2.58-5.62,5.57-11.09c20.35-37.21,54.55-68.12,93.81-81.18,1.84-3.68,13.61-25.17,37.26-27.09,1.21-.1,2.45-.15,3.72-.14Z"/><path class="cls-1" d="M713,376.24q-7.46,2.88-26.78,2.87T654,375.58q-12.93-3.52-12.93-9,0-6.27,23.25-80.07t26.65-85q1.31-3.39,21-5.62a379.26,379.26,0,0,1,42.32-2.22q22.61,0,25,7.84,49.38,164.07,49.38,166.68t-3.13,5.22q-7.32,5.76-29,5.75-46.25,0-47.29-11l-1.83-17H722.3L721,365.79Q720.46,373.36,713,376.24Zm28.86-74.72-3.91-47h-5.75l-4.44,47Z"/><path class="cls-1" d="M845.61,410.72V244.56q0-5.48,14.63-11.23a85.7,85.7,0,0,1,31.61-5.75c5.23,0,9.32.62,12.28,1.83s4.79,2.44,5.49,3.66,2,6.44,3.92,15.67h2.09q.51-2.34,4.7-7.31a48.63,48.63,0,0,1,8.49-8.1q4.3-3.14,12.41-5.62a65,65,0,0,1,18.94-2.48,40.51,40.51,0,0,1,19.72,4.84q8.88,4.83,13.2,11.23a51.82,51.82,0,0,1,6.79,16.2,92.82,92.82,0,0,1,2.87,15.67q.4,5.88.4,17t-.79,22a199.41,199.41,0,0,1-2.87,22.08,77,77,0,0,1-6,19.33,59.94,59.94,0,0,1-9.93,14.63q-12,13.07-35.27,13.06a40.77,40.77,0,0,1-14.76-2.48q-6.4-2.48-9.53-5.88-6.54-7.05-7.58-12.54l-.26-2.61h-2.09l3.66,23.51v29.52q0,2.88-15,4.57a272.35,272.35,0,0,1-30.82,1.7q-15.81,0-21-1.43C847.35,414.6,845.61,413,845.61,410.72ZM930,271.47q-2.36-8.88-7.06-8.88t-6.79,5.23v68.44q0,6.81,7.05,6.8,9.15,0,9.15-40.5Q932.35,280.36,930,271.47Z"/><path class="cls-1" d="M1092.75,320.07q0,17,16.2,17,9.4,0,24.56-6.4t15.94-6.4q5,0,13.06,14.89t8.1,21.94q0,10.2-20.9,15.42a168.41,168.41,0,0,1-40.89,5.22q-20,0-33.44-3.13t-21.94-8A63.5,63.5,0,0,1,1029,345.28a67,67,0,0,1-5-14.24,107,107,0,0,1-2.61-23.77q0-47.55,24.82-65.58a75,75,0,0,1,27.43-12.8q15.15-3.66,35.8-3.66,66.09,0,66.09,46,0,48.85-74.19,48.86Zm-.52-38.15v17.25a15.21,15.21,0,0,0,12.41-6,22.62,22.62,0,0,0,4.84-14.63q0-15.67-8.1-15.68Q1092.23,262.85,1092.23,281.92Z"/><path class="cls-1" d="M1330.76,368.14q-7.85,5.75-21.82,9.53t-36,3.79A231,231,0,0,1,1231,377.8q-19.86-3.65-28.48-8.09t-8.62-8.63a118.79,118.79,0,0,1,4.18-30.43q4.17-15.81,9.93-15.81,1,0,21.68,7.06t31.09,7.05q10.46,0,13.59-2.22a7.35,7.35,0,0,0,3.13-6.4q0-4.18-5.75-7.45a66.61,66.61,0,0,0-14.37-5.74,128.6,128.6,0,0,1-18.67-7.19A141,141,0,0,1,1220,289.5a44.72,44.72,0,0,1-14.37-16.33,49.7,49.7,0,0,1-5.75-24.16q0-58,69.23-58,25.86,0,44.68,3.26t26.51,7.32q7.71,4,7.71,8,0,13.58-6.4,29.26t-12.41,15.67q-1.05,0-6.79-2.35-17.25-7.57-28.61-7.58t-15.41,2.09a6.79,6.79,0,0,0-4.05,6.41q0,4.31,5.74,7.05a80.13,80.13,0,0,0,14.24,5,116.75,116.75,0,0,1,18.55,6.8,112.66,112.66,0,0,1,18.68,10.71q8.63,6.14,14.37,17.37t5.75,26.13a52.13,52.13,0,0,1-8.1,28.47A49.87,49.87,0,0,1,1330.76,368.14Z"/><path class="cls-1" d="M1570.85,372.84q-3.4,6.27-35.4,6.27t-33.31-6.27l-8.88-47.55h-3.66l-8.36,47.55q-.79,6.27-45.72,6.27-12.54,0-16.59-1.44a9.19,9.19,0,0,1-5.62-4.83q-48.58-119.38-48.59-125.66t18.94-12.93a109.46,109.46,0,0,1,36.44-6.67q22.47,0,23.26,12l8.88,71.58h3.13l3.14-57.73q.26-6.52,13.32-11.5a74,74,0,0,1,26.39-5q13.32,0,20,3.26t6.92,8l2.87,63h2.88L1539.5,244q.78-6.27,17.63-11.36t29.65-5.1q12.81,0,20.12,3.66,12,5.74,12,13.59,0,.78-23.64,63.74T1570.85,372.84Z"/><path class="cls-1" d="M1673.78,381.46q-23.77,0-37.36-11.23-5.49-4.71-9.54-13.85T1622.83,335a38.7,38.7,0,0,1,5.88-21.42A43.08,43.08,0,0,1,1643,299.43a80.67,80.67,0,0,1,19.59-8.1,147.56,147.56,0,0,1,37.36-4.44h8.63q0-10.71-7.32-15.15-3.14-1.83-9.54-1.83t-15.41,3.39a98.26,98.26,0,0,0-15,6.93q-6,3.52-8.1,3.52-4.71,0-12.8-12.41t-8.1-22.6q0-3.39,9.67-8.88t27.3-10.06a136.9,136.9,0,0,1,34.35-4.57,133.15,133.15,0,0,1,28.87,2.74,86.1,86.1,0,0,1,19.86,6.67,40.4,40.4,0,0,1,13.06,10.45,71.92,71.92,0,0,1,8.1,11.75,44.47,44.47,0,0,1,4,13.59,131.35,131.35,0,0,1,1.83,23.77v78.64q0,2.88-14,4.57a227.87,227.87,0,0,1-27.69,1.7q-13.73,0-17.77-.78c-2.7-.53-4.31-1.13-4.83-1.83a9.49,9.49,0,0,1-1.31-3.66L1711.66,358h-2.09Q1703,381.46,1673.78,381.46Zm35-43.37V307.53a13,13,0,0,0-11,5.74,21.73,21.73,0,0,0-4.18,13.07q0,17.24,7.84,17.24a7.89,7.89,0,0,0,5.36-1.7A5,5,0,0,0,1708.79,338.09Z"/><path class="cls-1" d="M1802.83,410.72V244.56q0-5.48,14.63-11.23a85.76,85.76,0,0,1,31.62-5.75c5.22,0,9.31.62,12.28,1.83s4.78,2.44,5.48,3.66,2,6.44,3.92,15.67h2.09q.53-2.34,4.7-7.31a49,49,0,0,1,8.49-8.1q4.32-3.14,12.41-5.62a65.06,65.06,0,0,1,18.94-2.48,40.52,40.52,0,0,1,19.73,4.84q8.88,4.83,13.19,11.23a51.36,51.36,0,0,1,6.79,16.2,92,92,0,0,1,2.88,15.67q.39,5.88.39,17t-.78,22a199.47,199.47,0,0,1-2.88,22.08,76.15,76.15,0,0,1-6,19.33,60.19,60.19,0,0,1-9.92,14.63q-12,13.07-35.27,13.06a40.69,40.69,0,0,1-14.76-2.48q-6.4-2.48-9.54-5.88-6.53-7.05-7.58-12.54l-.26-2.61h-2.09l3.66,23.51v29.52q0,2.88-15,4.57a272.52,272.52,0,0,1-30.83,1.7q-15.81,0-21-1.43C1804.57,414.6,1802.83,413,1802.83,410.72Zm84.39-139.25q-2.35-8.88-7-8.88t-6.8,5.23v68.44q0,6.81,7.06,6.8,9.13,0,9.14-40.5Q1889.57,280.36,1887.22,271.47Z"/></svg>