<?xml version="1.0" encoding="iso-8859-1"?>
<!-- Generator: Adobe Illustrator 18.1.1, SVG Export Plug-In . SVG Version: 6.00 Build 0)  -->
<svg version="1.1" id="Capa_1" xmlns="http://www.w3.org/2000/svg" xmlns:xlink="http://www.w3.org/1999/xlink" x="0px" y="0px"
	 viewBox="0 0 478.154 478.154" style="enable-background:new 0 0 478.154 478.154;" xml:space="preserve">
<g>
	<path id="Apple_3_" d="M263.728,36.181C280.942,15.939,309.971,0.956,333.819,0c3.148,28.032-8.009,56.045-24.745,76.367
		c-16.716,20.163-43.892,35.982-70.709,33.87C234.799,82.703,248.288,54.132,263.728,36.181z M400.045,418.793
		c-19.963,29.148-40.505,58.256-73.079,58.754c-31.838,0.578-42.098-18.987-78.539-18.987c-36.46,0-47.896,18.489-78.04,19.565
		c-31.32,1.136-55.108-31.4-75.171-60.548c-40.903-59.312-72.143-167.736-30.124-240.856c20.82-36.4,58.077-59.412,98.522-59.97
		c30.702-0.638,59.791,20.78,78.658,20.78c18.748,0,54.132-25.701,91.13-21.856c15.52,0.598,59.173,6.236,87.205,47.298
		c-2.251,1.434-52.1,30.523-51.562,91.11c0.737,72.362,63.337,96.45,63.974,96.669C432.381,352.427,422.937,385.122,400.045,418.793
		z"/>
</g>
<g>
</g>
<g>
</g>
<g>
</g>
<g>
</g>
<g>
</g>
<g>
</g>
<g>
</g>
<g>
</g>
<g>
</g>
<g>
</g>
<g>
</g>
<g>
</g>
<g>
</g>
<g>
</g>
<g>
</g>
</svg>
