<svg id="eyiqj36oak81" xmlns="http://www.w3.org/2000/svg" xmlns:xlink="http://www.w3.org/1999/xlink" viewBox="0 0 601 596.700000" shape-rendering="geometricPrecision" text-rendering="geometricPrecision"><style><![CDATA[#eyiqj36oak84 {animation: eyiqj36oak84__m 3000ms linear infinite normal forwards}@keyframes eyiqj36oak84__m { 0% {d: path('M331.100000,46.200000C236.700000,73.900000,255.700000,139.800000,245.100000,212.700000C231.900000,303.800000,175,257.100000,109.600000,306.200000C-3.500000,391.200000,78.700000,578.800000,219.100000,550.300000C293.700000,535.200000,308.900000,480.200000,339.300000,421.500000C378.600000,345.500000,443.900000,366.200000,502.400000,316.600000C621,216.100000,464.900000,6.800000,331.100000,46.200000Z')} 33.333333% {d: path('M331.522929,18.242823C229.241401,49.012692,249.827726,122.216098,238.342724,203.195284C224.040646,304.391496,162.390021,252.515941,91.529725,307.057477C-31.013080,401.477653,58.049861,609.868535,210.171964,578.210005C291.000375,561.436539,307.469434,500.341131,340.407554,435.135669C382.988741,350.712923,453.740687,373.707013,517.124897,318.610064C645.626901,206.972091,476.493993,-25.523706,331.522929,18.242823Z')} 66.666667% {d: path('M335.609578,70.112243C242.701560,96.880433,261.401267,160.563599,250.968799,231.011290C237.977423,319.046745,181.976721,273.917703,117.610361,321.366010C6.297893,403.506665,87.198732,584.795922,225.379726,557.254643C298.800681,542.662598,313.760447,489.512762,343.679978,432.787392C382.358846,359.343984,446.626787,379.347649,504.202201,331.416161C620.927742,234.296916,467.294885,32.037634,335.609578,70.112243Z')} 100% {d: path('M331.100000,46.200000C236.700000,73.900000,255.700000,139.800000,245.100000,212.700000C231.900000,303.800000,175,257.100000,109.600000,306.200000C-3.500000,391.200000,78.700000,578.800000,219.100000,550.300000C293.700000,535.200000,308.900000,480.200000,339.300000,421.500000C378.600000,345.500000,443.900000,366.200000,502.400000,316.600000C621,216.100000,464.900000,6.800000,331.100000,46.200000Z')} }#eyiqj36oak810_tr {animation: eyiqj36oak810_tr__tr 3000ms linear infinite normal forwards}@keyframes eyiqj36oak810_tr__tr { 0% {transform: translate(300.600000px,288.200000px) rotate(0deg)} 33.333333% {transform: translate(300.600000px,288.200000px) rotate(0deg)} 66.666667% {transform: translate(300.600000px,288.200000px) rotate(360deg)} 100% {transform: translate(300.600000px,288.200000px) rotate(360deg)} }#eyiqj36oak814 {animation: eyiqj36oak814__m 3000ms linear infinite normal forwards}@keyframes eyiqj36oak814__m { 0% {d: path('M163.200000,116.500000C161.900000,116.500000,160.600000,116,159.700000,115C157.700000,113,157.700000,109.900000,159.700000,107.900000L163,104.600000L158,101.400000C156.700000,100.600000,155.900000,99.200000,155.700000,97.700000C155.500000,96.200000,156.100000,94.700000,157.100000,93.600000L164.800000,85.900000C166.800000,83.900000,169.900000,83.900000,171.900000,85.900000C173.900000,87.900000,173.900000,91,171.900000,93L168.600000,96.300000L173.600000,99.500000C174.900000,100.300000,175.700000,101.700000,175.900000,103.200000C176.100000,104.700000,175.500000,106.200000,174.500000,107.300000L166.800000,115C165.700000,116.100000,164.400000,116.500000,163.200000,116.500000Z')} 33.333333% {d: path('M167.693902,135.636128C165.618919,135.636128,163.543935,134.838057,162.107409,133.241916C158.915126,130.049634,158.915126,125.101597,162.107409,121.909315L167.374674,116.642049L159.393969,111.534398C157.318985,110.257485,156.042073,108.022887,155.722844,105.628676C155.403616,103.234464,156.361301,100.840253,157.957442,99.084498L170.247728,86.794212C173.440010,83.601929,178.388047,83.601929,181.580329,86.794212C184.772611,89.986494,184.772611,94.934531,181.580329,98.126813L176.313064,103.394078L184.293769,108.501730C186.368752,109.778643,187.645665,112.013240,187.964893,114.407452C188.284122,116.801663,187.326437,119.195875,185.730296,120.951630L173.440010,133.241916C171.684255,134.997671,169.609271,135.636128,167.693902,135.636128Z')} 83.333333% {d: path('M163.200000,116.500000C161.900000,116.500000,160.600000,116,159.700000,115C157.700000,113,157.700000,109.900000,159.700000,107.900000L163,104.600000L158,101.400000C156.700000,100.600000,155.900000,99.200000,155.700000,97.700000C155.500000,96.200000,156.100000,94.700000,157.100000,93.600000L164.800000,85.900000C166.800000,83.900000,169.900000,83.900000,171.900000,85.900000C173.900000,87.900000,173.900000,91,171.900000,93L168.600000,96.300000L173.600000,99.500000C174.900000,100.300000,175.700000,101.700000,175.900000,103.200000C176.100000,104.700000,175.500000,106.200000,174.500000,107.300000L166.800000,115C165.700000,116.100000,164.400000,116.500000,163.200000,116.500000Z')} 100% {d: path('M163.200000,116.500000C161.900000,116.500000,160.600000,116,159.700000,115C157.700000,113,157.700000,109.900000,159.700000,107.900000L163,104.600000L158,101.400000C156.700000,100.600000,155.900000,99.200000,155.700000,97.700000C155.500000,96.200000,156.100000,94.700000,157.100000,93.600000L164.800000,85.900000C166.800000,83.900000,169.900000,83.900000,171.900000,85.900000C173.900000,87.900000,173.900000,91,171.900000,93L168.600000,96.300000L173.600000,99.500000C174.900000,100.300000,175.700000,101.700000,175.900000,103.200000C176.100000,104.700000,175.500000,106.200000,174.500000,107.300000L166.800000,115C165.700000,116.100000,164.400000,116.500000,163.200000,116.500000Z')} }#eyiqj36oak814_to {animation: eyiqj36oak814_to__to 3000ms linear infinite normal forwards}@keyframes eyiqj36oak814_to__to { 0% {transform: translate(0px,0px)} 33.333333% {transform: translate(-60.438320px,-40.525768px)} 83.333333% {transform: translate(0px,0px)} 100% {transform: translate(0px,0px)} }#eyiqj36oak816_to {animation: eyiqj36oak816_to__to 3000ms linear infinite normal forwards}@keyframes eyiqj36oak816_to__to { 0% {transform: translate(0px,0px)} 36.666667% {transform: translate(21.400000px,-30.400000px)} 76.666667% {transform: translate(0px,0px)} 100% {transform: translate(0px,0px)} }#eyiqj36oak817 {animation: eyiqj36oak817__m 3000ms linear infinite normal forwards}@keyframes eyiqj36oak817__m { 0% {d: path('M197.700000,490.400000C194.900000,490.400000,192.700000,488.200000,192.700000,485.400000C192.700000,482.100000,190,479.400000,186.700000,479.400000C183.900000,479.400000,181.700000,477.200000,181.700000,474.400000C181.700000,471.600000,183.900000,469.400000,186.700000,469.400000C190,469.400000,192.700000,466.700000,192.700000,463.400000C192.700000,460.600000,194.900000,458.400000,197.700000,458.400000C200.500000,458.400000,202.700000,460.600000,202.700000,463.400000C202.700000,466.700000,205.400000,469.400000,208.700000,469.400000C211.500000,469.400000,213.700000,471.600000,213.700000,474.400000C213.700000,477.200000,211.500000,479.400000,208.700000,479.400000C205.400000,479.400000,202.700000,482.100000,202.700000,485.400000C202.700000,488.200000,200.500000,490.400000,197.700000,490.400000Z')} 13.333333% {d: path('M197.700000,490.400000C194.900000,490.400000,192.700000,488.200000,192.700000,485.400000C192.700000,482.100000,190,479.400000,186.700000,479.400000C183.900000,479.400000,181.700000,477.200000,181.700000,474.400000C181.700000,471.600000,183.900000,469.400000,186.700000,469.400000C190,469.400000,192.700000,466.700000,192.700000,463.400000C192.700000,460.600000,194.900000,458.400000,197.700000,458.400000C200.500000,458.400000,202.700000,460.600000,202.700000,463.400000C202.700000,466.700000,205.400000,469.400000,208.700000,469.400000C211.500000,469.400000,213.700000,471.600000,213.700000,474.400000C213.700000,477.200000,211.500000,479.400000,208.700000,479.400000C205.400000,479.400000,202.700000,482.100000,202.700000,485.400000C202.700000,488.200000,200.500000,490.400000,197.700000,490.400000Z')} 46.666667% {d: path('M186.941456,511.917088C182.258711,511.917088,178.579411,508.237788,178.579411,503.555043C178.579411,498.036093,174.063907,493.520589,168.544957,493.520589C163.862212,493.520589,160.182912,489.841289,160.182912,485.158544C160.182912,480.475799,163.862212,476.796499,168.544957,476.796499C174.063907,476.796499,178.579411,472.280995,178.579411,466.762045C178.579411,462.079300,182.258711,458.400000,186.941456,458.400000C191.624201,458.400000,195.303501,462.079300,195.303501,466.762045C195.303501,472.280995,199.819005,476.796499,205.337955,476.796499C210.020700,476.796499,213.700000,480.475799,213.700000,485.158544C213.700000,489.841289,210.020700,493.520589,205.337955,493.520589C199.819005,493.520589,195.303501,498.036093,195.303501,503.555043C195.303501,508.237788,191.624201,511.917088,186.941456,511.917088Z')} 83.333333% {d: path('M197.700000,490.400000C194.900000,490.400000,192.700000,488.200000,192.700000,485.400000C192.700000,482.100000,190,479.400000,186.700000,479.400000C183.900000,479.400000,181.700000,477.200000,181.700000,474.400000C181.700000,471.600000,183.900000,469.400000,186.700000,469.400000C190,469.400000,192.700000,466.700000,192.700000,463.400000C192.700000,460.600000,194.900000,458.400000,197.700000,458.400000C200.500000,458.400000,202.700000,460.600000,202.700000,463.400000C202.700000,466.700000,205.400000,469.400000,208.700000,469.400000C211.500000,469.400000,213.700000,471.600000,213.700000,474.400000C213.700000,477.200000,211.500000,479.400000,208.700000,479.400000C205.400000,479.400000,202.700000,482.100000,202.700000,485.400000C202.700000,488.200000,200.500000,490.400000,197.700000,490.400000Z')} 100% {d: path('M197.700000,490.400000C194.900000,490.400000,192.700000,488.200000,192.700000,485.400000C192.700000,482.100000,190,479.400000,186.700000,479.400000C183.900000,479.400000,181.700000,477.200000,181.700000,474.400000C181.700000,471.600000,183.900000,469.400000,186.700000,469.400000C190,469.400000,192.700000,466.700000,192.700000,463.400000C192.700000,460.600000,194.900000,458.400000,197.700000,458.400000C200.500000,458.400000,202.700000,460.600000,202.700000,463.400000C202.700000,466.700000,205.400000,469.400000,208.700000,469.400000C211.500000,469.400000,213.700000,471.600000,213.700000,474.400000C213.700000,477.200000,211.500000,479.400000,208.700000,479.400000C205.400000,479.400000,202.700000,482.100000,202.700000,485.400000C202.700000,488.200000,200.500000,490.400000,197.700000,490.400000Z')} }#eyiqj36oak817_to {animation: eyiqj36oak817_to__to 3000ms linear infinite normal forwards}@keyframes eyiqj36oak817_to__to { 0% {transform: translate(0px,0px)} 13.333333% {transform: translate(0px,0px)} 46.666667% {transform: translate(-86.359755px,20.600000px)} 100% {transform: translate(0px,0px)} }#eyiqj36oak818 {animation: eyiqj36oak818__m 3000ms linear infinite normal forwards}@keyframes eyiqj36oak818__m { 0% {d: path('M500.300000,317.700000C497.500000,317.700000,495.300000,315.500000,495.300000,312.700000C495.300000,309.400000,492.600000,306.700000,489.300000,306.700000C486.500000,306.700000,484.300000,304.500000,484.300000,301.700000C484.300000,298.900000,486.500000,296.700000,489.300000,296.700000C492.600000,296.700000,495.300000,294,495.300000,290.700000C495.300000,287.900000,497.500000,285.700000,500.300000,285.700000C503.100000,285.700000,505.300000,287.900000,505.300000,290.700000C505.300000,294,508,296.700000,511.300000,296.700000C514.100000,296.700000,516.300000,298.900000,516.300000,301.700000C516.300000,304.500000,514.100000,306.700000,511.300000,306.700000C508,306.700000,505.300000,309.400000,505.300000,312.700000C505.300000,315.500000,503.100000,317.700000,500.300000,317.700000Z')} 10% {d: path('M500.300000,317.700000C497.500000,317.700000,495.300000,315.500000,495.300000,312.700000C495.300000,309.400000,492.600000,306.700000,489.300000,306.700000C486.500000,306.700000,484.300000,304.500000,484.300000,301.700000C484.300000,298.900000,486.500000,296.700000,489.300000,296.700000C492.600000,296.700000,495.300000,294,495.300000,290.700000C495.300000,287.900000,497.500000,285.700000,500.300000,285.700000C503.100000,285.700000,505.300000,287.900000,505.300000,290.700000C505.300000,294,508,296.700000,511.300000,296.700000C514.100000,296.700000,516.300000,298.900000,516.300000,301.700000C516.300000,304.500000,514.100000,306.700000,511.300000,306.700000C508,306.700000,505.300000,309.400000,505.300000,312.700000C505.300000,315.500000,503.100000,317.700000,500.300000,317.700000Z')} 43.333333% {d: path('M509.814573,317.700000C505.349523,317.700000,501.841269,314.191746,501.841269,309.726696C501.841269,304.464315,497.535685,300.158731,492.273304,300.158731C487.808254,300.158731,484.300000,296.650477,484.300000,292.185427C484.300000,287.720376,487.808254,284.212123,492.273304,284.212123C497.535685,284.212123,501.841269,279.906538,501.841269,274.644158C501.841269,270.179107,505.349523,266.670853,509.814573,266.670853C514.279624,266.670853,517.787877,270.179107,517.787877,274.644158C517.787877,279.906538,522.093462,284.212123,527.355842,284.212123C531.820893,284.212123,535.329147,287.720376,535.329147,292.185427C535.329147,296.650477,531.820893,300.158731,527.355842,300.158731C522.093462,300.158731,517.787877,304.464315,517.787877,309.726696C517.787877,314.191746,514.279624,317.700000,509.814573,317.700000Z')} 93.333333% {d: path('M500.300000,317.700000C497.500000,317.700000,495.300000,315.500000,495.300000,312.700000C495.300000,309.400000,492.600000,306.700000,489.300000,306.700000C486.500000,306.700000,484.300000,304.500000,484.300000,301.700000C484.300000,298.900000,486.500000,296.700000,489.300000,296.700000C492.600000,296.700000,495.300000,294,495.300000,290.700000C495.300000,287.900000,497.500000,285.700000,500.300000,285.700000C503.100000,285.700000,505.300000,287.900000,505.300000,290.700000C505.300000,294,508,296.700000,511.300000,296.700000C514.100000,296.700000,516.300000,298.900000,516.300000,301.700000C516.300000,304.500000,514.100000,306.700000,511.300000,306.700000C508,306.700000,505.300000,309.400000,505.300000,312.700000C505.300000,315.500000,503.100000,317.700000,500.300000,317.700000Z')} 100% {d: path('M500.300000,317.700000C497.500000,317.700000,495.300000,315.500000,495.300000,312.700000C495.300000,309.400000,492.600000,306.700000,489.300000,306.700000C486.500000,306.700000,484.300000,304.500000,484.300000,301.700000C484.300000,298.900000,486.500000,296.700000,489.300000,296.700000C492.600000,296.700000,495.300000,294,495.300000,290.700000C495.300000,287.900000,497.500000,285.700000,500.300000,285.700000C503.100000,285.700000,505.300000,287.900000,505.300000,290.700000C505.300000,294,508,296.700000,511.300000,296.700000C514.100000,296.700000,516.300000,298.900000,516.300000,301.700000C516.300000,304.500000,514.100000,306.700000,511.300000,306.700000C508,306.700000,505.300000,309.400000,505.300000,312.700000C505.300000,315.500000,503.100000,317.700000,500.300000,317.700000Z')} }#eyiqj36oak818_to {animation: eyiqj36oak818_to__to 3000ms linear infinite normal forwards}@keyframes eyiqj36oak818_to__to { 0% {transform: translate(0px,0px)} 10% {transform: translate(0px,0px)} 43.333333% {transform: translate(51.032448px,-29.626007px)} 93.333333% {transform: translate(0px,0px)} 100% {transform: translate(0px,0px)} }#eyiqj36oak822_to {animation: eyiqj36oak822_to__to 3000ms linear infinite normal forwards}@keyframes eyiqj36oak822_to__to { 0% {transform: translate(0px,0px)} 6.666667% {transform: translate(-48.059219px,-23.700000px)} 13.333333% {transform: translate(-89.900000px,-39.750000px)} 20% {transform: translate(-129.200000px,-68.200000px)} 26.666667% {transform: translate(-173px,-101px)} 33.333333% {transform: translate(-205px,-134.361357px)} 40% {transform: translate(-226.376881px,-174.272843px)} 43.333333% {transform: translate(-234.927633px,-203.500000px)} 46.666667% {transform: translate(-226.376881px,-237.303809px)} 50% {transform: translate(-199.500000px,-250.129937px)} 53.333333% {transform: translate(-145.200000px,-254.200000px)} 56.666667% {transform: translate(-94.800000px,-241.900000px)} 63.333333% {transform: translate(-25.659219px,-219.500000px)} 70% {transform: translate(27.500000px,-187.500000px)} 76.666667% {transform: translate(85.738320px,-145.900000px)} 83.333333% {transform: translate(130.538320px,-92.700000px)} 86.666667% {transform: translate(141.400000px,-55.800000px)} 90% {transform: translate(145px,-13.172241px)} 93.333333% {transform: translate(110.261680px,10.819426px)} 96.666667% {transform: translate(65.461680px,11.135716px)} 100% {transform: translate(0px,0px)} }#eyiqj36oak823_to {animation: eyiqj36oak823_to__to 3000ms linear infinite normal forwards}@keyframes eyiqj36oak823_to__to { 0% {transform: translate(-1.425125px,-6.350000px)} 6.666667% {transform: translate(7.125627px,-60.700000px)} 13.333333% {transform: translate(33.100000px,-102.800000px)} 20% {transform: translate(87.400000px,-148.110408px)} 26.666667% {transform: translate(125.800000px,-179.700000px)} 33.333333% {transform: translate(165.662311px,-198.900000px)} 40% {transform: translate(206.940781px,-214.900000px)} 46.666667% {transform: translate(298.061680px,-238.756915px)} 53.333333% {transform: translate(367.600000px,-227.303809px)} 56.666667% {transform: translate(383.600000px,-198.900000px)} 60% {transform: translate(374px,-163.272843px)} 66.666667% {transform: translate(340.738320px,-109.970542px)} 73.333333% {transform: translate(277.400000px,-56.327157px)} 80% {transform: translate(210.200000px,-15.900000px)} 86.666667% {transform: translate(125.800000px,18.636092px)} 93.333333% {transform: translate(59.600000px,21.819426px)} 96.666667% {transform: translate(22.961680px,19.135716px)} 100% {transform: translate(-1.425125px,-6.350000px)} }#eyiqj36oak824_to {animation: eyiqj36oak824_to__to 3000ms linear infinite normal forwards}@keyframes eyiqj36oak824_to__to { 0% {transform: translate(0px,0px)} 6.666667% {transform: translate(27.400000px,73.100000px)} 13.333333% {transform: translate(37.375878px,130.700000px)} 20% {transform: translate(37.375878px,198px)} 26.666667% {transform: translate(30.250250px,275.300000px)} 33.333333% {transform: translate(0px,355.300000px)} 36.666667% {transform: translate(-22.400000px,380.300000px)} 40% {transform: translate(-52.500000px,394.551254px)} 43.333333% {transform: translate(-82.600000px,380.300000px)} 46.666667% {transform: translate(-111.102508px,348.300000px)} 50% {transform: translate(-122.500000px,325.900000px)} 56.666667% {transform: translate(-138.400000px,265.600000px)} 63.333333% {transform: translate(-144px,203.300000px)} 70% {transform: translate(-143.400000px,133.900000px)} 76.666667% {transform: translate(-130.700000px,62.919106px)} 83.333333% {transform: translate(-105px,0.400000px)} 90% {transform: translate(-75.100000px,-32.050000px)} 93.333333% {transform: translate(-35.859219px,-32.050000px)} 96.666667% {transform: translate(-7.100000px,-16px)} 100% {transform: translate(0px,0px)} }]]></style><g id="eyiqj36oak82"><g id="eyiqj36oak83" opacity="0.25"><path id="eyiqj36oak84" d="M331.100000,46.200000C236.700000,73.900000,255.700000,139.800000,245.100000,212.700000C231.900000,303.800000,175,257.100000,109.600000,306.200000C-3.500000,391.200000,78.700000,578.800000,219.100000,550.300000C293.700000,535.200000,308.900000,480.200000,339.300000,421.500000C378.600000,345.500000,443.900000,366.200000,502.400000,316.600000C621,216.100000,464.900000,6.800000,331.100000,46.200000Z" fill="rgb(255,255,255)" stroke="none" stroke-width="1"/></g><g id="eyiqj36oak85"><g id="eyiqj36oak86" opacity="0.1"><circle id="eyiqj36oak87" r="47.500000" transform="matrix(1 0 0 1 300.50000000000000 312.30000000000001)" fill="rgb(239,0,0)" stroke="none" stroke-width="1"/></g><g id="eyiqj36oak88"><circle id="eyiqj36oak89" r="47.500000" transform="matrix(1 0 0 1 300.50000000000000 288.30000000000001)" fill="rgb(239,101,101)" stroke="none" stroke-width="1"/><g id="eyiqj36oak810_tr" transform="translate(300.600000,288.200000) rotate(0)"><path id="eyiqj36oak810" d="M316.200000,282.200000L304,282.200000L304,258.300000C304,257.200000,302.500000,256.800000,302,257.800000L283.900000,292.900000C283.500000,293.600000,284,294.400000,284.800000,294.400000L297,294.400000L297,318.300000C297,319.400000,298.500000,319.800000,299,318.800000L317.100000,283.700000C317.500000,283,317,282.200000,316.200000,282.200000Z" transform="translate(-300.600000,-288.200000)" fill="rgb(255,255,255)" stroke="none" stroke-width="1"/></g></g><g id="eyiqj36oak811"><g id="eyiqj36oak812"><path id="eyiqj36oak813" d="M318.400000,239C315.800000,238.100000,312.900000,239.400000,312,242C311.100000,244.600000,312.400000,247.500000,315,248.400000C331.700000,254.500000,343,270.500000,343,288.300000C343,311.700000,323.900000,330.800000,300.500000,330.800000C277.100000,330.800000,258,311.700000,258,288.300000C258,270.700000,269,254.800000,285.500000,248.600000C288.100000,247.600000,289.400000,244.700000,288.400000,242.200000C287.400000,239.600000,284.500000,238.300000,282,239.300000C261.700000,247,248.100000,266.700000,248.100000,288.400000C248.100000,317.300000,271.600000,340.900000,300.600000,340.900000C329.600000,340.900000,353.100000,317.400000,353.100000,288.400000C353,266.300000,339.100000,246.500000,318.400000,239L318.400000,239Z" fill="rgb(239,0,0)" stroke="none" stroke-width="1"/></g></g><g id="eyiqj36oak814_to" transform="translate(0,0)"><path id="eyiqj36oak814" d="M163.200000,116.500000C161.900000,116.500000,160.600000,116,159.700000,115C157.700000,113,157.700000,109.900000,159.700000,107.900000L163,104.600000L158,101.400000C156.700000,100.600000,155.900000,99.200000,155.700000,97.700000C155.500000,96.200000,156.100000,94.700000,157.100000,93.600000L164.800000,85.900000C166.800000,83.900000,169.900000,83.900000,171.900000,85.900000C173.900000,87.900000,173.900000,91,171.900000,93L168.600000,96.300000L173.600000,99.500000C174.900000,100.300000,175.700000,101.700000,175.900000,103.200000C176.100000,104.700000,175.500000,106.200000,174.500000,107.300000L166.800000,115C165.700000,116.100000,164.400000,116.500000,163.200000,116.500000Z" transform="translate(0,0)" fill="rgb(239,0,0)" stroke="none" stroke-width="1"/></g><path id="eyiqj36oak815" d="M438.300000,385.400000C437,385.400000,435.700000,384.900000,434.800000,383.900000C432.800000,381.900000,432.800000,378.800000,434.800000,376.800000L438.100000,373.500000L433.100000,370.300000C431.800000,369.500000,431,368.100000,430.800000,366.600000C430.600000,365.100000,431.200000,363.600000,432.200000,362.500000L439.900000,354.800000C441.900000,352.800000,445,352.800000,447,354.800000C449,356.800000,449,359.900000,447,361.900000L443.700000,365.200000L448.700000,368.400000C450,369.200000,450.800000,370.600000,451,372.100000C451.200000,373.600000,450.600000,375.100000,449.600000,376.200000L441.900000,383.900000C440.900000,384.900000,439.600000,385.400000,438.300000,385.400000Z" fill="rgb(244,0,0)" stroke="none" stroke-width="1"/><g id="eyiqj36oak816_to" transform="translate(0,0)"><path id="eyiqj36oak816" d="M176.300000,221.600000C173.500000,221.600000,171.300000,219.400000,171.300000,216.600000C171.300000,213.300000,168.600000,210.600000,165.300000,210.600000C162.500000,210.600000,160.300000,208.400000,160.300000,205.600000C160.300000,202.800000,162.500000,200.600000,165.300000,200.600000C168.600000,200.600000,171.300000,197.900000,171.300000,194.600000C171.300000,191.800000,173.500000,189.600000,176.300000,189.600000C179.100000,189.600000,181.300000,191.800000,181.300000,194.600000C181.300000,197.900000,184,200.600000,187.300000,200.600000C190.100000,200.600000,192.300000,202.800000,192.300000,205.600000C192.300000,208.400000,190.100000,210.600000,187.300000,210.600000C184,210.600000,181.300000,213.300000,181.300000,216.600000C181.300000,219.300000,179,221.600000,176.300000,221.600000Z" transform="translate(0,0)" fill="rgb(239,101,101)" stroke="none" stroke-width="1"/></g><g id="eyiqj36oak817_to" transform="translate(0,0)"><path id="eyiqj36oak817" d="M197.700000,490.400000C194.900000,490.400000,192.700000,488.200000,192.700000,485.400000C192.700000,482.100000,190,479.400000,186.700000,479.400000C183.900000,479.400000,181.700000,477.200000,181.700000,474.400000C181.700000,471.600000,183.900000,469.400000,186.700000,469.400000C190,469.400000,192.700000,466.700000,192.700000,463.400000C192.700000,460.600000,194.900000,458.400000,197.700000,458.400000C200.500000,458.400000,202.700000,460.600000,202.700000,463.400000C202.700000,466.700000,205.400000,469.400000,208.700000,469.400000C211.500000,469.400000,213.700000,471.600000,213.700000,474.400000C213.700000,477.200000,211.500000,479.400000,208.700000,479.400000C205.400000,479.400000,202.700000,482.100000,202.700000,485.400000C202.700000,488.200000,200.500000,490.400000,197.700000,490.400000Z" transform="translate(0,0)" fill="rgb(244,0,0)" stroke="none" stroke-width="1"/></g><g id="eyiqj36oak818_to" transform="translate(0,0)"><path id="eyiqj36oak818" d="M500.300000,317.700000C497.500000,317.700000,495.300000,315.500000,495.300000,312.700000C495.300000,309.400000,492.600000,306.700000,489.300000,306.700000C486.500000,306.700000,484.300000,304.500000,484.300000,301.700000C484.300000,298.900000,486.500000,296.700000,489.300000,296.700000C492.600000,296.700000,495.300000,294,495.300000,290.700000C495.300000,287.900000,497.500000,285.700000,500.300000,285.700000C503.100000,285.700000,505.300000,287.900000,505.300000,290.700000C505.300000,294,508,296.700000,511.300000,296.700000C514.100000,296.700000,516.300000,298.900000,516.300000,301.700000C516.300000,304.500000,514.100000,306.700000,511.300000,306.700000C508,306.700000,505.300000,309.400000,505.300000,312.700000C505.300000,315.500000,503.100000,317.700000,500.300000,317.700000Z" transform="translate(0,0)" fill="rgb(239,101,101)" stroke="none" stroke-width="1"/></g></g></g><path id="eyiqj36oak819" d="M300.400000,511C273.600000,511,248.800000,487.300000,230.500000,444.200000C212.800000,402.500000,203,347.100000,203,288.200000C203,229.300000,212.800000,174,230.500000,132.200000C248.800000,89.100000,273.600000,65.400000,300.400000,65.400000C327.200000,65.400000,352,89.100000,370.300000,132.200000C388,173.900000,397.800000,229.300000,397.800000,288.200000C397.800000,347.100000,388,402.400000,370.300000,444.200000C352,487.200000,327.200000,511,300.400000,511ZM300.400000,75.300000C278.200000,75.300000,256.100000,97.400000,239.700000,136.100000C222.500000,176.600000,213,230.600000,213,288.200000C213,345.800000,222.500000,399.700000,239.700000,440.300000C256.100000,478.900000,278.200000,501.100000,300.400000,501.100000C322.600000,501.100000,344.700000,479,361.100000,440.300000C378.300000,399.800000,387.800000,345.800000,387.800000,288.200000C387.800000,230.600000,378.300000,176.700000,361.100000,136.100000C344.700000,97.500000,322.600000,75.300000,300.400000,75.300000Z" fill="rgb(255,255,255)" stroke="none" stroke-width="1"/><path id="eyiqj36oak820" d="M425.300000,428.300000C417.500000,428.300000,409.300000,427.800000,400.500000,426.700000C355.500000,421.200000,302.600000,401.900000,251.700000,372.500000C200.700000,343.100000,157.600000,306.900000,130.300000,270.700000C102.100000,233.300000,94,199.900000,107.400000,176.700000C120.800000,153.500000,153.800000,143.800000,200.300000,149.600000C245.300000,155.100000,298.200000,174.400000,349.100000,203.800000C400.100000,233.200000,443.200000,269.400000,470.500000,305.600000C498.700000,343,506.800000,376.400000,493.400000,399.600000C482.500000,418.400000,458.700000,428.300000,425.300000,428.300000ZM175.800000,158C146.200000,158,125,166.300000,116,181.700000C104.900000,200.900000,113,231.200000,138.300000,264.700000C164.800000,299.900000,206.800000,335.100000,256.700000,363.800000C306.500000,392.600000,358,411.400000,401.700000,416.700000C443.300000,421.800000,473.600000,413.700000,484.700000,394.500000C495.800000,375.300000,487.700000,345,462.400000,311.500000C435.900000,276.300000,393.900000,241.100000,344,212.400000C294.200000,183.600000,242.700000,164.800000,199,159.500000C190.800000,158.500000,183.100000,158,175.800000,158Z" fill="rgb(255,255,255)" stroke="none" stroke-width="1"/><path id="eyiqj36oak821" d="M175.200000,428.700000C141.800000,428.700000,118,418.800000,107.100000,400C93.700000,376.800000,101.800000,343.400000,130,306C157.300000,269.800000,200.400000,233.700000,251.400000,204.200000C302.400000,174.700000,355.200000,155.500000,400.200000,150C446.700000,144.300000,479.600000,153.900000,493.100000,177.100000C506.500000,200.300000,498.400000,233.700000,470.200000,271.100000C442.900000,307.300000,399.800000,343.400000,348.800000,372.900000C297.800000,402.300000,245,421.600000,200,427.100000C191.200000,428.200000,182.900000,428.700000,175.200000,428.700000ZM424.600000,158.400000C417.300000,158.400000,409.600000,158.900000,401.400000,159.900000C357.700000,165.300000,306.200000,184.100000,256.400000,212.800000C206.600000,241.500000,164.500000,276.800000,138,311.900000C112.800000,345.400000,104.600000,375.600000,115.700000,394.900000C126.800000,414.100000,157,422.200000,198.700000,417.100000C242.400000,411.700000,293.900000,392.900000,343.700000,364.100000C393.500000,335.300000,435.600000,300.100000,462.100000,265C487.300000,231.500000,495.500000,201.300000,484.400000,182C475.500000,166.700000,454.200000,158.400000,424.600000,158.400000Z" fill="rgb(255,255,255)" stroke="none" stroke-width="1"/><g id="eyiqj36oak822_to" transform="translate(0,0)"><circle id="eyiqj36oak822" r="22.400000" transform="translate(342.900000,409.100000)" fill="rgb(244,0,0)" stroke="rgb(255,255,255)" stroke-width="10" stroke-miterlimit="10"/></g><g id="eyiqj36oak823_to" transform="translate(-1.425125,-6.350000)"><circle id="eyiqj36oak823" r="22.400000" transform="translate(110.300000,398.100000)" fill="rgb(244,0,0)" stroke="rgb(255,255,255)" stroke-width="10" stroke-miterlimit="10"/></g><g id="eyiqj36oak824_to" transform="translate(0,0)"><circle id="eyiqj36oak824" r="22.400000" transform="translate(353.100000,110.100000)" fill="rgb(239,101,101)" stroke="rgb(255,255,255)" stroke-width="10" stroke-miterlimit="10"/></g></svg>