<svg xmlns="http://www.w3.org/2000/svg" width="105.13" height="117.88" viewBox="0 0 105.13 117.88"><defs><style>.a{opacity:0.1;}.b{fill:#ef0000;}.c{fill:#ef6565;}.d{fill:#fff;}</style></defs><g transform="translate(-22.048 -5.954)"><g transform="translate(22.048 5.954)"><g class="a" transform="translate(1.029 6.037)"><path class="b" d="M145.155,103.709c1.328-1.478,2.58-2.981,3.707-4.459,7.089-9.343,9.143-17.685,5.811-23.5s-11.6-8.166-23.245-6.713c-1.854.225-3.782.551-5.736.977-.626-1.9-1.277-3.732-2-5.436-.15-.376-.3-.726-.476-1.077a5.553,5.553,0,0,0,2-4.283,5.618,5.618,0,0,0-5.611-5.611,5.823,5.823,0,0,0-2.1.4c-3.407-4.058-7.264-6.212-11.272-6.212-6.688,0-12.875,5.962-17.434,16.783-.726,1.728-1.4,3.557-2.029,5.436-1.954-.426-3.858-.751-5.736-.977-11.648-1.453-19.914.927-23.245,6.713S56.507,89.882,63.6,99.25c1.127,1.5,2.38,2.981,3.707,4.459-1.3,1.428-2.5,2.881-3.607,4.333a5.341,5.341,0,0,0-1.678-.25,5.6,5.6,0,0,0-3.933,9.594c-2.38,5.586-2.5,10.5-.326,14.3,2.705,4.684,8.617,7.139,16.908,7.139A52.424,52.424,0,0,0,81,138.4c1.854-.225,3.782-.551,5.736-.977.626,1.9,1.277,3.732,2.029,5.436,4.559,10.821,10.746,16.783,17.434,16.783s12.875-5.962,17.434-16.783c.726-1.728,1.4-3.557,2-5.436,1.954.426,3.858.751,5.736.977a52.094,52.094,0,0,0,6.337.426c8.316,0,14.2-2.455,16.908-7.139,3.331-5.786,1.277-14.128-5.811-23.5a53.174,53.174,0,0,0-3.657-4.484Zm-13.4-32.188a45.729,45.729,0,0,1,5.937-.4c7.339,0,12.625,2.054,14.829,5.861,2.755,4.784.7,12.349-5.636,20.715-1.052,1.378-2.2,2.755-3.432,4.133a103.412,103.412,0,0,0-13.627-11.773,102.526,102.526,0,0,0-3.382-17.685c1.8-.326,3.582-.626,5.31-.852Zm-31.036,58.99a91.64,91.64,0,0,1-12.224,3.908,98.521,98.521,0,0,1-3.081-15.18c2.78,1.9,5.661,3.732,8.692,5.486q3.344,1.916,6.688,3.607a5.252,5.252,0,0,0-.15,1.277A5.049,5.049,0,0,0,100.718,130.511Zm11-2.179q3.344-1.691,6.688-3.607c3.006-1.728,5.912-3.582,8.692-5.486a95.64,95.64,0,0,1-3.081,15.18,96.7,96.7,0,0,1-12.224-3.908,5.476,5.476,0,0,0,.075-.9A7.4,7.4,0,0,0,111.715,128.332Zm5.436-5.761q-3.269,1.879-6.538,3.532a5.616,5.616,0,0,0-4.359-2.079A5.539,5.539,0,0,0,101.9,126.1q-3.269-1.653-6.538-3.532c-3.607-2.079-7.064-4.308-10.3-6.613-.376-3.958-.576-8.066-.576-12.224s.2-8.266.576-12.224c3.231-2.3,6.688-4.534,10.3-6.613s7.264-3.958,10.9-5.611q5.448,2.48,10.9,5.611c3.632,2.079,7.064,4.308,10.3,6.613.376,3.958.576,8.066.576,12.224s-.2,8.266-.576,12.224c-3.231,2.3-6.688,4.509-10.3,6.613Zm-34.768-8.592a96.165,96.165,0,0,1-11.623-10.27,98.62,98.62,0,0,1,11.623-10.27c-.276,3.357-.4,6.788-.4,10.27S82.107,110.623,82.382,113.979ZM94.105,82.693c-3.006,1.728-5.912,3.582-8.692,5.486A95.642,95.642,0,0,1,88.494,73a96.364,96.364,0,0,1,14.679,4.935c-3.006,1.4-6.037,3.006-9.068,4.759Zm15.2-4.784a100.177,100.177,0,0,1,14.679-4.935,98.521,98.521,0,0,1,3.081,15.18c-2.78-1.9-5.661-3.732-8.692-5.486-3.006-1.728-6.037-3.306-9.068-4.759Zm20.816,15.53a96.167,96.167,0,0,1,11.623,10.27,98.623,98.623,0,0,1-11.623,10.27c.276-3.357.4-6.788.4-10.27S130.4,96.8,130.126,93.439Zm-39-27.9c4.083-9.669,9.594-15.23,15.13-15.23,3.156,0,6.312,1.8,9.193,5.185a5.606,5.606,0,0,0,4.183,9.343,4.769,4.769,0,0,0,1.353-.175c.125.3.25.6.4.9q1.015,2.4,1.879,5.035a103.6,103.6,0,0,0-17.008,5.912,101.308,101.308,0,0,0-17.008-5.912c.576-1.778,1.2-3.457,1.879-5.06ZM65.65,97.722c-6.337-8.366-8.416-15.931-5.636-20.715,2.2-3.832,7.49-5.861,14.829-5.861a45.731,45.731,0,0,1,5.937.4c1.728.225,3.482.526,5.31.9a102.066,102.066,0,0,0-3.382,17.685,101.583,101.583,0,0,0-13.627,11.773c-1.252-1.4-2.4-2.805-3.432-4.183Zm15.1,38.175c-10.42,1.3-18.01-.676-20.766-5.486-1.728-2.981-1.578-7.064.326-11.723a5.713,5.713,0,0,0,1.753.276,5.6,5.6,0,0,0,3.858-9.669c.977-1.252,2-2.5,3.131-3.757a103.412,103.412,0,0,0,13.627,11.773A102.525,102.525,0,0,0,86.065,135c-1.8.376-3.582.676-5.31.9Zm40.629,5.987c-4.083,9.694-9.594,15.255-15.13,15.255s-11.047-5.561-15.13-15.255q-1.014-2.4-1.879-5.035a95.006,95.006,0,0,0,12.424-4.008,5.6,5.6,0,0,0,9.168,0,98.94,98.94,0,0,0,12.424,4.008q-.864,2.63-1.879,5.035Zm31.111-11.472c-2.755,4.784-10.345,6.788-20.766,5.486-1.728-.225-3.482-.526-5.31-.9a102.068,102.068,0,0,0,3.382-17.685,101.584,101.584,0,0,0,13.627-11.773c1.227,1.378,2.38,2.755,3.432,4.133,6.362,8.391,8.416,15.956,5.636,20.74Z" transform="translate(-56.208 -47.8)"/><circle class="b" cx="11.898" cy="11.898" r="11.898" transform="translate(38.147 44.011)"/></g><g transform="translate(39.176 44.036)"><circle class="c" cx="11.898" cy="11.898" r="11.898"/><path class="d" d="M247.385,222.183h-3.056V216.2a.266.266,0,0,0-.5-.125l-4.534,8.792a.249.249,0,0,0,.225.376h3.056v5.987a.266.266,0,0,0,.5.125l4.534-8.792A.249.249,0,0,0,247.385,222.183Z" transform="translate(-231.554 -211.812)"/></g><circle class="c" cx="5.611" cy="5.611" r="5.611" transform="translate(58.84 5.811)"/><circle class="b" cx="5.611" cy="5.611" r="5.611" transform="translate(1.277 59.992)"/><circle class="b" cx="5.611" cy="5.611" r="5.611" transform="translate(45.464 76.224)"/><path class="d" d="M142.076,79.634c1.328-1.478,2.58-2.981,3.707-4.459,7.089-9.343,9.143-17.685,5.811-23.5s-11.6-8.166-23.245-6.713q-2.78.338-5.711.977c-.6-1.854-1.252-3.632-1.979-5.335a6.868,6.868,0,0,0-4.133-12.349,6.941,6.941,0,0,0-2.981.676c-3.231-3.482-6.738-5.235-10.4-5.235-6.688,0-12.875,5.962-17.434,16.783-.726,1.728-1.4,3.557-2.029,5.436-1.954-.426-3.858-.751-5.736-.977-11.648-1.453-19.914.927-23.245,6.713s-1.277,14.128,5.811,23.5c1.127,1.5,2.38,2.981,3.707,4.484-.977,1.1-1.9,2.179-2.78,3.281A6.855,6.855,0,0,0,54.53,94.538c-1.879,5.085-1.829,9.594.175,13.05,2.63,4.559,8.316,7.014,16.407,7.114h.526a57.641,57.641,0,0,0,12.023-1.4c.626,1.9,1.277,3.732,2,5.436,4.559,10.821,10.746,16.783,17.434,16.783s12.875-5.962,17.434-16.783c.726-1.728,1.4-3.557,2-5.436a57.83,57.83,0,0,0,12.023,1.4h.526c8.116-.1,13.777-2.555,16.407-7.114,3.331-5.786,1.277-14.128-5.811-23.5a46.926,46.926,0,0,0-3.607-4.459Zm-13.4-32.188c10.42-1.3,18.01.676,20.766,5.486,2.755,4.784.7,12.349-5.636,20.715-1.052,1.378-2.2,2.755-3.432,4.133a103.413,103.413,0,0,0-13.627-11.773,102.067,102.067,0,0,0-3.382-17.685c1.8-.351,3.582-.651,5.31-.877ZM96.462,106.887a95.5,95.5,0,0,1-11.022,3.482,98.522,98.522,0,0,1-3.081-15.18c2.78,1.9,5.661,3.732,8.692,5.486,1.829,1.052,3.682,2.079,5.536,3.031a6.617,6.617,0,0,0-.25,1.854,4.689,4.689,0,0,0,.125,1.328Zm6.713-5.686a4.359,4.359,0,1,1-4.359,4.359A4.362,4.362,0,0,1,103.175,101.2Zm6.588,2.48c1.854-.952,3.707-1.979,5.536-3.031,3.006-1.728,5.912-3.582,8.692-5.486a95.642,95.642,0,0,1-3.081,15.18,95.192,95.192,0,0,1-11.022-3.457,5.909,5.909,0,0,0,.125-1.353A5.814,5.814,0,0,0,109.763,103.681Zm4.308-5.185c-1.778,1.027-3.607,2.029-5.411,2.956a6.838,6.838,0,0,0-10.971,0c-1.8-.927-3.632-1.929-5.411-2.956-3.607-2.079-7.064-4.308-10.3-6.613-.376-3.958-.576-8.066-.576-12.224s.2-8.266.576-12.224q4.885-3.494,10.3-6.613c3.607-2.079,7.264-3.958,10.9-5.611q5.448,2.48,10.9,5.611c3.607,2.079,7.064,4.308,10.3,6.613.376,3.958.576,8.066.576,12.224,0,4.183-.2,8.266-.576,12.224-3.231,2.3-6.688,4.509-10.3,6.613ZM79.3,89.9a95.978,95.978,0,0,1-11.6-10.245A97.93,97.93,0,0,1,79.3,69.414c-.276,3.357-.4,6.788-.4,10.245s.125,6.888.4,10.245Zm3.056-25.825A95.642,95.642,0,0,1,85.44,48.9a96.363,96.363,0,0,1,14.679,4.935c-3.031,1.453-6.062,3.031-9.093,4.784-3.006,1.728-5.912,3.557-8.667,5.461Zm23.872-10.245a99.46,99.46,0,0,1,14.7-4.935,98.52,98.52,0,0,1,3.081,15.18c-2.78-1.9-5.661-3.732-8.692-5.486C112.293,56.865,109.262,55.287,106.231,53.834Zm20.816,15.555a95.983,95.983,0,0,1,11.6,10.245A98.623,98.623,0,0,1,127.021,89.9c.276-3.357.4-6.788.4-10.27.025-3.482-.1-6.913-.376-10.245Zm-6.162-34.267a4.346,4.346,0,1,1-4.333-4.333A4.362,4.362,0,0,1,120.884,35.122ZM88.045,41.46c4.083-9.669,9.594-15.23,15.13-15.23,2.881,0,5.686,1.428,8.366,4.233a6.858,6.858,0,0,0,5.01,11.548,7.361,7.361,0,0,0,1.854-.25c.626,1.528,1.227,3.131,1.778,4.784a103.6,103.6,0,0,0-17.008,5.912,101.308,101.308,0,0,0-17.008-5.912c.576-1.8,1.2-3.482,1.879-5.085ZM62.57,73.648c-6.337-8.366-8.416-15.931-5.636-20.715S67.28,46.144,77.7,47.446c1.728.225,3.482.526,5.31.9a102.066,102.066,0,0,0-3.382,17.685A103.168,103.168,0,0,0,66,77.806C64.75,76.428,63.6,75.025,62.57,73.648Zm-3.582,11.3A4.359,4.359,0,1,1,54.63,89.3,4.362,4.362,0,0,1,58.988,84.945Zm12.2,27.278c-9.068-.125-12.775-3.256-14.278-5.861-1.578-2.73-1.6-6.362-.125-10.546a7.14,7.14,0,0,0,2.2.376,6.874,6.874,0,0,0,6.863-6.863,6.753,6.753,0,0,0-2.229-5.035c.751-.927,1.528-1.854,2.355-2.78A103.412,103.412,0,0,0,79.6,93.286a102.064,102.064,0,0,0,3.382,17.685A58.451,58.451,0,0,1,71.187,112.223Zm47.117,5.586c-4.083,9.694-9.594,15.255-15.13,15.255s-11.047-5.561-15.13-15.255q-1.014-2.4-1.879-5.035a97.281,97.281,0,0,0,11.222-3.532,6.853,6.853,0,0,0,11.573,0,92.627,92.627,0,0,0,11.222,3.532Q119.319,115.4,118.3,117.809Zm31.111-11.472c-2.73,4.734-9.268,5.811-14.278,5.861a55.345,55.345,0,0,1-11.8-1.277,102.065,102.065,0,0,0,3.382-17.685,101.583,101.583,0,0,0,13.627-11.773c1.227,1.378,2.38,2.755,3.432,4.133,6.362,8.391,8.416,15.956,5.636,20.741Z" transform="translate(-52.1 -23.7)"/><path class="b" d="M221.209,197.487a1.252,1.252,0,1,0-.852,2.355,10.651,10.651,0,1,1-7.389.05,1.245,1.245,0,0,0-.877-2.33,13.149,13.149,0,1,0,9.118-.075Z" transform="translate(-165.651 -153.902)"/><path class="b" d="M113.05,51.141a1.175,1.175,0,0,1-.877-.376,1.24,1.24,0,0,1,0-1.778L113,48.16l-1.252-.8a1.277,1.277,0,0,1-.576-.927,1.3,1.3,0,0,1,.351-1.027l1.929-1.929a1.258,1.258,0,1,1,1.778,1.778l-.827.827,1.252.8a1.277,1.277,0,0,1,.576.927,1.3,1.3,0,0,1-.351,1.027l-1.929,1.929A1.25,1.25,0,0,1,113.05,51.141Z" transform="translate(-96.367 -38.241)"/><path class="c" d="M388.15,320.041a1.175,1.175,0,0,1-.877-.376,1.24,1.24,0,0,1,0-1.778l.827-.827-1.252-.8a1.277,1.277,0,0,1-.576-.927,1.3,1.3,0,0,1,.351-1.027l1.929-1.929a1.258,1.258,0,0,1,1.778,1.778l-.827.827,1.252.8a1.277,1.277,0,0,1,.576.927,1.3,1.3,0,0,1-.351,1.027l-1.929,1.929A1.271,1.271,0,0,1,388.15,320.041Z" transform="translate(-302.558 -239.784)"/><path class="c" d="M119.808,156.316a1.24,1.24,0,0,1-1.252-1.252,1.507,1.507,0,0,0-1.5-1.5,1.252,1.252,0,1,1,0-2.5,1.507,1.507,0,0,0,1.5-1.5,1.252,1.252,0,1,1,2.5,0,1.507,1.507,0,0,0,1.5,1.5,1.252,1.252,0,1,1,0,2.5,1.507,1.507,0,0,0-1.5,1.5A1.273,1.273,0,0,1,119.808,156.316Z" transform="translate(-99.844 -117.089)"/><path class="c" d="M141.208,425.116a1.24,1.24,0,0,1-1.252-1.252,1.507,1.507,0,0,0-1.5-1.5,1.252,1.252,0,1,1,0-2.5,1.507,1.507,0,0,0,1.5-1.5,1.252,1.252,0,1,1,2.5,0,1.507,1.507,0,0,0,1.5,1.5,1.252,1.252,0,1,1,0,2.5,1.507,1.507,0,0,0-1.5,1.5A1.24,1.24,0,0,1,141.208,425.116Z" transform="translate(-115.883 -318.558)"/><path class="c" d="M443.808,252.416a1.24,1.24,0,0,1-1.252-1.252,1.507,1.507,0,0,0-1.5-1.5,1.252,1.252,0,0,1,0-2.5,1.507,1.507,0,0,0,1.5-1.5,1.252,1.252,0,0,1,2.5,0,1.507,1.507,0,0,0,1.5,1.5,1.252,1.252,0,0,1,0,2.5,1.507,1.507,0,0,0-1.5,1.5A1.24,1.24,0,0,1,443.808,252.416Z" transform="translate(-342.685 -189.117)"/></g></g></svg>