<?xml version="1.0" encoding="iso-8859-1"?>
<!-- Generator: Adobe Illustrator 19.0.0, SVG Export Plug-In . SVG Version: 6.00 Build 0)  -->
<svg version="1.1" id="Capa_1" xmlns="http://www.w3.org/2000/svg" xmlns:xlink="http://www.w3.org/1999/xlink" x="0px" y="0px"
	 viewBox="0 0 512 512" style="enable-background:new 0 0 512 512;" xml:space="preserve">
<g>
	<g>
		<g>
			<path d="M478.497,33.538c-26.256-26.24-91.952-38.88-163.44-31.36c-80.75,7.308-156.684,41.606-215.552,97.36
				C43.754,158.402,9.457,234.33,2.145,315.074c-7.504,71.52,5.088,137.2,31.36,163.456c20.8,20.8,66.8,33.44,122.24,33.44
				c82.336,0,185.328-28.016,256.752-99.44c55.754-58.868,90.052-134.802,97.36-215.552
				C517.361,125.474,504.737,59.794,478.497,33.538z M56.129,455.906l-0.032,0.032c-0.176-0.176-0.336-0.48-0.512-0.672
				c-3.663-4.988-5.407-11.128-4.912-17.296c0-39.232,39.888-111.328,101.648-183.68l-24.352-20.8
				c-38.762,43.392-70.779,92.366-94.976,145.28c-1.492-20.105-1.176-40.303,0.944-60.352
				c6.553-73.459,37.614-142.581,88.192-196.256c53.684-50.569,122.812-81.62,196.272-88.16c12.304-1.303,24.667-1.96,37.04-1.968
				c8.112,0,15.744,0.384,23.152,0.944c-48.849,22.169-94.244,51.269-134.784,86.4l20.416,24.656
				c69.52-57.52,136-93.264,173.68-93.264c6.39-0.573,12.756,1.322,17.792,5.296l0.176,0.144
				c22.832,22.832-21.36,130.72-145.184,254.544S78.961,478.722,56.129,455.906z M478.033,193.634
				c-6.54,73.46-37.591,142.588-88.16,196.272c-73.024,73.008-181.232,94.192-255.904,89.216
				c60.608-25.264,134.72-81.152,199.344-145.792s120.48-138.768,145.712-199.392C480.468,153.827,480.136,173.804,478.033,193.634z
				"/>
			<path d="M195.137,162.626l22.096,23.168c7.712-7.36,15.429-14.475,23.152-21.344l-21.312-23.872
				C211.116,147.725,203.137,155.074,195.137,162.626z"/>
			<path d="M149.537,209.09l23.584,21.632c6.987-7.616,14.208-15.221,21.664-22.816l-22.848-22.4
				C164.289,193.346,156.823,201.207,149.537,209.09z"/>
		</g>
	</g>
</g>
<g>
</g>
<g>
</g>
<g>
</g>
<g>
</g>
<g>
</g>
<g>
</g>
<g>
</g>
<g>
</g>
<g>
</g>
<g>
</g>
<g>
</g>
<g>
</g>
<g>
</g>
<g>
</g>
<g>
</g>
</svg>
