<?xml version="1.0" encoding="iso-8859-1"?>
<!-- Generator: Adobe Illustrator 19.0.0, SVG Export Plug-In . SVG Version: 6.00 Build 0)  -->
<svg version="1.1" id="Layer_1" xmlns="http://www.w3.org/2000/svg" xmlns:xlink="http://www.w3.org/1999/xlink" x="0px" y="0px"
	 viewBox="0 0 510.756 510.756" style="enable-background:new 0 0 510.756 510.756;" xml:space="preserve">
<g>
	<g>
		<g>
			<path d="M272.265,17.111c57.404,4.045,111.411,28.663,152.064,69.316c40.653,40.661,65.271,94.66,69.325,152.064
				c0.316,4.497,4.053,7.936,8.499,7.936c0.196,0,0.41-0.008,0.606-0.026c4.702-0.333,8.243-4.412,7.91-9.105
				c-4.326-61.508-30.711-119.373-74.274-162.935C392.833,30.798,334.977,4.422,273.469,0.087c-4.813-0.247-8.781,3.217-9.114,7.919
				C264.022,12.699,267.564,16.778,272.265,17.111z"/>
			<path d="M238.482,493.646c-57.395-4.045-111.403-28.663-152.055-69.316c-40.661-40.653-65.28-94.652-69.325-152.064
				c-0.333-4.693-4.514-8.252-9.105-7.91c-4.702,0.333-8.243,4.412-7.91,9.114c4.326,61.508,30.703,119.373,74.274,162.927
				c43.554,43.563,101.419,69.939,162.927,74.274c0.205,0.017,0.401,0.026,0.606,0.026c4.437,0,8.183-3.439,8.499-7.936
				C246.725,498.058,243.184,493.979,238.482,493.646z"/>
			<path d="M7.843,247.161c6.05,0.495,12.194,0.742,18.27,0.751h0.009c16.717,0,33.152-1.903,49.075-5.478l4.471,16.666
				c1.015,3.814,4.463,6.332,8.235,6.332c0.734,0,1.476-0.102,2.219-0.299c4.548-1.22,7.245-5.897,6.033-10.453l-4.446-16.589
				c13.09-4.028,25.762-9.276,37.871-15.667l8.568,14.865c1.587,2.731,4.454,4.267,7.407,4.267c1.451,0,2.91-0.367,4.258-1.143
				c4.079-2.364,5.478-7.578,3.123-11.656l-8.61-14.925c11.469-7.245,22.332-15.573,32.461-24.969l12.211,12.211
				c1.673,1.664,3.857,2.5,6.033,2.5c2.185,0,4.369-0.836,6.033-2.5c3.336-3.336,3.336-8.73,0-12.066l-12.228-12.237
				c9.37-10.112,17.732-20.958,24.969-32.444l14.942,8.619c1.34,0.777,2.807,1.143,4.258,1.143c2.944,0,5.811-1.527,7.398-4.267
				c2.355-4.079,0.956-9.301-3.123-11.657l-14.985-8.653c6.383-12.109,11.682-24.747,15.718-37.803l16.657,4.463
				c0.742,0.196,1.485,0.299,2.21,0.299c3.772,0,7.211-2.517,8.235-6.332c1.229-4.548-1.476-9.233-6.033-10.453l-16.725-4.48
				c4.932-21.828,6.682-44.501,4.804-67.362c-0.384-4.642-4.215-8.192-9.088-7.817C176.274,4.192,118.136,30.594,74.36,74.361
				C30.593,118.129,4.191,176.275,0.026,238.082C-0.281,242.732,3.192,246.777,7.843,247.161z M86.426,86.427
				c38.827-38.818,89.762-63.002,144.239-68.642c0.725,17.988-0.905,35.789-4.745,53.009l-16.299-4.361
				c-4.531-1.212-9.224,1.485-10.445,6.033c-1.229,4.548,1.485,9.225,6.033,10.445l16.256,4.36
				c-3.635,11.622-8.277,22.921-13.926,33.732l-14.618-8.439c-4.079-2.355-9.293-0.956-11.657,3.123
				c-2.355,4.087-0.956,9.301,3.123,11.657l14.601,8.431c-6.477,10.214-13.901,19.908-22.212,28.937l-11.913-11.904
				c-3.328-3.336-8.73-3.336-12.066,0c-3.328,3.328-3.328,8.73,0,12.066l11.921,11.913c-9.054,8.337-18.731,15.778-28.919,22.281
				l-8.457-14.66c-2.372-4.096-7.603-5.478-11.657-3.123c-4.087,2.355-5.487,7.569-3.132,11.656l8.491,14.703
				c-10.803,5.675-22.101,10.317-33.758,13.943l-4.378-16.358c-1.22-4.557-5.905-7.262-10.453-6.033
				c-4.548,1.212-7.245,5.897-6.033,10.445l4.395,16.393c-17.143,3.789-34.927,5.385-53.035,4.642
				C23.425,176.189,47.608,125.245,86.426,86.427z"/>
			<path d="M502.913,263.605c-6.05-0.495-12.203-0.751-18.27-0.751c-16.734,0-33.161,1.903-49.092,5.478l-4.463-16.666
				c-1.212-4.557-5.888-7.27-10.453-6.033c-4.548,1.212-7.253,5.897-6.033,10.445l4.437,16.597
				c-13.09,4.028-25.754,9.276-37.862,15.667l-8.576-14.865c-2.364-4.088-7.595-5.487-11.656-3.123
				c-4.087,2.355-5.487,7.569-3.123,11.657l8.602,14.916c-11.46,7.253-22.332,15.582-32.452,24.977l-12.22-12.211
				c-3.336-3.337-8.73-3.337-12.066,0c-3.337,3.328-3.337,8.73,0,12.066l12.237,12.228c-9.37,10.112-17.741,20.966-24.969,32.452
				l-14.942-8.627c-4.087-2.355-9.301-0.964-11.657,3.123c-2.364,4.087-0.964,9.301,3.123,11.665l14.984,8.644
				c-6.383,12.109-11.682,24.747-15.718,37.811l-16.657-4.471c-4.54-1.203-9.225,1.485-10.453,6.042
				c-1.22,4.548,1.485,9.225,6.033,10.445l16.725,4.489c-4.932,21.82-6.673,44.493-4.796,67.354
				c0.367,4.454,4.087,7.842,8.499,7.842c0.188,0,0.384-0.008,0.58-0.026c61.798-4.164,119.945-30.558,163.721-74.334
				c43.767-43.759,70.161-101.905,74.334-163.712C511.037,268.025,507.555,263.98,502.913,263.605z M424.329,424.33
				c-38.827,38.827-89.771,63.002-144.247,68.642c-0.725-17.98,0.913-35.78,4.753-53.009l16.29,4.369
				c0.742,0.196,1.485,0.299,2.219,0.299c3.763,0,7.211-2.517,8.235-6.332c1.22-4.548-1.485-9.233-6.033-10.453l-16.265-4.361
				c3.635-11.622,8.277-22.912,13.926-33.724l14.618,8.44c1.34,0.768,2.807,1.135,4.258,1.135c2.953,0,5.82-1.527,7.398-4.267
				c2.364-4.079,0.964-9.293-3.123-11.656l-14.601-8.422c6.485-10.223,13.901-19.908,22.221-28.945l11.904,11.913
				c1.664,1.664,3.849,2.5,6.033,2.5c2.185,0,4.369-0.836,6.033-2.5c3.337-3.337,3.337-8.738,0-12.066l-11.913-11.921
				c9.045-8.337,18.731-15.753,28.928-22.246l8.448,14.635c1.579,2.731,4.446,4.267,7.398,4.267c1.451,0,2.918-0.367,4.258-1.143
				c4.079-2.364,5.478-7.578,3.123-11.656l-8.465-14.677c10.803-5.658,22.093-10.334,33.741-13.961l4.378,16.35
				c1.015,3.806,4.463,6.323,8.235,6.323c0.725,0,1.468-0.094,2.21-0.29c4.548-1.22,7.253-5.897,6.033-10.453l-4.352-16.282
				c14.507-3.217,29.449-4.915,44.672-4.915c2.765,0,5.538,0.06,8.329,0.171C487.322,334.568,463.139,385.512,424.329,424.33z"/>
		</g>
	</g>
</g>
<g>
</g>
<g>
</g>
<g>
</g>
<g>
</g>
<g>
</g>
<g>
</g>
<g>
</g>
<g>
</g>
<g>
</g>
<g>
</g>
<g>
</g>
<g>
</g>
<g>
</g>
<g>
</g>
<g>
</g>
</svg>
