<svg id="eai9wmamx50p1" xmlns="http://www.w3.org/2000/svg" xmlns:xlink="http://www.w3.org/1999/xlink" viewBox="0 0 512 512" shape-rendering="geometricPrecision" text-rendering="geometricPrecision"><style><![CDATA[#eai9wmamx50p5 {animation: eai9wmamx50p5__m 3000ms linear infinite normal forwards}@keyframes eai9wmamx50p5__m { 0% {d: path('M471.500000,133.300000C406.100000,83,342.600000,124,271.800000,109.500000C200.600000,94.900000,172.200000,46.300000,91,68.800000C19,88.600000,-24.600000,168.300000,14.900000,235C26.200000,254,45.400000,268.400000,53.200000,289.600000C65.900000,323.900000,46.600000,350.300000,50.400000,384C66,524.100000,280,469.800000,358.700000,426.200000C482.200000,357.900000,565.700000,205.800000,471.500000,133.300000Z')} 33.333333% {d: path('M471.500000,91.238353C406.100000,31.153010,342.600000,80.129135,271.800000,62.808310C200.600000,45.368032,172.200000,-12.686594,91,14.190548C19,37.842432,-24.600000,133.047240,14.900000,212.723032C26.200000,235.419285,45.400000,252.620656,53.200000,277.944896C65.900000,318.917605,46.600000,350.453451,50.400000,390.709436C66,558.064436,280,493.200935,358.700000,441.119008C482.200000,359.531952,565.700000,177.842476,471.500000,91.238353Z')} 66.666667% {d: path('M471.500000,117.653198C406.100000,75.280310,342.600000,109.818847,271.800000,97.603998C200.600000,85.304909,172.200000,44.364107,91,63.318182C19,79.997768,-24.600000,147.137315,14.900000,203.325618C26.200000,219.331282,45.400000,231.461890,53.200000,249.320841C65.900000,278.215276,46.600000,300.454724,50.400000,328.843717C66,446.864426,280,401.121924,358.700000,364.393138C482.200000,306.856990,565.700000,178.727441,471.500000,117.653198Z')} 100% {d: path('M471.500000,133.300000C406.100000,83,342.600000,124,271.800000,109.500000C200.600000,94.900000,172.200000,46.300000,91,68.800000C19,88.600000,-24.600000,168.300000,14.900000,235C26.200000,254,45.400000,268.400000,53.200000,289.600000C65.900000,323.900000,46.600000,350.300000,50.400000,384C66,524.100000,280,469.800000,358.700000,426.200000C482.200000,357.900000,565.700000,205.800000,471.500000,133.300000Z')} }#eai9wmamx50p6_to {animation: eai9wmamx50p6_to__to 3000ms linear infinite normal forwards}@keyframes eai9wmamx50p6_to__to { 0% {transform: translate(0px,0px)} 30% {transform: translate(0px,31.993018px)} 100% {transform: translate(0px,0px)} }#eai9wmamx50p68_tr {animation: eai9wmamx50p68_tr__tr 3000ms linear infinite normal forwards}@keyframes eai9wmamx50p68_tr__tr { 0% {transform: translate(374.135215px,174.546292px) rotate(0deg)} 26.666667% {transform: translate(374.135215px,174.546292px) rotate(0deg)} 73.333333% {transform: translate(374.135215px,174.546292px) rotate(360deg)} 100% {transform: translate(374.135215px,174.546292px) rotate(360deg)} }#eai9wmamx50p77_to {animation: eai9wmamx50p77_to__to 3000ms linear infinite normal forwards}@keyframes eai9wmamx50p77_to__to { 0% {transform: translate(0px,0px)} 46.666667% {transform: translate(73.583942px,-24.794589px)} 93.333333% {transform: translate(0px,0px)} 100% {transform: translate(0px,0px)} }#eai9wmamx50p78_to {animation: eai9wmamx50p78_to__to 3000ms linear infinite normal forwards}@keyframes eai9wmamx50p78_to__to { 0% {transform: translate(0px,0px)} 36.666667% {transform: translate(52.788480px,115.974692px)} 80% {transform: translate(0px,0px)} 100% {transform: translate(0px,0px)} }#eai9wmamx50p79 {animation: eai9wmamx50p79__m 3000ms linear infinite normal forwards}@keyframes eai9wmamx50p79__m { 0% {d: path('M105.400000,236.800000C101.700000,236.800000,98,235.400000,95.100000,232.600000C89.400000,226.900000,89.400000,217.700000,95.100000,212.100000C100.800000,206.400000,110,206.400000,115.600000,212.100000C121.300000,217.800000,121.300000,227,115.600000,232.600000C112.800000,235.300000,109.100000,236.800000,105.400000,236.800000ZM105.400000,217.800000C104.200000,217.800000,103.100000,218.200000,102.200000,219.100000C100.400000,220.900000,100.400000,223.700000,102.200000,225.500000C104,227.300000,106.800000,227.300000,108.600000,225.500000C110.400000,223.700000,110.400000,220.900000,108.600000,219.100000C107.700000,218.200000,106.500000,217.800000,105.400000,217.800000Z')} 33.333333% {d: path('M111.504214,248.935136C106.254602,248.935136,101.004991,246.948796,96.890430,242.976117C88.803190,234.888877,88.803190,221.835788,96.890430,213.890430C104.977670,205.803190,118.030759,205.803190,125.976117,213.890430C134.063357,221.977670,134.063357,235.030759,125.976117,242.976117C122.003438,246.806915,116.753826,248.935136,111.504214,248.935136ZM111.504214,221.977670C109.801637,221.977670,108.240942,222.545195,106.964009,223.822128C104.410144,226.375993,104.410144,230.348672,106.964009,232.902538C109.517875,235.456403,113.490554,235.456403,116.044419,232.902538C118.598284,230.348672,118.598284,226.375993,116.044419,223.822128C114.767486,222.545195,113.064910,221.977670,111.504214,221.977670Z')} 66.666667% {d: path('M105.400000,236.800000C101.700000,236.800000,98,235.400000,95.100000,232.600000C89.400000,226.900000,89.400000,217.700000,95.100000,212.100000C100.800000,206.400000,110,206.400000,115.600000,212.100000C121.300000,217.800000,121.300000,227,115.600000,232.600000C112.800000,235.300000,109.100000,236.800000,105.400000,236.800000ZM105.400000,217.800000C104.200000,217.800000,103.100000,218.200000,102.200000,219.100000C100.400000,220.900000,100.400000,223.700000,102.200000,225.500000C104,227.300000,106.800000,227.300000,108.600000,225.500000C110.400000,223.700000,110.400000,220.900000,108.600000,219.100000C107.700000,218.200000,106.500000,217.800000,105.400000,217.800000Z')} 100% {d: path('M105.400000,236.800000C101.700000,236.800000,98,235.400000,95.100000,232.600000C89.400000,226.900000,89.400000,217.700000,95.100000,212.100000C100.800000,206.400000,110,206.400000,115.600000,212.100000C121.300000,217.800000,121.300000,227,115.600000,232.600000C112.800000,235.300000,109.100000,236.800000,105.400000,236.800000ZM105.400000,217.800000C104.200000,217.800000,103.100000,218.200000,102.200000,219.100000C100.400000,220.900000,100.400000,223.700000,102.200000,225.500000C104,227.300000,106.800000,227.300000,108.600000,225.500000C110.400000,223.700000,110.400000,220.900000,108.600000,219.100000C107.700000,218.200000,106.500000,217.800000,105.400000,217.800000Z')} }#eai9wmamx50p79_to {animation: eai9wmamx50p79_to__to 3000ms linear infinite normal forwards}@keyframes eai9wmamx50p79_to__to { 0% {transform: translate(0px,0px)} 33.333333% {transform: translate(-40.791098px,-33.592669px)} 66.666667% {transform: translate(0px,0px)} 100% {transform: translate(0px,0px)} }#eai9wmamx50p80 {animation: eai9wmamx50p80__m 3000ms linear infinite normal forwards}@keyframes eai9wmamx50p80__m { 0% {d: path('M98.900000,281.700000C97.600000,281.700000,96.300000,281.200000,95.400000,280.200000L89.400000,274.200000L83.400000,280.200000C81.400000,282.200000,78.300000,282.200000,76.300000,280.200000C74.300000,278.200000,74.300000,275.100000,76.300000,273.100000L85.800000,263.600000C87.800000,261.600000,90.900000,261.600000,92.900000,263.600000L102.400000,273.100000C104.400000,275.100000,104.400000,278.200000,102.400000,280.200000C101.500000,281.200000,100.200000,281.700000,98.900000,281.700000Z')} 43.333333% {d: path('M122.385617,300.800336C119.818758,300.800336,117.251899,299.813083,115.474843,297.838576L103.627801,285.991534L91.780760,297.838576C87.831746,301.787589,81.710774,301.787589,77.761760,297.838576C73.812747,293.889562,73.812747,287.768590,77.761760,283.819576L96.519576,265.061760C100.468590,261.112747,106.589562,261.112747,110.538576,265.061760L129.296391,283.819576C133.245405,287.768590,133.245405,293.889562,129.296391,297.838576C127.519335,299.813083,124.952476,300.800336,122.385617,300.800336Z')} 100% {d: path('M98.900000,281.700000C97.600000,281.700000,96.300000,281.200000,95.400000,280.200000L89.400000,274.200000L83.400000,280.200000C81.400000,282.200000,78.300000,282.200000,76.300000,280.200000C74.300000,278.200000,74.300000,275.100000,76.300000,273.100000L85.800000,263.600000C87.800000,261.600000,90.900000,261.600000,92.900000,263.600000L102.400000,273.100000C104.400000,275.100000,104.400000,278.200000,102.400000,280.200000C101.500000,281.200000,100.200000,281.700000,98.900000,281.700000Z')} }#eai9wmamx50p80_to {animation: eai9wmamx50p80_to__to 3000ms linear infinite normal forwards}@keyframes eai9wmamx50p80_to__to { 0% {transform: translate(0px,0px)} 43.333333% {transform: translate(-37.591796px,63.986037px)} 90% {transform: translate(0px,0px)} 100% {transform: translate(0px,0px)} }#eai9wmamx50p81 {animation: eai9wmamx50p81__m 3000ms linear infinite normal forwards}@keyframes eai9wmamx50p81__m { 0% {d: path('M426.800000,426.500000C425.500000,426.500000,424.200000,426,423.300000,425L417.300000,419L411.300000,425C409.300000,427,406.200000,427,404.200000,425C402.200000,423,402.200000,419.900000,404.200000,417.900000L413.700000,408.400000C415.700000,406.400000,418.800000,406.400000,420.800000,408.400000L430.300000,417.900000C432.300000,419.900000,432.300000,423,430.300000,425C429.400000,426,428.100000,426.500000,426.800000,426.500000Z')} 33.333333% {d: path('M422.087273,426.500000C419.561965,426.500000,417.036656,425.528727,415.288365,423.586182L403.633093,411.930910L391.977821,423.586182C388.092730,427.471273,382.070840,427.471273,378.185749,423.586182C374.300659,419.701091,374.300659,413.679201,378.185749,409.794110L396.639930,391.339930C400.525020,387.454839,406.546911,387.454839,410.432002,391.339930L428.886182,409.794110C432.771273,413.679201,432.771273,419.701091,428.886182,423.586182C427.137891,425.528727,424.612582,426.500000,422.087273,426.500000Z')} 100% {d: path('M426.800000,426.500000C425.500000,426.500000,424.200000,426,423.300000,425L417.300000,419L411.300000,425C409.300000,427,406.200000,427,404.200000,425C402.200000,423,402.200000,419.900000,404.200000,417.900000L413.700000,408.400000C415.700000,406.400000,418.800000,406.400000,420.800000,408.400000L430.300000,417.900000C432.300000,419.900000,432.300000,423,430.300000,425C429.400000,426,428.100000,426.500000,426.800000,426.500000Z')} }#eai9wmamx50p81_to {animation: eai9wmamx50p81_to__to 3000ms linear infinite normal forwards}@keyframes eai9wmamx50p81_to__to { 0% {transform: translate(0px,0px)} 50% {transform: translate(29.593542px,-75.983418px)} 100% {transform: translate(0px,0px)} }]]></style><path id="eai9wmamx50p2" d="M373.600000,146.800000C373.600000,146.800000,373.600000,146.800000,373.600000,146.800000L373.600000,68.400000C373.600000,62.900000,369.100000,58.400000,363.600000,58.400000L148.500000,58.400000C143,58.400000,138.500000,62.900000,138.500000,68.400000L138.500000,476.200000C138.500000,479.900000,142.400000,482.300000,145.800000,480.700000L159.800000,473.600000C161.200000,472.900000,162.900000,472.900000,164.400000,473.600000L183.400000,483.300000C184.800000,484,186.500000,484,188,483.300000L207,473.600000C208.400000,472.900000,210.100000,472.900000,211.500000,473.600000L230.500000,483.300000C231.900000,484,233.600000,484,235,483.300000L254,473.600000C255.400000,472.900000,257.100000,472.900000,258.600000,473.600000L277.600000,483.300000C279,484,280.700000,484,282.100000,483.300000L301.100000,473.600000C302.500000,472.900000,304.200000,472.900000,305.600000,473.600000L324.600000,483.300000C326,484,327.700000,484,329.100000,483.300000L348.100000,473.600000C349.500000,472.900000,351.200000,472.900000,352.600000,473.600000L366.600000,480.700000C369.900000,482.400000,373.900000,480,373.900000,476.200000L373.900000,253.300000L373.900000,253.300000C403.300000,253.300000,427.200000,229.400000,427.200000,200C426.800000,170.600000,403,146.800000,373.600000,146.800000L373.600000,146.800000Z" opacity="0.1" fill="rgb(186,39,39)" stroke="none" stroke-width="1"/><g id="eai9wmamx50p3"><g id="eai9wmamx50p4" opacity="0.25"><path id="eai9wmamx50p5" d="M471.500000,133.300000C406.100000,83,342.600000,124,271.800000,109.500000C200.600000,94.900000,172.200000,46.300000,91,68.800000C19,88.600000,-24.600000,168.300000,14.900000,235C26.200000,254,45.400000,268.400000,53.200000,289.600000C65.900000,323.900000,46.600000,350.300000,50.400000,384C66,524.100000,280,469.800000,358.700000,426.200000C482.200000,357.900000,565.700000,205.800000,471.500000,133.300000Z" fill="rgb(255,255,255)" stroke="none" stroke-width="1"/></g><g id="eai9wmamx50p6_to" transform="translate(0,0)"><g id="eai9wmamx50p6" transform="translate(0,0)"><g id="eai9wmamx50p7"><path id="eai9wmamx50p8" d="M373.500000,43.300000L373.500000,451.100000C373.500000,454.800000,369.600000,457.300000,366.200000,455.600000L352.200000,448.500000C350.800000,447.800000,349.100000,447.800000,347.700000,448.500000L328.700000,458.200000C327.300000,458.900000,325.600000,458.900000,324.200000,458.200000L305.200000,448.500000C303.800000,447.800000,302.100000,447.800000,300.700000,448.500000L281.700000,458.200000C280.300000,458.900000,278.600000,458.900000,277.200000,458.200000L258.200000,448.500000C256.800000,447.800000,255.100000,447.800000,253.600000,448.500000L234.600000,458.200000C233.200000,458.900000,231.500000,458.900000,230.100000,458.200000L211.100000,448.500000C209.700000,447.800000,208,447.800000,206.600000,448.500000L187.600000,458.200000C186.200000,458.900000,184.500000,458.900000,183,458.200000L164,448.500000C162.600000,447.800000,160.900000,447.800000,159.400000,448.500000L145.400000,455.600000C142.100000,457.300000,138.100000,454.900000,138.100000,451.100000L138.100000,43.300000C138.100000,37.800000,142.600000,33.300000,148.100000,33.300000L363.200000,33.300000C369.100000,33.300000,373.600000,37.800000,373.500000,43.300000L373.500000,43.300000Z" fill="rgb(255,255,255)" stroke="none" stroke-width="1"/><path id="eai9wmamx50p9" d="M373.500000,144.600000L373.500000,251.100000C344.100000,251.100000,320.200000,227.200000,320.200000,197.800000C320.200000,168.400000,344.100000,144.600000,373.500000,144.600000Z" opacity="0.41" fill="rgb(239,101,101)" stroke="none" stroke-width="1"/><path id="eai9wmamx50p10" d="M279.500000,463.700000C277.900000,463.700000,276.400000,463.300000,275,462.600000L256,452.900000L237,462.600000C234.200000,464.100000,230.800000,464.100000,227.900000,462.600000L208.900000,452.900000L189.900000,462.600000C187.100000,464.100000,183.700000,464.100000,180.800000,462.600000L161.800000,452.900000L147.800000,460C144.700000,461.600000,141,461.500000,138,459.600000C135,457.700000,133.200000,454.600000,133.200000,451.100000L133.200000,43.300000C133.200000,35,139.900000,28.300000,148.200000,28.300000L197.200000,28.300000C200,28.300000,202.200000,30.500000,202.200000,33.300000C202.200000,36.100000,200,38.300000,197.200000,38.300000L148.200000,38.300000C145.400000,38.300000,143.200000,40.500000,143.200000,43.300000L143.200000,451.100000L157.200000,444C160,442.500000,163.400000,442.500000,166.300000,444L185.300000,453.700000L204.300000,444C207.100000,442.500000,210.500000,442.500000,213.400000,444L232.400000,453.700000L251.400000,444C254.200000,442.500000,257.600000,442.500000,260.500000,444L279.500000,453.700000L298.500000,444C301.300000,442.500000,304.700000,442.500000,307.600000,444L326.600000,453.700000L345.600000,444C348.400000,442.500000,351.800000,442.500000,354.700000,444L368.700000,451.100000L368.700000,257.900000C368.700000,255.100000,370.900000,252.900000,373.700000,252.900000C376.500000,252.900000,378.700000,255.100000,378.700000,257.900000L378.700000,451.100000C378.700000,454.600000,376.900000,457.800000,373.900000,459.600000C370.900000,461.400000,367.300000,461.600000,364.100000,460L350.100000,452.900000L331.100000,462.600000C328.300000,464.100000,324.900000,464.100000,322,462.600000L303,452.900000L284,462.600000C282.600000,463.300000,281.100000,463.700000,279.500000,463.700000L279.500000,463.700000Z" fill="rgb(239,0,0)" stroke="none" stroke-width="1"/></g><g id="eai9wmamx50p11"><g id="eai9wmamx50p12"><g id="eai9wmamx50p13"><path id="eai9wmamx50p14" d="M261,217.900000L174.500000,217.900000C171.700000,217.900000,169.500000,215.700000,169.500000,212.900000C169.500000,210.100000,171.700000,207.900000,174.500000,207.900000L261,207.900000C263.800000,207.900000,266,210.100000,266,212.900000C266,215.700000,263.800000,217.900000,261,217.900000Z" fill="rgb(33,33,33)" stroke="none" stroke-width="1"/></g><g id="eai9wmamx50p15"><path id="eai9wmamx50p16" d="M186,197.900000L174.500000,197.900000C171.700000,197.900000,169.500000,195.700000,169.500000,192.900000C169.500000,190.100000,171.700000,187.900000,174.500000,187.900000L186,187.900000C188.800000,187.900000,191,190.100000,191,192.900000C191,195.700000,188.800000,197.900000,186,197.900000Z" fill="rgb(239,101,101)" stroke="none" stroke-width="1"/></g></g><g id="eai9wmamx50p17"><g id="eai9wmamx50p18"><path id="eai9wmamx50p19" d="M281,263.300000L174.500000,263.300000C171.700000,263.300000,169.500000,261.100000,169.500000,258.300000C169.500000,255.500000,171.700000,253.300000,174.500000,253.300000L281,253.300000C283.800000,253.300000,286,255.500000,286,258.300000C286,261.100000,283.800000,263.300000,281,263.300000Z" fill="rgb(33,33,33)" stroke="none" stroke-width="1"/></g><g id="eai9wmamx50p20"><path id="eai9wmamx50p21" d="M186,243.300000L174.500000,243.300000C171.700000,243.300000,169.500000,241.100000,169.500000,238.300000C169.500000,235.500000,171.700000,233.300000,174.500000,233.300000L186,233.300000C188.800000,233.300000,191,235.500000,191,238.300000C191,241.100000,188.800000,243.300000,186,243.300000Z" fill="rgb(239,101,101)" stroke="none" stroke-width="1"/></g></g><g id="eai9wmamx50p22"><g id="eai9wmamx50p23"><path id="eai9wmamx50p24" d="M271,308.700000L174.500000,308.700000C171.700000,308.700000,169.500000,306.500000,169.500000,303.700000C169.500000,300.900000,171.700000,298.700000,174.500000,298.700000L271,298.700000C273.800000,298.700000,276,300.900000,276,303.700000C276,306.500000,273.800000,308.700000,271,308.700000Z" fill="rgb(33,33,33)" stroke="none" stroke-width="1"/></g><g id="eai9wmamx50p25"><path id="eai9wmamx50p26" d="M186,288.700000L174.500000,288.700000C171.700000,288.700000,169.500000,286.500000,169.500000,283.700000C169.500000,280.900000,171.700000,278.700000,174.500000,278.700000L186,278.700000C188.800000,278.700000,191,280.900000,191,283.700000C191,286.500000,188.800000,288.700000,186,288.700000Z" fill="rgb(239,101,101)" stroke="none" stroke-width="1"/></g></g><g id="eai9wmamx50p27"><g id="eai9wmamx50p28"><path id="eai9wmamx50p29" d="M231,354.100000L174.500000,354.100000C171.700000,354.100000,169.500000,351.900000,169.500000,349.100000C169.500000,346.300000,171.700000,344.100000,174.500000,344.100000L231,344.100000C233.800000,344.100000,236,346.300000,236,349.100000C236,351.900000,233.800000,354.100000,231,354.100000Z" fill="rgb(33,33,33)" stroke="none" stroke-width="1"/></g><g id="eai9wmamx50p30"><path id="eai9wmamx50p31" d="M276.800000,354.100000L255.300000,354.100000C252.500000,354.100000,250.300000,351.900000,250.300000,349.100000C250.300000,346.300000,252.500000,344.100000,255.300000,344.100000L276.800000,344.100000C279.600000,344.100000,281.800000,346.300000,281.800000,349.100000C281.800000,351.900000,279.500000,354.100000,276.800000,354.100000Z" fill="rgb(33,33,33)" stroke="none" stroke-width="1"/></g><g id="eai9wmamx50p32"><path id="eai9wmamx50p33" d="M186,334.100000L174.500000,334.100000C171.700000,334.100000,169.500000,331.900000,169.500000,329.100000C169.500000,326.300000,171.700000,324.100000,174.500000,324.100000L186,324.100000C188.800000,324.100000,191,326.300000,191,329.100000C191,331.900000,188.800000,334.100000,186,334.100000Z" fill="rgb(239,101,101)" stroke="none" stroke-width="1"/></g></g><g id="eai9wmamx50p34"><g id="eai9wmamx50p35"><g id="eai9wmamx50p36"><path id="eai9wmamx50p37" d="M334.600000,217.900000L318.100000,217.900000C315.300000,217.900000,313.100000,215.700000,313.100000,212.900000C313.100000,210.100000,315.300000,207.900000,318.100000,207.900000L334.600000,207.900000C337.400000,207.900000,339.600000,210.100000,339.600000,212.900000C339.600000,215.700000,337.400000,217.900000,334.600000,217.900000Z" fill="rgb(33,33,33)" stroke="none" stroke-width="1"/></g></g><g id="eai9wmamx50p38"><g id="eai9wmamx50p39"><path id="eai9wmamx50p40" d="M339.600000,212.900000C339.600000,215.700000,337.400000,217.900000,334.600000,217.900000L324.100000,217.900000C322.800000,214.700000,321.800000,211.400000,321.100000,207.900000L334.500000,207.900000C337.400000,207.900000,339.600000,210.100000,339.600000,212.900000L339.600000,212.900000Z" fill="rgb(33,33,33)" stroke="none" stroke-width="1"/></g></g><g id="eai9wmamx50p41"><g id="eai9wmamx50p42"><path id="eai9wmamx50p43" d="M334.600000,263.300000L318.100000,263.300000C315.300000,263.300000,313.100000,261.100000,313.100000,258.300000C313.100000,255.500000,315.300000,253.300000,318.100000,253.300000L334.600000,253.300000C337.400000,253.300000,339.600000,255.500000,339.600000,258.300000C339.600000,261.100000,337.400000,263.300000,334.600000,263.300000Z" fill="rgb(33,33,33)" stroke="none" stroke-width="1"/></g></g><g id="eai9wmamx50p44"><g id="eai9wmamx50p45"><path id="eai9wmamx50p46" d="M334.600000,308.700000L318.100000,308.700000C315.300000,308.700000,313.100000,306.500000,313.100000,303.700000C313.100000,300.900000,315.300000,298.700000,318.100000,298.700000L334.600000,298.700000C337.400000,298.700000,339.600000,300.900000,339.600000,303.700000C339.600000,306.500000,337.400000,308.700000,334.600000,308.700000Z" fill="rgb(33,33,33)" stroke="none" stroke-width="1"/></g></g><g id="eai9wmamx50p47"><g id="eai9wmamx50p48"><path id="eai9wmamx50p49" d="M334.600000,354.100000L318.100000,354.100000C315.300000,354.100000,313.100000,351.900000,313.100000,349.100000C313.100000,346.300000,315.300000,344.100000,318.100000,344.100000L334.600000,344.100000C337.400000,344.100000,339.600000,346.300000,339.600000,349.100000C339.600000,351.900000,337.400000,354.100000,334.600000,354.100000Z" fill="rgb(33,33,33)" stroke="none" stroke-width="1"/></g></g></g><g id="eai9wmamx50p50"><path id="eai9wmamx50p51" d="M333,334.200000C330.200000,334.200000,328,332,328,329.200000L328,329C328,326.200000,330.200000,324,333,324C335.800000,324,338,326.200000,338,329L338,329.100000C338,331.900000,335.700000,334.200000,333,334.200000Z" fill="rgb(239,101,101)" stroke="none" stroke-width="1"/></g><g id="eai9wmamx50p52"><g id="eai9wmamx50p53"><path id="eai9wmamx50p54" d="M334.600000,412L310.500000,412C307.700000,412,305.500000,409.800000,305.500000,407C305.500000,404.200000,307.700000,402,310.500000,402L334.600000,402C337.400000,402,339.600000,404.200000,339.600000,407C339.600000,409.800000,337.400000,412,334.600000,412L334.600000,412Z" fill="rgb(33,33,33)" stroke="none" stroke-width="1"/></g></g><g id="eai9wmamx50p55"><g id="eai9wmamx50p56"><path id="eai9wmamx50p57" d="M208.600000,412L174.500000,412C171.700000,412,169.500000,409.800000,169.500000,407C169.500000,404.200000,171.700000,402,174.500000,402L208.600000,402C211.400000,402,213.600000,404.200000,213.600000,407C213.600000,409.800000,211.400000,412,208.600000,412Z" fill="rgb(33,33,33)" stroke="none" stroke-width="1"/></g></g><g id="eai9wmamx50p58"><path id="eai9wmamx50p59" d="M333,288.700000C330.200000,288.700000,328,286.500000,328,283.700000L328,283.600000C328,280.800000,330.200000,278.600000,333,278.600000C335.800000,278.600000,338,280.800000,338,283.600000L338,283.700000C338,286.500000,335.700000,288.700000,333,288.700000Z" fill="rgb(239,101,101)" stroke="none" stroke-width="1"/></g><g id="eai9wmamx50p60"><path id="eai9wmamx50p61" d="M333,243.300000C330.200000,243.300000,328,241.100000,328,238.300000L328,238.200000C328,235.400000,330.200000,233.200000,333,233.200000C335.800000,233.200000,338,235.400000,338,238.200000L338,238.300000C338,241.100000,335.700000,243.300000,333,243.300000Z" fill="rgb(239,101,101)" stroke="none" stroke-width="1"/></g><g id="eai9wmamx50p62"><path id="eai9wmamx50p63" d="M333,197.900000C330.200000,197.900000,328,195.700000,328,192.900000L328,192.800000C328,190,330.200000,187.800000,333,187.800000C335.800000,187.800000,338,190,338,192.800000L338,192.900000C338,195.700000,335.700000,197.900000,333,197.900000Z" fill="rgb(1,236,165)" stroke="none" stroke-width="1"/></g></g><g id="eai9wmamx50p64"><g id="eai9wmamx50p65"><circle id="eai9wmamx50p66" r="53.300000" transform="matrix(1 0 0 1 373.60000000000002 175)" fill="rgb(239,101,101)" stroke="none" stroke-width="1"/><path id="eai9wmamx50p67" d="M378.600000,117L378.600000,43.300000C378.600000,35,371.900000,28.300000,363.600000,28.300000L226.700000,28.300000C223.900000,28.300000,221.700000,30.500000,221.700000,33.300000C221.700000,36.100000,223.900000,38.300000,226.700000,38.300000L363.600000,38.300000C366.400000,38.300000,368.600000,40.500000,368.600000,43.300000L368.600000,117C338.800000,119.500000,315.300000,144.600000,315.300000,175C315.300000,207.100000,341.400000,233.300000,373.600000,233.300000C405.800000,233.300000,431.900000,207.200000,431.900000,175C431.800000,144.600000,408.300000,119.500000,378.600000,117ZM373.600000,223.300000C347,223.300000,325.300000,201.600000,325.300000,175C325.300000,148.400000,347,126.700000,373.600000,126.700000C400.200000,126.700000,421.900000,148.400000,421.900000,175C421.900000,201.600000,400.200000,223.300000,373.600000,223.300000Z" fill="rgb(239,0,0)" stroke="none" stroke-width="1"/></g><g id="eai9wmamx50p68_tr" transform="translate(374.135215,174.546292) rotate(0)"><path id="eai9wmamx50p68" d="M380.100000,170L378.600000,170L378.600000,159.800000L388.100000,159.800000C390.900000,159.800000,393.100000,157.600000,393.100000,154.800000C393.100000,152,390.900000,149.800000,388.100000,149.800000L378.600000,149.800000L378.600000,147.300000C378.600000,144.500000,376.400000,142.300000,373.600000,142.300000C370.800000,142.300000,368.600000,144.500000,368.600000,147.300000L368.600000,149.800000L367,149.800000C358.700000,149.800000,351.900000,156.600000,351.900000,164.900000C351.900000,173.200000,358.700000,180,367,180L368.500000,180L368.500000,190.200000L359,190.200000C356.200000,190.200000,354,192.400000,354,195.200000C354,198,356.200000,200.200000,359,200.200000L368.500000,200.200000L368.500000,202.700000C368.500000,205.500000,370.700000,207.700000,373.500000,207.700000C376.300000,207.700000,378.500000,205.500000,378.500000,202.700000L378.500000,200.200000L380,200.200000C388.300000,200.200000,395.100000,193.400000,395.100000,185.100000C395.100000,176.800000,388.400000,170,380.100000,170ZM367,170C364.200000,170,361.900000,167.700000,361.900000,164.900000C361.900000,162.100000,364.200000,159.800000,367,159.800000L368.500000,159.800000L368.500000,170L367,170ZM380.100000,190.200000L378.600000,190.200000L378.600000,180L380.100000,180C382.900000,180,385.200000,182.300000,385.200000,185.100000C385.200000,187.900000,382.900000,190.200000,380.100000,190.200000Z" transform="translate(-374.135215,-174.546292)" fill="rgb(255,255,255)" stroke="none" stroke-width="1"/></g></g><g id="eai9wmamx50p69"><path id="eai9wmamx50p70" d="M276.800000,158.700000L235.300000,158.700000C232.500000,158.700000,230.300000,156.500000,230.300000,153.700000C230.300000,150.900000,232.500000,148.700000,235.300000,148.700000L276.800000,148.700000C279.600000,148.700000,281.800000,150.900000,281.800000,153.700000C281.800000,156.500000,279.500000,158.700000,276.800000,158.700000Z" fill="rgb(33,33,33)" stroke="none" stroke-width="1"/></g><g id="eai9wmamx50p71"><path id="eai9wmamx50p72" d="M304.300000,121.800000L207.800000,121.800000C205,121.800000,202.800000,119.600000,202.800000,116.800000C202.800000,114,205,111.800000,207.800000,111.800000L304.300000,111.800000C307.100000,111.800000,309.300000,114,309.300000,116.800000C309.300000,119.600000,307,121.800000,304.300000,121.800000Z" fill="rgb(239,0,0)" stroke="none" stroke-width="1"/></g><g id="eai9wmamx50p73"><path id="eai9wmamx50p74" d="M329.300000,99.800000L182.700000,99.800000C179.900000,99.800000,177.700000,97.600000,177.700000,94.800000C177.700000,92,179.900000,89.800000,182.700000,89.800000L329.200000,89.800000C332,89.800000,334.200000,92,334.200000,94.800000C334.200000,97.600000,332,99.800000,329.300000,99.800000Z" fill="rgb(33,33,33)" stroke="none" stroke-width="1"/></g><g id="eai9wmamx50p75"><path id="eai9wmamx50p76" d="M186,77.900000L174.500000,77.900000C171.700000,77.900000,169.500000,75.700000,169.500000,72.900000C169.500000,70.100000,171.700000,67.900000,174.500000,67.900000L186,67.900000C188.800000,67.900000,191,70.100000,191,72.900000C191,75.700000,188.800000,77.900000,186,77.900000Z" fill="rgb(239,101,101)" stroke="none" stroke-width="1"/></g></g></g><g id="eai9wmamx50p77_to" transform="translate(0,0)"><path id="eai9wmamx50p77" d="M411.200000,82.400000C407.500000,82.400000,403.800000,81,400.900000,78.200000C395.200000,72.500000,395.200000,63.300000,400.900000,57.700000C406.600000,52.100000,415.800000,52,421.400000,57.700000C427.100000,63.400000,427.100000,72.600000,421.400000,78.200000C418.600000,81,414.900000,82.400000,411.200000,82.400000L411.200000,82.400000ZM411.200000,63.400000C410,63.400000,408.900000,63.800000,408,64.700000C406.200000,66.500000,406.200000,69.300000,408,71.100000C409.800000,72.900000,412.600000,72.900000,414.400000,71.100000C416.200000,69.300000,416.200000,66.500000,414.400000,64.700000C413.500000,63.800000,412.300000,63.400000,411.200000,63.400000Z" transform="translate(0,0)" fill="rgb(239,101,101)" stroke="none" stroke-width="1"/></g><g id="eai9wmamx50p78_to" transform="translate(0,0)"><path id="eai9wmamx50p78" d="M436.300000,131.300000C432.600000,131.300000,428.900000,129.900000,426,127.100000C423.300000,124.400000,421.800000,120.700000,421.800000,116.800000C421.800000,112.900000,423.300000,109.300000,426,106.500000C431.700000,100.800000,440.900000,100.800000,446.500000,106.500000C449.200000,109.200000,450.700000,112.900000,450.700000,116.800000C450.700000,120.700000,449.200000,124.300000,446.500000,127.100000C443.700000,129.900000,440,131.300000,436.300000,131.300000ZM436.300000,112.300000C435.100000,112.300000,434,112.700000,433.100000,113.600000C432.200000,114.400000,431.800000,115.600000,431.800000,116.800000C431.800000,118,432.300000,119.100000,433.100000,120C434.900000,121.800000,437.700000,121.800000,439.500000,120C440.400000,119.200000,440.800000,118,440.800000,116.800000C440.800000,115.600000,440.300000,114.500000,439.500000,113.600000C438.600000,112.700000,437.500000,112.300000,436.300000,112.300000Z" transform="translate(0,0)" fill="rgb(239,101,101)" stroke="none" stroke-width="1"/></g><g id="eai9wmamx50p79_to" transform="translate(0,0)"><path id="eai9wmamx50p79" d="M105.400000,236.800000C101.700000,236.800000,98,235.400000,95.100000,232.600000C89.400000,226.900000,89.400000,217.700000,95.100000,212.100000C100.800000,206.400000,110,206.400000,115.600000,212.100000C121.300000,217.800000,121.300000,227,115.600000,232.600000C112.800000,235.300000,109.100000,236.800000,105.400000,236.800000ZM105.400000,217.800000C104.200000,217.800000,103.100000,218.200000,102.200000,219.100000C100.400000,220.900000,100.400000,223.700000,102.200000,225.500000C104,227.300000,106.800000,227.300000,108.600000,225.500000C110.400000,223.700000,110.400000,220.900000,108.600000,219.100000C107.700000,218.200000,106.500000,217.800000,105.400000,217.800000Z" transform="translate(0,0)" fill="rgb(244,11,11)" stroke="none" stroke-width="1"/></g><g id="eai9wmamx50p80_to" transform="translate(0,0)"><path id="eai9wmamx50p80" d="M98.900000,281.700000C97.600000,281.700000,96.300000,281.200000,95.400000,280.200000L89.400000,274.200000L83.400000,280.200000C81.400000,282.200000,78.300000,282.200000,76.300000,280.200000C74.300000,278.200000,74.300000,275.100000,76.300000,273.100000L85.800000,263.600000C87.800000,261.600000,90.900000,261.600000,92.900000,263.600000L102.400000,273.100000C104.400000,275.100000,104.400000,278.200000,102.400000,280.200000C101.500000,281.200000,100.200000,281.700000,98.900000,281.700000Z" transform="translate(0,0)" fill="rgb(33,33,33)" stroke="none" stroke-width="1"/></g><g id="eai9wmamx50p81_to" transform="translate(0,0)"><path id="eai9wmamx50p81" d="M426.800000,426.500000C425.500000,426.500000,424.200000,426,423.300000,425L417.300000,419L411.300000,425C409.300000,427,406.200000,427,404.200000,425C402.200000,423,402.200000,419.900000,404.200000,417.900000L413.700000,408.400000C415.700000,406.400000,418.800000,406.400000,420.800000,408.400000L430.300000,417.900000C432.300000,419.900000,432.300000,423,430.300000,425C429.400000,426,428.100000,426.500000,426.800000,426.500000Z" transform="translate(0,0)" fill="rgb(239,101,101)" stroke="none" stroke-width="1"/></g></g></svg>