<?xml version="1.0" encoding="utf-8"?>
<!-- Generator: Adobe Illustrator 24.2.1, SVG Export Plug-In . SVG Version: 6.00 Build 0)  -->
<svg version="1.1" id="Layer_1" xmlns="http://www.w3.org/2000/svg" xmlns:xlink="http://www.w3.org/1999/xlink" x="0px" y="0px"
	 viewBox="0 0 1920 522" style="enable-background:new 0 0 1920 522;" xml:space="preserve">
<style type="text/css">
	.st0{fill:#161616;}
	.st1{fill:#1E1E1E;}
	.st2{fill:#0F0F0F;}
	.st3{fill:#212121;}
	.st4{fill:#070707;}
	.st5{fill:#141414;}
	.st6{fill:#0C0C0C;}
	.st7{fill:#191919;}
	.st8{fill:#111111;}
</style>
<polygon class="st0" points="1920.1,436.7 1743.1,446.7 1571.1,457.7 1521,455 1162.1,438.7 887.1,466.7 815.4,458.8 815.2,459 
	602.1,436.7 279.1,466.7 225,461 0.1,436.7 0.1,209.7 0.2,209.6 0,90 253,66 373.1,53.7 491,63.8 491.1,63.7 709,85 822.1,94.7 
	915.4,86.6 915.4,86.7 983.1,80.7 1155,68 1155,68 1335.1,53.7 1524,113 1571.1,127.7 1633,121 1793,104 1919.9,89.7 1920,206 "/>
<polygon class="st1" points="0,90 42,146 0.2,209.7 "/>
<polygon class="st2" points="225,461 119,279 42,146 0.1,209.7 0.1,436.7 "/>
<polygon class="st2" points="279.1,466.7 291,153 602.1,436.7 "/>
<polygon class="st3" points="291,153 279.1,466.7 225,461 119,279 42,146 "/>
<polygon class="st2" points="373.1,53.7 253,66 291,153 491.4,63.8 "/>
<polygon class="st1" points="886.1,335.7 291,153 491.1,63.7 709,85 "/>
<polygon class="st4" points="915.4,86.6 886.1,335.7 709,85 822.1,94.7 "/>
<polygon class="st5" points="886.1,335.7 602.1,436.7 291,153 "/>
<polygon class="st1" points="815.2,459 886.1,335.7 602.1,436.7 "/>
<polygon class="st6" points="887.1,466.7 1162.1,438.7 971.1,236.7 886.1,335.7 815.1,458.7 "/>
<polygon class="st0" points="915.1,86.7 983.1,80.7 971.1,236.7 886.1,335.7 "/>
<polygon class="st2" points="971.1,236.7 983.1,80.7 1155,68 "/>
<polygon class="st1" points="1415.1,163.7 1162.1,438.7 971.1,236.7 "/>
<polygon class="st7" points="1335.1,53.7 1415.1,163.7 971.1,236.7 1155,68 "/>
<polygon class="st8" points="983.1,80.7 971.1,236.7 1155,68 "/>
<polygon class="st7" points="1335.1,53.7 1415.1,163.7 1522.1,323.7 1524,113 "/>
<polygon class="st2" points="1654,192 1571.1,127.7 1633,121 "/>
<polygon class="st8" points="1524,113 1571.1,127.7 1654,192 1522.1,323.7 "/>
<polygon class="st2" points="1571.1,457.7 1654,192 1522.1,323.7 1521,455 "/>
<polygon class="st0" points="1522.1,323.7 1521,455 1162.1,438.7 1415.1,163.7 "/>
<polygon class="st3" points="1743.1,446.7 1654,192 1571.1,457.7 "/>
<polygon class="st1" points="1654,192 1793,104 1633,121 "/>
<polygon class="st0" points="1743.1,446.7 1654,192 1793,104 "/>
<polygon class="st2" points="1919.9,89.7 1793,104 1920,206 "/>
<polygon class="st5" points="1920.1,436.7 1743.1,446.7 1920,206 "/>
<polygon class="st1" points="1793,104 1743.1,446.7 1920,206 "/>
<polygon class="st4" points="119,279 291,153 42,146 "/>
<polygon class="st0" points="253,66 291,153 42,146 0,90 "/>
</svg>
