<?xml version="1.0" encoding="utf-8"?>
<!-- Generator: Adobe Illustrator 24.2.1, SVG Export Plug-In . SVG Version: 6.00 Build 0)  -->
<svg version="1.1" id="Layer_1" xmlns="http://www.w3.org/2000/svg" xmlns:xlink="http://www.w3.org/1999/xlink" x="0px" y="0px"
	 viewBox="0 0 1920 601" style="enable-background:new 0 0 1920 601;" xml:space="preserve">
<style type="text/css">
	.st0{fill:#1E1E1E;}
	.st1{fill:#0A0A0A;}
	.st2{fill:#1C1C1C;}
	.st3{fill:#0C0C0C;}
	.st4{fill:#141414;}
	.st5{fill:#212121;}
	.st6{fill:#111111;}
	.st7{fill:#161616;}
	.st8{fill:#0F0F0F;}
	.st9{fill:#191919;}
	.st10{fill:#262626;}
	.st11{fill:#070707;}
</style>
<polygon class="st0" points="1920.2,92.7 1920.2,497.7 1830.2,503.7 1697.2,512.7 1623.2,517.7 1571.2,522.7 1199,498 887.2,533.7 
	646,503 601.2,496.7 389,522 342.4,526 343,527 279.2,533.7 213.5,516.9 0.2,497.7 0.2,374 0,374.3 0.2,210.7 0.2,92.7 78,95 
	251,100.7 338,65 355.2,58.7 647.2,70.7 812.2,106.7 1018,100 1046,99 1232.2,92.7 1416.2,58.7 1619.2,92.7 1715.2,91.7 "/>
<polygon class="st1" points="143,177 0.2,210.7 0.2,92.7 78,95 "/>
<polygon class="st2" points="0,374.3 0.2,210.7 143,177 "/>
<polygon class="st3" points="0.2,497.7 0.2,371.7 143,177 343,527 279.2,533.7 213.5,516.9 "/>
<polygon class="st4" points="388,185 338,65 251,100.7 78,95 143,177 342,526 389,522 "/>
<polygon class="st3" points="647.2,70.7 388,185 338,65 355.2,58.7 "/>
<polygon class="st5" points="704,480 646,503 601.2,496.7 389,522 388,185 "/>
<polygon class="st3" points="985.2,367.7 388,185 704,480 "/>
<polygon class="st4" points="647.2,70.7 812.2,106.7 985.2,367.7 388,185 "/>
<polygon class="st5" points="1018,100 985.2,367.7 812.2,106.7 "/>
<polygon class="st6" points="887.2,533.7 985.2,367.7 704,480 646,503 "/>
<polygon class="st4" points="1018,100 1046,99 1070.2,269.7 985.2,367.7 "/>
<polygon class="st7" points="1232.2,92.7 1070.2,269.7 1046,99 "/>
<polygon class="st8" points="1416.2,58.7 1513,196 1070.2,269.7 1232.2,92.7 "/>
<polygon class="st3" points="1251.2,486.7 1070.2,269.7 1513,196 "/>
<polygon class="st9" points="887.2,533.7 985.2,367.7 1070.2,269.7 1251.2,486.7 1199,498 "/>
<polygon class="st2" points="1513,196 1070.2,269.7 1251.2,486.7 "/>
<polygon class="st4" points="1622,352 1513,196 1416.2,58.7 1619.2,92.7 1620,225 "/>
<polygon class="st6" points="1623,455 1622,352 1513,196 1251.2,486.7 "/>
<polygon class="st3" points="1623.2,517.7 1571.2,522.7 1199,498 1251.2,486.7 1623,455 "/>
<polygon class="st0" points="1697.2,512.7 1623.2,517.7 1623,455 1622,352 1620,225 1754.2,220.7 "/>
<polygon class="st10" points="1619.2,92.7 1715.2,91.7 1754.2,220.7 1620,225 "/>
<polygon class="st7" points="1920.2,92.7 1754.2,220.7 1715.2,91.7 "/>
<polygon class="st11" points="1842.2,478.7 1754.2,220.7 1697.2,512.7 1830.2,503.7 "/>
<polygon class="st9" points="1920.2,370.7 1842.2,478.7 1830.2,503.7 1920.2,497.7 "/>
<polygon class="st8" points="1920.2,92.7 1754.2,220.7 1842.2,478.7 1920.2,370.7 "/>
</svg>
