<?xml version="1.0" encoding="utf-8"?>
<!-- Generator: Adobe Illustrator 24.2.1, SVG Export Plug-In . SVG Version: 6.00 Build 0)  -->
<svg version="1.1" id="Layer_1" xmlns="http://www.w3.org/2000/svg" xmlns:xlink="http://www.w3.org/1999/xlink" x="0px" y="0px"
	 viewBox="0 0 1920 336.7" style="enable-background:new 0 0 1920 336.7;" xml:space="preserve">
<style type="text/css">
	.st0{fill:#161616;}
	.st1{fill:#1E1E1E;}
	.st2{fill:#0F0F0F;}
	.st3{fill:#212121;}
	.st4{fill:#070707;}
	.st5{fill:#141414;}
	.st6{fill:#0C0C0C;}
	.st7{fill:#191919;}
	.st8{fill:#111111;}
</style>
<polygon class="st0" points="1920.1,292.2 1743.1,299.3 1571.1,307.2 1521,305.3 1162.1,293.6 887.1,313.6 815.4,308 815.2,308.1 
	602.1,292.2 279.1,313.6 225,309.6 0.1,292.2 0.1,129.9 0.2,129.8 0,44.3 253,27.1 373.1,18.3 491,25.5 491.1,25.5 709,40.7 
	822.1,47.6 915.4,41.8 915.4,41.9 983.1,37.6 1155,28.5 1155,28.5 1335.1,18.3 1524,60.7 1571.1,71.2 1633,66.4 1793,54.3 
	1919.9,44 1920,127.2 "/>
<polygon class="st1" points="0,44.3 42,84.3 0.2,129.9 "/>
<polygon class="st2" points="225,309.6 119,179.4 42,84.3 0.1,129.9 0.1,292.2 "/>
<polygon class="st2" points="279.1,313.6 291,89.3 602.1,292.2 "/>
<polygon class="st3" points="291,89.3 279.1,313.6 225,309.6 119,179.4 42,84.3 "/>
<polygon class="st2" points="373.1,18.3 253,27.1 291,89.3 491.4,25.5 "/>
<polygon class="st1" points="886.1,220 291,89.3 491.1,25.5 709,40.7 "/>
<polygon class="st4" points="915.4,41.8 886.1,220 709,40.7 822.1,47.6 "/>
<polygon class="st5" points="886.1,220 602.1,292.2 291,89.3 "/>
<polygon class="st1" points="815.2,308.1 886.1,220 602.1,292.2 "/>
<polygon class="st6" points="887.1,313.6 1162.1,293.6 971.1,149.2 886.1,220 815.1,307.9 "/>
<polygon class="st0" points="915.1,41.9 983.1,37.6 971.1,149.2 886.1,220 "/>
<polygon class="st2" points="971.1,149.2 983.1,37.6 1155,28.5 "/>
<polygon class="st1" points="1415.1,97 1162.1,293.6 971.1,149.2 "/>
<polygon class="st7" points="1335.1,18.3 1415.1,97 971.1,149.2 1155,28.5 "/>
<polygon class="st8" points="983.1,37.6 971.1,149.2 1155,28.5 "/>
<polygon class="st7" points="1335.1,18.3 1415.1,97 1522.1,211.4 1524,60.7 "/>
<polygon class="st2" points="1654,117.2 1571.1,71.2 1633,66.4 "/>
<polygon class="st8" points="1524,60.7 1571.1,71.2 1654,117.2 1522.1,211.4 "/>
<polygon class="st2" points="1571.1,307.2 1654,117.2 1522.1,211.4 1521,305.3 "/>
<polygon class="st0" points="1522.1,211.4 1521,305.3 1162.1,293.6 1415.1,97 "/>
<polygon class="st3" points="1743.1,299.3 1654,117.2 1571.1,307.2 "/>
<polygon class="st1" points="1654,117.2 1793,54.3 1633,66.4 "/>
<polygon class="st0" points="1743.1,299.3 1654,117.2 1793,54.3 "/>
<polygon class="st2" points="1919.9,44 1793,54.3 1920,127.2 "/>
<polygon class="st5" points="1920.1,292.2 1743.1,299.3 1920,127.2 "/>
<polygon class="st1" points="1793,54.3 1743.1,299.3 1920,127.2 "/>
<polygon class="st4" points="119,179.4 291,89.3 42,84.3 "/>
<polygon class="st0" points="253,27.1 291,89.3 42,84.3 0,44.3 "/>
</svg>
