<?xml version="1.0" encoding="utf-8"?>
<!-- Generator: Adobe Illustrator 24.2.1, SVG Export Plug-In . SVG Version: 6.00 Build 0)  -->
<svg version="1.1" id="Layer_1" xmlns="http://www.w3.org/2000/svg" xmlns:xlink="http://www.w3.org/1999/xlink" x="0px" y="0px"
	 viewBox="0 0 154.4 91.1" style="enable-background:new 0 0 154.4 91.1;" xml:space="preserve">
<style type="text/css">
	.st0{fill:#191919;}
	.st1{fill:#FFFFFF;}
	.st2{fill:#282828;}
	.st3{fill:#2B2B2B;}
	.st4{fill:#232323;}
	.st5{fill:#0F0F0F;}
	.st6{fill:#303030;}
	.st7{fill:#1E1E1E;}
	.st8{fill:#D8D8D8;}
	.st9{fill:#F40000;}
	.st10{fill:#212121;}
	.st11{fill:#333333;}
</style>
<g>
	<polygon class="st10" points="59.4,77.1 29.2,79 13.9,66.3 19.5,25.7 14.3,12.6 44.1,16.1 85.3,10.3 117.4,17.2 132.4,16.1 
		140.9,28.5 131.8,59.1 135,73.5 102.3,81.5 	"/>
	<path class="st1" d="M85.2,11.3l32.1,6.9l14.5-1.1l8,11.5l-9.1,30.4l3,13.7l-31.5,7.7l-42.8-4.4L29.5,78L15,65.9l5.5-40.3
		l-4.7-11.8l28.3,3.3L85.2,11.3 M85.3,9.3l-0.3,0l-40.9,5.7l-28-3.3l-3.3-0.4l1.2,3.1l4.5,11.3L13,65.7l-0.1,1.1l0.9,0.7l14.5,12.1
		l0.6,0.5l0.8-0.1l29.7-1.9l42.6,4.4l0.3,0l0.3-0.1l31.5-7.7l1.9-0.5l-0.4-1.9l-2.9-13.2l8.9-30l0.3-0.9l-0.5-0.8l-8-11.5l-0.7-0.9
		l-1.1,0.1l-14.3,1.1L85.6,9.4L85.3,9.3L85.3,9.3z"/>
</g>
<polygon points="50.4,43.7 15,65.9 29.5,78 "/>
<polygon class="st3" points="59.4,76.1 50.4,43.7 29.5,78 "/>
<polygon class="st7" points="20.5,25.6 50.4,43.7 15,65.9 "/>
<polygon points="44.1,17.1 15.8,13.8 20.5,25.6 "/>
<polygon class="st3" points="44.1,17.1 50.4,43.7 20.5,25.6 "/>
<polygon class="st10" points="85.2,11.3 50.4,43.7 44.1,17.1 "/>
<polygon class="st0" points="117.3,18.2 50.4,43.7 85.2,11.3 "/>
<polygon class="st6" points="92.9,50.3 59.4,76.1 102.2,80.5 "/>
<polygon points="50.4,43.7 92.9,50.3 59.4,76.1 "/>
<polygon class="st2" points="117.3,18.2 92.9,50.3 50.4,43.7 "/>
<polygon class="st0" points="130.8,59.1 92.9,50.3 121.2,37.2 139.8,28.6 "/>
<polygon class="st7" points="117.3,18.2 121.2,37.2 139.8,28.6 131.9,17.1 "/>
<polygon class="st3" points="130.8,59.1 121.2,37.2 139.8,28.6 "/>
<polygon class="st2" points="130.8,59.1 92.9,50.3 102.2,80.5 133.8,72.8 "/>
<polygon class="st11" points="117.3,18.2 121.2,37.2 92.9,50.3 "/>
</svg>
