<?xml version="1.0" encoding="utf-8"?>
<!-- Generator: Adobe Illustrator 24.2.1, SVG Export Plug-In . SVG Version: 6.00 Build 0)  -->
<svg version="1.1" id="Layer_1" xmlns="http://www.w3.org/2000/svg" xmlns:xlink="http://www.w3.org/1999/xlink" x="0px" y="0px"
	 viewBox="0 0 154.4 91.1" style="enable-background:new 0 0 154.4 91.1;" xml:space="preserve">
<style type="text/css">
	.st0{fill:#191919;}
	.st1{fill:#FFFFFF;}
	.st2{fill:#282828;}
	.st3{fill:#2B2B2B;}
	.st4{fill:#232323;}
	.st5{fill:#0F0F0F;}
	.st6{fill:#303030;}
	.st7{fill:#1E1E1E;}
	.st8{fill:#D8D8D8;}
	.st9{fill:#F40000;}
	.st10{fill:#212121;}
	.st11{fill:#333333;}
</style>
<g>
	<polygon class="st10" points="37.4,74.6 22.5,75.8 13.9,63.4 23,32.7 19.8,18.3 52.5,10.3 95.4,14.7 125.6,12.8 140.9,25.5 
		135.4,66.1 140.5,79.2 110.7,75.7 69.6,81.5 	"/>
	<path class="st1" d="M52.6,11.3l42.8,4.4l29.9-1.9l14.5,12.1l-5.5,40.3L139,78l-28.3-3.3l-41.1,5.8l-32.1-6.9L23,74.7l-8-11.5
		L24,32.7L21,19L52.6,11.3 M52.4,9.3l-0.3,0.1l-31.5,7.7l-1.9,0.5l0.4,1.9L22,32.7l-8.9,30l-0.3,0.9l0.5,0.8l8,11.5l0.7,0.9l1.1-0.1
		l14.3-1.1l31.8,6.8l0.3,0.1l0.3,0l40.9-5.7l28,3.3l3.3,0.4l-1.2-3.1L136.4,66l5.4-39.8l0.1-1.1l-0.9-0.7l-14.5-12.1l-0.6-0.5
		l-0.8,0.1l-29.7,1.9L52.8,9.4L52.4,9.3L52.4,9.3z"/>
</g>
<polygon points="104.4,48.1 139.8,25.9 125.3,13.8 "/>
<polygon class="st3" points="95.4,15.7 104.4,48.1 125.3,13.8 "/>
<polygon class="st7" points="134.3,66.2 104.4,48.1 139.8,25.9 "/>
<polygon points="110.7,74.7 139,78 134.3,66.2 "/>
<polygon class="st3" points="110.7,74.7 104.4,48.1 134.3,66.2 "/>
<polygon class="st10" points="69.6,80.5 104.4,48.1 110.7,74.7 "/>
<polygon class="st0" points="37.5,73.6 104.4,48.1 69.6,80.5 "/>
<polygon class="st6" points="61.9,41.5 95.4,15.7 52.6,11.3 "/>
<polygon points="104.4,48.1 61.9,41.5 95.4,15.7 "/>
<polygon class="st2" points="37.5,73.6 61.9,41.5 104.4,48.1 "/>
<polygon class="st0" points="24,32.7 61.9,41.5 33.6,54.6 15,63.2 "/>
<polygon class="st7" points="37.5,73.6 33.6,54.6 15,63.2 23,74.7 "/>
<polygon class="st3" points="24,32.7 33.6,54.6 15,63.2 "/>
<polygon class="st2" points="24,32.7 61.9,41.5 52.6,11.3 21,19 "/>
<polygon class="st11" points="37.5,73.6 33.6,54.6 61.9,41.5 "/>
</svg>
