<svg height="512" viewBox="0 0 45 60" width="512" xmlns="http://www.w3.org/2000/svg"><g id="Page-1" fill="none" fill-rule="evenodd"><g id="006---Glove" fill="rgb(0,0,0)" fill-rule="nonzero" transform="translate(-1 -1)"><path id="Shape" d="m7 46.238v11.762c0 1.6568542 1.34314575 3 3 3h19c1.6568542 0 3-1.3431458 3-3v-11.525c2.309-1.919 14-12.286 14-25.475 0-3.587-.9-5.957-2.687-7.042-1.439-.877-3.313-.856-5.575.03-.033054-2.6056425-.91969-5.12855049-2.524-7.182-4.867-6.066-14.87-5.828-15.769-5.795-.8-.039-9.227-.289-14.454 4.83-2.808 2.751-4.151 6.521-3.991 11.205.05144623 1.5651287.38583931 3.1080123.987 4.554.177 7.367 1.203 17.494 5.013 24.638zm23 8.762h-14v-4h14zm12.272-39.334c1.128.688 1.728 2.534 1.728 5.334 0 12.323-11.5 22.444-13.358 24h-13.642c-.5522847 0-1 .4477153-1 1s.4477153 1 1 1h13v2h-14c-1.1045695 0-2 .8954305-2 2v4c0 1.1045695.8954305 2 2 2h14v1c0 .5522847-.4477153 1-1 1h-19c-.55228475 0-1-.4477153-1-1v-11h3c.5522847 0 1-.4477153 1-1s-.4477153-1-1-1h-3.385c-3.009-5.844-4.1-13.908-4.473-19.853 3.477 4.275 9.8 7.391 16.408 7.391 6.707 0 13.93-3.176 16.392-12.264.3709073-1.34181.6222228-2.7138389.751-4.1 1.493-.702 3.345-1.261 4.579-.508zm-35.889-8.389c4.054-3.977 10.629-4.277 12.557-4.277 5.227 0 11.449.98 14.718 5.061 2.241 2.8 2.7 6.73 1.355 11.687-4.832 17.831-31.536 11.173-32.013-2.77-.141-4.096 1-7.36 3.383-9.701z"/><path id="Shape" d="m6.087 15.043c.07116017.0163746.14398142.0244285.217.024.46853359-.0006529.8737971-.3265264.975-.784 1.107-5.006 5.443-6.625 8.885-7.1.5475903-.07593915.9299392-.58140967.854-1.129s-.5814097-.92993915-1.129-.854c-4.071.565-9.207 2.523-10.563 8.651-.11901516.5393057.22169523 1.0729808.761 1.192z"/><path id="Shape" d="m25.819 34.427c-.3166053-.452092-.9396201-.5621937-1.392-.246l-4.427 3.098-4.427-3.1c-.4520489-.296368-1.0577858-.1798706-1.3676555.2630322-.3098698.4429029-.2116982 1.0518784.2216555 1.3749678l3.829 2.683-3.829 2.681c-.3047965.1998278-.4767398.5496556-.4487678.9130419.027972.3633864.251429.6827779.5832174.833604s.7193592.109199 1.0115504-.1086459l4.427-3.098 4.427 3.1c.2921912.2178449.679762.259472 1.0115504.1086459s.5552454-.4702176.5832174-.833604c.027972-.3633863-.1439713-.7132141-.4487678-.9130419l-3.829-2.683 3.829-2.681c.452092-.3166053.5621937-.9396201.246-1.392z"/></g></g></svg>