<?xml version="1.0" encoding="utf-8"?>
<!-- Generator: Adobe Illustrator 21.1.0, SVG Export Plug-In . SVG Version: 6.00 Build 0)  -->
<svg version="1.1" id="Layer_1" xmlns="http://www.w3.org/2000/svg" xmlns:xlink="http://www.w3.org/1999/xlink" x="0px" y="0px"
	 viewBox="0 0 512 512" style="enable-background:new 0 0 512 512;" xml:space="preserve">
<style type="text/css">
	.st0{fill:#212121;}
	.st1{fill:#EF0000;}
</style>
<g>
	<path class="st0" d="M279.9,64.3c-61.4,0-111.4,50-111.4,111.4s50,111.4,111.4,111.4s111.4-50,111.4-111.4S341.4,64.3,279.9,64.3z
		 M279.9,257.1c-44.9,0-81.4-36.5-81.4-81.4c0-44.9,36.5-81.4,81.4-81.4s81.4,36.5,81.4,81.4C361.3,220.6,324.8,257.1,279.9,257.1z"
		/>
	<path d="M329.1,139.6c-6.6-5-16-3.6-21,3L270.3,193l-19.9-19.9c-5.9-5.9-15.4-5.9-21.2,0c-5.9,5.9-5.9,15.4,0,21.2l32.1,32.1
		c1.3,1.3,5.3,4.8,11.7,4.4c4.3-0.3,8.3-2.5,10.9-6l48.2-64.3C337.1,153.9,335.7,144.5,329.1,139.6z"/>
	<path class="st1" d="M471.7,209.6C471.7,18.4,303.7,0,275.3,0c-108.6,0-179,94.3-179,167.9v26.7c-8.9,11.5-34.4,44.2-46.5,59.8
		c-6.3,8.1-9.7,18.1-9.7,28.4c0,19.2,11.5,36.2,29.3,43.3l14,5.6l22.7,63.4c11.2,31.5,41.2,52.6,74.6,52.6H204l13.2,52.9
		c1.7,6.7,7.7,11.4,14.6,11.4h192.8c4.7,0,9.1-2.2,12-6c2.8-3.8,3.7-8.6,2.4-13.2l-30.6-107.2l49.7-111.9
		C467.1,253.4,471.7,231.8,471.7,209.6z M430.7,261.5l-52,116.9c-1.4,3.2-1.7,6.8-0.7,10.2l26.7,93.3H243.4l-13.2-52.9
		c-1.7-6.7-7.7-11.4-14.6-11.4h-35c-20.8,0-39.4-13.1-46.4-32.7l-24.9-69.8c-1.4-4.1-4.6-7.3-8.6-8.9l-20.3-8.1
		c-10.4-4.2-13.6-17-7.1-25.4c12.6-16.3,39.8-51.2,47.6-61.2c3.4-4.4,5.3-9.8,5.3-15.3v-28.5c0-40.3,42.7-137.9,149-137.9
		c23.6,0,166.4,14.3,166.4,179.6C441.7,227.6,438,245.1,430.7,261.5z"/>
</g>
</svg>
