<svg id="eczid4uxnjcp1" xmlns="http://www.w3.org/2000/svg" xmlns:xlink="http://www.w3.org/1999/xlink" viewBox="0 0 500 500" shape-rendering="geometricPrecision" text-rendering="geometricPrecision"><style><![CDATA[#eczid4uxnjcp2_to {animation: eczid4uxnjcp2_to__to 3000ms linear infinite normal forwards}@keyframes eczid4uxnjcp2_to__to { 0% {transform: translate(111.366550px,356.457090px)} 20% {transform: translate(113.313967px,332.114381px)} 26.666667% {transform: translate(111.366550px,356.457090px)} 46.666667% {transform: translate(111.366550px,356.457090px)} 60% {transform: translate(156.182208px,317.163094px)} 73.333333% {transform: translate(111.366550px,356.457090px)} 100% {transform: translate(111.366550px,356.457090px)} }#eczid4uxnjcp2_tr {animation: eczid4uxnjcp2_tr__tr 3000ms linear infinite normal forwards}@keyframes eczid4uxnjcp2_tr__tr { 0% {transform: rotate(360deg)} 20% {transform: rotate(343.355771deg)} 26.666667% {transform: rotate(360deg)} 33.333333% {transform: rotate(368.572972deg)} 40% {transform: rotate(360deg)} 100% {transform: rotate(360deg)} }#eczid4uxnjcp2_ts {animation: eczid4uxnjcp2_ts__ts 3000ms linear infinite normal forwards}@keyframes eczid4uxnjcp2_ts__ts { 0% {transform: scale(1,1)} 46.666667% {transform: scale(1,1)} 60% {transform: scale(0.664275,0.664275)} 73.333333% {transform: scale(1,1)} 100% {transform: scale(1,1)} }]]></style><g id="eczid4uxnjcp2_to" transform="translate(111.366550,356.457090)"><g id="eczid4uxnjcp2_tr" transform="rotate(360)"><g id="eczid4uxnjcp2_ts" transform="scale(1,1)"><g id="eczid4uxnjcp2" transform="translate(-111.366550,-356.457090)"><path id="eczid4uxnjcp3" d="M398.800000,169L398.800000,341.700000C398.800000,352.800000,389.800000,361.900000,378.600000,361.900000L126.500000,361.900000C115.400000,361.900000,106.300000,352.900000,106.300000,341.700000L106.300000,169C106.300000,157.900000,115.300000,148.800000,126.500000,148.800000L378.600000,148.800000C389.800000,148.800000,398.800000,157.800000,398.800000,169Z" fill="rgb(214,244,252)" stroke="none" stroke-width="1"/><path id="eczid4uxnjcp4" d="M398.800000,169L398.800000,184.600000C398.800000,190.500000,393.800000,194.700000,389.200000,194.700000C283.300000,199.900000,200.600000,263.400000,166,355.400000C164.500000,359.300000,160.800000,361.900000,156.600000,361.900000L126.500000,361.900000C115.400000,361.900000,106.300000,352.900000,106.300000,341.700000L106.300000,169C106.300000,157.900000,115.300000,148.800000,126.500000,148.800000L378.600000,148.800000C389.800000,148.800000,398.800000,157.800000,398.800000,169Z" fill="rgb(232,248,252)" stroke="none" stroke-width="1"/><path id="eczid4uxnjcp5" d="M368.600000,300.100000C368.600000,311.900000,359,321.500000,347.200000,321.500000C341,321.500000,335.400000,318.800000,331.400000,314.600000C318.300000,328.900000,294.200000,319.600000,294.200000,300.100000C294.200000,280.600000,318.300000,271.300000,331.400000,285.600000C335.300000,281.400000,340.900000,278.700000,347.200000,278.700000C359,278.600000,368.600000,288.200000,368.600000,300.100000Z" fill="rgb(255,170,100)" stroke="none" stroke-width="1"/><circle id="eczid4uxnjcp6" r="21.400000" transform="matrix(1 0 0 1 315.60000000000002 300.10000000000002)" fill="rgb(254,79,96)" stroke="none" stroke-width="1"/><path id="eczid4uxnjcp7" d="M106.400000,194.200000L398.900000,194.200000L398.900000,237L106.400000,237L106.400000,194.200000Z" fill="rgb(66,67,77)" stroke="none" stroke-width="1"/><path id="eczid4uxnjcp8" d="M391.900000,194.200000C385.600000,196.200000,323.500000,193.200000,258.700000,237C258.500000,237.200000,265.600000,237.100000,106.300000,237.100000L106.300000,194.200000L391.900000,194.200000Z" fill="rgb(77,78,89)" stroke="none" stroke-width="1"/><path id="eczid4uxnjcp9" d="M403.900000,169L403.900000,341.700000C403.900000,355.600000,392.600000,366.900000,378.700000,366.900000L126.500000,366.900000C112.600000,366.900000,101.300000,355.600000,101.300000,341.700000L101.300000,266C101.300000,263.200000,103.600000,261,106.300000,261C109,261,111.300000,263.300000,111.300000,266L111.300000,341.600000C111.300000,349.900000,118.100000,356.700000,126.400000,356.700000L378.500000,356.700000C386.800000,356.700000,393.600000,349.900000,393.600000,341.600000L393.600000,169C393.600000,160.700000,386.800000,153.900000,378.500000,153.900000L126.500000,153.900000C118.200000,153.900000,111.400000,160.700000,111.400000,169L111.400000,189.200000L369.900000,189.200000C372.700000,189.200000,374.900000,191.500000,374.900000,194.200000C374.900000,197,372.600000,199.200000,369.900000,199.200000L111.400000,199.200000L111.400000,232L369.900000,232C372.700000,232,374.900000,234.300000,374.900000,237C374.900000,239.800000,372.600000,242,369.900000,242L106.400000,242C103.600000,242,101.400000,239.700000,101.400000,237L101.400000,169C101.400000,155.100000,112.700000,143.800000,126.600000,143.800000L378.700000,143.800000C392.600000,143.700000,403.900000,155.100000,403.900000,169ZM363.500000,300.100000C363.500000,287.200000,349.100000,279.300000,338.200000,286.300000C348.900000,303.800000,336.200000,326.500000,315.600000,326.500000C301,326.500000,289.100000,314.600000,289.100000,300C289.100000,278.300000,314,265.800000,331.300000,278.700000C348.800000,265.800000,373.500000,278.300000,373.500000,300C373.500000,314.600000,361.600000,326.500000,347,326.500000C344.200000,326.500000,342,324.200000,342,321.500000C342,318.800000,344.300000,316.500000,347,316.500000C356.200000,316.500000,363.500000,309.100000,363.500000,300.100000ZM332,300.100000C332,291.100000,324.600000,283.700000,315.600000,283.700000C306.600000,283.700000,299.200000,291.100000,299.200000,300.100000C299.200000,309.100000,306.600000,316.500000,315.600000,316.500000C324.700000,316.500000,332,309.100000,332,300.100000ZM147.300000,289.400000L189.500000,289.400000C192.300000,289.400000,194.500000,287.100000,194.500000,284.400000C194.500000,281.700000,192.200000,279.400000,189.500000,279.400000L147.300000,279.400000C144.500000,279.400000,142.300000,281.700000,142.300000,284.400000C142.300000,287.100000,144.500000,289.400000,147.300000,289.400000ZM147.300000,320.900000L189.500000,320.900000C192.300000,320.900000,194.500000,318.600000,194.500000,315.900000C194.500000,313.200000,192.200000,310.900000,189.500000,310.900000L147.300000,310.900000C144.500000,310.900000,142.300000,313.200000,142.300000,315.900000C142.300000,318.600000,144.500000,320.900000,147.300000,320.900000Z" fill="rgb(0,0,0)" stroke="none" stroke-width="1"/></g></g></g></g></svg>