<?xml version="1.0" encoding="utf-8"?>
<!-- Generator: Adobe Illustrator 24.2.1, SVG Export Plug-In . SVG Version: 6.00 Build 0)  -->
<svg version="1.1" id="Layer_1" xmlns="http://www.w3.org/2000/svg" xmlns:xlink="http://www.w3.org/1999/xlink" x="0px" y="0px"
	 viewBox="0 0 500 500" style="enable-background:new 0 0 500 500;" xml:space="preserve">
<style type="text/css">
	.st0{fill:#D6F4FC;}
	.st1{fill:#E8F8FC;}
	.st2{fill:#FFAA64;}
	.st3{fill:#FE4F60;}
	.st4{fill:#42434D;}
	.st5{fill:#4D4E59;}
</style>
<path class="st0" d="M398.8,169v172.7c0,11.1-9,20.2-20.2,20.2H126.5c-11.1,0-20.2-9-20.2-20.2V169c0-11.1,9-20.2,20.2-20.2h252.1
	C389.8,148.8,398.8,157.8,398.8,169z"/>
<path class="st1" d="M398.8,169v15.6c0,5.9-5,10.1-9.6,10.1c-105.9,5.2-188.6,68.7-223.2,160.7c-1.5,3.9-5.2,6.5-9.4,6.5h-30.1
	c-11.1,0-20.2-9-20.2-20.2V169c0-11.1,9-20.2,20.2-20.2h252.1C389.8,148.8,398.8,157.8,398.8,169z"/>
<path class="st2" d="M368.6,300.1c0,11.8-9.6,21.4-21.4,21.4c-6.2,0-11.8-2.7-15.8-6.9c-13.1,14.3-37.2,5-37.2-14.5
	c0-19.5,24.1-28.8,37.2-14.5c3.9-4.2,9.5-6.9,15.8-6.9C359,278.6,368.6,288.2,368.6,300.1z"/>
<circle class="st3" cx="315.6" cy="300.1" r="21.4"/>
<path class="st4" d="M106.4,194.2h292.5V237H106.4V194.2z"/>
<path class="st5" d="M391.9,194.2c-6.3,2-68.4-1-133.2,42.8c-0.2,0.2,6.9,0.1-152.4,0.1v-42.9H391.9z"/>
<path d="M403.9,169v172.7c0,13.9-11.3,25.2-25.2,25.2H126.5c-13.9,0-25.2-11.3-25.2-25.2V266c0-2.8,2.3-5,5-5s5,2.3,5,5v75.6
	c0,8.3,6.8,15.1,15.1,15.1h252.1c8.3,0,15.1-6.8,15.1-15.1V169c0-8.3-6.8-15.1-15.1-15.1H126.5c-8.3,0-15.1,6.8-15.1,15.1v20.2
	h258.5c2.8,0,5,2.3,5,5c0,2.8-2.3,5-5,5H111.4V232h258.5c2.8,0,5,2.3,5,5c0,2.8-2.3,5-5,5H106.4c-2.8,0-5-2.3-5-5V169
	c0-13.9,11.3-25.2,25.2-25.2h252.1C392.6,143.7,403.9,155.1,403.9,169z M363.5,300.1c0-12.9-14.4-20.8-25.3-13.8
	c10.7,17.5-2,40.2-22.6,40.2c-14.6,0-26.5-11.9-26.5-26.5c0-21.7,24.9-34.2,42.2-21.3c17.5-12.9,42.2-0.4,42.2,21.3
	c0,14.6-11.9,26.5-26.5,26.5c-2.8,0-5-2.3-5-5s2.3-5,5-5C356.2,316.5,363.5,309.1,363.5,300.1z M332,300.1c0-9-7.4-16.4-16.4-16.4
	c-9,0-16.4,7.4-16.4,16.4s7.4,16.4,16.4,16.4C324.7,316.5,332,309.1,332,300.1z M147.3,289.4h42.2c2.8,0,5-2.3,5-5s-2.3-5-5-5h-42.2
	c-2.8,0-5,2.3-5,5S144.5,289.4,147.3,289.4z M147.3,320.9h42.2c2.8,0,5-2.3,5-5s-2.3-5-5-5h-42.2c-2.8,0-5,2.3-5,5
	S144.5,320.9,147.3,320.9z"/>
</svg>
