<svg xmlns="http://www.w3.org/2000/svg" width="8.99" height="5.667" viewBox="0 0 8.99 5.667">
  <g id="chevron-arrow-down" transform="translate(0 -82.226)">
    <path id="Path_263" data-name="Path 263" d="M8.777,82.872l-.433-.433a.739.739,0,0,0-.525-.213.707.707,0,0,0-.519.213l-2.8,2.8-2.8-2.8a.707.707,0,0,0-.519-.213.739.739,0,0,0-.525.213l-.427.433A.716.716,0,0,0,0,83.4a.686.686,0,0,0,.219.519l3.756,3.757a.686.686,0,0,0,.519.219.716.716,0,0,0,.525-.219l3.757-3.757A.707.707,0,0,0,8.99,83.4.739.739,0,0,0,8.777,82.872Z" transform="translate(0 0)" fill="#000"/>
  </g>
</svg>
