<svg id="e04t4sdlpf7kh1" xmlns="http://www.w3.org/2000/svg" xmlns:xlink="http://www.w3.org/1999/xlink" viewBox="0 0 500 500" shape-rendering="geometricPrecision" text-rendering="geometricPrecision"><style><![CDATA[#e04t4sdlpf7kh6_ts {animation: e04t4sdlpf7kh6_ts__ts 2000ms linear infinite normal forwards}@keyframes e04t4sdlpf7kh6_ts__ts { 0% {transform: translate(307.704200px,260.750000px) scale(1,1)} 50% {transform: translate(307.704200px,260.750000px) scale(1.116533,1.116533)} 100% {transform: translate(307.704200px,260.750000px) scale(1,1)} }#e04t4sdlpf7kh15_ts {animation: e04t4sdlpf7kh15_ts__ts 2000ms linear infinite normal forwards}@keyframes e04t4sdlpf7kh15_ts__ts { 0% {transform: translate(101.775610px,165.300000px) scale(1,1)} 50% {transform: translate(101.775610px,165.300000px) scale(1.112762,1.112762)} 100% {transform: translate(101.775610px,165.300000px) scale(1,1)} }#e04t4sdlpf7kh24_ts {animation: e04t4sdlpf7kh24_ts__ts 2000ms linear infinite normal forwards}@keyframes e04t4sdlpf7kh24_ts__ts { 0% {transform: translate(241.058768px,119.850000px) scale(1,1)} 50% {transform: translate(241.058768px,119.850000px) scale(0.626968,0.626968)} 100% {transform: translate(241.058768px,119.850000px) scale(1,1)} }#e04t4sdlpf7kh34_ts {animation: e04t4sdlpf7kh34_ts__ts 2000ms linear infinite normal forwards}@keyframes e04t4sdlpf7kh34_ts__ts { 0% {transform: translate(161.660102px,296.920860px) scale(1,1)} 50% {transform: translate(161.660102px,296.920860px) scale(0.677034,0.657281)} 100% {transform: translate(161.660102px,296.920860px) scale(1,1)} }]]></style><g id="e04t4sdlpf7kh2" transform="matrix(1 0 0 1 90.50500000000000 55.52300000000000)"><g id="e04t4sdlpf7kh3"><g id="e04t4sdlpf7kh4"><g id="e04t4sdlpf7kh5"><g id="e04t4sdlpf7kh6_ts" transform="translate(307.704200,260.750000) scale(1,1)"><g id="e04t4sdlpf7kh6" transform="translate(-307.704200,-260.750000)"><path id="e04t4sdlpf7kh7" d="M376.400000,221.800000L386.200000,216.600000C384.300000,213.100000,382.300000,209.700000,380,206.500000L370.900000,212.900000C373,215.800000,374.800000,218.700000,376.400000,221.800000Z" fill="rgb(243,139,3)" stroke="none" stroke-width="1"/><path id="e04t4sdlpf7kh8" d="M364.400000,204.900000L372.500000,197.300000C369.800000,194.400000,366.900000,191.700000,363.900000,189.200000L356.900000,197.800000C359.500000,200,362,202.400000,364.400000,204.900000Z" fill="rgb(243,139,3)" stroke="none" stroke-width="1"/><path id="e04t4sdlpf7kh9" d="M391,227.400000L391,227.400000L380.600000,231.200000C395.400000,271.500000,374.800000,316.300000,334.400000,331.100000C294.100000,345.900000,249.300000,325.300000,234.500000,284.900000C219.700000,244.500000,240.300000,199.800000,280.700000,185C303.100000,176.800000,328.100000,179.200000,348.400000,191.800000L354.200000,182.400000C312.400000,156.700000,257.800000,169.800000,232.100000,211.500000C206.400000,253.200000,219.500000,307.900000,261.200000,333.600000C303,359.300000,357.600000,346.200000,383.300000,304.500000C397.600000,281.300000,400.400000,252.900000,391,227.400000L391,227.400000Z" fill="rgb(243,139,3)" stroke="none" stroke-width="1"/><path id="e04t4sdlpf7kh10" d="M313.100000,313.600000L313.100000,302.500000L315.900000,302.500000C329.600000,302.600000,340.900000,291.500000,340.900000,277.700000C340.900000,270,337.400000,262.800000,331.400000,258C342.200000,249.500000,344.100000,233.800000,335.600000,223C330.900000,217,323.600000,213.500000,315.900000,213.500000L313.100000,213.500000L313.100000,202.400000L302,202.400000L302,213.500000L274.200000,213.500000L274.200000,302.400000L302,302.400000L302,313.500000L313.100000,313.600000ZM313.100000,224.700000L315.900000,224.700000C323.600000,224.700000,329.800000,230.900000,329.800000,238.600000C329.800000,246.300000,323.600000,252.500000,315.900000,252.500000L313.100000,252.500000L313.100000,224.700000ZM313.100000,263.600000L315.900000,263.600000C323.600000,263.600000,329.800000,269.800000,329.800000,277.500000C329.800000,285.200000,323.600000,291.400000,315.900000,291.400000L313.100000,291.400000L313.100000,263.600000ZM285.300000,224.700000L302,224.700000L302,252.500000L285.300000,252.500000L285.300000,224.700000ZM285.300000,291.400000L285.300000,263.600000L302,263.600000L302,291.400000L285.300000,291.400000Z" fill="rgb(243,139,3)" stroke="none" stroke-width="1"/></g></g></g></g></g></g><g id="e04t4sdlpf7kh11" transform="matrix(1 0 0 1 0 15)"><g id="e04t4sdlpf7kh12"><g id="e04t4sdlpf7kh13"><g id="e04t4sdlpf7kh14"><g id="e04t4sdlpf7kh15_ts" transform="translate(101.775610,165.300000) scale(1,1)"><g id="e04t4sdlpf7kh15" transform="translate(-101.775610,-165.300000)"><path id="e04t4sdlpf7kh16" d="M158.500000,112.700000L166.600000,105.100000C163.900000,102.200000,161,99.500000,158,97L151,105.600000C153.600000,107.800000,156.200000,110.200000,158.500000,112.700000Z" fill="rgb(162,162,162)" stroke="none" stroke-width="1"/><path id="e04t4sdlpf7kh17" d="M170.500000,129.600000L180.300000,124.400000C178.400000,120.900000,176.400000,117.500000,174.100000,114.300000L165,120.700000C167.100000,123.600000,168.900000,126.500000,170.500000,129.600000Z" fill="rgb(162,162,162)" stroke="none" stroke-width="1"/><path id="e04t4sdlpf7kh18" d="M185.200000,135.200000L174.800000,139C189.600000,179.300000,169,224,128.700000,238.900000C88.400000,253.800000,43.700000,233.100000,28.800000,192.800000C13.900000,152.500000,34.600000,107.800000,74.900000,92.900000C97.300000,84.700000,122.200000,87.200000,142.500000,99.700000L148.300000,90.300000C106.500000,64.600000,51.800000,77.600000,26.100000,119.400000C0.400000,161.200000,13.400000,215.900000,55.200000,241.600000C97,267.300000,151.700000,254.300000,177.400000,212.500000C191.700000,189.200000,194.600000,160.700000,185.200000,135.200000Z" fill="rgb(162,162,162)" stroke="none" stroke-width="1"/><path id="e04t4sdlpf7kh19" d="M140.600000,210.300000L140.600000,199.200000L86.300000,199.200000L91.100000,175L114.900000,165.500000L110.800000,155.200000L93.800000,162L101.700000,122.500000L90.800000,120.300000L81.500000,166.900000L55.300000,177.400000L59.400000,187.700000L78.900000,179.900000L72.800000,210.300000L140.600000,210.300000Z" fill="rgb(162,162,162)" stroke="none" stroke-width="1"/></g></g></g></g></g></g><g id="e04t4sdlpf7kh20" transform="matrix(1 0 0 1 66.96800000000000 0)"><g id="e04t4sdlpf7kh21"><g id="e04t4sdlpf7kh22"><g id="e04t4sdlpf7kh23"><g id="e04t4sdlpf7kh24_ts" transform="translate(241.058768,119.850000) scale(1,1)"><g id="e04t4sdlpf7kh24" transform="translate(-241.058768,-119.850000)"><path id="e04t4sdlpf7kh25" d="M312.100000,92.500000L303.200000,95.800000C315.800000,130.200000,298.200000,168.300000,263.800000,180.900000C229.400000,193.500000,191.300000,175.900000,178.700000,141.500000C166.100000,107.100000,183.700000,69,218.100000,56.400000C237.200000,49.400000,258.400000,51.500000,275.700000,62.200000L280.700000,54.100000C245.100000,32.200000,198.500000,43.300000,176.600000,78.900000C154.700000,114.500000,165.800000,161.100000,201.400000,183C237,204.900000,283.600000,193.800000,305.500000,158.200000C317.700000,138.500000,320.100000,114.300000,312.100000,92.500000Z" fill="rgb(0,73,242)" stroke="none" stroke-width="1"/><path id="e04t4sdlpf7kh26" d="M299.700000,87.700000L308.100000,83.300000C306.500000,80.300000,304.800000,77.500000,302.800000,74.700000L295.100000,80.200000C296.700000,82.600000,298.300000,85.100000,299.700000,87.700000Z" fill="rgb(0,73,242)" stroke="none" stroke-width="1"/><path id="e04t4sdlpf7kh27" d="M289.400000,73.300000L296.300000,66.800000C294,64.300000,291.500000,62,288.900000,59.900000L282.900000,67.200000C285.300000,69.100000,287.400000,71.200000,289.400000,73.300000Z" fill="rgb(0,73,242)" stroke="none" stroke-width="1"/><path id="e04t4sdlpf7kh28" d="M269.800000,134.400000L278,106.300000L278.200000,105.600000C278.200000,105.200000,278.300000,104.800000,278.300000,104.400000C278.300000,99.200000,274.100000,94.900000,268.800000,94.900000L222.100000,94.900000L222.100000,104.400000L268.800000,104.400000L260.700000,132.100000L260.500000,132.800000L212.600000,132.800000L212.600000,142.300000L260.500000,142.300000C265.100000,142.300000,269.100000,139,269.800000,134.400000Z" fill="rgb(0,73,242)" stroke="none" stroke-width="1"/><rect id="e04t4sdlpf7kh29" width="28.400000" height="9.500000" rx="0" ry="0" transform="matrix(1 0 0 1 203.09999999999999 113.90000000000001)" fill="rgb(0,73,242)" stroke="none" stroke-width="1"/></g></g></g></g></g></g><g id="e04t4sdlpf7kh30" transform="matrix(1 0 0 1 28.97900000000000 75.57299999999999)"><g id="e04t4sdlpf7kh31"><g id="e04t4sdlpf7kh32"><g id="e04t4sdlpf7kh33"><g id="e04t4sdlpf7kh34_ts" transform="translate(161.660102,296.920860) scale(1,1)"><g id="e04t4sdlpf7kh34" transform="translate(-161.660102,-296.920860)"><path id="e04t4sdlpf7kh35" d="M228.400000,272.200000L238,268.700000C236.700000,265.300000,235.200000,261.900000,233.500000,258.700000L224.400000,263.500000C226,266.300000,227.300000,269.200000,228.400000,272.200000Z" fill="rgb(0,0,0)" stroke="none" stroke-width="1"/><path id="e04t4sdlpf7kh36" d="M227.800000,249.300000C225.700000,246.300000,223.400000,243.500000,220.900000,240.800000L213.400000,247.800000C215.600000,250.100000,217.600000,252.600000,219.500000,255.200000L227.800000,249.300000Z" fill="rgb(0,0,0)" stroke="none" stroke-width="1"/><path id="e04t4sdlpf7kh37" d="M241.100000,279.100000L241.100000,279.100000L231.100000,281.400000C239.700000,320.200000,215.300000,358.700000,176.500000,367.300000C137.700000,375.900000,99.200000,351.500000,90.600000,312.700000C82,273.900000,106.400000,235.400000,145.200000,226.800000C166.800000,222,189.300000,227.400000,206.400000,241.300000L212.900000,233.300000C177.800000,204.700000,126.100000,209.900000,97.500000,245C68.900000,280.100000,74,331.800000,109.100000,360.500000C144.200000,389.200000,195.900000,383.900000,224.500000,348.800000C240.500000,329.300000,246.500000,303.700000,241.100000,279.100000L241.100000,279.100000Z" fill="rgb(0,0,0)" stroke="none" stroke-width="1"/><path id="e04t4sdlpf7kh38" d="M125,300.500000L160.900000,352.300000L196.800000,300.500000L160.900000,240.700000L125,300.500000ZM160.800000,334.300000L145.700000,312.500000L160.800000,319.200000L175.900000,312.500000L160.800000,334.300000ZM160.800000,307.900000L138.500000,298L160.800000,260.800000L183.100000,298L160.800000,307.900000Z" fill="rgb(0,0,0)" stroke="none" stroke-width="1"/></g></g></g></g></g></g></svg>