<?xml version="1.0" encoding="utf-8"?>
<!-- Generator: Adobe Illustrator 24.2.1, SVG Export Plug-In . SVG Version: 6.00 Build 0)  -->
<svg version="1.1" id="Layer_1" xmlns="http://www.w3.org/2000/svg" xmlns:xlink="http://www.w3.org/1999/xlink" x="0px" y="0px"
	 viewBox="0 0 752 542" style="enable-background:new 0 0 752 542;" xml:space="preserve">
<style type="text/css">
	.st0{fill:#393939;}
	.st1{opacity:7.000000e-02;}
	.st2{fill:#FFFFFF;}
	.st3{fill:#292929;}
	.st4{enable-background:new    ;}
	.st5{fill-rule:evenodd;clip-rule:evenodd;fill:#910000;}
	.st6{fill-rule:evenodd;clip-rule:evenodd;fill:#A80000;}
	.st7{fill-rule:evenodd;clip-rule:evenodd;fill:#BF0000;}
	.st8{fill-rule:evenodd;clip-rule:evenodd;fill:#F40000;}
	.st9{fill:#F40000;}
</style>
<g id="Rectangle_367" transform="translate(368 28)">
	<rect x="25.8" y="18.3" class="st0" width="340" height="455.8"/>
</g>
<g id="Rectangle_369" transform="translate(368 106)" class="st1">
	<rect x="25.8" y="17" class="st2" width="340" height="52"/>
</g>
<g id="Rectangle_370" transform="translate(368 236)" class="st1">
	<rect x="26" y="25" class="st2" width="340" height="53"/>
</g>
<g id="Rectangle_375" transform="translate(368 364)" class="st1">
	<rect x="25.8" y="32" class="st2" width="340" height="57"/>
</g>
<rect id="Rectangle_366" x="25.8" y="20.6" class="st3" width="340.2" height="504.4"/>
<g id="Rectangle_368" transform="translate(0 95)" class="st1">
	<rect x="25.8" y="20.6" class="st2" width="340" height="66"/>
</g>
<g id="Rectangle_371" transform="translate(0 233)" class="st1">
	<rect x="25.8" y="20.6" class="st2" width="340" height="66"/>
</g>
<g id="Rectangle_373" transform="translate(0 373)" class="st1">
	<rect x="25.8" y="20.6" class="st2" width="340" height="66"/>
</g>
<g class="st4">
	<path class="st2" d="M462.3,80.1h3.4v15.6h-3.4V80.1z"/>
	<path class="st2" d="M468.4,83.6h3.1v1.6c1-1.3,2.3-1.8,3.8-1.8c3.2,0,4.3,2,4.3,5.3v6.9h-3.2v-6.5c0-1.8-0.5-2.7-2.1-2.7
		c-1.6,0-2.7,1.3-2.7,3.1v6.1h-3.2V83.6z"/>
	<path class="st2" d="M481.6,89.6c0-3.5,2.2-6.2,5.5-6.2c1.4,0,2.8,0.6,3.6,1.6v-5.1h3.2v15.8h-3v-1.4c-0.9,1.2-2.4,1.7-3.8,1.7
		C483.7,95.9,481.6,93.1,481.6,89.6z M490.7,89.6c0-1.9-1.2-3.3-2.9-3.3c-1.7,0-3,1.4-3,3.3c0,1.9,1.2,3.3,3,3.3
		C489.5,92.9,490.7,91.6,490.7,89.6z"/>
	<path class="st2" d="M496.2,90.8v-7.2h3.2v6.7c0,1.7,0.7,2.4,2.2,2.4c1.7,0,2.5-1.4,2.5-3v-6.1h3.2v12h-3V94
		c-0.7,1.2-2.4,1.9-3.7,1.9C497.2,95.9,496.2,93.9,496.2,90.8z"/>
	<path class="st2" d="M509.1,94.2l1.2-2.5c0.8,0.6,1.9,1.3,3.7,1.3c0.7,0,2-0.3,2-1c0-0.7-1-0.9-2.1-1.2c-2.4-0.6-4.3-1.4-4.3-3.7
		c0-2.4,2.4-3.7,4.7-3.7c2,0,3.2,0.5,4.5,1.2l-1.1,2.4c-1.2-0.6-2.3-0.8-3.3-0.8c-0.7,0-1.4,0.3-1.4,0.8c0,0.7,1,0.9,2.1,1.1
		c2,0.5,4.3,1.4,4.3,3.8c0,3-3,3.9-5.2,3.9C511.4,95.9,509.8,94.9,509.1,94.2z"/>
	<path class="st2" d="M522,91.8v-5.5h-1.8v-2.6h1.8v-2.3l3.2-0.7v3h3.3v2.6h-3.3v5.5c0,1,0.5,1.4,1.1,1.4c0.8,0,1.4-0.4,1.5-0.5
		l0.9,2.4c-0.7,0.5-1.8,0.9-3,0.9C523.3,95.9,522,94.5,522,91.8z"/>
	<path class="st2" d="M530.3,83.6h3.2v2.3c0.3-1,1.6-2.5,4.2-2.5v3.5c-2.8,0-4.2,1.3-4.2,4.1v4.6h-3.2V83.6z"/>
	<path class="st2" d="M540.7,96.2c1.5,0,2-0.5,2.5-1.4l0.3-0.5l-5-10.6h3.3l2.4,5.6c0.4,0.8,0.8,2,0.8,2s0.5-1.4,0.8-2.1l2.2-5.5
		h3.2L545.7,96c-1.3,3-3.6,3.2-5,3.2V96.2z"/>
	<path class="st2" d="M558.6,80.1h2.5v6.5h-2.5V80.1z M563,80.1h2.5v6.5H563V80.1z"/>
	<path class="st2" d="M570.1,80.1h3.4v12.7h9v2.9h-12.4V80.1z"/>
	<path class="st2" d="M584,89.6c0-3.5,2.7-6.2,6.2-6.2c3.3,0,5.8,2.8,5.8,6.2c0,0.6-0.1,1.2-0.1,1.2h-8.7c0.4,1.7,1.8,2.4,3.3,2.4
		c1.2,0,2.4-0.3,3.2-0.9l1.2,2.3c-1.3,0.9-2.9,1.3-4.5,1.3C587,95.9,584,93.6,584,89.6z M593,88.6c-0.2-1.5-1.4-2.5-2.9-2.5
		c-1.4,0-2.6,1-2.9,2.5H593z"/>
	<path class="st2" d="M597.8,89.6c0-3.5,2.1-6.2,5.4-6.2c1.4,0,2.9,0.6,3.7,1.7v-1.5h3.1v12h-3.1v-1.4c-0.8,1.2-2.4,1.7-3.7,1.7
		C599.9,95.9,597.8,93.1,597.8,89.6z M606.8,89.6c0-1.9-1.2-3.3-2.9-3.3c-1.7,0-3,1.4-3,3.3c0,1.9,1.2,3.3,3,3.3
		C605.6,92.9,606.8,91.6,606.8,89.6z"/>
	<path class="st2" d="M612.2,89.6c0-3.5,2.2-6.2,5.5-6.2c1.4,0,2.8,0.6,3.6,1.6v-5.1h3.2v15.8h-3v-1.4c-0.9,1.2-2.4,1.7-3.8,1.7
		C614.3,95.9,612.2,93.1,612.2,89.6z M621.2,89.6c0-1.9-1.2-3.3-2.9-3.3c-1.7,0-3,1.4-3,3.3c0,1.9,1.2,3.3,3,3.3
		C620,92.9,621.2,91.6,621.2,89.6z"/>
	<path class="st2" d="M626.6,89.6c0-3.5,2.7-6.2,6.2-6.2c3.3,0,5.8,2.8,5.8,6.2c0,0.6-0.1,1.2-0.1,1.2h-8.7c0.4,1.7,1.8,2.4,3.3,2.4
		c1.2,0,2.4-0.3,3.2-0.9l1.2,2.3c-1.3,0.9-2.9,1.3-4.5,1.3C629.6,95.9,626.6,93.6,626.6,89.6z M635.6,88.6c-0.2-1.5-1.4-2.5-2.9-2.5
		c-1.4,0-2.6,1-2.9,2.5H635.6z"/>
	<path class="st2" d="M640.7,83.6h3.2v2.3c0.3-1,1.6-2.5,4.2-2.5v3.5c-2.8,0-4.2,1.3-4.2,4.1v4.6h-3.2V83.6z"/>
	<path class="st2" d="M649.2,94.2l1.2-2.5c0.8,0.6,1.9,1.3,3.7,1.3c0.7,0,2-0.3,2-1c0-0.7-1-0.9-2.1-1.2c-2.4-0.6-4.3-1.4-4.3-3.7
		c0-2.4,2.4-3.7,4.7-3.7c2,0,3.2,0.5,4.5,1.2l-1.1,2.4c-1.2-0.6-2.3-0.8-3.3-0.8c-0.7,0-1.4,0.3-1.4,0.8c0,0.7,1,0.9,2.1,1.1
		c2,0.5,4.3,1.4,4.3,3.8c0,3-3,3.9-5.2,3.9C651.5,95.9,649.9,94.9,649.2,94.2z"/>
	<path class="st2" d="M662.1,80.1h2.5v6.5h-2.5V80.1z M666.6,80.1h2.5v6.5h-2.5V80.1z"/>
</g>
<g class="st4">
	<path class="st2" d="M139.2,221.9l-0.3,0.4c-0.9,1-2.2,1.6-3.9,1.6c-1.5,0-2.7-0.5-3.6-1.5s-1.3-2.5-1.3-4.3v-2.8
		c0-2,0.4-3.5,1.2-4.5s2-1.5,3.6-1.5c1.4,0,2.4,0.4,3.2,1.1s1.2,1.8,1.3,3.2h-1.8c-0.1-0.9-0.3-1.6-0.7-2.1s-1.1-0.7-1.9-0.7
		c-1,0-1.8,0.3-2.2,1s-0.7,1.7-0.7,3.2v2.9c0,1.4,0.3,2.5,0.8,3.3s1.3,1.1,2.4,1.1c1,0,1.7-0.2,2.2-0.7l0.3-0.2v-3.3h-2.6v-1.5h4.4
		V221.9z"/>
	<path class="st2" d="M143.9,222.1h5.6v1.5h-7.4v-14.2h1.8V222.1z"/>
	<path class="st2" d="M160.2,217.8c0,1.9-0.4,3.4-1.2,4.5s-2,1.6-3.5,1.6c-1.5,0-2.6-0.5-3.5-1.5s-1.3-2.5-1.3-4.3v-2.7
		c0-1.9,0.4-3.4,1.3-4.5s2-1.6,3.5-1.6c1.5,0,2.7,0.5,3.5,1.5s1.3,2.5,1.3,4.4V217.8z M158.4,215.3c0-1.5-0.2-2.6-0.7-3.4
		s-1.2-1.1-2.3-1.1c-1,0-1.7,0.4-2.2,1.1s-0.8,1.8-0.8,3.3v2.5c0,1.5,0.3,2.6,0.8,3.3s1.3,1.1,2.3,1.1s1.7-0.4,2.2-1.1
		s0.7-1.8,0.8-3.2V215.3z"/>
	<path class="st2" d="M163,223.6v-14.2h4.1c1.3,0,2.3,0.3,2.9,0.9s1,1.6,1,2.8c0,0.7-0.2,1.3-0.5,1.8s-0.8,0.9-1.3,1.2
		c0.7,0.2,1.2,0.6,1.5,1.2s0.6,1.3,0.6,2.2c0,1.3-0.4,2.3-1,3s-1.7,1.1-3,1.1H163z M164.8,215.5h2.3c0.6,0,1.1-0.2,1.5-0.6
		c0.4-0.4,0.6-1,0.6-1.7c0-0.8-0.2-1.4-0.5-1.7s-0.9-0.5-1.6-0.5h-2.3V215.5z M164.8,217v5.1h2.4c0.7,0,1.2-0.2,1.6-0.7
		s0.6-1.1,0.6-1.9c0-1.7-0.7-2.6-2.2-2.6H164.8z"/>
	<path class="st2" d="M180.5,219.9h-4.8l-1.1,3.7h-1.8l4.6-14.2h1.5l4.6,14.2h-1.8L180.5,219.9z M176.2,218.4h3.9l-1.9-6.5
		L176.2,218.4z"/>
	<path class="st2" d="M187.2,222.1h5.6v1.5h-7.4v-14.2h1.8V222.1z"/>
	<path class="st2" d="M206.1,219.9h-4.8l-1.1,3.7h-1.8l4.6-14.2h1.5l4.6,14.2h-1.8L206.1,219.9z M201.8,218.4h3.9l-1.9-6.5
		L201.8,218.4z"/>
	<path class="st2" d="M219.8,219.1c-0.1,1.5-0.5,2.7-1.3,3.5s-1.9,1.2-3.3,1.2c-1.4,0-2.6-0.5-3.4-1.6s-1.3-2.6-1.3-4.4v-2.6
		c0-1.8,0.4-3.3,1.3-4.4s2-1.6,3.5-1.6c1.4,0,2.4,0.4,3.2,1.2s1.2,2,1.2,3.5H218c-0.1-1.2-0.3-2-0.7-2.5s-1-0.7-1.9-0.7
		c-1,0-1.7,0.4-2.2,1.1s-0.8,1.9-0.8,3.3v2.6c0,1.4,0.2,2.5,0.7,3.3s1.2,1.2,2.1,1.2s1.6-0.2,2-0.7s0.7-1.3,0.8-2.5H219.8z"/>
	<path class="st2" d="M231.2,219.1c-0.1,1.5-0.5,2.7-1.3,3.5s-1.9,1.2-3.3,1.2c-1.4,0-2.6-0.5-3.4-1.6s-1.3-2.6-1.3-4.4v-2.6
		c0-1.8,0.4-3.3,1.3-4.4s2-1.6,3.5-1.6c1.4,0,2.4,0.4,3.2,1.2s1.2,2,1.2,3.5h-1.8c-0.1-1.2-0.3-2-0.7-2.5s-1-0.7-1.9-0.7
		c-1,0-1.7,0.4-2.2,1.1s-0.8,1.9-0.8,3.3v2.6c0,1.4,0.2,2.5,0.7,3.3s1.2,1.2,2.1,1.2s1.6-0.2,2-0.7s0.7-1.3,0.8-2.5H231.2z"/>
	<path class="st2" d="M240.4,217.1h-5v5h5.9v1.5h-7.6v-14.2h7.5v1.5h-5.8v4.6h5V217.1z"/>
	<path class="st2" d="M249.7,220c0-0.7-0.2-1.3-0.6-1.6s-1.1-0.7-2.1-1.1s-1.8-0.7-2.3-1.1s-0.9-0.8-1.2-1.3s-0.4-1.1-0.4-1.7
		c0-1.1,0.4-2.1,1.1-2.8s1.7-1.1,3-1.1c0.8,0,1.6,0.2,2.2,0.6s1.2,0.9,1.5,1.6s0.5,1.4,0.5,2.2h-1.8c0-0.9-0.2-1.6-0.6-2
		s-1-0.7-1.8-0.7c-0.7,0-1.3,0.2-1.7,0.6s-0.6,1-0.6,1.7c0,0.6,0.2,1.1,0.6,1.5s1.1,0.8,2,1.1c1.4,0.5,2.4,1,3,1.7s0.9,1.6,0.9,2.7
		c0,1.2-0.4,2.1-1.1,2.8s-1.8,1-3.1,1c-0.8,0-1.6-0.2-2.3-0.5s-1.3-0.9-1.7-1.5s-0.6-1.4-0.6-2.3h1.8c0,0.9,0.2,1.6,0.7,2.1
		s1.2,0.7,2,0.7c0.8,0,1.4-0.2,1.8-0.6S249.7,220.7,249.7,220z"/>
	<path class="st2" d="M260.1,220c0-0.7-0.2-1.3-0.6-1.6s-1.1-0.7-2.1-1.1s-1.8-0.7-2.3-1.1s-0.9-0.8-1.2-1.3s-0.4-1.1-0.4-1.7
		c0-1.1,0.4-2.1,1.1-2.8s1.7-1.1,3-1.1c0.8,0,1.6,0.2,2.2,0.6s1.2,0.9,1.5,1.6s0.5,1.4,0.5,2.2h-1.8c0-0.9-0.2-1.6-0.6-2
		s-1-0.7-1.8-0.7c-0.7,0-1.3,0.2-1.7,0.6s-0.6,1-0.6,1.7c0,0.6,0.2,1.1,0.6,1.5s1.1,0.8,2,1.1c1.4,0.5,2.4,1,3,1.7s0.9,1.6,0.9,2.7
		c0,1.2-0.4,2.1-1.1,2.8s-1.8,1-3.1,1c-0.8,0-1.6-0.2-2.3-0.5s-1.3-0.9-1.7-1.5s-0.6-1.4-0.6-2.3h1.8c0,0.9,0.2,1.6,0.7,2.1
		s1.2,0.7,2,0.7c0.8,0,1.4-0.2,1.8-0.6S260.1,220.7,260.1,220z"/>
</g>
<g class="st4">
	<path class="st2" d="M127.1,288.1v5.6h-1.8v-14.2h4.5c1.3,0,2.4,0.4,3.1,1.2s1.1,1.8,1.1,3.2c0,1.4-0.4,2.4-1.1,3.2s-1.7,1.1-3,1.1
		H127.1z M127.1,286.5h2.7c0.8,0,1.4-0.2,1.8-0.7c0.4-0.5,0.6-1.2,0.6-2c0-0.9-0.2-1.5-0.7-2.1c-0.4-0.5-1-0.8-1.8-0.8h-2.8V286.5z"
		/>
	<path class="st2" d="M140.7,287.9h-2.5v5.8h-1.8v-14.2h4c1.4,0,2.4,0.4,3.2,1.1s1.1,1.8,1.1,3.2c0,0.9-0.2,1.6-0.6,2.3
		s-0.9,1.1-1.6,1.5l2.8,6v0.1h-1.9L140.7,287.9z M138.2,286.4h2.2c0.7,0,1.3-0.2,1.8-0.7s0.7-1.1,0.7-1.9c0-1.8-0.8-2.7-2.5-2.7
		h-2.1V286.4z"/>
	<path class="st2" d="M148.9,293.6h-1.8v-14.2h1.8V293.6z"/>
	<path class="st2" d="M156.1,290.9l3.3-11.5h2l-4.4,14.2h-1.6l-4.4-14.2h2L156.1,290.9z"/>
	<path class="st2" d="M169.1,289.9h-4.8l-1.1,3.7h-1.8l4.6-14.2h1.5l4.6,14.2h-1.8L169.1,289.9z M164.8,288.4h3.9l-1.9-6.5
		L164.8,288.4z"/>
	<path class="st2" d="M181,281h-3.7v12.7h-1.8V281h-3.7v-1.5h9.3V281z"/>
	<path class="st2" d="M190,287.1h-5v5h5.9v1.5h-7.6v-14.2h7.5v1.5h-5.8v4.6h5V287.1z"/>
	<path class="st2" d="M197.6,293.6v-14.2h4.1c1.3,0,2.3,0.3,2.9,0.9s1,1.6,1,2.8c0,0.7-0.2,1.3-0.5,1.8s-0.8,0.9-1.3,1.2
		c0.7,0.2,1.2,0.6,1.5,1.2s0.6,1.3,0.6,2.2c0,1.3-0.4,2.3-1,3s-1.7,1.1-3,1.1H197.6z M199.4,285.5h2.3c0.6,0,1.1-0.2,1.5-0.6
		c0.4-0.4,0.6-1,0.6-1.7c0-0.8-0.2-1.4-0.5-1.7s-0.9-0.5-1.6-0.5h-2.3V285.5z M199.4,287v5.1h2.4c0.7,0,1.2-0.2,1.6-0.7
		s0.6-1.1,0.6-1.9c0-1.7-0.7-2.6-2.2-2.6H199.4z"/>
	<path class="st2" d="M215.4,287.1h-5v5h5.9v1.5h-7.6v-14.2h7.5v1.5h-5.8v4.6h5V287.1z"/>
	<path class="st2" d="M227,281h-3.7v12.7h-1.8V281h-3.7v-1.5h9.3V281z"/>
	<path class="st2" d="M237.6,281h-3.7v12.7H232V281h-3.7v-1.5h9.3V281z"/>
	<path class="st2" d="M241.5,293.6h-1.8v-14.2h1.8V293.6z"/>
	<path class="st2" d="M253.9,293.6h-1.8l-5.7-11v11h-1.8v-14.2h1.8l5.7,11v-11h1.8V293.6z"/>
	<path class="st2" d="M265.9,291.9l-0.3,0.4c-0.9,1-2.2,1.6-3.9,1.6c-1.5,0-2.7-0.5-3.6-1.5s-1.3-2.5-1.3-4.3v-2.8
		c0-2,0.4-3.5,1.2-4.5s2-1.5,3.6-1.5c1.4,0,2.4,0.4,3.2,1.1s1.2,1.8,1.3,3.2h-1.8c-0.1-0.9-0.3-1.6-0.7-2.1s-1.1-0.7-1.9-0.7
		c-1,0-1.8,0.3-2.2,1s-0.7,1.7-0.7,3.2v2.9c0,1.4,0.3,2.5,0.8,3.3s1.3,1.1,2.4,1.1c1,0,1.7-0.2,2.2-0.7l0.3-0.2v-3.3h-2.6v-1.5h4.4
		V291.9z"/>
</g>
<g class="st4">
	<path class="st2" d="M112.2,359.9l-0.3,0.4c-0.9,1-2.2,1.6-3.9,1.6c-1.5,0-2.7-0.5-3.6-1.5s-1.3-2.5-1.3-4.3v-2.8
		c0-2,0.4-3.5,1.2-4.5s2-1.5,3.6-1.5c1.4,0,2.4,0.4,3.2,1.1s1.2,1.8,1.3,3.2h-1.8c-0.1-0.9-0.3-1.6-0.7-2.1s-1.1-0.7-1.9-0.7
		c-1,0-1.8,0.3-2.2,1s-0.7,1.7-0.7,3.2v2.9c0,1.4,0.3,2.5,0.8,3.3s1.3,1.1,2.4,1.1c1,0,1.7-0.2,2.2-0.7l0.3-0.2v-3.3h-2.6v-1.5h4.4
		V359.9z"/>
	<path class="st2" d="M123.6,347.4v10.1c0,1.3-0.4,2.4-1.2,3.2s-1.8,1.1-3.2,1.1c-1.4,0-2.5-0.4-3.2-1.1s-1.1-1.8-1.1-3.2v-10.1h1.8
		v10c0,1,0.2,1.7,0.6,2.1s1.1,0.7,2,0.7c0.9,0,1.6-0.2,2-0.7s0.6-1.2,0.6-2.1v-10H123.6z"/>
	<path class="st2" d="M132.8,357.9H128l-1.1,3.7H125l4.6-14.2h1.5l4.6,14.2h-1.8L132.8,357.9z M128.4,356.4h3.9l-1.9-6.5
		L128.4,356.4z"/>
	<path class="st2" d="M141.9,355.9h-2.5v5.8h-1.8v-14.2h4c1.4,0,2.4,0.4,3.2,1.1s1.1,1.8,1.1,3.2c0,0.9-0.2,1.6-0.6,2.3
		s-0.9,1.1-1.6,1.5l2.8,6v0.1h-1.9L141.9,355.9z M139.4,354.4h2.2c0.7,0,1.3-0.2,1.8-0.7s0.7-1.1,0.7-1.9c0-1.8-0.8-2.7-2.5-2.7
		h-2.1V354.4z"/>
	<path class="st2" d="M154.9,357.9h-4.8l-1.1,3.7h-1.8l4.6-14.2h1.5l4.6,14.2H156L154.9,357.9z M150.6,356.4h3.9l-1.9-6.5
		L150.6,356.4z"/>
	<path class="st2" d="M169.1,361.6h-1.8l-5.7-11v11h-1.8v-14.2h1.8l5.7,11v-11h1.8V361.6z"/>
	<path class="st2" d="M180.2,349h-3.7v12.7h-1.8V349h-3.7v-1.5h9.3V349z"/>
	<path class="st2" d="M189.1,355.1h-5v5h5.9v1.5h-7.6v-14.2h7.5v1.5h-5.8v4.6h5V355.1z"/>
	<path class="st2" d="M199,355.1h-5v5h5.9v1.5h-7.6v-14.2h7.5v1.5H194v4.6h5V355.1z"/>
	<path class="st2" d="M202.2,361.6v-14.2h3.4c1.7,0,2.9,0.5,3.9,1.6s1.4,2.5,1.4,4.4v2.4c0,1.9-0.5,3.3-1.4,4.4s-2.3,1.5-4.1,1.5
		H202.2z M203.9,349v11.2h1.4c1.3,0,2.2-0.4,2.8-1.1s0.9-1.8,0.9-3.2v-2.5c0-1.5-0.3-2.6-0.9-3.3s-1.4-1.1-2.6-1.1H203.9z"/>
	<path class="st2" d="M219.9,356.1v5.6h-1.8v-14.2h4.5c1.3,0,2.4,0.4,3.1,1.2s1.1,1.8,1.1,3.2c0,1.4-0.4,2.4-1.1,3.2s-1.7,1.1-3,1.1
		H219.9z M219.9,354.5h2.7c0.8,0,1.4-0.2,1.8-0.7c0.4-0.5,0.6-1.2,0.6-2c0-0.9-0.2-1.5-0.7-2.1c-0.4-0.5-1-0.8-1.8-0.8h-2.8V354.5z"
		/>
	<path class="st2" d="M234.5,357.9h-4.8l-1.1,3.7h-1.8l4.6-14.2h1.5l4.6,14.2h-1.8L234.5,357.9z M230.2,356.4h3.9l-1.9-6.5
		L230.2,356.4z"/>
	<path class="st2" d="M242.2,354.6l2.9-7.1h2l-4,8.9v5.3h-1.8v-5.3l-4-8.9h2L242.2,354.6z"/>
	<path class="st2" d="M258,355.8c0,1.9-0.4,3.4-1.2,4.5s-2,1.6-3.5,1.6c-1.5,0-2.6-0.5-3.5-1.5s-1.3-2.5-1.3-4.3v-2.7
		c0-1.9,0.4-3.4,1.3-4.5s2-1.6,3.5-1.6c1.5,0,2.7,0.5,3.5,1.5s1.3,2.5,1.3,4.4V355.8z M256.2,353.3c0-1.5-0.2-2.6-0.7-3.4
		s-1.2-1.1-2.3-1.1c-1,0-1.7,0.4-2.2,1.1s-0.8,1.8-0.8,3.3v2.5c0,1.5,0.3,2.6,0.8,3.3s1.3,1.1,2.3,1.1s1.7-0.4,2.2-1.1
		s0.7-1.8,0.8-3.2V353.3z"/>
	<path class="st2" d="M269.2,347.4v10.1c0,1.3-0.4,2.4-1.2,3.2s-1.8,1.1-3.2,1.1c-1.4,0-2.5-0.4-3.2-1.1s-1.1-1.8-1.1-3.2v-10.1h1.8
		v10c0,1,0.2,1.7,0.6,2.1s1.1,0.7,2,0.7c0.9,0,1.6-0.2,2-0.7s0.6-1.2,0.6-2.1v-10H269.2z"/>
	<path class="st2" d="M280.3,349h-3.7v12.7h-1.8V349H271v-1.5h9.3V349z"/>
	<path class="st2" d="M288.4,358c0-0.7-0.2-1.3-0.6-1.6s-1.1-0.7-2.1-1.1s-1.8-0.7-2.3-1.1s-0.9-0.8-1.2-1.3s-0.4-1.1-0.4-1.7
		c0-1.1,0.4-2.1,1.1-2.8s1.7-1.1,3-1.1c0.8,0,1.6,0.2,2.2,0.6s1.2,0.9,1.5,1.6s0.5,1.4,0.5,2.2h-1.8c0-0.9-0.2-1.6-0.6-2
		s-1-0.7-1.8-0.7c-0.7,0-1.3,0.2-1.7,0.6s-0.6,1-0.6,1.7c0,0.6,0.2,1.1,0.6,1.5s1.1,0.8,2,1.1c1.4,0.5,2.4,1,3,1.7s0.9,1.6,0.9,2.7
		c0,1.2-0.4,2.1-1.1,2.8s-1.8,1-3.1,1c-0.8,0-1.6-0.2-2.3-0.5s-1.3-0.9-1.7-1.5s-0.6-1.4-0.6-2.3h1.8c0,0.9,0.2,1.6,0.7,2.1
		s1.2,0.7,2,0.7c0.8,0,1.4-0.2,1.8-0.6S288.4,358.7,288.4,358z"/>
</g>
<g class="st4">
	<path class="st2" d="M466.6,218.9h-2.5v5.8h-1.8v-14.2h4c1.4,0,2.4,0.4,3.2,1.1c0.7,0.7,1.1,1.8,1.1,3.2c0,0.9-0.2,1.6-0.6,2.3
		c-0.4,0.7-0.9,1.1-1.6,1.5l2.8,6v0.1h-1.9L466.6,218.9z M464.1,217.4h2.2c0.7,0,1.3-0.2,1.8-0.7c0.4-0.5,0.7-1.1,0.7-1.9
		c0-1.8-0.8-2.7-2.5-2.7h-2.1V217.4z"/>
	<path class="st2" d="M479.7,218.1h-5v5h5.9v1.5h-7.6v-14.2h7.5v1.5h-5.8v4.6h5V218.1z"/>
	<path class="st2" d="M491.7,222.9l-0.3,0.4c-0.9,1-2.2,1.6-3.9,1.6c-1.5,0-2.7-0.5-3.6-1.5c-0.9-1-1.3-2.5-1.3-4.3v-2.8
		c0-2,0.4-3.5,1.2-4.5c0.8-1,2-1.5,3.6-1.5c1.4,0,2.4,0.4,3.2,1.1c0.8,0.8,1.2,1.8,1.3,3.2H490c-0.1-0.9-0.3-1.6-0.7-2.1
		s-1.1-0.7-1.9-0.7c-1,0-1.8,0.3-2.2,1c-0.5,0.7-0.7,1.7-0.7,3.2v2.9c0,1.4,0.3,2.5,0.8,3.3s1.3,1.1,2.4,1.1c1,0,1.7-0.2,2.2-0.7
		l0.3-0.2v-3.3h-2.6v-1.5h4.4V222.9z"/>
	<path class="st2" d="M496.5,224.6h-1.8v-14.2h1.8V224.6z"/>
	<path class="st2" d="M508.9,218.8c0,1.9-0.4,3.4-1.2,4.5c-0.8,1-2,1.6-3.5,1.6c-1.5,0-2.6-0.5-3.5-1.5s-1.3-2.5-1.3-4.3v-2.7
		c0-1.9,0.4-3.4,1.3-4.5s2-1.6,3.5-1.6c1.5,0,2.7,0.5,3.5,1.5c0.8,1,1.3,2.5,1.3,4.4V218.8z M507.1,216.3c0-1.5-0.2-2.6-0.7-3.4
		c-0.5-0.7-1.2-1.1-2.3-1.1c-1,0-1.7,0.4-2.2,1.1c-0.5,0.7-0.8,1.8-0.8,3.3v2.5c0,1.5,0.3,2.6,0.8,3.3c0.5,0.8,1.3,1.1,2.3,1.1
		c1,0,1.7-0.4,2.2-1.1c0.5-0.7,0.7-1.8,0.8-3.2V216.3z"/>
	<path class="st2" d="M521,224.6h-1.8l-5.7-11v11h-1.8v-14.2h1.8l5.7,11v-11h1.8V224.6z"/>
	<path class="st2" d="M530.9,220.9h-4.8l-1.1,3.7h-1.8l4.6-14.2h1.5l4.6,14.2H532L530.9,220.9z M526.5,219.4h3.9l-1.9-6.5
		L526.5,219.4z"/>
	<path class="st2" d="M537.5,223.1h5.6v1.5h-7.4v-14.2h1.8V223.1z"/>
	<path class="st2" d="M554.1,218.9h-2.5v5.8h-1.8v-14.2h4c1.4,0,2.4,0.4,3.2,1.1c0.7,0.7,1.1,1.8,1.1,3.2c0,0.9-0.2,1.6-0.6,2.3
		c-0.4,0.7-0.9,1.1-1.6,1.5l2.8,6v0.1h-1.9L554.1,218.9z M551.6,217.4h2.2c0.7,0,1.3-0.2,1.8-0.7c0.4-0.5,0.7-1.1,0.7-1.9
		c0-1.8-0.8-2.7-2.5-2.7h-2.1V217.4z"/>
	<path class="st2" d="M567.3,218.1h-5v5h5.9v1.5h-7.6v-14.2h7.5v1.5h-5.8v4.6h5V218.1z"/>
	<path class="st2" d="M576.6,221c0-0.7-0.2-1.3-0.6-1.6c-0.4-0.4-1.1-0.7-2.1-1.1c-1-0.4-1.8-0.7-2.3-1.1c-0.5-0.4-0.9-0.8-1.2-1.3
		s-0.4-1.1-0.4-1.7c0-1.1,0.4-2.1,1.1-2.8s1.7-1.1,3-1.1c0.8,0,1.6,0.2,2.2,0.6c0.7,0.4,1.2,0.9,1.5,1.6s0.5,1.4,0.5,2.2h-1.8
		c0-0.9-0.2-1.6-0.6-2c-0.4-0.5-1-0.7-1.8-0.7c-0.7,0-1.3,0.2-1.7,0.6c-0.4,0.4-0.6,1-0.6,1.7c0,0.6,0.2,1.1,0.6,1.5s1.1,0.8,2,1.1
		c1.4,0.5,2.4,1,3,1.7c0.6,0.7,0.9,1.6,0.9,2.7c0,1.2-0.4,2.1-1.1,2.8c-0.7,0.7-1.8,1-3.1,1c-0.8,0-1.6-0.2-2.3-0.5
		c-0.7-0.4-1.3-0.9-1.7-1.5s-0.6-1.4-0.6-2.3h1.8c0,0.9,0.2,1.6,0.7,2.1c0.5,0.5,1.2,0.7,2,0.7c0.8,0,1.4-0.2,1.8-0.6
		C576.4,222.3,576.6,221.7,576.6,221z"/>
	<path class="st2" d="M589.1,212h-3.7v12.7h-1.8V212h-3.7v-1.5h9.3V212z"/>
	<path class="st2" d="M595.4,218.9h-2.5v5.8h-1.8v-14.2h4c1.4,0,2.4,0.4,3.2,1.1c0.7,0.7,1.1,1.8,1.1,3.2c0,0.9-0.2,1.6-0.6,2.3
		c-0.4,0.7-0.9,1.1-1.6,1.5l2.8,6v0.1H598L595.4,218.9z M592.9,217.4h2.2c0.7,0,1.3-0.2,1.8-0.7c0.4-0.5,0.7-1.1,0.7-1.9
		c0-1.8-0.8-2.7-2.5-2.7h-2.1V217.4z"/>
	<path class="st2" d="M603.6,224.6h-1.8v-14.2h1.8V224.6z"/>
	<path class="st2" d="M615.7,220.1c-0.1,1.5-0.5,2.7-1.3,3.5c-0.8,0.8-1.9,1.2-3.3,1.2c-1.4,0-2.6-0.5-3.4-1.6s-1.3-2.6-1.3-4.4
		v-2.6c0-1.8,0.4-3.3,1.3-4.4c0.9-1.1,2-1.6,3.5-1.6c1.4,0,2.4,0.4,3.2,1.2s1.2,2,1.2,3.5h-1.8c-0.1-1.2-0.3-2-0.7-2.5
		s-1-0.7-1.9-0.7c-1,0-1.7,0.4-2.2,1.1c-0.5,0.8-0.8,1.9-0.8,3.3v2.6c0,1.4,0.2,2.5,0.7,3.3c0.5,0.8,1.2,1.2,2.1,1.2
		c0.9,0,1.6-0.2,2-0.7s0.7-1.3,0.8-2.5H615.7z"/>
	<path class="st2" d="M626.1,212h-3.7v12.7h-1.8V212h-3.7v-1.5h9.3V212z"/>
	<path class="st2" d="M630.1,224.6h-1.8v-14.2h1.8V224.6z"/>
	<path class="st2" d="M642.5,218.8c0,1.9-0.4,3.4-1.2,4.5c-0.8,1-2,1.6-3.5,1.6c-1.5,0-2.6-0.5-3.5-1.5s-1.3-2.5-1.3-4.3v-2.7
		c0-1.9,0.4-3.4,1.3-4.5s2-1.6,3.5-1.6c1.5,0,2.7,0.5,3.5,1.5c0.8,1,1.3,2.5,1.3,4.4V218.8z M640.7,216.3c0-1.5-0.2-2.6-0.7-3.4
		c-0.5-0.7-1.2-1.1-2.3-1.1c-1,0-1.7,0.4-2.2,1.1c-0.5,0.7-0.8,1.8-0.8,3.3v2.5c0,1.5,0.3,2.6,0.8,3.3c0.5,0.8,1.3,1.1,2.3,1.1
		c1,0,1.7-0.4,2.2-1.1c0.5-0.7,0.7-1.8,0.8-3.2V216.3z"/>
	<path class="st2" d="M654.5,224.6h-1.8l-5.7-11v11h-1.8v-14.2h1.8l5.7,11v-11h1.8V224.6z"/>
	<path class="st2" d="M663.8,221c0-0.7-0.2-1.3-0.6-1.6c-0.4-0.4-1.1-0.7-2.1-1.1c-1-0.4-1.8-0.7-2.3-1.1c-0.5-0.4-0.9-0.8-1.2-1.3
		s-0.4-1.1-0.4-1.7c0-1.1,0.4-2.1,1.1-2.8s1.7-1.1,3-1.1c0.8,0,1.6,0.2,2.2,0.6c0.7,0.4,1.2,0.9,1.5,1.6s0.5,1.4,0.5,2.2h-1.8
		c0-0.9-0.2-1.6-0.6-2c-0.4-0.5-1-0.7-1.8-0.7c-0.7,0-1.3,0.2-1.7,0.6c-0.4,0.4-0.6,1-0.6,1.7c0,0.6,0.2,1.1,0.6,1.5s1.1,0.8,2,1.1
		c1.4,0.5,2.4,1,3,1.7c0.6,0.7,0.9,1.6,0.9,2.7c0,1.2-0.4,2.1-1.1,2.8c-0.7,0.7-1.8,1-3.1,1c-0.8,0-1.6-0.2-2.3-0.5
		c-0.7-0.4-1.3-0.9-1.7-1.5s-0.6-1.4-0.6-2.3h1.8c0,0.9,0.2,1.6,0.7,2.1c0.5,0.5,1.2,0.7,2,0.7c0.8,0,1.4-0.2,1.8-0.6
		C663.6,222.3,663.8,221.7,663.8,221z"/>
</g>
<g class="st4">
	<path class="st2" d="M128.6,156.6h-1.8l-5.7-11v11h-1.8v-14.2h1.8l5.7,11v-11h1.8V156.6z"/>
	<path class="st2" d="M140.9,150.8c0,1.9-0.4,3.4-1.2,4.5s-2,1.6-3.5,1.6c-1.5,0-2.6-0.5-3.5-1.5s-1.3-2.5-1.3-4.3v-2.7
		c0-1.9,0.4-3.4,1.3-4.5s2-1.6,3.5-1.6c1.5,0,2.7,0.5,3.5,1.5s1.3,2.5,1.3,4.4V150.8z M139.1,148.3c0-1.5-0.2-2.6-0.7-3.4
		s-1.2-1.1-2.3-1.1c-1,0-1.7,0.4-2.2,1.1s-0.8,1.8-0.8,3.3v2.5c0,1.5,0.3,2.6,0.8,3.3s1.3,1.1,2.3,1.1s1.7-0.4,2.2-1.1
		s0.7-1.8,0.8-3.2V148.3z"/>
	<path class="st2" d="M150.1,155.1h5.6v1.5h-7.4v-14.2h1.8V155.1z"/>
	<path class="st2" d="M159.6,156.6h-1.8v-14.2h1.8V156.6z"/>
	<path class="st2" d="M165.1,142.4l3.7,11.6l3.7-11.6h2.3v14.2H173v-5.5l0.2-5.5l-3.7,11.1h-1.4l-3.7-11l0.2,5.5v5.5h-1.8v-14.2
		H165.1z"/>
	<path class="st2" d="M179.7,156.6H178v-14.2h1.8V156.6z"/>
	<path class="st2" d="M190.9,144h-3.7v12.7h-1.8V144h-3.7v-1.5h9.3V144z"/>
	<path class="st2" d="M197.2,156.6v-14.2h4.1c1.3,0,2.3,0.3,2.9,0.9s1,1.6,1,2.8c0,0.7-0.2,1.3-0.5,1.8s-0.8,0.9-1.3,1.2
		c0.7,0.2,1.2,0.6,1.5,1.2s0.6,1.3,0.6,2.2c0,1.3-0.4,2.3-1,3s-1.7,1.1-3,1.1H197.2z M199,148.5h2.3c0.6,0,1.1-0.2,1.5-0.6
		c0.4-0.4,0.6-1,0.6-1.7c0-0.8-0.2-1.4-0.5-1.7s-0.9-0.5-1.6-0.5H199V148.5z M199,150v5.1h2.4c0.7,0,1.2-0.2,1.6-0.7
		s0.6-1.1,0.6-1.9c0-1.7-0.7-2.6-2.2-2.6H199z"/>
	<path class="st2" d="M214.9,150.1h-5v5h5.9v1.5h-7.6v-14.2h7.5v1.5h-5.8v4.6h5V150.1z"/>
	<path class="st2" d="M226.5,144h-3.7v12.7H221V144h-3.7v-1.5h9.3V144z"/>
	<path class="st2" d="M237.1,144h-3.7v12.7h-1.8V144h-3.7v-1.5h9.3V144z"/>
	<path class="st2" d="M241.1,156.6h-1.8v-14.2h1.8V156.6z"/>
	<path class="st2" d="M253.5,156.6h-1.8l-5.7-11v11h-1.8v-14.2h1.8l5.7,11v-11h1.8V156.6z"/>
	<path class="st2" d="M265.5,154.9l-0.3,0.4c-0.9,1-2.2,1.6-3.9,1.6c-1.5,0-2.7-0.5-3.6-1.5s-1.3-2.5-1.3-4.3v-2.8
		c0-2,0.4-3.5,1.2-4.5s2-1.5,3.6-1.5c1.4,0,2.4,0.4,3.2,1.1s1.2,1.8,1.3,3.2h-1.8c-0.1-0.9-0.3-1.6-0.7-2.1s-1.1-0.7-1.9-0.7
		c-1,0-1.8,0.3-2.2,1s-0.7,1.7-0.7,3.2v2.9c0,1.4,0.3,2.5,0.8,3.3s1.3,1.1,2.4,1.1c1,0,1.7-0.2,2.2-0.7l0.3-0.2v-3.3h-2.6v-1.5h4.4
		V154.9z"/>
</g>
<g class="st4">
	<path class="st2" d="M113.9,426.4h-4.8v6.3h-1.8v-14.2h7.4v1.5h-5.6v4.9h4.8V426.4z"/>
	<path class="st2" d="M118.8,432.6H117v-14.2h1.8V432.6z"/>
	<path class="st2" d="M131.2,432.6h-1.8l-5.7-11v11h-1.8v-14.2h1.8l5.7,11v-11h1.8V432.6z"/>
	<path class="st2" d="M141.1,428.9h-4.8l-1.1,3.7h-1.8l4.6-14.2h1.5l4.6,14.2h-1.8L141.1,428.9z M136.8,427.4h3.9l-1.9-6.5
		L136.8,427.4z"/>
	<path class="st2" d="M155.3,432.6h-1.8l-5.7-11v11H146v-14.2h1.8l5.7,11v-11h1.8V432.6z"/>
	<path class="st2" d="M167.3,428.1c-0.1,1.5-0.5,2.7-1.3,3.5s-1.9,1.2-3.3,1.2c-1.4,0-2.6-0.5-3.4-1.6s-1.3-2.6-1.3-4.4v-2.6
		c0-1.8,0.4-3.3,1.3-4.4s2-1.6,3.5-1.6c1.4,0,2.4,0.4,3.2,1.2s1.2,2,1.2,3.5h-1.8c-0.1-1.2-0.3-2-0.7-2.5s-1-0.7-1.9-0.7
		c-1,0-1.7,0.4-2.2,1.1s-0.8,1.9-0.8,3.3v2.6c0,1.4,0.2,2.5,0.7,3.3s1.2,1.2,2.1,1.2s1.6-0.2,2-0.7s0.7-1.3,0.8-2.5H167.3z"/>
	<path class="st2" d="M171.6,432.6h-1.8v-14.2h1.8V432.6z"/>
	<path class="st2" d="M181.5,428.9h-4.8l-1.1,3.7h-1.8l4.6-14.2h1.5l4.6,14.2h-1.8L181.5,428.9z M177.2,427.4h3.9l-1.9-6.5
		L177.2,427.4z"/>
	<path class="st2" d="M188.2,431.1h5.6v1.5h-7.4v-14.2h1.8V431.1z"/>
	<path class="st2" d="M207.1,428.9h-4.8l-1.1,3.7h-1.8l4.6-14.2h1.5l4.6,14.2h-1.8L207.1,428.9z M202.8,427.4h3.9l-1.9-6.5
		L202.8,427.4z"/>
	<path class="st2" d="M220.3,418.4v10.1c0,1.3-0.4,2.4-1.2,3.2s-1.8,1.1-3.2,1.1c-1.4,0-2.5-0.4-3.2-1.1s-1.1-1.8-1.1-3.2v-10.1h1.8
		v10c0,1,0.2,1.7,0.6,2.1s1.1,0.7,2,0.7c0.9,0,1.6-0.2,2-0.7s0.6-1.2,0.6-2.1v-10H220.3z"/>
	<path class="st2" d="M231.4,420h-3.7v12.7h-1.8V420h-3.7v-1.5h9.3V420z"/>
	<path class="st2" d="M242.5,426.8c0,1.9-0.4,3.4-1.2,4.5s-2,1.6-3.5,1.6c-1.5,0-2.6-0.5-3.5-1.5s-1.3-2.5-1.3-4.3v-2.7
		c0-1.9,0.4-3.4,1.3-4.5s2-1.6,3.5-1.6c1.5,0,2.7,0.5,3.5,1.5s1.3,2.5,1.3,4.4V426.8z M240.7,424.3c0-1.5-0.2-2.6-0.7-3.4
		s-1.2-1.1-2.3-1.1c-1,0-1.7,0.4-2.2,1.1s-0.8,1.8-0.8,3.3v2.5c0,1.5,0.3,2.6,0.8,3.3s1.3,1.1,2.3,1.1s1.7-0.4,2.2-1.1
		s0.7-1.8,0.8-3.2V424.3z"/>
	<path class="st2" d="M254.5,432.6h-1.8l-5.7-11v11h-1.8v-14.2h1.8l5.7,11v-11h1.8V432.6z"/>
	<path class="st2" d="M266.9,426.8c0,1.9-0.4,3.4-1.2,4.5s-2,1.6-3.5,1.6c-1.5,0-2.6-0.5-3.5-1.5s-1.3-2.5-1.3-4.3v-2.7
		c0-1.9,0.4-3.4,1.3-4.5s2-1.6,3.5-1.6c1.5,0,2.7,0.5,3.5,1.5s1.3,2.5,1.3,4.4V426.8z M265.1,424.3c0-1.5-0.2-2.6-0.7-3.4
		s-1.2-1.1-2.3-1.1c-1,0-1.7,0.4-2.2,1.1s-0.8,1.8-0.8,3.3v2.5c0,1.5,0.3,2.6,0.8,3.3s1.3,1.1,2.3,1.1s1.7-0.4,2.2-1.1
		s0.7-1.8,0.8-3.2V424.3z"/>
	<path class="st2" d="M271.9,418.4l3.7,11.6l3.7-11.6h2.3v14.2h-1.8v-5.5l0.2-5.5l-3.7,11.1h-1.4l-3.7-11l0.2,5.5v5.5h-1.8v-14.2
		H271.9z"/>
	<path class="st2" d="M288.2,425.6l2.9-7.1h2l-4,8.9v5.3h-1.8v-5.3l-4-8.9h2L288.2,425.6z"/>
</g>
<g class="st4">
	<path class="st2" d="M514.9,424.4h-4.8v6.3h-1.8v-14.2h7.4v1.5h-5.6v4.9h4.8V424.4z"/>
	<path class="st2" d="M522.2,424.9h-2.5v5.8h-1.8v-14.2h4c1.4,0,2.4,0.4,3.2,1.1c0.7,0.7,1.1,1.8,1.1,3.2c0,0.9-0.2,1.6-0.6,2.3
		c-0.4,0.7-0.9,1.1-1.6,1.5l2.8,6v0.1h-1.9L522.2,424.9z M519.7,423.4h2.2c0.7,0,1.3-0.2,1.8-0.7c0.4-0.5,0.7-1.1,0.7-1.9
		c0-1.8-0.8-2.7-2.5-2.7h-2.1V423.4z"/>
	<path class="st2" d="M537.8,424.8c0,1.9-0.4,3.4-1.2,4.5c-0.8,1-2,1.6-3.5,1.6c-1.5,0-2.6-0.5-3.5-1.5s-1.3-2.5-1.3-4.3v-2.7
		c0-1.9,0.4-3.4,1.3-4.5s2-1.6,3.5-1.6c1.5,0,2.7,0.5,3.5,1.5c0.8,1,1.3,2.5,1.3,4.4V424.8z M536,422.3c0-1.5-0.2-2.6-0.7-3.4
		c-0.5-0.7-1.2-1.1-2.3-1.1c-1,0-1.7,0.4-2.2,1.1c-0.5,0.7-0.8,1.8-0.8,3.3v2.5c0,1.5,0.3,2.6,0.8,3.3c0.5,0.8,1.3,1.1,2.3,1.1
		c1,0,1.7-0.4,2.2-1.1c0.5-0.7,0.7-1.8,0.8-3.2V422.3z"/>
	<path class="st2" d="M541.6,429.1h6.7v1.5h-8.7v-1.4l6.5-11.3h-6.4v-1.5h8.4v1.4L541.6,429.1z"/>
	<path class="st2" d="M557.6,424.1h-5v5h5.9v1.5h-7.6v-14.2h7.5v1.5h-5.8v4.6h5V424.1z"/>
	<path class="st2" d="M570,430.6h-1.8l-5.7-11v11h-1.8v-14.2h1.8l5.7,11v-11h1.8V430.6z"/>
	<path class="st2" d="M584.2,424.4h-4.8v6.3h-1.8v-14.2h7.4v1.5h-5.6v4.9h4.8V424.4z"/>
	<path class="st2" d="M595.7,416.4v10.1c0,1.3-0.4,2.4-1.2,3.2c-0.8,0.8-1.8,1.1-3.2,1.1c-1.4,0-2.5-0.4-3.2-1.1s-1.1-1.8-1.1-3.2
		v-10.1h1.8v10c0,1,0.2,1.7,0.6,2.1c0.4,0.5,1.1,0.7,2,0.7c0.9,0,1.6-0.2,2-0.7c0.4-0.5,0.6-1.2,0.6-2.1v-10H595.7z"/>
	<path class="st2" d="M607.8,430.6H606l-5.7-11v11h-1.8v-14.2h1.8l5.7,11v-11h1.8V430.6z"/>
	<path class="st2" d="M610.9,430.6v-14.2h3.4c1.7,0,2.9,0.5,3.9,1.6s1.4,2.5,1.4,4.4v2.4c0,1.9-0.5,3.3-1.4,4.4
		c-0.9,1-2.3,1.5-4.1,1.5H610.9z M612.7,418v11.2h1.4c1.3,0,2.2-0.4,2.8-1.1c0.6-0.7,0.9-1.8,0.9-3.2v-2.5c0-1.5-0.3-2.6-0.9-3.3
		s-1.4-1.1-2.6-1.1H612.7z"/>
	<path class="st2" d="M628.5,427c0-0.7-0.2-1.3-0.6-1.6c-0.4-0.4-1.1-0.7-2.1-1.1c-1-0.4-1.8-0.7-2.3-1.1c-0.5-0.4-0.9-0.8-1.2-1.3
		s-0.4-1.1-0.4-1.7c0-1.1,0.4-2.1,1.1-2.8s1.7-1.1,3-1.1c0.8,0,1.6,0.2,2.2,0.6c0.7,0.4,1.2,0.9,1.5,1.6s0.5,1.4,0.5,2.2h-1.8
		c0-0.9-0.2-1.6-0.6-2c-0.4-0.5-1-0.7-1.8-0.7c-0.7,0-1.3,0.2-1.7,0.6c-0.4,0.4-0.6,1-0.6,1.7c0,0.6,0.2,1.1,0.6,1.5s1.1,0.8,2,1.1
		c1.4,0.5,2.4,1,3,1.7c0.6,0.7,0.9,1.6,0.9,2.7c0,1.2-0.4,2.1-1.1,2.8c-0.7,0.7-1.8,1-3.1,1c-0.8,0-1.6-0.2-2.3-0.5
		c-0.7-0.4-1.3-0.9-1.7-1.5s-0.6-1.4-0.6-2.3h1.8c0,0.9,0.2,1.6,0.7,2.1c0.5,0.5,1.2,0.7,2,0.7c0.8,0,1.4-0.2,1.8-0.6
		C628.3,428.3,628.5,427.7,628.5,427z"/>
</g>
<g class="st4">
	<path class="st2" d="M486.2,293.6h-1.8v-14.2h1.8V293.6z"/>
	<path class="st2" d="M489.3,293.6v-14.2h3.4c1.7,0,2.9,0.5,3.9,1.6s1.4,2.5,1.4,4.4v2.4c0,1.9-0.5,3.3-1.4,4.4
		c-0.9,1-2.3,1.5-4.1,1.5H489.3z M491.1,281v11.2h1.4c1.3,0,2.2-0.4,2.8-1.1c0.6-0.7,0.9-1.8,0.9-3.2v-2.5c0-1.5-0.3-2.6-0.9-3.3
		s-1.4-1.1-2.6-1.1H491.1z"/>
	<path class="st2" d="M507.5,287.1h-5v5h5.9v1.5h-7.6v-14.2h7.5v1.5h-5.8v4.6h5V287.1z"/>
	<path class="st2" d="M519.9,293.6h-1.8l-5.7-11v11h-1.8v-14.2h1.8l5.7,11v-11h1.8V293.6z"/>
	<path class="st2" d="M531.1,281h-3.7v12.7h-1.8V281h-3.7v-1.5h9.3V281z"/>
	<path class="st2" d="M535,293.6h-1.8v-14.2h1.8V293.6z"/>
	<path class="st2" d="M546.2,281h-3.7v12.7h-1.8V281h-3.7v-1.5h9.3V281z"/>
	<path class="st2" d="M552.1,286.6l2.9-7.1h2l-4,8.9v5.3h-1.8v-5.3l-4-8.9h2L552.1,286.6z"/>
	<path class="st2" d="M570.3,287.1h-5v5h5.9v1.5h-7.6v-14.2h7.5v1.5h-5.8v4.6h5V287.1z"/>
	<path class="st2" d="M577.4,284.9l2.7-5.4h2.1l-3.7,7.1l3.8,7.2h-2.1l-2.7-5.5l-2.7,5.5h-2.1l3.8-7.2l-3.7-7.1h2.1L577.4,284.9z"/>
	<path class="st2" d="M586.2,288.1v5.6h-1.8v-14.2h4.5c1.3,0,2.4,0.4,3.1,1.2c0.8,0.8,1.1,1.8,1.1,3.2c0,1.4-0.4,2.4-1.1,3.2
		c-0.7,0.7-1.7,1.1-3,1.1H586.2z M586.2,286.5h2.7c0.8,0,1.4-0.2,1.8-0.7c0.4-0.5,0.6-1.2,0.6-2c0-0.9-0.2-1.5-0.7-2.1
		c-0.4-0.5-1-0.8-1.8-0.8h-2.8V286.5z"/>
	<path class="st2" d="M604.8,287.8c0,1.9-0.4,3.4-1.2,4.5c-0.8,1-2,1.6-3.5,1.6c-1.5,0-2.6-0.5-3.5-1.5s-1.3-2.5-1.3-4.3v-2.7
		c0-1.9,0.4-3.4,1.3-4.5s2-1.6,3.5-1.6c1.5,0,2.7,0.5,3.5,1.5c0.8,1,1.3,2.5,1.3,4.4V287.8z M603,285.3c0-1.5-0.2-2.6-0.7-3.4
		c-0.5-0.7-1.2-1.1-2.3-1.1c-1,0-1.7,0.4-2.2,1.1c-0.5,0.7-0.8,1.8-0.8,3.3v2.5c0,1.5,0.3,2.6,0.8,3.3c0.5,0.8,1.3,1.1,2.3,1.1
		c1,0,1.7-0.4,2.2-1.1c0.5-0.7,0.7-1.8,0.8-3.2V285.3z"/>
	<path class="st2" d="M613.8,290c0-0.7-0.2-1.3-0.6-1.6c-0.4-0.4-1.1-0.7-2.1-1.1c-1-0.4-1.8-0.7-2.3-1.1c-0.5-0.4-0.9-0.8-1.2-1.3
		s-0.4-1.1-0.4-1.7c0-1.1,0.4-2.1,1.1-2.8s1.7-1.1,3-1.1c0.8,0,1.6,0.2,2.2,0.6c0.7,0.4,1.2,0.9,1.5,1.6s0.5,1.4,0.5,2.2h-1.8
		c0-0.9-0.2-1.6-0.6-2c-0.4-0.5-1-0.7-1.8-0.7c-0.7,0-1.3,0.2-1.7,0.6c-0.4,0.4-0.6,1-0.6,1.7c0,0.6,0.2,1.1,0.6,1.5s1.1,0.8,2,1.1
		c1.4,0.5,2.4,1,3,1.7c0.6,0.7,0.9,1.6,0.9,2.7c0,1.2-0.4,2.1-1.1,2.8c-0.7,0.7-1.8,1-3.1,1c-0.8,0-1.6-0.2-2.3-0.5
		c-0.7-0.4-1.3-0.9-1.7-1.5s-0.6-1.4-0.6-2.3h1.8c0,0.9,0.2,1.6,0.7,2.1c0.5,0.5,1.2,0.7,2,0.7c0.8,0,1.4-0.2,1.8-0.6
		C613.6,291.3,613.8,290.7,613.8,290z"/>
	<path class="st2" d="M626.4,279.4v10.1c0,1.3-0.4,2.4-1.2,3.2c-0.8,0.8-1.8,1.1-3.2,1.1c-1.4,0-2.5-0.4-3.2-1.1s-1.1-1.8-1.1-3.2
		v-10.1h1.8v10c0,1,0.2,1.7,0.6,2.1c0.4,0.5,1.1,0.7,2,0.7c0.9,0,1.6-0.2,2-0.7c0.4-0.5,0.6-1.2,0.6-2.1v-10H626.4z"/>
	<path class="st2" d="M633.4,287.9h-2.5v5.8h-1.8v-14.2h4c1.4,0,2.4,0.4,3.2,1.1c0.7,0.7,1.1,1.8,1.1,3.2c0,0.9-0.2,1.6-0.6,2.3
		c-0.4,0.7-0.9,1.1-1.6,1.5l2.8,6v0.1H636L633.4,287.9z M630.9,286.4h2.2c0.7,0,1.3-0.2,1.8-0.7c0.4-0.5,0.7-1.1,0.7-1.9
		c0-1.8-0.8-2.7-2.5-2.7h-2.1V286.4z"/>
	<path class="st2" d="M646.6,287.1h-5v5h5.9v1.5h-7.6v-14.2h7.5v1.5h-5.8v4.6h5V287.1z"/>
</g>
<g class="st4">
	<path class="st2" d="M480.3,360.6v-14.2h4.1c1.3,0,2.3,0.3,2.9,0.9s1,1.6,1,2.8c0,0.7-0.2,1.3-0.5,1.8s-0.8,0.9-1.3,1.2
		c0.7,0.2,1.2,0.6,1.5,1.2s0.6,1.3,0.6,2.2c0,1.3-0.3,2.3-1,3c-0.7,0.7-1.7,1.1-3,1.1H480.3z M482.1,352.5h2.3
		c0.6,0,1.1-0.2,1.5-0.6c0.4-0.4,0.6-1,0.6-1.7c0-0.8-0.2-1.4-0.5-1.7c-0.3-0.4-0.9-0.5-1.6-0.5h-2.3V352.5z M482.1,354v5.1h2.4
		c0.7,0,1.2-0.2,1.6-0.7c0.4-0.4,0.6-1.1,0.6-1.9c0-1.7-0.7-2.6-2.2-2.6H482.1z"/>
	<path class="st2" d="M495.5,354.9H493v5.8h-1.8v-14.2h4c1.4,0,2.4,0.4,3.2,1.1c0.7,0.7,1.1,1.8,1.1,3.2c0,0.9-0.2,1.6-0.6,2.3
		c-0.4,0.7-0.9,1.1-1.6,1.5l2.8,6v0.1H498L495.5,354.9z M493,353.4h2.2c0.7,0,1.3-0.2,1.8-0.7c0.4-0.5,0.7-1.1,0.7-1.9
		c0-1.8-0.8-2.7-2.5-2.7H493V353.4z"/>
	<path class="st2" d="M511.1,354.8c0,1.9-0.4,3.4-1.2,4.5c-0.8,1-2,1.6-3.5,1.6c-1.5,0-2.6-0.5-3.5-1.5s-1.3-2.5-1.3-4.3v-2.7
		c0-1.9,0.4-3.4,1.3-4.5s2-1.6,3.5-1.6c1.5,0,2.7,0.5,3.5,1.5c0.8,1,1.3,2.5,1.3,4.4V354.8z M509.3,352.3c0-1.5-0.2-2.6-0.7-3.4
		c-0.5-0.7-1.2-1.1-2.3-1.1c-1,0-1.7,0.4-2.2,1.1c-0.5,0.7-0.8,1.8-0.8,3.3v2.5c0,1.5,0.3,2.6,0.8,3.3c0.5,0.8,1.3,1.1,2.3,1.1
		c1,0,1.7-0.4,2.2-1.1c0.5-0.7,0.7-1.8,0.8-3.2V352.3z"/>
	<path class="st2" d="M517,354.1l-1.4,1.7v4.9h-1.8v-14.2h1.8v6.9l1.2-1.6l3.8-5.3h2.1l-4.6,6.3l5,8H521L517,354.1z"/>
	<path class="st2" d="M531.5,354.1h-5v5h5.9v1.5h-7.6v-14.2h7.5v1.5h-5.8v4.6h5V354.1z"/>
	<path class="st2" d="M543.9,360.6h-1.8l-5.7-11v11h-1.8v-14.2h1.8l5.7,11v-11h1.8V360.6z"/>
	<path class="st2" d="M560.5,356.1c-0.1,1.5-0.5,2.7-1.3,3.5c-0.8,0.8-1.9,1.2-3.3,1.2c-1.4,0-2.6-0.5-3.4-1.6s-1.3-2.6-1.3-4.4
		v-2.6c0-1.8,0.4-3.3,1.3-4.4c0.9-1.1,2-1.6,3.5-1.6c1.4,0,2.4,0.4,3.2,1.2s1.2,2,1.2,3.5h-1.8c-0.1-1.2-0.3-2-0.7-2.5
		s-1-0.7-1.9-0.7c-1,0-1.7,0.4-2.2,1.1c-0.5,0.8-0.8,1.9-0.8,3.3v2.6c0,1.4,0.2,2.5,0.7,3.3c0.5,0.8,1.2,1.2,2.1,1.2
		c0.9,0,1.6-0.2,2-0.7s0.7-1.3,0.8-2.5H560.5z"/>
	<path class="st2" d="M572.2,354.8c0,1.9-0.4,3.4-1.2,4.5c-0.8,1-2,1.6-3.5,1.6c-1.5,0-2.6-0.5-3.5-1.5s-1.3-2.5-1.3-4.3v-2.7
		c0-1.9,0.4-3.4,1.3-4.5s2-1.6,3.5-1.6c1.5,0,2.7,0.5,3.5,1.5c0.8,1,1.3,2.5,1.3,4.4V354.8z M570.4,352.3c0-1.5-0.2-2.6-0.7-3.4
		c-0.5-0.7-1.2-1.1-2.3-1.1c-1,0-1.7,0.4-2.2,1.1c-0.5,0.7-0.8,1.8-0.8,3.3v2.5c0,1.5,0.3,2.6,0.8,3.3c0.5,0.8,1.3,1.1,2.3,1.1
		c1,0,1.7-0.4,2.2-1.1c0.5-0.7,0.7-1.8,0.8-3.2V352.3z"/>
	<path class="st2" d="M584.3,360.6h-1.8l-5.7-11v11H575v-14.2h1.8l5.7,11v-11h1.8V360.6z"/>
	<path class="st2" d="M595.4,348h-3.7v12.7h-1.8V348h-3.7v-1.5h9.3V348z"/>
	<path class="st2" d="M601.8,354.9h-2.5v5.8h-1.8v-14.2h4c1.4,0,2.4,0.4,3.2,1.1c0.7,0.7,1.1,1.8,1.1,3.2c0,0.9-0.2,1.6-0.6,2.3
		c-0.4,0.7-0.9,1.1-1.6,1.5l2.8,6v0.1h-1.9L601.8,354.9z M599.3,353.4h2.2c0.7,0,1.3-0.2,1.8-0.7c0.4-0.5,0.7-1.1,0.7-1.9
		c0-1.8-0.8-2.7-2.5-2.7h-2.1V353.4z"/>
	<path class="st2" d="M614.7,356.9h-4.8l-1.1,3.7H607l4.6-14.2h1.5l4.6,14.2h-1.8L614.7,356.9z M610.4,355.4h3.9l-1.9-6.5
		L610.4,355.4z"/>
	<path class="st2" d="M628.4,356.1c-0.1,1.5-0.5,2.7-1.3,3.5c-0.8,0.8-1.9,1.2-3.3,1.2c-1.4,0-2.6-0.5-3.4-1.6s-1.3-2.6-1.3-4.4
		v-2.6c0-1.8,0.4-3.3,1.3-4.4c0.9-1.1,2-1.6,3.5-1.6c1.4,0,2.4,0.4,3.2,1.2s1.2,2,1.2,3.5h-1.8c-0.1-1.2-0.3-2-0.7-2.5
		s-1-0.7-1.9-0.7c-1,0-1.7,0.4-2.2,1.1c-0.5,0.8-0.8,1.9-0.8,3.3v2.6c0,1.4,0.2,2.5,0.7,3.3c0.5,0.8,1.2,1.2,2.1,1.2
		c0.9,0,1.6-0.2,2-0.7s0.7-1.3,0.8-2.5H628.4z"/>
	<path class="st2" d="M638.9,348h-3.7v12.7h-1.8V348h-3.7v-1.5h9.3V348z"/>
	<path class="st2" d="M647,357c0-0.7-0.2-1.3-0.6-1.6c-0.4-0.4-1.1-0.7-2.1-1.1c-1-0.4-1.8-0.7-2.3-1.1c-0.5-0.4-0.9-0.8-1.2-1.3
		s-0.4-1.1-0.4-1.7c0-1.1,0.4-2.1,1.1-2.8s1.7-1.1,3-1.1c0.8,0,1.6,0.2,2.2,0.6c0.7,0.4,1.2,0.9,1.5,1.6s0.5,1.4,0.5,2.2H647
		c0-0.9-0.2-1.6-0.6-2c-0.4-0.5-1-0.7-1.8-0.7c-0.7,0-1.3,0.2-1.7,0.6c-0.4,0.4-0.6,1-0.6,1.7c0,0.6,0.2,1.1,0.6,1.5s1.1,0.8,2,1.1
		c1.4,0.5,2.4,1,3,1.7c0.6,0.7,0.9,1.6,0.9,2.7c0,1.2-0.4,2.1-1.1,2.8c-0.7,0.7-1.8,1-3.1,1c-0.8,0-1.6-0.2-2.3-0.5
		c-0.7-0.4-1.3-0.9-1.7-1.5s-0.6-1.4-0.6-2.3h1.8c0,0.9,0.2,1.6,0.7,2.1c0.5,0.5,1.2,0.7,2,0.7c0.8,0,1.4-0.2,1.8-0.6
		C646.8,358.3,647,357.7,647,357z"/>
</g>
<g class="st4">
	<path class="st2" d="M510.3,154.6v-14.2h4.1c1.3,0,2.3,0.3,2.9,0.9s1,1.6,1,2.8c0,0.7-0.2,1.3-0.5,1.8s-0.8,0.9-1.3,1.2
		c0.7,0.2,1.2,0.6,1.5,1.2s0.6,1.3,0.6,2.2c0,1.3-0.3,2.3-1,3c-0.7,0.7-1.7,1.1-3,1.1H510.3z M512.1,146.5h2.3
		c0.6,0,1.1-0.2,1.5-0.6c0.4-0.4,0.6-1,0.6-1.7c0-0.8-0.2-1.4-0.5-1.7c-0.3-0.4-0.9-0.5-1.6-0.5h-2.3V146.5z M512.1,148v5.1h2.4
		c0.7,0,1.2-0.2,1.6-0.7c0.4-0.4,0.6-1.1,0.6-1.9c0-1.7-0.7-2.6-2.2-2.6H512.1z"/>
	<path class="st2" d="M528,148.1h-5v5h5.9v1.5h-7.6v-14.2h7.5v1.5H523v4.6h5V148.1z"/>
	<path class="st2" d="M539.6,142h-3.7v12.7h-1.8V142h-3.7v-1.5h9.3V142z"/>
	<path class="st2" d="M550.2,142h-3.7v12.7h-1.8V142h-3.7v-1.5h9.3V142z"/>
	<path class="st2" d="M554.2,154.6h-1.8v-14.2h1.8V154.6z"/>
	<path class="st2" d="M566.6,154.6h-1.8l-5.7-11v11h-1.8v-14.2h1.8l5.7,11v-11h1.8V154.6z"/>
	<path class="st2" d="M578.6,152.9l-0.3,0.4c-0.9,1-2.2,1.6-3.9,1.6c-1.5,0-2.7-0.5-3.6-1.5c-0.9-1-1.3-2.5-1.3-4.3v-2.8
		c0-2,0.4-3.5,1.2-4.5c0.8-1,2-1.5,3.6-1.5c1.4,0,2.4,0.4,3.2,1.1c0.8,0.8,1.2,1.8,1.3,3.2h-1.8c-0.1-0.9-0.3-1.6-0.7-2.1
		s-1.1-0.7-1.9-0.7c-1,0-1.8,0.3-2.2,1c-0.5,0.7-0.7,1.7-0.7,3.2v2.9c0,1.4,0.3,2.5,0.8,3.3s1.3,1.1,2.4,1.1c1,0,1.7-0.2,2.2-0.7
		l0.3-0.2v-3.3h-2.6v-1.5h4.4V152.9z"/>
	<path class="st2" d="M595,150.1c-0.1,1.5-0.5,2.7-1.3,3.5c-0.8,0.8-1.9,1.2-3.3,1.2c-1.4,0-2.6-0.5-3.4-1.6s-1.3-2.6-1.3-4.4v-2.6
		c0-1.8,0.4-3.3,1.3-4.4c0.9-1.1,2-1.6,3.5-1.6c1.4,0,2.4,0.4,3.2,1.2s1.2,2,1.2,3.5h-1.8c-0.1-1.2-0.3-2-0.7-2.5s-1-0.7-1.9-0.7
		c-1,0-1.7,0.4-2.2,1.1c-0.5,0.8-0.8,1.9-0.8,3.3v2.6c0,1.4,0.2,2.5,0.7,3.3c0.5,0.8,1.2,1.2,2.1,1.2c0.9,0,1.6-0.2,2-0.7
		s0.7-1.3,0.8-2.5H595z"/>
	<path class="st2" d="M604.1,150.9h-4.8l-1.1,3.7h-1.8l4.6-14.2h1.5l4.6,14.2h-1.8L604.1,150.9z M599.7,149.4h3.9l-1.9-6.5
		L599.7,149.4z"/>
	<path class="st2" d="M610.7,149.1v5.6h-1.8v-14.2h4.5c1.3,0,2.4,0.4,3.1,1.2c0.8,0.8,1.1,1.8,1.1,3.2c0,1.4-0.4,2.4-1.1,3.2
		c-0.7,0.7-1.7,1.1-3,1.1H610.7z M610.7,147.5h2.7c0.8,0,1.4-0.2,1.8-0.7c0.4-0.5,0.6-1.2,0.6-2c0-0.9-0.2-1.5-0.7-2.1
		c-0.4-0.5-1-0.8-1.8-0.8h-2.8V147.5z"/>
	<path class="st2" d="M626.2,151c0-0.7-0.2-1.3-0.6-1.6c-0.4-0.4-1.1-0.7-2.1-1.1c-1-0.4-1.8-0.7-2.3-1.1c-0.5-0.4-0.9-0.8-1.2-1.3
		s-0.4-1.1-0.4-1.7c0-1.1,0.4-2.1,1.1-2.8s1.7-1.1,3-1.1c0.8,0,1.6,0.2,2.2,0.6c0.7,0.4,1.2,0.9,1.5,1.6s0.5,1.4,0.5,2.2h-1.8
		c0-0.9-0.2-1.6-0.6-2c-0.4-0.5-1-0.7-1.8-0.7c-0.7,0-1.3,0.2-1.7,0.6c-0.4,0.4-0.6,1-0.6,1.7c0,0.6,0.2,1.1,0.6,1.5s1.1,0.8,2,1.1
		c1.4,0.5,2.4,1,3,1.7c0.6,0.7,0.9,1.6,0.9,2.7c0,1.2-0.4,2.1-1.1,2.8c-0.7,0.7-1.8,1-3.1,1c-0.8,0-1.6-0.2-2.3-0.5
		c-0.7-0.4-1.3-0.9-1.7-1.5s-0.6-1.4-0.6-2.3h1.8c0,0.9,0.2,1.6,0.7,2.1c0.5,0.5,1.2,0.7,2,0.7c0.8,0,1.4-0.2,1.8-0.6
		C626,152.3,626.2,151.7,626.2,151z"/>
</g>
<g id="wgrlogomodernwiconlight" transform="translate(81.3 14)">
	<path id="Path_1198" class="st5" d="M46.7,54.3h4.4l4.6,9.4h-4.4L46.7,54.3z"/>
	<path id="Path_1199" class="st6" d="M55.7,51.9H60l-4.3,11.9h-4.4L55.7,51.9z"/>
	<path id="Path_1200" class="st7" d="M55.7,51.9H60l5,11.9h-4.4L55.7,51.9z"/>
	<path id="Path_1201" class="st8" d="M65,63.7h-4.4l5.1-14.5H70L65,63.7z"/>
	<path id="Path_1202" class="st2" d="M58.2,76.1c-10.9,0-19.8-8.8-19.8-19.7s8.8-19.8,19.7-19.8c10.9,0,19.8,8.8,19.8,19.7
		C77.9,67.3,69.1,76.1,58.2,76.1z M58.2,40.3c-8.9,0-16.1,7.2-16.1,16.1s7.2,16.1,16.1,16.1s16.1-7.2,16.1-16.1c0,0,0,0,0,0
		C74.3,47.5,67.1,40.3,58.2,40.3z"/>
	<g id="Group_516" transform="translate(57.5 26.833)">
		<path id="Path_1203" class="st2" d="M50.6,21.1l-5,15.6h-4.3l-3.1-7l-3,7h-4.3l-5.1-15.6h5.6l2.4,8.2l3.7-8.1h1.5l3.9,8.2l2.3-8.3
			L50.6,21.1L50.6,21.1z"/>
		<path id="Path_1204" class="st2" d="M68.6,21.1v15.6h-4.2L64,35.6c-1.3,1.1-3,1.6-4.7,1.6c-4.4,0.1-8.1-3.3-8.2-7.7
			c0-0.2,0-0.4,0-0.6c-0.2-4.4,3.2-8.1,7.5-8.3c0.2,0,0.4,0,0.7,0c1.7,0,3.4,0.6,4.8,1.7l0.5-1.2L68.6,21.1z M63.5,28.9
			c0-1.9-1.6-3.5-3.6-3.4s-3.5,1.6-3.4,3.6c0,1.9,1.6,3.4,3.5,3.4c1.9,0.1,3.4-1.4,3.5-3.3C63.5,29.1,63.5,29,63.5,28.9L63.5,28.9z"
			/>
		<path id="Path_1205" class="st2" d="M88.1,21.1V35c0,4.9-3.2,7.9-8.4,7.9c-4.4,0-7.5-2.2-8.2-5.9h5.2c0.6,1.1,1.8,1.7,3,1.6
			c1.6,0.1,3.1-1.1,3.2-2.7c0-0.1,0-0.2,0-0.3v-0.5c-3.7,2.2-8.5,1.1-10.7-2.6s-1.1-8.5,2.6-10.7c1.2-0.7,2.6-1.1,4-1.1
			c1.8,0,3.6,0.6,4.9,1.8l0.7-1.3H88.1z M79.8,31.9c1.9,0,3.5-1.4,3.5-3.3c0-1.9-1.4-3.5-3.3-3.5c-1.9,0-3.5,1.4-3.5,3.3
			c0,0,0,0,0,0.1c-0.1,1.8,1.3,3.3,3.1,3.4C79.6,31.9,79.7,31.9,79.8,31.9z"/>
		<path id="Path_1206" class="st2" d="M107.6,28.8c0,0.5,0,1-0.1,1.4H95.9c0.2,1.6,1.6,2.8,3.2,2.7c1.1,0.1,2.2-0.5,2.8-1.5h5.3
			c-1.5,4.5-6.4,6.9-10.8,5.3c-3.4-1.2-5.7-4.3-5.8-7.9c-0.1-4.5,3.4-8.2,7.9-8.3c0.2,0,0.4,0,0.5,0
			C104.1,20.6,107.6,24.2,107.6,28.8L107.6,28.8z M96,27.2h6.3c-0.4-1.5-1.7-2.5-3.2-2.4C97.6,24.8,96.3,25.8,96,27.2z"/>
		<path id="Path_1207" class="st2" d="M120.2,21.1V26h-2.1c-1.9,0-2.7,0.8-2.7,2.8v7.9H110V21.1h3.6l0.8,1.7
			c1.1-1.2,2.7-1.9,4.3-1.8L120.2,21.1z"/>
		<path id="Path_1208" class="st9" d="M132.4,21.1V26h-2.1c-1.9,0-2.7,0.8-2.7,2.8v7.9h-5.4V21.1h3.6l0.8,1.7
			c1.1-1.2,2.7-1.9,4.3-1.8L132.4,21.1z"/>
	</g>
</g>
<polygon points="366,21 394,46 394,502 366,525 "/>
</svg>
