<?xml version="1.0" encoding="utf-8"?>
<!-- Generator: Adobe Illustrator 24.2.1, SVG Export Plug-In . SVG Version: 6.00 Build 0)  -->
<svg version="1.1" id="Layer_1" xmlns="http://www.w3.org/2000/svg" xmlns:xlink="http://www.w3.org/1999/xlink" x="0px" y="0px"
	 viewBox="0 0 752 542" style="enable-background:new 0 0 752 542;" xml:space="preserve">
<style type="text/css">
	.st0{fill:#393939;}
	.st1{opacity:7.000000e-02;}
	.st2{fill:#FFFFFF;}
	.st3{fill:#292929;}
	.st4{enable-background:new    ;}
	.st5{opacity:0.7;enable-background:new    ;}
	.st6{fill-rule:evenodd;clip-rule:evenodd;fill:#910000;}
	.st7{fill-rule:evenodd;clip-rule:evenodd;fill:#A80000;}
	.st8{fill-rule:evenodd;clip-rule:evenodd;fill:#BF0000;}
	.st9{fill-rule:evenodd;clip-rule:evenodd;fill:#F40000;}
	.st10{fill:#F40000;}
</style>
<g id="Rectangle_367" transform="translate(368 28)">
	<rect x="25.8" y="18.3" class="st0" width="340" height="455.8"/>
</g>
<g id="Rectangle_369" transform="translate(368 106)" class="st1">
	<rect x="25.8" y="17" class="st2" width="340" height="52"/>
</g>
<g id="Rectangle_370" transform="translate(368 236)" class="st1">
	<rect x="26" y="25" class="st2" width="340" height="53"/>
</g>
<g id="Rectangle_375" transform="translate(368 364)" class="st1">
	<rect x="25.8" y="32" class="st2" width="340" height="57"/>
</g>
<rect id="Rectangle_366" x="25.8" y="20.6" class="st3" width="340.2" height="504.4"/>
<g id="Rectangle_368" transform="translate(0 95)" class="st1">
	<rect x="25.8" y="20.6" class="st2" width="340" height="66"/>
</g>
<g id="Rectangle_371" transform="translate(0 233)" class="st1">
	<rect x="25.8" y="20.6" class="st2" width="340" height="66"/>
</g>
<g id="Rectangle_373" transform="translate(0 373)" class="st1">
	<rect x="25.8" y="20.6" class="st2" width="340" height="66"/>
</g>
<g class="st4">
	<path class="st2" d="M462.3,80.1h3.4v15.6h-3.4V80.1z"/>
	<path class="st2" d="M468.4,83.6h3.1v1.6c1-1.3,2.3-1.8,3.8-1.8c3.2,0,4.3,2,4.3,5.3v6.9h-3.2v-6.5c0-1.8-0.5-2.7-2.1-2.7
		s-2.7,1.3-2.7,3.1v6.1h-3.2L468.4,83.6L468.4,83.6z"/>
	<path class="st2" d="M481.6,89.6c0-3.5,2.2-6.2,5.5-6.2c1.4,0,2.8,0.6,3.6,1.6v-5.1h3.2v15.8h-3v-1.4c-0.9,1.2-2.4,1.7-3.8,1.7
		C483.7,95.9,481.6,93.1,481.6,89.6z M490.7,89.6c0-1.9-1.2-3.3-2.9-3.3c-1.7,0-3,1.4-3,3.3s1.2,3.3,3,3.3
		C489.5,92.9,490.7,91.6,490.7,89.6z"/>
	<path class="st2" d="M496.2,90.8v-7.2h3.2v6.7c0,1.7,0.7,2.4,2.2,2.4c1.7,0,2.5-1.4,2.5-3v-6.1h3.2v12h-3V94
		c-0.7,1.2-2.4,1.9-3.7,1.9C497.2,95.9,496.2,93.9,496.2,90.8z"/>
	<path class="st2" d="M509.1,94.2l1.2-2.5c0.8,0.6,1.9,1.3,3.7,1.3c0.7,0,2-0.3,2-1s-1-0.9-2.1-1.2c-2.4-0.6-4.3-1.4-4.3-3.7
		c0-2.4,2.4-3.7,4.7-3.7c2,0,3.2,0.5,4.5,1.2l-1.1,2.4c-1.2-0.6-2.3-0.8-3.3-0.8c-0.7,0-1.4,0.3-1.4,0.8c0,0.7,1,0.9,2.1,1.1
		c2,0.5,4.3,1.4,4.3,3.8c0,3-3,3.9-5.2,3.9C511.4,95.9,509.8,94.9,509.1,94.2z"/>
	<path class="st2" d="M522,91.8v-5.5h-1.8v-2.6h1.8v-2.3l3.2-0.7v3h3.3v2.6h-3.3v5.5c0,1,0.5,1.4,1.1,1.4c0.8,0,1.4-0.4,1.5-0.5
		l0.9,2.4c-0.7,0.5-1.8,0.9-3,0.9C523.3,95.9,522,94.5,522,91.8z"/>
	<path class="st2" d="M530.3,83.6h3.2v2.3c0.3-1,1.6-2.5,4.2-2.5v3.5c-2.8,0-4.2,1.3-4.2,4.1v4.6h-3.2V83.6z"/>
	<path class="st2" d="M540.7,96.2c1.5,0,2-0.5,2.5-1.4l0.3-0.5l-5-10.6h3.3l2.4,5.6c0.4,0.8,0.8,2,0.8,2s0.5-1.4,0.8-2.1l2.2-5.5
		h3.2L545.7,96c-1.3,3-3.6,3.2-5,3.2V96.2z"/>
	<path class="st2" d="M558.6,80.1h2.5v6.5h-2.5V80.1z M563,80.1h2.5v6.5H563V80.1z"/>
	<path class="st2" d="M570.1,80.1h3.4v12.7h9v2.9h-12.4V80.1z"/>
	<path class="st2" d="M584,89.6c0-3.5,2.7-6.2,6.2-6.2c3.3,0,5.8,2.8,5.8,6.2c0,0.6-0.1,1.2-0.1,1.2h-8.7c0.4,1.7,1.8,2.4,3.3,2.4
		c1.2,0,2.4-0.3,3.2-0.9l1.2,2.3c-1.3,0.9-2.9,1.3-4.5,1.3C587,95.9,584,93.6,584,89.6z M593,88.6c-0.2-1.5-1.4-2.5-2.9-2.5
		c-1.4,0-2.6,1-2.9,2.5H593z"/>
	<path class="st2" d="M597.8,89.6c0-3.5,2.1-6.2,5.4-6.2c1.4,0,2.9,0.6,3.7,1.7v-1.5h3.1v12h-3.1v-1.4c-0.8,1.2-2.4,1.7-3.7,1.7
		C599.9,95.9,597.8,93.1,597.8,89.6z M606.8,89.6c0-1.9-1.2-3.3-2.9-3.3s-3,1.4-3,3.3s1.2,3.3,3,3.3
		C605.6,92.9,606.8,91.6,606.8,89.6z"/>
	<path class="st2" d="M612.2,89.6c0-3.5,2.2-6.2,5.5-6.2c1.4,0,2.8,0.6,3.6,1.6v-5.1h3.2v15.8h-3v-1.4c-0.9,1.2-2.4,1.7-3.8,1.7
		C614.3,95.9,612.2,93.1,612.2,89.6z M621.2,89.6c0-1.9-1.2-3.3-2.9-3.3s-3,1.4-3,3.3s1.2,3.3,3,3.3C620,92.9,621.2,91.6,621.2,89.6
		z"/>
	<path class="st2" d="M626.6,89.6c0-3.5,2.7-6.2,6.2-6.2c3.3,0,5.8,2.8,5.8,6.2c0,0.6-0.1,1.2-0.1,1.2h-8.7c0.4,1.7,1.8,2.4,3.3,2.4
		c1.2,0,2.4-0.3,3.2-0.9l1.2,2.3c-1.3,0.9-2.9,1.3-4.5,1.3C629.6,95.9,626.6,93.6,626.6,89.6z M635.6,88.6c-0.2-1.5-1.4-2.5-2.9-2.5
		c-1.4,0-2.6,1-2.9,2.5H635.6z"/>
	<path class="st2" d="M640.7,83.6h3.2v2.3c0.3-1,1.6-2.5,4.2-2.5v3.5c-2.8,0-4.2,1.3-4.2,4.1v4.6h-3.2V83.6z"/>
	<path class="st2" d="M649.2,94.2l1.2-2.5c0.8,0.6,1.9,1.3,3.7,1.3c0.7,0,2-0.3,2-1s-1-0.9-2.1-1.2c-2.4-0.6-4.3-1.4-4.3-3.7
		c0-2.4,2.4-3.7,4.7-3.7c2,0,3.2,0.5,4.5,1.2l-1.1,2.4c-1.2-0.6-2.3-0.8-3.3-0.8c-0.7,0-1.4,0.3-1.4,0.8c0,0.7,1,0.9,2.1,1.1
		c2,0.5,4.3,1.4,4.3,3.8c0,3-3,3.9-5.2,3.9C651.5,95.9,649.9,94.9,649.2,94.2z"/>
	<path class="st2" d="M662.1,80.1h2.5v6.5h-2.5V80.1z M666.6,80.1h2.5v6.5h-2.5V80.1z"/>
</g>
<g class="st5">
	<path class="st2" d="M466.6,218.9h-2.5v5.8h-1.8v-14.2h4c1.4,0,2.4,0.4,3.2,1.1c0.7,0.7,1.1,1.8,1.1,3.2c0,0.9-0.2,1.6-0.6,2.3
		s-0.9,1.1-1.6,1.5l2.8,6v0.1h-1.9L466.6,218.9z M464.1,217.4h2.2c0.7,0,1.3-0.2,1.8-0.7c0.4-0.5,0.7-1.1,0.7-1.9
		c0-1.8-0.8-2.7-2.5-2.7h-2.1v5.3H464.1z"/>
	<path class="st2" d="M479.7,218.1h-5v5h5.9v1.5H473v-14.2h7.5v1.5h-5.8v4.6h5V218.1z"/>
	<path class="st2" d="M491.7,222.9l-0.3,0.4c-0.9,1-2.2,1.6-3.9,1.6c-1.5,0-2.7-0.5-3.6-1.5s-1.3-2.5-1.3-4.3v-2.8
		c0-2,0.4-3.5,1.2-4.5c0.8-1,2-1.5,3.6-1.5c1.4,0,2.4,0.4,3.2,1.1c0.8,0.8,1.2,1.8,1.3,3.2H490c-0.1-0.9-0.3-1.6-0.7-2.1
		s-1.1-0.7-1.9-0.7c-1,0-1.8,0.3-2.2,1c-0.5,0.7-0.7,1.7-0.7,3.2v2.9c0,1.4,0.3,2.5,0.8,3.3s1.3,1.1,2.4,1.1c1,0,1.7-0.2,2.2-0.7
		l0.3-0.2v-3.3h-2.6v-1.5h4.4v5.3H491.7z"/>
	<path class="st2" d="M496.5,224.6h-1.8v-14.2h1.8V224.6z"/>
	<path class="st2" d="M508.9,218.8c0,1.9-0.4,3.4-1.2,4.5c-0.8,1-2,1.6-3.5,1.6s-2.6-0.5-3.5-1.5s-1.3-2.5-1.3-4.3v-2.7
		c0-1.9,0.4-3.4,1.3-4.5s2-1.6,3.5-1.6s2.7,0.5,3.5,1.5s1.3,2.5,1.3,4.4L508.9,218.8L508.9,218.8z M507.1,216.3
		c0-1.5-0.2-2.6-0.7-3.4c-0.5-0.7-1.2-1.1-2.3-1.1c-1,0-1.7,0.4-2.2,1.1c-0.5,0.7-0.8,1.8-0.8,3.3v2.5c0,1.5,0.3,2.6,0.8,3.3
		c0.5,0.8,1.3,1.1,2.3,1.1s1.7-0.4,2.2-1.1c0.5-0.7,0.7-1.8,0.8-3.2L507.1,216.3L507.1,216.3z"/>
	<path class="st2" d="M521,224.6h-1.8l-5.7-11v11h-1.8v-14.2h1.8l5.7,11v-11h1.8V224.6z"/>
	<path class="st2" d="M530.9,220.9h-4.8l-1.1,3.7h-1.8l4.6-14.2h1.5l4.6,14.2H532L530.9,220.9z M526.5,219.4h3.9l-1.9-6.5
		L526.5,219.4z"/>
	<path class="st2" d="M537.5,223.1h5.6v1.5h-7.4v-14.2h1.8L537.5,223.1L537.5,223.1z"/>
	<path class="st2" d="M554.1,218.9h-2.5v5.8h-1.8v-14.2h4c1.4,0,2.4,0.4,3.2,1.1c0.7,0.7,1.1,1.8,1.1,3.2c0,0.9-0.2,1.6-0.6,2.3
		c-0.4,0.7-0.9,1.1-1.6,1.5l2.8,6v0.1h-1.9L554.1,218.9z M551.6,217.4h2.2c0.7,0,1.3-0.2,1.8-0.7c0.4-0.5,0.7-1.1,0.7-1.9
		c0-1.8-0.8-2.7-2.5-2.7h-2.1v5.3H551.6z"/>
	<path class="st2" d="M567.3,218.1h-5v5h5.9v1.5h-7.6v-14.2h7.5v1.5h-5.8v4.6h5L567.3,218.1L567.3,218.1z"/>
	<path class="st2" d="M576.6,221c0-0.7-0.2-1.3-0.6-1.6c-0.4-0.4-1.1-0.7-2.1-1.1c-1-0.4-1.8-0.7-2.3-1.1c-0.5-0.4-0.9-0.8-1.2-1.3
		s-0.4-1.1-0.4-1.7c0-1.1,0.4-2.1,1.1-2.8s1.7-1.1,3-1.1c0.8,0,1.6,0.2,2.2,0.6c0.7,0.4,1.2,0.9,1.5,1.6s0.5,1.4,0.5,2.2h-1.8
		c0-0.9-0.2-1.6-0.6-2c-0.4-0.5-1-0.7-1.8-0.7c-0.7,0-1.3,0.2-1.7,0.6c-0.4,0.4-0.6,1-0.6,1.7c0,0.6,0.2,1.1,0.6,1.5s1.1,0.8,2,1.1
		c1.4,0.5,2.4,1,3,1.7s0.9,1.6,0.9,2.7c0,1.2-0.4,2.1-1.1,2.8c-0.7,0.7-1.8,1-3.1,1c-0.8,0-1.6-0.2-2.3-0.5
		c-0.7-0.4-1.3-0.9-1.7-1.5s-0.6-1.4-0.6-2.3h1.8c0,0.9,0.2,1.6,0.7,2.1s1.2,0.7,2,0.7s1.4-0.2,1.8-0.6
		C576.4,222.3,576.6,221.7,576.6,221z"/>
	<path class="st2" d="M589.1,212h-3.7v12.7h-1.8V212h-3.7v-1.5h9.3L589.1,212L589.1,212z"/>
	<path class="st2" d="M595.4,218.9h-2.5v5.8h-1.8v-14.2h4c1.4,0,2.4,0.4,3.2,1.1c0.7,0.7,1.1,1.8,1.1,3.2c0,0.9-0.2,1.6-0.6,2.3
		c-0.4,0.7-0.9,1.1-1.6,1.5l2.8,6v0.1h-2L595.4,218.9z M592.9,217.4h2.2c0.7,0,1.3-0.2,1.8-0.7c0.4-0.5,0.7-1.1,0.7-1.9
		c0-1.8-0.8-2.7-2.5-2.7H593v5.3H592.9z"/>
	<path class="st2" d="M603.6,224.6h-1.8v-14.2h1.8V224.6z"/>
	<path class="st2" d="M615.7,220.1c-0.1,1.5-0.5,2.7-1.3,3.5s-1.9,1.2-3.3,1.2c-1.4,0-2.6-0.5-3.4-1.6s-1.3-2.6-1.3-4.4v-2.6
		c0-1.8,0.4-3.3,1.3-4.4c0.9-1.1,2-1.6,3.5-1.6c1.4,0,2.4,0.4,3.2,1.2s1.2,2,1.2,3.5h-1.8c-0.1-1.2-0.3-2-0.7-2.5s-1-0.7-1.9-0.7
		c-1,0-1.7,0.4-2.2,1.1c-0.5,0.8-0.8,1.9-0.8,3.3v2.6c0,1.4,0.2,2.5,0.7,3.3s1.2,1.2,2.1,1.2c0.9,0,1.6-0.2,2-0.7s0.7-1.3,0.8-2.5
		L615.7,220.1L615.7,220.1z"/>
	<path class="st2" d="M626.1,212h-3.7v12.7h-1.8V212h-3.7v-1.5h9.3L626.1,212L626.1,212z"/>
	<path class="st2" d="M630.1,224.6h-1.8v-14.2h1.8V224.6z"/>
	<path class="st2" d="M642.5,218.8c0,1.9-0.4,3.4-1.2,4.5c-0.8,1-2,1.6-3.5,1.6s-2.6-0.5-3.5-1.5s-1.3-2.5-1.3-4.3v-2.7
		c0-1.9,0.4-3.4,1.3-4.5s2-1.6,3.5-1.6s2.7,0.5,3.5,1.5s1.3,2.5,1.3,4.4L642.5,218.8L642.5,218.8z M640.7,216.3
		c0-1.5-0.2-2.6-0.7-3.4c-0.5-0.7-1.2-1.1-2.3-1.1c-1,0-1.7,0.4-2.2,1.1c-0.5,0.7-0.8,1.8-0.8,3.3v2.5c0,1.5,0.3,2.6,0.8,3.3
		c0.5,0.8,1.3,1.1,2.3,1.1s1.7-0.4,2.2-1.1c0.5-0.7,0.7-1.8,0.8-3.2L640.7,216.3L640.7,216.3z"/>
	<path class="st2" d="M654.5,224.6h-1.8l-5.7-11v11h-1.8v-14.2h1.8l5.7,11v-11h1.8V224.6z"/>
	<path class="st2" d="M663.8,221c0-0.7-0.2-1.3-0.6-1.6c-0.4-0.4-1.1-0.7-2.1-1.1c-1-0.4-1.8-0.7-2.3-1.1c-0.5-0.4-0.9-0.8-1.2-1.3
		s-0.4-1.1-0.4-1.7c0-1.1,0.4-2.1,1.1-2.8s1.7-1.1,3-1.1c0.8,0,1.6,0.2,2.2,0.6c0.7,0.4,1.2,0.9,1.5,1.6s0.5,1.4,0.5,2.2h-1.8
		c0-0.9-0.2-1.6-0.6-2c-0.4-0.5-1-0.7-1.8-0.7c-0.7,0-1.3,0.2-1.7,0.6c-0.4,0.4-0.6,1-0.6,1.7c0,0.6,0.2,1.1,0.6,1.5s1.1,0.8,2,1.1
		c1.4,0.5,2.4,1,3,1.7s0.9,1.6,0.9,2.7c0,1.2-0.4,2.1-1.1,2.8c-0.7,0.7-1.8,1-3.1,1c-0.8,0-1.6-0.2-2.3-0.5
		c-0.7-0.4-1.3-0.9-1.7-1.5s-0.6-1.4-0.6-2.3h1.8c0,0.9,0.2,1.6,0.7,2.1s1.2,0.7,2,0.7s1.4-0.2,1.8-0.6
		C663.6,222.3,663.8,221.7,663.8,221z"/>
</g>
<g class="st5">
	<path class="st2" d="M514.9,424.4h-4.8v6.3h-1.8v-14.2h7.4v1.5h-5.6v4.9h4.8L514.9,424.4L514.9,424.4z"/>
	<path class="st2" d="M522.2,424.9h-2.5v5.8h-1.8v-14.2h4c1.4,0,2.4,0.4,3.2,1.1c0.7,0.7,1.1,1.8,1.1,3.2c0,0.9-0.2,1.6-0.6,2.3
		c-0.4,0.7-0.9,1.1-1.6,1.5l2.8,6v0.1h-1.9L522.2,424.9z M519.7,423.4h2.2c0.7,0,1.3-0.2,1.8-0.7c0.4-0.5,0.7-1.1,0.7-1.9
		c0-1.8-0.8-2.7-2.5-2.7h-2.1v5.3H519.7z"/>
	<path class="st2" d="M537.8,424.8c0,1.9-0.4,3.4-1.2,4.5c-0.8,1-2,1.6-3.5,1.6s-2.6-0.5-3.5-1.5s-1.3-2.5-1.3-4.3v-2.7
		c0-1.9,0.4-3.4,1.3-4.5s2-1.6,3.5-1.6s2.7,0.5,3.5,1.5s1.3,2.5,1.3,4.4L537.8,424.8L537.8,424.8z M536,422.3c0-1.5-0.2-2.6-0.7-3.4
		c-0.5-0.7-1.2-1.1-2.3-1.1c-1,0-1.7,0.4-2.2,1.1s-0.8,1.8-0.8,3.3v2.5c0,1.5,0.3,2.6,0.8,3.3c0.5,0.8,1.3,1.1,2.3,1.1
		s1.7-0.4,2.2-1.1s0.7-1.8,0.8-3.2L536,422.3L536,422.3z"/>
	<path class="st2" d="M541.6,429.1h6.7v1.5h-8.7v-1.4l6.5-11.3h-6.4v-1.5h8.4v1.4L541.6,429.1z"/>
	<path class="st2" d="M557.6,424.1h-5v5h5.9v1.5h-7.6v-14.2h7.5v1.5h-5.8v4.6h5L557.6,424.1L557.6,424.1z"/>
	<path class="st2" d="M570,430.6h-1.8l-5.7-11v11h-1.8v-14.2h1.8l5.7,11v-11h1.8V430.6z"/>
	<path class="st2" d="M584.2,424.4h-4.8v6.3h-1.8v-14.2h7.4v1.5h-5.6v4.9h4.8L584.2,424.4L584.2,424.4z"/>
	<path class="st2" d="M595.7,416.4v10.1c0,1.3-0.4,2.4-1.2,3.2c-0.8,0.8-1.8,1.1-3.2,1.1s-2.5-0.4-3.2-1.1s-1.1-1.8-1.1-3.2v-10.1
		h1.8v10c0,1,0.2,1.7,0.6,2.1c0.4,0.5,1.1,0.7,2,0.7s1.6-0.2,2-0.7s0.6-1.2,0.6-2.1v-10H595.7z"/>
	<path class="st2" d="M607.8,430.6H606l-5.7-11v11h-1.8v-14.2h1.8l5.7,11v-11h1.8V430.6z"/>
	<path class="st2" d="M610.9,430.6v-14.2h3.4c1.7,0,2.9,0.5,3.9,1.6s1.4,2.5,1.4,4.4v2.4c0,1.9-0.5,3.3-1.4,4.4
		c-0.9,1-2.3,1.5-4.1,1.5L610.9,430.6L610.9,430.6z M612.7,418v11.2h1.4c1.3,0,2.2-0.4,2.8-1.1s0.9-1.8,0.9-3.2v-2.5
		c0-1.5-0.3-2.6-0.9-3.3s-1.4-1.1-2.6-1.1H612.7z"/>
	<path class="st2" d="M628.5,427c0-0.7-0.2-1.3-0.6-1.6c-0.4-0.4-1.1-0.7-2.1-1.1s-1.8-0.7-2.3-1.1s-0.9-0.8-1.2-1.3
		s-0.4-1.1-0.4-1.7c0-1.1,0.4-2.1,1.1-2.8s1.7-1.1,3-1.1c0.8,0,1.6,0.2,2.2,0.6c0.7,0.4,1.2,0.9,1.5,1.6s0.5,1.4,0.5,2.2h-1.8
		c0-0.9-0.2-1.6-0.6-2c-0.4-0.5-1-0.7-1.8-0.7c-0.7,0-1.3,0.2-1.7,0.6s-0.6,1-0.6,1.7c0,0.6,0.2,1.1,0.6,1.5s1.1,0.8,2,1.1
		c1.4,0.5,2.4,1,3,1.7s0.9,1.6,0.9,2.7c0,1.2-0.4,2.1-1.1,2.8c-0.7,0.7-1.8,1-3.1,1c-0.8,0-1.6-0.2-2.3-0.5
		c-0.7-0.4-1.3-0.9-1.7-1.5s-0.6-1.4-0.6-2.3h1.8c0,0.9,0.2,1.6,0.7,2.1s1.2,0.7,2,0.7s1.4-0.2,1.8-0.6
		C628.3,428.3,628.5,427.7,628.5,427z"/>
</g>
<g class="st5">
	<path class="st2" d="M486.2,293.6h-1.8v-14.2h1.8V293.6z"/>
	<path class="st2" d="M489.3,293.6v-14.2h3.4c1.7,0,2.9,0.5,3.9,1.6s1.4,2.5,1.4,4.4v2.4c0,1.9-0.5,3.3-1.4,4.4
		c-0.9,1-2.3,1.5-4.1,1.5L489.3,293.6L489.3,293.6z M491.1,281v11.2h1.4c1.3,0,2.2-0.4,2.8-1.1c0.6-0.7,0.9-1.8,0.9-3.2v-2.5
		c0-1.5-0.3-2.6-0.9-3.3s-1.4-1.1-2.6-1.1H491.1z"/>
	<path class="st2" d="M507.5,287.1h-5v5h5.9v1.5h-7.6v-14.2h7.5v1.5h-5.8v4.6h5V287.1z"/>
	<path class="st2" d="M519.9,293.6h-1.8l-5.7-11v11h-1.8v-14.2h1.8l5.7,11v-11h1.8V293.6z"/>
	<path class="st2" d="M531.1,281h-3.7v12.7h-1.8V281h-3.7v-1.5h9.3L531.1,281L531.1,281z"/>
	<path class="st2" d="M535,293.6h-1.8v-14.2h1.8V293.6z"/>
	<path class="st2" d="M546.2,281h-3.7v12.7h-1.8V281H537v-1.5h9.3L546.2,281L546.2,281z"/>
	<path class="st2" d="M552.1,286.6l2.9-7.1h2l-4,8.9v5.3h-1.8v-5.3l-4-8.9h2L552.1,286.6z"/>
	<path class="st2" d="M570.3,287.1h-5v5h5.9v1.5h-7.6v-14.2h7.5v1.5h-5.8v4.6h5L570.3,287.1L570.3,287.1z"/>
	<path class="st2" d="M577.4,284.9l2.7-5.4h2.1l-3.7,7.1l3.8,7.2h-2.1l-2.7-5.5l-2.7,5.5h-2.1l3.8-7.2l-3.7-7.1h2.1L577.4,284.9z"/>
	<path class="st2" d="M586.2,288.1v5.6h-1.8v-14.2h4.5c1.3,0,2.4,0.4,3.1,1.2c0.8,0.8,1.1,1.8,1.1,3.2c0,1.4-0.4,2.4-1.1,3.2
		c-0.7,0.7-1.7,1.1-3,1.1h-2.8V288.1z M586.2,286.5h2.7c0.8,0,1.4-0.2,1.8-0.7c0.4-0.5,0.6-1.2,0.6-2c0-0.9-0.2-1.5-0.7-2.1
		c-0.4-0.5-1-0.8-1.8-0.8H586v5.6H586.2z"/>
	<path class="st2" d="M604.8,287.8c0,1.9-0.4,3.4-1.2,4.5c-0.8,1-2,1.6-3.5,1.6s-2.6-0.5-3.5-1.5s-1.3-2.5-1.3-4.3v-2.7
		c0-1.9,0.4-3.4,1.3-4.5s2-1.6,3.5-1.6s2.7,0.5,3.5,1.5s1.3,2.5,1.3,4.4L604.8,287.8L604.8,287.8z M603,285.3c0-1.5-0.2-2.6-0.7-3.4
		c-0.5-0.7-1.2-1.1-2.3-1.1c-1,0-1.7,0.4-2.2,1.1s-0.8,1.8-0.8,3.3v2.5c0,1.5,0.3,2.6,0.8,3.3c0.5,0.8,1.3,1.1,2.3,1.1
		s1.7-0.4,2.2-1.1s0.7-1.8,0.8-3.2L603,285.3L603,285.3z"/>
	<path class="st2" d="M613.8,290c0-0.7-0.2-1.3-0.6-1.6c-0.4-0.4-1.1-0.7-2.1-1.1s-1.8-0.7-2.3-1.1s-0.9-0.8-1.2-1.3
		s-0.4-1.1-0.4-1.7c0-1.1,0.4-2.1,1.1-2.8s1.7-1.1,3-1.1c0.8,0,1.6,0.2,2.2,0.6c0.7,0.4,1.2,0.9,1.5,1.6s0.5,1.4,0.5,2.2h-1.8
		c0-0.9-0.2-1.6-0.6-2c-0.4-0.5-1-0.7-1.8-0.7c-0.7,0-1.3,0.2-1.7,0.6s-0.6,1-0.6,1.7c0,0.6,0.2,1.1,0.6,1.5s1.1,0.8,2,1.1
		c1.4,0.5,2.4,1,3,1.7s0.9,1.6,0.9,2.7c0,1.2-0.4,2.1-1.1,2.8c-0.7,0.7-1.8,1-3.1,1c-0.8,0-1.6-0.2-2.3-0.5
		c-0.7-0.4-1.3-0.9-1.7-1.5s-0.6-1.4-0.6-2.3h1.8c0,0.9,0.2,1.6,0.7,2.1s1.2,0.7,2,0.7s1.4-0.2,1.8-0.6
		C613.6,291.3,613.8,290.7,613.8,290z"/>
	<path class="st2" d="M626.4,279.4v10.1c0,1.3-0.4,2.4-1.2,3.2c-0.8,0.8-1.8,1.1-3.2,1.1s-2.5-0.4-3.2-1.1s-1.1-1.8-1.1-3.2v-10.1
		h1.8v10c0,1,0.2,1.7,0.6,2.1c0.4,0.5,1.1,0.7,2,0.7s1.6-0.2,2-0.7s0.6-1.2,0.6-2.1v-10H626.4z"/>
	<path class="st2" d="M633.4,287.9h-2.5v5.8h-1.8v-14.2h4c1.4,0,2.4,0.4,3.2,1.1c0.7,0.7,1.1,1.8,1.1,3.2c0,0.9-0.2,1.6-0.6,2.3
		c-0.4,0.7-0.9,1.1-1.6,1.5l2.8,6v0.1h-2L633.4,287.9z M630.9,286.4h2.2c0.7,0,1.3-0.2,1.8-0.7c0.4-0.5,0.7-1.1,0.7-1.9
		c0-1.8-0.8-2.7-2.5-2.7H631v5.3H630.9z"/>
	<path class="st2" d="M646.6,287.1h-5v5h5.9v1.5h-7.6v-14.2h7.5v1.5h-5.8v4.6h5L646.6,287.1L646.6,287.1z"/>
</g>
<g class="st5">
	<path class="st2" d="M480.3,360.6v-14.2h4.1c1.3,0,2.3,0.3,2.9,0.9s1,1.6,1,2.8c0,0.7-0.2,1.3-0.5,1.8s-0.8,0.9-1.3,1.2
		c0.7,0.2,1.2,0.6,1.5,1.2s0.6,1.3,0.6,2.2c0,1.3-0.3,2.3-1,3s-1.7,1.1-3,1.1H480.3z M482.1,352.5h2.3c0.6,0,1.1-0.2,1.5-0.6
		s0.6-1,0.6-1.7c0-0.8-0.2-1.4-0.5-1.7c-0.3-0.4-0.9-0.5-1.6-0.5h-2.3V352.5z M482.1,354v5.1h2.4c0.7,0,1.2-0.2,1.6-0.7
		c0.4-0.4,0.6-1.1,0.6-1.9c0-1.7-0.7-2.6-2.2-2.6h-2.4V354z"/>
	<path class="st2" d="M495.5,354.9H493v5.8h-1.8v-14.2h4c1.4,0,2.4,0.4,3.2,1.1c0.7,0.7,1.1,1.8,1.1,3.2c0,0.9-0.2,1.6-0.6,2.3
		c-0.4,0.7-0.9,1.1-1.6,1.5l2.8,6v0.1H498L495.5,354.9z M493,353.4h2.2c0.7,0,1.3-0.2,1.8-0.7c0.4-0.5,0.7-1.1,0.7-1.9
		c0-1.8-0.8-2.7-2.5-2.7H493V353.4z"/>
	<path class="st2" d="M511.1,354.8c0,1.9-0.4,3.4-1.2,4.5c-0.8,1-2,1.6-3.5,1.6s-2.6-0.5-3.5-1.5s-1.3-2.5-1.3-4.3v-2.7
		c0-1.9,0.4-3.4,1.3-4.5s2-1.6,3.5-1.6s2.7,0.5,3.5,1.5s1.3,2.5,1.3,4.4L511.1,354.8L511.1,354.8z M509.3,352.3
		c0-1.5-0.2-2.6-0.7-3.4c-0.5-0.7-1.2-1.1-2.3-1.1c-1,0-1.7,0.4-2.2,1.1s-0.8,1.8-0.8,3.3v2.5c0,1.5,0.3,2.6,0.8,3.3
		c0.5,0.8,1.3,1.1,2.3,1.1s1.7-0.4,2.2-1.1s0.7-1.8,0.8-3.2L509.3,352.3L509.3,352.3z"/>
	<path class="st2" d="M517,354.1l-1.4,1.7v4.9h-1.8v-14.2h1.8v6.9l1.2-1.6l3.8-5.3h2.1l-4.6,6.3l5,8H521L517,354.1z"/>
	<path class="st2" d="M531.5,354.1h-5v5h5.9v1.5h-7.6v-14.2h7.5v1.5h-5.8v4.6h5L531.5,354.1L531.5,354.1z"/>
	<path class="st2" d="M543.9,360.6h-1.8l-5.7-11v11h-1.8v-14.2h1.8l5.7,11v-11h1.8V360.6z"/>
	<path class="st2" d="M560.5,356.1c-0.1,1.5-0.5,2.7-1.3,3.5s-1.9,1.2-3.3,1.2c-1.4,0-2.6-0.5-3.4-1.6s-1.3-2.6-1.3-4.4v-2.6
		c0-1.8,0.4-3.3,1.3-4.4c0.9-1.1,2-1.6,3.5-1.6c1.4,0,2.4,0.4,3.2,1.2s1.2,2,1.2,3.5h-1.8c-0.1-1.2-0.3-2-0.7-2.5s-1-0.7-1.9-0.7
		c-1,0-1.7,0.4-2.2,1.1c-0.5,0.8-0.8,1.9-0.8,3.3v2.6c0,1.4,0.2,2.5,0.7,3.3s1.2,1.2,2.1,1.2c0.9,0,1.6-0.2,2-0.7s0.7-1.3,0.8-2.5
		h1.9V356.1z"/>
	<path class="st2" d="M572.2,354.8c0,1.9-0.4,3.4-1.2,4.5c-0.8,1-2,1.6-3.5,1.6s-2.6-0.5-3.5-1.5s-1.3-2.5-1.3-4.3v-2.7
		c0-1.9,0.4-3.4,1.3-4.5s2-1.6,3.5-1.6s2.7,0.5,3.5,1.5s1.3,2.5,1.3,4.4L572.2,354.8L572.2,354.8z M570.4,352.3
		c0-1.5-0.2-2.6-0.7-3.4c-0.5-0.7-1.2-1.1-2.3-1.1c-1,0-1.7,0.4-2.2,1.1s-0.8,1.8-0.8,3.3v2.5c0,1.5,0.3,2.6,0.8,3.3
		c0.5,0.8,1.3,1.1,2.3,1.1s1.7-0.4,2.2-1.1s0.7-1.8,0.8-3.2L570.4,352.3L570.4,352.3z"/>
	<path class="st2" d="M584.3,360.6h-1.8l-5.7-11v11H575v-14.2h1.8l5.7,11v-11h1.8V360.6z"/>
	<path class="st2" d="M595.4,348h-3.7v12.7h-1.8V348h-3.7v-1.5h9.3L595.4,348L595.4,348z"/>
	<path class="st2" d="M601.8,354.9h-2.5v5.8h-1.8v-14.2h4c1.4,0,2.4,0.4,3.2,1.1c0.7,0.7,1.1,1.8,1.1,3.2c0,0.9-0.2,1.6-0.6,2.3
		c-0.4,0.7-0.9,1.1-1.6,1.5l2.8,6v0.1h-1.9L601.8,354.9z M599.3,353.4h2.2c0.7,0,1.3-0.2,1.8-0.7c0.4-0.5,0.7-1.1,0.7-1.9
		c0-1.8-0.8-2.7-2.5-2.7h-2.1v5.3H599.3z"/>
	<path class="st2" d="M614.7,356.9h-4.8l-1.1,3.7H607l4.6-14.2h1.5l4.6,14.2h-1.8L614.7,356.9z M610.4,355.4h3.9l-1.9-6.5
		L610.4,355.4z"/>
	<path class="st2" d="M628.4,356.1c-0.1,1.5-0.5,2.7-1.3,3.5s-1.9,1.2-3.3,1.2c-1.4,0-2.6-0.5-3.4-1.6s-1.3-2.6-1.3-4.4v-2.6
		c0-1.8,0.4-3.3,1.3-4.4c0.9-1.1,2-1.6,3.5-1.6c1.4,0,2.4,0.4,3.2,1.2s1.2,2,1.2,3.5h-1.8c-0.1-1.2-0.3-2-0.7-2.5s-1-0.7-1.9-0.7
		c-1,0-1.7,0.4-2.2,1.1c-0.5,0.8-0.8,1.9-0.8,3.3v2.6c0,1.4,0.2,2.5,0.7,3.3s1.2,1.2,2.1,1.2c0.9,0,1.6-0.2,2-0.7s0.7-1.3,0.8-2.5
		h1.9V356.1z"/>
	<path class="st2" d="M638.9,348h-3.7v12.7h-1.8V348h-3.7v-1.5h9.3L638.9,348L638.9,348z"/>
	<path class="st2" d="M647,357c0-0.7-0.2-1.3-0.6-1.6c-0.4-0.4-1.1-0.7-2.1-1.1s-1.8-0.7-2.3-1.1s-0.9-0.8-1.2-1.3s-0.4-1.1-0.4-1.7
		c0-1.1,0.4-2.1,1.1-2.8s1.7-1.1,3-1.1c0.8,0,1.6,0.2,2.2,0.6c0.7,0.4,1.2,0.9,1.5,1.6s0.5,1.4,0.5,2.2H647c0-0.9-0.2-1.6-0.6-2
		c-0.4-0.5-1-0.7-1.8-0.7c-0.7,0-1.3,0.2-1.7,0.6s-0.6,1-0.6,1.7c0,0.6,0.2,1.1,0.6,1.5s1.1,0.8,2,1.1c1.4,0.5,2.4,1,3,1.7
		s0.9,1.6,0.9,2.7c0,1.2-0.4,2.1-1.1,2.8c-0.7,0.7-1.8,1-3.1,1c-0.8,0-1.6-0.2-2.3-0.5c-0.7-0.4-1.3-0.9-1.7-1.5s-0.6-1.4-0.6-2.3
		h1.8c0,0.9,0.2,1.6,0.7,2.1s1.2,0.7,2,0.7s1.4-0.2,1.8-0.6C646.8,358.3,647,357.7,647,357z"/>
</g>
<g class="st5">
	<path class="st2" d="M510.3,154.6v-14.2h4.1c1.3,0,2.3,0.3,2.9,0.9s1,1.6,1,2.8c0,0.7-0.2,1.3-0.5,1.8s-0.8,0.9-1.3,1.2
		c0.7,0.2,1.2,0.6,1.5,1.2s0.6,1.3,0.6,2.2c0,1.3-0.3,2.3-1,3s-1.7,1.1-3,1.1H510.3z M512.1,146.5h2.3c0.6,0,1.1-0.2,1.5-0.6
		c0.4-0.4,0.6-1,0.6-1.7c0-0.8-0.2-1.4-0.5-1.7c-0.3-0.4-0.9-0.5-1.6-0.5h-2.3V146.5z M512.1,148v5.1h2.4c0.7,0,1.2-0.2,1.6-0.7
		c0.4-0.4,0.6-1.1,0.6-1.9c0-1.7-0.7-2.6-2.2-2.6L512.1,148L512.1,148z"/>
	<path class="st2" d="M528,148.1h-5v5h5.9v1.5h-7.6v-14.2h7.5v1.5H523v4.6h5V148.1z"/>
	<path class="st2" d="M539.6,142h-3.7v12.7h-1.8V142h-3.7v-1.5h9.3L539.6,142L539.6,142z"/>
	<path class="st2" d="M550.2,142h-3.7v12.7h-1.8V142H541v-1.5h9.3L550.2,142L550.2,142z"/>
	<path class="st2" d="M554.2,154.6h-1.8v-14.2h1.8V154.6z"/>
	<path class="st2" d="M566.6,154.6h-1.8l-5.7-11v11h-1.8v-14.2h1.8l5.7,11v-11h1.8V154.6z"/>
	<path class="st2" d="M578.6,152.9l-0.3,0.4c-0.9,1-2.2,1.6-3.9,1.6c-1.5,0-2.7-0.5-3.6-1.5c-0.9-1-1.3-2.5-1.3-4.3v-2.8
		c0-2,0.4-3.5,1.2-4.5s2-1.5,3.6-1.5c1.4,0,2.4,0.4,3.2,1.1c0.8,0.8,1.2,1.8,1.3,3.2H577c-0.1-0.9-0.3-1.6-0.7-2.1s-1.1-0.7-1.9-0.7
		c-1,0-1.8,0.3-2.2,1c-0.5,0.7-0.7,1.7-0.7,3.2v2.9c0,1.4,0.3,2.5,0.8,3.3s1.3,1.1,2.4,1.1c1,0,1.7-0.2,2.2-0.7l0.3-0.2v-3.3h-2.6
		v-1.5h4.4v5.3H578.6z"/>
	<path class="st2" d="M595,150.1c-0.1,1.5-0.5,2.7-1.3,3.5s-1.9,1.2-3.3,1.2c-1.4,0-2.6-0.5-3.4-1.6s-1.3-2.6-1.3-4.4v-2.6
		c0-1.8,0.4-3.3,1.3-4.4c0.9-1.1,2-1.6,3.5-1.6c1.4,0,2.4,0.4,3.2,1.2s1.2,2,1.2,3.5h-1.8c-0.1-1.2-0.3-2-0.7-2.5s-1-0.7-1.9-0.7
		c-1,0-1.7,0.4-2.2,1.1c-0.5,0.8-0.8,1.9-0.8,3.3v2.6c0,1.4,0.2,2.5,0.7,3.3s1.2,1.2,2.1,1.2c0.9,0,1.6-0.2,2-0.7s0.7-1.3,0.8-2.5
		L595,150.1L595,150.1z"/>
	<path class="st2" d="M604.1,150.9h-4.8l-1.1,3.7h-1.8l4.6-14.2h1.5l4.6,14.2h-1.8L604.1,150.9z M599.7,149.4h3.9l-1.9-6.5
		L599.7,149.4z"/>
	<path class="st2" d="M610.7,149.1v5.6h-1.8v-14.2h4.5c1.3,0,2.4,0.4,3.1,1.2c0.8,0.8,1.1,1.8,1.1,3.2s-0.4,2.4-1.1,3.2
		c-0.7,0.7-1.7,1.1-3,1.1h-2.8V149.1z M610.7,147.5h2.7c0.8,0,1.4-0.2,1.8-0.7c0.4-0.5,0.6-1.2,0.6-2c0-0.9-0.2-1.5-0.7-2.1
		c-0.4-0.5-1-0.8-1.8-0.8h-2.8v5.6H610.7z"/>
	<path class="st2" d="M626.2,151c0-0.7-0.2-1.3-0.6-1.6c-0.4-0.4-1.1-0.7-2.1-1.1c-1-0.4-1.8-0.7-2.3-1.1c-0.5-0.4-0.9-0.8-1.2-1.3
		s-0.4-1.1-0.4-1.7c0-1.1,0.4-2.1,1.1-2.8s1.7-1.1,3-1.1c0.8,0,1.6,0.2,2.2,0.6c0.7,0.4,1.2,0.9,1.5,1.6s0.5,1.4,0.5,2.2h-1.8
		c0-0.9-0.2-1.6-0.6-2c-0.4-0.5-1-0.7-1.8-0.7c-0.7,0-1.3,0.2-1.7,0.6c-0.4,0.4-0.6,1-0.6,1.7c0,0.6,0.2,1.1,0.6,1.5s1.1,0.8,2,1.1
		c1.4,0.5,2.4,1,3,1.7s0.9,1.6,0.9,2.7c0,1.2-0.4,2.1-1.1,2.8c-0.7,0.7-1.8,1-3.1,1c-0.8,0-1.6-0.2-2.3-0.5
		c-0.7-0.4-1.3-0.9-1.7-1.5s-0.6-1.4-0.6-2.3h1.8c0,0.9,0.2,1.6,0.7,2.1s1.2,0.7,2,0.7s1.4-0.2,1.8-0.6
		C626,152.3,626.2,151.7,626.2,151z"/>
</g>
<g id="wgrlogomodernwiconlight" transform="translate(81.3 14)">
	<path id="Path_1198" class="st6" d="M45.7,54.3h4.4l4.6,9.4h-4.4L45.7,54.3z"/>
	<path id="Path_1199" class="st7" d="M54.7,51.9H59l-4.3,11.9h-4.4L54.7,51.9z"/>
	<path id="Path_1200" class="st8" d="M54.7,51.9H59l5,11.9h-4.4L54.7,51.9z"/>
	<path id="Path_1201" class="st9" d="M64,63.7h-4.4l5.1-14.5H69L64,63.7z"/>
	<path id="Path_1202" class="st2" d="M57.2,76.1c-10.9,0-19.8-8.8-19.8-19.7s8.8-19.8,19.7-19.8s19.8,8.8,19.8,19.7
		C76.9,67.3,68.1,76.1,57.2,76.1z M57.2,40.3c-8.9,0-16.1,7.2-16.1,16.1s7.2,16.1,16.1,16.1s16.1-7.2,16.1-16.1l0,0
		C73.3,47.5,66.1,40.3,57.2,40.3z"/>
	<g id="Group_516" transform="translate(57.5 26.833)">
		<path id="Path_1203" class="st2" d="M49.6,21.1l-5,15.6h-4.3l-3.1-7l-3,7h-4.3l-5.1-15.6h5.6l2.4,8.2l3.7-8.1H38l3.9,8.2l2.3-8.3
			L49.6,21.1L49.6,21.1z"/>
		<path id="Path_1204" class="st2" d="M67.6,21.1v15.6h-4.2L63,35.6c-1.3,1.1-3,1.6-4.7,1.6c-4.4,0.1-8.1-3.3-8.2-7.7
			c0-0.2,0-0.4,0-0.6c-0.2-4.4,3.2-8.1,7.5-8.3c0.2,0,0.4,0,0.7,0c1.7,0,3.4,0.6,4.8,1.7l0.5-1.2L67.6,21.1z M62.5,28.9
			c0-1.9-1.6-3.5-3.6-3.4s-3.5,1.6-3.4,3.6c0,1.9,1.6,3.4,3.5,3.4c1.9,0.1,3.4-1.4,3.5-3.3C62.5,29.1,62.5,29,62.5,28.9L62.5,28.9z"
			/>
		<path id="Path_1205" class="st2" d="M87.1,21.1V35c0,4.9-3.2,7.9-8.4,7.9c-4.4,0-7.5-2.2-8.2-5.9h5.2c0.6,1.1,1.8,1.7,3,1.6
			c1.6,0.1,3.1-1.1,3.2-2.7c0-0.1,0-0.2,0-0.3v-0.5c-3.7,2.2-8.5,1.1-10.7-2.6s-1.1-8.5,2.6-10.7c1.2-0.7,2.6-1.1,4-1.1
			c1.8,0,3.6,0.6,4.9,1.8l0.7-1.3L87.1,21.1L87.1,21.1z M78.8,31.9c1.9,0,3.5-1.4,3.5-3.3s-1.4-3.5-3.3-3.5s-3.5,1.4-3.5,3.3
			c0,0,0,0,0,0.1c-0.1,1.8,1.3,3.3,3.1,3.4C78.6,31.9,78.7,31.9,78.8,31.9z"/>
		<path id="Path_1206" class="st2" d="M106.6,28.8c0,0.5,0,1-0.1,1.4H94.9c0.2,1.6,1.6,2.8,3.2,2.7c1.1,0.1,2.2-0.5,2.8-1.5h5.3
			c-1.5,4.5-6.4,6.9-10.8,5.3c-3.4-1.2-5.7-4.3-5.8-7.9c-0.1-4.5,3.4-8.2,7.9-8.3c0.2,0,0.4,0,0.5,0
			C103.1,20.6,106.6,24.2,106.6,28.8L106.6,28.8z M95,27.2h6.3c-0.4-1.5-1.7-2.5-3.2-2.4C96.6,24.8,95.3,25.8,95,27.2z"/>
		<path id="Path_1207" class="st2" d="M119.2,21.1V26h-2.1c-1.9,0-2.7,0.8-2.7,2.8v7.9H109V21.1h3.6l0.8,1.7
			c1.1-1.2,2.7-1.9,4.3-1.8L119.2,21.1z"/>
		<path id="Path_1208" class="st10" d="M131.4,21.1V26h-2.1c-1.9,0-2.7,0.8-2.7,2.8v7.9h-5.4V21.1h3.6l0.8,1.7
			c1.1-1.2,2.7-1.9,4.3-1.8L131.4,21.1z"/>
	</g>
</g>
<polygon points="366,21 394,46 394,502 366,525 "/>
<g>
	<path class="st2" d="M125.6,155h-3l-4.4-9.8v9.8h-3v-14.9h3l4.4,9.8v-9.8h3V155z"/>
	<path class="st2" d="M138.6,148.9c0,2-0.5,3.6-1.4,4.7c-0.9,1.1-2.3,1.7-3.9,1.7c-1.7,0-3-0.5-3.9-1.6c-1-1.1-1.4-2.6-1.5-4.6v-2.6
		c0-2.1,0.5-3.7,1.4-4.8c1-1.2,2.3-1.7,4-1.7c1.7,0,3,0.6,3.9,1.7s1.4,2.7,1.5,4.8V148.9z M135.5,146.4c0-1.3-0.2-2.3-0.6-3
		s-1-1-1.8-1c-0.8,0-1.4,0.3-1.8,0.9c-0.4,0.6-0.6,1.6-0.6,2.9v2.7c0,1.3,0.2,2.3,0.6,2.9c0.4,0.6,1,0.9,1.8,0.9
		c0.8,0,1.4-0.3,1.8-0.9c0.4-0.6,0.6-1.5,0.6-2.8V146.4z"/>
	<path class="st2" d="M148.6,152.5h5.3v2.5h-8.3v-14.9h3V152.5z"/>
	<path class="st2" d="M158.8,155h-3v-14.9h3V155z"/>
	<path class="st2" d="M165.2,140.1l2.8,10.8l2.8-10.8h3.9V155h-3v-4l0.3-6.2l-3,10.3H167l-3-10.3l0.3,6.2v4h-3v-14.9H165.2z"/>
	<path class="st2" d="M180.4,155h-3v-14.9h3V155z"/>
	<path class="st2" d="M192.3,142.6h-3.7V155h-3v-12.4h-3.6v-2.5h10.3V142.6z"/>
	<path class="st2" d="M198.2,155v-14.9h4.6c1.6,0,2.7,0.3,3.6,1c0.8,0.7,1.2,1.7,1.2,3.1c0,0.8-0.2,1.4-0.5,2s-0.8,0.9-1.4,1.2
		c0.7,0.2,1.2,0.6,1.5,1.2s0.5,1.3,0.5,2.1c0,1.4-0.4,2.5-1.2,3.3s-1.9,1.1-3.5,1.1H198.2z M201.3,146.3h1.6c1.2,0,1.8-0.6,1.8-1.8
		c0-0.7-0.1-1.2-0.4-1.5s-0.7-0.4-1.3-0.4h-1.6V146.3z M201.3,148.5v4h1.9c0.5,0,1-0.2,1.2-0.5s0.4-0.8,0.4-1.4c0-1.3-0.5-2-1.5-2.1
		H201.3z"/>
	<path class="st2" d="M217.7,148.5H213v4h5.6v2.5H210v-14.9h8.6v2.5H213v3.5h4.7V148.5z"/>
	<path class="st2" d="M230.2,142.6h-3.7V155h-3v-12.4h-3.6v-2.5h10.3V142.6z"/>
	<path class="st2" d="M241.8,142.6h-3.7V155h-3v-12.4h-3.6v-2.5h10.3V142.6z"/>
	<path class="st2" d="M246.6,155h-3v-14.9h3V155z"/>
	<path class="st2" d="M259.6,155h-3l-4.4-9.8v9.8h-3v-14.9h3l4.4,9.8v-9.8h3V155z"/>
	<path class="st2" d="M272.2,153.3c-0.6,0.6-1.3,1.1-2.1,1.4c-0.8,0.3-1.8,0.5-2.8,0.5c-1.7,0-3-0.5-4-1.6c-1-1.1-1.4-2.6-1.5-4.6
		v-2.7c0-2.1,0.4-3.6,1.3-4.8c0.9-1.1,2.2-1.7,3.9-1.7c1.6,0,2.8,0.4,3.7,1.2c0.8,0.8,1.3,2.1,1.4,3.8h-2.9c-0.1-1-0.3-1.6-0.6-1.9
		c-0.3-0.3-0.8-0.5-1.5-0.5c-0.8,0-1.4,0.3-1.8,0.9s-0.6,1.5-0.6,2.8v2.7c0,1.4,0.2,2.4,0.6,3c0.4,0.6,1.1,0.9,2,0.9
		c0.6,0,1.1-0.1,1.4-0.4l0.3-0.2v-2.7H267v-2.3h5.1V153.3z"/>
</g>
<g>
	<path class="st2" d="M134.4,223.4c-0.6,0.6-1.3,1.1-2.1,1.4c-0.8,0.3-1.8,0.5-2.8,0.5c-1.7,0-3-0.5-4-1.6c-1-1.1-1.4-2.6-1.5-4.6
		v-2.7c0-2.1,0.4-3.6,1.3-4.8c0.9-1.1,2.2-1.7,3.9-1.7c1.6,0,2.8,0.4,3.7,1.2c0.8,0.8,1.3,2.1,1.4,3.8h-2.9c-0.1-1-0.3-1.6-0.6-1.9
		c-0.3-0.3-0.8-0.5-1.5-0.5c-0.8,0-1.4,0.3-1.8,0.9s-0.6,1.5-0.6,2.8v2.7c0,1.4,0.2,2.4,0.6,3c0.4,0.6,1.1,0.9,2,0.9
		c0.6,0,1.1-0.1,1.4-0.4l0.3-0.2v-2.7h-2.1v-2.3h5.1V223.4z"/>
	<path class="st2" d="M139.5,222.6h5.3v2.5h-8.3v-14.9h3V222.6z"/>
	<path class="st2" d="M156.4,219c0,2-0.5,3.6-1.4,4.7c-0.9,1.1-2.3,1.7-3.9,1.7c-1.7,0-3-0.5-3.9-1.6c-1-1.1-1.4-2.6-1.5-4.6v-2.6
		c0-2.1,0.5-3.7,1.4-4.8c1-1.2,2.3-1.7,4-1.7c1.7,0,3,0.6,3.9,1.7c1,1.1,1.4,2.7,1.5,4.8V219z M153.4,216.5c0-1.3-0.2-2.3-0.6-3
		s-1-1-1.8-1c-0.8,0-1.4,0.3-1.8,0.9c-0.4,0.6-0.6,1.6-0.6,2.9v2.7c0,1.3,0.2,2.3,0.6,2.9c0.4,0.6,1,0.9,1.8,0.9
		c0.8,0,1.4-0.3,1.8-0.9c0.4-0.6,0.6-1.5,0.6-2.8V216.5z"/>
	<path class="st2" d="M158.6,225.1v-14.9h4.6c1.6,0,2.7,0.3,3.6,1c0.8,0.7,1.2,1.7,1.2,3.1c0,0.8-0.2,1.4-0.5,2s-0.8,0.9-1.4,1.2
		c0.7,0.2,1.2,0.6,1.5,1.2c0.4,0.6,0.5,1.3,0.5,2.1c0,1.4-0.4,2.5-1.2,3.3s-1.9,1.1-3.5,1.1H158.6z M161.6,216.5h1.6
		c1.2,0,1.8-0.6,1.8-1.8c0-0.7-0.1-1.2-0.4-1.5s-0.7-0.4-1.3-0.4h-1.6V216.5z M161.6,218.6v4h1.9c0.5,0,1-0.2,1.2-0.5
		s0.4-0.8,0.4-1.4c0-1.3-0.5-2-1.5-2.1H161.6z"/>
	<path class="st2" d="M177.5,222.1h-4.1l-0.8,3.1h-3.2l4.7-14.9h2.8l4.7,14.9h-3.2L177.5,222.1z M174,219.6h2.8l-1.4-5.3L174,219.6z
		"/>
	<path class="st2" d="M185.9,222.6h5.3v2.5h-8.3v-14.9h3V222.6z"/>
	<path class="st2" d="M204.9,222.1h-4.1l-0.8,3.1h-3.2l4.7-14.9h2.8l4.7,14.9h-3.2L204.9,222.1z M201.4,219.6h2.8l-1.4-5.3
		L201.4,219.6z"/>
	<path class="st2" d="M220.2,220.2c-0.1,1.7-0.6,3-1.4,3.9s-2.1,1.3-3.7,1.3c-1.7,0-3-0.6-3.9-1.7c-0.9-1.1-1.3-2.7-1.3-4.8v-2.5
		c0-2.1,0.5-3.6,1.4-4.7c0.9-1.1,2.2-1.7,3.9-1.7c1.6,0,2.9,0.5,3.7,1.4c0.8,0.9,1.3,2.2,1.4,3.9h-3c0-1.1-0.2-1.8-0.5-2.2
		c-0.3-0.4-0.8-0.6-1.6-0.6c-0.8,0-1.4,0.3-1.7,0.8c-0.3,0.6-0.5,1.5-0.5,2.8v2.8c0,1.5,0.2,2.5,0.5,3.1c0.3,0.6,0.9,0.8,1.7,0.8
		c0.8,0,1.3-0.2,1.6-0.6c0.3-0.4,0.5-1.1,0.5-2.1H220.2z"/>
	<path class="st2" d="M232.2,220.2c-0.1,1.7-0.6,3-1.4,3.9s-2.1,1.3-3.7,1.3c-1.7,0-3-0.6-3.9-1.7c-0.9-1.1-1.3-2.7-1.3-4.8v-2.5
		c0-2.1,0.5-3.6,1.4-4.7c0.9-1.1,2.2-1.7,3.9-1.7c1.6,0,2.9,0.5,3.7,1.4c0.8,0.9,1.3,2.2,1.4,3.9h-3c0-1.1-0.2-1.8-0.5-2.2
		c-0.3-0.4-0.8-0.6-1.6-0.6c-0.8,0-1.4,0.3-1.7,0.8c-0.3,0.6-0.5,1.5-0.5,2.8v2.8c0,1.5,0.2,2.5,0.5,3.1c0.3,0.6,0.9,0.8,1.7,0.8
		c0.8,0,1.3-0.2,1.6-0.6c0.3-0.4,0.5-1.1,0.5-2.1H232.2z"/>
	<path class="st2" d="M241.8,218.7h-4.7v4h5.6v2.5H234v-14.9h8.6v2.5h-5.5v3.5h4.7V218.7z"/>
	<path class="st2" d="M250.7,221.2c0-0.6-0.2-1.1-0.5-1.4c-0.3-0.3-0.9-0.6-1.7-1c-1.5-0.6-2.6-1.2-3.2-2c-0.7-0.8-1-1.7-1-2.7
		c0-1.3,0.4-2.3,1.3-3c0.9-0.8,2-1.1,3.4-1.1c0.9,0,1.7,0.2,2.5,0.6c0.7,0.4,1.3,0.9,1.7,1.6s0.6,1.5,0.6,2.4h-3
		c0-0.7-0.1-1.2-0.4-1.6c-0.3-0.4-0.7-0.5-1.3-0.5c-0.5,0-0.9,0.2-1.2,0.5c-0.3,0.3-0.4,0.7-0.4,1.3c0,0.4,0.2,0.8,0.5,1.1
		c0.3,0.3,0.9,0.7,1.7,1c1.5,0.5,2.5,1.2,3.2,1.9c0.7,0.8,1,1.7,1,2.9c0,1.3-0.4,2.3-1.2,3s-2,1.1-3.4,1.1c-1,0-1.8-0.2-2.6-0.6
		s-1.4-1-1.9-1.7c-0.4-0.7-0.7-1.6-0.7-2.6h3c0,0.9,0.2,1.5,0.5,1.9s0.9,0.6,1.6,0.6C250.1,222.9,250.7,222.3,250.7,221.2z"/>
	<path class="st2" d="M262,221.2c0-0.6-0.2-1.1-0.5-1.4c-0.3-0.3-0.9-0.6-1.7-1c-1.5-0.6-2.6-1.2-3.2-2c-0.7-0.8-1-1.7-1-2.7
		c0-1.3,0.4-2.3,1.3-3c0.9-0.8,2-1.1,3.4-1.1c0.9,0,1.7,0.2,2.5,0.6c0.7,0.4,1.3,0.9,1.7,1.6s0.6,1.5,0.6,2.4h-3
		c0-0.7-0.1-1.2-0.4-1.6c-0.3-0.4-0.7-0.5-1.3-0.5c-0.5,0-0.9,0.2-1.2,0.5c-0.3,0.3-0.4,0.7-0.4,1.3c0,0.4,0.2,0.8,0.5,1.1
		c0.3,0.3,0.9,0.7,1.7,1c1.5,0.5,2.5,1.2,3.2,1.9c0.7,0.8,1,1.7,1,2.9c0,1.3-0.4,2.3-1.2,3s-2,1.1-3.4,1.1c-1,0-1.8-0.2-2.6-0.6
		s-1.4-1-1.9-1.7c-0.4-0.7-0.7-1.6-0.7-2.6h3c0,0.9,0.2,1.5,0.5,1.9s0.9,0.6,1.6,0.6C261.5,222.9,262,222.3,262,221.2z"/>
</g>
<g>
	<path class="st2" d="M122.4,288.9v5.3h-3v-14.9h5.1c1.5,0,2.7,0.5,3.5,1.4c0.9,0.9,1.3,2.1,1.3,3.6s-0.4,2.6-1.3,3.5
		s-2.1,1.3-3.6,1.3H122.4z M122.4,286.4h2.1c0.6,0,1-0.2,1.3-0.6s0.5-0.9,0.5-1.6c0-0.7-0.2-1.3-0.5-1.8c-0.3-0.4-0.8-0.7-1.3-0.7
		h-2.1V286.4z"/>
	<path class="st2" d="M135.8,288.7h-1.5v5.5h-3v-14.9h4.8c1.5,0,2.7,0.4,3.5,1.2c0.8,0.8,1.2,1.9,1.2,3.3c0,2-0.7,3.4-2.2,4.2
		l2.6,6.1v0.1h-3.2L135.8,288.7z M134.3,286.2h1.7c0.6,0,1.1-0.2,1.4-0.6c0.3-0.4,0.5-0.9,0.5-1.6c0-1.5-0.6-2.2-1.8-2.2h-1.8V286.2
		z"/>
	<path class="st2" d="M146.1,294.1h-3v-14.9h3V294.1z"/>
	<path class="st2" d="M153.5,290l2.5-10.8h3.4l-4.3,14.9h-3.1l-4.3-14.9h3.3L153.5,290z"/>
	<path class="st2" d="M167.1,291.1H163l-0.8,3.1H159l4.7-14.9h2.8l4.7,14.9h-3.2L167.1,291.1z M163.7,288.6h2.8l-1.4-5.3
		L163.7,288.6z"/>
	<path class="st2" d="M181,281.7h-3.7v12.4h-3v-12.4h-3.6v-2.5H181V281.7z"/>
	<path class="st2" d="M190.4,287.7h-4.7v4h5.6v2.5h-8.6v-14.9h8.6v2.5h-5.5v3.5h4.7V287.7z"/>
	<path class="st2" d="M197.8,294.1v-14.9h4.6c1.6,0,2.7,0.3,3.6,1c0.8,0.7,1.2,1.7,1.2,3.1c0,0.8-0.2,1.4-0.5,2s-0.8,0.9-1.4,1.2
		c0.7,0.2,1.2,0.6,1.5,1.2c0.4,0.6,0.5,1.3,0.5,2.1c0,1.4-0.4,2.5-1.2,3.3c-0.8,0.7-2,1.1-3.5,1.1H197.8z M200.9,285.5h1.6
		c1.2,0,1.8-0.6,1.8-1.8c0-0.7-0.1-1.2-0.4-1.5s-0.7-0.4-1.3-0.4h-1.6V285.5z M200.9,287.6v4h1.9c0.5,0,1-0.2,1.2-0.5
		s0.4-0.8,0.4-1.4c0-1.3-0.5-2-1.5-2.1H200.9z"/>
	<path class="st2" d="M217.3,287.7h-4.7v4h5.6v2.5h-8.6v-14.9h8.6v2.5h-5.5v3.5h4.7V287.7z"/>
	<path class="st2" d="M229.8,281.7h-3.7v12.4h-3v-12.4h-3.6v-2.5h10.3V281.7z"/>
	<path class="st2" d="M241.4,281.7h-3.7v12.4h-3v-12.4H231v-2.5h10.3V281.7z"/>
	<path class="st2" d="M246.2,294.1h-3v-14.9h3V294.1z"/>
	<path class="st2" d="M259.2,294.1h-3l-4.4-9.8v9.8h-3v-14.9h3l4.4,9.8v-9.8h3V294.1z"/>
	<path class="st2" d="M271.8,292.4c-0.6,0.6-1.3,1.1-2.1,1.4c-0.8,0.3-1.8,0.5-2.8,0.5c-1.7,0-3-0.5-4-1.6c-1-1.1-1.4-2.6-1.5-4.6
		v-2.7c0-2.1,0.4-3.6,1.3-4.8c0.9-1.1,2.2-1.7,3.9-1.7c1.6,0,2.8,0.4,3.7,1.2c0.8,0.8,1.3,2.1,1.4,3.8h-2.9c-0.1-1-0.3-1.6-0.6-1.9
		c-0.3-0.3-0.8-0.5-1.5-0.5c-0.8,0-1.4,0.3-1.8,0.9s-0.6,1.5-0.6,2.8v2.7c0,1.4,0.2,2.4,0.6,3c0.4,0.6,1.1,0.9,2,0.9
		c0.6,0,1.1-0.1,1.4-0.4l0.3-0.2v-2.7h-2.1v-2.3h5.1V292.4z"/>
</g>
<g>
	<path class="st2" d="M107.6,359.4c-0.6,0.6-1.3,1.1-2.1,1.4c-0.8,0.3-1.8,0.5-2.8,0.5c-1.7,0-3-0.5-4-1.6c-1-1.1-1.4-2.6-1.5-4.6
		v-2.7c0-2.1,0.4-3.6,1.3-4.8c0.9-1.1,2.2-1.7,3.9-1.7c1.6,0,2.8,0.4,3.7,1.2c0.8,0.8,1.3,2.1,1.4,3.8h-2.9c-0.1-1-0.3-1.6-0.6-1.9
		c-0.3-0.3-0.8-0.5-1.5-0.5c-0.8,0-1.4,0.3-1.8,0.9s-0.6,1.5-0.6,2.8v2.7c0,1.4,0.2,2.4,0.6,3c0.4,0.6,1.1,0.9,2,0.9
		c0.6,0,1.1-0.1,1.4-0.4l0.3-0.2v-2.7h-2.1v-2.3h5.1V359.4z"/>
	<path class="st2" d="M119.5,346.2v10.3c0,1.6-0.4,2.7-1.3,3.6c-0.8,0.8-2,1.2-3.6,1.2c-1.6,0-2.8-0.4-3.7-1.3
		c-0.8-0.8-1.3-2-1.3-3.6v-10.3h3v10.3c0,0.8,0.1,1.5,0.4,1.8s0.8,0.5,1.5,0.5s1.2-0.2,1.5-0.5c0.3-0.4,0.4-0.9,0.4-1.8v-10.3H119.5
		z"/>
	<path class="st2" d="M128.7,358.1h-4.1l-0.8,3.1h-3.2l4.7-14.9h2.8l4.7,14.9h-3.2L128.7,358.1z M125.2,355.6h2.8l-1.4-5.3
		L125.2,355.6z"/>
	<path class="st2" d="M138.6,355.7h-1.5v5.5h-3v-14.9h4.8c1.5,0,2.7,0.4,3.5,1.2c0.8,0.8,1.2,1.9,1.2,3.3c0,2-0.7,3.4-2.2,4.2
		l2.6,6.1v0.1h-3.2L138.6,355.7z M137.1,353.2h1.7c0.6,0,1.1-0.2,1.4-0.6c0.3-0.4,0.5-0.9,0.5-1.6c0-1.5-0.6-2.2-1.8-2.2h-1.8V353.2
		z"/>
	<path class="st2" d="M152.8,358.1h-4.1l-0.8,3.1h-3.2l4.7-14.9h2.8l4.7,14.9h-3.2L152.8,358.1z M149.4,355.6h2.8l-1.4-5.3
		L149.4,355.6z"/>
	<path class="st2" d="M168.7,361.1h-3l-4.4-9.8v9.8h-3v-14.9h3l4.4,9.8v-9.8h3V361.1z"/>
	<path class="st2" d="M180.5,348.7h-3.7v12.4h-3v-12.4h-3.6v-2.5h10.3V348.7z"/>
	<path class="st2" d="M189.9,354.7h-4.7v4h5.6v2.5h-8.6v-14.9h8.6v2.5h-5.5v3.5h4.7V354.7z"/>
	<path class="st2" d="M200.2,354.7h-4.7v4h5.6v2.5h-8.6v-14.9h8.6v2.5h-5.5v3.5h4.7V354.7z"/>
	<path class="st2" d="M202.8,361.1v-14.9h3.9c1.7,0,3.1,0.6,4.2,1.7c1,1.1,1.6,2.6,1.6,4.6v2.4c0,2-0.5,3.5-1.6,4.6
		c-1,1.1-2.5,1.7-4.3,1.7H202.8z M205.8,348.7v9.9h0.9c1,0,1.7-0.3,2.1-0.8c0.4-0.5,0.6-1.4,0.6-2.7v-2.6c0-1.4-0.2-2.4-0.6-2.9
		c-0.4-0.5-1.1-0.8-2-0.9H205.8z"/>
	<path class="st2" d="M222.5,355.9v5.3h-3v-14.9h5.1c1.5,0,2.7,0.5,3.5,1.4c0.9,0.9,1.3,2.1,1.3,3.6s-0.4,2.6-1.3,3.5
		s-2.1,1.3-3.6,1.3H222.5z M222.5,353.4h2.1c0.6,0,1-0.2,1.3-0.6s0.5-0.9,0.5-1.6c0-0.7-0.2-1.3-0.5-1.8c-0.3-0.4-0.8-0.7-1.3-0.7
		h-2.1V353.4z"/>
	<path class="st2" d="M236.8,358.1h-4.1l-0.8,3.1h-3.2l4.7-14.9h2.8l4.7,14.9h-3.2L236.8,358.1z M233.3,355.6h2.8l-1.4-5.3
		L233.3,355.6z"/>
	<path class="st2" d="M245.2,352.9l2.2-6.7h3.3l-4,9.5v5.4h-3.1v-5.4l-4-9.5h3.3L245.2,352.9z"/>
	<path class="st2" d="M262.3,355c0,2-0.5,3.6-1.4,4.7c-0.9,1.1-2.3,1.7-3.9,1.7c-1.7,0-3-0.5-3.9-1.6c-1-1.1-1.4-2.6-1.5-4.6v-2.6
		c0-2.1,0.5-3.7,1.4-4.8c1-1.2,2.3-1.7,4-1.7c1.7,0,3,0.6,3.9,1.7c1,1.1,1.4,2.7,1.5,4.8V355z M259.2,352.5c0-1.3-0.2-2.3-0.6-3
		s-1-1-1.8-1c-0.8,0-1.4,0.3-1.8,0.9c-0.4,0.6-0.6,1.6-0.6,2.9v2.7c0,1.3,0.2,2.3,0.6,2.9c0.4,0.6,1,0.9,1.8,0.9
		c0.8,0,1.4-0.3,1.8-0.9c0.4-0.6,0.6-1.5,0.6-2.8V352.5z"/>
	<path class="st2" d="M274.1,346.2v10.3c0,1.6-0.4,2.7-1.3,3.6c-0.8,0.8-2,1.2-3.6,1.2c-1.6,0-2.8-0.4-3.7-1.3
		c-0.8-0.8-1.3-2-1.3-3.6v-10.3h3v10.3c0,0.8,0.1,1.5,0.4,1.8s0.8,0.5,1.5,0.5s1.2-0.2,1.5-0.5c0.3-0.4,0.4-0.9,0.4-1.8v-10.3H274.1
		z"/>
	<path class="st2" d="M286.1,348.7h-3.7v12.4h-3v-12.4h-3.6v-2.5h10.3V348.7z"/>
	<path class="st2" d="M294,357.2c0-0.6-0.2-1.1-0.5-1.4c-0.3-0.3-0.9-0.6-1.7-1c-1.5-0.6-2.6-1.2-3.2-2c-0.7-0.8-1-1.7-1-2.7
		c0-1.3,0.4-2.3,1.3-3c0.9-0.8,2-1.1,3.4-1.1c0.9,0,1.7,0.2,2.5,0.6c0.7,0.4,1.3,0.9,1.7,1.6c0.4,0.7,0.6,1.5,0.6,2.4h-3
		c0-0.7-0.1-1.2-0.4-1.6c-0.3-0.4-0.7-0.5-1.3-0.5c-0.5,0-0.9,0.2-1.2,0.5c-0.3,0.3-0.4,0.7-0.4,1.3c0,0.4,0.2,0.8,0.5,1.1
		c0.3,0.3,0.9,0.7,1.7,1c1.5,0.5,2.5,1.2,3.2,1.9c0.7,0.8,1,1.7,1,2.9c0,1.3-0.4,2.3-1.2,3s-2,1.1-3.4,1.1c-1,0-1.8-0.2-2.6-0.6
		s-1.4-1-1.9-1.7c-0.4-0.7-0.7-1.6-0.7-2.6h3c0,0.9,0.2,1.5,0.5,1.9s0.9,0.6,1.6,0.6C293.4,358.9,294,358.3,294,357.2z"/>
</g>
<g>
	<path class="st2" d="M107.7,424H103v6.1h-3v-14.9h8.3v2.5H103v3.8h4.7V424z"/>
	<path class="st2" d="M113.2,430.1h-3v-14.9h3V430.1z"/>
	<path class="st2" d="M126.1,430.1h-3l-4.4-9.8v9.8h-3v-14.9h3l4.4,9.8v-9.8h3V430.1z"/>
	<path class="st2" d="M135.9,427.1h-4.1l-0.8,3.1h-3.2l4.7-14.9h2.8l4.7,14.9h-3.2L135.9,427.1z M132.4,424.6h2.8l-1.4-5.3
		L132.4,424.6z"/>
	<path class="st2" d="M151.7,430.1h-3l-4.4-9.8v9.8h-3v-14.9h3l4.4,9.8v-9.8h3V430.1z"/>
	<path class="st2" d="M164.2,425.2c-0.1,1.7-0.6,3-1.4,3.9s-2.1,1.3-3.7,1.3c-1.7,0-3-0.6-3.9-1.7c-0.9-1.1-1.3-2.7-1.3-4.8v-2.5
		c0-2.1,0.5-3.6,1.4-4.7c0.9-1.1,2.2-1.7,3.9-1.7c1.6,0,2.9,0.5,3.7,1.4c0.8,0.9,1.3,2.2,1.4,3.9h-3c0-1.1-0.2-1.8-0.5-2.2
		c-0.3-0.4-0.8-0.6-1.6-0.6c-0.8,0-1.4,0.3-1.7,0.8c-0.3,0.6-0.5,1.5-0.5,2.8v2.8c0,1.5,0.2,2.5,0.5,3.1c0.3,0.6,0.9,0.8,1.7,0.8
		c0.8,0,1.3-0.2,1.6-0.6c0.3-0.4,0.5-1.1,0.5-2.1H164.2z"/>
	<path class="st2" d="M169.3,430.1h-3v-14.9h3V430.1z"/>
	<path class="st2" d="M179.1,427.1H175l-0.8,3.1H171l4.7-14.9h2.8l4.7,14.9h-3.2L179.1,427.1z M175.6,424.6h2.8l-1.4-5.3
		L175.6,424.6z"/>
	<path class="st2" d="M187.5,427.6h5.3v2.5h-8.3v-14.9h3V427.6z"/>
	<path class="st2" d="M206.5,427.1h-4.1l-0.8,3.1h-3.2l4.7-14.9h2.8l4.7,14.9h-3.2L206.5,427.1z M203.1,424.6h2.8l-1.4-5.3
		L203.1,424.6z"/>
	<path class="st2" d="M221.5,415.2v10.3c0,1.6-0.4,2.7-1.3,3.6c-0.8,0.8-2,1.2-3.6,1.2c-1.6,0-2.8-0.4-3.7-1.3
		c-0.8-0.8-1.3-2-1.3-3.6v-10.3h3v10.3c0,0.8,0.1,1.5,0.4,1.8s0.8,0.5,1.5,0.5s1.2-0.2,1.5-0.5c0.3-0.4,0.4-0.9,0.4-1.8v-10.3H221.5
		z"/>
	<path class="st2" d="M233.4,417.7h-3.7v12.4h-3v-12.4h-3.6v-2.5h10.3V417.7z"/>
	<path class="st2" d="M245.4,424c0,2-0.5,3.6-1.4,4.7c-0.9,1.1-2.3,1.7-3.9,1.7c-1.7,0-3-0.5-3.9-1.6c-1-1.1-1.4-2.6-1.5-4.6v-2.6
		c0-2.1,0.5-3.7,1.4-4.8c1-1.2,2.3-1.7,4-1.7c1.7,0,3,0.6,3.9,1.7c1,1.1,1.4,2.7,1.5,4.8V424z M242.4,421.5c0-1.3-0.2-2.3-0.6-3
		s-1-1-1.8-1c-0.8,0-1.4,0.3-1.8,0.9c-0.4,0.6-0.6,1.6-0.6,2.9v2.7c0,1.3,0.2,2.3,0.6,2.9c0.4,0.6,1,0.9,1.8,0.9
		c0.8,0,1.4-0.3,1.8-0.9c0.4-0.6,0.6-1.5,0.6-2.8V421.5z"/>
	<path class="st2" d="M258,430.1h-3l-4.4-9.8v9.8h-3v-14.9h3l4.4,9.8v-9.8h3V430.1z"/>
	<path class="st2" d="M270.9,424c0,2-0.5,3.6-1.4,4.7c-0.9,1.1-2.3,1.7-3.9,1.7c-1.7,0-3-0.5-3.9-1.6c-1-1.1-1.4-2.6-1.5-4.6v-2.6
		c0-2.1,0.5-3.7,1.4-4.8c1-1.2,2.3-1.7,4-1.7c1.7,0,3,0.6,3.9,1.7c1,1.1,1.4,2.7,1.5,4.8V424z M267.9,421.5c0-1.3-0.2-2.3-0.6-3
		s-1-1-1.8-1c-0.8,0-1.4,0.3-1.8,0.9c-0.4,0.6-0.6,1.6-0.6,2.9v2.7c0,1.3,0.2,2.3,0.6,2.9c0.4,0.6,1,0.9,1.8,0.9
		c0.8,0,1.4-0.3,1.8-0.9c0.4-0.6,0.6-1.5,0.6-2.8V421.5z"/>
	<path class="st2" d="M277,415.2l2.8,10.8l2.8-10.8h3.9v14.9h-3v-4l0.3-6.2l-3,10.3h-2.1l-3-10.3l0.3,6.2v4h-3v-14.9H277z"/>
	<path class="st2" d="M293.2,421.9l2.2-6.7h3.3l-4,9.5v5.4h-3.1v-5.4l-4-9.5h3.3L293.2,421.9z"/>
</g>
</svg>
