<?xml version="1.0" encoding="utf-8"?>
<!-- Generator: Adobe Illustrator 24.2.1, SVG Export Plug-In . SVG Version: 6.00 Build 0)  -->
<svg version="1.1" id="Layer_1" xmlns="http://www.w3.org/2000/svg" xmlns:xlink="http://www.w3.org/1999/xlink" x="0px" y="0px"
	 viewBox="0 0 500 500" style="enable-background:new 0 0 500 500;" xml:space="preserve">
<g>
	<g>
		<g>
			<rect x="331.5" y="295.3" width="35.1" height="11.7"/>
			<rect x="284.7" y="295.3" width="35.1" height="11.7"/>
			<rect x="237.9" y="295.3" width="35.1" height="11.7"/>
			<path d="M425.1,183L309.3,67.2c-3.3-3.3-7.8-5.2-12.4-5.2h-0.1c-4.6,0-9.1,1.9-12.3,5.2L161.6,190H97.4
				c-9.7,0-17.6,7.9-17.6,17.6v163.9c0,9.7,7.9,17.6,17.6,17.6h86.7l17.5,17.5c3.3,3.3,7.8,5.2,12.4,5.2h0c4.6,0,9.1-1.9,12.3-5.2
				l17.5-17.5h134.4c9.7,0,17.6-7.9,17.6-17.6V237l29.2-29.2c3.3-3.3,5.2-7.7,5.2-12.4C430.3,190.8,428.4,186.3,425.1,183z
				 M350.6,125.1L285.7,190H236l89.7-89.7L350.6,125.1z M292.7,75.4c2.2-2.3,5.9-2.3,8.2-0.1c0,0,0.1,0.1,0.1,0.1L317.5,92l-98,98
				h-41.3L292.7,75.4z M218.1,398.2c-1.1,1.1-2.5,1.8-4.1,1.8c-1.6,0-3.1-0.6-4.2-1.8l-9.2-9.2h26.7L218.1,398.2z M384.2,371.4
				c0,3.2-2.6,5.9-5.9,5.9H97.4c-3.2,0-5.9-2.6-5.9-5.9v-81.9h292.6V371.4z M384.2,277.8H91.6v-35.1h292.6V277.8z M384.2,231H91.6
				v-23.4c0-3.2,2.6-5.9,5.9-5.9h280.9c3.2,0,5.9,2.6,5.9,5.9V231z M416.8,199.5L416.8,199.5l-20.9,20.9v-12.9
				c0-9.7-7.9-17.6-17.6-17.6h-76.1l56.6-56.6l57.9,57.9c1.1,1.1,1.8,2.6,1.8,4.2C418.5,197,417.9,198.5,416.8,199.5z"/>
			<path d="M136,365.7c0.9-0.7,1.7-1.5,2.4-2.4c7.7,9,21,10.7,30.8,4c6.3-4.4,10.1-11.6,10.2-19.3c0-12.9-10.5-23.4-23.4-23.4
				c-1.2,0-2.3,0.1-3.5,0.3l-0.2,0c-0.1,0-0.1,0-0.2,0c-5.4,0.9-10.2,3.6-13.8,7.8c-8.5-9.8-23.2-10.9-33-2.4
				c-9.8,8.5-10.9,23.2-2.4,33C111.4,373.1,126.2,374.2,136,365.7z M154.5,336.4c0.5-0.1,1-0.1,1.5-0.1c6.5,0,11.7,5.2,11.7,11.7
				c0,2.5-0.8,4.9-2.3,6.9c-0.2,0.3-0.4,0.6-0.6,0.9c0,0-0.1,0.1-0.1,0.1c-2.2,2.4-5.4,3.8-8.6,3.8c-6.5-0.1-11.6-5.4-11.5-11.9
				C144.5,342.1,148.8,337.2,154.5,336.4z M120.8,336.3c6.5,0,11.7,5.2,11.7,11.7c0,6.5-5.2,11.7-11.7,11.7s-11.7-5.2-11.7-11.7
				C109.1,341.5,114.4,336.3,120.8,336.3z"/>
		</g>
	</g>
</g>
</svg>
