<?xml version="1.0" encoding="iso-8859-1"?>
<!-- Generator: Adobe Illustrator 19.0.0, SVG Export Plug-In . SVG Version: 6.00 Build 0)  -->
<svg version="1.1" id="Capa_1" xmlns="http://www.w3.org/2000/svg" xmlns:xlink="http://www.w3.org/1999/xlink" x="0px" y="0px"
	 viewBox="0 0 511.999 511.999" style="enable-background:new 0 0 511.999 511.999;" xml:space="preserve">
<g>
	<g>
		<path d="M509.512,53.075L458.688,2.251C457.245,0.809,455.292,0,453.254,0c-2.037,0-3.991,0.809-5.433,2.251L428.47,21.601
			c-3,3-3,7.865,0,10.866l4.474,4.474l-98.423,98.424l-10.732-10.732c-12.127-12.127-31.87-12.13-44.015,0l-67.664,67.666
			c-3,3-3,7.865,0,10.866c3,3,7.865,3,10.866,0l53.626-53.629l85.623,85.622L216.314,381.059c-3.055-0.434-6.157-0.664-9.292-0.664
			c-36.284,0-65.802,29.519-65.802,65.802c0,3.153,0.237,6.251,0.668,9.287l-36.057,36.057c-3.336,3.342-7.911,4.997-12.692,4.541
			c-3.742-0.358-7.201-2.157-9.86-4.816L20.56,428.547c-2.953-2.953-4.84-6.886-4.949-11.06c-0.114-4.365,1.534-8.486,4.613-11.561
			L197.26,228.883c3-3,3-7.865,0-10.866c-3-3-7.865-3-10.866,0L9.361,395.058c-6.144,6.136-9.405,14.389-9.104,23.116
			c0.279,8.06,3.854,15.657,9.557,21.359l62.871,62.871c5.88,5.88,13.697,9.118,22.011,9.118c8.315,0,16.13-3.24,22.003-9.119
			l29.985-29.985c10.152,23.27,33.37,39.581,60.337,39.581c36.284,0,65.802-29.519,65.802-65.802c0-3.039-0.208-6.066-0.62-9.058
			c-0.628-4.559-5.2-7.477-9.637-6.256l-0.006,0.002c-3.706,1.019-6.087,4.62-5.568,8.429c0.309,2.272,0.465,4.572,0.465,6.883
			c0,29.091-24.757,52.509-54.309,50.29c-24.659-1.851-44.567-21.759-46.417-46.417c-2.218-29.552,21.2-54.309,50.29-54.309
			c14.514,0,28.17,6.218,37.681,16.908c2.578,2.897,6.874,3.491,10.087,1.32c3.877-2.619,4.501-8.04,1.39-11.536
			c-6.399-7.19-14.239-12.826-22.927-16.603L387.13,231.982c12.126-12.14,12.125-31.884-0.003-44.011l-10.731-10.731l98.423-98.422
			l4.472,4.474c1.501,1.501,3.467,2.251,5.433,2.251c1.966,0,3.933-0.75,5.433-2.251l19.222-19.221
			c0.757-0.757,1.403-1.635,1.804-2.628C512.392,58.458,511.642,55.204,509.512,53.075z M376.264,221.119l-3.172,3.173
			l-85.623-85.623l3.169-3.169c6.148-6.143,16.147-6.142,22.288-0.003l16.15,16.15c0.005,0.005,0.009,0.01,0.014,0.015l31.01,31.011
			c0.007,0.007,0.014,0.012,0.021,0.019l16.143,16.143C382.403,204.976,382.402,214.974,376.264,221.119z M365.534,166.374
			l-20.147-20.146l36.544-36.544l7.462,32.831L365.534,166.374z M402.233,129.676l-7.462-32.831l21.486-21.486l7.462,32.831
			L402.233,129.676z M436.557,95.35l-7.462-32.831l14.714-14.714l3.483,3.483l16.663,16.664L436.557,95.35z M484.728,66.992
			l-4.464-4.464c-0.003-0.003-0.006-0.006-0.009-0.01l-26.253-26.253l-9.232-9.232l8.485-8.485l39.959,39.958L484.728,66.992z"/>
	</g>
</g>
<g>
</g>
<g>
</g>
<g>
</g>
<g>
</g>
<g>
</g>
<g>
</g>
<g>
</g>
<g>
</g>
<g>
</g>
<g>
</g>
<g>
</g>
<g>
</g>
<g>
</g>
<g>
</g>
<g>
</g>
</svg>
