<?xml version="1.0" encoding="utf-8"?>
<!-- Generator: Adobe Illustrator 24.2.1, SVG Export Plug-In . SVG Version: 6.00 Build 0)  -->
<svg version="1.1" id="Layer_1" xmlns="http://www.w3.org/2000/svg" xmlns:xlink="http://www.w3.org/1999/xlink" x="0px" y="0px"
	 viewBox="0 0 120 85" style="enable-background:new 0 0 120 85;" xml:space="preserve">
<style type="text/css">
	.st0{fill:url(#SVGID_1_);}
	.st1{fill:url(#SVGID_2_);}
	.st2{fill:url(#SVGID_3_);}
	.st3{fill:url(#SVGID_4_);}
	.st4{fill:url(#SVGID_5_);}
	.st5{fill:url(#SVGID_6_);}
	.st6{fill:url(#SVGID_7_);}
	.st7{fill:url(#SVGID_8_);}
	.st8{fill:url(#SVGID_9_);}
	.st9{fill:url(#SVGID_10_);}
	.st10{fill:url(#SVGID_11_);}
	.st11{fill:url(#SVGID_12_);}
	.st12{fill:url(#SVGID_13_);}
	.st13{fill:url(#SVGID_14_);}
	.st14{fill:url(#SVGID_15_);}
	.st15{fill:url(#SVGID_16_);}
	.st16{fill:url(#SVGID_17_);}
	.st17{fill:url(#SVGID_18_);}
	.st18{fill:url(#SVGID_19_);}
	.st19{fill:url(#SVGID_20_);}
	.st20{fill:url(#SVGID_21_);}
	.st21{fill:url(#SVGID_22_);}
	.st22{fill:url(#SVGID_23_);}
	.st23{fill:url(#SVGID_24_);}
	.st24{fill:url(#SVGID_25_);}
	.st25{fill:url(#SVGID_26_);}
	.st26{fill:url(#SVGID_27_);}
	.st27{fill:url(#SVGID_28_);}
	.st28{fill:url(#SVGID_29_);}
	.st29{fill:url(#SVGID_30_);}
	.st30{fill:url(#SVGID_31_);}
	.st31{fill:url(#SVGID_32_);}
	.st32{fill:url(#SVGID_33_);}
	.st33{fill:url(#SVGID_34_);}
	.st34{fill:url(#SVGID_35_);}
	.st35{fill:url(#SVGID_36_);}
	.st36{fill:url(#SVGID_37_);}
	.st37{fill:url(#SVGID_38_);}
	.st38{fill:url(#SVGID_39_);}
	.st39{fill:url(#SVGID_40_);}
	.st40{fill:url(#SVGID_41_);}
	.st41{fill:url(#SVGID_42_);}
	.st42{fill:url(#SVGID_43_);}
	.st43{fill:url(#SVGID_44_);}
	.st44{fill:url(#SVGID_45_);}
	.st45{fill:url(#SVGID_46_);}
	.st46{fill:url(#SVGID_47_);}
	.st47{fill:url(#SVGID_48_);}
	.st48{fill:url(#SVGID_49_);}
	.st49{fill:url(#SVGID_50_);}
	.st50{fill:url(#SVGID_51_);}
	.st51{fill:url(#SVGID_52_);}
	.st52{fill:url(#SVGID_53_);}
	.st53{fill:url(#SVGID_54_);}
	.st54{fill:url(#SVGID_55_);}
	.st55{fill:url(#SVGID_56_);}
	.st56{fill:url(#SVGID_57_);}
	.st57{fill:url(#SVGID_58_);}
	.st58{fill:url(#SVGID_59_);}
	.st59{fill:url(#SVGID_60_);}
	.st60{fill:url(#SVGID_61_);}
	.st61{fill:url(#SVGID_62_);}
	.st62{fill:url(#SVGID_63_);}
	.st63{fill:url(#SVGID_64_);}
	.st64{fill:url(#SVGID_65_);}
	.st65{fill:url(#SVGID_66_);}
	.st66{fill:url(#SVGID_67_);}
	.st67{fill:url(#SVGID_68_);}
	.st68{fill:url(#SVGID_69_);}
	.st69{fill:url(#SVGID_70_);}
	.st70{fill:url(#SVGID_71_);}
	.st71{fill:url(#SVGID_72_);}
	.st72{fill:url(#SVGID_73_);}
	.st73{fill:url(#SVGID_74_);}
	.st74{fill:url(#SVGID_75_);}
	.st75{fill:url(#SVGID_76_);}
	.st76{fill:url(#SVGID_77_);}
	.st77{fill:url(#SVGID_78_);}
</style>
<g>
	<rect y="0.1" width="120" height="84.9"/>
	<g>
		<g>
			
				<linearGradient id="SVGID_1_" gradientUnits="userSpaceOnUse" x1="-173.921" y1="220.409" x2="-174.3479" y2="201.3776" gradientTransform="matrix(1 0 0 -1 179.04 214.3398)">
				<stop  offset="0" style="stop-color:#090A0B"/>
				<stop  offset="1" style="stop-color:#000000"/>
			</linearGradient>
			<polygon class="st0" points="0,0 0,8.5 10,0 			"/>
			
				<linearGradient id="SVGID_2_" gradientUnits="userSpaceOnUse" x1="-166.5188" y1="218.6768" x2="-139.378" y2="206.4413" gradientTransform="matrix(1 0 0 -1 179.04 214.3398)">
				<stop  offset="0" style="stop-color:#111111"/>
				<stop  offset="1" style="stop-color:#050505"/>
			</linearGradient>
			<polygon class="st1" points="12.8,0 38.1,11.3 31.5,0 			"/>
			
				<linearGradient id="SVGID_3_" gradientUnits="userSpaceOnUse" x1="-127.3137" y1="230.8253" x2="-137.2867" y2="201.7607" gradientTransform="matrix(1 0 0 -1 179.04 214.3398)">
				<stop  offset="0" style="stop-color:#292927"/>
				<stop  offset="1" style="stop-color:#161615"/>
			</linearGradient>
			<polygon class="st2" points="42,0 38.1,11.3 50.1,0 			"/>
			
				<linearGradient id="SVGID_4_" gradientUnits="userSpaceOnUse" x1="-137.0173" y1="205.2834" x2="-147.3123" y2="222.9744" gradientTransform="matrix(1 0 0 -1 179.04 214.3398)">
				<stop  offset="0" style="stop-color:#111111"/>
				<stop  offset="1" style="stop-color:#000000"/>
			</linearGradient>
			<polygon class="st3" points="31.5,0 38.1,11.3 42,0 			"/>
			
				<linearGradient id="SVGID_5_" gradientUnits="userSpaceOnUse" x1="-87.3545" y1="227.8552" x2="-96.0099" y2="212.3403" gradientTransform="matrix(1 0 0 -1 179.04 214.3398)">
				<stop  offset="0" style="stop-color:#0D0D0D"/>
				<stop  offset="1" style="stop-color:#000000"/>
			</linearGradient>
			<polygon class="st4" points="80.6,0 86.4,2.4 86.2,0 			"/>
			
				<linearGradient id="SVGID_6_" gradientUnits="userSpaceOnUse" x1="-74.7378" y1="215.9543" x2="-87.9779" y2="205.8628" gradientTransform="matrix(1 0 0 -1 179.04 214.3398)">
				<stop  offset="0" style="stop-color:#111111"/>
				<stop  offset="1" style="stop-color:#000000"/>
			</linearGradient>
			<polygon class="st5" points="89.5,0 86.4,2.4 111.6,2.5 108.6,0 			"/>
			
				<linearGradient id="SVGID_7_" gradientUnits="userSpaceOnUse" x1="-90.9981" y1="212.0856" x2="-92.3428" y2="231.5556" gradientTransform="matrix(1 0 0 -1 179.04 214.3398)">
				<stop  offset="0" style="stop-color:#161616"/>
				<stop  offset="1" style="stop-color:#000000"/>
			</linearGradient>
			<polygon class="st6" points="86.2,0 86.4,2.4 89.5,0 			"/>
			
				<linearGradient id="SVGID_8_" gradientUnits="userSpaceOnUse" x1="-67.4183" y1="213.2505" x2="-51.371" y2="212.6139" gradientTransform="matrix(1 0 0 -1 179.04 214.3398)">
				<stop  offset="0" style="stop-color:#10100F"/>
				<stop  offset="1" style="stop-color:#000000"/>
			</linearGradient>
			<polygon class="st7" points="120,0 118.6,0 111.6,2.5 120,2.8 			"/>
			
				<linearGradient id="SVGID_9_" gradientUnits="userSpaceOnUse" x1="-65.3579" y1="214.279" x2="-77.2791" y2="224.5132" gradientTransform="matrix(1 0 0 -1 179.04 214.3398)">
				<stop  offset="0" style="stop-color:#151515"/>
				<stop  offset="1" style="stop-color:#0F0F0F"/>
			</linearGradient>
			<polygon class="st8" points="108.6,0 111.6,2.5 118.6,0 			"/>
			
				<linearGradient id="SVGID_10_" gradientUnits="userSpaceOnUse" x1="-177.9086" y1="190.0752" x2="-184.9007" y2="186.4135" gradientTransform="matrix(1 0 0 -1 179.04 214.3398)">
				<stop  offset="0" style="stop-color:#121212"/>
				<stop  offset="1" style="stop-color:#000000"/>
			</linearGradient>
			<polygon class="st9" points="0,19.8 0,23.9 5.2,27.2 			"/>
			
				<linearGradient id="SVGID_11_" gradientUnits="userSpaceOnUse" x1="-173.3279" y1="200.8259" x2="-156.4622" y2="200.2391" gradientTransform="matrix(1 0 0 -1 179.04 214.3398)">
				<stop  offset="0" style="stop-color:#151515"/>
				<stop  offset="1" style="stop-color:#000000"/>
			</linearGradient>
			<polygon class="st10" points="10.8,0 5.2,27.2 22.1,27.8 11.3,0 			"/>
			
				<linearGradient id="SVGID_12_" gradientUnits="userSpaceOnUse" x1="-178.1945" y1="194.9519" x2="-162.3957" y2="208.5511" gradientTransform="matrix(1 0 0 -1 179.04 214.3398)">
				<stop  offset="0" style="stop-color:#161716"/>
				<stop  offset="1" style="stop-color:#000000"/>
			</linearGradient>
			<polygon class="st11" points="10,0 0,8.5 0,19.8 5.2,27.2 10.8,0 			"/>
			
				<linearGradient id="SVGID_13_" gradientUnits="userSpaceOnUse" x1="-148.4863" y1="187.4937" x2="-149.3973" y2="202.4944" gradientTransform="matrix(1 0 0 -1 179.04 214.3398)">
				<stop  offset="0" style="stop-color:#1F1F20"/>
				<stop  offset="1" style="stop-color:#1A1A1B"/>
			</linearGradient>
			<path class="st12" d="M38.1,11.3l-16,16.5L39,26.3L38.1,11.3L38.1,11.3z"/>
			
				<linearGradient id="SVGID_14_" gradientUnits="userSpaceOnUse" x1="-150.6967" y1="212.4529" x2="-166.6542" y2="195.9416" gradientTransform="matrix(1 0 0 -1 179.04 214.3398)">
				<stop  offset="0" style="stop-color:#1F201F"/>
				<stop  offset="1" style="stop-color:#000000"/>
			</linearGradient>
			<polygon class="st13" points="11.3,0 22.1,27.8 38.1,11.3 38.1,11.3 12.8,0 			"/>
			
				<linearGradient id="SVGID_15_" gradientUnits="userSpaceOnUse" x1="-140.3685" y1="200.9989" x2="-114.148" y2="201.7267" gradientTransform="matrix(1 0 0 -1 179.04 214.3398)">
				<stop  offset="0" style="stop-color:#252525"/>
				<stop  offset="1" style="stop-color:#000000"/>
			</linearGradient>
			<polygon class="st14" points="50.5,0 39,26.3 65.3,25.6 51.1,0 			"/>
			
				<linearGradient id="SVGID_16_" gradientUnits="userSpaceOnUse" x1="-136.9432" y1="198.8495" x2="-124.3301" y2="210.8195" gradientTransform="matrix(1 0 0 -1 179.04 214.3398)">
				<stop  offset="0" style="stop-color:#242424"/>
				<stop  offset="1" style="stop-color:#222222"/>
			</linearGradient>
			<polygon class="st15" points="50.1,0 38.1,11.3 39,26.3 50.5,0 			"/>
			
				<linearGradient id="SVGID_17_" gradientUnits="userSpaceOnUse" x1="-104.6027" y1="188.9406" x2="-111.2289" y2="213.7386" gradientTransform="matrix(1 0 0 -1 179.04 214.3398)">
				<stop  offset="0" style="stop-color:#1F1F1F"/>
				<stop  offset="1" style="stop-color:#1C1C1C"/>
			</linearGradient>
			<polygon class="st16" points="75.7,0 65.3,25.6 83.1,23.1 76.8,0 			"/>
			
				<linearGradient id="SVGID_18_" gradientUnits="userSpaceOnUse" x1="-104.4078" y1="193.8623" x2="-118.7975" y2="220.132" gradientTransform="matrix(1 0 0 -1 179.04 214.3398)">
				<stop  offset="0" style="stop-color:#181818"/>
				<stop  offset="1" style="stop-color:#070707"/>
			</linearGradient>
			<polygon class="st17" points="51.1,0 65.3,25.6 75.7,0 			"/>
			
				<linearGradient id="SVGID_19_" gradientUnits="userSpaceOnUse" x1="-96.3598" y1="201.5303" x2="-76.0641" y2="202.2867" gradientTransform="matrix(1 0 0 -1 179.04 214.3398)">
				<stop  offset="0" style="stop-color:#171619"/>
				<stop  offset="1" style="stop-color:#000000"/>
			</linearGradient>
			<path class="st18" d="M86.4,2.4l-3.3,20.7l20.3-0.8L86.4,2.4L86.4,2.4z"/>
			
				<linearGradient id="SVGID_20_" gradientUnits="userSpaceOnUse" x1="-91.8524" y1="192.3476" x2="-98.478" y2="217.1436" gradientTransform="matrix(1 0 0 -1 179.04 214.3398)">
				<stop  offset="0" style="stop-color:#191919"/>
				<stop  offset="1" style="stop-color:#000000"/>
			</linearGradient>
			<polygon class="st19" points="76.8,0 83.1,23.1 86.4,2.4 80.6,0 			"/>
			
				<linearGradient id="SVGID_21_" gradientUnits="userSpaceOnUse" x1="-59.3059" y1="182.473" x2="-74.8637" y2="207.1784" gradientTransform="matrix(1 0 0 -1 179.04 214.3398)">
				<stop  offset="0" style="stop-color:#191C1B"/>
				<stop  offset="1" style="stop-color:#0D100F"/>
			</linearGradient>
			<polygon class="st20" points="120,15.8 111.6,2.5 103.4,22.3 120,25.7 			"/>
			
				<linearGradient id="SVGID_22_" gradientUnits="userSpaceOnUse" x1="-92.6912" y1="202.0339" x2="-67.5301" y2="201.891" gradientTransform="matrix(1 0 0 -1 179.04 214.3398)">
				<stop  offset="0" style="stop-color:#121212"/>
				<stop  offset="1" style="stop-color:#000000"/>
			</linearGradient>
			<path class="st21" d="M111.6,2.5l-8.2,19.8l-17-20L111.6,2.5L111.6,2.5z"/>
			
				<linearGradient id="SVGID_23_" gradientUnits="userSpaceOnUse" x1="-67.7314" y1="205.3589" x2="-51.6901" y2="204.7226" gradientTransform="matrix(1 0 0 -1 179.04 214.3398)">
				<stop  offset="0" style="stop-color:#0F100F"/>
				<stop  offset="1" style="stop-color:#030404"/>
			</linearGradient>
			<polygon class="st22" points="120,2.8 111.6,2.5 120,15.8 			"/>
			
				<linearGradient id="SVGID_24_" gradientUnits="userSpaceOnUse" x1="-174.6569" y1="175.5171" x2="-177.6377" y2="186.0498" gradientTransform="matrix(1 0 0 -1 179.04 214.3398)">
				<stop  offset="0" style="stop-color:#1C1C1C"/>
				<stop  offset="1" style="stop-color:#111111"/>
			</linearGradient>
			<polygon class="st23" points="0,38 8.2,37.7 5.2,27.2 0,31.2 			"/>
			
				<linearGradient id="SVGID_25_" gradientUnits="userSpaceOnUse" x1="-192.5688" y1="195.4268" x2="-175.4541" y2="184.5402" gradientTransform="matrix(1 0 0 -1 179.04 214.3398)">
				<stop  offset="0" style="stop-color:#151515"/>
				<stop  offset="1" style="stop-color:#000000"/>
			</linearGradient>
			<polygon class="st24" points="0,31.2 5.2,27.2 5.2,27.2 0,23.9 			"/>
			
				<linearGradient id="SVGID_26_" gradientUnits="userSpaceOnUse" x1="-158.2819" y1="174.1925" x2="-163.7689" y2="181.4683" gradientTransform="matrix(1 0 0 -1 179.04 214.3398)">
				<stop  offset="0" style="stop-color:#131313"/>
				<stop  offset="1" style="stop-color:#0C0C0C"/>
			</linearGradient>
			<path class="st25" d="M22.1,27.8L8.2,37.7L27.6,35L22.1,27.8L22.1,27.8z"/>
			
				<linearGradient id="SVGID_27_" gradientUnits="userSpaceOnUse" x1="-159.9671" y1="190.7459" x2="-173.8005" y2="180.7567" gradientTransform="matrix(1 0 0 -1 179.04 214.3398)">
				<stop  offset="0" style="stop-color:#161616"/>
				<stop  offset="1" style="stop-color:#000000"/>
			</linearGradient>
			<path class="st26" d="M22.1,27.8L8.2,37.7l-3-10.5L22.1,27.8L22.1,27.8z"/>
			
				<linearGradient id="SVGID_28_" gradientUnits="userSpaceOnUse" x1="-151.3174" y1="183.8468" x2="-135.8483" y2="183.356" gradientTransform="matrix(1 0 0 -1 179.04 214.3398)">
				<stop  offset="0" style="stop-color:#191919"/>
				<stop  offset="1" style="stop-color:#000000"/>
			</linearGradient>
			<path class="st27" d="M39,26.3L27.6,35L43,35.5L39,26.3L39,26.3z"/>
			
				<linearGradient id="SVGID_29_" gradientUnits="userSpaceOnUse" x1="-156.6095" y1="182.7365" x2="-139.6792" y2="184.1962" gradientTransform="matrix(1 0 0 -1 179.04 214.3398)">
				<stop  offset="0" style="stop-color:#1B1A1A"/>
				<stop  offset="1" style="stop-color:#100F10"/>
			</linearGradient>
			<path class="st28" d="M39,26.3L27.6,35l-5.5-7.2L39,26.3L39,26.3z"/>
			
				<linearGradient id="SVGID_30_" gradientUnits="userSpaceOnUse" x1="-108.6109" y1="160.6062" x2="-123.5608" y2="181.9618" gradientTransform="matrix(1 0 0 -1 179.04 214.3398)">
				<stop  offset="0" style="stop-color:#191919"/>
				<stop  offset="1" style="stop-color:#000000"/>
			</linearGradient>
			<path class="st29" d="M65.3,25.6L43,35.5l37.2,11.4L65.3,25.6L65.3,25.6z"/>
			
				<linearGradient id="SVGID_31_" gradientUnits="userSpaceOnUse" x1="-124.8645" y1="183.6993" x2="-128.8582" y2="192.8621" gradientTransform="matrix(1 0 0 -1 179.04 214.3398)">
				<stop  offset="0" style="stop-color:#1F1F1F"/>
				<stop  offset="1" style="stop-color:#000000"/>
			</linearGradient>
			<path class="st30" d="M65.3,25.6L43,35.5l-4-9.2L65.3,25.6L65.3,25.6z"/>
			
				<linearGradient id="SVGID_32_" gradientUnits="userSpaceOnUse" x1="-93.7014" y1="190.9767" x2="-96.512" y2="167.1985" gradientTransform="matrix(1 0 0 -1 179.04 214.3398)">
				<stop  offset="0" style="stop-color:#121212"/>
				<stop  offset="1" style="stop-color:#000000"/>
			</linearGradient>
			<path class="st31" d="M83.1,23.1l-2.8,23.8l5.4-6.1L83.1,23.1L83.1,23.1z"/>
			
				<linearGradient id="SVGID_33_" gradientUnits="userSpaceOnUse" x1="-92.3058" y1="172.0206" x2="-107.2185" y2="193.323" gradientTransform="matrix(1 0 0 -1 179.04 214.3398)">
				<stop  offset="0" style="stop-color:#1A1A1A"/>
				<stop  offset="1" style="stop-color:#171717"/>
			</linearGradient>
			<path class="st32" d="M83.1,23.1l-2.8,23.8l-15-21.3L83.1,23.1L83.1,23.1z"/>
			
				<linearGradient id="SVGID_34_" gradientUnits="userSpaceOnUse" x1="-76.0553" y1="170.91" x2="-85.9016" y2="184.6979" gradientTransform="matrix(1 0 0 -1 179.04 214.3398)">
				<stop  offset="0" style="stop-color:#0E0E0E"/>
				<stop  offset="1" style="stop-color:#070707"/>
			</linearGradient>
			<path class="st33" d="M103.4,22.3L85.6,40.8l27.6-4.7L103.4,22.3L103.4,22.3z"/>
			
				<linearGradient id="SVGID_35_" gradientUnits="userSpaceOnUse" x1="-83.454" y1="174.9654" x2="-85.9782" y2="192.671" gradientTransform="matrix(1 0 0 -1 179.04 214.3398)">
				<stop  offset="0" style="stop-color:#101010"/>
				<stop  offset="1" style="stop-color:#000000"/>
			</linearGradient>
			<path class="st34" d="M103.4,22.3L85.6,40.8l-2.5-17.7L103.4,22.3L103.4,22.3z"/>
			
				<linearGradient id="SVGID_36_" gradientUnits="userSpaceOnUse" x1="-46.7168" y1="169.9417" x2="-58.2282" y2="177.6081" gradientTransform="matrix(1 0 0 -1 179.04 214.3398)">
				<stop  offset="0" style="stop-color:#0B0B0B"/>
				<stop  offset="1" style="stop-color:#000000"/>
			</linearGradient>
			<polygon class="st35" points="120,31.8 113.3,36.1 120,35.8 			"/>
			
				<linearGradient id="SVGID_37_" gradientUnits="userSpaceOnUse" x1="-76.829" y1="186.375" x2="-52.9952" y2="181.5065" gradientTransform="matrix(1 0 0 -1 179.04 214.3398)">
				<stop  offset="0" style="stop-color:#0C0C0C"/>
				<stop  offset="1" style="stop-color:#000000"/>
			</linearGradient>
			<polygon class="st36" points="120,25.7 103.4,22.3 113.3,36.1 120,31.8 			"/>
			
				<linearGradient id="SVGID_38_" gradientUnits="userSpaceOnUse" x1="-176.9973" y1="152.1656" x2="-189.9602" y2="175.1849" gradientTransform="matrix(1 0 0 -1 179.04 214.3398)">
				<stop  offset="0" style="stop-color:#0B0A0B"/>
				<stop  offset="1" style="stop-color:#000000"/>
			</linearGradient>
			<polygon class="st37" points="0,55.3 0,61.9 3.5,61.4 			"/>
			
				<linearGradient id="SVGID_39_" gradientUnits="userSpaceOnUse" x1="-171.0198" y1="158.5464" x2="-176.5647" y2="174.6208" gradientTransform="matrix(1 0 0 -1 179.04 214.3398)">
				<stop  offset="0" style="stop-color:#141316"/>
				<stop  offset="1" style="stop-color:#000000"/>
			</linearGradient>
			<path class="st38" d="M8.2,37.7L3.5,61.4l10.4-7.6L8.2,37.7L8.2,37.7z"/>
			
				<linearGradient id="SVGID_40_" gradientUnits="userSpaceOnUse" x1="-168.7205" y1="156.8266" x2="-181.6682" y2="179.8189" gradientTransform="matrix(1 0 0 -1 179.04 214.3398)">
				<stop  offset="0" style="stop-color:#141412"/>
				<stop  offset="1" style="stop-color:#0D0D0C"/>
			</linearGradient>
			<polygon class="st39" points="0,38 0,55.3 3.5,61.4 8.2,37.7 			"/>
			
				<linearGradient id="SVGID_41_" gradientUnits="userSpaceOnUse" x1="-140.1692" y1="171.1347" x2="-153.8665" y2="152.2788" gradientTransform="matrix(1 0 0 -1 179.04 214.3398)">
				<stop  offset="0" style="stop-color:#1B1B1B"/>
				<stop  offset="1" style="stop-color:#040404"/>
			</linearGradient>
			<path class="st40" d="M27.6,35L13.8,53.8l29.1,7.7L27.6,35L27.6,35z"/>
			
				<linearGradient id="SVGID_42_" gradientUnits="userSpaceOnUse" x1="-156.1885" y1="163.6403" x2="-161.7401" y2="179.7341" gradientTransform="matrix(1 0 0 -1 179.04 214.3398)">
				<stop  offset="0" style="stop-color:#1E1D1D"/>
				<stop  offset="1" style="stop-color:#0D0C0D"/>
			</linearGradient>
			<path class="st41" d="M27.6,35L13.8,53.8L8.2,37.7L27.6,35L27.6,35z"/>
			
				<linearGradient id="SVGID_43_" gradientUnits="userSpaceOnUse" x1="-123.0681" y1="153.5398" x2="-142.5071" y2="171.9812" gradientTransform="matrix(1 0 0 -1 179.04 214.3398)">
				<stop  offset="0" style="stop-color:#211F20"/>
				<stop  offset="1" style="stop-color:#0C0B0B"/>
			</linearGradient>
			<path class="st42" d="M43,35.5l-0.2,26.1l19.7-7.7L43,35.5L43,35.5z"/>
			
				<linearGradient id="SVGID_44_" gradientUnits="userSpaceOnUse" x1="-151.8734" y1="166.3171" x2="-136.4095" y2="165.8265" gradientTransform="matrix(1 0 0 -1 179.04 214.3398)">
				<stop  offset="0" style="stop-color:#1A1A1A"/>
				<stop  offset="1" style="stop-color:#000000"/>
			</linearGradient>
			<path class="st43" d="M43,35.5l-0.2,26.1L27.6,35L43,35.5L43,35.5z"/>
			
				<linearGradient id="SVGID_45_" gradientUnits="userSpaceOnUse" x1="-114.5977" y1="166.2491" x2="-103.0933" y2="162.4807" gradientTransform="matrix(1 0 0 -1 179.04 214.3398)">
				<stop  offset="0" style="stop-color:#141414"/>
				<stop  offset="1" style="stop-color:#000000"/>
			</linearGradient>
			<path class="st44" d="M80.2,46.9l-17.7,7L74,57.6L80.2,46.9L80.2,46.9z"/>
			
				<linearGradient id="SVGID_46_" gradientUnits="userSpaceOnUse" x1="-110.5537" y1="166.6663" x2="-130.0251" y2="185.1383" gradientTransform="matrix(1 0 0 -1 179.04 214.3398)">
				<stop  offset="0" style="stop-color:#121211"/>
				<stop  offset="1" style="stop-color:#000000"/>
			</linearGradient>
			<path class="st45" d="M80.2,46.9l-17.7,7L43,35.5L80.2,46.9L80.2,46.9z"/>
			
				<linearGradient id="SVGID_47_" gradientUnits="userSpaceOnUse" x1="-106.0982" y1="164.098" x2="-83.337" y2="167.5023" gradientTransform="matrix(1 0 0 -1 179.04 214.3398)">
				<stop  offset="0" style="stop-color:#111111"/>
				<stop  offset="1" style="stop-color:#0F0F0F"/>
			</linearGradient>
			<path class="st46" d="M85.6,40.8L74,57.6l22.8-3.4L85.6,40.8L85.6,40.8z"/>
			
				<linearGradient id="SVGID_48_" gradientUnits="userSpaceOnUse" x1="-97.8898" y1="166.6694" x2="-92.5418" y2="172.757" gradientTransform="matrix(1 0 0 -1 179.04 214.3398)">
				<stop  offset="0" style="stop-color:#111111"/>
				<stop  offset="1" style="stop-color:#000000"/>
			</linearGradient>
			<path class="st47" d="M85.6,40.8L74,57.6l6.2-10.7L85.6,40.8L85.6,40.8z"/>
			
				<linearGradient id="SVGID_49_" gradientUnits="userSpaceOnUse" x1="-64.7855" y1="155.7144" x2="-75.5992" y2="171.5365" gradientTransform="matrix(1 0 0 -1 179.04 214.3398)">
				<stop  offset="0" style="stop-color:#0E0F10"/>
				<stop  offset="1" style="stop-color:#000000"/>
			</linearGradient>
			<polygon class="st48" points="120,45.9 113.3,36.1 113.3,36.1 96.8,54.2 120,52.2 			"/>
			
				<linearGradient id="SVGID_50_" gradientUnits="userSpaceOnUse" x1="-72.2499" y1="184.062" x2="-88.6313" y2="165.8834" gradientTransform="matrix(1 0 0 -1 179.04 214.3398)">
				<stop  offset="0" style="stop-color:#151515"/>
				<stop  offset="1" style="stop-color:#121212"/>
			</linearGradient>
			<path class="st49" d="M113.3,36.1L96.8,54.2L85.6,40.8L113.3,36.1L113.3,36.1z"/>
			
				<linearGradient id="SVGID_51_" gradientUnits="userSpaceOnUse" x1="-52.5883" y1="164.0356" x2="-63.409" y2="179.868" gradientTransform="matrix(1 0 0 -1 179.04 214.3398)">
				<stop  offset="0" style="stop-color:#000000"/>
				<stop  offset="1" style="stop-color:#000000"/>
			</linearGradient>
			<polygon class="st50" points="120,35.8 113.3,36.1 120,45.9 			"/>
			
				<linearGradient id="SVGID_52_" gradientUnits="userSpaceOnUse" x1="-171.4959" y1="150.1868" x2="-178.6326" y2="139.6996" gradientTransform="matrix(1 0 0 -1 179.04 214.3398)">
				<stop  offset="0" style="stop-color:#121212"/>
				<stop  offset="1" style="stop-color:#080808"/>
			</linearGradient>
			<polygon class="st51" points="0,73.4 5.7,75.7 3.5,61.4 0,66.4 			"/>
			
				<linearGradient id="SVGID_53_" gradientUnits="userSpaceOnUse" x1="-178.5568" y1="151.0458" x2="-193.686" y2="158.4091" gradientTransform="matrix(1 0 0 -1 179.04 214.3398)">
				<stop  offset="0" style="stop-color:#030504"/>
				<stop  offset="1" style="stop-color:#000000"/>
			</linearGradient>
			<polygon class="st52" points="0,66.4 3.5,61.4 3.5,61.4 0,61.9 			"/>
			
				<linearGradient id="SVGID_54_" gradientUnits="userSpaceOnUse" x1="-160.1969" y1="129.4304" x2="-172.6346" y2="157.2043" gradientTransform="matrix(1 0 0 -1 179.04 214.3398)">
				<stop  offset="0" style="stop-color:#101010"/>
				<stop  offset="1" style="stop-color:#030303"/>
			</linearGradient>
			<path class="st53" d="M13.8,53.8L5.7,75.7l20.6,5.9L13.8,53.8L13.8,53.8z"/>
			
				<linearGradient id="SVGID_55_" gradientUnits="userSpaceOnUse" x1="-168.5513" y1="161.7542" x2="-176.6123" y2="139.8934" gradientTransform="matrix(1 0 0 -1 179.04 214.3398)">
				<stop  offset="0" style="stop-color:#111111"/>
				<stop  offset="1" style="stop-color:#000000"/>
			</linearGradient>
			<path class="st54" d="M13.8,53.8L5.7,75.7L3.5,61.4L13.8,53.8L13.8,53.8z"/>
			
				<linearGradient id="SVGID_56_" gradientUnits="userSpaceOnUse" x1="-154.989" y1="138.642" x2="-127.9387" y2="149.1644" gradientTransform="matrix(1 0 0 -1 179.04 214.3398)">
				<stop  offset="0" style="stop-color:#111010"/>
				<stop  offset="1" style="stop-color:#000000"/>
			</linearGradient>
			<path class="st55" d="M42.9,61.6l-16.6,20l27.1-10.5L42.9,61.6L42.9,61.6z"/>
			
				<linearGradient id="SVGID_57_" gradientUnits="userSpaceOnUse" x1="-168.2634" y1="149.1757" x2="-139.2161" y2="141.3834" gradientTransform="matrix(1 0 0 -1 179.04 214.3398)">
				<stop  offset="0" style="stop-color:#0E0E0E"/>
				<stop  offset="1" style="stop-color:#000000"/>
			</linearGradient>
			<path class="st56" d="M42.9,61.6l-16.6,20L13.8,53.8L42.9,61.6L42.9,61.6z"/>
			
				<linearGradient id="SVGID_58_" gradientUnits="userSpaceOnUse" x1="-111.0038" y1="157.5829" x2="-120.1007" y2="140.3263" gradientTransform="matrix(1 0 0 -1 179.04 214.3398)">
				<stop  offset="0" style="stop-color:#171717"/>
				<stop  offset="1" style="stop-color:#070707"/>
			</linearGradient>
			<path class="st57" d="M62.5,53.9l-9.1,17.2l13.4,1.5L62.5,53.9L62.5,53.9z"/>
			
				<linearGradient id="SVGID_59_" gradientUnits="userSpaceOnUse" x1="-122.5985" y1="163.6951" x2="-131.6954" y2="146.4385" gradientTransform="matrix(1 0 0 -1 179.04 214.3398)">
				<stop  offset="0" style="stop-color:#111111"/>
				<stop  offset="1" style="stop-color:#000000"/>
			</linearGradient>
			<path class="st58" d="M62.5,53.9l-9.1,17.2l-10.5-9.5L62.5,53.9L62.5,53.9z"/>
			
				<linearGradient id="SVGID_60_" gradientUnits="userSpaceOnUse" x1="-94.7393" y1="151.7859" x2="-101.9849" y2="136.7692" gradientTransform="matrix(1 0 0 -1 179.04 214.3398)">
				<stop  offset="0" style="stop-color:#131314"/>
				<stop  offset="1" style="stop-color:#000000"/>
			</linearGradient>
			<path class="st59" d="M74,57.6l-7.3,15l22.6,5.8L74,57.6L74,57.6z"/>
			
				<linearGradient id="SVGID_61_" gradientUnits="userSpaceOnUse" x1="-110.3897" y1="159.3373" x2="-117.6353" y2="144.3206" gradientTransform="matrix(1 0 0 -1 179.04 214.3398)">
				<stop  offset="0" style="stop-color:#0E0E0E"/>
				<stop  offset="1" style="stop-color:#000000"/>
			</linearGradient>
			<path class="st60" d="M74,57.6l-7.3,15l-4.2-18.7L74,57.6L74,57.6z"/>
			
				<linearGradient id="SVGID_62_" gradientUnits="userSpaceOnUse" x1="-75.0471" y1="157.9162" x2="-82.4566" y2="133.7263" gradientTransform="matrix(1 0 0 -1 179.04 214.3398)">
				<stop  offset="0" style="stop-color:#1B1B1B"/>
				<stop  offset="1" style="stop-color:#000000"/>
			</linearGradient>
			<path class="st61" d="M96.8,54.2l-7.5,24.2l17.7-6.1L96.8,54.2L96.8,54.2z"/>
			
				<linearGradient id="SVGID_63_" gradientUnits="userSpaceOnUse" x1="-81.534" y1="141.9036" x2="-96.7742" y2="162.7475" gradientTransform="matrix(1 0 0 -1 179.04 214.3398)">
				<stop  offset="0" style="stop-color:#121212"/>
				<stop  offset="1" style="stop-color:#000000"/>
			</linearGradient>
			<path class="st62" d="M96.8,54.2l-7.5,24.2L74,57.6L96.8,54.2L96.8,54.2z"/>
			
				<linearGradient id="SVGID_64_" gradientUnits="userSpaceOnUse" x1="-50.6276" y1="158.8701" x2="-67.6266" y2="138.4538" gradientTransform="matrix(1 0 0 -1 179.04 214.3398)">
				<stop  offset="0" style="stop-color:#0F100F"/>
				<stop  offset="1" style="stop-color:#000000"/>
			</linearGradient>
			<polygon class="st63" points="120,56.8 107.1,72.3 120,74.4 			"/>
			
				<linearGradient id="SVGID_65_" gradientUnits="userSpaceOnUse" x1="-62.821" y1="147.2563" x2="-73.0147" y2="165.3191" gradientTransform="matrix(1 0 0 -1 179.04 214.3398)">
				<stop  offset="0" style="stop-color:#0E0D0D"/>
				<stop  offset="1" style="stop-color:#000000"/>
			</linearGradient>
			<polygon class="st64" points="120,52.2 96.8,54.2 107.1,72.3 120,56.8 			"/>
			
				<linearGradient id="SVGID_66_" gradientUnits="userSpaceOnUse" x1="-187.499" y1="129.0141" x2="-162.1468" y2="136.06" gradientTransform="matrix(1 0 0 -1 179.04 214.3398)">
				<stop  offset="0" style="stop-color:#171716"/>
				<stop  offset="1" style="stop-color:#000000"/>
			</linearGradient>
			<polygon class="st65" points="2.4,85 13.3,85 5.7,75.7 5.7,75.7 			"/>
			
				<linearGradient id="SVGID_67_" gradientUnits="userSpaceOnUse" x1="-176.2219" y1="112.1997" x2="-176.1807" y2="142.4807" gradientTransform="matrix(1 0 0 -1 179.04 214.3398)">
				<stop  offset="0" style="stop-color:#101010"/>
				<stop  offset="1" style="stop-color:#000000"/>
			</linearGradient>
			<polygon class="st66" points="5.7,75.7 0,73.4 0,85 2.4,85 5.7,75.7 			"/>
			
				<linearGradient id="SVGID_68_" gradientUnits="userSpaceOnUse" x1="-157.1308" y1="131.1608" x2="-128.8561" y2="130.4256" gradientTransform="matrix(1 0 0 -1 179.04 214.3398)">
				<stop  offset="0" style="stop-color:#110F0E"/>
				<stop  offset="1" style="stop-color:#050303"/>
			</linearGradient>
			<polygon class="st67" points="32,85 26.3,81.6 26.3,81.6 25.1,85 			"/>
			
				<linearGradient id="SVGID_69_" gradientUnits="userSpaceOnUse" x1="-152.702" y1="122.9976" x2="-168.5471" y2="142.5562" gradientTransform="matrix(1 0 0 -1 179.04 214.3398)">
				<stop  offset="0" style="stop-color:#1B1C1C"/>
				<stop  offset="1" style="stop-color:#000000"/>
			</linearGradient>
			<polygon class="st68" points="25.1,85 26.3,81.6 26.3,81.6 5.7,75.7 13.3,85 			"/>
			
				<linearGradient id="SVGID_70_" gradientUnits="userSpaceOnUse" x1="-126.6472" y1="112.5085" x2="-126.6213" y2="143.2451" gradientTransform="matrix(1 0 0 -1 179.04 214.3398)">
				<stop  offset="0" style="stop-color:#0E0E0E"/>
				<stop  offset="1" style="stop-color:#030303"/>
			</linearGradient>
			<polygon class="st69" points="53.4,85 53.4,71.1 51.4,85 			"/>
			
				<linearGradient id="SVGID_71_" gradientUnits="userSpaceOnUse" x1="-150.4793" y1="127.049" x2="-123.4291" y2="137.5714" gradientTransform="matrix(1 0 0 -1 179.04 214.3398)">
				<stop  offset="0" style="stop-color:#111111"/>
				<stop  offset="1" style="stop-color:#000000"/>
			</linearGradient>
			<polygon class="st70" points="51.4,85 53.4,71.1 53.4,71.1 26.3,81.6 32,85 			"/>
			
				<linearGradient id="SVGID_72_" gradientUnits="userSpaceOnUse" x1="-93.2277" y1="110.3869" x2="-116.9482" y2="137.6848" gradientTransform="matrix(1 0 0 -1 179.04 214.3398)">
				<stop  offset="0" style="stop-color:#1A1A1A"/>
				<stop  offset="1" style="stop-color:#020202"/>
			</linearGradient>
			<polygon class="st71" points="77.6,85 66.8,72.6 61.1,85 			"/>
			
				<linearGradient id="SVGID_73_" gradientUnits="userSpaceOnUse" x1="-118.9842" y1="112.5023" x2="-118.9583" y2="143.2385" gradientTransform="matrix(1 0 0 -1 179.04 214.3398)">
				<stop  offset="0" style="stop-color:#0E0E0E"/>
				<stop  offset="1" style="stop-color:#000000"/>
			</linearGradient>
			<polygon class="st72" points="61.1,85 66.8,72.6 66.8,72.6 53.4,71.1 53.4,85 			"/>
			
				<linearGradient id="SVGID_74_" gradientUnits="userSpaceOnUse" x1="-81.376" y1="118.4829" x2="-90.9619" y2="135.2119" gradientTransform="matrix(1 0 0 -1 179.04 214.3398)">
				<stop  offset="0" style="stop-color:#0C0C0C"/>
				<stop  offset="1" style="stop-color:#000000"/>
			</linearGradient>
			<polygon class="st73" points="93.2,85 89.4,78.4 89.7,85 			"/>
			
				<linearGradient id="SVGID_75_" gradientUnits="userSpaceOnUse" x1="-83.5315" y1="118.753" x2="-107.2811" y2="146.0845" gradientTransform="matrix(1 0 0 -1 179.04 214.3398)">
				<stop  offset="0" style="stop-color:#191919"/>
				<stop  offset="1" style="stop-color:#0C0C0C"/>
			</linearGradient>
			<polygon class="st74" points="89.7,85 89.4,78.4 89.4,78.4 66.8,72.6 77.6,85 			"/>
			
				<linearGradient id="SVGID_76_" gradientUnits="userSpaceOnUse" x1="-75.7608" y1="136.0984" x2="-52.6708" y2="130.2432" gradientTransform="matrix(1 0 0 -1 179.04 214.3398)">
				<stop  offset="0" style="stop-color:#050605"/>
				<stop  offset="1" style="stop-color:#000000"/>
			</linearGradient>
			<polygon class="st75" points="113.7,85 107.1,72.3 102.6,85 			"/>
			
				<linearGradient id="SVGID_77_" gradientUnits="userSpaceOnUse" x1="-72.0955" y1="123.7565" x2="-81.7003" y2="140.5187" gradientTransform="matrix(1 0 0 -1 179.04 214.3398)">
				<stop  offset="0" style="stop-color:#181818"/>
				<stop  offset="1" style="stop-color:#050505"/>
			</linearGradient>
			<polygon class="st76" points="102.6,85 107.1,72.3 107.1,72.3 89.4,78.4 93.2,85 			"/>
			
				<linearGradient id="SVGID_78_" gradientUnits="userSpaceOnUse" x1="-61.52" y1="144.6208" x2="-72.4174" y2="120.3084" gradientTransform="matrix(1 0 0 -1 179.04 214.3398)">
				<stop  offset="0" style="stop-color:#020302"/>
				<stop  offset="1" style="stop-color:#000000"/>
			</linearGradient>
			<polygon class="st77" points="120,85 120,74.4 107.1,72.3 113.7,85 			"/>
		</g>
	</g>
</g>
</svg>
