<svg id="discordlogo-01" xmlns="http://www.w3.org/2000/svg" width="37.54" height="42.7" viewBox="0 0 37.54 42.7">
  <path id="Path_74" data-name="Path 74" d="M191.206,224.589a2.157,2.157,0,1,1-2.153-2.289A2.225,2.225,0,0,1,191.206,224.589Z" transform="translate(-174.09 -204.375)" fill="#fff"/>
  <path id="Path_75" data-name="Path 75" d="M278.106,224.589a2.157,2.157,0,1,1-2.153-2.289A2.225,2.225,0,0,1,278.106,224.589Z" transform="translate(-253.095 -204.375)" fill="#fff"/>
  <path id="Path_76" data-name="Path 76" d="M83.44,29.379A4.381,4.381,0,0,0,79.061,25H50.279A4.381,4.381,0,0,0,45.9,29.379V58.152a4.381,4.381,0,0,0,4.379,4.379H74.591l-.99-3.952L83.44,67.7ZM70.811,53.118l-1.363-1.971a7.907,7.907,0,0,0,3.779-2.426,15.786,15.786,0,0,1-16.817,0,7.907,7.907,0,0,0,3.779,2.426l-1.363,1.971A7.985,7.985,0,0,1,52.151,50s.182-8.858,3.316-12.91c0,0,1.817-1.926,5.942-2.2V35.5s-2.262-.127-5.06,2.626a15.773,15.773,0,0,1,16.953,0c-2.8-2.753-5.06-2.626-5.06-2.626v-.6c4.125.282,5.942,2.2,5.942,2.2,3.143,4.052,3.316,12.91,3.316,12.91A7.982,7.982,0,0,1,70.811,53.118Z" transform="translate(-45.9 -25)" fill="#fff"/>
</svg>
