<?xml version="1.0" encoding="iso-8859-1"?>
<!-- Generator: Adobe Illustrator 19.0.0, SVG Export Plug-In . SVG Version: 6.00 Build 0)  -->
<svg version="1.1" id="Layer_1" xmlns="http://www.w3.org/2000/svg" xmlns:xlink="http://www.w3.org/1999/xlink" x="0px" y="0px"
	 viewBox="0 0 511.987 511.987" style="enable-background:new 0 0 511.987 511.987;" xml:space="preserve">
<g>
	<g>
		<path d="M511.879,350.1c-2.746-62.951-56.873-205.074-59.188-211.089c-0.773-2.079-2.205-3.853-4.059-5.079l-11.294-7.5v-10.946
			c0-4.701-3.099-8.858-7.599-10.211l-78.392-23.588c-3.06-0.912-6.353-0.421-9,1.353l-25.589,17.108H195.245L169.652,83.04
			c-2.642-1.774-5.951-2.265-9-1.353l-78.387,23.588c-4.5,1.353-7.594,5.51-7.594,10.211v10.946l-11.313,7.5
			c-1.843,1.226-3.265,3-4.063,5.079C56.996,145.026,2.873,287.149,0.108,350.1c-1.608,36.746,15.063,56.785,29.343,67.088
			c15.28,11.078,31.079,13.363,31.75,13.461c3.28,0.451,6.579-0.646,8.937-2.971c0.206-0.205,21.187-20.793,44.608-41.373
			c43.407-38.146,54.686-40.656,56.015-40.832h170.471c1.344,0.176,12.618,2.686,56.029,40.832
			c23.422,20.58,44.383,41.168,44.608,41.373c2,1.98,4.696,3.059,7.48,3.059c0.49,0,0.971-0.029,1.451-0.088
			c0.677-0.098,16.471-2.383,31.755-13.461C496.819,406.886,513.486,386.847,511.879,350.1z M302.74,121.487l-10.666,21.329h-72.143
			l-10.672-21.329H302.74z M470.681,399.464c-6.676,4.98-13.617,7.607-18.068,8.922c-7.539-7.285-24.265-23.207-42.245-38.961
			c-45.55-39.902-60.451-45.275-69.03-45.275H170.666c-8.579,0-23.485,5.373-69.03,45.275c-18,15.764-34.721,31.686-42.25,38.961
			c-4.294-1.256-10.937-3.756-17.437-8.471c-14.578-10.549-21.485-26.99-20.529-48.873c2.388-54.568,48.53-179.697,56.608-201.236
			l13.201-8.765c2.985-1.976,4.765-5.314,4.765-8.893v-8.73l65.985-19.848l21.75,14.549l20.059,40.132
			c1.814,3.608,5.5,5.892,9.549,5.892h85.324c4.049,0,7.735-2.284,9.549-5.892l20.059-40.132l21.756-14.549l65.971,19.848v8.73
			c0,3.579,1.794,6.917,4.773,8.893l13.207,8.765c8.078,21.539,54.215,146.667,56.588,201.236
			C491.525,372.6,484.819,388.886,470.681,399.464z"/>
	</g>
</g>
<g>
	<g>
		<path d="M138.436,153.727c-23.535,0-42.676,19.142-42.676,42.667c0,23.52,19.142,42.662,42.676,42.662
			c23.51,0,42.652-19.142,42.652-42.662C181.088,172.869,161.946,153.727,138.436,153.727z M138.436,217.728
			c-11.77,0-21.348-9.569-21.348-21.334c0-11.77,9.579-21.338,21.348-21.338c11.765,0,21.324,9.568,21.324,21.338
			C159.76,208.159,150.201,217.728,138.436,217.728z"/>
	</g>
</g>
<g>
	<g>
		<path d="M309.339,228.149c-23.53,0-42.677,19.142-42.677,42.666c0,23.52,19.146,42.658,42.677,42.658
			c23.51,0,42.657-19.139,42.657-42.658C351.996,247.291,332.848,228.149,309.339,228.149z M309.339,292.149
			c-11.765,0-21.344-9.578-21.344-21.334c0-11.76,9.579-21.333,21.344-21.333c11.765,0,21.323,9.573,21.323,21.333
			C330.662,282.571,321.103,292.149,309.339,292.149z"/>
	</g>
</g>
<g>
	<g>
		<path d="M223.995,260.149h-10.657v-10.667c0-5.888-4.779-10.662-10.671-10.662c-5.893,0-10.672,4.774-10.672,10.662v10.667
			h-10.657c-5.892,0-10.671,4.779-10.671,10.666c0,5.893,4.78,10.658,10.671,10.658h10.657v10.676
			c0,5.893,4.779,10.666,10.672,10.666c5.892,0,10.671-4.773,10.671-10.666v-10.676h10.657c5.892,0,10.672-4.766,10.672-10.658
			C234.667,264.929,229.887,260.149,223.995,260.149z"/>
	</g>
</g>
<g>
	<g>
		<path d="M370.211,146.301c-4.176-4.167-10.922-4.167-15.098,0c-4.157,4.162-4.157,10.921,0,15.083
			c4.176,4.172,10.922,4.172,15.098,0C374.368,157.222,374.368,150.463,370.211,146.301z"/>
	</g>
</g>
<g>
	<g>
		<path d="M370.211,210.061c-4.176-4.162-10.922-4.162-15.098,0c-4.157,4.167-4.157,10.922,0,15.088
			c4.176,4.167,10.922,4.167,15.098,0C374.368,220.982,374.368,214.228,370.211,210.061z"/>
	</g>
</g>
<g>
	<g>
		<path d="M402.211,178.066c-4.176-4.167-10.922-4.167-15.098,0c-4.156,4.162-4.156,10.922,0,15.083
			c4.176,4.167,10.922,4.167,15.098,0C406.368,188.988,406.368,182.228,402.211,178.066z"/>
	</g>
</g>
<g>
	<g>
		<path d="M338.211,178.066c-4.176-4.167-10.922-4.167-15.098,0c-4.147,4.162-4.147,10.922,0,15.083
			c4.176,4.167,10.922,4.167,15.098,0C342.368,188.988,342.368,182.228,338.211,178.066z"/>
	</g>
</g>
<g>
</g>
<g>
</g>
<g>
</g>
<g>
</g>
<g>
</g>
<g>
</g>
<g>
</g>
<g>
</g>
<g>
</g>
<g>
</g>
<g>
</g>
<g>
</g>
<g>
</g>
<g>
</g>
<g>
</g>
</svg>
