<svg xmlns="http://www.w3.org/2000/svg" width="20.131" height="12" viewBox="0 0 20.131 12">
  <g id="eye" transform="translate(0 -98.725)">
    <path id="Path_395" data-name="Path 395" d="M10.066,98.725c-3.846,0-7.334,2.1-9.908,5.522a.8.8,0,0,0,0,.951c2.574,3.422,6.062,5.526,9.908,5.526s7.334-2.1,9.908-5.522a.8.8,0,0,0,0-.951C17.4,100.829,13.912,98.725,10.066,98.725Zm.276,10.225A4.234,4.234,0,1,1,14.291,105,4.237,4.237,0,0,1,10.341,108.95ZM10.214,107a2.28,2.28,0,1,1,2.129-2.129A2.276,2.276,0,0,1,10.214,107Z" transform="translate(0 0)" fill="#fff"/>
  </g>
</svg>
