<svg id="facebook-logo" xmlns="http://www.w3.org/2000/svg" width="17.598" height="32.549" viewBox="0 0 17.598 32.549">
  <path id="Path_77" data-name="Path 77" d="M39.012.007,34.791,0c-4.742,0-7.806,3.144-7.806,8.01V11.7H22.741a.664.664,0,0,0-.664.664v5.351a.664.664,0,0,0,.664.664h4.244v13.5a.663.663,0,0,0,.664.664h5.537a.664.664,0,0,0,.664-.664v-13.5h4.962a.663.663,0,0,0,.664-.664l0-5.351a.664.664,0,0,0-.664-.664H33.849V8.573c0-1.5.359-2.269,2.319-2.269h2.843a.664.664,0,0,0,.663-.664V.67A.664.664,0,0,0,39.012.007Z" transform="translate(-22.077)" fill="#fff"/>
</svg>
