<?xml version="1.0" encoding="utf-8"?>
<!-- Generator: Adobe Illustrator 24.2.1, SVG Export Plug-In . SVG Version: 6.00 Build 0)  -->
<svg version="1.1" id="Layer_1" xmlns="http://www.w3.org/2000/svg" xmlns:xlink="http://www.w3.org/1999/xlink" x="0px" y="0px"
	 viewBox="0 0 484 100" style="enable-background:new 0 0 484 100;" xml:space="preserve">
<style type="text/css">
	.st0{fill:#FFFFFF;}
	.st1{fill:#FF0000;}
</style>
<g>
	<g>
		<path class="st0" d="M57.1,20.1H35.8l-5.6,24.3h18.2l-2.5,10.7H27.7l-8.4,36.4H7L26,9.2h33.6L57.1,20.1z"/>
		<path class="st0" d="M89.3,91.4H77.1l1.1-15.6H62.8l-6.1,15.6H44.6l0-0.2L79.5,9.1h12.9L89.3,91.4z M78.9,65.3l2.6-37.1L66.9,65.3
			H78.9z"/>
		<path class="st0" d="M140.7,75.9c-1.1,4.8-3.4,8.6-6.9,11.4c-3.5,2.8-7.7,4.1-12.6,4.1H96.1l19-82.3h25.1c4.9,0,8.4,1.4,10.7,4.2
			s2.8,6.6,1.7,11.4L140.7,75.9z M128.8,73.9l10.9-47.2c1.1-4.6-0.8-6.9-5.6-6.9H125l-14.1,61.1h8.8
			C124.7,80.9,127.8,78.5,128.8,73.9z"/>
		<path class="st0" d="M180.8,91.4h-34.1l19-82.3h33.8l-2.5,10.9h-21.5l-5.5,24h18.5l-2.5,10.7h-18.5l-6,25.8h21.8L180.8,91.4z"/>
		<path class="st0" d="M321.4,8l-31,82.4h-12l3.4-46.6c0.3-1.7,0.8-4.2,1.3-7.5c-0.4,1.7-1.1,4.2-2.2,7.5l-18.1,46.6h-12.1l7-82.4
			h12.5l-4.9,48.8c-0.3,1.7-0.7,4.2-1.3,7.5c0.4-1.7,1.2-4.2,2.2-7.5L284.5,8h10.1l-4.2,48.8c-0.3,1.7-0.7,4.2-1.3,7.5
			c0.4-1.7,1.1-4.2,2.2-7.5L308.9,8H321.4z"/>
		<path class="st0" d="M321.8,90.3h-12.3l19-82.3h12.3L321.8,90.3z"/>
		<path class="st0" d="M373.5,90.3h-10.8L355,38.5c-0.1,2.5-0.3,4.5-0.6,5.9l-10.6,45.8h-12l19-82.3h10.8l8,50.7
			c0.1-2.5,0.3-4.5,0.6-5.9L380.5,8h12L373.5,90.3z"/>
		<path class="st0" d="M422.1,82.8c-1.2,5-4.3,7.5-9.3,7.5h-23.3c-4.9,0-6.8-2.5-5.7-7.5l4.7-20.2h12.2l-4,17.2h13.8L427,8h12.3
			L422.1,82.8z"/>
		<path class="st0" d="M471.8,90.3h-12.2l1.1-15.6h-15.4l-6.1,15.6h-12.1l0-0.2l34.9-82.1H475L471.8,90.3z M461.5,64.1L464,27
			l-14.6,37.1H461.5z"/>
	</g>
	<g>
		<path class="st1" d="M207.5,81.9l-1.8,7.7h-6.1l5.2-22.7h6.1l-1.8,7.7h18.5l-1.7,7.2H207.5z"/>
		<path class="st1" d="M205.4,64.2l1.7-7.2h9.2l1.7-7.4h-9.2l1.7-7.2h24.7l-1.7,7.2h-9.3l-1.7,7.4h9.3l-1.7,7.2H205.4z"/>
		<path class="st1" d="M211.5,38.1l4.5-19.6h6.1l-2.9,12.4h3L225,19h6.1l-2.7,11.9h3.4l3-12.8h6.1l-4.6,20.1H211.5z"/>
	</g>
</g>
</svg>
