<?xml version="1.0" encoding="utf-8"?>
<!-- Generator: Adobe Illustrator 24.2.1, SVG Export Plug-In . SVG Version: 6.00 Build 0)  -->
<svg version="1.1" id="Layer_1" xmlns="http://www.w3.org/2000/svg" xmlns:xlink="http://www.w3.org/1999/xlink" x="0px" y="0px"
	 viewBox="0 0 478.6 100" style="enable-background:new 0 0 478.6 100;" xml:space="preserve">
<style type="text/css">
	.st0{fill:#FF0000;}
	.st1{fill:#FFFFFF;}
</style>
<g>
	<g>
		<path class="st0" d="M220.1,80.9l-1.8,7.7h-6.1l5.2-22.7h6.1l-1.8,7.7h18.5l-1.7,7.2h-18.4V80.9z"/>
		<path class="st0" d="M218,63.2l1.7-7.2h9.2l1.7-7.4h-9.2l1.7-7.2h24.7l-1.7,7.2h-9.3l-1.7,7.4h9.3l-1.7,7.2H218z"/>
		<path class="st0" d="M224.1,37.1l4.5-19.6h6.1l-2.9,12.4h3l2.7-11.9h6.1l-2.7,11.9h3.4l3-12.8h6.1l-4.6,20.1L224.1,37.1
			L224.1,37.1z"/>
	</g>
</g>
<g>
	<path class="st1" d="M62.4,18.6H39.6l-6,26H53L50.4,56H31l-9,38.9H8.9L29.2,7h35.9L62.4,18.6z"/>
	<path class="st1" d="M96.8,94.9h-13L85,78.2H68.5L62,94.9H49l0.1-0.2L86.4,6.9h13.8L96.8,94.9z M85.7,66.9l2.8-39.7L72.9,66.9H85.7
		z"/>
	<path class="st1" d="M151.8,78.3c-1.2,5.2-3.7,9.2-7.4,12.2c-3.7,2.9-8.2,4.4-13.4,4.4h-26.8L124.4,7h26.8c5.2,0,9,1.5,11.4,4.5
		s3,7,1.8,12.2L151.8,78.3z M139.1,76.1l11.7-50.5c1.1-4.9-0.9-7.4-6-7.4H135l-15.1,65.3h9.4C134.7,83.6,137.9,81.1,139.1,76.1z"/>
	<path class="st1" d="M194.6,94.9h-36.5L178.4,7h36.1l-2.7,11.6h-23l-5.9,25.7h19.8l-2.6,11.4h-19.8l-6.4,27.6h23.3L194.6,94.9z"/>
	<path class="st1" d="M298.6,78.3c-1.2,5.2-3.7,9.2-7.4,12.2c-3.7,2.9-8.2,4.4-13.4,4.4H251L271.2,7H298c5.2,0,9,1.5,11.4,4.5
		s3,7,1.8,12.2L298.6,78.3z M285.9,76.1l11.7-50.5c1.1-4.9-0.9-7.4-6-7.4h-9.8l-15.1,65.3h9.4C281.5,83.6,284.7,81.1,285.9,76.1z"/>
	<path class="st1" d="M351.7,86.9c-1.2,5.4-4.5,8-9.9,8h-27.6c-5.2,0-7.2-2.7-6-8l16.6-71.8c1.2-5.4,4.5-8.1,9.8-8.1h27.5
		c5.4,0,7.4,2.7,6.2,8.1L364,33.9h-13.2l3.6-15.6h-17.1l-15.1,65.3h17.1L345,59h-9.8l2.6-11.2h23L351.7,86.9z"/>
	<path class="st1" d="M396.8,94.9h-36.5L380.6,7h36.1L414,18.6h-23l-5.9,25.7h19.8l-2.6,11.4h-19.8l-6.4,27.6h23.3L396.8,94.9z"/>
	<path class="st1" d="M450.3,94.9h-11.5l-8.3-55.3c-0.1,2.7-0.3,4.8-0.6,6.3l-11.3,49h-12.8L426.1,7h11.5l8.5,54.2
		c0.1-2.7,0.3-4.8,0.6-6.3l11-47.9h12.8L450.3,94.9z"/>
</g>
</svg>
