<?xml version="1.0" encoding="utf-8"?>
<!-- Generator: Adobe Illustrator 24.2.1, SVG Export Plug-In . SVG Version: 6.00 Build 0)  -->
<svg version="1.1" id="Layer_1" xmlns="http://www.w3.org/2000/svg" xmlns:xlink="http://www.w3.org/1999/xlink" x="0px" y="0px"
	 viewBox="0 0 521.6 100" style="enable-background:new 0 0 521.6 100;" xml:space="preserve">
<style type="text/css">
	.st0{fill:#FF0000;}
	.st1{fill:#282828;}
</style>
<g>
	<g>
		<path class="st0" d="M218.1,80.9l-1.8,7.7h-6.1l5.2-22.7h6.1l-1.8,7.7h18.5l-1.7,7.2H218.1z"/>
		<path class="st0" d="M216,63.2l1.7-7.2h9.2l1.7-7.4h-9.2l1.7-7.2h24.7l-1.7,7.2h-9.3l-1.7,7.4h9.3l-1.7,7.2H216z"/>
		<path class="st0" d="M222.1,37.1l4.5-19.6h6.1l-2.9,12.4h3l2.7-11.9h6.1l-2.7,11.9h3.4l3-12.8h6.1l-4.6,20.1H222.1z"/>
	</g>
</g>
<g>
	<path class="st1" d="M60.4,18.6H37.6l-6,26h19.4L48.4,56H29l-9,38.9H6.9L27.2,7h35.9L60.4,18.6z"/>
	<path class="st1" d="M94.8,94.9h-13L83,78.2H66.5L60,94.9H47l0.1-0.2L84.4,6.9h13.8L94.8,94.9z M83.7,66.9l2.8-39.7L70.9,66.9H83.7
		z"/>
	<path class="st1" d="M149.8,78.3c-1.2,5.2-3.7,9.2-7.4,12.2c-3.7,2.9-8.2,4.4-13.4,4.4h-26.8L122.4,7h26.8c5.2,0,9,1.5,11.4,4.5
		c2.4,3,3,7,1.8,12.2L149.8,78.3z M137.1,76.1l11.7-50.5c1.1-4.9-0.9-7.4-6-7.4H133l-15.1,65.3h9.4
		C132.7,83.6,135.9,81.1,137.1,76.1z"/>
	<path class="st1" d="M192.6,94.9h-36.5L176.4,7h36.1l-2.7,11.6h-23l-5.9,25.7h19.8l-2.6,11.4h-19.8l-6.4,27.6h23.3L192.6,94.9z"/>
	<path class="st1" d="M296.6,78.3c-1.2,5.2-3.7,9.2-7.4,12.2c-3.7,2.9-8.2,4.4-13.4,4.4H249L269.2,7H296c5.2,0,9,1.5,11.4,4.5
		c2.4,3,3,7,1.8,12.2L296.6,78.3z M283.9,76.1l11.7-50.5c1.1-4.9-0.9-7.4-6-7.4h-9.8l-15.1,65.3h9.4
		C279.5,83.6,282.7,81.1,283.9,76.1z"/>
	<path class="st1" d="M339.4,94.9h-36.5L323.2,7h36.1l-2.7,11.6h-23l-5.9,25.7h19.8l-2.6,11.4h-19.8l-6.4,27.6h23.3L339.4,94.9z"/>
	<path class="st1" d="M393.7,86.9c-1.2,5.4-4.5,8-9.9,8h-27.6c-5.2,0-7.2-2.7-6-8l16.6-71.8c1.2-5.4,4.5-8.1,9.8-8.1h27.5
		c5.4,0,7.4,2.7,6.2,8.1l-4.3,18.8h-13.2l3.6-15.6h-17.1l-15.1,65.3h17.1l5.7-24.6h-9.8l2.6-11.2h23L393.7,86.9z"/>
	<path class="st1" d="M438.8,94.9h-36.5L422.6,7h36.1l-2.7,11.6h-23l-5.9,25.7h19.8l-2.6,11.4h-19.8l-6.4,27.6h23.3L438.8,94.9z"/>
	<path class="st1" d="M492.3,94.9h-11.5l-8.3-55.3c-0.1,2.7-0.3,4.8-0.6,6.3l-11.3,49h-12.8L468.1,7h11.5l8.5,54.2
		c0.1-2.7,0.3-4.8,0.6-6.3l11-47.9h12.8L492.3,94.9z"/>
</g>
</svg>
