<svg id="emcir7hz95un1" xmlns="http://www.w3.org/2000/svg" xmlns:xlink="http://www.w3.org/1999/xlink" viewBox="0 0 608 608" shape-rendering="geometricPrecision" text-rendering="geometricPrecision"><style><![CDATA[#emcir7hz95un4_ts {animation: emcir7hz95un4_ts__ts 3000ms linear infinite normal forwards}@keyframes emcir7hz95un4_ts__ts { 0% {transform: translate(315.634961px,302.271536px) scale(1,1)} 33.333333% {transform: translate(315.634961px,302.271536px) scale(1.351351,1.104265)} 53.333333% {transform: translate(315.634961px,302.271536px) scale(1.074569,1.075951)} 73.333333% {transform: translate(315.634961px,302.271536px) scale(1.182025,1.145427)} 100% {transform: translate(315.634961px,302.271536px) scale(1,1)} }#emcir7hz95un28_to {animation: emcir7hz95un28_to__to 3000ms linear infinite normal forwards}@keyframes emcir7hz95un28_to__to { 0% {transform: translate(420.782234px,94.362646px)} 6.666667% {transform: translate(420.782234px,94.362646px)} 43.333333% {transform: translate(421.248141px,44.976450px)} 80% {transform: translate(420.782234px,94.362646px)} 100% {transform: translate(420.782234px,94.362646px)} }#emcir7hz95un28_ts {animation: emcir7hz95un28_ts__ts 3000ms linear infinite normal forwards}@keyframes emcir7hz95un28_ts__ts { 0% {transform: scale(1,1)} 6.666667% {transform: scale(1,1)} 43.333333% {transform: scale(2.145194,2.145194)} 80% {transform: scale(1,1)} 100% {transform: scale(1,1)} }#emcir7hz95un31_to {animation: emcir7hz95un31_to__to 3000ms linear infinite normal forwards}@keyframes emcir7hz95un31_to__to { 0% {transform: translate(114.991247px,299.897055px)} 33.333333% {transform: translate(57.572829px,236.559212px)} 70% {transform: translate(114.991247px,299.897055px)} 100% {transform: translate(114.991247px,299.897055px)} }#emcir7hz95un31_ts {animation: emcir7hz95un31_ts__ts 3000ms linear infinite normal forwards}@keyframes emcir7hz95un31_ts__ts { 0% {transform: rotate(-40.004485deg) scale(1,1)} 33.333333% {transform: rotate(-40.004485deg) scale(2.543402,2.543402)} 70% {transform: rotate(-40.004485deg) scale(1,1)} 100% {transform: rotate(-40.004485deg) scale(1,1)} }#emcir7hz95un32_to {animation: emcir7hz95un32_to__to 3000ms linear infinite normal forwards}@keyframes emcir7hz95un32_to__to { 0% {transform: translate(523.935944px,121.793297px)} 3.333333% {transform: translate(523.935944px,121.793297px)} 33.333333% {transform: translate(486.676103px,135.480585px)} 66.666667% {transform: translate(523.935944px,121.793297px)} 100% {transform: translate(523.935944px,121.793297px)} }#emcir7hz95un32_ts {animation: emcir7hz95un32_ts__ts 3000ms linear infinite normal forwards}@keyframes emcir7hz95un32_ts__ts { 0% {transform: scale(1,1)} 3.333333% {transform: scale(1,1)} 33.333333% {transform: scale(1.902570,1.902570)} 66.666667% {transform: scale(1,1)} 100% {transform: scale(1,1)} }#emcir7hz95un33_to {animation: emcir7hz95un33_to__to 3000ms linear infinite normal forwards}@keyframes emcir7hz95un33_to__to { 0% {transform: translate(369.399154px,526.535872px)} 26.666667% {transform: translate(369.399154px,526.535872px)} 53.333333% {transform: translate(337.540568px,560.990342px)} 90% {transform: translate(369.399154px,526.535872px)} 100% {transform: translate(369.399154px,526.535872px)} }#emcir7hz95un33_ts {animation: emcir7hz95un33_ts__ts 3000ms linear infinite normal forwards}@keyframes emcir7hz95un33_ts__ts { 0% {transform: scale(1,1)} 26.666667% {transform: scale(1,1)} 53.333333% {transform: scale(2.030857,2.030857)} 90% {transform: scale(1,1)} 100% {transform: scale(1,1)} }#emcir7hz95un59_to {animation: emcir7hz95un59_to__to 3000ms linear infinite normal forwards}@keyframes emcir7hz95un59_to__to { 0% {transform: translate(233.216787px,225.382933px)} 16.666667% {transform: translate(319.309749px,226.406817px)} 20% {transform: translate(329.351940px,247.933155px)} 33.333333% {transform: translate(231.436506px,248.526582px)} 36.666667% {transform: translate(227.875945px,269.889949px)} 53.333333% {transform: translate(339.323292px,270.483376px)} 56.666667% {transform: translate(331.725647px,291.253316px)} 73.333333% {transform: translate(226.095664px,291.846743px)} 76.666667% {transform: translate(226.689091px,314.396964px)} 90% {transform: translate(338.253343px,314.396964px)} 100% {transform: translate(338.253343px,314.396964px)} }#emcir7hz95un73_ts {animation: emcir7hz95un73_ts__ts 3000ms linear infinite normal forwards}@keyframes emcir7hz95un73_ts__ts { 0% {transform: translate(270.981751px,389.312017px) scale(1,1)} 16.666667% {transform: translate(270.981751px,389.312017px) scale(1,1)} 36.666667% {transform: translate(270.981751px,389.312017px) scale(1.088775,1.088775)} 60% {transform: translate(270.981751px,389.312017px) scale(0.610644,0.610644)} 80% {transform: translate(270.981751px,389.312017px) scale(1,1)} 100% {transform: translate(270.981751px,389.312017px) scale(1,1)} }#emcir7hz95un78_tr {animation: emcir7hz95un78_tr__tr 3000ms linear infinite normal forwards}@keyframes emcir7hz95un78_tr__tr { 0% {transform: translate(194.916563px,141.742958px) rotate(0deg)} 33.333333% {transform: translate(194.916563px,141.742958px) rotate(0deg)} 66.666667% {transform: translate(194.916563px,141.742958px) rotate(360deg)} 100% {transform: translate(194.916563px,141.742958px) rotate(360deg)} }#emcir7hz95un83_to {animation: emcir7hz95un83_to__to 3000ms linear infinite normal forwards}@keyframes emcir7hz95un83_to__to { 0% {transform: translate(455.590515px,461.433544px)} 33.333333% {transform: translate(456.631664px,407.293785px)} 66.666667% {transform: translate(456.111089px,529.108243px)} 100% {transform: translate(455.590515px,461.433544px)} }#emcir7hz95un84_to {animation: emcir7hz95un84_to__to 3000ms linear infinite normal forwards}@keyframes emcir7hz95un84_to__to { 0% {transform: translate(0px,0px)} 33.333333% {transform: translate(1.041149px,-54.139759px)} 66.666667% {transform: translate(0.520574px,67.674699px)} 100% {transform: translate(0px,0px)} }#emcir7hz95un85_to {animation: emcir7hz95un85_to__to 3000ms linear infinite normal forwards}@keyframes emcir7hz95un85_to__to { 0% {transform: translate(0px,0px)} 33.333333% {transform: translate(1.041149px,-54.139759px)} 66.666667% {transform: translate(0.520574px,67.674699px)} 100% {transform: translate(0px,0px)} }#emcir7hz95un86_to {animation: emcir7hz95un86_to__to 3000ms linear infinite normal forwards}@keyframes emcir7hz95un86_to__to { 0% {transform: translate(0px,0px)} 33.333333% {transform: translate(1.041149px,-54.139759px)} 66.666667% {transform: translate(0.520574px,67.674699px)} 100% {transform: translate(0px,0px)} }]]></style><g id="emcir7hz95un2"><g id="emcir7hz95un3" opacity="0.15"><g id="emcir7hz95un4_ts" transform="translate(315.634961,302.271536) scale(1,1)"><path id="emcir7hz95un4" d="M148.100000,92.200000C12.800000,211.700000,186.900000,327.600000,170.300000,458.200000C162.900000,516.300000,186.400000,571.800000,263,565.400000C356.400000,557.700000,322.500000,468.200000,342.100000,408.600000C375.800000,306.100000,582.800000,330,497,172.200000C442.300000,71.500000,241.300000,10,148.100000,92.200000L148.100000,92.200000Z" transform="translate(-315.634961,-302.271536)" fill="rgb(104,104,104)" stroke="none" stroke-width="1"/></g></g><g id="emcir7hz95un5"><g id="emcir7hz95un6"><path id="emcir7hz95un7" d="M478,233.800000C478,256,460.400000,274,438.400000,274.700000L438.400000,513.700000C438.400000,516.800000,435.900000,519.400000,432.700000,519.400000L137.700000,519.400000C134.900000,519.400000,132.700000,517.200000,132.700000,514.400000L132.700000,490.400000C132.700000,487.600000,134.900000,485.400000,137.700000,485.400000C134.900000,485.400000,132.700000,483.200000,132.700000,480.400000L132.700000,456.300000C132.700000,453.500000,134.900000,451.300000,137.700000,451.300000C134.900000,451.300000,132.700000,449.100000,132.700000,446.300000L132.700000,422.300000C132.700000,419.500000,134.900000,417.300000,137.700000,417.300000C134.900000,417.300000,132.700000,415.100000,132.700000,412.300000L132.700000,388.200000C132.700000,385.400000,134.900000,383.200000,137.700000,383.200000C134.900000,383.200000,132.700000,381,132.700000,378.200000L132.700000,354C132.700000,351.200000,134.900000,349,137.700000,349L197,349L197,252L167.500000,252C164.700000,252,162.500000,249.800000,162.500000,247L162.500000,206.400000C150.500000,196.900000,142.900000,182.300000,142.900000,165.900000C142.900000,137.400000,166,114.300000,194.500000,114.300000C217,114.300000,236.100000,128.700000,243.200000,148.700000L421,148.700000C430.600000,148.700000,438.500000,156.500000,438.500000,166.200000L438.500000,192.900000C460.400000,193.600000,478,211.600000,478,233.800000Z" opacity="0.1" fill="rgb(204,0,0)" stroke="none" stroke-width="1"/><g id="emcir7hz95un8"><g id="emcir7hz95un9"><path id="emcir7hz95un10" d="M221.700000,495.300000L137.800000,495.300000C135,495.300000,132.800000,493.100000,132.800000,490.300000L132.800000,466.200000C132.800000,463.400000,135,461.200000,137.800000,461.200000L221.700000,461.200000C224.500000,461.200000,226.700000,463.400000,226.700000,466.200000L226.700000,490.300000C226.700000,493.100000,224.400000,495.300000,221.700000,495.300000Z" fill="rgb(255,176,176)" stroke="none" stroke-width="1"/><path id="emcir7hz95un11" d="M221.700000,461.300000L137.800000,461.300000C135,461.300000,132.800000,459.100000,132.800000,456.300000L132.800000,432.200000C132.800000,429.400000,135,427.200000,137.800000,427.200000L221.700000,427.200000C224.500000,427.200000,226.700000,429.400000,226.700000,432.200000L226.700000,456.300000C226.700000,459,224.400000,461.300000,221.700000,461.300000Z" fill="rgb(255,176,176)" stroke="none" stroke-width="1"/><path id="emcir7hz95un12" d="M221.700000,427.200000L137.800000,427.200000C135,427.200000,132.800000,425,132.800000,422.200000L132.800000,398.100000C132.800000,395.300000,135,393.100000,137.800000,393.100000L221.700000,393.100000C224.500000,393.100000,226.700000,395.300000,226.700000,398.100000L226.700000,422.200000C226.700000,425,224.400000,427.200000,221.700000,427.200000L221.700000,427.200000Z" fill="rgb(255,176,176)" stroke="none" stroke-width="1"/><path id="emcir7hz95un13" d="M221.700000,393.100000L137.800000,393.100000C135,393.100000,132.800000,390.900000,132.800000,388.100000L132.800000,364C132.800000,361.200000,135,359,137.800000,359L221.700000,359C224.500000,359,226.700000,361.200000,226.700000,364L226.700000,388.100000C226.700000,390.900000,224.400000,393.100000,221.700000,393.100000Z" fill="rgb(255,176,176)" stroke="none" stroke-width="1"/><path id="emcir7hz95un14" d="M221.700000,359.100000L137.800000,359.100000C135,359.100000,132.800000,356.900000,132.800000,354.100000L132.800000,330C132.800000,327.200000,135,325,137.800000,325L221.700000,325C224.500000,325,226.700000,327.200000,226.700000,330L226.700000,354.100000C226.700000,356.900000,224.400000,359.100000,221.700000,359.100000Z" fill="rgb(255,176,176)" stroke="none" stroke-width="1"/></g><g id="emcir7hz95un15"><g id="emcir7hz95un16"><path id="emcir7hz95un17" d="M226.700000,124.700000C217.100000,124.700000,209.200000,132.500000,209.200000,142.200000L209.200000,228L167.600000,228C164.800000,228,162.600000,225.800000,162.600000,223L162.600000,142.200000C162.600000,132.600000,170.400000,124.700000,180.100000,124.700000L226.700000,124.700000Z" fill="rgb(255,108,108)" stroke="none" stroke-width="1"/><path id="emcir7hz95un18" d="M226.700000,124.700000C217.100000,124.700000,209.200000,132.500000,209.200000,142.200000L209.200000,215.500000C204.600000,216.900000,199.700000,217.600000,194.600000,217.600000C182.500000,217.600000,171.400000,213.400000,162.600000,206.500000L162.600000,142.200000C162.600000,132.600000,170.400000,124.700000,180.100000,124.700000L226.700000,124.700000Z" fill="rgb(255,77,77)" stroke="none" stroke-width="1"/></g><path id="emcir7hz95un19" d="M438.500000,142.200000L438.500000,495.400000L214.600000,495.400000C205,495.400000,197.100000,487.600000,197.100000,477.900000L197.100000,142.100000C197.100000,132.500000,189.300000,124.600000,179.600000,124.600000L421,124.600000C430.600000,124.700000,438.500000,132.500000,438.500000,142.200000Z" fill="rgb(255,255,255)" stroke="none" stroke-width="1"/><path id="emcir7hz95un20" d="M438.500000,192.900000L438.500000,274.700000C438.100000,274.700000,437.600000,274.700000,437.200000,274.700000C414.600000,274.700000,396.300000,256.400000,396.300000,233.800000C396.300000,211.200000,414.600000,192.900000,437.200000,192.900000C437.600000,192.900000,438,192.900000,438.500000,192.900000L438.500000,192.900000Z" fill="rgb(255,238,238)" stroke="none" stroke-width="1"/><path id="emcir7hz95un21" d="M246.300000,165.900000C246.300000,193.600000,224.500000,216.200000,197.100000,217.500000L197.100000,142.100000C197.100000,132.500000,189.300000,124.600000,179.600000,124.600000L225.700000,124.600000C238.200000,134.100000,246.300000,149.100000,246.300000,165.900000Z" fill="rgb(255,238,238)" stroke="none" stroke-width="1"/><path id="emcir7hz95un22" d="M213.600000,495.300000L421.900000,495.300000C430.200000,495.300000,437,487.500000,437,477.800000L437,448.100000C437,445.300000,435.100000,443.100000,432.700000,443.100000L233,443.100000C230.600000,443.100000,228.700000,445.300000,228.700000,448.100000L228.700000,477.800000C228.700000,487.500000,221.900000,495.300000,213.600000,495.300000Z" fill="rgb(255,108,108)" stroke="none" stroke-width="1"/></g></g><g id="emcir7hz95un23"><g id="emcir7hz95un24"><path id="emcir7hz95un25" d="M486,279.400000C484.700000,279.400000,483.400000,278.900000,482.500000,277.900000L478,273.400000L473.500000,277.900000C471.500000,279.900000,468.400000,279.900000,466.400000,277.900000C464.400000,275.900000,464.400000,272.800000,466.400000,270.800000L474.400000,262.800000C476.400000,260.800000,479.500000,260.800000,481.500000,262.800000L489.500000,270.800000C491.500000,272.800000,491.500000,275.900000,489.500000,277.900000C488.600000,278.900000,487.300000,279.400000,486,279.400000Z" transform="matrix(0.63013718646143 0.77648382226449 -0.77648382226449 0.63013718646143 387.64081371771846 -271.00011334360977)" fill="rgb(244,0,0)" stroke="none" stroke-width="1"/></g></g><g id="emcir7hz95un26"><g id="emcir7hz95un27"><g id="emcir7hz95un28_to" transform="translate(420.782234,94.362646)"><g id="emcir7hz95un28_ts" transform="scale(1,1)"><path id="emcir7hz95un28" d="M428.500000,103.300000C427.200000,103.300000,425.900000,102.800000,425,101.800000L420.500000,97.300000L416,101.800000C414,103.800000,410.900000,103.800000,408.900000,101.800000C406.900000,99.800000,406.900000,96.700000,408.900000,94.700000L416.900000,86.700000C418.900000,84.700000,422,84.700000,424,86.700000L432,94.700000C434,96.700000,434,99.800000,432,101.800000C431.100000,102.800000,429.800000,103.300000,428.500000,103.300000Z" transform="translate(-420.782234,-94.362646)" fill="rgb(244,0,0)" stroke="none" stroke-width="1"/></g></g></g></g><g id="emcir7hz95un29"><g id="emcir7hz95un30"><g id="emcir7hz95un31_to" transform="translate(114.991247,299.897055)"><g id="emcir7hz95un31_ts" transform="rotate(-40.004485) scale(1,1)"><path id="emcir7hz95un31" d="M122.400000,309.400000C121.100000,309.400000,119.800000,308.900000,118.900000,307.900000L114.400000,303.400000L109.900000,307.900000C107.900000,309.900000,104.800000,309.900000,102.800000,307.900000C100.800000,305.900000,100.800000,302.800000,102.800000,300.800000L110.800000,292.800000C112.800000,290.800000,115.900000,290.800000,117.900000,292.800000L125.900000,300.800000C127.900000,302.800000,127.900000,305.900000,125.900000,307.900000C125,308.900000,123.700000,309.400000,122.400000,309.400000Z" transform="translate(-114.991247,-299.897055)" fill="rgb(255,108,108)" stroke="none" stroke-width="1"/></g></g></g></g><g id="emcir7hz95un32_to" transform="translate(523.935944,121.793297)"><g id="emcir7hz95un32_ts" transform="scale(1,1)"><path id="emcir7hz95un32" d="M476.600000,119.700000L473.600000,119.700000L473.600000,116.700000C473.600000,113.900000,471.400000,111.700000,468.600000,111.700000C465.800000,111.700000,463.600000,113.900000,463.600000,116.700000L463.600000,119.700000L460.600000,119.700000C457.800000,119.700000,455.600000,121.900000,455.600000,124.700000C455.600000,127.500000,457.800000,129.700000,460.600000,129.700000L463.600000,129.700000L463.600000,132.700000C463.600000,135.500000,465.800000,137.700000,468.600000,137.700000C471.400000,137.700000,473.600000,135.500000,473.600000,132.700000L473.600000,129.700000L476.600000,129.700000C479.400000,129.700000,481.600000,127.500000,481.600000,124.700000C481.600000,121.900000,479.400000,119.700000,476.600000,119.700000Z" transform="translate(-468.642288,-124.755457)" fill="rgb(255,108,108)" stroke="none" stroke-width="1"/></g></g><g id="emcir7hz95un33_to" transform="translate(369.399154,526.535872)"><g id="emcir7hz95un33_ts" transform="scale(1,1)"><path id="emcir7hz95un33" d="M377.300000,521.800000L374.300000,521.800000L374.300000,518.800000C374.300000,516,372.100000,513.800000,369.300000,513.800000C366.500000,513.800000,364.300000,516,364.300000,518.800000L364.300000,521.800000L361.300000,521.800000C358.500000,521.800000,356.300000,524,356.300000,526.800000C356.300000,529.600000,358.500000,531.800000,361.300000,531.800000L364.300000,531.800000L364.300000,534.800000C364.300000,537.600000,366.500000,539.800000,369.300000,539.800000C372.100000,539.800000,374.300000,537.600000,374.300000,534.800000L374.300000,531.800000L377.300000,531.800000C380.100000,531.800000,382.300000,529.600000,382.300000,526.800000C382.300000,524,380.100000,521.800000,377.300000,521.800000Z" transform="translate(-369.399154,-526.535872)" fill="rgb(244,0,0)" stroke="none" stroke-width="1"/></g></g></g><g id="emcir7hz95un34"><path id="emcir7hz95un35" d="M227.800000,345.100000L412.500000,345.100000C415.300000,345.100000,417.500000,342.900000,417.500000,340.100000C417.500000,337.300000,415.300000,335.100000,412.500000,335.100000L227.800000,335.100000C225,335.100000,222.800000,337.300000,222.800000,340.100000C222.800000,342.900000,225,345.100000,227.800000,345.100000L227.800000,345.100000Z" fill="rgb(255,108,108)" stroke="none" stroke-width="1"/></g><g id="emcir7hz95un36"><path id="emcir7hz95un37" d="M328.400000,406.100000L396.100000,406.100000C398.900000,406.100000,401.100000,403.900000,401.100000,401.100000C401.100000,398.300000,398.900000,396.100000,396.100000,396.100000L328.400000,396.100000C325.600000,396.100000,323.400000,398.300000,323.400000,401.100000C323.400000,403.900000,325.700000,406.100000,328.400000,406.100000Z" fill="rgb(71,71,71)" stroke="none" stroke-width="1"/></g><g id="emcir7hz95un38"><path id="emcir7hz95un39" d="M388.400000,386.100000L396.100000,386.100000C398.900000,386.100000,401.100000,383.900000,401.100000,381.100000C401.100000,378.300000,398.900000,376.100000,396.100000,376.100000L388.400000,376.100000C385.600000,376.100000,383.400000,378.300000,383.400000,381.100000C383.400000,383.900000,385.700000,386.100000,388.400000,386.100000Z" fill="rgb(244,0,0)" stroke="none" stroke-width="1"/></g><g id="emcir7hz95un40"><path id="emcir7hz95un41" d="M349.400000,386.100000L366.100000,386.100000C368.900000,386.100000,371.100000,383.900000,371.100000,381.100000C371.100000,378.300000,368.900000,376.100000,366.100000,376.100000L349.400000,376.100000C346.600000,376.100000,344.400000,378.300000,344.400000,381.100000C344.400000,383.900000,346.700000,386.100000,349.400000,386.100000Z" fill="rgb(71,71,71)" stroke="none" stroke-width="1"/></g><g id="emcir7hz95un42"><g id="emcir7hz95un43"><g id="emcir7hz95un44"><path id="emcir7hz95un45" d="M247.100000,319.300000L323.800000,319.300000C326.600000,319.300000,328.800000,317.100000,328.800000,314.300000C328.800000,311.500000,326.600000,309.300000,323.800000,309.300000L247.100000,309.300000C244.300000,309.300000,242.100000,311.500000,242.100000,314.300000C242.100000,317.100000,244.300000,319.300000,247.100000,319.300000L247.100000,319.300000Z" fill="rgb(71,71,71)" stroke="none" stroke-width="1"/></g><g id="emcir7hz95un46"><path id="emcir7hz95un47" d="M247.100000,297.400000L293.800000,297.400000C296.600000,297.400000,298.800000,295.200000,298.800000,292.400000C298.800000,289.600000,296.600000,287.400000,293.800000,287.400000L247.100000,287.400000C244.300000,287.400000,242.100000,289.600000,242.100000,292.400000C242.100000,295.200000,244.300000,297.400000,247.100000,297.400000Z" fill="rgb(71,71,71)" stroke="none" stroke-width="1"/></g><g id="emcir7hz95un48"><path id="emcir7hz95un49" d="M247.100000,275.500000L323.800000,275.500000C326.600000,275.500000,328.800000,273.300000,328.800000,270.500000C328.800000,267.700000,326.600000,265.500000,323.800000,265.500000L247.100000,265.500000C244.300000,265.500000,242.100000,267.700000,242.100000,270.500000C242.100000,273.300000,244.300000,275.500000,247.100000,275.500000L247.100000,275.500000Z" fill="rgb(71,71,71)" stroke="none" stroke-width="1"/></g><g id="emcir7hz95un50"><path id="emcir7hz95un51" d="M247.100000,253.700000L314.800000,253.700000C317.600000,253.700000,319.800000,251.500000,319.800000,248.700000C319.800000,245.900000,317.600000,243.700000,314.800000,243.700000L247.100000,243.700000C244.300000,243.700000,242.100000,245.900000,242.100000,248.700000C242.100000,251.500000,244.300000,253.700000,247.100000,253.700000L247.100000,253.700000Z" fill="rgb(71,71,71)" stroke="none" stroke-width="1"/></g><g id="emcir7hz95un52"><path id="emcir7hz95un53" d="M247.100000,231.800000L302.800000,231.800000C305.600000,231.800000,307.800000,229.600000,307.800000,226.800000C307.800000,224,305.600000,221.800000,302.800000,221.800000L247.100000,221.800000C244.300000,221.800000,242.100000,224,242.100000,226.800000C242.100000,229.600000,244.300000,231.800000,247.100000,231.800000Z" fill="rgb(244,0,0)" stroke="none" stroke-width="1"/></g><g id="emcir7hz95un54"><path id="emcir7hz95un55" d="M247.100000,209.900000L323.800000,209.900000C326.600000,209.900000,328.800000,207.700000,328.800000,204.900000C328.800000,202.100000,326.600000,199.900000,323.800000,199.900000L247.100000,199.900000C244.300000,199.900000,242.100000,202.100000,242.100000,204.900000C242.100000,207.700000,244.300000,209.900000,247.100000,209.900000L247.100000,209.900000Z" fill="rgb(71,71,71)" stroke="none" stroke-width="1"/></g></g><g id="emcir7hz95un56"><g id="emcir7hz95un57"><path id="emcir7hz95un58" d="M373.400000,319.300000L390.100000,319.300000C392.900000,319.300000,395.100000,317.100000,395.100000,314.300000C395.100000,311.500000,392.900000,309.300000,390.100000,309.300000L373.400000,309.300000C370.600000,309.300000,368.400000,311.500000,368.400000,314.300000C368.400000,317.100000,370.700000,319.300000,373.400000,319.300000Z" fill="rgb(71,71,71)" stroke="none" stroke-width="1"/><g id="emcir7hz95un59_to" transform="translate(233.216787,225.382933)"><path id="emcir7hz95un59" d="M367.608236,319.300000L395.880309,319.300000C400.620537,319.300000,404.345001,317.100000,404.345001,314.300000C404.345001,311.500000,400.620537,309.300000,395.880309,309.300000L367.608236,309.300000C362.868008,309.300000,359.143543,311.500000,359.143543,314.300000C359.143543,317.100000,363.037302,319.300000,367.608236,319.300000Z" transform="scale(0.391229,1.421134) translate(-381.845089,-314.259459)" fill="rgb(255,255,255)" stroke="none" stroke-width="1"/></g></g><g id="emcir7hz95un60"><path id="emcir7hz95un61" d="M373.400000,297.400000L390.100000,297.400000C392.900000,297.400000,395.100000,295.200000,395.100000,292.400000C395.100000,289.600000,392.900000,287.400000,390.100000,287.400000L373.400000,287.400000C370.600000,287.400000,368.400000,289.600000,368.400000,292.400000C368.400000,295.200000,370.700000,297.400000,373.400000,297.400000Z" fill="rgb(71,71,71)" stroke="none" stroke-width="1"/></g><g id="emcir7hz95un62"><path id="emcir7hz95un63" d="M373.400000,275.500000L390.100000,275.500000C392.900000,275.500000,395.100000,273.300000,395.100000,270.500000C395.100000,267.700000,392.900000,265.500000,390.100000,265.500000L373.400000,265.500000C370.600000,265.500000,368.400000,267.700000,368.400000,270.500000C368.400000,273.300000,370.700000,275.500000,373.400000,275.500000Z" fill="rgb(244,0,0)" stroke="none" stroke-width="1"/></g><g id="emcir7hz95un64"><path id="emcir7hz95un65" d="M373.400000,253.700000L390.100000,253.700000C392.900000,253.700000,395.100000,251.500000,395.100000,248.700000C395.100000,245.900000,392.900000,243.700000,390.100000,243.700000L373.400000,243.700000C370.600000,243.700000,368.400000,245.900000,368.400000,248.700000C368.400000,251.500000,370.700000,253.700000,373.400000,253.700000Z" fill="rgb(71,71,71)" stroke="none" stroke-width="1"/></g><g id="emcir7hz95un66"><path id="emcir7hz95un67" d="M373.400000,231.800000L390.100000,231.800000C392.900000,231.800000,395.100000,229.600000,395.100000,226.800000C395.100000,224,392.900000,221.800000,390.100000,221.800000L373.400000,221.800000C370.600000,221.800000,368.400000,224,368.400000,226.800000C368.400000,229.600000,370.700000,231.800000,373.400000,231.800000Z" fill="rgb(71,71,71)" stroke="none" stroke-width="1"/></g><g id="emcir7hz95un68"><path id="emcir7hz95un69" d="M373.400000,209.900000L390.100000,209.900000C392.900000,209.900000,395.100000,207.700000,395.100000,204.900000C395.100000,202.100000,392.900000,199.900000,390.100000,199.900000L373.400000,199.900000C370.600000,199.900000,368.400000,202.100000,368.400000,204.900000C368.400000,207.700000,370.700000,209.900000,373.400000,209.900000Z" fill="rgb(71,71,71)" stroke="none" stroke-width="1"/></g></g></g><g id="emcir7hz95un70"><circle id="emcir7hz95un71" r="40.900000" transform="matrix(1 0 0 1 437.10000000000002 209.69999999999999)" fill="rgb(255,108,108)" stroke="none" stroke-width="1"/><path id="emcir7hz95un72" d="M453.800000,203.100000C453.800000,193.900000,446.300000,186.500000,437.200000,186.500000C428.100000,186.500000,420.600000,194,420.600000,203.100000C420.600000,207.600000,422.400000,211.700000,425.400000,214.700000C422.500000,217.700000,420.600000,221.800000,420.600000,226.300000C420.600000,229.100000,422.800000,231.300000,425.600000,231.300000C428.400000,231.300000,430.600000,229.100000,430.600000,226.300000C430.600000,222.700000,433.600000,219.700000,437.200000,219.700000C440.800000,219.700000,443.800000,222.700000,443.800000,226.300000C443.800000,229.100000,446,231.300000,448.800000,231.300000C451.600000,231.300000,453.800000,229.100000,453.800000,226.300000C453.800000,221.800000,452,217.700000,449,214.700000C451.900000,211.700000,453.800000,207.700000,453.800000,203.100000ZM437.100000,196.500000C440.700000,196.500000,443.700000,199.500000,443.700000,203.100000C443.700000,206.700000,440.700000,209.700000,437.100000,209.700000C433.500000,209.700000,430.500000,206.700000,430.500000,203.100000C430.500000,199.500000,433.500000,196.500000,437.100000,196.500000Z" fill="rgb(255,255,255)" stroke="none" stroke-width="1"/></g><g id="emcir7hz95un73_ts" transform="translate(270.981751,389.312017) scale(1,1)"><path id="emcir7hz95un73" d="M276.300000,384.200000L275.500000,384.200000L275.500000,376.200000L283.400000,376.200000C286.200000,376.200000,288.400000,374,288.400000,371.200000C288.400000,368.400000,286.200000,366.200000,283.400000,366.200000L275.500000,366.200000L275.500000,364.500000C275.500000,361.700000,273.300000,359.500000,270.500000,359.500000C267.700000,359.500000,265.500000,361.700000,265.500000,364.500000L265.500000,366.200000L264.700000,366.200000C257,366.200000,250.700000,372.500000,250.700000,380.200000C250.700000,387.900000,257,394.200000,264.700000,394.200000L265.500000,394.200000L265.500000,402.200000L257.600000,402.200000C254.800000,402.200000,252.600000,404.400000,252.600000,407.200000C252.600000,410,254.800000,412.200000,257.600000,412.200000L265.500000,412.200000L265.500000,413.900000C265.500000,416.700000,267.700000,418.900000,270.500000,418.900000C273.300000,418.900000,275.500000,416.700000,275.500000,413.900000L275.500000,412.200000L276.300000,412.200000C284,412.200000,290.300000,405.900000,290.300000,398.200000C290.300000,390.500000,284,384.200000,276.300000,384.200000L276.300000,384.200000ZM264.700000,384.200000C262.500000,384.200000,260.700000,382.400000,260.700000,380.200000C260.700000,378,262.500000,376.200000,264.700000,376.200000L265.500000,376.200000L265.500000,384.200000L264.700000,384.200000ZM276.300000,402.200000L275.500000,402.200000L275.500000,394.200000L276.300000,394.200000C278.500000,394.200000,280.300000,396,280.300000,398.200000C280.300000,400.400000,278.500000,402.200000,276.300000,402.200000L276.300000,402.200000Z" transform="translate(-270.981751,-389.312017)" fill="rgb(244,0,0)" stroke="none" stroke-width="1"/></g><g id="emcir7hz95un74"><g id="emcir7hz95un75"><circle id="emcir7hz95un76" r="51.600000" transform="matrix(1 0 0 1 194.69999999999999 141.90000000000001)" fill="rgb(45,45,45)" stroke="none" stroke-width="1"/><path id="emcir7hz95un77" d="M438.500000,278.600000C435.700000,278.600000,433.500000,280.800000,433.500000,283.600000L433.500000,378.700000L443.500000,378.700000L443.500000,283.600000C443.500000,280.900000,441.200000,278.600000,438.500000,278.600000ZM443.500000,164.300000L443.500000,142.200000C443.500000,129.800000,433.400000,119.700000,421,119.700000L246.800000,119.700000C238.100000,99.500000,218.100000,85.300000,194.700000,85.300000C163.500000,85.300000,138,110.700000,138,141.900000C138,159,145.600000,174.300000,157.600000,184.700000L157.600000,223C157.600000,228.500000,162.100000,233,167.600000,233L192.100000,233L192.100000,320L137.800000,320C132.300000,320,127.800000,324.500000,127.800000,330L127.800000,354.100000C127.800000,355.900000,128.300000,357.600000,129.200000,359.100000C128.300000,360.600000,127.800000,362.300000,127.800000,364.100000L127.800000,388.200000C127.800000,390,128.300000,391.700000,129.200000,393.200000C128.300000,394.700000,127.800000,396.400000,127.800000,398.200000L127.800000,422.200000C127.800000,424,128.300000,425.700000,129.200000,427.200000C128.300000,428.700000,127.800000,430.400000,127.800000,432.200000L127.800000,456.300000C127.800000,458.100000,128.300000,459.800000,129.200000,461.300000C128.300000,462.800000,127.800000,464.500000,127.800000,466.300000L127.800000,490.300000C127.800000,495.800000,132.300000,500.300000,137.800000,500.300000L408.700000,500.300000L408.700000,490.300000L232.300000,490.300000C234.700000,486.700000,236.100000,482.500000,236.100000,477.800000L236.100000,448.100000L380.700000,448.100000C383.500000,448.100000,385.700000,445.900000,385.700000,443.100000C385.700000,440.300000,383.500000,438.100000,380.700000,438.100000L236,438.100000C230.500000,438.100000,226,442.600000,226,448.100000L226,477.800000C226,484.500000,220.700000,490,214.100000,490.200000C207.500000,489.900000,202.100000,484.500000,202.100000,477.800000L202.100000,198C229.800000,194.300000,251.300000,170.600000,251.300000,141.900000C251.300000,137.700000,250.800000,133.600000,250,129.700000L421,129.700000C427.900000,129.700000,433.500000,135.300000,433.500000,142.200000L433.500000,164C409.900000,165.900000,391.300000,185.700000,391.300000,209.700000C391.300000,235,411.900000,255.600000,437.200000,255.600000C462.500000,255.600000,483,235,483,209.800000C483,186.600000,465.800000,167.400000,443.500000,164.300000ZM167.700000,223L167.700000,191.700000C175,195.700000,183.300000,198.100000,192.200000,198.500000L192.200000,223L167.700000,223ZM137.800000,330L192.100000,330L192.100000,354.100000L137.800000,354.100000L137.800000,330ZM137.800000,364.100000L192.100000,364.100000L192.100000,388.200000L137.800000,388.200000L137.800000,364.100000ZM137.800000,398.200000L192.100000,398.200000L192.100000,422.200000L137.800000,422.200000L137.800000,398.200000ZM137.800000,432.200000L192.100000,432.200000L192.100000,456.300000L137.800000,456.300000L137.800000,432.200000ZM137.800000,490.300000L137.800000,466.300000L192.100000,466.300000L192.100000,477.900000C192.100000,482.500000,193.500000,486.800000,195.900000,490.400000L137.800000,490.400000L137.800000,490.300000ZM194.700000,188.500000C169,188.500000,148,167.600000,148,141.900000C148,116.200000,168.900000,95.300000,194.600000,95.300000C220.300000,95.300000,241.200000,116.200000,241.200000,141.900000C241.300000,167.600000,220.400000,188.500000,194.700000,188.500000ZM437.200000,245.600000C417.400000,245.600000,401.300000,229.500000,401.300000,209.700000C401.300000,189.900000,417.400000,173.800000,437.200000,173.800000C457,173.800000,473.100000,189.900000,473.100000,209.700000C473,229.500000,456.900000,245.600000,437.200000,245.600000Z" fill="rgb(244,0,0)" stroke="none" stroke-width="1"/></g><g id="emcir7hz95un78_tr" transform="translate(194.916563,141.742958) rotate(0)"><path id="emcir7hz95un78" d="M200.500000,136.900000L199.700000,136.900000L199.700000,128.900000L207.600000,128.900000C210.400000,128.900000,212.600000,126.700000,212.600000,123.900000C212.600000,121.100000,210.400000,118.900000,207.600000,118.900000L199.700000,118.900000L199.700000,117.200000C199.700000,114.400000,197.500000,112.200000,194.700000,112.200000C191.900000,112.200000,189.700000,114.400000,189.700000,117.200000L189.700000,118.900000L188.900000,118.900000C181.200000,118.900000,174.900000,125.200000,174.900000,132.900000C174.900000,140.600000,181.200000,146.900000,188.900000,146.900000L189.700000,146.900000L189.700000,154.900000L181.800000,154.900000C179,154.900000,176.800000,157.100000,176.800000,159.900000C176.800000,162.700000,179,164.900000,181.800000,164.900000L189.700000,164.900000L189.700000,166.600000C189.700000,169.400000,191.900000,171.600000,194.700000,171.600000C197.500000,171.600000,199.700000,169.400000,199.700000,166.600000L199.700000,164.900000L200.500000,164.900000C208.200000,164.900000,214.500000,158.600000,214.500000,150.900000C214.500000,143.200000,208.200000,136.900000,200.500000,136.900000ZM188.900000,136.900000C186.700000,136.900000,184.900000,135.100000,184.900000,132.900000C184.900000,130.700000,186.700000,128.900000,188.900000,128.900000L189.700000,128.900000L189.700000,136.900000L188.900000,136.900000ZM200.500000,154.900000L199.700000,154.900000L199.700000,146.900000L200.500000,146.900000C202.700000,146.900000,204.500000,148.700000,204.500000,150.900000C204.500000,153.100000,202.700000,154.900000,200.500000,154.900000Z" transform="translate(-194.916563,-141.742958)" fill="rgb(255,255,255)" stroke="none" stroke-width="1"/></g></g></g><path id="emcir7hz95un79" d="M421,500.300000L402.900000,500.300000L402.900000,490.300000L421,490.300000C427.900000,490.300000,433.500000,484.700000,433.500000,477.800000L433.500000,438.600000L443.500000,438.600000L443.500000,477.800000C443.500000,490.200000,433.400000,500.300000,421,500.300000Z" fill="rgb(244,0,0)" stroke="none" stroke-width="1"/><rect id="emcir7hz95un80" width="10" height="43.500000" rx="0" ry="0" transform="matrix(1 0 0 1 433.50000000000000 378.69999999999999)" fill="rgb(244,0,0)" stroke="none" stroke-width="1"/><rect id="emcir7hz95un81" width="10" height="43.500000" rx="0" ry="0" transform="matrix(1 0 0 1 433.50000000000000 406.80000000000001)" fill="rgb(244,0,0)" stroke="none" stroke-width="1"/><g id="emcir7hz95un82"><g id="emcir7hz95un83_to" transform="translate(455.590515,461.433544)"><path id="emcir7hz95un83" d="M502.600000,466.300000L502.600000,490.300000C502.600000,493.100000,500.400000,495.300000,497.600000,495.300000L413.700000,495.300000C410.900000,495.300000,408.700000,493.100000,408.700000,490.300000L408.700000,466.300000C408.700000,463.500000,410.900000,461.300000,413.700000,461.300000L497.600000,461.300000C500.300000,461.300000,502.600000,463.500000,502.600000,466.300000Z" transform="translate(-455.590515,-461.433544)" fill="rgb(255,176,176)" stroke="none" stroke-width="1"/></g><g id="emcir7hz95un84_to" transform="translate(0,0)"><path id="emcir7hz95un84" d="M502.600000,432.200000L502.600000,456.300000C502.600000,459.100000,500.400000,461.300000,497.600000,461.300000L413.700000,461.300000C410.900000,461.300000,408.700000,459.100000,408.700000,456.300000L408.700000,432.200000C408.700000,429.400000,410.900000,427.200000,413.700000,427.200000L497.600000,427.200000C500.300000,427.200000,502.600000,429.400000,502.600000,432.200000Z" transform="translate(0,0)" fill="rgb(255,176,176)" stroke="none" stroke-width="1"/></g></g><g id="emcir7hz95un85_to" transform="translate(0,0)"><path id="emcir7hz95un85" d="M507.600000,456.300000C507.600000,458.100000,507.100000,459.800000,506.200000,461.300000C507.100000,462.800000,507.600000,464.500000,507.600000,466.300000L507.600000,490.300000C507.600000,495.800000,503.100000,500.300000,497.600000,500.300000L424.800000,500.300000L424.800000,495.300000L497.600000,495.300000C500.400000,495.300000,502.600000,493.100000,502.600000,490.300000L502.600000,466.300000C502.600000,463.500000,500.400000,461.300000,497.600000,461.300000C500.400000,461.300000,502.600000,459.100000,502.600000,456.300000L502.600000,432.200000C502.600000,429.400000,500.400000,427.200000,497.600000,427.200000L413.700000,427.200000C410.900000,427.200000,408.700000,429.400000,408.700000,432.200000L408.700000,456.300000C408.700000,459.100000,410.900000,461.300000,413.700000,461.300000C410.900000,461.300000,408.700000,463.500000,408.700000,466.300000L408.700000,478.600000L403.700000,478.600000L403.700000,490.400000L403.700000,490.400000L403.700000,466.400000C403.700000,464.600000,404.200000,462.900000,405.100000,461.400000C404.200000,459.900000,403.700000,458.200000,403.700000,456.400000L403.700000,432.300000C403.700000,427,407.900000,422.600000,413.200000,422.300000L497.600000,422.300000C503.100000,422.300000,507.600000,426.800000,507.600000,432.300000L507.600000,456.300000L507.600000,456.300000Z" transform="translate(0,0)" fill="rgb(244,0,0)" stroke="none" stroke-width="1"/></g><g id="emcir7hz95un86_to" transform="translate(0,0)"><path id="emcir7hz95un86" d="M502.600000,456.300000L502.600000,432.200000C502.600000,429.400000,500.400000,427.200000,497.600000,427.200000L413.700000,427.200000C410.900000,427.200000,408.700000,429.400000,408.700000,432.200000L408.700000,456.300000C408.700000,459.100000,410.900000,461.300000,413.700000,461.300000C410.900000,461.300000,408.700000,463.500000,408.700000,466.300000L408.700000,478.600000L403.700000,478.600000L403.700000,490.400000C403.700000,495.900000,408.200000,500.400000,413.700000,500.400000L424.800000,500.400000L424.800000,495.400000L497.600000,495.400000C500.400000,495.400000,502.600000,493.200000,502.600000,490.400000L502.600000,466.400000C502.600000,463.600000,500.400000,461.400000,497.600000,461.400000C500.300000,461.300000,502.600000,459,502.600000,456.300000ZM497.600000,490.300000L413.700000,490.300000L413.700000,466.300000L497.600000,466.300000L497.600000,490.300000ZM413.700000,456.300000L413.700000,432.200000L497.600000,432.200000L497.600000,456.300000L413.700000,456.300000Z" transform="translate(0,0)" fill="rgb(244,0,0)" stroke="none" stroke-width="1"/></g></g></svg>