<?xml version="1.0" encoding="utf-8"?>
<!-- Generator: Adobe Illustrator 24.2.1, SVG Export Plug-In . SVG Version: 6.00 Build 0)  -->
<svg version="1.1" id="Layer_1" xmlns="http://www.w3.org/2000/svg" xmlns:xlink="http://www.w3.org/1999/xlink" x="0px" y="0px"
	 viewBox="0 0 500 500" style="enable-background:new 0 0 500 500;" xml:space="preserve">
<style type="text/css">
	.st0{fill:#000475;}
	.st1{fill:#FFD321;}
	.st2{fill:#15BF0F;}
</style>
<g id="coin_2_">
	<g id="Group_292" transform="translate(0 0)">
		<g id="Group_291">
			<path id="Path_416" class="st0" d="M194.4,87.7l8.8-8.2c-2.9-3.1-6-6-9.4-8.8l-7.6,9.3C189.1,82.4,191.9,84.9,194.4,87.7z"/>
			<path id="Path_417" class="st0" d="M223.3,112L223.3,112l-11.3,4.1c16.1,43.7-6.3,92.1-50,108.2S70,218,53.9,174.3
				s6.3-92.1,50-108.2c24.3-8.9,51.3-6.2,73.3,7.3l6.3-10.2C138.2,35.5,79.1,49.6,51.3,94.8S37.6,199.2,82.8,227
				s104.4,13.7,132.2-31.5C230.4,170.4,233.5,139.6,223.3,112z"/>
			<path id="Path_418" class="st0" d="M207.4,105.9l10.6-5.6c-2-3.8-4.2-7.4-6.7-10.9l-9.8,7C203.7,99.4,205.7,102.6,207.4,105.9z"
				/>
			<path id="Path_419" class="st0" d="M138.9,97.1c11.5,0,22.6,4.1,31.3,11.6l7.9-9.1c-25.1-21.7-63.1-18.9-84.7,6.2
				c-6.7,7.8-11.3,17.2-13.4,27.3H66.8v12h12c0,4,0.4,8.1,1.2,12H66.8v12h17.1c13.2,30.4,48.6,44.3,79,31.1
				c5.5-2.4,10.7-5.6,15.3-9.6l-7.9-9.1c-20.1,17.3-50.4,15.1-67.7-5c-2-2.3-3.7-4.8-5.3-7.4h29.6v-12H92.4c-1-3.9-1.6-8-1.6-12
				h36.1v-12H92.4C97.9,111.9,117,97.1,138.9,97.1z"/>
		</g>
	</g>
</g>
<g id="pound" transform="translate(19.432 58.297)">
	<g id="Group_294" transform="translate(0 0)">
		<g id="Group_293">
			<path id="Path_420" class="st1" d="M122.3,246.1l-9-8c-2.8,3.2-5.4,6.6-7.8,10.1l10,6.7C117.6,251.9,119.8,248.9,122.3,246.1z"/>
			<path id="Path_421" class="st1" d="M185.4,205.6c-14.4,0-28.7,3.2-41.7,9.5l5.2,10.8c11.4-5.5,23.8-8.3,36.4-8.3
				c46.5,0,84.2,37.7,84.2,84.2c0,46.5-37.7,84.2-84.2,84.2c-46.5,0-84.2-37.7-84.2-84.2c0-12.9,2.9-25.6,8.6-37.2l-10.8-5.3
				c-6.5,13.2-9.9,27.7-9.9,42.5c0,53.2,43.1,96.2,96.2,96.2s96.2-43.1,96.2-96.2C281.7,248.7,238.6,205.6,185.4,205.6z"/>
			<path id="Path_422" class="st1" d="M139.3,231.4l-6.6-10.1c-3.6,2.4-7,4.9-10.2,7.7l7.9,9.1C133.1,235.7,136.1,233.5,139.3,231.4
				z"/>
			<path id="Path_423" class="st1" d="M144.1,356h71.4v-12h-48.9l6.8-10.2v-25.9h30.1v-12h-30.1v-21.1c0-8.3,6.7-15,15-15
				c8.3,0,15,6.7,15,15l0,0v9h12v-9c0-14.9-12.1-27.1-27.1-27.1c-14.9,0-27.1,12.1-27.1,27.1v21.1h-12v12h12v22.3L144.1,356z"/>
		</g>
	</g>
</g>
<g id="dollar_1_" transform="translate(64.648 13.541)">
	<g id="Group_296" transform="translate(0 0)">
		<g id="Group_295">
			<path id="Path_424" class="st2" d="M306.9,211.7h-24.1v12h18.1v18.1h12v-18.9c12.8-3.3,20.6-16.4,17.3-29.2
				c-2.7-10.6-12.3-18-23.3-18c-6.6,0.1-12.1-5.2-12.2-11.8c-0.1-6.6,5.2-12.1,11.8-12.2c0.1,0,0.3,0,0.4,0H331v-12h-18.1v-18.1h-12
				v18.9c-12.8,3.3-20.6,16.4-17.3,29.2c2.7,10.6,12.3,18,23.3,18c6.6,0.1,11.9,5.6,11.8,12.2C318.6,206.3,313.4,211.6,306.9,211.7
				L306.9,211.7z"/>
			<path id="Path_425" class="st2" d="M260.7,111.2l-6.6-10.1c-3.6,2.4-7,4.9-10.2,7.7l7.9,9.1C254.6,115.5,257.6,113.2,260.7,111.2
				z"/>
			<path id="Path_426" class="st2" d="M306.9,85.4c-14.4,0-28.7,3.2-41.7,9.5l5.2,10.8c11.4-5.5,23.8-8.3,36.4-8.3
				c46.5,0,84.2,37.7,84.2,84.2s-37.7,84.2-84.2,84.2c-46.5,0-84.2-37.7-84.2-84.2c0-12.9,2.9-25.6,8.6-37.2l-10.8-5.3
				c-6.5,13.2-9.9,27.7-9.9,42.5c0,53.2,43.1,96.2,96.2,96.2s96.2-43.1,96.2-96.2C403.1,128.5,360.1,85.4,306.9,85.4z"/>
			<path id="Path_427" class="st2" d="M243.8,125.9l-9-8c-2.8,3.2-5.4,6.6-7.8,10.1l10,6.7C239,131.6,241.3,128.7,243.8,125.9z"/>
		</g>
	</g>
</g>
</svg>
