<svg id="eob4o561895l1" xmlns="http://www.w3.org/2000/svg" xmlns:xlink="http://www.w3.org/1999/xlink" viewBox="0 0 500 500" shape-rendering="geometricPrecision" text-rendering="geometricPrecision"><style><![CDATA[#eob4o561895l6_tr {animation: eob4o561895l6_tr__tr 4000ms linear infinite normal forwards}@keyframes eob4o561895l6_tr__tr { 0% {transform: translate(133.134457px,145.136078px) rotate(0deg)} 50% {transform: translate(133.134457px,145.136078px) rotate(0deg)} 75% {transform: translate(133.134457px,145.136078px) rotate(180deg)} 100% {transform: translate(133.134457px,145.136078px) rotate(360deg)} }#eob4o561895l6_ts {animation: eob4o561895l6_ts__ts 4000ms linear infinite normal forwards}@keyframes eob4o561895l6_ts__ts { 0% {transform: scale(1,1)} 50% {transform: scale(1,1)} 75% {transform: scale(0.616664,0.616664)} 100% {transform: scale(1,1)} }#eob4o561895l14_tr {animation: eob4o561895l14_tr__tr 4000ms linear infinite normal forwards}@keyframes eob4o561895l14_tr__tr { 0% {transform: translate(185.200778px,301.850000px) rotate(0deg)} 25% {transform: translate(185.200778px,301.850000px) rotate(0deg)} 50% {transform: translate(185.200778px,301.850000px) rotate(180deg)} 75% {transform: translate(185.200778px,301.850000px) rotate(360deg)} 100% {transform: translate(185.200778px,301.850000px) rotate(360deg)} }#eob4o561895l14_ts {animation: eob4o561895l14_ts__ts 4000ms linear infinite normal forwards}@keyframes eob4o561895l14_ts__ts { 0% {transform: scale(1,1)} 25% {transform: scale(1,1)} 50% {transform: scale(0.601488,0.601488)} 75% {transform: scale(1,1)} 100% {transform: scale(1,1)} }#eob4o561895l23_tr {animation: eob4o561895l23_tr__tr 4000ms linear infinite normal forwards}@keyframes eob4o561895l23_tr__tr { 0% {transform: translate(306.900000px,181.600000px) rotate(0deg)} 25% {transform: translate(306.900000px,181.600000px) rotate(180deg)} 50% {transform: translate(306.900000px,181.600000px) rotate(360deg)} 100% {transform: translate(306.900000px,181.600000px) rotate(360deg)} }#eob4o561895l23_ts {animation: eob4o561895l23_ts__ts 4000ms linear infinite normal forwards}@keyframes eob4o561895l23_ts__ts { 0% {transform: scale(1,1)} 25% {transform: scale(0.621680,0.621680)} 50% {transform: scale(1,1)} 100% {transform: scale(1,1)} }]]></style><g id="eob4o561895l2"><g id="eob4o561895l3"><g id="eob4o561895l4"><g id="eob4o561895l5"><g id="eob4o561895l6_tr" transform="translate(133.134457,145.136078) rotate(0)"><g id="eob4o561895l6_ts" transform="scale(1,1)"><g id="eob4o561895l6" transform="translate(-133.134457,-145.136078)"><path id="eob4o561895l7" d="M194.400000,87.700000L203.200000,79.500000C200.300000,76.400000,197.200000,73.500000,193.800000,70.700000L186.200000,80C189.100000,82.400000,191.900000,84.900000,194.400000,87.700000Z" fill="rgb(0,4,117)" stroke="none" stroke-width="1"/><path id="eob4o561895l8" d="M223.300000,112L223.300000,112L212,116.100000C228.100000,159.800000,205.700000,208.200000,162,224.300000C118.300000,240.400000,70,218,53.900000,174.300000C37.800000,130.600000,60.200000,82.200000,103.900000,66.100000C128.200000,57.200000,155.200000,59.900000,177.200000,73.400000L183.500000,63.200000C138.200000,35.500000,79.100000,49.600000,51.300000,94.800000C23.500000,140,37.600000,199.200000,82.800000,227C128,254.800000,187.200000,240.700000,215,195.500000C230.400000,170.400000,233.500000,139.600000,223.300000,112Z" fill="rgb(0,4,117)" stroke="none" stroke-width="1"/><path id="eob4o561895l9" d="M207.400000,105.900000L218,100.300000C216,96.500000,213.800000,92.900000,211.300000,89.400000L201.500000,96.400000C203.700000,99.400000,205.700000,102.600000,207.400000,105.900000Z" fill="rgb(0,4,117)" stroke="none" stroke-width="1"/><path id="eob4o561895l10" d="M138.900000,97.100000C150.400000,97.100000,161.500000,101.200000,170.200000,108.700000L178.100000,99.600000C153,77.900000,115,80.700000,93.400000,105.800000C86.700000,113.600000,82.100000,123,80,133.100000L66.800000,133.100000L66.800000,145.100000L78.800000,145.100000C78.800000,149.100000,79.200000,153.200000,80,157.100000L66.800000,157.100000L66.800000,169.100000L83.900000,169.100000C97.100000,199.500000,132.500000,213.400000,162.900000,200.200000C168.400000,197.800000,173.600000,194.600000,178.200000,190.600000L170.300000,181.500000C150.200000,198.800000,119.900000,196.600000,102.600000,176.500000C100.600000,174.200000,98.900000,171.700000,97.300000,169.100000L126.900000,169.100000L126.900000,157.100000L92.400000,157.100000C91.400000,153.200000,90.800000,149.100000,90.800000,145.100000L126.900000,145.100000L126.900000,133.100000L92.400000,133.100000C97.900000,111.900000,117,97.100000,138.900000,97.100000Z" fill="rgb(0,4,117)" stroke="none" stroke-width="1"/></g></g></g></g></g></g></g><g id="eob4o561895l11" transform="matrix(1 0 0 1 19.43200000000000 58.29700000000000)"><g id="eob4o561895l12"><g id="eob4o561895l13"><g id="eob4o561895l14_tr" transform="translate(185.200778,301.850000) rotate(0)"><g id="eob4o561895l14_ts" transform="scale(1,1)"><g id="eob4o561895l14" transform="translate(-185.200778,-301.850000)"><path id="eob4o561895l15" d="M122.300000,246.100000L113.300000,238.100000C110.500000,241.300000,107.900000,244.700000,105.500000,248.200000L115.500000,254.900000C117.600000,251.900000,119.800000,248.900000,122.300000,246.100000Z" fill="rgb(255,211,33)" stroke="none" stroke-width="1"/><path id="eob4o561895l16" d="M185.400000,205.600000C171,205.600000,156.700000,208.800000,143.700000,215.100000L148.900000,225.900000C160.300000,220.400000,172.700000,217.600000,185.300000,217.600000C231.800000,217.600000,269.500000,255.300000,269.500000,301.800000C269.500000,348.300000,231.800000,386,185.300000,386C138.800000,386,101.100000,348.300000,101.100000,301.800000C101.100000,288.900000,104,276.200000,109.700000,264.600000L98.900000,259.300000C92.400000,272.500000,89,287,89,301.800000C89,355,132.100000,398,185.200000,398C238.300000,398,281.400000,354.900000,281.400000,301.800000C281.700000,248.700000,238.600000,205.600000,185.400000,205.600000Z" fill="rgb(255,211,33)" stroke="none" stroke-width="1"/><path id="eob4o561895l17" d="M139.300000,231.400000L132.700000,221.300000C129.100000,223.700000,125.700000,226.200000,122.500000,229L130.400000,238.100000C133.100000,235.700000,136.100000,233.500000,139.300000,231.400000Z" fill="rgb(255,211,33)" stroke="none" stroke-width="1"/><path id="eob4o561895l18" d="M144.100000,356L215.500000,356L215.500000,344L166.600000,344L173.400000,333.800000L173.400000,307.900000L203.500000,307.900000L203.500000,295.900000L173.400000,295.900000L173.400000,274.800000C173.400000,266.500000,180.100000,259.800000,188.400000,259.800000C196.700000,259.800000,203.400000,266.500000,203.400000,274.800000L203.400000,274.800000L203.400000,283.800000L215.400000,283.800000L215.400000,274.800000C215.400000,259.900000,203.300000,247.700000,188.300000,247.700000C173.400000,247.700000,161.200000,259.800000,161.200000,274.800000L161.200000,295.900000L149.200000,295.900000L149.200000,307.900000L161.200000,307.900000L161.200000,330.200000L144.100000,356Z" fill="rgb(255,211,33)" stroke="none" stroke-width="1"/></g></g></g></g></g></g><g id="eob4o561895l19" transform="matrix(1 0 0 1 64.64800000000000 13.54100000000000)"><g id="eob4o561895l20"><g id="eob4o561895l21"><g id="eob4o561895l22"><g id="eob4o561895l23_tr" transform="translate(306.900000,181.600000) rotate(0)"><g id="eob4o561895l23_ts" transform="scale(1,1)"><g id="eob4o561895l23" transform="translate(-306.900000,-181.600000)"><path id="eob4o561895l24" d="M306.900000,211.700000L282.800000,211.700000L282.800000,223.700000L300.900000,223.700000L300.900000,241.800000L312.900000,241.800000L312.900000,222.900000C325.700000,219.600000,333.500000,206.500000,330.200000,193.700000C327.500000,183.100000,317.900000,175.700000,306.900000,175.700000C300.300000,175.800000,294.800000,170.500000,294.700000,163.900000C294.600000,157.300000,299.900000,151.800000,306.500000,151.700000C306.600000,151.700000,306.800000,151.700000,306.900000,151.700000L331,151.700000L331,139.700000L312.900000,139.700000L312.900000,121.600000L300.900000,121.600000L300.900000,140.500000C288.100000,143.800000,280.300000,156.900000,283.600000,169.700000C286.300000,180.300000,295.900000,187.700000,306.900000,187.700000C313.500000,187.800000,318.800000,193.300000,318.700000,199.900000C318.600000,206.300000,313.400000,211.600000,306.900000,211.700000L306.900000,211.700000Z" fill="rgb(21,191,15)" stroke="none" stroke-width="1"/><path id="eob4o561895l25" d="M260.700000,111.200000L254.100000,101.100000C250.500000,103.500000,247.100000,106,243.900000,108.800000L251.800000,117.900000C254.600000,115.500000,257.600000,113.200000,260.700000,111.200000Z" fill="rgb(21,191,15)" stroke="none" stroke-width="1"/><path id="eob4o561895l26" d="M306.900000,85.400000C292.500000,85.400000,278.200000,88.600000,265.200000,94.900000L270.400000,105.700000C281.800000,100.200000,294.200000,97.400000,306.800000,97.400000C353.300000,97.400000,391,135.100000,391,181.600000C391,228.100000,353.300000,265.800000,306.800000,265.800000C260.300000,265.800000,222.600000,228.100000,222.600000,181.600000C222.600000,168.700000,225.500000,156,231.200000,144.400000L220.400000,139.100000C213.900000,152.300000,210.500000,166.800000,210.500000,181.600000C210.500000,234.800000,253.600000,277.800000,306.700000,277.800000C359.800000,277.800000,402.900000,234.700000,402.900000,181.600000C403.100000,128.500000,360.100000,85.400000,306.900000,85.400000Z" fill="rgb(21,191,15)" stroke="none" stroke-width="1"/><path id="eob4o561895l27" d="M243.800000,125.900000L234.800000,117.900000C232,121.100000,229.400000,124.500000,227,128L237,134.700000C239,131.600000,241.300000,128.700000,243.800000,125.900000Z" fill="rgb(21,191,15)" stroke="none" stroke-width="1"/></g></g></g></g></g></g></g></svg>