<svg id="e4cj3sboicqz1" xmlns="http://www.w3.org/2000/svg" xmlns:xlink="http://www.w3.org/1999/xlink" viewBox="0 0 621.300000 603" shape-rendering="geometricPrecision" text-rendering="geometricPrecision"><style><![CDATA[#e4cj3sboicqz3_ts {animation: e4cj3sboicqz3_ts__ts 3000ms linear infinite normal forwards}@keyframes e4cj3sboicqz3_ts__ts { 0% {transform: translate(313.475946px,298.608273px) scale(1,1)} 26.666667% {transform: translate(313.475946px,298.608273px) scale(1.171103,1.105263)} 50% {transform: translate(313.475946px,298.608273px) scale(1.068773,1.228535)} 73.333333% {transform: translate(313.475946px,298.608273px) scale(1.145812,0.997530)} 100% {transform: translate(313.475946px,298.608273px) scale(1,1)} }#e4cj3sboicqz6_to {animation: e4cj3sboicqz6_to__to 3000ms linear infinite normal forwards}@keyframes e4cj3sboicqz6_to__to { 0% {transform: translate(489.267313px,381.667821px)} 13.333333% {transform: translate(489.267313px,381.667821px)} 46.666667% {transform: translate(558.144192px,446.466464px)} 90% {transform: translate(489.267313px,381.667821px)} 100% {transform: translate(489.267313px,381.667821px)} }#e4cj3sboicqz6_ts {animation: e4cj3sboicqz6_ts__ts 3000ms linear infinite normal forwards}@keyframes e4cj3sboicqz6_ts__ts { 0% {transform: scale(1,1)} 13.333333% {transform: scale(1,1)} 46.666667% {transform: scale(2.096974,2.096974)} 90% {transform: scale(1,1)} 100% {transform: scale(1,1)} }#e4cj3sboicqz8_to {animation: e4cj3sboicqz8_to__to 3000ms linear infinite normal forwards}@keyframes e4cj3sboicqz8_to__to { 0% {transform: translate(468.378906px,112.233688px)} 26.666667% {transform: translate(468.378906px,112.233688px)} 53.333333% {transform: translate(544.132738px,66.652993px)} 83.333333% {transform: translate(468.378906px,112.233688px)} 100% {transform: translate(468.378906px,112.233688px)} }#e4cj3sboicqz8_ts {animation: e4cj3sboicqz8_ts__ts 3000ms linear infinite normal forwards}@keyframes e4cj3sboicqz8_ts__ts { 0% {transform: scale(1,1)} 26.666667% {transform: scale(1,1)} 53.333333% {transform: scale(1.693979,1.693979)} 83.333333% {transform: scale(1,1)} 100% {transform: scale(1,1)} }#e4cj3sboicqz10_to {animation: e4cj3sboicqz10_to__to 3000ms linear infinite normal forwards}@keyframes e4cj3sboicqz10_to__to { 0% {transform: translate(106.987660px,214.303272px)} 26.666667% {transform: translate(68.890886px,157.158110px)} 56.666667% {transform: translate(106.987660px,214.303272px)} 100% {transform: translate(106.987660px,214.303272px)} }#e4cj3sboicqz10_ts {animation: e4cj3sboicqz10_ts__ts 3000ms linear infinite normal forwards}@keyframes e4cj3sboicqz10_ts__ts { 0% {transform: scale(1,1)} 26.666667% {transform: scale(2.078564,2.078564)} 56.666667% {transform: scale(1,1)} 100% {transform: scale(1,1)} }#e4cj3sboicqz12_to {animation: e4cj3sboicqz12_to__to 3000ms linear infinite normal forwards}@keyframes e4cj3sboicqz12_to__to { 0% {transform: translate(536.803483px,263.146392px)} 30% {transform: translate(477.492821px,289.035967px)} 60% {transform: translate(536.803483px,263.146392px)} 100% {transform: translate(536.803483px,263.146392px)} }#e4cj3sboicqz12_ts {animation: e4cj3sboicqz12_ts__ts 3000ms linear infinite normal forwards}@keyframes e4cj3sboicqz12_ts__ts { 0% {transform: scale(1,1)} 30% {transform: scale(1.632373,1.632373)} 60% {transform: scale(1,1)} 100% {transform: scale(1,1)} }#e4cj3sboicqz14_to {animation: e4cj3sboicqz14_to__to 3000ms linear infinite normal forwards}@keyframes e4cj3sboicqz14_to__to { 0% {transform: translate(133.295408px,284.423260px)} 20% {transform: translate(133.295408px,284.423260px)} 50% {transform: translate(81.035251px,355.020315px)} 83.333333% {transform: translate(133.295408px,284.423260px)} 100% {transform: translate(133.295408px,284.423260px)} }#e4cj3sboicqz14_ts {animation: e4cj3sboicqz14_ts__ts 3000ms linear infinite normal forwards}@keyframes e4cj3sboicqz14_ts__ts { 0% {transform: scale(1,1)} 20% {transform: scale(1,1)} 50% {transform: scale(2.242836,2.242836)} 83.333333% {transform: scale(1,1)} 100% {transform: scale(1,1)} }#e4cj3sboicqz56 {animation: e4cj3sboicqz56_f_p 3000ms linear infinite normal forwards}@keyframes e4cj3sboicqz56_f_p { 0% {fill: rgb(242,81,81)} 23.333333% {fill: rgb(242,81,81)} 33.333333% {fill: rgb(255,255,255)} 90% {fill: rgb(255,255,255)} 100% {fill: rgb(242,81,81)} }#e4cj3sboicqz57 {animation: e4cj3sboicqz57_f_p 3000ms linear infinite normal forwards}@keyframes e4cj3sboicqz57_f_p { 0% {fill: rgb(242,81,81)} 33.333333% {fill: rgb(242,81,81)} 43.333333% {fill: rgb(255,255,255)} 90% {fill: rgb(255,255,255)} 100% {fill: rgb(242,81,81)} }#e4cj3sboicqz58 {animation: e4cj3sboicqz58_f_p 3000ms linear infinite normal forwards}@keyframes e4cj3sboicqz58_f_p { 0% {fill: rgb(242,81,81)} 43.333333% {fill: rgb(242,81,81)} 53.333333% {fill: rgb(255,255,255)} 90% {fill: rgb(255,255,255)} 100% {fill: rgb(242,81,81)} }#e4cj3sboicqz59 {animation: e4cj3sboicqz59_f_p 3000ms linear infinite normal forwards}@keyframes e4cj3sboicqz59_f_p { 0% {fill: rgb(242,81,81)} 53.333333% {fill: rgb(242,81,81)} 63.333333% {fill: rgb(255,255,255)} 90% {fill: rgb(255,255,255)} 100% {fill: rgb(242,81,81)} }#e4cj3sboicqz60_to {animation: e4cj3sboicqz60_to__to 3000ms linear infinite normal forwards}@keyframes e4cj3sboicqz60_to__to { 0% {transform: translate(300.121247px,274.357834px)} 10% {transform: translate(300.121247px,274.357834px)} 40% {transform: translate(300.121247px,488.296980px)} 73.333333% {transform: translate(299.153197px,274.357834px)} 100% {transform: translate(299.153197px,274.357834px)} }]]></style><g id="e4cj3sboicqz2"><g id="e4cj3sboicqz3_ts" transform="translate(313.475946,298.608273) scale(1,1)"><path id="e4cj3sboicqz3" d="M521,172C520.300000,82,389.100000,64.600000,299.100000,64C207.300000,63.400000,132.600000,137.700000,132.600000,229.400000C132.600000,237,133.100000,244.500000,134.100000,251.800000C138.100000,281.500000,140.300000,308.600000,114.900000,324.700000C79.300000,347.400000,63.900000,382.700000,63.900000,414.100000C64,487,156.600000,542,298,542C439.400000,542,554,482.900000,554,410C554,378.600000,532.700000,349.700000,497.100000,327C468.500000,284.800000,521,231.400000,521,172Z" transform="translate(-313.475946,-298.608273)" opacity="0.15" fill="rgb(104,104,104)" stroke="none" stroke-width="1"/></g><g id="e4cj3sboicqz4"><g id="e4cj3sboicqz5"><g id="e4cj3sboicqz6_to" transform="translate(489.267313,381.667821)"><g id="e4cj3sboicqz6_ts" transform="scale(1,1)"><path id="e4cj3sboicqz6" d="M489.400000,397.900000C488.100000,397.900000,486.800000,397.400000,485.900000,396.400000L474.900000,385.400000C472.900000,383.400000,472.900000,380.300000,474.900000,378.300000L485.900000,367.300000C487.900000,365.300000,491,365.300000,493,367.300000L504,378.300000C506,380.300000,506,383.400000,504,385.400000L493,396.400000C491.900000,397.400000,490.600000,397.900000,489.400000,397.900000ZM485.400000,381.900000L489.300000,385.800000L493.200000,381.900000L489.300000,378L485.400000,381.900000Z" transform="translate(-489.267313,-381.667821)" fill="rgb(30,30,30)" stroke="none" stroke-width="1"/></g></g></g><g id="e4cj3sboicqz7"><g id="e4cj3sboicqz8_to" transform="translate(468.378906,112.233688)"><g id="e4cj3sboicqz8_ts" transform="scale(1,1)"><path id="e4cj3sboicqz8" d="M468.500000,128.500000C467.200000,128.500000,465.900000,128,465,127L454,116C452,114,452,110.900000,454,108.900000L465,97.900000C467,95.900000,470.100000,95.900000,472.100000,97.900000L483.100000,108.900000C485.100000,110.900000,485.100000,114,483.100000,116L472.100000,127C471,128,469.700000,128.500000,468.500000,128.500000ZM464.500000,112.500000L468.400000,116.400000L472.300000,112.500000L468.400000,108.600000L464.500000,112.500000Z" transform="translate(-468.378906,-112.233688)" fill="rgb(244,0,0)" stroke="none" stroke-width="1"/></g></g></g><g id="e4cj3sboicqz9"><g id="e4cj3sboicqz10_to" transform="translate(106.987660,214.303272)"><g id="e4cj3sboicqz10_ts" transform="scale(1,1)"><path id="e4cj3sboicqz10" d="M106.900000,230.300000C105.600000,230.300000,104.300000,229.800000,103.400000,228.800000L92.100000,217.500000C91.200000,216.600000,90.600000,215.300000,90.600000,214C90.600000,212.700000,91.100000,211.400000,92.100000,210.500000L103.400000,199.200000C104.300000,198.300000,105.600000,197.700000,106.900000,197.700000C108.200000,197.700000,109.500000,198.200000,110.400000,199.200000L121.700000,210.500000C123.700000,212.500000,123.700000,215.600000,121.700000,217.600000L110.400000,228.900000C109.500000,229.800000,108.200000,230.300000,106.900000,230.300000ZM102.700000,214L106.900000,218.200000L111.100000,214L106.900000,209.800000L102.700000,214Z" transform="translate(-106.987660,-214.303272)" fill="rgb(30,30,30)" stroke="none" stroke-width="1"/></g></g></g><g id="e4cj3sboicqz11"><g id="e4cj3sboicqz12_to" transform="translate(536.803483,263.146392)"><g id="e4cj3sboicqz12_ts" transform="scale(1,1)"><path id="e4cj3sboicqz12" d="M468.500000,345.900000C461.300000,345.900000,455.500000,340.100000,455.500000,332.900000C455.500000,325.700000,461.300000,319.900000,468.500000,319.900000C475.700000,319.900000,481.500000,325.700000,481.500000,332.900000C481.500000,340.100000,475.600000,345.900000,468.500000,345.900000ZM468.500000,329.900000C466.800000,329.900000,465.500000,331.300000,465.500000,332.900000C465.500000,334.500000,466.900000,335.900000,468.500000,335.900000C470.100000,335.900000,471.500000,334.500000,471.500000,332.900000C471.500000,331.300000,470.100000,329.900000,468.500000,329.900000Z" transform="translate(-468.868033,-333.424444)" fill="rgb(255,108,108)" stroke="none" stroke-width="1"/></g></g></g><g id="e4cj3sboicqz13"><g id="e4cj3sboicqz14_to" transform="translate(133.295408,284.423260)"><g id="e4cj3sboicqz14_ts" transform="scale(1,1)"><path id="e4cj3sboicqz14" d="M133.200000,297.100000C126,297.100000,120.200000,291.300000,120.200000,284.100000C120.200000,276.900000,126,271.100000,133.200000,271.100000C140.400000,271.100000,146.200000,276.900000,146.200000,284.100000C146.200000,291.300000,140.400000,297.100000,133.200000,297.100000ZM133.200000,281.100000C131.500000,281.100000,130.200000,282.500000,130.200000,284.100000C130.200000,285.700000,131.600000,287.100000,133.200000,287.100000C134.800000,287.100000,136.200000,285.700000,136.200000,284.100000C136.200000,282.500000,134.900000,281.100000,133.200000,281.100000Z" transform="translate(-133.295408,-284.423260)" fill="rgb(244,0,0)" stroke="none" stroke-width="1"/></g></g></g><g id="e4cj3sboicqz15"><g id="e4cj3sboicqz16"><g id="e4cj3sboicqz17"><path id="e4cj3sboicqz18" d="M178.800000,512.700000C178.800000,524.200000,188.100000,533.500000,199.600000,533.500000L405.700000,533.500000C417.200000,533.500000,426.500000,524.200000,426.500000,512.700000L426.500000,120.300000C426.500000,108.800000,417.200000,99.500000,405.700000,99.500000L199.600000,99.500000C188.100000,99.500000,178.800000,108.800000,178.800000,120.300000L178.800000,512.700000Z" opacity="0.1" fill="rgb(104,104,104)" stroke="none" stroke-width="1"/><path id="e4cj3sboicqz19" d="M426.600000,93.300000L426.600000,485.600000C426.600000,497.100000,417.300000,506.400000,405.800000,506.400000L199.600000,506.400000C188.100000,506.400000,178.800000,497.100000,178.800000,485.600000L178.800000,93.300000C178.800000,81.800000,188.100000,72.500000,199.600000,72.500000L405.700000,72.500000C417.300000,72.500000,426.600000,81.800000,426.600000,93.300000L426.600000,93.300000Z" fill="rgb(63,63,63)" stroke="none" stroke-width="1"/><path id="e4cj3sboicqz20" d="M178.800000,265L178.800000,485.700000C178.800000,497.200000,188.100000,506.500000,199.600000,506.500000L405.700000,506.500000C417.200000,506.500000,426.500000,497.200000,426.500000,485.700000L426.500000,265L178.800000,265Z" fill="rgb(255,254,253)" stroke="none" stroke-width="1"/><path id="e4cj3sboicqz21" d="M370.200000,100.500000L378.700000,72.500000L226.700000,72.500000L235.200000,100.500000C236.500000,104.700000,240.400000,107.600000,244.800000,107.600000L360.700000,107.600000C365.100000,107.600000,369,104.700000,370.200000,100.500000Z" fill="rgb(58,58,58)" stroke="none" stroke-width="1"/><path id="e4cj3sboicqz22" d="M426.600000,332C429.400000,332,431.600000,329.800000,431.600000,327L431.600000,93.300000C431.600000,79.100000,420,67.500000,405.800000,67.500000L378.700000,67.500000C376.500000,67.500000,374.600000,68.900000,373.900000,71.100000L365.400000,99.100000C364.800000,101.200000,362.800000,102.700000,360.600000,102.700000L244.700000,102.700000C242.500000,102.700000,240.600000,101.300000,239.900000,99.100000L233.400000,77.500000L345,77.500000C347.800000,77.500000,350,75.300000,350,72.500000C350,69.700000,347.800000,67.500000,345,67.500000L199.600000,67.500000C185.400000,67.500000,173.800000,79.100000,173.800000,93.300000L173.800000,485.600000C173.800000,499.800000,185.400000,511.400000,199.600000,511.400000L405.700000,511.400000C419.900000,511.400000,431.500000,499.800000,431.500000,485.600000L431.500000,361C431.500000,358.200000,429.300000,356,426.500000,356C423.700000,356,421.500000,358.200000,421.500000,361L421.500000,485.700000C421.500000,494.400000,414.400000,501.500000,405.700000,501.500000L199.600000,501.500000C190.900000,501.500000,183.800000,494.400000,183.800000,485.700000L183.800000,93.300000C183.800000,84.600000,190.900000,77.500000,199.600000,77.500000L223,77.500000L230.400000,102C232.300000,108.400000,238.100000,112.700000,244.800000,112.700000L360.700000,112.700000C367.400000,112.700000,373.100000,108.400000,375.100000,102L382.500000,77.500000L405.900000,77.500000C414.600000,77.500000,421.700000,84.600000,421.700000,93.300000L421.700000,327C421.600000,329.800000,423.800000,332,426.600000,332L426.600000,332Z" fill="rgb(244,0,0)" stroke="none" stroke-width="1"/></g></g><g id="e4cj3sboicqz23"><circle id="e4cj3sboicqz24" r="4.900000" transform="matrix(1 0 0 1 258.69999999999999 90.09999999999999)" fill="rgb(255,255,255)" stroke="none" stroke-width="1"/></g><g id="e4cj3sboicqz25"><circle id="e4cj3sboicqz26" r="4.900000" transform="matrix(1 0 0 1 275 90.09999999999999)" fill="rgb(255,255,255)" stroke="none" stroke-width="1"/></g><g id="e4cj3sboicqz27"><path id="e4cj3sboicqz28" d="M343.300000,94.900000L306.100000,94.900000C303.500000,94.900000,301.400000,92.800000,301.400000,90.200000C301.400000,87.600000,303.500000,85.500000,306.100000,85.500000L343.300000,85.500000C345.900000,85.500000,348,87.600000,348,90.200000C348,92.800000,345.900000,94.900000,343.300000,94.900000Z" fill="rgb(255,255,255)" stroke="none" stroke-width="1"/></g></g><g id="e4cj3sboicqz29"><g id="e4cj3sboicqz30"><path id="e4cj3sboicqz31" d="M248.100000,212.600000L357.300000,212.600000C359.900000,212.600000,362,214.700000,362,217.300000C362,219.900000,359.900000,222,357.300000,222L248.100000,222C245.500000,222,243.400000,219.900000,243.400000,217.300000C243.400000,214.700000,245.500000,212.600000,248.100000,212.600000L248.100000,212.600000Z" fill="rgb(255,255,255)" stroke="none" stroke-width="1"/></g><g id="e4cj3sboicqz32"><path id="e4cj3sboicqz33" d="M258.600000,231.400000L346.800000,231.400000C349.400000,231.400000,351.500000,233.500000,351.500000,236.100000C351.500000,238.700000,349.400000,240.800000,346.800000,240.800000L258.600000,240.800000C256,240.800000,253.900000,238.700000,253.900000,236.100000C253.900000,233.500000,256,231.400000,258.600000,231.400000L258.600000,231.400000Z" fill="rgb(255,255,255)" stroke="none" stroke-width="1"/></g><g id="e4cj3sboicqz34"><path id="e4cj3sboicqz35" d="M278.100000,134L327.300000,134C329.900000,134,332,136.100000,332,138.700000C332,141.300000,329.900000,143.400000,327.300000,143.400000L278.100000,143.400000C275.500000,143.400000,273.400000,141.300000,273.400000,138.700000C273.400000,136.100000,275.500000,134,278.100000,134L278.100000,134Z" fill="rgb(255,255,255)" stroke="none" stroke-width="1"/></g></g><g id="e4cj3sboicqz36"><g id="e4cj3sboicqz37"><path id="e4cj3sboicqz38" d="M228.600000,318.200000C227.200000,318.200000,225.700000,317.600000,224.800000,316.400000C223,314.300000,223.300000,311.100000,225.400000,309.400000C244.400000,293.600000,268.500000,284.800000,293.400000,284.800000C310.300000,284.800000,327.200000,288.900000,342.300000,296.700000C347.400000,299.300000,352.200000,302.400000,356.800000,305.700000C359,307.300000,359.500000,310.500000,357.800000,312.700000C356.200000,314.900000,353,315.400000,350.800000,313.700000C346.700000,310.600000,342.300000,307.900000,337.700000,305.500000C324.100000,298.400000,308.800000,294.700000,293.400000,294.700000C270.900000,294.700000,249,302.600000,231.900000,316.900000C230.900000,317.800000,229.700000,318.200000,228.600000,318.200000Z" fill="rgb(30,30,30)" stroke="none" stroke-width="1"/></g><g id="e4cj3sboicqz39"><path id="e4cj3sboicqz40" d="M380,337.600000C380,337.600000,380.100000,337.600000,380,337.600000C381.900000,335.900000,382.300000,333.100000,380.900000,331.100000C379.500000,329,378,326.900000,376.400000,324.900000C374.800000,322.800000,371.800000,322.200000,369.600000,323.600000C367.100000,325.200000,366.600000,328.600000,368.400000,330.900000C369.900000,332.800000,371.300000,334.700000,372.700000,336.700000C374.400000,339.200000,377.800000,339.600000,380,337.600000L380,337.600000Z" fill="rgb(30,30,30)" stroke="none" stroke-width="1"/></g><g id="e4cj3sboicqz41"><path id="e4cj3sboicqz42" d="M365.300000,433.200000C364.500000,433.200000,363.700000,433,363,432.600000C360.500000,431.300000,359.600000,428.300000,360.900000,425.900000C380.200000,388.700000,365.700000,342.700000,328.400000,323.400000C317.600000,317.800000,305.500000,314.800000,293.300000,314.800000C269.100000,314.800000,247,325.800000,232.500000,345.100000C230.800000,347.300000,227.700000,347.800000,225.500000,346.100000C223.300000,344.400000,222.800000,341.300000,224.500000,339.100000C240.800000,317.300000,265.900000,304.800000,293.300000,304.800000C307.100000,304.800000,320.800000,308.100000,333,314.500000C375.100000,336.400000,391.600000,388.400000,369.700000,430.500000C368.800000,432.200000,367.100000,433.200000,365.300000,433.200000L365.300000,433.200000Z" fill="rgb(30,30,30)" stroke="none" stroke-width="1"/></g><g id="e4cj3sboicqz43"><path id="e4cj3sboicqz44" d="M354.400000,457.600000C353.200000,457.600000,352,457.200000,351.100000,456.300000C334.100000,441,342.500000,418.100000,342.900000,417.200000C343,417,343,416.800000,343.100000,416.700000C357.300000,389.300000,346.600000,355.400000,319.200000,341.100000C311.300000,337,302.300000,334.800000,293.400000,334.800000C272.400000,334.800000,253.300000,346.400000,243.600000,365C240.800000,370.400000,237,375.800000,232.300000,381.100000C230.500000,383.200000,227.300000,383.300000,225.200000,381.500000C223.100000,379.700000,223,376.500000,224.800000,374.400000C228.900000,369.800000,232.200000,365.100000,234.700000,360.400000C246.100000,338.400000,268.600000,324.800000,293.300000,324.800000C303.900000,324.800000,314.400000,327.400000,323.800000,332.200000C356,348.900000,368.700000,388.700000,352.100000,421C351.400000,423.100000,346.500000,438.800000,357.700000,448.900000C359.800000,450.700000,359.900000,453.900000,358.100000,456C357.100000,457,355.800000,457.600000,354.400000,457.600000L354.400000,457.600000Z" fill="rgb(255,77,77)" stroke="none" stroke-width="1"/></g><g id="e4cj3sboicqz45"><path id="e4cj3sboicqz46" d="M334.400000,474.800000C333.200000,474.800000,331.900000,474.300000,330.900000,473.400000C308.700000,452.200000,317.500000,421,325.400000,407.400000C334.500000,389.800000,327.600000,368,310,358.900000C304.900000,356.200000,299.100000,354.800000,293.400000,354.800000C280.900000,354.800000,269.500000,361.100000,262.900000,371.700000C261.400000,374,258.300000,374.700000,256,373.300000C253.700000,371.800000,253,368.700000,254.400000,366.400000C262.900000,352.900000,277.400000,344.900000,293.400000,344.900000C300.700000,344.900000,308.100000,346.700000,314.600000,350.100000C337.100000,361.800000,346,389.700000,334.300000,412.200000C334.300000,412.300000,334.200000,412.300000,334.200000,412.400000C334.200000,412.500000,329.400000,420.900000,327.600000,432C325.300000,446,328.800000,457.600000,338,466.300000C340,468.200000,340.100000,471.400000,338.200000,473.400000C337,474.200000,335.700000,474.800000,334.400000,474.800000L334.400000,474.800000Z" fill="rgb(30,30,30)" stroke="none" stroke-width="1"/></g><g id="e4cj3sboicqz47"><path id="e4cj3sboicqz48" d="M228.600000,410.200000C227.100000,410.200000,225.700000,409.600000,224.700000,408.300000C223,406.200000,223.300000,403,225.500000,401.300000C231.600000,396.400000,237,391.100000,241.700000,385.600000C243.500000,383.500000,246.600000,383.200000,248.700000,385C250.800000,386.800000,251.100000,389.900000,249.300000,392C244.200000,398,238.300000,403.800000,231.700000,409.100000C230.800000,409.800000,229.700000,410.200000,228.600000,410.200000L228.600000,410.200000Z" fill="rgb(30,30,30)" stroke="none" stroke-width="1"/></g><g id="e4cj3sboicqz49"><path id="e4cj3sboicqz50" d="M312.400000,478.500000C310.800000,478.500000,309.100000,477.700000,308.200000,476.200000C305.100000,471.400000,302.700000,464.900000,301,459.700000C297,463.500000,292.800000,467.200000,288.500000,470.700000C286.400000,472.400000,283.200000,472.100000,281.500000,470C279.800000,467.900000,280.100000,464.700000,282.200000,463C288.400000,457.900000,294.400000,452.500000,299.900000,446.800000C301.200000,445.500000,303.100000,445,304.800000,445.500000C306.600000,446,307.900000,447.400000,308.300000,449.200000C308.300000,449.300000,311.700000,463.500000,316.500000,471C318,473.300000,317.300000,476.400000,315,477.900000C314.200000,478.300000,313.300000,478.500000,312.400000,478.500000L312.400000,478.500000Z" fill="rgb(30,30,30)" stroke="none" stroke-width="1"/></g><g id="e4cj3sboicqz51"><path id="e4cj3sboicqz52" d="M261.800000,465.300000C260.300000,465.300000,258.700000,464.600000,257.800000,463.200000C256.200000,461,256.700000,457.800000,258.900000,456.200000C274,445.200000,295,426.400000,309.200000,398.900000C313.700000,390.200000,310.300000,379.400000,301.600000,374.900000C299.100000,373.600000,296.200000,372.900000,293.400000,372.900000C286.700000,372.900000,280.700000,376.600000,277.600000,382.500000C264,408.800000,240.700000,425.700000,231.400000,431.800000C229.100000,433.300000,226,432.600000,224.500000,430.300000C223,428,223.600000,424.900000,226,423.400000C234.700000,417.700000,256.300000,402,268.800000,377.900000C273.600000,368.700000,283,362.900000,293.500000,362.900000C297.900000,362.900000,302.400000,364,306.300000,366C319.900000,373.100000,325.200000,389.900000,318.200000,403.500000C303.100000,432.700000,280.900000,452.600000,264.900000,464.300000C263.900000,465,262.800000,465.300000,261.800000,465.300000L261.800000,465.300000Z" fill="rgb(30,30,30)" stroke="none" stroke-width="1"/></g><g id="e4cj3sboicqz53"><path id="e4cj3sboicqz54" d="M233.600000,457.600000C231.800000,457.600000,230.100000,456.700000,229.200000,455C227.900000,452.600000,228.800000,449.500000,231.200000,448.200000C231.800000,447.900000,270.700000,426.100000,291.700000,385.700000C293,383.200000,296,382.300000,298.400000,383.600000C300.900000,384.900000,301.800000,387.900000,300.500000,390.300000C278.100000,433.500000,237.700000,456,236,457C235.200000,457.400000,234.400000,457.600000,233.600000,457.600000Z" fill="rgb(255,77,77)" stroke="none" stroke-width="1"/></g></g><path id="e4cj3sboicqz55" d="M350.800000,195.700000L254.700000,195.700000C253,195.700000,251.700000,194.400000,251.700000,192.700000L251.700000,165.500000C251.700000,163.800000,253,162.500000,254.700000,162.500000L350.800000,162.500000C352.500000,162.500000,353.800000,163.800000,353.800000,165.500000L353.800000,192.700000C353.800000,194.300000,352.400000,195.700000,350.800000,195.700000Z" fill="rgb(242,81,81)" stroke="none" stroke-width="1"/></g></g><circle id="e4cj3sboicqz56" r="9.400000" transform="matrix(1 0 0 1 267.30000000000001 179.59999999999999)" fill="rgb(242,81,81)" stroke="none" stroke-width="1"/><circle id="e4cj3sboicqz57" r="9.400000" transform="matrix(1 0 0 1 291.89999999999998 179.50000000000000)" fill="rgb(242,81,81)" stroke="none" stroke-width="1"/><circle id="e4cj3sboicqz58" r="9.400000" transform="matrix(1 0 0 1 315.60000000000002 179.69999999999999)" fill="rgb(242,81,81)" stroke="none" stroke-width="1"/><circle id="e4cj3sboicqz59" r="9.400000" transform="matrix(1 0 0 1 338.89999999999998 179.59999999999999)" fill="rgb(242,81,81)" stroke="none" stroke-width="1"/><g id="e4cj3sboicqz60_to" transform="translate(300.121247,274.357834)"><path id="e4cj3sboicqz60" d="M248.100000,212.600000L357.300000,212.600000C359.900000,212.600000,362,214.700000,362,217.300000C362,219.900000,359.900000,222,357.300000,222L248.100000,222C245.500000,222,243.400000,219.900000,243.400000,217.300000C243.400000,214.700000,245.500000,212.600000,248.100000,212.600000L248.100000,212.600000Z" transform="scale(1.645093,1.375858) translate(-302.678264,-217.063246)" fill="rgb(255,255,255)" stroke="none" stroke-width="1"/></g><circle id="e4cj3sboicqz61" r="16.300000" transform="matrix(1 0 0 1 386 265)" fill="rgb(255,77,77)" stroke="none" stroke-width="1"/></svg>