<?xml version="1.0" encoding="iso-8859-1"?>
<!-- Generator: Adobe Illustrator 19.0.0, SVG Export Plug-In . SVG Version: 6.00 Build 0)  -->
<svg version="1.1" id="Layer_1" xmlns="http://www.w3.org/2000/svg" xmlns:xlink="http://www.w3.org/1999/xlink" x="0px" y="0px"
	 viewBox="0 0 511.998 511.998" style="enable-background:new 0 0 511.998 511.998;" xml:space="preserve">
<g>
	<g>
		<path d="M327.082,200.59l17.338-17.338c4.328-4.329,4.328-11.348,0.001-15.676c-4.329-4.329-11.346-4.328-15.676,0l-17.338,17.338
			l-15.337-15.337c-4.328-4.327-11.346-4.327-15.675,0c-4.328,4.328-4.328,11.346,0,15.676l15.337,15.337l-21.27,21.27
			l-15.337-15.337c-4.329-4.329-11.346-4.328-15.675,0c-4.328,4.328-4.329,11.346-0.001,15.675l15.337,15.337l-21.271,21.271
			l-15.337-15.337c-4.328-4.328-11.346-4.328-15.676,0c-4.328,4.328-4.328,11.346,0,15.676l15.337,15.337l-21.27,21.27
			l-15.337-15.337c-4.329-4.329-11.346-4.328-15.675,0c-4.328,4.328-4.328,11.346-0.001,15.675l15.337,15.337l-17.338,17.338
			c-4.328,4.328-4.329,11.346-0.001,15.675c2.165,2.165,5.001,3.246,7.837,3.246s5.674-1.083,7.837-3.246l17.338-17.338
			l15.337,15.337c2.165,2.165,5.001,3.246,7.837,3.246s5.674-1.083,7.837-3.246c4.328-4.328,4.329-11.346,0.001-15.675
			l-15.337-15.337l21.27-21.27l15.337,15.337c2.165,2.164,5.001,3.246,7.837,3.246s5.674-1.083,7.837-3.246
			c4.328-4.328,4.328-11.346,0-15.676l-15.337-15.336l21.271-21.271l15.337,15.337c2.165,2.165,5.001,3.246,7.837,3.246
			c2.836,0,5.674-1.083,7.837-3.246c4.328-4.328,4.328-11.346,0-15.675l-15.337-15.337l21.27-21.27l15.336,15.337
			c2.165,2.165,5.001,3.246,7.837,3.246c2.836,0,5.674-1.082,7.837-3.246c4.328-4.328,4.328-11.346,0-15.676L327.082,200.59z"/>
	</g>
</g>
<g>
	<g>
		<path d="M506.833,58.414c-4.504-27.345-25.904-48.744-53.249-53.249c-49.241-8.111-100.058-6.63-148.719,4.165
			c-0.243,0.043-0.481,0.102-0.72,0.162c-10.274,2.3-20.453,5.005-30.498,8.135c-59.754,18.615-114.887,52.005-159.44,96.559
			c-44.549,44.549-77.939,99.681-96.561,159.434c-3.075,9.868-5.741,19.866-8.016,29.956c-0.163,0.528-0.279,1.065-0.361,1.608
			C-1.463,353.74-2.927,404.44,5.148,453.574c4.498,27.366,25.907,48.775,53.273,53.273c20.937,3.442,42.151,5.152,63.37,5.151
			c28.534,0,57.065-3.112,84.893-9.253c0.587-0.082,1.17-0.205,1.741-0.381c10.089-2.274,20.085-4.94,29.951-8.014
			c59.753-18.621,114.885-52.011,159.434-96.56c44.552-44.554,77.942-99.687,96.559-159.439c3.126-10.032,5.828-20.197,8.126-30.457
			c0.065-0.256,0.128-0.512,0.174-0.771C513.463,158.464,514.943,107.65,506.833,58.414z M62.017,484.974
			c-17.977-2.954-32.04-17.018-34.995-34.995c-6.545-39.821-6.445-80.729,0.127-120.507l155.375,155.374
			C142.747,491.419,101.839,491.52,62.017,484.974z M473.206,231.757c-17.555,56.34-49.046,108.333-91.071,150.359
			c-42.022,42.022-94.014,73.513-150.354,91.071c-7.651,2.384-15.387,4.506-23.184,6.38L32.43,303.401
			c1.874-7.797,3.996-15.533,6.38-23.184c17.558-56.341,49.049-108.333,91.071-150.355c42.026-42.025,94.018-73.517,150.359-91.07
			c7.633-2.379,15.351-4.487,23.129-6.358l176.2,176.198C477.698,216.409,475.583,224.125,473.206,231.757z M484.848,182.563
			L329.435,27.15c20.037-3.312,40.357-4.989,60.685-4.989c20.04,0,40.088,1.619,59.859,4.877
			c17.964,2.958,32.021,17.016,34.979,34.979C491.519,101.847,491.425,142.769,484.848,182.563z"/>
	</g>
</g>
<g>
	<g>
		<path d="M289.086,64.774c-2-5.786-8.311-8.855-14.095-6.858c-50.334,17.387-95.2,45.548-133.353,83.701
			c-4.328,4.328-4.328,11.346,0,15.676c2.165,2.165,5.001,3.246,7.837,3.246s5.674-1.082,7.837-3.246
			c35.756-35.756,77.784-62.143,124.916-78.422C288.014,76.871,291.084,70.561,289.086,64.774z"/>
	</g>
</g>
<g>
</g>
<g>
</g>
<g>
</g>
<g>
</g>
<g>
</g>
<g>
</g>
<g>
</g>
<g>
</g>
<g>
</g>
<g>
</g>
<g>
</g>
<g>
</g>
<g>
</g>
<g>
</g>
<g>
</g>
</svg>
