<svg xmlns="http://www.w3.org/2000/svg" width="36.254" height="36.255" viewBox="0 0 36.254 36.255">
  <path id="github" d="M18.127,0A18.2,18.2,0,0,0,0,18.127c0,8.5,5.962,16.214,13.879,18.127v-6a4.365,4.365,0,0,1-4.893-2.177c-.412-.695-1.142-1.448-1.9-1.393L6.9,24.572A4.368,4.368,0,0,1,10.813,27a2.349,2.349,0,0,0,1.363,1.166,2.855,2.855,0,0,0,1.783-.155,4.979,4.979,0,0,1,1.249-2.554h0c-4.722-.7-6.6-3.209-7.35-5.186a8.318,8.318,0,0,1,1.291-7.977.285.285,0,0,0,.072-.22,6.953,6.953,0,0,1,.211-4.642c.926.274,1.077-.275,4.023,1.514l.509.306c.213.127.146.054.359.038a15.384,15.384,0,0,1,3.8-.535,15.45,15.45,0,0,1,3.857.549l.165.017c-.014,0,.045-.011.144-.07,3.68-2.229,3.548-1.5,4.535-1.821a7.072,7.072,0,0,1,.207,4.644c-.107.33,3.191,3.349,1.363,8.2-.747,1.978-2.628,4.483-7.35,5.187h0c.605.922,1.332,1.413,1.329,3.316v7.486c7.917-1.913,13.879-9.631,13.879-18.127A18.2,18.2,0,0,0,18.127,0Zm0,0" fill="#fff"/>
</svg>
