<?xml version="1.0" encoding="utf-8"?>
<!-- Generator: Adobe Illustrator 24.2.1, SVG Export Plug-In . SVG Version: 6.00 Build 0)  -->
<svg version="1.1" id="Capa_1" xmlns="http://www.w3.org/2000/svg" xmlns:xlink="http://www.w3.org/1999/xlink" x="0px" y="0px"
	 viewBox="0 0 512.1 512.1" style="enable-background:new 0 0 512.1 512.1;" xml:space="preserve">
<g>
	<path d="M246.8,462.3c-16.7-8.8-24.1-8.9-37.8,1.5c-2-0.5-4.1-1-6.1-1.6c-1.6-7,0.9-14,7.2-19.4c8.6-7.4,23.4-8.7,31.7-2.7
		C249,445.3,250.7,452.9,246.8,462.3z M308,432.3c-8-4.4-20.5-1.9-29.1,5.7c-8.3,7.4-10.9,16.6-6.9,27.6
		c11.4-14.6,24.6-21.2,41.8-12.1C316.7,442.4,314.8,436,308,432.3z M173,443c-6.3-4.9-15.8-6.2-23.8-3.8c9.9,6,20.3,11.2,31.2,15.6
		C179.6,450.3,177.2,446.3,173,443z M364.7,420.4c-10.2-1.1-17.7,4.7-23.6,12.3c-5.4,6.8-8.4,14.1-5.8,23.2c1.9-0.7,3.8-1.5,5.7-2.3
		c7.1-8.3,14.7-14.7,26-13c2.3-1.4,4.7-2.8,6.9-4.2C375.8,427.7,372.5,421.3,364.7,420.4z M351.7,381.8c0.5-9.9-2.9-16.6-11.5-19.3
		c-10.4-3.2-18.9,1.3-25.6,9c-6.7,7.7-10,16.5-7,25.6c6.2-6,11.6-12.9,18.5-17.6C334.2,373.9,343.1,376.5,351.7,381.8z M383.9,308.6
		c-0.7-9.1-2.9-16.7-11.2-20.7c-7.5-3.6-14.2-1.4-20.2,3.8c-8.3,7.2-11,17.5-7.8,28.9C356.5,299.5,367.9,295.8,383.9,308.6z
		 M372.9,388.3c9.9-21.6,18.6-26.9,34.6-20.7c0.1-13.1-6.6-20.2-16.2-17.7C377.1,353.6,367.1,374.6,372.9,388.3z M430.9,295.1
		c-0.8-3.6-0.7-6.9-2.3-9c-3.3-4.3-7.3-10.8-11.5-11.1c-4.8-0.4-11.3,3.9-14.7,8.1c-6,7.4-6.2,16.8-4.2,27
		C407.9,287.9,415.3,284.4,430.9,295.1z M420.4,200.7c-8.1,1.2-12,11.9-9.5,26.4c9.3-15.4,14.6-16.1,28.2-2.7
		C437,209,429.1,199.4,420.4,200.7z M249.6,374.1c-10.7,6.8-15,19.4-10.5,30.8c9.2-25.9,18.6-32.1,41.9-26.5
		C272.3,368.7,260.3,367.3,249.6,374.1z M176.1,378.4c-9.9,7-13,19.5-7.3,29.2c2-22.8,16.3-31.6,40.7-25
		C200.8,372.5,187,370.7,176.1,378.4z M316.9,304.8c-7.1-8.6-18.2-10.6-27.9-5.3c-11.3,6.1-17.6,22.7-11.5,33.7
		C281.2,308.3,293.8,299.5,316.9,304.8z M392.3,219.6c-5.9-6.3-12.2-8.8-19.7-4.5c-8.8,5.1-12,18-7.8,29.5
		C368.8,223.1,374.4,217.9,392.3,219.6z M426.4,138.7c0.2-0.7,0.4-1.4,0.5-2.1c-4.3-0.8-10.2-3.9-12.6-2.1
		c-7.1,5.3-4.5,13.1-2.1,22.7C413,141,415.6,138.1,426.4,138.7z M486,259.2c0,125.1-101.8,226.8-226.8,226.8
		c-125.1,0-226.8-101.8-226.8-226.8c0-74.7,36.3-141.1,92.2-182.4C162.1,48.7,208.8,32,259.2,32c48.9,0,94.2,15.7,131.1,42.3
		C448.2,115.4,486,183,486,259.2z M450.2,349c-0.1-3.7-2.1-7.7-3-11.5c-6.2,15.1-7.3,32.3-31.3,35c4.5,5.7,7.3,12.6,10.9,13
		c0.5,0.1,1,0,1.6,0C436.7,374.2,444,362,450.2,349z M465.7,302.9c1.8-8.4,3-16.9,3.8-25.6c-0.7-5.5-2.4-10.7-5.1-14.3
		c-2.5,13.3,0.7,29.9-20.4,33.9c1.2,2.8,2.2,6.5,4.2,9.5c4.1,6.1,9.6,6.3,14.5,1C463.8,306.1,464.8,304.6,465.7,302.9z M259.2,470.3
		c47.9,0,92.1-16.1,127.6-43.1c-1.6,1.2-3.2,2.4-4.9,3.6c0.4-0.8,0.9-1.6,1.3-2.3c4-6.4,8.3-14.6,14.6-17.4
		c16.5-7.5,19.3-19.1,16.5-34.3c-2.8-15.4-0.6-29,10.9-40.3c12.6-12.5,15.4-27.4,11.9-44.3c-2.6-12.6,1-23.9,9.7-33.1
		c4.9-5.3,10.7-10,16.8-13.8c2.2-1.4,4.2-2.9,5.9-4.5c-1.2-13.9-3.8-27.4-7.6-40.3c-4.5-2.7-7.7-0.3-11.7,6.5
		c-0.4-0.2-1.2-0.4-1.2-0.7c0.1-7.5-3.2-18.3,5.9-20.4c0.7-0.2,1.4-0.2,2.1-0.3c-30-80.1-107.3-137.2-197.7-137.2
		c-116.4,0-211.1,94.7-211.1,211.1c0,51.1,18.2,97.9,48.5,134.5c0.2-7.4,3.5-13.1,9.5-17c10.3-6.6,21.4-4.8,33.6,7
		c-10.8-4.7-19.4-6.4-28-1.7c-6.4,3.6-10,8.7-11.7,15.7c9.4,10.8,19.9,20.6,31.2,29.3c5.8,4.4,11.7,8.5,17.9,12.2c0,0-0.1,0-0.1,0
		C181.2,458.9,218.9,470.3,259.2,470.3z"/>
</g>
</svg>
