<svg xmlns="http://www.w3.org/2000/svg" width="56" height="56" viewBox="0 0 56 56"><defs><style>.a{fill:#fbbd00;}.b{fill:#0f9d58;}.c{fill:#31aa52;}.d{fill:#3c79e6;}.e{fill:#cf2d48;}.f{fill:#eb4132;}</style></defs><path class="a" d="M13.125,117.254a14.784,14.784,0,0,1,2.092-7.6v-9.44H5.778a28.014,28.014,0,0,0,0,34.078h9.44v-9.44A14.784,14.784,0,0,1,13.125,117.254Z" transform="translate(0 -89.254)"/><path class="b" d="M202.563,375.043,196,381.606l6.563,6.563a27.788,27.788,0,0,0,17.039-5.778v-9.43h-9.43A14.873,14.873,0,0,1,202.563,375.043Z" transform="translate(-174.563 -332.168)"/><path class="c" d="M62.263,325.477l-9.44,9.44a28.441,28.441,0,0,0,2.424,2.76,27.817,27.817,0,0,0,19.8,8.2V332.753A14.881,14.881,0,0,1,62.263,325.477Z" transform="translate(-47.045 -289.878)"/><path class="d" d="M284,203.742a28.244,28.244,0,0,0-.458-5.072l-.246-1.345H256v13.125h13.284a14.808,14.808,0,0,1-5.675,6.085l9.43,9.43a28.445,28.445,0,0,0,2.76-2.424A27.817,27.817,0,0,0,284,203.742Z" transform="translate(-228 -175.742)"/><path class="e" d="M213.081,17.482l1.16,1.16,9.281-9.281-1.16-1.16a27.817,27.817,0,0,0-19.8-8.2L196,6.562l6.563,6.563A14.778,14.778,0,0,1,213.081,17.482Z" transform="translate(-174.562)"/><path class="f" d="M75.045,13.125V0a27.817,27.817,0,0,0-19.8,8.2,28.421,28.421,0,0,0-2.424,2.76l9.44,9.44a14.881,14.881,0,0,1,12.783-7.276Z" transform="translate(-47.045 0)"/></svg>