<?xml version="1.0" encoding="utf-8"?>
<!-- Generator: Adobe Illustrator 23.0.2, SVG Export Plug-In . SVG Version: 6.00 Build 0)  -->
<svg version="1.1" id="Capa_1" xmlns="http://www.w3.org/2000/svg" xmlns:xlink="http://www.w3.org/1999/xlink" x="0px" y="0px"
	 viewBox="0 0 448 448" style="enable-background:new 0 0 448 448;" xml:space="preserve">
<g>
	<g>
		<g>
			<path d="M234.7,149.7v89.4c0,3.9,2,7.5,5.4,9.5l76.5,45.4c5.2,3.1,12,1.4,15.1-3.9l4.1-7c3.1-5.2,1.4-12-3.9-15.1l-59.8-35.5
				c-3.3-2-5.4-5.6-5.4-9.5v-73.4c0-6.1-4.9-11-11-11h-10C239.6,138.7,234.7,143.6,234.7,149.7z"/>
			<path d="M255.9,32C149.8,32,64,118,64,224H11.8c-4.4,0-6.5,5.3-3.5,8.3l74.7,69.2c2.4,2.2,6,2.1,8.4-0.1l73.3-71.6
				c2.2-2.2,0.6-5.9-2.4-5.9h-55.7c0-94.4,87.6-168.4,185.9-145c47.9,11.4,97,60.5,108.4,108.4c23.4,98.3-50.6,185.9-145,185.9
				c-39.8,0-75.8-15.7-102.5-41c-1.7-1.6-4.3-1.5-5.9,0.1l-24,24c-1.8,1.8-1.7,4.7,0.1,6.4C158,395.8,204.5,416,255.9,416
				C362,416,448,330,448,224S362,32,255.9,32z"/>
		</g>
	</g>
</g>
</svg>
