<?xml version="1.0" encoding="iso-8859-1"?>
<!-- Generator: Adobe Illustrator 19.0.0, SVG Export Plug-In . SVG Version: 6.00 Build 0)  -->
<svg version="1.1" id="Layer_1" xmlns="http://www.w3.org/2000/svg" xmlns:xlink="http://www.w3.org/1999/xlink" x="0px" y="0px"
	 viewBox="0 0 512.001 512.001" style="enable-background:new 0 0 512.001 512.001;" xml:space="preserve">
<g>
	<g>
		<g>
			<path d="M284.272,284.019l-0.965,0.349c-4.197,1.521-6.367,6.157-4.845,10.354c1.191,3.289,4.294,5.331,7.6,5.331
				c0.914,0,1.844-0.155,2.754-0.486l0.964-0.349c4.197-1.521,6.367-6.157,4.845-10.354
				C293.103,284.666,288.466,282.493,284.272,284.019z"/>
			<path d="M452.738,198.154c-2.943-3.357-8.051-3.69-11.408-0.747c-33.463,29.346-77.391,55.411-127.034,75.376
				c-4.142,1.665-6.149,6.374-4.483,10.516c1.269,3.154,4.3,5.069,7.502,5.069c1.005,0,2.026-0.189,3.015-0.586
				c51.315-20.636,96.842-47.685,131.662-78.221C455.347,206.618,455.682,201.511,452.738,198.154z"/>
			<path d="M510.124,240.028l-49.161-134.754c-0.004-0.01-0.008-0.021-0.012-0.031c-8.002-21.94-39.268-32.096-90.416-29.35
				C323.2,78.428,264.08,91.825,204.07,113.617C103.738,150.051,23.551,201.926,4.538,242.7c-4.962,10.641-5.861,20.483-2.67,29.25
				c0.003,0.008,0.006,0.016,0.009,0.024L51.049,406.76c7.151,19.598,32.854,29.789,74.721,29.788c5,0,10.24-0.146,15.696-0.438
				c47.336-2.535,106.454-15.932,166.465-37.724c100.331-36.434,180.517-88.309,199.531-129.083
				C512.428,258.652,513.324,248.802,510.124,240.028z M17.067,266.433c-1.676-4.595-0.96-10.281,2.127-16.901
				c17.048-36.559,95.342-86.2,190.396-120.718c58.557-21.264,116.021-34.324,161.813-36.777c5.067-0.272,9.928-0.405,14.571-0.405
				c33.352,0,55.322,6.897,59.791,19.152c1.676,4.595,0.96,10.281-2.127,16.901c-17.049,36.56-95.342,86.2-190.396,120.718
				C194.686,269.667,137.22,282.728,91.43,285.18C49.953,287.405,22.158,280.393,17.067,266.433z M492.81,262.472
				c-17.049,36.56-95.343,86.2-190.396,120.718c-58.556,21.264-116.021,34.324-161.811,36.777
				c-41.468,2.22-69.271-4.787-74.364-18.747L27.365,294.662c15.492,5.863,37.315,8.139,64.93,6.662
				c47.336-2.535,106.454-15.932,166.465-37.724c96.756-35.135,174.776-84.632,197.268-124.683l38.908,106.652
				C496.611,250.164,495.896,255.849,492.81,262.472z"/>
			<path d="M456.592,239.244c-21.936,19.237-49.53,37.78-79.801,53.623c-3.956,2.071-5.484,6.955-3.414,10.91
				c1.443,2.758,4.257,4.337,7.168,4.337c1.264,0,2.545-0.297,3.742-0.924c31.839-16.663,59.752-35.435,82.966-55.792
				c3.357-2.943,3.692-8.051,0.747-11.407C465.057,236.635,459.95,236.301,456.592,239.244z"/>
			<path d="M348.67,307.787l-0.965,0.35c-4.196,1.524-6.364,6.161-4.84,10.357c1.193,3.286,4.294,5.327,7.6,5.327
				c0.916,0,1.847-0.156,2.757-0.487l0.965-0.35c4.196-1.524,6.364-6.162,4.84-10.358
				C357.503,308.428,352.861,306.264,348.67,307.787z"/>
		</g>
	</g>
</g>
<g>
</g>
<g>
</g>
<g>
</g>
<g>
</g>
<g>
</g>
<g>
</g>
<g>
</g>
<g>
</g>
<g>
</g>
<g>
</g>
<g>
</g>
<g>
</g>
<g>
</g>
<g>
</g>
<g>
</g>
</svg>
