<?xml version="1.0" encoding="utf-8"?>
<!-- Generator: Adobe Illustrator 24.2.1, SVG Export Plug-In . SVG Version: 6.00 Build 0)  -->
<svg version="1.1" id="Layer_1" xmlns="http://www.w3.org/2000/svg" xmlns:xlink="http://www.w3.org/1999/xlink" x="0px" y="0px"
	 viewBox="0 0 378.7 156.7" style="enable-background:new 0 0 378.7 156.7;" xml:space="preserve">
<style type="text/css">
	.st0{fill:#111111;}
	.st1{fill:url(#SVGID_1_);}
</style>
<g>
	<path class="st0" d="M32.2,24.2c0,4.1-3.4,7.3-7.4,7.3c-4.1,0-7.4-3.2-7.4-7.3c0-4.2,3.4-7.6,7.4-7.6C28.8,16.6,32.2,20,32.2,24.2z
		 M30.1,106H19.3V49.8h10.8V106z"/>
	<path class="st0" d="M114.4,57.4h0.2c3.4-6,10.1-9.2,16.9-9.2c15.8,0,19.9,10.7,19.9,24.4V106h-10.8V73.8c0-9.6-1.3-16.1-12.4-16.1
		c-13.9,0-13.9,12.2-13.9,22.4V106h-10.8V49.8h10.8V57.4z"/>
	<path class="st0" d="M217,78c0,16.9-13.2,29.9-30,29.9c-16.8,0-30-13-30-29.9c0-16.9,13.2-29.9,30-29.9C203.8,48.2,217,61.1,217,78
		z M167.8,78c0,10.6,8.5,19.6,19.2,19.6s19.2-9,19.2-19.6c0-10.7-8.5-19.6-19.2-19.6S167.8,67.4,167.8,78z"/>
	<path class="st0" d="M232.9,56.9h0.2c3.1-4.9,8.8-8.8,14.9-8.8c7.3,0,12.6,3.7,16.2,10c3.5-6,10.2-10,17.3-10
		c14.8,0,18.6,11.5,18.6,24.2V106h-10.8V74.2c0-7.2-1-16.4-10.4-16.4c-11.5,0-12.4,12-12.4,20.6V106h-10.8V76.2
		c0-7.3-0.4-18.5-10.3-18.5c-11.5,0-12.5,11.9-12.5,20.6V106h-10.8V49.8h10.8V56.9z"/>
	<path class="st0" d="M301.2,49.8h12.6l19,35.6l17.6-35.6h12.1l-45.5,88.3h-12.2l22.1-41.8L301.2,49.8z"/>
</g>
<radialGradient id="SVGID_1_" cx="67.5" cy="78.5" r="7.5" gradientUnits="userSpaceOnUse">
	<stop  offset="0" style="stop-color:#5FD2FF"/>
	<stop  offset="1" style="stop-color:#009EFF"/>
</radialGradient>
<circle class="st1" cx="67.5" cy="78.5" r="7.5"/>
<path class="st0" d="M95.5,78.5c0-6.9-2.5-13.3-6.7-18.2c0.1-0.6,0.2-1.2,0.2-1.8c0-4.1-3.4-7.5-7.5-7.5c-1.5,0-3,0.5-4.2,1.3h0
	c-3-1.1-6.4-1.8-9.8-1.8c-13,0-24,9-27.1,21c-2.7,1.1-4.7,3.8-4.7,7s1.9,5.8,4.7,7c3.1,12.1,14.1,21,27.1,21c3.5,0,6.8-0.6,9.8-1.8
	h0c1.2,0.8,2.6,1.3,4.2,1.3c4.1,0,7.5-3.4,7.5-7.5c0-0.6-0.1-1.2-0.2-1.8C93,91.8,95.5,85.4,95.5,78.5z M47.4,84.7
	c2-1.4,3.3-3.6,3.3-6.2s-1.3-4.8-3.3-6.2c2.6-8.6,10.6-14.8,20.1-14.8c2.3,0,4.5,0.4,6.5,1c0,4.1,3.4,7.5,7.5,7.5
	c0.9,0,1.7-0.2,2.5-0.4c2.8,3.6,4.5,8.1,4.5,12.9s-1.7,9.4-4.5,12.9c-0.8-0.3-1.6-0.4-2.5-0.4c-4.1,0-7.5,3.3-7.5,7.5
	c-2,0.7-4.2,1-6.5,1C58.1,99.5,50.1,93.3,47.4,84.7z"/>
</svg>
