<?xml version="1.0" encoding="utf-8"?>
<!-- Generator: Adobe Illustrator 21.1.0, SVG Export Plug-In . SVG Version: 6.00 Build 0)  -->
<svg version="1.1" id="Layer_1" xmlns="http://www.w3.org/2000/svg" xmlns:xlink="http://www.w3.org/1999/xlink" x="0px" y="0px"
	 viewBox="0 0 512 512" style="enable-background:new 0 0 512 512;" xml:space="preserve">
<style type="text/css">
	.st0{fill:#EF0000;}
	.st1{fill:#212121;}
</style>
<g>
	<g>
		<path class="st0" d="M500.6,119.8L265.3,2.2c-5.8-2.9-12.7-2.9-18.5,0L11.4,119.8C4.4,123.3,0,130.5,0,138.3s4.4,15,11.4,18.5
			l235.3,117.7c2.9,1.5,6.1,2.2,9.3,2.2c3.2,0,6.3-0.7,9.2-2.2l235.3-117.7c7-3.5,11.4-10.7,11.4-18.5
			C512,130.5,507.6,123.3,500.6,119.8z M256,232.9L66.9,138.3L256,43.8l189.1,94.5L256,232.9z"/>
	</g>
</g>
<g>
	<g>
		<path class="st0" d="M509.8,364.4c-5.1-10.2-17.5-14.4-27.7-9.3L256,468.2l-226.1-113c-10.2-5.1-22.6-1-27.7,9.3
			c-5.1,10.2-1,22.6,9.2,27.7l235.3,117.7c2.9,1.5,6.1,2.2,9.2,2.2c3.2,0,6.3-0.7,9.3-2.2l235.3-117.7
			C510.8,387,514.9,374.6,509.8,364.4z"/>
	</g>
</g>
<g>
	<g>
		<path class="st1" d="M509.8,246.8c-5.1-10.2-17.5-14.4-27.7-9.2L256,350.5l-226.1-113c-10.2-5.1-22.6-1-27.7,9.2
			c-5.1,10.2-1,22.6,9.2,27.7l235.3,117.7c2.9,1.5,6.1,2.2,9.2,2.2c3.2,0,6.3-0.7,9.3-2.2l235.3-117.7
			C510.8,269.4,514.9,257,509.8,246.8z"/>
	</g>
</g>
</svg>
