<svg id="eken7dfcebed1" xmlns="http://www.w3.org/2000/svg" xmlns:xlink="http://www.w3.org/1999/xlink" viewBox="0 0 605.100000 600.800000" shape-rendering="geometricPrecision" text-rendering="geometricPrecision"><style><![CDATA[#eken7dfcebed3_ts {animation: eken7dfcebed3_ts__ts 3000ms linear infinite normal forwards}@keyframes eken7dfcebed3_ts__ts { 0% {transform: translate(299.396131px,303.588746px) scale(1,1)} 33.333333% {transform: translate(299.396131px,303.588746px) scale(1.097686,1.176946)} 66.666667% {transform: translate(299.396131px,303.588746px) scale(1.072158,0.922361)} 100% {transform: translate(299.396131px,303.588746px) scale(1,1)} }#eken7dfcebed22_to {animation: eken7dfcebed22_to__to 3000ms linear infinite normal forwards}@keyframes eken7dfcebed22_to__to { 0% {transform: translate(0px,0px)} 3.333333% {transform: translate(0px,0px)} 30% {transform: translate(0px,-25.672044px)} 60% {transform: translate(0px,0px)} 100% {transform: translate(0px,0px)} }#eken7dfcebed23_to {animation: eken7dfcebed23_to__to 3000ms linear infinite normal forwards}@keyframes eken7dfcebed23_to__to { 0% {transform: translate(0px,0px)} 3.333333% {transform: translate(0px,0px)} 30% {transform: translate(0px,-25.672044px)} 60% {transform: translate(0px,0px)} 100% {transform: translate(0px,0px)} }#eken7dfcebed25_to {animation: eken7dfcebed25_to__to 3000ms linear infinite normal forwards}@keyframes eken7dfcebed25_to__to { 0% {transform: translate(169.033839px,317.378234px)} 3.333333% {transform: translate(169.033839px,317.378234px)} 33.333333% {transform: translate(169.398937px,288.170396px)} 43.333333% {transform: translate(169.398937px,295.472355px)} 53.333333% {transform: translate(169.398937px,280.503338px)} 80% {transform: translate(169.033839px,294.742159px)} 93.333333% {transform: translate(169.033839px,317.378234px)} 100% {transform: translate(169.033839px,317.378234px)} }#eken7dfcebed26_to {animation: eken7dfcebed26_to__to 3000ms linear infinite normal forwards}@keyframes eken7dfcebed26_to__to { 0% {transform: translate(0px,0px)} 3.333333% {transform: translate(0px,0px)} 33.333333% {transform: translate(0.365098px,-29.207838px)} 43.333333% {transform: translate(0.365098px,-21.905879px)} 53.333333% {transform: translate(0.365098px,-36.874896px)} 80% {transform: translate(0px,-22.636075px)} 93.333333% {transform: translate(0px,0px)} 100% {transform: translate(0px,0px)} }#eken7dfcebed28_to {animation: eken7dfcebed28_to__to 3000ms linear infinite normal forwards}@keyframes eken7dfcebed28_to__to { 0% {transform: translate(0px,0px)} 26.666667% {transform: translate(0px,0px)} 50% {transform: translate(0.343886px,-23.040361px)} 76.666667% {transform: translate(0px,0px)} 100% {transform: translate(0px,0px)} }#eken7dfcebed29_to {animation: eken7dfcebed29_to__to 3000ms linear infinite normal forwards}@keyframes eken7dfcebed29_to__to { 0% {transform: translate(0px,0px)} 26.666667% {transform: translate(0px,0px)} 50% {transform: translate(0.343886px,-23.040361px)} 76.666667% {transform: translate(0px,0px)} 100% {transform: translate(0px,0px)} }#eken7dfcebed30_to {animation: eken7dfcebed30_to__to 3000ms linear infinite normal forwards}@keyframes eken7dfcebed30_to__to { 0% {transform: translate(472.169348px,135.344982px)} 16.666667% {transform: translate(472.169348px,135.344982px)} 43.333333% {transform: translate(531.133288px,90.558165px)} 70% {transform: translate(472.169348px,135.344982px)} 100% {transform: translate(472.169348px,135.344982px)} }#eken7dfcebed30_ts {animation: eken7dfcebed30_ts__ts 3000ms linear infinite normal forwards}@keyframes eken7dfcebed30_ts__ts { 0% {transform: scale(1,1)} 16.666667% {transform: scale(1,1)} 43.333333% {transform: scale(1.240749,1.329930)} 70% {transform: scale(1,1)} 100% {transform: scale(1,1)} }#eken7dfcebed33_to {animation: eken7dfcebed33_to__to 3000ms linear infinite normal forwards}@keyframes eken7dfcebed33_to__to { 0% {transform: translate(100.796203px,84.070886px)} 6.666667% {transform: translate(100.796203px,84.070886px)} 30% {transform: translate(139.610267px,123.948348px)} 66.666667% {transform: translate(100.796203px,84.070886px)} 100% {transform: translate(100.796203px,84.070886px)} }#eken7dfcebed33_ts {animation: eken7dfcebed33_ts__ts 3000ms linear infinite normal forwards}@keyframes eken7dfcebed33_ts__ts { 0% {transform: rotate(-90deg) scale(1,1)} 6.666667% {transform: rotate(-90deg) scale(1,1)} 30% {transform: rotate(-90deg) scale(1.727994,1.727994)} 66.666667% {transform: rotate(-90deg) scale(1,1)} 100% {transform: rotate(-90deg) scale(1,1)} }#eken7dfcebed35_to {animation: eken7dfcebed35_to__to 3000ms linear infinite normal forwards}@keyframes eken7dfcebed35_to__to { 0% {transform: translate(348.691527px,515.154523px)} 23.333333% {transform: translate(348.691527px,515.154523px)} 50% {transform: translate(296.953384px,561.925804px)} 80% {transform: translate(348.691527px,515.154523px)} 100% {transform: translate(348.691527px,515.154523px)} }#eken7dfcebed35_ts {animation: eken7dfcebed35_ts__ts 3000ms linear infinite normal forwards}@keyframes eken7dfcebed35_ts__ts { 0% {transform: scale(1,1)} 23.333333% {transform: scale(1,1)} 50% {transform: scale(1.771701,1.771701)} 80% {transform: scale(1,1)} 100% {transform: scale(1,1)} }#eken7dfcebed36_to {animation: eken7dfcebed36_to__to 3000ms linear infinite normal forwards}@keyframes eken7dfcebed36_to__to { 0% {transform: translate(406.609670px,103.058330px)} 33.333333% {transform: translate(464.751001px,56.012673px)} 53.333333% {transform: translate(406.609670px,103.058330px)} 66.666667% {transform: translate(430.798239px,83.751857px)} 83.333333% {transform: translate(406.609670px,103.058330px)} 100% {transform: translate(406.609670px,103.058330px)} }#eken7dfcebed36_ts {animation: eken7dfcebed36_ts__ts 3000ms linear infinite normal forwards}@keyframes eken7dfcebed36_ts__ts { 0% {transform: scale(1,1)} 33.333333% {transform: scale(1.966095,1.966095)} 53.333333% {transform: scale(1,1)} 66.666667% {transform: scale(1.588220,1.537991)} 83.333333% {transform: scale(1,1)} 100% {transform: scale(1,1)} }#eken7dfcebed41_to {animation: eken7dfcebed41_to__to 3000ms linear infinite normal forwards}@keyframes eken7dfcebed41_to__to { 0% {transform: translate(-0.938545px,0px)} 26.666667% {transform: translate(-0px,-67.575254px)} 50% {transform: translate(0.938545px,-30.971992px)} 76.666667% {transform: translate(-0px,-67.575254px)} 100% {transform: translate(-0.938545px,0px)} }#eken7dfcebed42_to {animation: eken7dfcebed42_to__to 3000ms linear infinite normal forwards}@keyframes eken7dfcebed42_to__to { 0% {transform: translate(-0.938545px,0px)} 26.666667% {transform: translate(-0px,-67.575254px)} 50% {transform: translate(0.938545px,-30.971992px)} 76.666667% {transform: translate(-0px,-67.575254px)} 100% {transform: translate(-0.938545px,0px)} }#eken7dfcebed43_to {animation: eken7dfcebed43_to__to 3000ms linear infinite normal forwards}@keyframes eken7dfcebed43_to__to { 0% {transform: translate(0px,0px)} 26.666667% {transform: translate(0.938545px,-67.575254px)} 50% {transform: translate(0.938545px,-30.971992px)} 76.666667% {transform: translate(-0px,-67.575254px)} 100% {transform: translate(-0.938545px,0px)} }]]></style><g id="eken7dfcebed2"><g id="eken7dfcebed3_ts" transform="translate(299.396131,303.588746) scale(1,1)"><path id="eken7dfcebed3" d="M459.400000,171.600000C430.500000,164.200000,434.500000,130.300000,462.400000,119.800000L483.900000,107.500000C493.100000,104,515,78.700000,481.400000,72.200000C438.900000,63.700000,363.100000,61.500000,276.800000,59.200000C216.900000,57.500000,55.300000,55.300000,48.400000,133C37.400000,256.500000,111,146.100000,129,238.200000C147,330.200000,-58.600000,410.200000,165.800000,500L393.700000,545.400000C402.500000,550.100000,411.200000,538.900000,404.400000,531.500000C395.900000,522.200000,386.600000,511.800000,377.400000,500.700000C371.600000,493.700000,373.100000,483.200000,380.700000,478.300000L390,472.200000C394.300000,469.400000,505.300000,372.800000,540.600000,278.900000C559.700000,209.200000,515.300000,185.900000,459.400000,171.600000L459.400000,171.600000Z" transform="translate(-299.396131,-303.588746)" opacity="0.25" fill="rgb(255,255,255)" stroke="none" stroke-width="1"/></g><path id="eken7dfcebed4" d="M490.900000,199.600000L400.800000,170.700000L400.800000,170.700000L400.800000,170.700000L364.400000,182.400000C353.600000,159.600000,330.500000,143.800000,303.700000,143.800000C276.900000,143.800000,253.800000,159.600000,243.100000,182.400000L206.700000,170.700000L206.700000,170.700000L206.700000,170.700000L116.500000,199.600000C112.400000,200.900000,109.600000,204.800000,109.600000,209.100000L109.600000,495.700000C109.600000,502.500000,116.200000,507.300000,122.700000,505.200000L206.700000,478.200000L206.700000,478.200000L206.700000,478.200000L303.800000,509.300000L400.900000,478.200000L400.900000,478.200000L400.900000,478.200000L484.900000,505.200000C491.400000,507.300000,498,502.500000,498,495.700000L498,209.100000C497.800000,204.800000,495,200.900000,490.900000,199.600000L490.900000,199.600000Z" opacity="0.1" fill="rgb(239,0,0)" stroke="none" stroke-width="1"/><g id="eken7dfcebed5"><g id="eken7dfcebed6"><g id="eken7dfcebed7"><g id="eken7dfcebed8"><path id="eken7dfcebed9" d="M303.700000,177.800000L303.700000,485.400000L206.600000,454.300000L206.600000,146.700000L303.700000,177.800000Z" fill="rgb(224,224,224)" stroke="none" stroke-width="1"/><path id="eken7dfcebed10" d="M303.700000,296.900000L303.700000,314.200000C278.900000,312.800000,245.400000,299.900000,246.400000,295.200000C247.500000,290.500000,272.900000,294.700000,303.700000,296.900000L303.700000,296.900000Z" opacity="0.51" fill="rgb(239,101,101)" stroke="none" stroke-width="1"/><path id="eken7dfcebed11" d="M303.700000,361.300000L303.700000,485.400000L206.600000,454.300000L206.600000,294.100000C206.600000,285.900000,216,281.200000,222.600000,286.100000L241.500000,300.200000C243.100000,301.400000,244.100000,303.400000,244.100000,305.400000L244.100000,321.400000C244.100000,324.500000,246.300000,327.200000,249.400000,327.800000L264.700000,330.800000C267.500000,331.400000,269.700000,333.700000,269.900000,336.600000L271.200000,349.800000C271.500000,352.600000,273.600000,355,276.400000,355.600000L303.700000,361.300000Z" fill="rgb(153,153,153)" stroke="none" stroke-width="1"/><g id="eken7dfcebed12"><path id="eken7dfcebed13" d="M206.600000,454.200000L122.600000,481.200000C116.100000,483.300000,109.500000,478.500000,109.500000,471.700000L109.500000,185.100000C109.500000,180.800000,112.300000,176.900000,116.400000,175.600000L206.500000,146.700000L206.600000,454.200000L206.600000,454.200000Z" fill="rgb(255,255,255)" stroke="none" stroke-width="1"/><g id="eken7dfcebed14"><path id="eken7dfcebed15" d="M400.800000,146.700000L400.800000,454.300000L303.700000,485.400000L303.700000,177.800000L400.800000,146.700000Z" fill="rgb(255,255,255)" stroke="none" stroke-width="1"/><path id="eken7dfcebed16" d="M400.800000,376.600000L400.800000,454.200000L303.700000,485.400000L303.700000,361.300000L340.800000,346.300000C343.300000,345.300000,344.900000,342.900000,344.900000,340.200000L344.900000,318.800000C344.900000,317,345.700000,315.200000,347,314L352.400000,309C355.100000,306.500000,359.300000,306.700000,361.700000,309.500000L379.800000,329.900000C380.900000,331.100000,381.400000,332.600000,381.400000,334.200000L381.400000,354.600000C381.400000,356.300000,382.100000,358,383.300000,359.200000L400.800000,376.600000Z" fill="rgb(181,181,181)" stroke="none" stroke-width="1"/><path id="eken7dfcebed17" d="M400.800000,454.200000L484.800000,481.200000C491.300000,483.300000,497.900000,478.500000,497.900000,471.700000L497.900000,185.100000C497.900000,180.800000,495.100000,176.900000,491,175.600000L400.900000,146.700000L400.800000,454.200000L400.800000,454.200000Z" fill="rgb(224,224,224)" stroke="none" stroke-width="1"/></g></g><path id="eken7dfcebed18" d="M303.700000,296.900000L303.700000,314.200000C328.500000,312.800000,362,299.900000,361,295.200000C360,290.500000,334.500000,294.700000,303.700000,296.900000L303.700000,296.900000Z" fill="rgb(255,220,220)" stroke="none" stroke-width="1"/><path id="eken7dfcebed19" d="M206.600000,294.300000L206.600000,420.500000L188.300000,406.600000C186.300000,405.100000,185.400000,402.600000,185.800000,400.200000L192.800000,363.700000C193.200000,361.400000,192.400000,359.100000,190.700000,357.600000L181.800000,349.600000C179.400000,347.500000,175.900000,347.400000,173.400000,349.300000L163.100000,357.300000C160.300000,359.500000,156.300000,359,154.100000,356.300000L144,344.200000C142.600000,342.500000,142.100000,340.300000,142.700000,338.200000L147.900000,320.500000C148.300000,319.200000,149.100000,318,150.200000,317.100000L190.700000,286.200000C197.100000,281.400000,206.600000,286.100000,206.600000,294.300000L206.600000,294.300000Z" fill="rgb(181,181,181)" stroke="none" stroke-width="1"/><path id="eken7dfcebed20" d="M468.300000,403.700000L468.300000,411.800000C468.300000,413.700000,467.400000,415.600000,465.900000,416.800000L453.100000,427.400000C450.800000,429.300000,447.600000,429.400000,445.200000,427.800000L433.200000,419.500000C431.500000,418.300000,430.500000,416.400000,430.400000,414.400000C430.200000,409.500000,424.900000,406.500000,420.600000,409L400.800000,420.500000L400.800000,376.600000L436.600000,364.700000C438.500000,364.100000,440.600000,364.300000,442.300000,365.500000L448.100000,369.400000C448.900000,369.900000,449.600000,370.700000,450.100000,371.500000L467.400000,400.500000C468,401.400000,468.300000,402.600000,468.300000,403.700000L468.300000,403.700000Z" fill="rgb(153,153,153)" stroke="none" stroke-width="1"/></g><g id="eken7dfcebed21"><g id="eken7dfcebed22_to" transform="translate(0,0)"><path id="eken7dfcebed22" d="M442.400000,358.600000C442.400000,366.100000,431.800000,380.500000,427.200000,386.400000C426.200000,387.700000,424.200000,387.700000,423.100000,386.400000C418.500000,380.500000,407.900000,366.100000,407.900000,358.600000C407.900000,349.100000,415.600000,341.400000,425.100000,341.400000C434.600000,341.400000,442.400000,349.100000,442.400000,358.600000L442.400000,358.600000Z" transform="translate(0,0)" fill="rgb(239,0,0)" stroke="none" stroke-width="1"/></g><g id="eken7dfcebed23_to" transform="translate(0,0)"><circle id="eken7dfcebed23" r="7.200000" transform="translate(425.200000,358.400000)" fill="rgb(255,255,255)" stroke="none" stroke-width="1"/></g></g><g id="eken7dfcebed24"><g id="eken7dfcebed25_to" transform="translate(169.033839,317.378234)"><path id="eken7dfcebed25" d="M186.200000,311.500000C186.200000,319,175.600000,333.400000,171,339.300000C170,340.600000,168,340.600000,166.900000,339.300000C162.300000,333.400000,151.700000,319,151.700000,311.500000C151.700000,302,159.400000,294.300000,168.900000,294.300000C178.400000,294.300000,186.200000,302,186.200000,311.500000Z" transform="translate(-169.033839,-317.378234)" fill="rgb(239,0,0)" stroke="none" stroke-width="1"/></g><g id="eken7dfcebed26_to" transform="translate(0,0)"><circle id="eken7dfcebed26" r="7.200000" transform="translate(169,311.400000)" fill="rgb(255,255,255)" stroke="none" stroke-width="1"/></g></g><g id="eken7dfcebed27"><g id="eken7dfcebed28_to" transform="translate(0,0)"><path id="eken7dfcebed28" d="M284.200000,410C284.200000,417.500000,273.600000,431.900000,269,437.800000C268,439.100000,266,439.100000,264.900000,437.800000C260.300000,431.900000,249.700000,417.500000,249.700000,410C249.700000,400.500000,257.400000,392.800000,266.900000,392.800000C276.400000,392.800000,284.200000,400.500000,284.200000,410Z" transform="translate(0,0)" fill="rgb(239,0,0)" stroke="none" stroke-width="1"/></g><g id="eken7dfcebed29_to" transform="translate(0,0)"><circle id="eken7dfcebed29" r="7.200000" transform="translate(267,409.800000)" fill="rgb(255,255,255)" stroke="none" stroke-width="1"/></g></g></g><g id="eken7dfcebed30_to" transform="translate(472.169348,135.344982)"><g id="eken7dfcebed30_ts" transform="scale(1,1)"><path id="eken7dfcebed30" d="M478.800000,137.500000L477.100000,137.500000L482.400000,132.200000C484.400000,130.200000,484.400000,127.100000,482.400000,125.100000C480.400000,123.100000,477.300000,123.100000,475.300000,125.100000L470,130.400000L470,128.700000C470,125.900000,467.800000,123.700000,465,123.700000C462.200000,123.700000,460,125.900000,460,128.700000L460,142.500000C460,145.300000,462.200000,147.500000,465,147.500000L478.800000,147.500000C481.600000,147.500000,483.800000,145.300000,483.800000,142.500000C483.800000,139.700000,481.600000,137.500000,478.800000,137.500000Z" transform="translate(-472.169348,-135.344982)" fill="rgb(239,101,101)" stroke="none" stroke-width="1"/></g></g><g id="eken7dfcebed31"><path id="eken7dfcebed32" d="M406.700000,497.400000L405,497.400000L410.300000,492.100000C412.300000,490.100000,412.300000,487,410.300000,485C408.300000,483,405.200000,483,403.200000,485L397.900000,490.300000L397.900000,488.600000C397.900000,485.800000,395.700000,483.600000,392.900000,483.600000C390.100000,483.600000,387.900000,485.800000,387.900000,488.600000L387.900000,502.400000C387.900000,505.200000,390.100000,507.400000,392.900000,507.400000L406.700000,507.400000C409.500000,507.400000,411.700000,505.200000,411.700000,502.400000C411.700000,499.600000,409.500000,497.400000,406.700000,497.400000Z" fill="rgb(239,101,101)" stroke="none" stroke-width="1"/><g id="eken7dfcebed33_to" transform="translate(100.796203,84.070886)"><g id="eken7dfcebed33_ts" transform="rotate(-90) scale(1,1)"><path id="eken7dfcebed33" d="M167.600000,113.200000C165.600000,111.200000,162.500000,111.200000,160.500000,113.200000L155.200000,118.500000L155.200000,116.800000C155.200000,114,153,111.800000,150.200000,111.800000C147.400000,111.800000,145.200000,114,145.200000,116.800000L145.200000,130.600000C145.200000,133.400000,147.400000,135.600000,150.200000,135.600000L164,135.600000C166.800000,135.600000,169,133.400000,169,130.600000C169,127.800000,166.800000,125.600000,164,125.600000L162.300000,125.600000L167.600000,120.300000C169.500000,118.300000,169.500000,115.100000,167.600000,113.200000Z" transform="translate(-157.245845,-123.762041)" fill="rgb(239,101,101)" stroke="none" stroke-width="1"/></g></g></g><g id="eken7dfcebed34"><g id="eken7dfcebed35_to" transform="translate(348.691527,515.154523)"><g id="eken7dfcebed35_ts" transform="scale(1,1)"><path id="eken7dfcebed35" d="M355.500000,503.300000L341.700000,503.300000C338.900000,503.300000,336.700000,505.500000,336.700000,508.300000C336.700000,511.100000,338.900000,513.300000,341.700000,513.300000L343.400000,513.300000L338.100000,518.600000C336.100000,520.600000,336.100000,523.700000,338.100000,525.700000C339.100000,526.700000,340.400000,527.200000,341.600000,527.200000C342.800000,527.200000,344.200000,526.700000,345.100000,525.700000L350.400000,520.400000L350.400000,522.100000C350.400000,524.900000,352.600000,527.100000,355.400000,527.100000C358.200000,527.100000,360.400000,524.900000,360.400000,522.100000L360.400000,508.300000C360.500000,505.500000,358.300000,503.300000,355.500000,503.300000Z" transform="translate(-348.691527,-515.154523)" fill="rgb(239,0,0)" stroke="none" stroke-width="1"/></g></g><g id="eken7dfcebed36_to" transform="translate(406.609670,103.058330)"><g id="eken7dfcebed36_ts" transform="scale(1,1)"><path id="eken7dfcebed36" d="M413.100000,91L399.300000,91C396.500000,91,394.300000,93.200000,394.300000,96C394.300000,98.800000,396.500000,101,399.300000,101L401,101L395.700000,106.300000C393.700000,108.300000,393.700000,111.400000,395.700000,113.400000C396.700000,114.400000,398,114.900000,399.200000,114.900000C400.400000,114.900000,401.800000,114.400000,402.700000,113.400000L408,108.100000L408,109.800000C408,112.600000,410.200000,114.800000,413,114.800000C415.800000,114.800000,418,112.600000,418,109.800000L418,96C418.100000,93.300000,415.900000,91,413.100000,91Z" transform="translate(-406.609670,-103.058330)" fill="rgb(239,0,0)" stroke="none" stroke-width="1"/></g></g></g></g></g></g><path id="eken7dfcebed37" d="M240.700000,152.100000C240.700000,152.200000,240.600000,152.200000,240.600000,152.300000L214,143.800000L214,143.600000L240.700000,152.100000Z" fill="rgb(239,0,0)" stroke="none" stroke-width="1"/><path id="eken7dfcebed38" d="M492.600000,364L492.600000,184.900000C492.600000,182.700000,491.200000,180.800000,489.100000,180.100000L400.500000,151.700000L394.400000,153.700000L394.400000,153.900000L305.400000,182.500000C304.900000,182.600000,304.400000,182.700000,303.900000,182.700000C303.400000,182.700000,302.900000,182.700000,302.400000,182.500000L236.500000,161.300000C236.500000,161.300000,236.500000,161.300000,236.500000,161.300000L234.600000,160.800000L206.600000,151.800000L118,180.300000C115.900000,181,114.500000,182.900000,114.500000,185.100000L114.500000,471.700000C114.500000,473.300000,115.300000,474.800000,116.600000,475.700000C117.900000,476.600000,119.600000,476.900000,121.100000,476.400000L205.100000,449.400000C206.100000,449.100000,207.200000,449.100000,208.200000,449.400000L303.700000,480.100000L399.100000,449.400000C400.100000,449.100000,401.200000,449.100000,402.200000,449.400000L486.200000,476.400000C487.800000,476.900000,489.300000,476.600000,490.700000,475.700000C492.100000,474.800000,492.800000,473.300000,492.800000,471.700000L492.800000,400.500000C492.800000,397.700000,495,395.500000,497.800000,395.500000C500.600000,395.500000,502.800000,397.700000,502.800000,400.500000L502.800000,471.700000C502.800000,476.500000,500.500000,480.900000,496.600000,483.800000C492.700000,486.700000,487.800000,487.500000,483.200000,486L400.700000,459.500000L305.200000,490.200000C304.700000,490.300000,304.200000,490.400000,303.700000,490.400000C303.200000,490.400000,302.700000,490.400000,302.200000,490.200000L206.700000,459.500000L124.200000,486C119.600000,487.400000,114.700000,486.700000,110.800000,483.800000C106.800000,481,104.600000,476.500000,104.600000,471.700000L104.600000,185.100000C104.600000,178.500000,108.800000,172.800000,115,170.800000L205.100000,141.900000C206.100000,141.600000,207.200000,141.600000,208.200000,141.900000L214,143.800000L240.600000,152.300000C240.600000,152.200000,240.700000,152.200000,240.700000,152.100000L240.800000,152.100000L303.800000,172.400000L394.300000,143.300000L394.300000,143.500000L399.100000,142C400.100000,141.700000,401.200000,141.700000,402.200000,142L492.300000,170.900000C498.500000,172.900000,502.700000,178.700000,502.700000,185.200000L502.700000,364.300000C502.700000,367.100000,500.500000,369.300000,497.700000,369.300000C495.100000,369.200000,492.800000,366.900000,492.600000,364Z" fill="rgb(239,0,0)" stroke="none" stroke-width="1"/><g id="eken7dfcebed39"><g id="eken7dfcebed40"><g id="eken7dfcebed41_to" transform="translate(-0.938545,0)"><path id="eken7dfcebed41" d="M370.600000,186.700000C370.600000,215.700000,329.300000,272,311.600000,294.800000C307.600000,300,299.800000,300,295.800000,294.800000C278.100000,272,236.800000,215.700000,236.800000,186.700000C236.800000,149.700000,266.800000,119.800000,303.700000,119.800000C340.600000,119.800000,370.600000,149.800000,370.600000,186.700000L370.600000,186.700000Z" transform="translate(0,0)" fill="rgb(239,101,101)" stroke="none" stroke-width="1"/></g></g><g id="eken7dfcebed42_to" transform="translate(-0.938545,0)"><circle id="eken7dfcebed42" r="27.900000" transform="translate(303.700000,186.300000)" fill="rgb(255,255,255)" stroke="none" stroke-width="1"/></g></g><g id="eken7dfcebed43_to" transform="translate(0,0)"><path id="eken7dfcebed43" d="M375.500000,186.600000C375.500000,199.300000,367.700000,230.500000,315.400000,297.800000C312.600000,301.500000,308.200000,303.600000,303.600000,303.600000C300.400000,303.600000,297.300000,302.600000,294.800000,300.700000C294.400000,300.400000,294,300.100000,293.600000,299.700000C293,299.100000,292.400000,298.500000,291.800000,297.800000C286,290.200000,277.100000,278.400000,268,265.100000C266.400000,262.900000,267,259.800000,269.300000,258.200000C271.100000,256.900000,273.600000,257.100000,275.300000,258.500000C275.600000,258.800000,276,259.100000,276.200000,259.500000C285.200000,272.700000,293.900000,284.300000,299.700000,291.700000C299.800000,291.800000,299.900000,292,300,292.100000C300.100000,292.200000,300.200000,292.300000,300.400000,292.400000C301.300000,293.200000,302.400000,293.600000,303.600000,293.600000C305.200000,293.600000,306.600000,292.900000,307.600000,291.700000C321.200000,274.200000,365.600000,214.900000,365.600000,186.700000C365.600000,178.900000,364.100000,171.500000,361.500000,164.600000C360.300000,161.400000,358.800000,158.300000,357.100000,155.400000C355.100000,151.900000,352.700000,148.700000,350,145.700000C349.800000,145.500000,349.600000,145.200000,349.400000,145C349.100000,144.600000,348.700000,144.300000,348.400000,143.900000C348.100000,143.500000,347.700000,143.200000,347.400000,142.800000C346.900000,142.300000,346.400000,141.800000,345.900000,141.400000C345.600000,141.100000,345.200000,140.800000,344.900000,140.400000C344.700000,140.200000,344.400000,140,344.200000,139.700000C343.400000,139,342.500000,138.300000,341.600000,137.600000C340.900000,137.100000,340.300000,136.600000,339.600000,136.100000C339.300000,135.900000,339,135.700000,338.600000,135.400000C328.700000,128.600000,316.700000,124.700000,303.800000,124.700000C281.100000,124.700000,261.300000,137,250.500000,155.200000C248.800000,158.100000,247.300000,161.200000,246.100000,164.400000C243.400000,171.300000,241.900000,178.800000,241.900000,186.700000C241.900000,196.200000,247.200000,210.900000,257.400000,229.200000C258.800000,231.600000,257.900000,234.700000,255.500000,236C253.700000,237.100000,251.400000,236.800000,249.900000,235.500000C249.900000,235.500000,249.800000,235.400000,249.700000,235.400000C249.300000,235,248.900000,234.600000,248.700000,234.100000C237.500000,214.100000,231.900000,198.200000,231.900000,186.800000C231.900000,177.900000,233.500000,169.400000,236.500000,161.500000C236.500000,161.500000,236.500000,161.400000,236.600000,161.400000C239.100000,155.400000,240.400000,153,240.800000,152.400000L240.800000,152.400000C240.800000,152.400000,240.800000,152.300000,240.800000,152.300000C240.800000,152.300000,240.800000,152.200000,240.800000,152.200000C240.800000,152.200000,240.800000,152.200000,240.800000,152.200000C253,130,276.700000,114.900000,303.800000,114.900000C319.500000,114.900000,334,119.900000,345.800000,128.500000C346.100000,128.700000,346.500000,129,346.800000,129.300000C347.400000,129.800000,348,130.200000,348.600000,130.700000C349.900000,131.700000,351.100000,132.800000,352.400000,133.900000C353.100000,134.600000,353.800000,135.200000,354.500000,135.900000C359.300000,140.700000,363.500000,146.200000,366.800000,152.200000C366.800000,152.200000,366.800000,152.300000,366.900000,152.300000C366.900000,152.300000,368.300000,154.300000,370.900000,161.100000C370.900000,161.100000,370.900000,161.200000,370.900000,161.200000C370.900000,161.300000,371,161.400000,371,161.400000L371,161.400000C371,161.400000,371,161.400000,371,161.500000C373.900000,169.400000,375.500000,177.800000,375.500000,186.600000Z" transform="translate(0,0)" fill="rgb(239,0,0)" stroke="none" stroke-width="1"/></g></svg>