<svg xmlns="http://www.w3.org/2000/svg" width="113.715" height="126.537" viewBox="0 0 113.715 126.537"><defs><style>.a,.i{fill:#ef0000;}.a{opacity:0.1;}.b{fill:#e0e0e0;}.c,.h{fill:#ef6565;}.c{opacity:0.51;}.d{fill:#999;}.e{fill:#fff;}.f{fill:#b5b5b5;}.g{fill:#ffdcdc;}</style></defs><g transform="translate(-16.278 -19.334)"><path class="a" d="M170.789,113.135l-25.73-8.253h0l-10.395,3.341a19.119,19.119,0,0,0-34.64,0l-10.395-3.341h0L63.87,113.135a2.855,2.855,0,0,0-1.97,2.713v81.845a2.852,2.852,0,0,0,3.741,2.713l23.988-7.71h0l27.729,8.881,27.729-8.881h0l23.988,7.71a2.852,2.852,0,0,0,3.741-2.713V115.848a2.985,2.985,0,0,0-2.028-2.713Z" transform="translate(-44.194 -60.817)"/><g transform="translate(16.278 19.334)"><g transform="translate(0 8.767)"><g transform="translate(1.399 9.11)"><path class="b" d="M186.629,108.981v87.842L158.9,187.942V100.1Z" transform="translate(-131.171 -100.1)"/><path class="c" d="M215.048,247.559v4.94c-7.082-.4-16.649-4.084-16.363-5.426.314-1.342,7.568-.143,16.363.485Z" transform="translate(-159.589 -204.666)"/><path class="d" d="M186.629,259.552v35.44L158.9,286.11V240.361a2.862,2.862,0,0,1,4.569-2.285l5.4,4.027a1.894,1.894,0,0,1,.742,1.485v4.569a1.864,1.864,0,0,0,1.514,1.828l4.369.857a1.85,1.85,0,0,1,1.485,1.656l.371,3.77a1.913,1.913,0,0,0,1.485,1.656Z" transform="translate(-131.171 -198.268)"/><path class="e" d="M89.529,187.914l-23.988,7.71a2.852,2.852,0,0,1-3.741-2.713V111.066a2.855,2.855,0,0,1,1.97-2.713L89.5,100.1l.029,87.814Z" transform="translate(-61.8 -100.1)"/><g transform="translate(55.458)"><path class="e" d="M283.729,100.1v87.842L256,196.824V108.981Z" transform="translate(-256 -100.1)"/><path class="f" d="M283.729,280.457v22.16L256,311.528v-35.44l10.595-4.284a1.863,1.863,0,0,0,1.171-1.742v-6.111a1.9,1.9,0,0,1,.6-1.371l1.542-1.428a1.84,1.84,0,0,1,2.656.143l5.169,5.826a1.775,1.775,0,0,1,.457,1.228v5.826a1.883,1.883,0,0,0,.543,1.314Z" transform="translate(-256 -214.804)"/><path class="b" d="M353.1,187.914l23.988,7.71a2.852,2.852,0,0,0,3.741-2.713V111.066a2.855,2.855,0,0,0-1.97-2.713l-25.73-8.253-.029,87.814Z" transform="translate(-325.371 -100.1)"/></g><path class="g" d="M256,247.559v4.94c7.082-.4,16.649-4.084,16.363-5.426s-7.568-.143-16.363.485Z" transform="translate(-200.542 -204.666)"/><path class="f" d="M113.07,240.535v36.039l-5.226-3.969a1.891,1.891,0,0,1-.714-1.828l2-10.423a1.884,1.884,0,0,0-.6-1.742l-2.542-2.285a1.9,1.9,0,0,0-2.4-.086l-2.941,2.285a1.846,1.846,0,0,1-2.57-.286l-2.884-3.455a1.868,1.868,0,0,1-.371-1.713l1.485-5.055a2.038,2.038,0,0,1,.657-.971l11.566-8.824a2.868,2.868,0,0,1,4.541,2.313Z" transform="translate(-85.341 -198.384)"/><path class="d" d="M372.376,329v2.313a1.858,1.858,0,0,1-.685,1.428l-3.655,3.027a1.889,1.889,0,0,1-2.256.114l-3.427-2.37a1.9,1.9,0,0,1-.8-1.456,1.862,1.862,0,0,0-2.8-1.542L353.1,333.8V321.264l10.224-3.4a1.839,1.839,0,0,1,1.628.228l1.656,1.114a1.91,1.91,0,0,1,.571.6l4.94,8.282a1.7,1.7,0,0,1,.257.914Z" transform="translate(-269.913 -255.611)"/></g><path class="h" d="M227.31,92.3c0,8.282-11.794,24.359-16.849,30.87a2.842,2.842,0,0,1-4.512,0c-5.055-6.511-16.849-22.589-16.849-30.87a19.1,19.1,0,0,1,38.21,0Z" transform="translate(-151.347 -71.772)"/><path class="i" d="M169.187,140.85a1.414,1.414,0,0,0,1.428-1.428V88.276a4.3,4.3,0,0,0-2.97-4.084l-25.73-8.253a1.557,1.557,0,0,0-.885,0l-9.253,2.97a20.515,20.515,0,0,0-36.039,0l-9.253-2.97a1.557,1.557,0,0,0-.885,0L59.87,84.192a4.269,4.269,0,0,0-2.97,4.084v81.845a4.174,4.174,0,0,0,1.771,3.455,4.262,4.262,0,0,0,3.827.628l23.56-7.568,27.272,8.767a1.11,1.11,0,0,0,.428.057,2.2,2.2,0,0,0,.428-.057l27.272-8.767,23.56,7.568a4.178,4.178,0,0,0,3.827-.628,4.289,4.289,0,0,0,1.771-3.455V149.788a1.428,1.428,0,0,0-2.856,0v20.333a1.325,1.325,0,0,1-.6,1.142,1.472,1.472,0,0,1-1.285.2l-23.988-7.71a1.557,1.557,0,0,0-.885,0l-27.244,8.767-27.272-8.767a1.557,1.557,0,0,0-.885,0l-23.988,7.71a1.472,1.472,0,0,1-1.285-.2,1.4,1.4,0,0,1-.6-1.142V88.276a1.44,1.44,0,0,1,1-1.371l25.3-8.11,8.482,2.713A20.271,20.271,0,0,0,93.2,88.733c0,3.256,1.6,7.8,4.8,13.508a1.426,1.426,0,0,0,2.484-1.4c-2.913-5.226-4.426-9.424-4.426-12.137a17.677,17.677,0,1,1,35.354,0c0,8.053-12.679,24.988-16.563,29.985a1.463,1.463,0,0,1-1.142.543,1.367,1.367,0,0,1-1.114-.543c-1.656-2.113-4.141-5.426-6.711-9.2a1.418,1.418,0,1,0-2.342,1.6c2.6,3.8,5.14,7.168,6.8,9.338a4.256,4.256,0,0,0,6.74,0c14.935-19.219,17.163-28.129,17.163-31.756a20.271,20.271,0,0,0-1.314-7.225l8.482-2.713,25.3,8.11a1.44,1.44,0,0,1,1,1.371v51.146a1.552,1.552,0,0,0,1.485,1.485Z" transform="translate(-56.9 -68.2)"/><circle class="e" cx="7.967" cy="7.967" r="7.967" transform="translate(48.89 12.451)"/><g transform="translate(67.167 73.849)"><path class="i" d="M301.952,331.712c0,2.142-3.027,6.254-4.341,7.939a.755.755,0,0,1-1.171,0c-1.314-1.685-4.341-5.8-4.341-7.939a4.926,4.926,0,0,1,9.852,0Z" transform="translate(-292.1 -326.8)"/><circle class="e" cx="2.056" cy="2.056" r="2.056" transform="translate(2.884 2.799)"/></g><g transform="translate(34.469 57.457)"><path class="i" d="M187.452,274.312c0,2.142-3.027,6.254-4.341,7.939a.755.755,0,0,1-1.171,0c-1.314-1.685-4.341-5.8-4.341-7.939a4.926,4.926,0,0,1,9.852,0Z" transform="translate(-177.6 -269.4)"/><circle class="e" cx="2.056" cy="2.056" r="2.056" transform="translate(2.884 2.827)"/></g><g transform="translate(41.437 79.389)"><path class="i" d="M211.852,351.112c0,2.142-3.027,6.254-4.341,7.939a.755.755,0,0,1-1.171,0c-1.314-1.685-4.341-5.8-4.341-7.939a4.926,4.926,0,0,1,9.852,0Z" transform="translate(-202 -346.2)"/><circle class="e" cx="2.056" cy="2.056" r="2.056" transform="translate(2.884 2.799)"/></g></g><path class="h" d="M353.669,61.069h-.485l1.514-1.514a1.434,1.434,0,0,0-2.028-2.028l-1.514,1.514v-.485a1.428,1.428,0,1,0-2.856,0V62.5a1.414,1.414,0,0,0,1.428,1.428h3.941a1.428,1.428,0,0,0,0-2.856Z" transform="translate(-265.084 -51.503)"/><g transform="translate(11.594 7.882)"><path class="h" d="M345.569,440.869h-.486l1.514-1.514a1.434,1.434,0,0,0-2.028-2.028l-1.514,1.514v-.485a1.428,1.428,0,1,0-2.856,0V442.3a1.414,1.414,0,0,0,1.428,1.428h3.941a1.428,1.428,0,0,0,0-2.856Z" transform="translate(-270.891 -330.724)"/><path class="h" d="M103.9,65.528a1.414,1.414,0,0,0-2.028,0l-1.514,1.514v-.485a1.428,1.428,0,1,0-2.856,0V70.5a1.414,1.414,0,0,0,1.428,1.428h3.941a1.428,1.428,0,0,0,0-2.856h-.485l1.514-1.514A1.466,1.466,0,0,0,103.9,65.528Z" transform="translate(-97.5 -65.1)"/></g><g transform="translate(66.253)"><path class="i" d="M294.3,456.7h-3.941a1.428,1.428,0,1,0,0,2.856h.485l-1.514,1.514a1.414,1.414,0,0,0,0,2.028,1.434,1.434,0,0,0,1,.428,1.386,1.386,0,0,0,1-.428l1.514-1.514v.485a1.428,1.428,0,0,0,2.856,0v-3.941A1.373,1.373,0,0,0,294.3,456.7Z" transform="translate(-288.9 -336.988)"/><path class="i" d="M308.8,37.5h-3.941a1.428,1.428,0,0,0,0,2.856h.485l-1.514,1.514a1.414,1.414,0,0,0,0,2.028,1.434,1.434,0,0,0,1,.428,1.385,1.385,0,0,0,1-.428l1.514-1.514v.485a1.428,1.428,0,1,0,2.856,0V38.928A1.39,1.39,0,0,0,308.8,37.5Z" transform="translate(-299.259 -37.5)"/></g></g></g></svg>