<?xml version="1.0" encoding="utf-8"?>
<!-- Generator: Adobe Illustrator 25.2.0, SVG Export Plug-In . SVG Version: 6.00 Build 0)  -->
<svg version="1.1" xmlns="http://www.w3.org/2000/svg" xmlns:xlink="http://www.w3.org/1999/xlink" x="0px" y="0px"
	 viewBox="0 0 500 123" style="enable-background:new 0 0 500 123;" xml:space="preserve">
<style type="text/css">
	.st0{fill:#757575;}
	.st1{fill:#F40000;}
	.st2{fill:#CECECE;}
	.st3{fill:#FFFFFF;}
	.st4{fill-rule:evenodd;clip-rule:evenodd;fill:#910000;}
	.st5{fill-rule:evenodd;clip-rule:evenodd;fill:#A80000;}
	.st6{fill-rule:evenodd;clip-rule:evenodd;fill:#BF0000;}
	.st7{fill-rule:evenodd;clip-rule:evenodd;fill:#F40000;}
</style>
<g id="Layer_2">
	<g>
		<path class="st0" d="M435.4,75.9h-50.8c-1.6,0-2.8,1.3-2.8,2.8v22.6c0,1.6,1.3,2.8,2.8,2.8h50.8c1.6,0,2.8-1.3,2.8-2.8V78.7
			C438.2,77.2,436.9,75.9,435.4,75.9z M432.6,98.5h-45.2V81.6h45.2V98.5z"/>
		<path class="st1" d="M494.6,47.7h-22.6v0h-5.6v0h-22.6c-1.5,0-2.8,1.3-2.8,2.8v22.6c0,1.3,0.9,2.4,2.1,2.7
			c0.2,0.1,0.5,0.1,0.7,0.1h22.5v-0.1h5.7v0.1h22.6c1.6,0,2.8-1.3,2.8-2.8V50.5C497.5,49,496.2,47.7,494.6,47.7z M491.8,70.3h-45.1
			V53.3h45.1V70.3z"/>
		<path class="st2" d="M435.4,19.5h-50.8c-1.6,0-2.8,1.3-2.8,2.8v22.6c0,1.6,1.3,2.8,2.8,2.8h50.8c1.6,0,2.8-1.3,2.8-2.8V22.3
			C438.2,20.7,436.9,19.5,435.4,19.5z M432.6,42h-45.2V25.1h45.2V42z"/>
	</g>
	<path class="st3" d="M472.1,33.6v14.1h-5.6V36.4h-28.2v-5.6h31C470.8,30.8,472.1,32,472.1,33.6z"/>
	<path class="st3" d="M472.1,75.8v0.1h0V90c0,1.6-1.3,2.8-2.8,2.8h-31v-5.7h28.2V75.9h-0.1v-0.1H472.1z"/>
</g>
<g id="Layer_1">
	<g>
		<path class="st3" d="M115,12.1h11.6l8.7,19.5l17.9-19.5h11.9l-9.3,47.5H142l4.5-23.2l-14.9,15.8l-7.4-15.8l-4.5,23.3h-13.9
			L115,12.1z"/>
		<path class="st3" d="M188.9,12.1h14.5l10,47.5h-14.3l-1.1-6.2H178l-3.4,6.2h-13.9L188.9,12.1z M196.2,42.8l-2.9-17.9L184,42.8
			H196.2z"/>
		<path class="st3" d="M227.4,12.1h19.9c12.1,0,18.5,6,18.5,15.5c0,5.6-2.3,14.3-11.4,19.1l6.2,12.8h-14l-3.7-10.1
			c0,0-1.5,0.1-4,0.1H234l-1.9,10h-13.9L227.4,12.1z M242.5,37.9c4.4,0,8.4-2.9,8.4-8.4c0-2.9-1.6-5.5-5.6-5.5H239l-2.7,13.9H242.5z
			"/>
		<path class="st3" d="M270.6,37c0-14.2,11.1-25.6,26.2-25.6c7.7,0,14.1,2.7,18.5,6.9L304.9,28c-2.1-2.6-4.8-4-8.5-4
			c-6.3,0-11.3,5.5-11.3,13c0,6.2,4.5,10.8,10.6,10.8c3.4,0,5.3-0.8,7.5-2.6l8,10.1c-4.3,3.2-9.7,5.1-15.8,5.1
			C280.4,60.5,270.6,51,270.6,37z"/>
		<path class="st3" d="M325.2,12.1h13.9l-3.4,17.7h14.1l3.4-17.7h13.9l-9.2,47.5h-13.9l3.5-17.9h-14.1l-3.5,17.9H316L325.2,12.1z"/>
		<path class="st3" d="M112.8,73h8.7l6.5,14.6L141.5,73h9l-7,35.6H133l3.4-17.4L125.3,103l-5.5-11.9l-3.4,17.5h-10.4L112.8,73z"/>
		<path class="st3" d="M168.3,73h10.9l7.5,35.6H176l-0.8-4.6h-15.1l-2.6,4.6h-10.4L168.3,73z M173.7,96l-2.2-13.5L164.6,96H173.7z"
			/>
		<path class="st3" d="M197.1,73h14.4c10.3,0,16.3,5.3,16.3,15.4s-7.4,20.2-20.7,20.2h-17L197.1,73z M207.2,99.8
			c5.2,0,9.8-5,9.8-10.8c0-4.2-2.7-7.1-7.2-7.1h-4l-3.5,17.9H207.2z"/>
		<path class="st3" d="M236.3,73h9.6l8.4,18.7L258,73h10.5l-6.9,35.6h-9.7l-8.5-18.4l-3.6,18.4h-10.4L236.3,73z"/>
		<path class="st3" d="M274.7,73h28.2l-1.8,8.8h-17.7l-0.9,4.3h17l-1.7,8.7h-17l-0.9,4.8h18.4l-1.7,8.8h-28.8L274.7,73z"/>
		<path class="st3" d="M301.5,105l4.9-8c1.7,1.8,5.2,2.9,8,2.9c1.5,0,5.8-0.4,5.8-2.9c0-1.2-1.8-1.6-3.6-2.1
			c-6-1.4-11.2-4.7-11.2-10.5c0-7.8,7-12,14.9-12c5,0,9.1,1.7,12.4,3.8l-5.2,8c-2.7-1.9-5.9-2.4-7.6-2.4c-0.8,0-3.5,0-3.5,1.4
			c0,1.1,1.8,1.6,4.1,2.5c4.4,1.6,10.8,4,10.8,10.7c0,8.8-8.3,12.9-16.7,12.9C307,109.3,302.6,105.8,301.5,105z"/>
		<path class="st3" d="M335.5,105l4.9-8c1.7,1.8,5.2,2.9,8,2.9c1.5,0,5.8-0.4,5.8-2.9c0-1.2-1.8-1.6-3.6-2.1
			c-6-1.4-11.2-4.7-11.2-10.5c0-7.8,7-12,14.9-12c5,0,9.1,1.7,12.4,3.8l-5.2,8c-2.7-1.9-5.9-2.4-7.6-2.4c-0.8,0-3.5,0-3.5,1.4
			c0,1.1,1.8,1.6,4.1,2.5c4.4,1.6,10.8,4,10.8,10.7c0,8.8-8.3,12.9-16.7,12.9C341,109.3,336.6,105.8,335.5,105z"/>
	</g>
	<g>
		<polygon class="st4" points="21.8,57.1 31.6,57.1 41.7,78.1 32.1,78.1 		"/>
		<polygon class="st5" points="41.6,51.7 51.2,51.7 41.7,78.1 32.1,78.1 		"/>
		<polygon class="st6" points="41.6,51.7 51.2,51.7 62.3,78.1 52.7,78.1 		"/>
		<polygon class="st7" points="62.3,78.1 52.7,78.1 63.9,45.9 73.5,45.9 		"/>
		<path class="st3" d="M47.3,105.6C23.1,105.6,3.4,86,3.4,61.8s19.7-43.8,43.8-43.8s43.8,19.7,43.8,43.8S71.5,105.6,47.3,105.6z
			 M47.3,26.1c-19.7,0-35.7,16-35.7,35.7s16,35.7,35.7,35.7S83,81.4,83,61.8S66.9,26.1,47.3,26.1z"/>
	</g>
</g>
</svg>
