<svg xmlns="http://www.w3.org/2000/svg" width="17" height="17" viewBox="0 0 17 17">
  <g id="minimize" opacity="0.75">
    <path id="Path_268" data-name="Path 268" d="M16.268,0H5.424A.727.727,0,0,0,4.7.725V4.7H.725A.727.727,0,0,0,0,5.427V16.275A.727.727,0,0,0,.725,17H11.573a.727.727,0,0,0,.725-.725V12.294h3.978A.727.727,0,0,0,17,11.569V.725A.737.737,0,0,0,16.268,0Zm-5.42,15.582H1.411V6.145H4.7v5.424a.727.727,0,0,0,.725.725h5.424v3.288Zm0-4.734h-4.7v-4.7h4.7v4.7Zm4.734,0H12.291V5.424a.727.727,0,0,0-.725-.725H6.145V1.411h9.436Z" fill="#fff"/>
  </g>
</svg>
