<?xml version="1.0" encoding="iso-8859-1"?>
<!-- Generator: Adobe Illustrator 19.0.0, SVG Export Plug-In . SVG Version: 6.00 Build 0)  -->
<svg version="1.1" id="Capa_1" xmlns="http://www.w3.org/2000/svg" xmlns:xlink="http://www.w3.org/1999/xlink" x="0px" y="0px"
	 viewBox="0 0 55.883 55.883" style="enable-background:new 0 0 55.883 55.883;" xml:space="preserve">
<g>
	<g>
		<path d="M46.018,2.18C44.093,0.754,41.699,0,39.094,0H23.011c-0.485,0-0.956,0.06-1.401,0.177
			c-1.913,0.503-8.155,2.714-8.151,10.109l0.239,2.663c-3.141-0.057-5.375,0.532-6.63,1.772c-0.789,0.779-1.177,1.817-1.122,3.004
			v7.628c0,1.014,0.371,1.988,1.037,2.738l9.209,10.565c0.035,0.041,0.085,0.059,0.125,0.093c0.034,0.028,0.053,0.069,0.091,0.093
			c0.03,0.019,0.217,0.136,0.538,0.31V51c0,0.346,0.179,0.667,0.472,0.85c0.137,0.085,3.403,2.091,8.321,3.129h0.001
			c2.366,0.602,4.164,0.904,6.02,0.904c1.858,0,3.778-0.302,6.391-0.904c5.471-0.928,8.293-3.099,8.41-3.192
			c0.242-0.189,0.383-0.479,0.383-0.787V39.168c0.343-0.194,0.538-0.324,0.567-0.345c0.25-0.172,0.408-0.448,0.43-0.752
			l2.002-27.874C49.945,6.856,48.587,4.084,46.018,2.18z M7.945,25.354v-7.652c0-0.018,0-0.034-0.001-0.052
			c-0.033-0.638,0.135-1.116,0.529-1.505c0.79-0.78,2.524-1.202,4.857-1.202c0.179,0,0.361,0.003,0.547,0.008l1.722,19.227
			l0.075,0.842l-7.191-8.249C8.136,26.38,7.945,25.877,7.945,25.354z M18.945,40.093c0.71,0.292,1.57,0.605,2.559,0.905
			c0.007,0.002,0.014,0.004,0.021,0.006c0.221,0.067,0.449,0.133,0.683,0.198c0.06,0.017,0.12,0.033,0.18,0.05
			c0.201,0.055,0.406,0.108,0.616,0.161c0.106,0.027,0.215,0.053,0.323,0.079c0.181,0.043,0.362,0.086,0.55,0.128
			c0.153,0.034,0.312,0.066,0.469,0.099c0.16,0.033,0.318,0.067,0.483,0.098c0.039,0.007,0.075,0.016,0.115,0.023v10.898
			c-2.918-0.756-5.088-1.826-6-2.32V40.093H18.945z M26.945,53.217l0.006-17.727c0-0.307,0.035-0.607,0.101-0.897
			c0.001-0.003,0.001-0.007,0.002-0.01c0.192-0.838,0.651-1.585,1.284-2.182c0.158-0.148,0.332-0.277,0.507-0.404
			c0.087-0.063,0.166-0.134,0.257-0.191c0.235-0.147,0.486-0.268,0.743-0.377c0.049-0.02,0.091-0.05,0.141-0.069
			c0.314-0.121,0.643-0.212,0.981-0.272c0.086-0.015,0.178-0.013,0.265-0.024c0.253-0.033,0.507-0.061,0.768-0.059
			c0.11,0.001,0.214,0.023,0.322,0.031c2.489,0.21,4.621,2.555,4.621,5.189V41v12.2C32.821,54.1,30.669,54.106,26.945,53.217z
			 M44.945,50.473c-0.795,0.504-2.813,1.622-6,2.316V41.847c0.048-0.009,0.092-0.018,0.139-0.027
			c0.156-0.029,0.305-0.059,0.457-0.089c0.173-0.034,0.346-0.069,0.514-0.105c0.181-0.039,0.356-0.079,0.53-0.119
			c0.119-0.028,0.236-0.055,0.352-0.084c0.205-0.05,0.405-0.101,0.6-0.153c0.063-0.017,0.125-0.034,0.187-0.051
			c1.287-0.351,2.363-0.733,3.221-1.089V50.473z M45.984,37.415c-0.13,0.074-0.301,0.165-0.495,0.265l0,0
			c-0.738,0.378-2.013,0.949-3.801,1.472c-0.021,0.006-0.039,0.013-0.06,0.019c-0.239,0.069-0.5,0.136-0.757,0.203
			c-0.152,0.039-0.295,0.08-0.453,0.119c-0.204,0.05-0.425,0.095-0.64,0.142c-0.233,0.051-0.462,0.104-0.707,0.151
			c-0.04,0.008-0.085,0.014-0.126,0.022v-3.582v-0.62c0-3.518-2.932-6.394-6.61-6.587c-0.078-0.005-0.155-0.016-0.234-0.018
			C32.049,29,31.997,29,31.945,29l0,0l0,0c-1.23,0-2.385,0.299-3.391,0.818c-0.031,0.016-0.06,0.035-0.09,0.051
			c-0.165,0.088-0.327,0.18-0.484,0.28c-0.079,0.05-0.154,0.107-0.231,0.16c-0.102,0.071-0.204,0.141-0.301,0.217
			c-0.104,0.081-0.203,0.169-0.303,0.255c-0.062,0.055-0.126,0.108-0.186,0.165c-0.035,0.033-0.074,0.062-0.108,0.095
			c-0.091,0.089-0.173,0.185-0.258,0.278c-0.019,0.021-0.039,0.041-0.058,0.062c-0.135,0.152-0.262,0.31-0.38,0.472
			c-0.003,0.004-0.007,0.009-0.01,0.013c-0.251,0.344-0.464,0.707-0.637,1.087c-0.002,0.005-0.005,0.01-0.007,0.015
			c-0.081,0.18-0.154,0.363-0.217,0.549c-0.006,0.018-0.014,0.036-0.02,0.055c-0.057,0.172-0.104,0.348-0.146,0.525
			c-0.008,0.034-0.019,0.068-0.026,0.102c-0.036,0.168-0.062,0.339-0.084,0.511c-0.006,0.044-0.015,0.086-0.02,0.13
			c-0.023,0.214-0.035,0.43-0.035,0.648l-0.005,4.309c-0.038-0.008-0.08-0.014-0.118-0.022c-0.243-0.05-0.471-0.104-0.703-0.157
			c-0.194-0.044-0.396-0.087-0.582-0.134c-0.268-0.067-0.518-0.137-0.769-0.207c-0.13-0.036-0.268-0.071-0.394-0.107
			c-0.361-0.106-0.705-0.213-1.028-0.322c-0.005-0.002-0.011-0.003-0.016-0.005c-1.696-0.568-2.866-1.143-3.442-1.453l-2.104-23.489
			c-0.001-0.006-0.004-0.011-0.005-0.017l-0.331-3.688c0-5.716,4.661-7.56,6.664-8.087C22.398,2.037,22.698,2,23.011,2h16.083
			c2.142,0,4.178,0.635,5.734,1.787c2.068,1.533,3.117,3.689,3.12,6.339L45.984,37.415z"/>
		<path d="M35.652,34.293c-0.391-0.391-1.023-0.391-1.414,0l-2.293,2.293l-2.293-2.293c-0.391-0.391-1.023-0.391-1.414,0
			s-0.391,1.023,0,1.414L30.531,38l-2.293,2.293c-0.391,0.391-0.391,1.023,0,1.414C28.433,41.902,28.689,42,28.945,42
			s0.512-0.098,0.707-0.293l2.293-2.293l2.293,2.293C34.433,41.902,34.689,42,34.945,42s0.512-0.098,0.707-0.293
			c0.391-0.391,0.391-1.023,0-1.414L33.359,38l2.293-2.293C36.043,35.316,36.043,34.684,35.652,34.293z"/>
		<path d="M35.652,44.293c-0.391-0.391-1.023-0.391-1.414,0l-2.293,2.293l-2.293-2.293c-0.391-0.391-1.023-0.391-1.414,0
			s-0.391,1.023,0,1.414L30.531,48l-2.293,2.293c-0.391,0.391-0.391,1.023,0,1.414C28.433,51.902,28.689,52,28.945,52
			s0.512-0.098,0.707-0.293l2.293-2.293l2.293,2.293C34.433,51.902,34.689,52,34.945,52s0.512-0.098,0.707-0.293
			c0.391-0.391,0.391-1.023,0-1.414L33.359,48l2.293-2.293C36.043,45.316,36.043,44.684,35.652,44.293z"/>
		<path d="M33.945,5c-0.552,0-1,0.447-1,1s0.448,1,1,1c4.962,0,9,4.037,9,9c0,0.553,0.448,1,1,1s1-0.447,1-1
			C44.945,9.935,40.01,5,33.945,5z"/>
	</g>
</g>
<g>
</g>
<g>
</g>
<g>
</g>
<g>
</g>
<g>
</g>
<g>
</g>
<g>
</g>
<g>
</g>
<g>
</g>
<g>
</g>
<g>
</g>
<g>
</g>
<g>
</g>
<g>
</g>
<g>
</g>
</svg>
