<svg id="Layer_1" data-name="Layer 1" xmlns="http://www.w3.org/2000/svg" viewBox="0 0 321.09 408.82"><defs><style>.cls-1{fill:#fff;}</style></defs><path class="cls-1" d="M320.94,70.91a46.47,46.47,0,0,0-36.62-44.56c-8.55-1.84-17.1-2-25.39,1.85-.52-1.23-.86-2.07-1.23-2.9C253.63,16,246.63,9.06,236.6,8.49c-14.21-.8-28.95-3.62-42.65,4.25C189.39,5.77,182.73,2,174.89,0H144.55C136,2.35,128.92,6.87,124.33,14.74c-10.24-6.15-21-4.54-31.56-3.89A32.18,32.18,0,0,0,81,14.1C66.82,21,60.08,32.86,60,48.44c-.15,18.22,0,36.45,0,54.68v4.27c-8.4,2.57-16.42,5-24.39,7.5C12.2,122.36-2,143,.23,166.46c2.67,27.72,12.42,52.87,28.17,75.76,10.68,15.52,24.3,28.11,39.2,39.47,9.82,7.48,19.45,15.22,29.37,23C91.42,312,89.31,320,89.4,328.76c.16,14.9,0,29.81.06,44.71.06,21,14.36,35.3,35.4,35.32q69.46.07,138.91,0c21,0,35.38-14.25,35.54-35.24.12-15.44.09-30.87,0-46.31a35.84,35.84,0,0,0-6.41-21,5.29,5.29,0,0,1-.22-4.49c5.18-10.63,10.62-21.13,15.89-31.72,4.82-9.66,9.23-19.63,10.36-30.4,0-.19,0-.4.06-.62.51-5.78.88-21.9,1.17-39.69.39-24.54.62-52.27.84-60.54v-.17c0-.11,0-.22,0-.32s0-.2,0-.3v-.05C321,115.58,321.2,93.24,320.94,70.91Zm-61.35-17c.09-7.88,5.12-12.87,13-13C290.73,40.5,304.8,54,305.12,72.25c.09,5.41,0,10.81,0,16.68-4-1.23-7.51-2.41-11.06-3.35-10.37-2.74-20.73-5.5-31.15-8-2.56-.61-3.48-1.53-3.41-4.17C259.69,66.92,259.52,60.41,259.59,53.9ZM198.21,38c0-9.8,4.56-14.32,14.43-14.34,6.91,0,13.82-.08,20.72.23,5.08.23,10,4.22,10.1,9.12.4,13.5.14,27,.14,40.62L198.38,70c-.06-1.1-.17-2.37-.17-3.63C198.2,56.89,198.18,47.45,198.21,38Zm-61.13-8c0-9.75,4.42-14.06,14.12-14.06,6.25,0,12.5,0,18.74,0,7.11,0,12.4,4.16,12.59,11.13.41,14.32.13,28.66.13,43.06l-45.37,4.5c-.06-1-.21-2.3-.21-3.57C137.06,57.35,137,43.66,137.08,30ZM75.84,48c0-13.1,8.62-21.65,21.75-21.73,4,0,8-.07,12,0,6.31.16,11.53,4.62,11.66,10.83.29,13.55.09,27.11.09,40.57C106,83,89.31,83.65,76,94c0-.59-.13-1.71-.14-2.83Q75.82,69.57,75.84,48ZM249,392.65H143.31c0-5.59-.57-11.19.14-16.62.94-7.14,7.09-12,14.3-12q38.12-.09,76.22,0c7.63,0,13.35,5,14.71,12.53a21.45,21.45,0,0,1,.33,3.57C249.05,384.24,249,388.33,249,392.65Zm34.72-19.42c-.06,11.25-5.89,18.49-15.69,19.74a30.74,30.74,0,0,1-3.65,0c0-4.74.06-9,0-13.23-.28-17-11.73-30.39-28.6-30.89-26.71-.79-53.47-.7-80.19.05-15.62.43-27.16,13.34-27.92,29-.24,4.88,0,9.79,0,14.57-12,2.59-22.23-4.9-22.44-16.65-.32-16.89-.29-33.79,0-50.68.18-10.44,7.88-17.16,19-17.24,10.78-.09,21.56,0,32.33,0q53.28,0,106.57,0c13.64,0,20.62,7,20.65,20.62C283.8,343.43,283.83,358.33,283.75,373.23Zm17.81-128.57c-4,10.66-8.95,21-13.72,31.3-2.94,6.36-6.29,12.53-8.89,17.65-10-.43-19.06-1.14-28.16-1.16-41-.13-82-.07-122.95,0-3.58,0-7.59-.51-10.65.87-6.36,2.88-10.13-.57-14.37-4.05-5.79-4.75-11.74-9.3-17.62-13.94.11-.27.22-.53.32-.79h3.86c14.23,0,28.47,0,42.71,0a20.66,20.66,0,0,0,5.5-.65c5.15-1.46,7.43-7.92,3.7-11.73a12.41,12.41,0,0,0-8-3.2c-21.81-.26-43.64-.12-65.46-.2-1.59,0-3.71-.28-4.68-1.3-6.76-7.12-13.85-14-19.78-21.83C27.8,215.14,19,191.83,16.18,166.36c-1.57-14.07,3.21-26.11,15.94-32.57,10.48-5.31,22.23-8.11,33.41-12a19.24,19.24,0,0,1-1.3,6.52c-1.43,4.41-3.83,8.79-4,13.27-.55,12.48-.39,25-.11,37.51.13,5.85,4.9,9.14,10.09,7.71,3.5-1,5.6-4.2,5.63-9.1.06-10.78,0-21.56,0-32.33a14.3,14.3,0,0,1,.64-4.67c4.1-11.78,8.25-23.54,12.55-35.25a5.73,5.73,0,0,1,3.06-3.13,319.87,319.87,0,0,1,89.9-16c24.54-.86,49,.61,73,5.69,16.84,3.56,33.42,8.36,50.13,12.6,0,11.23-.07,21.52,0,31.75v0c-.55,3.55,0,71.86,0,75.16C305.31,222.74,305.5,234.06,301.56,244.66Z"/></svg>