<?xml version="1.0" encoding="utf-8"?>
<!-- Generator: Adobe Illustrator 25.2.0, SVG Export Plug-In . SVG Version: 6.00 Build 0)  -->
<svg version="1.1" id="Layer_1" xmlns="http://www.w3.org/2000/svg" xmlns:xlink="http://www.w3.org/1999/xlink" x="0px" y="0px"
	 viewBox="0 0 154.4 91.1" style="enable-background:new 0 0 154.4 91.1;" xml:space="preserve">
<style type="text/css">
	.st0{fill:#212121;}
	.st1{fill:#FFFFFF;}
	.st2{fill:#2B2B2B;}
	.st3{fill:#1E1E1E;}
	.st4{fill:#191919;}
	.st5{fill:#303030;}
	.st6{fill:#282828;}
	.st7{fill:#333333;}
	.st8{fill:#FF0000;}
	.st9{fill:#FF0000;stroke:#630000;stroke-miterlimit:10;}
</style>
<g>
	<polygon class="st0" points="37.4,74.6 22.5,75.8 13.9,63.4 23,32.7 19.8,18.3 52.5,10.3 95.4,14.7 125.6,12.8 140.9,25.5 
		135.4,66.1 140.5,79.2 110.7,75.7 69.6,81.5 	"/>
	<path class="st1" d="M52.6,11.3l42.8,4.4l29.9-1.9l14.5,12.1l-5.5,40.3L139,78l-28.3-3.3l-41.1,5.8l-32.1-6.9L23,74.7l-8-11.5
		l9-30.5L21,19L52.6,11.3 M52.4,9.3l-0.3,0.1l-31.5,7.7l-1.9,0.5l0.4,1.9L22,32.7l-8.9,30l-0.3,0.9l0.5,0.8l8,11.5l0.7,0.9l1.1-0.1
		l14.3-1.1l31.8,6.8l0.3,0.1h0.3l40.9-5.7l28,3.3l3.3,0.4l-1.2-3.1L136.4,66l5.4-39.8l0.1-1.1l-0.9-0.7l-14.5-12.1l-0.6-0.5
		l-0.8,0.1l-29.7,1.9L52.8,9.4L52.4,9.3L52.4,9.3z"/>
</g>
<polygon points="104.4,48.1 139.8,25.9 125.3,13.8 "/>
<polygon class="st2" points="95.4,15.7 104.4,48.1 125.3,13.8 "/>
<polygon class="st3" points="134.3,66.2 104.4,48.1 139.8,25.9 "/>
<polygon points="110.7,74.7 139,78 134.3,66.2 "/>
<polygon class="st2" points="110.7,74.7 104.4,48.1 134.3,66.2 "/>
<polygon class="st0" points="69.6,80.5 104.4,48.1 110.7,74.7 "/>
<polygon class="st4" points="37.5,73.6 104.4,48.1 69.6,80.5 "/>
<polygon class="st5" points="61.9,41.5 95.4,15.7 52.6,11.3 "/>
<polygon points="104.4,48.1 61.9,41.5 95.4,15.7 "/>
<polygon class="st6" points="37.5,73.6 61.9,41.5 104.4,48.1 "/>
<polygon class="st4" points="24,32.7 61.9,41.5 33.6,54.6 15,63.2 "/>
<polygon class="st3" points="37.5,73.6 33.6,54.6 15,63.2 23,74.7 "/>
<polygon class="st2" points="24,32.7 33.6,54.6 15,63.2 "/>
<polygon class="st6" points="24,32.7 61.9,41.5 52.6,11.3 21,19 "/>
<polygon class="st7" points="37.5,73.6 33.6,54.6 61.9,41.5 "/>
<g>
	<path class="st1" d="M39.2,49.4l0.9-1.8c0.6,0.4,1.5,0.6,2.1,0.6c1.2,0,1.6-0.5,1.6-1.1c0-0.7-0.8-1-1.8-1c-0.5,0-1.2,0.2-1.6,0.4
		l-0.8-0.8v-4.9h6.3v2.3h-3.6v1.1c0.2,0,0.5,0,0.7,0c1.7,0,3.6,0.9,3.6,2.9c0,2.3-1.9,3.4-4.2,3.4C41.2,50.4,40.1,50.1,39.2,49.4z"
		/>
	<path class="st1" d="M47.6,45.5c0-2.9,1.6-4.9,4-4.9s4,2,4,4.9s-1.6,4.9-4,4.9S47.6,48.4,47.6,45.5z M52.9,45.5
		c0-1.5-0.3-2.5-1.3-2.5s-1.3,1-1.3,2.5c0,1.5,0.3,2.5,1.3,2.5S52.9,47.1,52.9,45.5z"/>
	<path class="st1" d="M57.4,47.8h2.3L58,52.3h-1.6L57.4,47.8z"/>
	<path class="st1" d="M60.9,45.5c0-2.9,1.6-4.9,4-4.9s4,2,4,4.9s-1.6,4.9-4,4.9S60.9,48.4,60.9,45.5z M66.1,45.5
		c0-1.5-0.3-2.5-1.3-2.5s-1.3,1-1.3,2.5c0,1.5,0.3,2.5,1.3,2.5S66.1,47.1,66.1,45.5z"/>
	<path class="st1" d="M69.9,45.5c0-2.9,1.6-4.9,4-4.9s4,2,4,4.9s-1.6,4.9-4,4.9S69.9,48.4,69.9,45.5z M75.1,45.5
		c0-1.5-0.3-2.5-1.3-2.5s-1.3,1-1.3,2.5c0,1.5,0.3,2.5,1.3,2.5S75.1,47.1,75.1,45.5z"/>
	<path class="st1" d="M78.8,45.5c0-2.9,1.6-4.9,4-4.9s4,2,4,4.9s-1.6,4.9-4,4.9S78.8,48.4,78.8,45.5z M84.1,45.5
		c0-1.5-0.3-2.5-1.3-2.5s-1.3,1-1.3,2.5c0,1.5,0.3,2.5,1.3,2.5S84.1,47.1,84.1,45.5z"/>
	<path class="st8" d="M90.7,40.8h2.1l1.5,5.6c0.2,0.6,0.3,1.3,0.4,1.4c0-0.1,0.2-0.8,0.3-1.4l1.4-5.6h2.1l1.4,5.6
		c0.1,0.6,0.3,1.3,0.3,1.4c0-0.1,0.2-0.8,0.4-1.4l1.6-5.6h2l-2.8,9.5h-2.2l-1.5-5.4c-0.2-0.7-0.3-1.6-0.3-1.7c0,0.1-0.1,1-0.3,1.7
		l-1.5,5.4h-2.2L90.7,40.8z"/>
	<path class="st8" d="M104.8,45.5c0-2.7,2.1-4.9,5-4.9c1.3,0,2.5,0.5,3.4,1.2l-1.3,1.4c-0.7-0.6-1.3-0.7-2.1-0.7
		c-1.7,0-2.9,1.3-2.9,3c0,1.7,1.2,3,2.9,3c0.9,0,1.7-0.4,2.2-1v-1.4h-1.6v-1.5h3.5v3.7c-0.8,1.2-2.4,2-4.1,2
		C106.9,50.4,104.8,48.3,104.8,45.5z"/>
	<path class="st8" d="M115.7,40.8h4.1c2.8,0,4.3,1.6,4.3,3.7c0,1.2-0.6,2.4-1.8,3l2,2.8h-2.4l-1.5-2.2c-0.3,0-0.5,0.1-0.8,0.1h-1.8
		v2.2h-2.1V40.8z M119.9,46.4c1.2,0,2-0.9,2-1.9c0-1.1-0.8-1.9-2-1.9h-2.1v3.8H119.9z"/>
</g>
<circle class="st9" cx="30.1" cy="22" r="14"/>
<g>
	<g>
		<path class="st1" d="M23.1,19.8l-2,1.2l-1.1-1.9l3.4-2.7h2.4v9.5h-2.7V19.8z"/>
		<path class="st1" d="M27.4,25.2l0.8-1.9c0.6,0.4,1.1,0.6,2.3,0.6c0,0,0.7,0,0.7-0.3c0-0.2-0.4-0.3-0.9-0.4
			c-1.6-0.4-2.8-1.1-2.8-2.4c0-1.6,1.5-2.5,3.1-2.5c1.5,0,2.3,0.3,3,0.7l-0.8,1.8c-0.9-0.3-1.7-0.4-2.2-0.4c-0.3,0-0.5,0.1-0.5,0.2
			c0,0.3,0.6,0.4,1.4,0.6c1.1,0.3,2.3,0.8,2.3,2.3c0,2-2,2.6-3.4,2.6C28.8,26,27.8,25.5,27.4,25.2z"/>
		<path class="st1" d="M35.4,23.5v-3h-1.1v-2.1h1.1v-1.3l2.7-0.7v2h1.7v2.1h-1.7v2.8c0,0.4,0.2,0.5,0.4,0.5c0.2,0,0.5-0.1,0.7-0.2
			l0.7,1.9c-0.6,0.5-1.4,0.6-2.1,0.6C36.4,26,35.4,25.1,35.4,23.5z"/>
	</g>
</g>
</svg>
