<?xml version="1.0" encoding="utf-8"?>
<!-- Generator: Adobe Illustrator 21.1.0, SVG Export Plug-In . SVG Version: 6.00 Build 0)  -->
<svg version="1.1" id="Capa_1" xmlns="http://www.w3.org/2000/svg" xmlns:xlink="http://www.w3.org/1999/xlink" x="0px" y="0px"
	 viewBox="0 0 513.3 513.3" style="enable-background:new 0 0 513.3 513.3;" xml:space="preserve">
<style type="text/css">
	.st0{fill:#212121;}
	.st1{fill:#EF0000;}
</style>
<polygon class="st0" points="352.9,277 237.4,411.7 169,360.4 143.3,394.6 243.8,471.6 385,306.9 "/>
<path class="st1" d="M423.5,176.5c-17.1-77-85.6-134.7-166.8-134.7c-94.1,0-171.1,77-171.1,171.1v2.1C36.4,225.6,0,268.4,0,319.8
	c0,59.9,47.1,106.9,106.9,106.9v-42.8c-36.4,0-64.2-29.9-64.2-64.2c0-36.4,27.8-64.2,64.2-64.2h21.4v-42.8
	c0-70.6,57.7-128.3,128.3-128.3c64.2,0,119.8,47.1,126.2,111.2l2.1,17.1l15,2.1c40.6,8.6,70.6,42.8,70.6,83.4
	c0,47.1-38.5,85.6-85.6,85.6v42.8c70.6,0,128.3-57.7,128.3-128.3C513.3,242.8,477,193.6,423.5,176.5L423.5,176.5z"/>
</svg>
