<svg id="ef3tutsq16o1" xmlns="http://www.w3.org/2000/svg" xmlns:xlink="http://www.w3.org/1999/xlink" viewBox="0 0 409.200000 307" shape-rendering="geometricPrecision" text-rendering="geometricPrecision"><style><![CDATA[#ef3tutsq16o23 {animation: ef3tutsq16o23_f_p 3000ms linear infinite normal forwards}@keyframes ef3tutsq16o23_f_p { 0% {fill: rgb(255,255,255)} 16.666667% {fill: rgb(251,1,1)} 33.333333% {fill: rgb(255,255,255)} 50% {fill: rgb(251,1,1)} 66.666667% {fill: rgb(255,255,255)} 83.333333% {fill: rgb(251,1,1)} 100% {fill: rgb(255,255,255)} }#ef3tutsq16o24 {animation: ef3tutsq16o24_f_p 3000ms linear infinite normal forwards}@keyframes ef3tutsq16o24_f_p { 0% {fill: rgb(255,0,0)} 16.666667% {fill: rgb(255,255,255)} 33.333333% {fill: rgb(255,0,0)} 50% {fill: rgb(255,255,255)} 66.666667% {fill: rgb(255,0,0)} 83.333333% {fill: rgb(255,255,255)} 100% {fill: rgb(255,0,0)} }#ef3tutsq16o29 {animation: ef3tutsq16o29_f_p 3000ms linear infinite normal forwards}@keyframes ef3tutsq16o29_f_p { 0% {fill: rgb(255,255,255)} 16.666667% {fill: rgb(251,1,1)} 33.333333% {fill: rgb(255,255,255)} 50% {fill: rgb(251,1,1)} 66.666667% {fill: rgb(255,255,255)} 83.333333% {fill: rgb(251,1,1)} 100% {fill: rgb(255,255,255)} }#ef3tutsq16o30 {animation: ef3tutsq16o30_f_p 3000ms linear infinite normal forwards}@keyframes ef3tutsq16o30_f_p { 0% {fill: rgb(255,0,0)} 16.666667% {fill: rgb(255,255,255)} 33.333333% {fill: rgb(255,0,0)} 50% {fill: rgb(255,255,255)} 66.666667% {fill: rgb(255,0,0)} 83.333333% {fill: rgb(255,255,255)} 100% {fill: rgb(255,0,0)} }#ef3tutsq16o41 {animation: ef3tutsq16o41_f_p 3000ms linear infinite normal forwards}@keyframes ef3tutsq16o41_f_p { 0% {fill: rgb(255,0,0)} 16.666667% {fill: rgb(255,255,255)} 33.333333% {fill: rgb(255,0,0)} 50% {fill: rgb(255,255,255)} 66.666667% {fill: rgb(255,0,0)} 83.333333% {fill: rgb(255,255,255)} 100% {fill: rgb(255,0,0)} }#ef3tutsq16o42 {animation: ef3tutsq16o42_f_p 3000ms linear infinite normal forwards}@keyframes ef3tutsq16o42_f_p { 0% {fill: rgb(255,255,255)} 16.666667% {fill: rgb(251,1,1)} 33.333333% {fill: rgb(255,255,255)} 50% {fill: rgb(251,1,1)} 66.666667% {fill: rgb(255,255,255)} 83.333333% {fill: rgb(251,1,1)} 100% {fill: rgb(255,255,255)} }#ef3tutsq16o46 {animation: ef3tutsq16o46_f_p 3000ms linear infinite normal forwards}@keyframes ef3tutsq16o46_f_p { 0% {fill: rgb(255,255,255)} 16.666667% {fill: rgb(37,37,37)} 36.666667% {fill: rgb(255,255,255)} 56.666667% {fill: rgb(239,8,8)} 76.666667% {fill: rgb(255,255,255)} 100% {fill: rgb(255,255,255)} }#ef3tutsq16o50 {animation: ef3tutsq16o50_f_p 3000ms linear infinite normal forwards}@keyframes ef3tutsq16o50_f_p { 0% {fill: rgb(17,17,17)} 16.666667% {fill: rgb(236,0,0)} 33.333333% {fill: rgb(17,17,17)} 50% {fill: rgb(236,0,0)} 66.666667% {fill: rgb(17,17,17)} 83.333333% {fill: rgb(236,0,0)} 100% {fill: rgb(17,17,17)} }#ef3tutsq16o51 {animation: ef3tutsq16o51_f_p 3000ms linear infinite normal forwards}@keyframes ef3tutsq16o51_f_p { 0% {fill: rgb(165,0,0)} 16.666667% {fill: rgb(34,26,26)} 36.666667% {fill: rgb(241,3,3)} 53.333333% {fill: rgb(165,0,0)} 100% {fill: rgb(165,0,0)} }#ef3tutsq16o58 {animation: ef3tutsq16o58_f_p 3000ms linear infinite normal forwards}@keyframes ef3tutsq16o58_f_p { 0% {fill: rgb(17,17,17)} 10% {fill: rgb(17,17,17)} 26.666667% {fill: rgb(236,0,0)} 43.333333% {fill: rgb(17,17,17)} 60% {fill: rgb(236,0,0)} 76.666667% {fill: rgb(17,17,17)} 93.333333% {fill: rgb(236,0,0)} 100% {fill: rgb(148,7,7)} }#ef3tutsq16o60 {animation: ef3tutsq16o60_f_p 3000ms linear infinite normal forwards}@keyframes ef3tutsq16o60_f_p { 0% {fill: rgb(255,215,215)} 6.666667% {fill: rgb(255,215,215)} 30% {fill: rgb(255,255,255)} 43.333333% {fill: rgb(220,7,7)} 66.666667% {fill: rgb(255,215,215)} 100% {fill: rgb(255,215,215)} }#ef3tutsq16o64 {animation: ef3tutsq16o64_f_p 3000ms linear infinite normal forwards}@keyframes ef3tutsq16o64_f_p { 0% {fill: rgb(255,255,255)} 10% {fill: rgb(250,0,0)} 20% {fill: rgb(255,255,255)} 30% {fill: rgb(250,0,0)} 40% {fill: rgb(255,255,255)} 50% {fill: rgb(250,0,0)} 60% {fill: rgb(255,255,255)} 70% {fill: rgb(250,0,0)} 80% {fill: rgb(255,255,255)} 100% {fill: rgb(255,255,255)} }#ef3tutsq16o65 {animation: ef3tutsq16o65_f_p 3000ms linear infinite normal forwards}@keyframes ef3tutsq16o65_f_p { 0% {fill: rgb(255,255,255)} 6.666667% {fill: rgb(255,255,255)} 23.333333% {fill: rgb(236,0,0)} 40% {fill: rgb(255,255,255)} 56.666667% {fill: rgb(236,0,0)} 73.333333% {fill: rgb(255,255,255)} 90% {fill: rgb(236,0,0)} 100% {fill: rgb(105,10,10)} }#ef3tutsq16o68 {animation: ef3tutsq16o68_f_p 3000ms linear infinite normal forwards}@keyframes ef3tutsq16o68_f_p { 0% {fill: rgb(17,17,17)} 16.666667% {fill: rgb(236,0,0)} 33.333333% {fill: rgb(17,17,17)} 50% {fill: rgb(236,0,0)} 66.666667% {fill: rgb(17,17,17)} 83.333333% {fill: rgb(236,0,0)} 100% {fill: rgb(17,17,17)} }#ef3tutsq16o69 {animation: ef3tutsq16o69_f_p 3000ms linear infinite normal forwards}@keyframes ef3tutsq16o69_f_p { 0% {fill: rgb(119,24,24)} 3.333333% {fill: rgb(119,24,24)} 20% {fill: rgb(243,0,0)} 36.666667% {fill: rgb(119,24,24)} 53.333333% {fill: rgb(243,0,0)} 70% {fill: rgb(119,24,24)} 86.666667% {fill: rgb(243,0,0)} 100% {fill: rgb(144,19,19)} }#ef3tutsq16o73 {animation: ef3tutsq16o73_f_p 3000ms linear infinite normal forwards}@keyframes ef3tutsq16o73_f_p { 0% {fill: rgb(255,255,255)} 23.333333% {fill: rgb(232,0,0)} 50% {fill: rgb(255,255,255)} 70% {fill: rgb(232,0,0)} 86.666667% {fill: rgb(255,255,255)} 100% {fill: rgb(255,255,255)} }#ef3tutsq16o86 {animation: ef3tutsq16o86_f_p 3000ms linear infinite normal forwards}@keyframes ef3tutsq16o86_f_p { 0% {fill: rgb(255,255,255)} 10% {fill: rgb(255,255,255)} 20% {fill: rgb(239,4,4)} 30% {fill: rgb(255,255,255)} 40% {fill: rgb(239,4,4)} 50% {fill: rgb(255,255,255)} 60% {fill: rgb(239,4,4)} 70% {fill: rgb(255,255,255)} 80% {fill: rgb(239,4,4)} 90% {fill: rgb(255,255,255)} 100% {fill: rgb(255,255,255)} }#ef3tutsq16o93 {animation: ef3tutsq16o93_f_p 3000ms linear infinite normal forwards}@keyframes ef3tutsq16o93_f_p { 0% {fill: rgb(255,215,215)} 33.333333% {fill: rgb(205,0,0)} 56.666667% {fill: rgb(255,215,215)} 80% {fill: rgb(205,0,0)} 100% {fill: rgb(255,215,215)} }#ef3tutsq16o134_to {animation: ef3tutsq16o134_to__to 3000ms linear infinite normal forwards}@keyframes ef3tutsq16o134_to__to { 0% {transform: translate(0px,0px)} 33.333333% {transform: translate(0px,-10px)} 66.666667% {transform: translate(0px,0px)} 100% {transform: translate(0px,0px)} }#ef3tutsq16o136_to {animation: ef3tutsq16o136_to__to 3000ms linear infinite normal forwards}@keyframes ef3tutsq16o136_to__to { 0% {transform: translate(0px,0px)} 33.333333% {transform: translate(0px,-10px)} 66.666667% {transform: translate(0px,0px)} 100% {transform: translate(0px,0px)} }#ef3tutsq16o138_to {animation: ef3tutsq16o138_to__to 3000ms linear infinite normal forwards}@keyframes ef3tutsq16o138_to__to { 0% {transform: translate(0px,0px)} 33.333333% {transform: translate(0px,-10px)} 66.666667% {transform: translate(0px,0px)} 100% {transform: translate(0px,0px)} }#ef3tutsq16o139_to {animation: ef3tutsq16o139_to__to 3000ms linear infinite normal forwards}@keyframes ef3tutsq16o139_to__to { 0% {transform: translate(0px,0px)} 33.333333% {transform: translate(0px,-10px)} 66.666667% {transform: translate(0px,0px)} 100% {transform: translate(0px,0px)} }#ef3tutsq16o140_to {animation: ef3tutsq16o140_to__to 3000ms linear infinite normal forwards}@keyframes ef3tutsq16o140_to__to { 0% {transform: translate(0px,0px)} 33.333333% {transform: translate(0px,-10px)} 66.666667% {transform: translate(0px,0px)} 100% {transform: translate(0px,0px)} }#ef3tutsq16o141_to {animation: ef3tutsq16o141_to__to 3000ms linear infinite normal forwards}@keyframes ef3tutsq16o141_to__to { 0% {transform: translate(0px,0px)} 33.333333% {transform: translate(0px,-10px)} 66.666667% {transform: translate(0px,0px)} 100% {transform: translate(0px,0px)} }#ef3tutsq16o143_to {animation: ef3tutsq16o143_to__to 3000ms linear infinite normal forwards}@keyframes ef3tutsq16o143_to__to { 0% {transform: translate(0px,0px)} 33.333333% {transform: translate(0px,-10px)} 66.666667% {transform: translate(0px,0px)} 100% {transform: translate(0px,0px)} }#ef3tutsq16o143 {animation: ef3tutsq16o143_f_p 3000ms linear infinite normal forwards}@keyframes ef3tutsq16o143_f_p { 0% {fill: rgb(255,255,255)} 13.333333% {fill: rgb(104,104,104)} 26.666667% {fill: rgb(255,255,255)} 100% {fill: rgb(255,255,255)} }#ef3tutsq16o144_to {animation: ef3tutsq16o144_to__to 3000ms linear infinite normal forwards}@keyframes ef3tutsq16o144_to__to { 0% {transform: translate(0px,0px)} 33.333333% {transform: translate(0px,-10px)} 66.666667% {transform: translate(0px,0px)} 100% {transform: translate(0px,0px)} }#ef3tutsq16o144 {animation: ef3tutsq16o144_f_p 3000ms linear infinite normal forwards}@keyframes ef3tutsq16o144_f_p { 0% {fill: rgb(255,255,255)} 23.333333% {fill: rgb(255,255,255)} 36.666667% {fill: rgb(104,104,104)} 50% {fill: rgb(255,255,255)} 100% {fill: rgb(255,255,255)} }#ef3tutsq16o145_to {animation: ef3tutsq16o145_to__to 3000ms linear infinite normal forwards}@keyframes ef3tutsq16o145_to__to { 0% {transform: translate(0px,0px)} 33.333333% {transform: translate(0px,-10px)} 66.666667% {transform: translate(0px,0px)} 100% {transform: translate(0px,0px)} }#ef3tutsq16o145 {animation: ef3tutsq16o145_f_p 3000ms linear infinite normal forwards}@keyframes ef3tutsq16o145_f_p { 0% {fill: rgb(255,255,255)} 46.666667% {fill: rgb(255,255,255)} 60% {fill: rgb(104,104,104)} 73.333333% {fill: rgb(255,255,255)} 100% {fill: rgb(255,255,255)} }#ef3tutsq16o175_to {animation: ef3tutsq16o175_to__to 3000ms linear infinite normal forwards}@keyframes ef3tutsq16o175_to__to { 0% {transform: translate(0px,0px)} 33.333333% {transform: translate(0px,0px)} 66.666667% {transform: translate(0px,-11px)} 100% {transform: translate(0px,0px)} }#ef3tutsq16o176_to {animation: ef3tutsq16o176_to__to 3000ms linear infinite normal forwards}@keyframes ef3tutsq16o176_to__to { 0% {transform: translate(0px,0px)} 33.333333% {transform: translate(0px,0px)} 66.666667% {transform: translate(0px,-11px)} 100% {transform: translate(0px,0px)} }#ef3tutsq16o177_to {animation: ef3tutsq16o177_to__to 3000ms linear infinite normal forwards}@keyframes ef3tutsq16o177_to__to { 0% {transform: translate(0px,0px)} 33.333333% {transform: translate(0px,0px)} 66.666667% {transform: translate(0px,-11px)} 100% {transform: translate(0px,0px)} }#ef3tutsq16o180_to {animation: ef3tutsq16o180_to__to 3000ms linear infinite normal forwards}@keyframes ef3tutsq16o180_to__to { 0% {transform: translate(0px,0px)} 16.666667% {transform: translate(0px,0px)} 50% {transform: translate(0px,-12px)} 83.333333% {transform: translate(0px,0px)} 100% {transform: translate(0px,0px)} }#ef3tutsq16o181_to {animation: ef3tutsq16o181_to__to 3000ms linear infinite normal forwards}@keyframes ef3tutsq16o181_to__to { 0% {transform: translate(0px,0px)} 16.666667% {transform: translate(0px,0px)} 50% {transform: translate(0px,-12px)} 83.333333% {transform: translate(0px,0px)} 100% {transform: translate(0px,0px)} }#ef3tutsq16o182_to {animation: ef3tutsq16o182_to__to 3000ms linear infinite normal forwards}@keyframes ef3tutsq16o182_to__to { 0% {transform: translate(0px,0px)} 16.666667% {transform: translate(0px,0px)} 50% {transform: translate(0px,-12px)} 83.333333% {transform: translate(0px,0px)} 100% {transform: translate(0px,0px)} }]]></style><g id="ef3tutsq16o2"><g id="ef3tutsq16o3"><g id="ef3tutsq16o4"><path id="ef3tutsq16o5" d="M140.700000,205.400000L193.500000,175.300000C195.400000,174.200000,195.200000,172.200000,193,171L162.600000,153.500000C160.400000,152.200000,157,152.100000,155.100000,153.200000L102.300000,183.300000C100.400000,184.400000,100.600000,186.400000,102.800000,187.600000L133.200000,205.100000C135.400000,206.300000,138.800000,206.500000,140.700000,205.400000Z" fill="rgb(212,236,255)" stroke="none" stroke-width="1"/><path id="ef3tutsq16o6" d="M97.500000,173L97.500000,173L97.500000,49.800000L146.500000,37L155.500000,31.800000C157.600000,30.600000,161.200000,30.800000,163.600000,32.100000L172,37L198.100000,37L190.400000,156C190.500000,156.800000,190,157.600000,189,158.200000L140.200000,195C138.100000,196.200000,134.500000,196,132.100000,194.700000L99.500000,175.900000C98.100000,175,97.500000,174,97.500000,173Z" fill="rgb(81,81,81)" stroke="none" stroke-width="1"/><path id="ef3tutsq16o7" d="M159.300000,30.900000C160.800000,30.900000,162.400000,31.300000,163.600000,32L172,36.900000L198.100000,36.900000L198.100000,160.500000C198.200000,161.300000,197.700000,162.100000,196.700000,162.700000L140.200000,195C139.200000,195.600000,137.900000,195.800000,136.400000,195.800000L135.800000,71.400000L159.300000,30.900000Z" fill="rgb(193,193,193)" stroke="none" stroke-width="1"/><path id="ef3tutsq16o8" d="M139.700000,195.200000C137.900000,196,135.300000,195.900000,133.200000,195.100000L133.200000,69.900000L139.700000,69.900000L139.700000,195.200000Z" fill="rgb(61,61,61)" stroke="none" stroke-width="1"/><path id="ef3tutsq16o9" d="M140.200000,71.400000L196.800000,39.100000C198.900000,37.900000,198.600000,35.800000,196.200000,34.400000L163.600000,15.600000C161.200000,14.200000,157.600000,14.100000,155.500000,15.300000L98.900000,47.600000C96.800000,48.800000,97.100000,50.900000,99.500000,52.300000L132.100000,71.100000C134.500000,72.500000,138.100000,72.600000,140.200000,71.400000Z" fill="rgb(216,216,216)" stroke="none" stroke-width="1"/><path id="ef3tutsq16o10" d="M99.500000,50L132.100000,68.800000C134.500000,70.200000,138.100000,70.300000,140.200000,69.100000L196.800000,36.800000C197.300000,36.500000,197.600000,36.200000,197.800000,35.900000C198.500000,37,198.200000,38.300000,196.800000,39.100000L140.200000,71.400000C138.100000,72.600000,134.500000,72.400000,132.100000,71.100000L99.500000,52.300000C97.600000,51.200000,97.100000,49.700000,97.900000,48.600000C98.200000,49,98.800000,49.500000,99.500000,50Z" fill="rgb(250,253,255)" stroke="none" stroke-width="1"/><g id="ef3tutsq16o11"><path id="ef3tutsq16o12" d="M138.600000,58.300000L176.300000,36.400000C177.300000,35.800000,177.100000,34.900000,176,34.200000L160.700000,25.400000C159.600000,24.800000,157.900000,24.700000,156.900000,25.200000L119.200000,47.100000C118.200000,47.700000,118.400000,48.600000,119.500000,49.300000L134.800000,58.100000C135.900000,58.800000,137.600000,58.900000,138.600000,58.300000Z" fill="rgb(17,17,17)" stroke="none" stroke-width="1"/><g id="ef3tutsq16o13"><path id="ef3tutsq16o14" d="M158.900000,37.500000L161.100000,36.200000C161.200000,36.100000,161.200000,36,161.100000,35.900000L159,34.700000C158.800000,34.600000,158.600000,34.600000,158.500000,34.700000L156.300000,36C156.200000,36.100000,156.200000,36.200000,156.300000,36.300000L158.400000,37.500000C158.600000,37.500000,158.800000,37.500000,158.900000,37.500000Z" fill="rgb(255,215,215)" stroke="none" stroke-width="1"/><path id="ef3tutsq16o15" d="M151.600000,41.600000L153.800000,40.300000C153.900000,40.200000,153.900000,40.100000,153.800000,40L151.700000,38.800000C151.500000,38.700000,151.300000,38.700000,151.200000,38.800000L149,40.100000C148.900000,40.200000,148.900000,40.300000,149,40.400000L151.100000,41.600000C151.300000,41.700000,151.500000,41.700000,151.600000,41.600000Z" fill="rgb(255,215,215)" stroke="none" stroke-width="1"/><path id="ef3tutsq16o16" d="M144.300000,45.800000L146.500000,44.500000C146.600000,44.400000,146.600000,44.300000,146.500000,44.200000L144.400000,43C144.200000,42.900000,144,42.900000,143.900000,43L141.700000,44.300000C141.600000,44.400000,141.600000,44.500000,141.700000,44.600000L143.800000,45.800000C144,45.900000,144.200000,45.900000,144.300000,45.800000Z" fill="rgb(255,215,215)" stroke="none" stroke-width="1"/><path id="ef3tutsq16o17" d="M137,50L139.200000,48.700000C139.300000,48.600000,139.300000,48.500000,139.200000,48.400000L137.100000,47.200000C136.900000,47.100000,136.700000,47.100000,136.600000,47.200000L134.400000,48.500000C134.300000,48.600000,134.300000,48.700000,134.400000,48.800000L136.500000,50C136.700000,50.100000,136.900000,50.100000,137,50Z" fill="rgb(255,215,215)" stroke="none" stroke-width="1"/></g><path id="ef3tutsq16o18" d="M176.300000,36.500000L176.300000,36.500000C176.200000,36.500000,176.100000,36.400000,176,36.400000L160.700000,27.600000C159.600000,27,157.900000,26.900000,156.900000,27.400000L119.200000,49.200000C118.300000,48.600000,118.300000,47.700000,119.200000,47.200000L157,25.300000C158,24.700000,159.700000,24.800000,160.800000,25.500000L176.100000,34.300000C177.100000,34.900000,177.300000,35.900000,176.300000,36.500000Z" fill="rgb(244,0,0)" stroke="none" stroke-width="1"/></g></g><g id="ef3tutsq16o19"><path id="ef3tutsq16o20" d="M125.700000,95.800000L104.300000,83.500000C103.100000,82.800000,102.100000,80.900000,102.100000,79.300000L102.100000,71.600000C102.100000,70,103.100000,69.300000,104.300000,69.900000L125.700000,82.200000C126.900000,82.900000,127.900000,84.800000,127.900000,86.400000L127.900000,94.100000C127.900000,95.800000,126.900000,96.500000,125.700000,95.800000Z" fill="rgb(17,17,17)" stroke="none" stroke-width="1"/><path id="ef3tutsq16o21" d="M103.200000,69.800000C102.900000,70.100000,102.700000,70.700000,102.700000,71.400000L102.700000,79.100000C102.700000,80.700000,103.700000,82.600000,104.900000,83.300000L126.300000,95.600000C126.700000,95.800000,127,95.900000,127.400000,95.800000C127,96.200000,126.400000,96.200000,125.800000,95.900000L104.400000,83.600000C103.200000,82.900000,102.200000,81,102.200000,79.400000L102.200000,71.700000C102.100000,70.600000,102.600000,70,103.200000,69.800000Z" fill="rgb(255,255,255)" stroke="none" stroke-width="1"/><g id="ef3tutsq16o22"><path id="ef3tutsq16o23" d="M119.300000,87.500000L117.300000,86.400000C117,86.200000,116.800000,85.800000,116.800000,85.500000L116.800000,83.400000C116.800000,83,117,82.900000,117.300000,83L119.300000,84.100000C119.600000,84.300000,119.800000,84.700000,119.800000,85L119.800000,87.100000C119.800000,87.500000,119.600000,87.700000,119.300000,87.500000Z" fill="rgb(255,255,255)" stroke="none" stroke-width="1"/><path id="ef3tutsq16o24" d="M112.700000,83.700000L110.700000,82.600000C110.400000,82.400000,110.200000,82,110.200000,81.700000L110.200000,79.600000C110.200000,79.200000,110.400000,79.100000,110.700000,79.200000L112.700000,80.300000C113,80.500000,113.200000,80.900000,113.200000,81.200000L113.200000,83.300000C113.200000,83.700000,113,83.900000,112.700000,83.700000Z" fill="rgb(255,0,0)" stroke="none" stroke-width="1"/></g></g><g id="ef3tutsq16o25"><path id="ef3tutsq16o26" d="M125.700000,151.200000L104.300000,139C103.100000,138.300000,102.100000,136.400000,102.100000,134.800000L102.100000,127.100000C102.100000,125.500000,103.100000,124.800000,104.300000,125.400000L125.700000,137.700000C126.900000,138.400000,127.900000,140.300000,127.900000,141.900000L127.900000,149.600000C127.900000,151.200000,126.900000,151.900000,125.700000,151.200000Z" fill="rgb(17,17,17)" stroke="none" stroke-width="1"/><path id="ef3tutsq16o27" d="M103.200000,125.200000C102.900000,125.500000,102.700000,126.100000,102.700000,126.800000L102.700000,134.500000C102.700000,136.100000,103.700000,138,104.900000,138.700000L126.300000,151C126.700000,151.200000,127,151.300000,127.400000,151.200000C127,151.600000,126.400000,151.600000,125.800000,151.300000L104.300000,139C103.100000,138.300000,102.100000,136.400000,102.100000,134.800000L102.100000,127.100000C102.100000,126,102.600000,125.400000,103.200000,125.200000Z" fill="rgb(255,255,255)" stroke="none" stroke-width="1"/><g id="ef3tutsq16o28"><path id="ef3tutsq16o29" d="M119.300000,142.900000L117.300000,141.800000C117,141.600000,116.800000,141.200000,116.800000,140.900000L116.800000,138.800000C116.800000,138.400000,117,138.300000,117.300000,138.400000L119.300000,139.500000C119.600000,139.700000,119.800000,140.100000,119.800000,140.400000L119.800000,142.500000C119.800000,142.900000,119.600000,143.100000,119.300000,142.900000Z" fill="rgb(255,255,255)" stroke="none" stroke-width="1"/><path id="ef3tutsq16o30" d="M112.700000,139.100000L110.700000,138C110.400000,137.800000,110.200000,137.400000,110.200000,137.100000L110.200000,135C110.200000,134.600000,110.400000,134.500000,110.700000,134.600000L112.700000,135.700000C113,135.900000,113.200000,136.300000,113.200000,136.600000L113.200000,138.700000C113.200000,139.100000,113,139.300000,112.700000,139.100000Z" fill="rgb(255,0,0)" stroke="none" stroke-width="1"/></g></g><g id="ef3tutsq16o31"><path id="ef3tutsq16o32" d="M125.700000,178.900000L104.300000,166.600000C103.100000,165.900000,102.100000,164,102.100000,162.400000L102.100000,154.700000C102.100000,153.100000,103.100000,152.400000,104.300000,153L125.700000,165.300000C126.900000,166,127.900000,167.900000,127.900000,169.500000L127.900000,177.200000C127.900000,178.900000,126.900000,179.600000,125.700000,178.900000Z" fill="rgb(17,17,17)" stroke="none" stroke-width="1"/><path id="ef3tutsq16o33" d="M103.200000,152.900000C102.900000,153.200000,102.700000,153.800000,102.700000,154.500000L102.700000,162.200000C102.700000,163.800000,103.700000,165.700000,104.900000,166.400000L126.300000,178.700000C126.700000,178.900000,127,179,127.400000,178.900000C127,179.300000,126.400000,179.300000,125.800000,179L104.400000,166.700000C103.200000,166,102.200000,164.100000,102.200000,162.500000L102.200000,154.800000C102.100000,153.700000,102.600000,153.100000,103.200000,152.900000Z" fill="rgb(255,255,255)" stroke="none" stroke-width="1"/><g id="ef3tutsq16o34"><path id="ef3tutsq16o35" d="M119.300000,170.600000L117.300000,169.500000C117,169.300000,116.800000,168.900000,116.800000,168.600000L116.800000,166.500000C116.800000,166.100000,117,166,117.300000,166.100000L119.300000,167.200000C119.600000,167.400000,119.800000,167.800000,119.800000,168.100000L119.800000,170.200000C119.800000,170.600000,119.600000,170.800000,119.300000,170.600000Z" fill="rgb(244,0,0)" stroke="none" stroke-width="1"/><path id="ef3tutsq16o36" d="M112.700000,166.800000L110.700000,165.700000C110.400000,165.500000,110.200000,165.100000,110.200000,164.800000L110.200000,162.700000C110.200000,162.300000,110.400000,162.200000,110.700000,162.300000L112.700000,163.400000C113,163.600000,113.200000,164,113.200000,164.300000L113.200000,166.400000C113.200000,166.800000,113,167,112.700000,166.800000Z" fill="rgb(255,255,255)" stroke="none" stroke-width="1"/></g></g><g id="ef3tutsq16o37"><path id="ef3tutsq16o38" d="M125.700000,123.500000L104.300000,111.200000C103.100000,110.500000,102.100000,108.600000,102.100000,107L102.100000,99.300000C102.100000,97.700000,103.100000,97,104.300000,97.600000L125.700000,109.900000C126.900000,110.600000,127.900000,112.500000,127.900000,114.100000L127.900000,121.800000C127.900000,123.500000,126.900000,124.200000,125.700000,123.500000Z" fill="rgb(17,17,17)" stroke="none" stroke-width="1"/><path id="ef3tutsq16o39" d="M103.200000,97.500000C102.900000,97.800000,102.700000,98.400000,102.700000,99.100000L102.700000,106.800000C102.700000,108.400000,103.700000,110.300000,104.900000,111L126.300000,123.300000C126.700000,123.500000,127,123.600000,127.400000,123.500000C127,123.900000,126.400000,123.900000,125.800000,123.600000L104.400000,111.300000C103.200000,110.600000,102.200000,108.700000,102.200000,107.100000L102.200000,99.400000C102.100000,98.300000,102.600000,97.700000,103.200000,97.500000Z" fill="rgb(255,255,255)" stroke="none" stroke-width="1"/><g id="ef3tutsq16o40"><path id="ef3tutsq16o41" d="M119.300000,115.200000L117.300000,114.100000C117,113.900000,116.800000,113.500000,116.800000,113.200000L116.800000,111.100000C116.800000,110.700000,117,110.600000,117.300000,110.700000L119.300000,111.800000C119.600000,112,119.800000,112.400000,119.800000,112.700000L119.800000,114.800000C119.800000,115.200000,119.600000,115.400000,119.300000,115.200000Z" fill="rgb(255,0,0)" stroke="none" stroke-width="1"/><path id="ef3tutsq16o42" d="M112.700000,111.400000L110.700000,110.300000C110.400000,110.100000,110.200000,109.700000,110.200000,109.400000L110.200000,107.300000C110.200000,106.900000,110.400000,106.800000,110.700000,106.900000L112.700000,108C113,108.200000,113.200000,108.600000,113.200000,108.900000L113.200000,111C113.200000,111.400000,113,111.600000,112.700000,111.400000Z" fill="rgb(255,255,255)" stroke="none" stroke-width="1"/></g></g></g><g id="ef3tutsq16o43"><path id="ef3tutsq16o44" d="M144.300000,88L193.800000,59.400000C194.900000,58.800000,195.800000,57,195.800000,55.600000L195.800000,46.200000C195.800000,44.700000,194.900000,44,193.800000,44.700000L144.300000,73.300000C143.200000,73.900000,142.300000,75.700000,142.300000,77.100000L142.300000,86.500000C142.300000,88,143.200000,88.600000,144.300000,88Z" fill="rgb(81,81,81)" stroke="none" stroke-width="1"/><path id="ef3tutsq16o45" d="M145.700000,84.700000L192.300000,57.800000C192.900000,57.500000,193.300000,56.600000,193.300000,55.900000L193.300000,48.800000C193.300000,48.100000,192.800000,47.700000,192.300000,48L145.700000,74.900000C145.100000,75.200000,144.700000,76.100000,144.700000,76.800000L144.700000,83.900000C144.700000,84.700000,145.200000,85,145.700000,84.700000Z" opacity="0.4" fill="rgb(212,236,255)" stroke="none" stroke-width="1"/><path id="ef3tutsq16o46" d="M182.600000,59.800000L189.600000,55.800000C190.100000,55.500000,190.600000,54.600000,190.600000,53.900000L190.600000,53.900000C190.600000,53.200000,190.200000,52.800000,189.600000,53.200000L182.600000,57.200000C182.100000,57.500000,181.600000,58.400000,181.600000,59.100000L181.600000,59.100000C181.600000,59.800000,182.100000,60.100000,182.600000,59.800000Z" fill="rgb(255,255,255)" stroke="none" stroke-width="1"/><path id="ef3tutsq16o47" d="M176.700000,61.900000C176.700000,62.600000,177.200000,62.900000,177.800000,62.600000C178.400000,62.200000,178.900000,61.400000,178.900000,60.600000C178.900000,59.900000,178.400000,59.600000,177.800000,59.900000C177.200000,60.300000,176.700000,61.200000,176.700000,61.900000Z" fill="rgb(17,17,17)" stroke="none" stroke-width="1"/><path id="ef3tutsq16o48" d="M172.700000,64.200000C172.700000,64.900000,173.200000,65.200000,173.800000,64.900000C174.400000,64.500000,174.900000,63.700000,174.900000,62.900000C174.900000,62.200000,174.400000,61.900000,173.800000,62.200000C173.200000,62.600000,172.700000,63.500000,172.700000,64.200000Z" fill="rgb(119,24,24)" stroke="none" stroke-width="1"/><path id="ef3tutsq16o49" d="M168.700000,66.500000C168.700000,67.200000,169.200000,67.500000,169.800000,67.200000C170.400000,66.800000,170.900000,66,170.900000,65.200000C170.900000,64.400000,170.400000,64.200000,169.800000,64.500000C169.200000,64.900000,168.700000,65.800000,168.700000,66.500000Z" fill="rgb(244,0,0)" stroke="none" stroke-width="1"/><path id="ef3tutsq16o50" d="M164.600000,68.900000C164.600000,69.600000,165.100000,69.900000,165.700000,69.600000C166.300000,69.200000,166.800000,68.400000,166.800000,67.600000C166.800000,66.900000,166.300000,66.600000,165.700000,66.900000C165.100000,67.300000,164.600000,68.100000,164.600000,68.900000Z" fill="rgb(17,17,17)" stroke="none" stroke-width="1"/><path id="ef3tutsq16o51" d="M147.700000,80.700000L150,79.300000C150.300000,79.100000,150.600000,78.600000,150.600000,78.100000L150.600000,75.600000C150.600000,75.100000,150.300000,74.900000,150,75.100000L147.700000,76.500000C147.300000,76.700000,147.100000,77.200000,147.100000,77.700000L147.100000,80.200000C147.100000,80.700000,147.300000,80.900000,147.700000,80.700000Z" fill="rgb(165,0,0)" stroke="none" stroke-width="1"/></g><g id="ef3tutsq16o52"><path id="ef3tutsq16o53" d="M144.300000,104.600000L193.800000,76C194.900000,75.400000,195.800000,73.600000,195.800000,72.200000L195.800000,62.800000C195.800000,61.300000,194.900000,60.600000,193.800000,61.300000L144.300000,89.900000C143.200000,90.500000,142.300000,92.300000,142.300000,93.700000L142.300000,103.100000C142.300000,104.600000,143.200000,105.300000,144.300000,104.600000Z" fill="rgb(81,81,81)" stroke="none" stroke-width="1"/><path id="ef3tutsq16o54" d="M145.700000,101.300000L192.300000,74.400000C192.900000,74.100000,193.300000,73.200000,193.300000,72.500000L193.300000,65.400000C193.300000,64.700000,192.800000,64.300000,192.300000,64.600000L145.700000,91.500000C145.100000,91.800000,144.700000,92.700000,144.700000,93.400000L144.700000,100.500000C144.700000,101.300000,145.200000,101.600000,145.700000,101.300000Z" opacity="0.4" fill="rgb(212,236,255)" stroke="none" stroke-width="1"/><path id="ef3tutsq16o55" d="M182.600000,76.400000L189.600000,72.400000C190.100000,72.100000,190.600000,71.200000,190.600000,70.500000L190.600000,70.500000C190.600000,69.800000,190.200000,69.400000,189.600000,69.800000L182.600000,73.800000C182.100000,74.100000,181.600000,75,181.600000,75.700000L181.600000,75.700000C181.600000,76.400000,182.100000,76.700000,182.600000,76.400000Z" fill="rgb(244,0,0)" stroke="none" stroke-width="1"/><path id="ef3tutsq16o56" d="M176.700000,78.500000C176.700000,79.200000,177.200000,79.500000,177.800000,79.200000C178.400000,78.800000,178.900000,78,178.900000,77.200000C178.900000,76.500000,178.400000,76.200000,177.800000,76.500000C177.200000,76.900000,176.700000,77.800000,176.700000,78.500000Z" fill="rgb(255,255,255)" stroke="none" stroke-width="1"/><path id="ef3tutsq16o57" d="M172.700000,80.900000C172.700000,81.600000,173.200000,81.900000,173.800000,81.600000C174.400000,81.200000,174.900000,80.400000,174.900000,79.600000C174.900000,78.900000,174.400000,78.600000,173.800000,78.900000C173.200000,79.200000,172.700000,80.100000,172.700000,80.900000Z" fill="rgb(17,17,17)" stroke="none" stroke-width="1"/><path id="ef3tutsq16o58" d="M168.700000,83.200000C168.700000,83.900000,169.200000,84.200000,169.800000,83.900000C170.400000,83.500000,170.900000,82.700000,170.900000,81.900000C170.900000,81.200000,170.400000,80.900000,169.800000,81.200000C169.200000,81.600000,168.700000,82.400000,168.700000,83.200000Z" fill="rgb(17,17,17)" stroke="none" stroke-width="1"/><path id="ef3tutsq16o59" d="M164.600000,85.500000C164.600000,86.200000,165.100000,86.500000,165.700000,86.200000C166.300000,85.800000,166.800000,85,166.800000,84.200000C166.800000,83.500000,166.300000,83.200000,165.700000,83.500000C165.100000,83.900000,164.600000,84.800000,164.600000,85.500000Z" fill="rgb(119,24,24)" stroke="none" stroke-width="1"/><path id="ef3tutsq16o60" d="M147.700000,97.400000L150,96C150.300000,95.800000,150.600000,95.300000,150.600000,94.800000L150.600000,92.300000C150.600000,91.800000,150.300000,91.600000,150,91.800000L147.700000,93.200000C147.300000,93.400000,147.100000,93.900000,147.100000,94.400000L147.100000,96.900000C147.100000,97.400000,147.300000,97.600000,147.700000,97.400000Z" fill="rgb(255,215,215)" stroke="none" stroke-width="1"/></g><g id="ef3tutsq16o61"><path id="ef3tutsq16o62" d="M144.300000,121.300000L193.800000,92.700000C194.900000,92.100000,195.800000,90.300000,195.800000,88.900000L195.800000,79.500000C195.800000,78,194.900000,77.300000,193.800000,78L144.300000,106.600000C143.200000,107.200000,142.300000,109,142.300000,110.400000L142.300000,119.800000C142.300000,121.200000,143.200000,121.900000,144.300000,121.300000Z" fill="rgb(81,81,81)" stroke="none" stroke-width="1"/><path id="ef3tutsq16o63" d="M145.700000,117.900000L192.400000,91C193,90.700000,193.400000,89.800000,193.400000,89.100000L193.400000,82C193.400000,81.300000,192.900000,80.900000,192.400000,81.200000L145.800000,108.100000C145.200000,108.400000,144.800000,109.300000,144.800000,110L144.800000,117.100000C144.700000,117.900000,145.200000,118.300000,145.700000,117.900000Z" opacity="0.4" fill="rgb(212,236,255)" stroke="none" stroke-width="1"/><path id="ef3tutsq16o64" d="M182.600000,93.100000L189.600000,89.100000C190.100000,88.800000,190.600000,87.900000,190.600000,87.200000L190.600000,87.200000C190.600000,86.500000,190.200000,86.100000,189.600000,86.500000L182.600000,90.500000C182.100000,90.800000,181.600000,91.700000,181.600000,92.400000L181.600000,92.400000C181.600000,93,182.100000,93.400000,182.600000,93.100000Z" fill="rgb(255,255,255)" stroke="none" stroke-width="1"/><path id="ef3tutsq16o65" d="M176.700000,95.200000C176.700000,95.900000,177.200000,96.200000,177.800000,95.900000C178.400000,95.500000,178.900000,94.700000,178.900000,93.900000C178.900000,93.200000,178.400000,92.900000,177.800000,93.200000C177.200000,93.500000,176.700000,94.400000,176.700000,95.200000Z" fill="rgb(255,255,255)" stroke="none" stroke-width="1"/><path id="ef3tutsq16o66" d="M172.700000,97.500000C172.700000,98.200000,173.200000,98.500000,173.800000,98.200000C174.400000,97.800000,174.900000,97,174.900000,96.200000C174.900000,95.500000,174.400000,95.200000,173.800000,95.500000C173.200000,95.900000,172.700000,96.800000,172.700000,97.500000Z" fill="rgb(119,24,24)" stroke="none" stroke-width="1"/><path id="ef3tutsq16o67" d="M168.700000,99.800000C168.700000,100.500000,169.200000,100.800000,169.800000,100.500000C170.400000,100.100000,170.900000,99.300000,170.900000,98.500000C170.900000,97.700000,170.400000,97.500000,169.800000,97.800000C169.200000,98.200000,168.700000,99.100000,168.700000,99.800000Z" fill="rgb(244,0,0)" stroke="none" stroke-width="1"/><path id="ef3tutsq16o68" d="M164.600000,102.100000C164.600000,102.800000,165.100000,103.100000,165.700000,102.800000C166.300000,102.400000,166.800000,101.600000,166.800000,100.800000C166.800000,100,166.300000,99.800000,165.700000,100.100000C165.100000,100.500000,164.600000,101.400000,164.600000,102.100000Z" fill="rgb(17,17,17)" stroke="none" stroke-width="1"/><path id="ef3tutsq16o69" d="M147.700000,114L150,112.600000C150.300000,112.400000,150.600000,111.900000,150.600000,111.400000L150.600000,109C150.600000,108.500000,150.300000,108.300000,150,108.500000L147.700000,109.900000C147.300000,110.100000,147.100000,110.600000,147.100000,111.100000L147.100000,113.600000C147.100000,114,147.300000,114.200000,147.700000,114Z" fill="rgb(119,24,24)" stroke="none" stroke-width="1"/></g><g id="ef3tutsq16o70"><path id="ef3tutsq16o71" d="M144.300000,137.900000L193.800000,109.300000C194.900000,108.700000,195.800000,106.900000,195.800000,105.500000L195.800000,96.100000C195.800000,94.600000,194.900000,93.900000,193.800000,94.600000L144.300000,123.200000C143.200000,123.800000,142.300000,125.600000,142.300000,127L142.300000,136.400000C142.300000,137.800000,143.200000,138.500000,144.300000,137.900000Z" fill="rgb(81,81,81)" stroke="none" stroke-width="1"/><path id="ef3tutsq16o72" d="M145.700000,134.600000L192.300000,107.700000C192.900000,107.400000,193.300000,106.500000,193.300000,105.800000L193.300000,98.700000C193.300000,98,192.800000,97.600000,192.300000,97.900000L145.700000,124.800000C145.100000,125.100000,144.700000,126,144.700000,126.700000L144.700000,133.800000C144.700000,134.600000,145.200000,134.900000,145.700000,134.600000Z" opacity="0.4" fill="rgb(212,236,255)" stroke="none" stroke-width="1"/><path id="ef3tutsq16o73" d="M182.600000,109.700000L189.600000,105.700000C190.100000,105.400000,190.600000,104.500000,190.600000,103.800000L190.600000,103.800000C190.600000,103.100000,190.200000,102.700000,189.600000,103.100000L182.600000,107.100000C182.100000,107.400000,181.600000,108.300000,181.600000,109L181.600000,109C181.600000,109.700000,182.100000,110,182.600000,109.700000Z" fill="rgb(255,255,255)" stroke="none" stroke-width="1"/><path id="ef3tutsq16o74" d="M176.700000,111.800000C176.700000,112.500000,177.200000,112.800000,177.800000,112.500000C178.400000,112.100000,178.900000,111.300000,178.900000,110.500000C178.900000,109.800000,178.400000,109.500000,177.800000,109.800000C177.200000,110.200000,176.700000,111.100000,176.700000,111.800000Z" fill="rgb(17,17,17)" stroke="none" stroke-width="1"/><path id="ef3tutsq16o75" d="M172.700000,114.100000C172.700000,114.800000,173.200000,115.100000,173.800000,114.800000C174.400000,114.400000,174.900000,113.600000,174.900000,112.800000C174.900000,112.100000,174.400000,111.800000,173.800000,112.100000C173.200000,112.500000,172.700000,113.400000,172.700000,114.100000Z" fill="rgb(17,17,17)" stroke="none" stroke-width="1"/><path id="ef3tutsq16o76" d="M168.700000,116.400000C168.700000,117.100000,169.200000,117.400000,169.800000,117.100000C170.400000,116.700000,170.900000,115.900000,170.900000,115.100000C170.900000,114.400000,170.400000,114.100000,169.800000,114.400000C169.200000,114.800000,168.700000,115.700000,168.700000,116.400000Z" fill="rgb(244,0,0)" stroke="none" stroke-width="1"/><path id="ef3tutsq16o77" d="M164.600000,118.800000C164.600000,119.500000,165.100000,119.800000,165.700000,119.500000C166.300000,119.100000,166.800000,118.300000,166.800000,117.500000C166.800000,116.800000,166.300000,116.500000,165.700000,116.800000C165.100000,117.200000,164.600000,118,164.600000,118.800000Z" fill="rgb(17,17,17)" stroke="none" stroke-width="1"/><path id="ef3tutsq16o78" d="M147.700000,130.600000L150,129.200000C150.300000,129,150.600000,128.500000,150.600000,128L150.600000,125.500000C150.600000,125,150.300000,124.800000,150,125L147.700000,126.400000C147.300000,126.600000,147.100000,127.100000,147.100000,127.600000L147.100000,130.100000C147.100000,130.600000,147.300000,130.800000,147.700000,130.600000Z" fill="rgb(255,215,215)" stroke="none" stroke-width="1"/></g><g id="ef3tutsq16o79"><path id="ef3tutsq16o80" d="M144.300000,154.500000L193.800000,125.900000C194.900000,125.300000,195.800000,123.500000,195.800000,122.100000L195.800000,112.700000C195.800000,111.200000,194.900000,110.500000,193.800000,111.200000L144.300000,139.800000C143.200000,140.400000,142.300000,142.200000,142.300000,143.600000L142.300000,153C142.300000,154.500000,143.200000,155.200000,144.300000,154.500000Z" fill="rgb(81,81,81)" stroke="none" stroke-width="1"/><path id="ef3tutsq16o81" d="M145.700000,151.200000L192.300000,124.300000C192.900000,124,193.300000,123.100000,193.300000,122.400000L193.300000,115.300000C193.300000,114.600000,192.800000,114.200000,192.300000,114.500000L145.700000,141.400000C145.100000,141.700000,144.700000,142.600000,144.700000,143.300000L144.700000,150.400000C144.700000,151.200000,145.200000,151.500000,145.700000,151.200000Z" opacity="0.4" fill="rgb(212,236,255)" stroke="none" stroke-width="1"/><path id="ef3tutsq16o82" d="M182.600000,126.300000L189.600000,122.300000C190.100000,122,190.600000,121.100000,190.600000,120.400000L190.600000,120.400000C190.600000,119.700000,190.200000,119.300000,189.600000,119.700000L182.600000,123.700000C182.100000,124,181.600000,124.900000,181.600000,125.600000L181.600000,125.600000C181.600000,126.300000,182.100000,126.600000,182.600000,126.300000Z" fill="rgb(255,255,255)" stroke="none" stroke-width="1"/><path id="ef3tutsq16o83" d="M176.700000,128.400000C176.700000,129.100000,177.200000,129.400000,177.800000,129.100000C178.400000,128.700000,178.900000,127.900000,178.900000,127.100000C178.900000,126.400000,178.400000,126.100000,177.800000,126.400000C177.200000,126.800000,176.700000,127.700000,176.700000,128.400000Z" fill="rgb(119,24,24)" stroke="none" stroke-width="1"/><path id="ef3tutsq16o84" d="M172.700000,130.700000C172.700000,131.400000,173.200000,131.700000,173.800000,131.400000C174.400000,131,174.900000,130.200000,174.900000,129.400000C174.900000,128.600000,174.400000,128.400000,173.800000,128.700000C173.200000,129.100000,172.700000,130,172.700000,130.700000Z" fill="rgb(255,255,255)" stroke="none" stroke-width="1"/><path id="ef3tutsq16o85" d="M168.700000,133.100000C168.700000,133.800000,169.200000,134.100000,169.800000,133.800000C170.400000,133.400000,170.900000,132.600000,170.900000,131.800000C170.900000,131.100000,170.400000,130.800000,169.800000,131.100000C169.200000,131.500000,168.700000,132.300000,168.700000,133.100000Z" fill="rgb(255,215,215)" stroke="none" stroke-width="1"/><path id="ef3tutsq16o86" d="M164.600000,135.400000C164.600000,136.100000,165.100000,136.400000,165.700000,136.100000C166.300000,135.700000,166.800000,134.900000,166.800000,134.100000C166.800000,133.400000,166.300000,133.100000,165.700000,133.400000C165.100000,133.800000,164.600000,134.700000,164.600000,135.400000Z" fill="rgb(255,255,255)" stroke="none" stroke-width="1"/><path id="ef3tutsq16o87" d="M147.700000,147.300000L150,145.900000C150.300000,145.700000,150.600000,145.200000,150.600000,144.700000L150.600000,142.200000C150.600000,141.700000,150.300000,141.500000,150,141.700000L147.700000,143.100000C147.300000,143.300000,147.100000,143.800000,147.100000,144.300000L147.100000,146.800000C147.100000,147.300000,147.300000,147.500000,147.700000,147.300000Z" fill="rgb(244,0,0)" stroke="none" stroke-width="1"/></g><g id="ef3tutsq16o88"><path id="ef3tutsq16o89" d="M144.300000,171.200000L193.800000,142.600000C194.900000,142,195.800000,140.200000,195.800000,138.800000L195.800000,129.400000C195.800000,127.900000,194.900000,127.200000,193.800000,127.900000L144.300000,156.500000C143.200000,157.100000,142.300000,158.900000,142.300000,160.300000L142.300000,169.700000C142.300000,171.100000,143.200000,171.800000,144.300000,171.200000Z" fill="rgb(81,81,81)" stroke="none" stroke-width="1"/><path id="ef3tutsq16o90" d="M145.700000,167.800000L192.300000,140.900000C192.900000,140.600000,193.300000,139.700000,193.300000,139L193.300000,131.900000C193.300000,131.200000,192.800000,130.800000,192.300000,131.100000L145.700000,158C145.100000,158.300000,144.700000,159.200000,144.700000,159.900000L144.700000,167C144.700000,167.800000,145.200000,168.200000,145.700000,167.800000Z" opacity="0.4" fill="rgb(212,236,255)" stroke="none" stroke-width="1"/><path id="ef3tutsq16o91" d="M182.600000,143L189.600000,139C190.100000,138.700000,190.600000,137.800000,190.600000,137.100000L190.600000,137.100000C190.600000,136.400000,190.200000,136,189.600000,136.400000L182.600000,140.400000C182.100000,140.700000,181.600000,141.600000,181.600000,142.300000L181.600000,142.300000C181.600000,142.900000,182.100000,143.300000,182.600000,143Z" fill="rgb(255,255,255)" stroke="none" stroke-width="1"/><path id="ef3tutsq16o92" d="M176.700000,145.100000C176.700000,145.800000,177.200000,146.100000,177.800000,145.800000C178.400000,145.400000,178.900000,144.600000,178.900000,143.800000C178.900000,143.100000,178.400000,142.800000,177.800000,143.100000C177.200000,143.400000,176.700000,144.300000,176.700000,145.100000Z" fill="rgb(17,17,17)" stroke="none" stroke-width="1"/><path id="ef3tutsq16o93" d="M172.700000,147.400000C172.700000,148.100000,173.200000,148.400000,173.800000,148.100000C174.400000,147.700000,174.900000,146.900000,174.900000,146.100000C174.900000,145.400000,174.400000,145.100000,173.800000,145.400000C173.200000,145.800000,172.700000,146.700000,172.700000,147.400000Z" fill="rgb(255,215,215)" stroke="none" stroke-width="1"/><path id="ef3tutsq16o94" d="M168.700000,149.700000C168.700000,150.400000,169.200000,150.700000,169.800000,150.400000C170.400000,150,170.900000,149.200000,170.900000,148.400000C170.900000,147.700000,170.400000,147.400000,169.800000,147.700000C169.200000,148.100000,168.700000,149,168.700000,149.700000Z" fill="rgb(244,0,0)" stroke="none" stroke-width="1"/><path id="ef3tutsq16o95" d="M164.600000,152C164.600000,152.700000,165.100000,153,165.700000,152.700000C166.300000,152.300000,166.800000,151.500000,166.800000,150.700000C166.800000,150,166.300000,149.700000,165.700000,150C165.100000,150.400000,164.600000,151.300000,164.600000,152Z" fill="rgb(119,24,24)" stroke="none" stroke-width="1"/><path id="ef3tutsq16o96" d="M147.700000,163.900000L150,162.500000C150.300000,162.300000,150.600000,161.800000,150.600000,161.300000L150.600000,158.800000C150.600000,158.300000,150.300000,158.100000,150,158.300000L147.700000,159.700000C147.300000,159.900000,147.100000,160.400000,147.100000,160.900000L147.100000,163.400000C147.100000,163.900000,147.300000,164.100000,147.700000,163.900000Z" fill="rgb(119,24,24)" stroke="none" stroke-width="1"/></g><g id="ef3tutsq16o97"><path id="ef3tutsq16o98" d="M144.300000,187.800000L193.800000,159.200000C194.900000,158.600000,195.800000,156.800000,195.800000,155.400000L195.800000,146C195.800000,144.500000,194.900000,143.800000,193.800000,144.500000L144.300000,173C143.200000,173.600000,142.300000,175.400000,142.300000,176.800000L142.300000,186.200000C142.300000,187.700000,143.200000,188.400000,144.300000,187.800000Z" fill="rgb(87,147,206)" stroke="none" stroke-width="1"/><path id="ef3tutsq16o99" d="M145.700000,184.500000L192.300000,157.600000C192.900000,157.300000,193.300000,156.400000,193.300000,155.700000L193.300000,148.600000C193.300000,147.900000,192.800000,147.500000,192.300000,147.800000L145.700000,174.700000C145.100000,175,144.700000,175.900000,144.700000,176.600000L144.700000,183.700000C144.700000,184.500000,145.200000,184.800000,145.700000,184.500000Z" opacity="0.4" fill="rgb(212,236,255)" stroke="none" stroke-width="1"/><path id="ef3tutsq16o100" d="M182.600000,159.600000L189.600000,155.600000C190.100000,155.300000,190.600000,154.400000,190.600000,153.700000L190.600000,153.700000C190.600000,153,190.200000,152.600000,189.600000,153L182.600000,157C182.100000,157.300000,181.600000,158.200000,181.600000,158.900000L181.600000,158.900000C181.600000,159.600000,182.100000,159.900000,182.600000,159.600000Z" fill="rgb(212,236,255)" stroke="none" stroke-width="1"/><path id="ef3tutsq16o101" d="M175.400000,162.600000C175.400000,164,176.400000,164.500000,177.600000,163.800000C178.800000,163.100000,179.800000,161.400000,179.800000,160.100000C179.800000,158.700000,178.800000,158.200000,177.600000,158.900000C176.400000,159.500000,175.400000,161.200000,175.400000,162.600000Z" fill="rgb(255,255,255)" stroke="none" stroke-width="1"/><path id="ef3tutsq16o102" d="M167.100000,167.500000C167.100000,168.200000,167.600000,168.500000,168.200000,168.200000C168.800000,167.800000,169.300000,167,169.300000,166.200000C169.300000,165.500000,168.800000,165.200000,168.200000,165.500000C167.600000,165.900000,167.100000,166.700000,167.100000,167.500000Z" fill="rgb(23,61,122)" stroke="none" stroke-width="1"/><path id="ef3tutsq16o103" d="M163.100000,169.800000C163.100000,170.500000,163.600000,170.800000,164.200000,170.500000C164.800000,170.100000,165.300000,169.300000,165.300000,168.500000C165.300000,167.800000,164.800000,167.500000,164.200000,167.800000C163.600000,168.200000,163.100000,169.100000,163.100000,169.800000Z" fill="rgb(212,236,255)" stroke="none" stroke-width="1"/><path id="ef3tutsq16o104" d="M159.100000,172.100000C159.100000,172.800000,159.600000,173.100000,160.200000,172.800000C160.800000,172.400000,161.300000,171.600000,161.300000,170.800000C161.300000,170.100000,160.800000,169.800000,160.200000,170.100000C159.600000,170.500000,159.100000,171.400000,159.100000,172.100000Z" fill="rgb(23,61,122)" stroke="none" stroke-width="1"/><path id="ef3tutsq16o105" d="M147.700000,180.500000L150,179.100000C150.300000,178.900000,150.600000,178.400000,150.600000,177.900000L150.600000,175.400000C150.600000,174.900000,150.300000,174.700000,150,174.900000L147.700000,176.300000C147.300000,176.500000,147.100000,177,147.100000,177.500000L147.100000,180C147.100000,180.500000,147.300000,180.700000,147.700000,180.500000Z" fill="rgb(212,236,255)" stroke="none" stroke-width="1"/></g></g><g id="ef3tutsq16o106"><polygon id="ef3tutsq16o107" points="345.300000,213.600000 248.200000,157.500000 357.700000,162.700000 364.500000,169.200000 366,179 364.900000,185.600000 361.600000,193.600000 358.400000,200 354.700000,204.700000" fill="rgb(81,81,81)" stroke="none" stroke-width="1"/><path id="ef3tutsq16o108" d="M263.700000,106.400000C263.500000,106.300000,263.400000,106.200000,263.200000,106.100000L263.200000,106.100000L263.200000,106.100000C259.300000,104,254,104.400000,248.200000,107.800000L115.500000,184.400000C116.100000,184.800000,116.600000,185.300000,117,185.900000L122,183L148.900000,241.400000L162.800000,260.400000L171.900000,263.600000L181,260L225.100000,234.900000L312.600000,184.900000L344.700000,165.600000L353.100000,162.900000L360.600000,162.500000L263.700000,106.400000Z" fill="rgb(212,236,255)" stroke="none" stroke-width="1"/><g id="ef3tutsq16o109"><path id="ef3tutsq16o110" d="M360.600000,162.300000C356.700000,160,351.300000,160.400000,345.300000,163.800000L180.300000,259.100000C169.500000,265.300000,160.800000,260.300000,160.800000,247.800000C160.800000,235.400000,169.600000,220.200000,180.300000,214L180.300000,211.600000C168.400000,218.500000,158.700000,235.200000,158.700000,249C158.700000,251.900000,159.100000,254.300000,159.900000,256.500000L148.800000,241.300000L122,182.900000L117,185.800000C116.500000,185.300000,116,184.700000,115.500000,184.300000L244.600000,109.800000L248.300000,107.700000C251.700000,105.700000,255,104.800000,257.900000,104.800000C259.900000,104.800000,261.700000,105.200000,263.200000,106.100000L263.200000,106.100000C263.400000,106.200000,263.500000,106.300000,263.700000,106.400000L273.800000,112.200000L360.600000,162.300000Z" fill="rgb(216,216,216)" stroke="none" stroke-width="1"/><path id="ef3tutsq16o111" d="M360.600000,162.300000L360.600000,162.300000L360.600000,162.300000C360.600000,162.300000,360.600000,162.300000,360.600000,162.300000Z" fill="rgb(212,236,255)" stroke="none" stroke-width="1"/></g><g id="ef3tutsq16o112"><g id="ef3tutsq16o113"><path id="ef3tutsq16o114" d="M158.800000,247.700000C158.800000,247.900000,158.800000,248.200000,158.800000,248.400000C158.900000,241.500000,161.400000,234,165.400000,227.300000C165.200000,227.200000,165,227.100000,164.800000,226.900000C161.100000,233.600000,158.800000,241,158.800000,247.700000Z" fill="rgb(255,255,255)" stroke="none" stroke-width="1"/><path id="ef3tutsq16o115" d="M345.300000,162.500000L180.300000,257.800000C169.800000,263.900000,161.200000,259.200000,160.800000,247.400000C160.800000,247.500000,160.800000,247.700000,160.800000,247.800000C160.800000,260.200000,169.600000,265.300000,180.300000,259.100000L345.300000,163.800000C351.200000,160.400000,356.600000,160,360.500000,162.300000L355.800000,159.600000C352.800000,159.400000,349.200000,160.300000,345.300000,162.500000Z" fill="rgb(255,255,255)" stroke="none" stroke-width="1"/><path id="ef3tutsq16o116" d="M148.900000,240L122,181.600000L117,184.500000C116.800000,184.300000,116.600000,184,116.400000,183.800000L115.500000,184.300000C116.100000,184.700000,116.600000,185.200000,117,185.800000L122,182.900000L148.900000,241.300000L160,256.500000C159.800000,255.800000,159.600000,255.100000,159.400000,254.400000L148.900000,240Z" fill="rgb(255,255,255)" stroke="none" stroke-width="1"/></g><path id="ef3tutsq16o117" d="M360.600000,161L360.600000,161L360.600000,161C360.600000,161,360.600000,161,360.600000,161Z" fill="rgb(212,236,255)" stroke="none" stroke-width="1"/></g><path id="ef3tutsq16o118" d="M83.200000,155.500000L83.200000,155.500000C71.300000,162.400000,61.600000,179.100000,61.600000,192.900000C61.600000,199.500000,63.900000,204.300000,67.500000,206.600000L67.500000,206.600000L67.600000,206.600000C67.800000,206.700000,68,206.900000,68.300000,207L165.100000,262.900000L159.200000,252.200000L159.900000,241.500000L161.800000,235.500000L164.700000,229.100000C164.700000,229.100000,167.100000,224.700000,167.200000,224.600000C167.300000,224.500000,170.700000,220.200000,170.700000,220.200000L174,216.800000L177.500000,214.500000L180.500000,211.600000L83.200000,155.500000Z" fill="rgb(191,191,191)" stroke="none" stroke-width="1"/><g id="ef3tutsq16o119"><path id="ef3tutsq16o120" d="M345.300000,213.600000L345.300000,211.200000C356.100000,205,364.800000,189.800000,364.800000,177.400000C364.800000,165,356,159.900000,345.300000,166.100000L180.300000,261.400000C168.400000,268.300000,158.700000,262.700000,158.700000,248.900000C158.700000,235.100000,168.400000,218.400000,180.300000,211.500000L180.300000,213.900000C169.500000,220.100000,160.800000,235.300000,160.800000,247.700000C160.800000,260.100000,169.600000,265.200000,180.300000,259L345.300000,163.700000C357.200000,156.800000,366.900000,162.400000,366.900000,176.200000C366.900000,190,357.200000,206.800000,345.300000,213.600000Z" fill="rgb(40,40,40)" stroke="none" stroke-width="1"/></g></g><g id="ef3tutsq16o121"><polygon id="ef3tutsq16o122" points="205.600000,213.300000 166.900000,190.800000 164.500000,192.100000 203.200000,214.700000" fill="rgb(81,81,81)" stroke="none" stroke-width="1"/><polygon id="ef3tutsq16o123" points="204.600000,200.500000 177.500000,184.700000 175.100000,186.100000 202.100000,201.800000" fill="rgb(104,104,104)" stroke="none" stroke-width="1"/><polygon id="ef3tutsq16o124" points="195.600000,201.400000 172.200000,187.700000 169.800000,189.100000 193.200000,202.800000" fill="rgb(244,0,0)" stroke="none" stroke-width="1"/><polygon id="ef3tutsq16o125" points="210.900000,210.300000 199.200000,203.500000 196.800000,204.900000 208.500000,211.700000" fill="rgb(17,17,17)" stroke="none" stroke-width="1"/></g><g id="ef3tutsq16o126"><polygon id="ef3tutsq16o127" points="303.800000,153.700000 265.100000,131.200000 262.700000,132.600000 301.400000,155.100000" fill="rgb(104,104,104)" stroke="none" stroke-width="1"/><polygon id="ef3tutsq16o128" points="302.700000,140.900000 275.700000,125.100000 273.300000,126.500000 300.300000,142.200000" fill="rgb(244,0,0)" stroke="none" stroke-width="1"/><polygon id="ef3tutsq16o129" points="293.800000,141.800000 270.400000,128.100000 268,129.500000 291.400000,143.200000" fill="rgb(17,17,17)" stroke="none" stroke-width="1"/><polygon id="ef3tutsq16o130" points="309.100000,150.700000 297.400000,143.900000 295,145.300000 306.700000,152.100000" fill="rgb(244,0,0)" stroke="none" stroke-width="1"/></g><g id="ef3tutsq16o131"><path id="ef3tutsq16o132" d="M273.700000,112.200000L262.100000,119L262.100000,119C261.600000,119.400000,260.900000,119.400000,260.100000,118.900000L244.500000,109.900000L248.200000,107.800000C251.600000,105.800000,254.900000,104.900000,257.800000,104.900000C259.800000,104.900000,261.600000,105.300000,263.100000,106.200000L263.100000,106.200000C263.300000,106.300000,263.400000,106.400000,263.600000,106.500000L273.700000,112.200000Z" fill="rgb(142,142,142)" stroke="none" stroke-width="1"/><g id="ef3tutsq16o133"><g id="ef3tutsq16o134_to" transform="translate(0,0)"><path id="ef3tutsq16o134" d="M255,105.800000L251,103.500000C250.600000,103.300000,250.300000,102.600000,250.300000,102.100000L250.300000,102.100000C250.300000,101.600000,250.600000,101.300000,251,101.600000L255,103.900000C255.400000,104.100000,255.700000,104.800000,255.700000,105.300000L255.700000,105.300000C255.800000,105.800000,255.400000,106.100000,255,105.800000Z" transform="translate(0,0)" fill="rgb(255,255,255)" stroke="none" stroke-width="1"/></g><g id="ef3tutsq16o135"><g id="ef3tutsq16o136_to" transform="translate(0,0)"><path id="ef3tutsq16o136" d="M295.400000,85.300000L290.400000,82.400000L308.900000,71.700000C309.800000,71.200000,309.800000,70.400000,308.900000,69.900000L290,58.900000C289.100000,58.400000,287.700000,58.400000,286.800000,58.900000L268.300000,69.600000L263.300000,66.700000L281.800000,56C285.400000,53.900000,291.400000,53.900000,295,56L313.900000,66.900000C317.500000,69,317.500000,72.400000,313.900000,74.500000L295.400000,85.300000Z" transform="translate(0,0)" fill="rgb(244,0,0)" stroke="none" stroke-width="1"/></g></g><g id="ef3tutsq16o137"><g id="ef3tutsq16o138_to" transform="translate(0,0)"><path id="ef3tutsq16o138" d="M303.500000,86.500000C303.500000,83.800000,301.900000,80.700000,299.900000,79.500000L266.300000,60.100000C265.400000,59.600000,264.600000,59.500000,263.900000,59.900000L263.900000,59.900000L223.800000,83.200000L262.600000,112.400000L302.100000,89.500000C302.200000,89.400000,302.300000,89.400000,302.400000,89.300000L302.400000,89.300000L302.400000,89.300000C303.100000,88.900000,303.500000,87.900000,303.500000,86.500000Z" transform="translate(0,0)" fill="rgb(216,216,216)" stroke="none" stroke-width="1"/></g><g id="ef3tutsq16o139_to" transform="translate(0,0)"><path id="ef3tutsq16o139" d="M262.600000,112.500000L302.100000,89.600000C302.200000,89.500000,302.300000,89.500000,302.400000,89.400000L302.400000,89.400000L302.400000,89.400000C303.100000,88.900000,303.500000,87.900000,303.500000,86.600000C303.500000,85.300000,303.100000,83.900000,302.500000,82.700000L257.500000,108.700000L262.600000,112.500000Z" transform="translate(0,0)" fill="rgb(17,17,17)" stroke="none" stroke-width="1"/></g><g id="ef3tutsq16o140_to" transform="translate(0,0)"><path id="ef3tutsq16o140" d="M260.100000,112.400000L226.500000,93C224.500000,91.800000,222.900000,88.700000,222.900000,86L222.900000,86C222.900000,83.300000,224.500000,82.100000,226.500000,83.200000L260.100000,102.600000C262.100000,103.800000,263.700000,106.900000,263.700000,109.600000L263.700000,109.600000C263.700000,112.300000,262.100000,113.500000,260.100000,112.400000Z" transform="translate(0,0)" fill="rgb(104,104,104)" stroke="none" stroke-width="1"/></g><g id="ef3tutsq16o141_to" transform="translate(0,0)"><path id="ef3tutsq16o141" d="M260.500000,102.500000L226.900000,83.100000C226,82.600000,225.100000,82.500000,224.500000,82.900000C225.100000,82.700000,225.800000,82.800000,226.500000,83.300000L260.100000,102.700000C262.100000,103.900000,263.700000,107,263.700000,109.700000L263.700000,109.700000C263.700000,111.200000,263.200000,112.200000,262.500000,112.600000C263.500000,112.300000,264.100000,111.200000,264.100000,109.500000L264.100000,109.500000C264.100000,106.800000,262.500000,103.600000,260.500000,102.500000Z" transform="translate(0,0)" fill="rgb(255,255,255)" stroke="none" stroke-width="1"/></g></g></g><g id="ef3tutsq16o142"><g id="ef3tutsq16o143_to" transform="translate(0,0)"><path id="ef3tutsq16o143" d="M259.600000,78.300000C260.800000,77.600000,260.800000,76.400000,259.600000,75.700000C258.400000,75,256.400000,75,255.200000,75.700000C254,76.400000,254,77.600000,255.200000,78.300000C256.400000,79,258.400000,79,259.600000,78.300000Z" transform="translate(0,0)" fill="rgb(255,255,255)" stroke="none" stroke-width="1"/></g><g id="ef3tutsq16o144_to" transform="translate(0,0)"><path id="ef3tutsq16o144" d="M266.300000,82.100000C267.500000,81.400000,267.500000,80.200000,266.300000,79.500000C265.100000,78.800000,263.100000,78.800000,261.900000,79.500000C260.700000,80.200000,260.700000,81.400000,261.900000,82.100000C263.100000,82.800000,265.100000,82.800000,266.300000,82.100000Z" transform="translate(0,0)" fill="rgb(255,255,255)" stroke="none" stroke-width="1"/></g><g id="ef3tutsq16o145_to" transform="translate(0,0)"><path id="ef3tutsq16o145" d="M273.100000,85.900000C274.300000,85.200000,274.300000,84,273.100000,83.300000C271.900000,82.600000,269.900000,82.600000,268.700000,83.300000C267.500000,84,267.500000,85.200000,268.700000,85.900000C269.900000,86.600000,271.900000,86.600000,273.100000,85.900000Z" transform="translate(0,0)" fill="rgb(255,255,255)" stroke="none" stroke-width="1"/></g></g></g><g id="ef3tutsq16o146"><path id="ef3tutsq16o147" d="M208.900000,291L314.200000,230.200000C316.800000,228.700000,316.400000,226.200000,313.500000,224.400000L313.500000,224.400000C310.600000,222.700000,306.100000,222.500000,303.500000,224L198.200000,284.800000C195.600000,286.300000,196,288.800000,198.900000,290.600000L198.900000,290.600000C201.900000,292.200000,206.300000,292.400000,208.900000,291Z" fill="rgb(239,239,239)" stroke="none" stroke-width="1"/><g id="ef3tutsq16o148"><path id="ef3tutsq16o149" d="M322.800000,209.300000L322.800000,209.300000C322.700000,209.100000,322.500000,209.100000,322.400000,209.100000L316.800000,210.300000L319,214.100000L322.800000,209.800000C322.900000,209.700000,322.900000,209.500000,322.800000,209.300000Z" fill="rgb(216,216,216)" stroke="none" stroke-width="1"/><g id="ef3tutsq16o150"><path id="ef3tutsq16o151" d="M320.600000,212.100000C320.600000,211.300000,320,210.300000,319.300000,209.900000C319,209.700000,318.700000,209.700000,318.500000,209.800000C312,209.700000,305.700000,211.300000,300.100000,214.500000L299.700000,214.700000L306.500000,226.600000L308.600000,225.300000C313,222.500000,316.700000,218.700000,319.400000,214.300000L320.300000,212.900000C320.400000,212.700000,320.600000,212.400000,320.600000,212.100000Z" fill="rgb(61,61,61)" stroke="none" stroke-width="1"/><path id="ef3tutsq16o152" d="M307.900000,223.500000C307.900000,220.400000,305.700000,216.600000,303.100000,215.100000C300.400000,213.500000,298.300000,214.800000,298.200000,217.900000C298.200000,221,300.400000,224.800000,303,226.300000C305.700000,227.800000,307.900000,226.600000,307.900000,223.500000Z" fill="rgb(216,216,216)" stroke="none" stroke-width="1"/><polygon id="ef3tutsq16o153" points="265,251.900000 306.400000,226.600000 299.600000,214.700000 256.900000,237.900000" fill="rgb(216,216,216)" stroke="none" stroke-width="1"/><path id="ef3tutsq16o154" d="M266.600000,248.200000C266.600000,244.500000,264.100000,240.100000,260.900000,238.300000C257.700000,236.500000,255.200000,237.900000,255.200000,241.600000C255.200000,245.300000,257.700000,249.700000,260.900000,251.500000C264.100000,253.300000,266.600000,251.900000,266.600000,248.200000Z" fill="rgb(212,236,255)" stroke="none" stroke-width="1"/></g><g id="ef3tutsq16o155"><path id="ef3tutsq16o156" d="M264.300000,249.600000C264.300000,245.900000,261.800000,241.500000,258.600000,239.700000C255.400000,237.900000,252.900000,239.300000,252.900000,243C252.900000,246.700000,255.400000,251.100000,258.600000,252.900000C261.700000,254.700000,264.300000,253.200000,264.300000,249.600000Z" fill="rgb(212,236,255)" stroke="none" stroke-width="1"/><rect id="ef3tutsq16o157" width="63.300000" height="16.200000" rx="0" ry="0" transform="matrix(0.86710000000000 -0.49820000000000 0.49820000000000 0.86710000000000 199.67072999999999 270.73378999999994)" fill="rgb(216,216,216)" stroke="none" stroke-width="1"/><path id="ef3tutsq16o158" d="M209.400000,281.100000C209.400000,277.400000,206.900000,273,203.700000,271.200000C200.500000,269.400000,198,270.800000,198,274.500000C198,278.200000,200.500000,282.600000,203.700000,284.400000C206.800000,286.200000,209.400000,284.700000,209.400000,281.100000Z" fill="rgb(216,216,216)" stroke="none" stroke-width="1"/><path id="ef3tutsq16o159" d="M207.400000,279.900000C207.300000,277.700000,205.600000,275,203.500000,273.900000C201.500000,272.700000,199.900000,273.500000,200,275.700000C200.100000,277.900000,201.800000,280.600000,203.900000,281.700000C205.900000,282.900000,207.500000,282.100000,207.400000,279.900000Z" fill="rgb(104,104,104)" stroke="none" stroke-width="1"/></g><g id="ef3tutsq16o160"><path id="ef3tutsq16o161" d="M267.100000,248C267.100000,244.300000,264.600000,239.900000,261.400000,238.100000C260.100000,237.400000,259,237.200000,258,237.400000C259,236.300000,260.700000,236.200000,262.700000,237.300000C265.900000,239.100000,268.400000,243.600000,268.400000,247.200000C268.400000,249.400000,267.500000,250.800000,266.100000,251.200000C266.600000,250.500000,267,249.400000,267.100000,248Z" fill="rgb(255,255,255)" stroke="none" stroke-width="1"/><path id="ef3tutsq16o162" d="M267.100000,248C267.100000,244.300000,264.600000,239.900000,261.400000,238.100000C259.800000,237.200000,258.400000,237.100000,257.300000,237.700000L254.200000,239.500000L255.600000,242C255.800000,245.300000,258,249.100000,260.800000,251L262.200000,253.500000L265.300000,251.700000L265.300000,251.700000C266.400000,251.100000,267,249.800000,267.100000,248Z" fill="rgb(61,61,61)" stroke="none" stroke-width="1"/><path id="ef3tutsq16o163" d="M263.900000,249.800000C263.900000,246.100000,261.400000,241.700000,258.200000,239.900000C255,238.100000,252.500000,239.500000,252.500000,243.200000C252.500000,246.900000,255,251.300000,258.200000,253.100000C261.400000,254.900000,263.900000,253.400000,263.900000,249.800000Z" fill="rgb(216,216,216)" stroke="none" stroke-width="1"/></g><g id="ef3tutsq16o164"><path id="ef3tutsq16o165" d="M204.800000,281.500000L201.300000,275.400000L189.700000,282.100000C188,283.100000,187.400000,285.200000,188.400000,286.900000L188.400000,286.900000C189.400000,288.600000,191.500000,289.200000,193.200000,288.200000L204.800000,281.500000Z" fill="rgb(244,0,0)" stroke="none" stroke-width="1"/><path id="ef3tutsq16o166" d="M205.500000,279.900000C205.500000,278.300000,204.400000,276.400000,203,275.600000C201.600000,274.800000,200.500000,275.400000,200.500000,277C200.500000,278.600000,201.600000,280.500000,203,281.300000C204.400000,282.100000,205.500000,281.500000,205.500000,279.900000Z" fill="rgb(209,0,0)" stroke="none" stroke-width="1"/></g><g id="ef3tutsq16o167"><path id="ef3tutsq16o168" d="M218.600000,258.800000L216.900000,257.800000C215.900000,257.200000,214.600000,257.400000,213.200000,258.200000L207.200000,261.600000C206.100000,262.200000,205.200000,263.800000,205.100000,265.100000L205.100000,268.100000C205.100000,268.600000,204.800000,269.200000,204.500000,269.600000L204.700000,271L203.200000,270.100000L203.200000,270.100000C203,270,202.900000,269.700000,202.900000,269.400000L202.900000,266.400000C202.900000,263.700000,204.800000,260.400000,207.200000,259L213.200000,255.600000C215.200000,254.500000,217.100000,254.300000,218.500000,255.100000L220.200000,256.100000C221.200000,256.700000,222.500000,256.500000,223.900000,255.700000L248,241.900000C248.300000,241.700000,248.600000,241.700000,248.800000,241.800000L248.800000,241.800000L250.300000,242.700000L249,243.200000C248.800000,243.700000,248.400000,244.200000,248,244.500000L223.900000,258.300000C221.800000,259.400000,220,259.600000,218.600000,258.800000Z" fill="rgb(81,81,81)" stroke="none" stroke-width="1"/><path id="ef3tutsq16o169" d="M218.300000,258.600000C217.300000,258,216,258.200000,214.600000,259L208.600000,262.400000C207.500000,263,206.600000,264.600000,206.500000,265.900000L206.500000,268.900000C206.500000,269.600000,206,270.500000,205.400000,270.800000C204.800000,271.200000,204.300000,270.900000,204.300000,270.200000L204.300000,267.200000C204.300000,264.500000,206.200000,261.200000,208.600000,259.800000L214.600000,256.400000C216.600000,255.300000,218.500000,255.100000,219.900000,255.900000L221.600000,256.900000C222.600000,257.500000,223.900000,257.300000,225.300000,256.500000L249.400000,242.700000C250,242.300000,250.500000,242.600000,250.500000,243.300000C250.500000,244,250,244.900000,249.400000,245.200000L225.300000,259C223.300000,260.100000,221.400000,260.300000,220,259.500000L218.300000,258.600000Z" fill="rgb(61,61,61)" stroke="none" stroke-width="1"/><g id="ef3tutsq16o170"><path id="ef3tutsq16o171" d="M206.500000,266.500000L206.500000,269.500000C206.500000,269.500000,206.500000,269.500000,206.500000,269.600000C206.600000,269.400000,206.600000,269.200000,206.600000,269L206.600000,266C206.600000,265.900000,206.600000,265.800000,206.600000,265.700000C206.500000,266,206.500000,266.200000,206.500000,266.500000Z" fill="rgb(255,255,255)" stroke="none" stroke-width="1"/></g></g></g><path id="ef3tutsq16o172" d="M195.200000,295.800000L206.200000,289.400000C207.500000,288.600000,207.400000,287.300000,205.800000,286.400000L205.800000,286.400000C204.300000,285.500000,201.900000,285.400000,200.600000,286.200000L189.600000,292.600000C188.300000,293.400000,188.400000,294.700000,190,295.600000L190,295.600000C191.600000,296.500000,193.900000,296.600000,195.200000,295.800000Z" fill="rgb(239,239,239)" stroke="none" stroke-width="1"/></g><g id="ef3tutsq16o173"><polygon id="ef3tutsq16o174" points="78.700000,279.500000 64.900000,271.500000 78.700000,263.600000 92.400000,271.500000" fill="rgb(239,239,239)" stroke="none" stroke-width="1"/><g id="ef3tutsq16o175_to" transform="translate(0,0)"><polygon id="ef3tutsq16o175" points="92.400000,262.500000 78.700000,270.500000 78.700000,254.600000 92.400000,246.600000" transform="translate(0,0)" fill="rgb(209,0,0)" stroke="none" stroke-width="1"/></g><g id="ef3tutsq16o176_to" transform="translate(0,0)"><polygon id="ef3tutsq16o176" points="78.700000,254.600000 64.900000,246.600000 78.700000,238.700000 92.400000,246.600000" transform="translate(0,0)" fill="rgb(244,0,0)" stroke="none" stroke-width="1"/></g><g id="ef3tutsq16o177_to" transform="translate(0,0)"><polygon id="ef3tutsq16o177" points="78.700000,270.500000 64.900000,262.500000 64.900000,246.600000 78.700000,254.600000" transform="translate(0,0)" fill="rgb(229,0,0)" stroke="none" stroke-width="1"/></g></g><g id="ef3tutsq16o178"><polygon id="ef3tutsq16o179" points="40,183.200000 24.700000,174.400000 40,165.500000 55.300000,174.400000" fill="rgb(239,239,239)" stroke="none" stroke-width="1"/><g id="ef3tutsq16o180_to" transform="translate(0,0)"><polygon id="ef3tutsq16o180" points="55.300000,164.300000 40,173.200000 40,155.500000 55.300000,146.600000" transform="translate(0,0)" fill="rgb(17,17,17)" stroke="none" stroke-width="1"/></g><g id="ef3tutsq16o181_to" transform="translate(0,0)"><polygon id="ef3tutsq16o181" points="40,155.500000 24.700000,146.600000 40,137.800000 55.300000,146.600000" transform="translate(0,0)" fill="rgb(216,216,216)" stroke="none" stroke-width="1"/></g><g id="ef3tutsq16o182_to" transform="translate(0,0)"><polygon id="ef3tutsq16o182" points="40,173.200000 24.700000,164.300000 24.700000,146.600000 40,155.500000" transform="translate(0,0)" fill="rgb(104,104,104)" stroke="none" stroke-width="1"/></g></g><g id="ef3tutsq16o183"><path id="ef3tutsq16o184" d="M354.200000,153.300000L323.500000,135.600000C321.600000,134.500000,321.900000,132.600000,324,131.400000L353.600000,114.300000C355.800000,113,359.100000,112.900000,361,114L391.700000,131.700000C393.600000,132.800000,393.300000,134.700000,391.200000,135.900000L361.600000,153C359.400000,154.200000,356.100000,154.300000,354.200000,153.300000Z" fill="rgb(239,239,239)" stroke="none" stroke-width="1"/><path id="ef3tutsq16o185" d="M393,123L393,123L393,112.400000L369.200000,112.400000L361,107.700000C359.100000,106.600000,355.800000,106.700000,353.600000,108L345.900000,112.400000L322.100000,112.400000L322.100000,123.300000C322,124,322.500000,124.700000,323.400000,125.300000L354.100000,143C356,144.100000,359.300000,144,361.500000,142.700000L391.100000,125.600000C392.500000,124.800000,393.100000,123.900000,393,123Z" fill="rgb(81,81,81)" stroke="none" stroke-width="1"/><path id="ef3tutsq16o186" d="M357.600000,106.900000C356.200000,106.900000,354.800000,107.300000,353.700000,107.900000L346,112.300000L322.200000,112.300000L322.200000,123.200000C322.100000,123.900000,322.600000,124.600000,323.500000,125.200000L354.200000,142.900000C355.100000,143.400000,356.300000,143.700000,357.600000,143.600000L357.600000,106.900000Z" fill="rgb(81,81,81)" stroke="none" stroke-width="1"/><path id="ef3tutsq16o187" d="M324.900000,112.400000L322.200000,112.400000L322.200000,123.300000C322.100000,124,322.600000,124.700000,323.500000,125.300000L324.900000,126.100000L324.900000,112.400000Z" fill="rgb(61,61,61)" stroke="none" stroke-width="1"/><path id="ef3tutsq16o188" d="M354.700000,143.200000C356.300000,143.900000,358.700000,143.900000,360.600000,143.100000L360.600000,130.700000L354.700000,130.700000L354.700000,143.200000Z" fill="rgb(61,61,61)" stroke="none" stroke-width="1"/><path id="ef3tutsq16o189" d="M354.200000,132.100000L323.500000,114.400000C321.600000,113.300000,321.900000,111.400000,324,110.200000L353.700000,93C355.900000,91.700000,359.200000,91.600000,361.100000,92.700000L391.800000,110.400000C393.700000,111.500000,393.400000,113.400000,391.300000,114.600000L361.700000,131.700000C359.400000,133.100000,356.100000,133.200000,354.200000,132.100000Z" fill="rgb(216,216,216)" stroke="none" stroke-width="1"/><path id="ef3tutsq16o190" d="M391.200000,112.600000L361.600000,129.700000C359.400000,131,356.100000,131.100000,354.200000,130L323.500000,112.300000C323.100000,112.100000,322.800000,111.800000,322.600000,111.500000C322,112.500000,322.200000,113.700000,323.500000,114.400000L354.200000,132.100000C356.100000,133.200000,359.400000,133.100000,361.600000,131.800000L391.200000,114.700000C392.900000,113.700000,393.400000,112.400000,392.700000,111.300000C392.400000,111.800000,391.900000,112.200000,391.200000,112.600000Z" fill="rgb(255,255,255)" stroke="none" stroke-width="1"/><g id="ef3tutsq16o191"><path id="ef3tutsq16o192" d="M381.700000,125.800000C381.700000,126.600000,381.100000,127.600000,380.500000,127.900000C379.800000,128.300000,379.300000,128,379.300000,127.200000C379.300000,126.400000,379.900000,125.400000,380.500000,125.100000C381.100000,124.700000,381.700000,125,381.700000,125.800000Z" fill="rgb(255,215,215)" stroke="none" stroke-width="1"/><path id="ef3tutsq16o193" d="M385.700000,123.500000C385.700000,124.300000,385.100000,125.300000,384.500000,125.600000C383.800000,126,383.300000,125.700000,383.300000,124.900000C383.300000,124.100000,383.900000,123.100000,384.500000,122.800000C385.100000,122.400000,385.700000,122.700000,385.700000,123.500000Z" fill="rgb(255,215,215)" stroke="none" stroke-width="1"/><path id="ef3tutsq16o194" d="M389.700000,121.200000C389.700000,122,389.100000,123,388.500000,123.300000C387.800000,123.700000,387.300000,123.400000,387.300000,122.600000C387.300000,121.800000,387.900000,120.800000,388.500000,120.500000C389.100000,120.100000,389.700000,120.400000,389.700000,121.200000Z" fill="rgb(255,215,215)" stroke="none" stroke-width="1"/></g><g id="ef3tutsq16o195"><path id="ef3tutsq16o196" d="M356,121.100000L341.600000,112.800000C340.700000,112.300000,340.800000,111.400000,341.800000,110.800000L355.700000,102.800000C356.700000,102.200000,358.300000,102.100000,359.100000,102.700000L373.500000,111C374.400000,111.500000,374.300000,112.400000,373.300000,113L359.400000,121C358.400000,121.600000,356.900000,121.600000,356,121.100000Z" fill="rgb(61,61,61)" stroke="none" stroke-width="1"/><path id="ef3tutsq16o197" d="M357.400000,114.200000L355.400000,113.100000C355.300000,113,355.300000,112.900000,355.400000,112.800000L357.300000,111.700000C357.400000,111.600000,357.700000,111.600000,357.800000,111.700000L359.800000,112.800000C359.900000,112.900000,359.900000,113,359.800000,113.100000L357.900000,114.200000C357.700000,114.300000,357.500000,114.300000,357.400000,114.200000Z" fill="rgb(255,215,215)" stroke="none" stroke-width="1"/><path id="ef3tutsq16o198" d="M341.700000,112.800000L341.700000,112.800000C341.800000,112.800000,341.900000,112.700000,341.900000,112.700000L355.800000,104.700000C356.800000,104.100000,358.400000,104,359.200000,104.600000L373.500000,112.900000C374.300000,112.300000,374.400000,111.500000,373.500000,111.100000L359.100000,102.800000C358.200000,102.300000,356.700000,102.400000,355.700000,102.900000L341.800000,110.900000C340.900000,111.400000,340.800000,112.300000,341.700000,112.800000Z" fill="rgb(244,0,0)" stroke="none" stroke-width="1"/></g></g><path id="ef3tutsq16o199" d="M174.400000,173.700000L239.400000,211.300000C241,212.200000,243,212.200000,244.600000,211.300000L282.500000,189.400000C284.400000,188.300000,284.400000,185.500000,282.500000,184.400000L217.600000,146.900000C215.900000,145.900000,213.800000,145.900000,212.200000,146.900000L174.400000,168.700000C172.500000,169.800000,172.500000,172.600000,174.400000,173.700000Z" fill="rgb(142,142,142)" stroke="none" stroke-width="1"/><path id="ef3tutsq16o200" d="M284,178.100000L284,178.100000C284.100000,179.100000,283.600000,180.200000,282.600000,180.800000L244.700000,202.700000C243.900000,203.200000,242.900000,203.400000,242,203.400000L242,152.500000L274.400000,171.200000L284,172.600000L284,178.100000Z" fill="rgb(17,17,17)" stroke="none" stroke-width="1"/><path id="ef3tutsq16o201" d="M242,152.400000L242,203.300000C241.100000,203.300000,240.200000,203.100000,239.500000,202.600000L236.800000,201.100000L175.200000,165.600000L175.200000,165.600000C175.100000,165.600000,175,165.500000,175,165.500000L174.400000,165.200000C173.400000,164.600000,172.900000,163.600000,173,162.600000L173,157L178.700000,157.800000L212.200000,138.500000C213.900000,137.500000,216,137.500000,217.600000,138.500000L236.800000,149.600000L242,152.400000Z" fill="rgb(104,104,104)" stroke="none" stroke-width="1"/><path id="ef3tutsq16o202" d="M174.400000,159.600000L239.400000,197.200000C241,198.100000,243,198.100000,244.600000,197.200000L282.500000,175.300000C284.400000,174.200000,284.400000,171.400000,282.500000,170.300000L217.600000,132.800000C215.900000,131.800000,213.800000,131.800000,212.200000,132.800000L174.400000,154.600000C172.500000,155.700000,172.500000,158.500000,174.400000,159.600000Z" fill="rgb(188,188,188)" stroke="none" stroke-width="1"/><polygon id="ef3tutsq16o203" points="176.300000,157.600000 239.600000,194.100000 279,171.400000 215.700000,134.800000" fill="rgb(85,153,41)" stroke="none" stroke-width="1"/><polygon id="ef3tutsq16o204" points="231.200000,189.200000 235.400000,191.700000 274.800000,168.900000 270.600000,166.500000" fill="rgb(141,198,63)" stroke="none" stroke-width="1"/><polygon id="ef3tutsq16o205" points="222.700000,184.400000 227,186.800000 266.400000,164.100000 262.100000,161.600000" fill="rgb(141,198,63)" stroke="none" stroke-width="1"/><polygon id="ef3tutsq16o206" points="214.300000,179.500000 218.500000,181.900000 257.900000,159.200000 253.700000,156.700000" fill="rgb(141,198,63)" stroke="none" stroke-width="1"/><polygon id="ef3tutsq16o207" points="205.900000,174.600000 210.100000,177.100000 249.500000,154.300000 245.300000,151.900000" fill="rgb(141,198,63)" stroke="none" stroke-width="1"/><polygon id="ef3tutsq16o208" points="197.400000,169.700000 201.600000,172.200000 241,149.400000 236.800000,147" fill="rgb(141,198,63)" stroke="none" stroke-width="1"/><polygon id="ef3tutsq16o209" points="189,164.900000 193.200000,167.300000 232.600000,144.600000 228.400000,142.100000" fill="rgb(141,198,63)" stroke="none" stroke-width="1"/><polygon id="ef3tutsq16o210" points="180.500000,160 184.800000,162.400000 224.200000,139.700000 219.900000,137.300000" fill="rgb(141,198,63)" stroke="none" stroke-width="1"/><path id="ef3tutsq16o211" d="M216.800000,137.300000L180.100000,158.500000L239,192.500000L275.700000,171.300000L216.800000,137.300000ZM238.900000,191.200000L181.800000,158.400000L216.800000,138.200000L273.900000,171L238.900000,191.200000Z" fill="rgb(255,255,255)" stroke="none" stroke-width="1"/><path id="ef3tutsq16o212" d="M228,159C223.200000,159,219.200000,161.300000,219.200000,164.100000C219.200000,166.900000,223.100000,169.200000,228,169.200000C232.800000,169.200000,236.800000,166.900000,236.800000,164.100000C236.800000,161.300000,232.800000,159,228,159ZM228,168.600000C223.600000,168.600000,220,166.500000,220,164C220,161.500000,223.600000,159.400000,228,159.400000C232.400000,159.400000,236,161.500000,236,164C236,166.500000,232.400000,168.600000,228,168.600000Z" fill="rgb(255,255,255)" stroke="none" stroke-width="1"/><g id="ef3tutsq16o213"><path id="ef3tutsq16o214" d="M239.400000,173.400000C239.400000,174.700000,240.300000,175.800000,241.700000,176.700000L253,170.200000C251.600000,169.400000,249.600000,168.900000,247.400000,168.900000C242.900000,168.800000,239.400000,170.800000,239.400000,173.400000Z" fill="none" stroke="none" stroke-width="1"/><path id="ef3tutsq16o215" d="M239.400000,173.400000C239.400000,170.900000,243,168.800000,247.400000,168.800000C249.600000,168.800000,251.600000,169.300000,253,170.100000L253.600000,169.800000C252,168.900000,249.800000,168.300000,247.400000,168.300000C242.600000,168.300000,238.600000,170.600000,238.600000,173.400000C238.600000,174.800000,239.600000,176.100000,241.200000,177L241.800000,176.700000C240.300000,175.800000,239.400000,174.600000,239.400000,173.400000Z" fill="rgb(255,255,255)" stroke="none" stroke-width="1"/><path id="ef3tutsq16o216" d="M259.300000,166.400000L253.500000,169.700000C253.700000,169.800000,253.800000,169.900000,254,170L259.400000,166.900000L270.100000,173.100000L270.500000,172.800000L259.300000,166.400000Z" fill="rgb(255,255,255)" stroke="none" stroke-width="1"/><path id="ef3tutsq16o217" d="M233.800000,181.200000L245,187.700000L245.700000,187.300000L235,181.100000L241.700000,177.200000C241.500000,177.100000,241.400000,177,241.200000,176.900000L233.800000,181.200000Z" fill="rgb(255,255,255)" stroke="none" stroke-width="1"/><path id="ef3tutsq16o218" d="M242.200000,176.900000L253.400000,170.400000C253.200000,170.300000,253.100000,170.200000,252.900000,170.100000L241.600000,176.600000C241.900000,176.700000,242,176.800000,242.200000,176.900000Z" fill="rgb(255,255,255)" stroke="none" stroke-width="1"/><path id="ef3tutsq16o219" d="M253,170.100000C253.200000,170.200000,253.300000,170.300000,253.500000,170.400000L254.100000,170.100000C253.900000,170,253.800000,169.900000,253.600000,169.800000L253,170.100000Z" fill="rgb(218,220,221)" stroke="none" stroke-width="1"/><path id="ef3tutsq16o220" d="M241.700000,176.600000L241.100000,176.900000C241.300000,177,241.400000,177.100000,241.600000,177.200000L242.200000,176.900000C242,176.800000,241.900000,176.700000,241.700000,176.600000Z" fill="rgb(218,220,221)" stroke="none" stroke-width="1"/></g><g id="ef3tutsq16o221"><polygon id="ef3tutsq16o222" points="257.700000,171.800000 265.900000,176.500000 266.400000,176.200000 257.700000,171.200000 242.700000,179.900000 251.300000,184.800000 252,184.400000 243.800000,179.800000" fill="rgb(255,255,255)" stroke="none" stroke-width="1"/></g><g id="ef3tutsq16o223"><path id="ef3tutsq16o224" d="M219.100000,154C219.100000,152.700000,218.200000,151.600000,216.800000,150.700000L205.500000,157.200000C206.900000,158,208.900000,158.500000,211.100000,158.500000C215.500000,158.600000,219.100000,156.500000,219.100000,154Z" fill="none" stroke="none" stroke-width="1"/><path id="ef3tutsq16o225" d="M219.100000,154C219.100000,156.500000,215.500000,158.600000,211.100000,158.600000C208.900000,158.600000,206.900000,158.100000,205.500000,157.300000L204.900000,157.600000C206.500000,158.500000,208.700000,159.100000,211.100000,159.100000C215.900000,159.100000,219.900000,156.800000,219.900000,154C219.900000,152.600000,218.900000,151.300000,217.300000,150.400000L216.700000,150.700000C218.200000,151.500000,219.100000,152.700000,219.100000,154Z" fill="rgb(255,255,255)" stroke="none" stroke-width="1"/><path id="ef3tutsq16o226" d="M199.200000,160.900000L205,157.600000C204.800000,157.500000,204.700000,157.400000,204.500000,157.300000L199.100000,160.400000L188.400000,154.200000L188,154.500000L199.200000,160.900000Z" fill="rgb(255,255,255)" stroke="none" stroke-width="1"/><path id="ef3tutsq16o227" d="M224.700000,146.100000L213.500000,139.600000L212.800000,140L223.500000,146.200000L216.800000,150.100000C217,150.200000,217.100000,150.300000,217.300000,150.400000L224.700000,146.100000Z" fill="rgb(255,255,255)" stroke="none" stroke-width="1"/><path id="ef3tutsq16o228" d="M216.300000,150.400000L205.100000,156.900000C205.300000,157,205.400000,157.100000,205.600000,157.200000L216.900000,150.700000C216.600000,150.600000,216.400000,150.500000,216.300000,150.400000Z" fill="rgb(255,255,255)" stroke="none" stroke-width="1"/><path id="ef3tutsq16o229" d="M205.500000,157.200000C205.300000,157.100000,205.200000,157,205,156.900000L204.400000,157.200000C204.600000,157.300000,204.700000,157.400000,204.900000,157.500000L205.500000,157.200000Z" fill="rgb(218,220,221)" stroke="none" stroke-width="1"/><path id="ef3tutsq16o230" d="M216.800000,150.700000L217.400000,150.400000C217.200000,150.300000,217.100000,150.200000,216.900000,150.100000L216.300000,150.400000C216.400000,150.500000,216.600000,150.600000,216.800000,150.700000Z" fill="rgb(218,220,221)" stroke="none" stroke-width="1"/></g><g id="ef3tutsq16o231"><polygon id="ef3tutsq16o232" points="201,155.400000 193.100000,151 192.700000,151.200000 201,156 216.100000,147.400000 207.700000,142.600000 207,143 214.900000,147.500000" fill="rgb(255,255,255)" stroke="none" stroke-width="1"/></g><g id="ef3tutsq16o233"><path id="ef3tutsq16o234" d="M269,184.800000C269.200000,185,269.300000,185.200000,269.300000,185.400000L269.300000,185.500000C269.300000,185.800000,269.100000,186.100000,268.900000,186.300000L262.200000,190.200000C262.100000,190.300000,262,190.300000,261.900000,190.300000C262.200000,190.600000,262.600000,190.700000,263,190.400000L269.700000,186.500000C270,186.300000,270.100000,186,270.100000,185.700000L270.100000,185.600000C270,185.100000,269.500000,184.700000,269,184.800000Z" fill="rgb(135,135,135)" stroke="none" stroke-width="1"/><path id="ef3tutsq16o235" d="M268.800000,186.300000C269.100000,186.100000,269.200000,185.800000,269.200000,185.500000L269.200000,185.400000C269.200000,185.100000,269.100000,184.900000,268.900000,184.800000C268.800000,184.800000,268.700000,184.900000,268.600000,184.900000L261.900000,188.800000C261.600000,189,261.500000,189.300000,261.500000,189.600000L261.500000,189.700000C261.500000,190,261.600000,190.200000,261.800000,190.300000C261.900000,190.300000,262,190.200000,262.100000,190.200000L268.800000,186.300000Z" fill="rgb(45,45,45)" stroke="none" stroke-width="1"/></g><path id="ef3tutsq16o236" d="M234.800000,113.400000L237.100000,136.700000C237.100000,137.500000,237.500000,138.300000,238.300000,138.700000L270.200000,158.700000C271.700000,159.600000,276,158.100000,276,156.300000L276.500000,132.700000C276.500000,131.800000,276.100000,131.100000,275.300000,130.600000L240.600000,110.700000C239.500000,110,236.900000,110.300000,235.600000,111.400000C235,111.900000,234.700000,112.700000,234.800000,113.400000Z" fill="rgb(147,147,147)" stroke="none" stroke-width="1"/><path id="ef3tutsq16o237" d="M234.700000,113.200000L234.700000,137.100000C234.700000,137.900000,235.100000,138.700000,235.900000,139.100000L270.100000,158.700000C271.600000,159.600000,273.600000,158.500000,273.600000,156.700000L274.100000,133.100000C274.100000,132.200000,273.700000,131.500000,272.900000,131L238.200000,111.100000C236.700000,110.300000,234.700000,111.500000,234.700000,113.200000Z" fill="rgb(188,188,188)" stroke="none" stroke-width="1"/><path id="ef3tutsq16o238" d="M238.300000,117.200000L238.300000,136.800000C238.300000,137.500000,238.700000,138.100000,239.300000,138.500000L267.300000,154.600000C268.600000,155.300000,270.100000,154.400000,270.200000,153L270.600000,133.600000C270.600000,132.900000,270.200000,132.300000,269.600000,131.900000L241.200000,115.600000C239.900000,114.800000,238.300000,115.700000,238.300000,117.200000Z" fill="rgb(33,33,33)" stroke="none" stroke-width="1"/><path id="ef3tutsq16o239" d="M180.500000,166.300000L180.500000,166.600000C180.500000,167,180.700000,167.300000,181,167.500000L188.600000,171.900000C189.300000,172.300000,190.100000,171.800000,190.100000,171L190.100000,170.700000C190.100000,170.300000,189.900000,170,189.600000,169.800000L182,165.400000C181.400000,165,180.500000,165.500000,180.500000,166.300000Z" fill="rgb(188,188,188)" stroke="none" stroke-width="1"/><path id="ef3tutsq16o240" d="M191.400000,172.500000L191.400000,172.800000C191.400000,173.200000,191.600000,173.500000,191.900000,173.700000L199.500000,178.100000C200.200000,178.500000,201,178,201,177.200000L201,176.900000C201,176.500000,200.800000,176.200000,200.500000,176L192.900000,171.600000C192.200000,171.200000,191.400000,171.700000,191.400000,172.500000Z" fill="rgb(188,188,188)" stroke="none" stroke-width="1"/><polygon id="ef3tutsq16o241" points="241.200000,128.500000 241.200000,134.600000 242.300000,136.400000 243.400000,135.800000 243.400000,129.700000 242.300000,127.800000" fill="rgb(255,255,255)" stroke="none" stroke-width="1"/><polygon id="ef3tutsq16o242" points="245.900000,130.900000 245.900000,137 247,138.900000 248,138.300000 248,132.100000 247,130.300000" fill="rgb(61,61,61)" stroke="none" stroke-width="1"/><polygon id="ef3tutsq16o243" points="245.900000,122.100000 245.900000,128.200000 247,130 248,129.400000 248,123.300000 247,121.500000" fill="rgb(255,255,255)" stroke="none" stroke-width="1"/><polygon id="ef3tutsq16o244" points="241.200000,119.500000 241.200000,125.600000 242.300000,127.500000 243.400000,126.900000 243.400000,120.700000 242.300000,118.900000" fill="rgb(61,61,61)" stroke="none" stroke-width="1"/><polygon id="ef3tutsq16o245" points="242.500000,118.900000 243.500000,118.200000 245.700000,119.500000 246.700000,121.300000 245.700000,121.900000 243.500000,120.700000" fill="rgb(255,255,255)" stroke="none" stroke-width="1"/><polygon id="ef3tutsq16o246" points="242.500000,127.700000 243.500000,127.100000 245.700000,128.300000 246.700000,130.200000 245.700000,130.800000 243.500000,129.600000" fill="rgb(255,255,255)" stroke="none" stroke-width="1"/><polygon id="ef3tutsq16o247" points="242.500000,136.600000 243.500000,136 245.700000,137.200000 246.700000,139 245.700000,139.600000 243.500000,138.400000" fill="rgb(255,255,255)" stroke="none" stroke-width="1"/><polygon id="ef3tutsq16o248" points="259.700000,139.300000 259.700000,145.400000 260.700000,147.200000 261.800000,146.600000 261.800000,140.500000 260.800000,138.700000" fill="rgb(255,255,255)" stroke="none" stroke-width="1"/><polygon id="ef3tutsq16o249" points="264.400000,141.700000 264.400000,147.900000 265.400000,149.700000 266.500000,149.100000 266.500000,143 265.500000,141.100000" fill="rgb(255,255,255)" stroke="none" stroke-width="1"/><polygon id="ef3tutsq16o250" points="264.300000,133.100000 264.300000,139.100000 265.400000,140.900000 266.400000,140.300000 266.400000,134.300000 265.400000,132.500000" fill="rgb(255,255,255)" stroke="none" stroke-width="1"/><polygon id="ef3tutsq16o251" points="259.800000,130.600000 259.800000,136.600000 260.800000,138.400000 261.800000,137.800000 261.800000,131.800000 260.800000,130" fill="rgb(255,255,255)" stroke="none" stroke-width="1"/><polygon id="ef3tutsq16o252" points="260.900000,129.700000 262,129.100000 264.100000,130.300000 265.200000,132.100000 264.100000,132.700000 262,131.500000" fill="rgb(255,255,255)" stroke="none" stroke-width="1"/><polygon id="ef3tutsq16o253" points="260.900000,147.400000 262,146.800000 264.100000,148 265.200000,149.900000 264.100000,150.500000 262,149.200000" fill="rgb(255,255,255)" stroke="none" stroke-width="1"/><path id="ef3tutsq16o254" d="M252.600000,127.400000L252.600000,130.400000C252.600000,130.900000,252.800000,131.300000,253.200000,131.500000L253.200000,131.500000C254.100000,132,255.100000,131.400000,255.100000,130.400000L255.100000,127.400000C255.100000,126.900000,254.900000,126.500000,254.500000,126.300000L254.500000,126.300000C253.600000,125.800000,252.600000,126.500000,252.600000,127.400000Z" fill="rgb(244,0,0)" stroke="none" stroke-width="1"/><path id="ef3tutsq16o255" d="M252.600000,136.700000L252.600000,139.700000C252.600000,140.200000,252.800000,140.600000,253.200000,140.800000L253.200000,140.800000C254.100000,141.300000,255.100000,140.700000,255.100000,139.700000L255.100000,136.700000C255.100000,136.200000,254.900000,135.800000,254.500000,135.600000L254.500000,135.600000C253.600000,135.100000,252.600000,135.700000,252.600000,136.700000Z" fill="rgb(244,0,0)" stroke="none" stroke-width="1"/><polygon id="ef3tutsq16o256" points="209.100000,175.200000 245.500000,153.800000 246.200000,154.300000 209.800000,175.500000" fill="rgb(255,255,255)" stroke="none" stroke-width="1"/><path id="ef3tutsq16o257" d="M269,179.600000L269,179.600000C269.700000,180,269.700000,181,269,181.400000L257.100000,188.300000C256.700000,188.600000,256.100000,188.600000,255.700000,188.300000L255.500000,188.200000C254.800000,187.800000,254.800000,186.800000,255.500000,186.400000L267.300000,179.600000C267.800000,179.300000,268.500000,179.300000,269,179.600000Z" fill="rgb(158,158,158)" stroke="none" stroke-width="1"/><polygon id="ef3tutsq16o258" points="260.900000,138.600000 262,138 264.100000,139.200000 265.200000,141 264.100000,141.600000 262,140.400000" fill="rgb(61,61,61)" stroke="none" stroke-width="1"/></svg>