<svg xmlns="http://www.w3.org/2000/svg" viewBox="0 0 25.356 27.542">
  <g id="package" transform="translate(-18.8)">
    <path id="Path_259" data-name="Path 259" d="M44.144,6.493a.722.722,0,0,0-.07-.308.673.673,0,0,0-.471-.372L31.763.07a.7.7,0,0,0-.61,0L19.2,5.865a.7.7,0,0,0-.4.6V21.043a.693.693,0,0,0,.4.628l11.957,5.8c.006,0,.006,0,.012.006a.206.206,0,0,1,.052.023c.006,0,.012.006.023.006l.052.017c.006,0,.012.006.017.006s.041.006.058.012h.017c.023,0,.052.006.076.006a.331.331,0,0,0,.076-.006h.017a.207.207,0,0,0,.058-.012c.006,0,.012-.006.017-.006l.052-.017c.006,0,.012-.006.023-.006a.207.207,0,0,0,.052-.023c.006,0,.006,0,.012-.006L43.76,21.653a.7.7,0,0,0,.4-.628V6.51C44.144,6.5,44.144,6.5,44.144,6.493ZM31.455,1.471,41.825,6.5,38.006,8.353,27.636,3.325Zm0,10.056L21.084,6.5l4.953-2.4,10.37,5.028ZM20.2,7.621l10.562,5.121v12.98L20.2,20.6Zm11.957,18.1V12.742l4.958-2.407V13.73a.7.7,0,1,0,1.4,0V9.655L42.749,7.6v12.98Z" fill="#000"/>
  </g>
</svg>
