<?xml version="1.0" encoding="iso-8859-1"?>
<!-- Generator: Adobe Illustrator 19.0.0, SVG Export Plug-In . SVG Version: 6.00 Build 0)  -->
<svg version="1.1" id="Capa_1" xmlns="http://www.w3.org/2000/svg" xmlns:xlink="http://www.w3.org/1999/xlink" x="0px" y="0px"
	 viewBox="0 0 512 512" style="enable-background:new 0 0 512 512;" xml:space="preserve">
<g>
	<g>
		<path d="M201.997,239.298c-4.142,0-7.5,3.357-7.5,7.5v13.765c0,4.142,3.358,7.5,7.5,7.5c4.142,0,7.5-3.357,7.5-7.5v-13.765
			C209.498,242.656,206.139,239.298,201.997,239.298z"/>
	</g>
</g>
<g>
	<g>
		<path d="M237.997,239.298c-4.142,0-7.5,3.357-7.5,7.5v13.765c0,4.142,3.358,7.5,7.5,7.5c4.142,0,7.5-3.357,7.5-7.5v-13.765
			C245.498,242.656,242.14,239.298,237.997,239.298z"/>
	</g>
</g>
<g>
	<g>
		<path d="M309.999,239.298c-4.143,0-7.5,3.357-7.5,7.5v13.765c0,4.142,3.358,7.5,7.5,7.5c4.143,0,7.5-3.357,7.5-7.5v-13.765
			C317.499,242.656,314.142,239.298,309.999,239.298z"/>
	</g>
</g>
<g>
	<g>
		<path d="M273.999,239.298c-4.143,0-7.5,3.357-7.5,7.5v13.765c0,4.142,3.358,7.5,7.5,7.5c4.143,0,7.5-3.357,7.5-7.5v-13.765
			C281.499,242.656,278.142,239.298,273.999,239.298z"/>
	</g>
</g>
<g>
	<g>
		<path d="M456.387,396.048h-18.815c-4.142,0-7.5,3.357-7.5,7.5s3.357,7.5,7.5,7.5h18.815c4.143,0,7.5-3.357,7.5-7.5
			S460.53,396.048,456.387,396.048z"/>
	</g>
</g>
<g>
	<g>
		<path d="M456.387,432.049h-18.815c-4.142,0-7.5,3.357-7.5,7.5s3.357,7.5,7.5,7.5h18.815c4.143,0,7.5-3.357,7.5-7.5
			S460.53,432.049,456.387,432.049z"/>
	</g>
</g>
<g>
	<g>
		<path d="M75.484,396.048H56.668c-4.142,0-7.5,3.357-7.5,7.5s3.357,7.5,7.5,7.5h18.815c4.142,0,7.5-3.357,7.5-7.5
			S79.626,396.048,75.484,396.048z"/>
	</g>
</g>
<g>
	<g>
		<path d="M75.484,432.049H56.668c-4.142,0-7.5,3.357-7.5,7.5s3.357,7.5,7.5,7.5h18.815c4.142,0,7.5-3.357,7.5-7.5
			S79.626,432.049,75.484,432.049z"/>
	</g>
</g>
<g>
	<g>
		<path d="M219.999,336.402c-4.142,0-7.5,3.357-7.5,7.5v104.339c0,4.142,3.358,7.5,7.5,7.5c4.142,0,7.5-3.357,7.5-7.5V343.903
			C227.5,339.76,224.142,336.402,219.999,336.402z"/>
	</g>
</g>
<g>
	<g>
		<path d="M183.998,336.402c-4.142,0-7.5,3.357-7.5,7.5v104.339c0,4.142,3.358,7.5,7.5,7.5c4.142,0,7.5-3.357,7.5-7.5V343.903
			C191.499,339.76,188.14,336.402,183.998,336.402z"/>
	</g>
</g>
<g>
	<g>
		<path d="M147.998,336.402c-4.142,0-7.5,3.357-7.5,7.5v104.339c0,4.142,3.358,7.5,7.5,7.5c4.142,0,7.5-3.357,7.5-7.5V343.903
			C155.498,339.76,152.14,336.402,147.998,336.402z"/>
	</g>
</g>
<g>
	<g>
		<path d="M364.001,336.402c-4.143,0-7.5,3.357-7.5,7.5v104.339c0,4.142,3.358,7.5,7.5,7.5c4.143,0,7.5-3.357,7.5-7.5V343.903
			C371.502,339.76,368.144,336.402,364.001,336.402z"/>
	</g>
</g>
<g>
	<g>
		<path d="M328.001,336.402c-4.143,0-7.5,3.357-7.5,7.5v104.339c0,4.142,3.358,7.5,7.5,7.5c4.143,0,7.5-3.357,7.5-7.5V343.903
			C335.501,339.76,332.144,336.402,328.001,336.402z"/>
	</g>
</g>
<g>
	<g>
		<path d="M292,336.402c-4.143,0-7.5,3.357-7.5,7.5v104.339c0,4.142,3.358,7.5,7.5,7.5c4.143,0,7.5-3.357,7.5-7.5V343.903
			C299.5,339.76,296.143,336.402,292,336.402z"/>
	</g>
</g>
<g>
	<g>
		<path d="M256,336.402c-4.142,0-7.5,3.357-7.5,7.5v104.339c0,4.142,3.358,7.5,7.5,7.5c4.143,0,7.5-3.357,7.5-7.5V343.903
			C263.5,339.76,260.143,336.402,256,336.402z"/>
	</g>
</g>
<g>
	<g>
		<path d="M491.075,467.462v-91.825C502.731,374.929,512,365.224,512,353.392c0-12.292-10.001-22.292-22.292-22.292h-73.935v-9.855
			c10.965-1.391,19.473-10.772,19.473-22.107c0-12.292-10.001-22.291-22.292-22.291h-52.922v-46.933
			c10.554-1.753,18.628-10.943,18.628-21.986c0-11.134-8.205-20.386-18.885-22.031c-1.255-18.249-7.242-35.73-17.521-50.939
			c-2.318-3.431-6.981-4.335-10.414-2.015c-3.432,2.318-4.334,6.981-2.015,10.414c8.546,12.647,13.631,27.133,14.894,42.28H167.282
			c5.72-68.26,83.605-104.465,139.452-65.661c3.401,2.362,8.076,1.521,10.439-1.88c2.363-3.401,1.523-8.076-1.88-10.439
			c-15.407-10.707-33.18-16.952-51.794-18.277V76.973h46.087c10.753,0,19.501-8.749,19.501-19.501V31.421
			c0-10.753-8.748-19.501-19.501-19.501h-46.087V7.5c0-4.143-3.357-7.5-7.5-7.5c-4.142,0-7.5,3.357-7.5,7.5
			c0,25.223,0,51.959,0,81.875c-51.484,3.686-92.716,45.001-96.275,96.519c-10.68,1.645-18.883,10.898-18.883,22.031
			c0,11.044,8.073,20.232,18.627,21.986v46.933h-52.92c-12.292,0-22.292,10-22.292,22.291c0,11.336,8.508,20.716,19.472,22.107
			v9.856H74.848c-4.142,0-7.5,3.357-7.5,7.5c0,4.143,3.358,7.5,7.5,7.5h21.379v14.581c-21.738,0-49.682,0-73.935,0
			c-4.02,0-7.291-3.271-7.291-7.29c0-4.019,3.27-7.29,7.291-7.29h17.554c4.142,0,7.5-3.357,7.5-7.5s-3.358-7.5-7.5-7.5H22.292
			C10,331.1,0,341.1,0,353.391c0,11.833,9.269,21.536,20.925,22.245v91.825C9.269,468.17,0,477.875,0,489.708
			C0,501.999,10,512,22.292,512h368.478c4.143,0,7.5-3.357,7.5-7.5c0-4.143-3.357-7.5-7.5-7.5H22.292
			c-4.02,0-7.291-3.271-7.291-7.291c0-4.02,3.27-7.29,7.291-7.29c160.974,0,304.412,0,467.415,0c4.021,0,7.291,3.271,7.291,7.29
			c0,4.021-3.271,7.291-7.291,7.291h-63.935c-4.143,0-7.5,3.357-7.5,7.5c0,4.143,3.357,7.5,7.5,7.5h63.935
			C501.999,512,512,501.999,512,489.708C512,477.875,502.731,468.171,491.075,467.462z M263.5,26.921h46.087
			c2.439,0,4.5,2.061,4.5,4.5v26.051c0,2.439-2.061,4.5-4.5,4.5H263.5V26.921z M96.227,467.416H35.926v-91.734h60.301V467.416z
			 M148.342,207.926c0-4.02,3.27-7.29,7.29-7.29c10.454,0,186.3,0,196.897,0h3.836c4.021,0,7.291,3.271,7.291,7.29
			c0,4.021-3.27,7.291-7.291,7.291c-10.454,0-186.3,0-196.897,0h-3.836C151.613,215.217,148.342,211.947,148.342,207.926z
			 M345.03,230.218v46.627H166.969v-46.627H345.03z M400.771,467.416H111.228c0-15.284,0-129.847,0-145.988h289.544
			C400.771,338.445,400.771,450.708,400.771,467.416z M99.047,306.428c-4.02,0-7.291-3.271-7.291-7.291c0-4.02,3.27-7.29,7.291-7.29
			c4.639,0,310.921,0,313.906,0c4.021,0,7.291,3.271,7.291,7.29c0,4.021-3.271,7.291-7.291,7.291
			C398.108,306.428,113.87,306.428,99.047,306.428z M476.074,467.416h-60.302v-91.734h60.302V467.416z M415.772,360.682V346.1
			h73.935c4.021,0,7.291,3.271,7.291,7.291c0,4.02-3.271,7.29-7.291,7.29C465.451,360.682,437.508,360.682,415.772,360.682z"/>
	</g>
</g>
<g>
</g>
<g>
</g>
<g>
</g>
<g>
</g>
<g>
</g>
<g>
</g>
<g>
</g>
<g>
</g>
<g>
</g>
<g>
</g>
<g>
</g>
<g>
</g>
<g>
</g>
<g>
</g>
<g>
</g>
</svg>
