<svg id="Capa_1" enable-background="new 0 0 512 512" height="512" viewBox="0 0 512 512" width="512" xmlns="http://www.w3.org/2000/svg"><g><g><g><path d="m502 50.64h-59.74l-37.116-19.56c-12.708-6.696-26.984-9.526-41.285-8.188l-45.871 4.295-27.176-22.523c-4.253-3.524-10.557-2.933-14.08 1.319l-154.207 186.065c-1.692 2.042-2.505 4.673-2.257 7.313.247 2.641 1.533 5.075 3.575 6.768l33.137 27.463h-146.98c-5.522 0-10 4.477-10 10v46.688c0 5.523 4.478 10 10 10h13.47v199.356c0 5.523 4.478 10 10 10h394.543c5.522 0 10-4.477 10-10v-199.356h13.366c5.522 0 10-4.477 10-10v-46.688c0-5.523-4.478-10-10-10h-179.954l54.621-65.906c26.713 12.91 58.07 13.193 85.327 1.714l38.175-16.077h52.452c5.522 0 10-4.477 10-10v-82.683c0-5.523-4.478-10-10-10zm-83.987 438.996h-374.543v-189.356h374.543zm23.366-209.356h-421.379v-26.688h421.379zm-195.93-46.688h-57.125l-44.019-36.481 141.444-170.667 77.875 64.54c-5.637 6.381-14.65 9.103-22.879 6.91l-29.132-10.396c-13.631-4.89-29.796 2.136-37.098 14.137-9.462 15.553-4.859 36.359 11.711 45.021l21.76 11.478zm246.551-100.269h-44.473c-1.333 0-2.652.267-3.881.784l-40.037 16.861c-24.971 10.516-51.61 7.748-75.238-4.693l-32.604-17.199c-6.35-3.799-8.002-10.74-4.168-17.04 2.79-4.586 8.457-6.897 13.659-5.565l29.118 10.389c10.923 3.905 24.181 1.623 33.974-4.158 7.074-4.176 11.917-10.441 17.061-16.648 3.476-4.194 2.872-10.608-1.318-14.081l-44.328-36.738 25.958-2.43c10.426-.977 20.832 1.088 30.096 5.969l39.305 20.712c1.438.757 3.037 1.153 4.662 1.153h52.214z"/><path d="m102.565 455.675h256.351c5.522 0 10-4.477 10-10v-104.123c0-5.523-4.478-10-10-10h-82.74c-5.522 0-10 4.477-10 10s4.478 10 10 10h72.74v84.123h-236.351v-84.123h76.085c5.522 0 10-4.477 10-10s-4.478-10-10-10h-86.085c-5.522 0-10 4.477-10 10v104.123c0 5.523 4.478 10 10 10z"/><path d="m227.18 349.87c3.617 2.414 8.536 2.174 11.894-.591 3.237-2.665 4.484-7.208 3.047-11.147-1.423-3.899-5.232-6.577-9.391-6.577-4.239 0-8.096 2.781-9.461 6.783-1.446 4.239.197 9.035 3.911 11.532z"/></g></g></g></svg>