<svg xmlns="http://www.w3.org/2000/svg" width="137.942" height="113.5" viewBox="0 0 137.942 113.5"><g transform="translate(-26 -37.3)"><path d="M178.381,296.9a17.4,17.4,0,0,0-15.7,9.922,20.169,20.169,0,0,0-6.474-1.029,20.7,20.7,0,0,0-6.443,1,17.4,17.4,0,1,0,1.785,7.653,18.3,18.3,0,0,0-.424-3.872H161.44a16.971,16.971,0,0,0-.424,3.751A17.424,17.424,0,1,0,178.381,296.9Zm-32.338,17.515a12.024,12.024,0,1,1-1.119-4.991,7.565,7.565,0,0,1,.454,1.15A10.685,10.685,0,0,1,146.043,314.415Zm32.338,11.858a11.946,11.946,0,0,1-11.344-15.7c.121-.393.272-.756.424-1.119a11.953,11.953,0,1,1,10.92,16.819Z" transform="translate(-63.263 -181.07)"/><path d="M163.942,265.177v1.664H26.847a.666.666,0,0,1-.242-.03,5.891,5.891,0,0,1-.605-.272v-1.089a.518.518,0,0,1,.333-.484c5.627-2.42,34.395-4.265,69-4.265,33.366,0,61.287,1.724,68.306,3.993A.539.539,0,0,1,163.942,265.177Z" transform="translate(0 -155.82)"/><path d="M120.8,102.853h76.473L187.714,37.3c-5.475,22.325-21.841,27.891-51.214,13.25Z" transform="translate(-66.123)"/></g></svg>