<?xml version="1.0" encoding="utf-8"?>
<!-- Generator: Adobe Illustrator 21.1.0, SVG Export Plug-In . SVG Version: 6.00 Build 0)  -->
<svg version="1.1" id="Capa_1" xmlns="http://www.w3.org/2000/svg" xmlns:xlink="http://www.w3.org/1999/xlink" x="0px" y="0px"
	 viewBox="0 0 297 297" style="enable-background:new 0 0 297 297;" xml:space="preserve">
<style type="text/css">
	.st0{fill:#ED0000;}
	.st1{fill:#232323;}
</style>
<g>
	<path class="st0" d="M251.7,91.2c-1.7-2.6-3.4-5.3-3.9-7.2c-0.6-2.1-0.4-5.4-0.3-8.7c0.3-6,0.6-13.5-3.2-20.1
		c-3.9-6.7-10.5-10.1-15.9-12.9c-2.8-1.5-5.7-3-7.2-4.4c-1.5-1.5-3-4.4-4.4-7.2c-2.8-5.4-6.2-12-12.9-15.9c-5.2-3-10.7-3.4-14.9-3.4
		c-1.8,0-3.5,0.1-5.2,0.1c-1.5,0.1-3,0.1-4.3,0.1c-1.9,0-3.3-0.1-4.3-0.4c-1.9-0.5-4.6-2.2-7.2-3.9C162.8,4.1,156.4,0,148.5,0
		c-7.9,0-14.3,4.1-19.4,7.4c-2.6,1.7-5.3,3.4-7.2,3.9c-1,0.3-2.4,0.4-4.3,0.4c-1.4,0-2.8-0.1-4.3-0.1c-1.7-0.1-3.4-0.1-5.2-0.1
		c-4.2,0-9.7,0.4-14.9,3.4C86.5,18.7,83,25.4,80.3,30.7c-1.5,2.8-3,5.7-4.4,7.2c-1.5,1.5-4.4,3-7.2,4.4c-5.4,2.8-12,6.2-15.9,12.9
		c-3.8,6.6-3.5,14.1-3.2,20.1c0.1,3.2,0.3,6.5-0.3,8.7c-0.5,1.9-2.2,4.6-3.9,7.2c-3.3,5.1-7.4,11.5-7.4,19.4s4.1,14.3,7.4,19.4
		c1.7,2.6,3.4,5.3,3.9,7.2c0.6,2.1,0.4,5.4,0.3,8.7c-0.3,6-0.6,13.5,3.2,20.1c3.9,6.7,10.5,10.1,15.9,12.9c2.8,1.5,5.7,3,7.2,4.4
		c1.5,1.5,3,4.4,4.4,7.2c2.3,4.5,5.2,10,10,13.9v82.8c0,3.6,2,6.9,5.1,8.6c3.1,1.7,7,1.6,10-0.4l43.1-27.8l43.1,27.8
		c1.6,1,3.5,1.6,5.3,1.6c1.6,0,3.2-0.4,4.7-1.2c3.1-1.7,5.1-5,5.1-8.6v-82.8c4.8-3.9,7.7-9.4,10-13.9c1.5-2.8,3-5.7,4.4-7.2
		c1.5-1.5,4.4-3,7.2-4.4c5.4-2.8,12-6.2,15.9-12.9c3.8-6.6,3.5-14.1,3.2-20.1c-0.1-3.2-0.3-6.5,0.3-8.7c0.5-1.9,2.2-4.6,3.9-7.2
		c3.3-5.1,7.4-11.5,7.4-19.4C259.1,102.7,255,96.3,251.7,91.2z M153.8,247.7c-3.2-2.1-7.4-2.1-10.6,0l-33.4,21.5v-59.5
		c1.2,0,2.3-0.1,3.4-0.1c1.5-0.1,3-0.1,4.3-0.1c1.9,0,3.3,0.1,4.3,0.4c1.9,0.5,4.6,2.2,7.2,3.9c5.1,3.3,11.5,7.4,19.4,7.4
		c7.9,0,14.3-4.1,19.4-7.4c2.6-1.7,5.3-3.4,7.2-3.9c1-0.3,2.4-0.4,4.3-0.4c1.4,0,2.8,0.1,4.3,0.1c1.1,0.1,2.3,0.1,3.4,0.1v59.5
		L153.8,247.7z M235.2,119.4c-2.4,3.7-5.1,7.9-6.4,12.7c-1.3,5-1.1,10.1-0.9,14.6c0.2,3.6,0.3,7.7-0.6,9.4c-1,1.7-4.7,3.6-8,5.3
		c-4,2-8.4,4.4-12.1,8c-3.6,3.6-5.9,8.1-8,12.1c-1.7,3.3-3.6,7-5.3,8c-0.9,0.5-2.6,0.7-5.1,0.7c-1.3,0-2.8-0.1-4.3-0.1
		c-1.7-0.1-3.4-0.1-5.2-0.1c-3.7,0-6.7,0.3-9.4,1.1c-4.9,1.3-9,4-12.7,6.4c-3.1,2-6.7,4.3-8.8,4.3s-5.7-2.3-8.8-4.3
		c-3.7-2.4-7.9-5.1-12.7-6.4c-2.7-0.7-5.7-1.1-9.4-1.1c-1.8,0-3.5,0.1-5.2,0.1c-1.5,0.1-3,0.1-4.3,0.1c-2.5,0-4.2-0.3-5.1-0.7
		c-1.7-1-3.6-4.7-5.3-8c-2-4-4.4-8.4-8-12.1c-3.6-3.6-8.1-5.9-12.1-8c-3.3-1.7-7-3.6-8-5.3c-1-1.7-0.8-5.8-0.6-9.4
		c0.2-4.5,0.4-9.6-0.9-14.6c-1.3-4.9-4-9-6.4-12.7c-2-3.1-4.3-6.7-4.3-8.8s2.3-5.7,4.3-8.8c2.4-3.7,5.1-7.9,6.4-12.7
		c1.3-5,1.1-10.1,0.9-14.6c-0.2-3.6-0.3-7.7,0.6-9.4c1-1.7,4.7-3.6,8-5.3c4-2,8.4-4.4,12.1-8c3.6-3.6,5.9-8.1,8-12.1
		c1.7-3.3,3.6-7,5.3-8c0.9-0.5,2.6-0.7,5.1-0.7c1.3,0,2.8,0.1,4.3,0.1c1.7,0.1,3.4,0.1,5.2,0.1c3.7,0,6.7-0.3,9.4-1.1
		c4.9-1.3,9-4,12.7-6.4c3.1-2,6.7-4.3,8.8-4.3s5.7,2.3,8.8,4.3c3.7,2.4,7.9,5.1,12.7,6.4c2.7,0.7,5.7,1.1,9.4,1.1
		c1.8,0,3.5-0.1,5.2-0.1c1.5-0.1,3-0.1,4.3-0.1c2.5,0,4.2,0.3,5.1,0.7c1.7,1,3.6,4.7,5.3,8c2,4,4.4,8.4,8,12.1
		c3.6,3.6,8.1,5.9,12.1,8c3.3,1.7,7,3.6,8,5.3c1,1.7,0.8,5.8,0.6,9.4c-0.2,4.5-0.4,9.6,0.9,14.6c1.3,4.9,4,9,6.4,12.7
		c2,3.1,4.3,6.7,4.3,8.8C239.5,112.7,237.3,116.3,235.2,119.4z"/>
	<path class="st1" d="M148.5,44.2c-36.5,0-66.2,29.8-66.2,66.4S112,177,148.5,177c36.5,0,66.2-29.8,66.2-66.4S185,44.2,148.5,44.2z
		 M148.5,157.4c-25.7,0-46.7-21-46.7-46.8s20.9-46.8,46.7-46.8c25.7,0,46.7,21,46.7,46.8S174.2,157.4,148.5,157.4z"/>
	<path class="st1" d="M148.5,87.6c-3.8,0-6.9,3.1-6.9,6.9v32.3c0,3.8,3.1,6.9,6.9,6.9s6.9-3.1,6.9-6.9V94.5
		C155.4,90.7,152.3,87.6,148.5,87.6z"/>
</g>
</svg>
