<svg id="reddit" xmlns="http://www.w3.org/2000/svg" width="36.255" height="36.255" viewBox="0 0 36.255 36.255">
  <path id="Path_68" data-name="Path 68" d="M199.1,341.456a7.076,7.076,0,0,1-7.584,0,.49.49,0,1,0-.692.692c1.287,1.287,3.76,1.389,4.485,1.389s3.194-.1,4.485-1.389a.5.5,0,0,0,0-.692A.488.488,0,0,0,199.1,341.456Zm0,0" transform="translate(-177.18 -317.144)" fill="#fff"/>
  <path id="Path_69" data-name="Path 69" d="M174.426,257.889a1.889,1.889,0,1,0-1.889,1.889A1.892,1.892,0,0,0,174.426,257.889Zm0,0" transform="translate(-158.565 -237.873)" fill="#fff"/>
  <path id="Path_70" data-name="Path 70" d="M18.127,0A18.127,18.127,0,1,0,36.255,18.127,18.129,18.129,0,0,0,18.127,0ZM28.645,20.545a5.259,5.259,0,0,1,.062.794c0,4.068-4.735,7.363-10.576,7.363s-10.576-3.3-10.576-7.363a5.318,5.318,0,0,1,.062-.8,2.642,2.642,0,1,1,2.908-4.318,12.962,12.962,0,0,1,7.2-2.241c0-.036,1.32-6.323,1.32-6.323a.465.465,0,0,1,.2-.3.471.471,0,0,1,.355-.065l4.394.935a1.888,1.888,0,1,1-.192.925l-3.934-.838-1.2,5.667a12.932,12.932,0,0,1,7.07,2.244,2.641,2.641,0,0,1,4.477,1.9,2.655,2.655,0,0,1-1.566,2.418Zm0,0" fill="#fff"/>
  <path id="Path_71" data-name="Path 71" d="M289.889,256a1.889,1.889,0,1,0,1.889,1.889A1.892,1.892,0,0,0,289.889,256Zm0,0" transform="translate(-267.607 -237.873)" fill="#fff"/>
</svg>
