<?xml version="1.0" encoding="utf-8"?>
<!-- Generator: Adobe Illustrator 24.2.1, SVG Export Plug-In . SVG Version: 6.00 Build 0)  -->
<svg version="1.1" id="Capa_1" xmlns="http://www.w3.org/2000/svg" xmlns:xlink="http://www.w3.org/1999/xlink" x="0px" y="0px"
	 viewBox="0 0 512 512" style="enable-background:new 0 0 512 512;" xml:space="preserve">
<style type="text/css">
	.st0{fill:#FFFFFF;}
	.st1{fill:#F60000;}
</style>
<g>
	<g>
		<path class="st0" d="M256,0C114.8,0,0,114.8,0,256s114.8,256,256,256s256-114.8,256-256S397.2,0,256,0z M256,480
			C132.5,480,32,379.5,32,256S132.5,32,256,32s224,100.5,224,224S379.5,480,256,480z"/>
	</g>
</g>
<g>
	<g>
		<path class="st1" d="M256,240c-26,0-48-14.7-48-32s22-32,48-32c14.7,0,28.4,4.6,37.4,12.6c6.6,5.9,16.7,5.3,22.6-1.3
			c5.9-6.6,5.3-16.7-1.3-22.6c-11.2-10-26.2-16.7-42.6-19.3V128c0-8.8-7.2-16-16-16s-16,7.2-16,16v17.3c-36.5,6-64,31.8-64,62.7
			c0,35.3,35.9,64,80,64c26,0,48,14.7,48,32s-22,32-48,32c-14.7,0-28.4-4.6-37.4-12.6c-6.6-5.9-16.7-5.3-22.6,1.3
			c-5.9,6.6-5.3,16.7,1.3,22.6c11.2,10,26.2,16.7,42.6,19.4V384c0,8.8,7.2,16,16,16s16-7.2,16-16v-17.3c36.5-6,64-31.8,64-62.7
			C336,268.7,300.1,240,256,240z"/>
	</g>
</g>
</svg>
