<?xml version="1.0" encoding="utf-8"?>
<!-- Generator: Adobe Illustrator 24.2.1, SVG Export Plug-In . SVG Version: 6.00 Build 0)  -->
<svg version="1.1" id="Layer_1" xmlns="http://www.w3.org/2000/svg" xmlns:xlink="http://www.w3.org/1999/xlink" x="0px" y="0px"
	 viewBox="0 0 1920 324" style="enable-background:new 0 0 1920 324;" xml:space="preserve">
<style type="text/css">
	.st0{fill:#9C0003;}
	.st1{fill:#850001;}
	.st2{fill:#8F0002;}
	.st3{fill:#B20002;}
	.st4{fill:#AE0001;}
	.st5{fill:#B70002;}
	.st6{fill:#C40001;}
	.st7{fill:#BE0000;}
	.st8{fill:#770000;}
	.st9{fill:#9B0004;}
	.st10{fill:#D40000;}
	.st11{fill:#E40001;}
	.st12{fill:#D80100;}
	.st13{fill:#A50004;}
	.st14{fill:#970103;}
	.st15{fill:#910002;}
	.st16{fill:#B80002;}
	.st17{fill:#C80000;}
	.st18{fill:#A30003;}
	.st19{fill:#7D0103;}
	.st20{fill:#900002;}
	.st21{fill:#AF0103;}
	.st22{fill:#A40003;}
	.st23{fill:#820002;}
	.st24{fill:#990002;}
	.st25{fill:#B10000;}
	.st26{fill:#DA0000;}
	.st27{fill:#B00002;}
</style>
<g>
	<polygon class="st0" points="1923,17.9 1923,284.9 1729,268 1676,262.9 1577,298.9 1483,333.9 1444,326.9 1289,297.9 1075,317.9 
		1047,316.9 902.1,310.9 902,311 656,298.9 313,322.9 270,325.9 201,329.9 174,324 4,284.9 4,266.9 3,17.9 40,22 301,39 394.8,27 
		395,26.9 478,17.9 546,10.9 663,18.9 751,25.9 826.1,31.9 826,31.9 911,38.9 974,35.9 1192,23.9 1242,20.9 1261,19.9 1298,17.9 
		1468,35.9 1559,44.9 1601,49.9 1630,46.9 1752,35.1 1752,34.9 1867.6,23.5 1868,23.9 	"/>
</g>
<g>
	<polygon class="st1" points="156,243.9 174,324 201,329.9 270,325.9 288,288.9 	"/>
	<polygon class="st2" points="0,268 156,243.9 174,324 0,284 	"/>
	<polygon class="st3" points="3,17.9 156,243.9 0,268 0,17.9 	"/>
	<polygon class="st4" points="204,133.9 156,243.9 3,17.9 40,22 	"/>
	<polygon class="st5" points="301,39 204,133.9 40,22 	"/>
	<polygon class="st6" points="395,27 204,133.9 301,39 	"/>
	<polygon class="st7" points="546,10.9 478,17.9 288,288.9 656,298.9 	"/>
	<polygon class="st8" points="313,322.9 270,325.9 288,288.9 	"/>
	<polygon class="st9" points="656,298.9 313,322.9 288,288.9 	"/>
	<polygon class="st10" points="742,62.9 656,298.9 546,10.9 663,18.9 	"/>
	<polygon class="st11" points="751,25.9 742,62.9 663,18.9 	"/>
	<polygon class="st12" points="826.1,31.9 742,62.9 751,25.9 	"/>
	<polygon class="st12" points="937,185.9 742,62.9 656,298.9 	"/>
	<polygon class="st13" points="902,311 656,298.9 937,185.9 	"/>
	<polygon class="st14" points="1047,316.9 937,185.9 902,310.9 	"/>
	<polygon class="st15" points="1075,317.9 1047,316.9 937,185.9 1289,297.9 	"/>
	<polygon class="st16" points="1192,23.9 937,185.9 974,35.9 	"/>
	<polygon class="st17" points="826,31.9 911,38.9 974,35.9 937,185.9 742,62.9 	"/>
	<polygon class="st18" points="1192,23.9 937,185.9 1289,297.9 1242,20.9 	"/>
	<polygon class="st19" points="1499,227.9 1289,297.9 1444,326.9 	"/>
	<polygon class="st20" points="1261,19.9 1499,227.9 1289,297.9 1242,20.9 	"/>
	<polygon class="st0" points="1539,128.9 1499,227.9 1261,19.9 1298,17.9 	"/>
	<polygon class="st21" points="1559,44.9 1539,128.9 1468,35.9 	"/>
	<polygon class="st22" points="1298,17.9 1539,128.9 1468,35.9 	"/>
	<polygon class="st23" points="1444,326.9 1483,333.9 1577,298.9 1499,227.9 	"/>
	<polygon class="st18" points="1539,128.9 1693,239.9 1499,227.9 	"/>
	<polygon class="st24" points="1577,298.9 1499,227.9 1693,239.9 1729,268 1676,262.9 	"/>
	<polygon class="st6" points="1539,128.9 1630,46.9 1601,49.9 1559,44.9 	"/>
	<polygon class="st7" points="1748,113.9 1539,128.9 1630,46.9 1752.1,35.1 	"/>
	<polygon class="st25" points="1693,239.9 1539,128.9 1748,113.9 	"/>
	<polygon class="st17" points="1923,79.9 1748,113.9 1752,34.9 1867.6,23.5 	"/>
	<polygon class="st26" points="1923,17.9 1868,23.9 1923,79.9 	"/>
	<polygon class="st7" points="1693,239.9 1748,113.9 1923,79.9 	"/>
	<polygon class="st27" points="1729,268 1693,239.9 1923,79.9 1923,284.9 	"/>
	<polygon class="st27" points="288,288.9 478,17.9 395,26.9 204,133.9 	"/>
	<polygon class="st24" points="288,288.9 156,243.9 204,133.9 	"/>
</g>
</svg>
