<?xml version="1.0" encoding="utf-8"?>
<!-- Generator: Adobe Illustrator 24.2.1, SVG Export Plug-In . SVG Version: 6.00 Build 0)  -->
<svg version="1.1" id="Layer_1" xmlns="http://www.w3.org/2000/svg" xmlns:xlink="http://www.w3.org/1999/xlink" x="0px" y="0px"
	 viewBox="0 0 1920 380" style="enable-background:new 0 0 1920 380;" xml:space="preserve">
<style type="text/css">
	.st0{fill:#9C0003;}
	.st1{fill:#850001;}
	.st2{fill:#8F0002;}
	.st3{fill:#B20002;}
	.st4{fill:#AE0001;}
	.st5{fill:#B70002;}
	.st6{fill:#C40001;}
	.st7{fill:#BE0000;}
	.st8{fill:#770000;}
	.st9{fill:#9B0004;}
	.st10{fill:#D40000;}
	.st11{fill:#E40001;}
	.st12{fill:#D80100;}
	.st13{fill:#A50004;}
	.st14{fill:#970103;}
	.st15{fill:#910002;}
	.st16{fill:#B80002;}
	.st17{fill:#C80000;}
	.st18{fill:#A30003;}
	.st19{fill:#7D0103;}
	.st20{fill:#900002;}
	.st21{fill:#AF0103;}
	.st22{fill:#A40003;}
	.st23{fill:#820002;}
	.st24{fill:#990002;}
	.st25{fill:#B10000;}
	.st26{fill:#DA0000;}
	.st27{fill:#B00002;}
</style>
<g>
	<polygon class="st0" points="1923,37.4 1923,304.4 1729,287.5 1676,282.4 1577,318.4 1483,353.4 1444,346.4 1289,317.4 1075,337.4 
		1047,336.4 902.1,330.4 902,330.5 656,318.4 313,342.4 270,345.4 201,349.4 174,343.5 4,304.4 4,286.4 3,37.4 40,41.5 301,58.5 
		394.8,46.5 395,46.4 478,37.4 546,30.4 663,38.4 751,45.4 826.1,51.3 826,51.4 911,58.4 974,55.4 1192,43.4 1242,40.4 1261,39.4 
		1298,37.4 1468,55.4 1559,64.4 1601,69.4 1630,66.4 1752,54.6 1752,54.4 1867.6,43 1868,43.4 	"/>
</g>
<g>
	<polygon class="st1" points="156,263.4 174,343.5 201,349.4 270,345.4 288,308.4 	"/>
	<polygon class="st2" points="0,287.5 156,263.4 174,343.5 0,303.4 	"/>
	<polygon class="st3" points="3,37.4 156,263.4 0,287.5 0,37.3 	"/>
	<polygon class="st4" points="204,153.4 156,263.4 3,37.4 40,41.5 	"/>
	<polygon class="st5" points="301,58.5 204,153.4 40,41.5 	"/>
	<polygon class="st6" points="395,46.5 204,153.4 301,58.5 	"/>
	<polygon class="st7" points="546,30.4 478,37.4 288,308.4 656,318.4 	"/>
	<polygon class="st8" points="313,342.4 270,345.4 288,308.4 	"/>
	<polygon class="st9" points="656,318.4 313,342.4 288,308.4 	"/>
	<polygon class="st10" points="742,82.4 656,318.4 546,30.4 663,38.4 	"/>
	<polygon class="st11" points="751,45.4 742,82.4 663,38.4 	"/>
	<polygon class="st12" points="826.1,51.3 742,82.4 751,45.4 	"/>
	<polygon class="st12" points="937,205.4 742,82.4 656,318.4 	"/>
	<polygon class="st13" points="902,330.5 656,318.4 937,205.4 	"/>
	<polygon class="st14" points="1047,336.4 937,205.4 902,330.4 	"/>
	<polygon class="st15" points="1075,337.4 1047,336.4 937,205.4 1289,317.4 	"/>
	<polygon class="st16" points="1192,43.4 937,205.4 974,55.4 	"/>
	<polygon class="st17" points="826,51.4 911,58.4 974,55.4 937,205.4 742,82.4 	"/>
	<polygon class="st18" points="1192,43.4 937,205.4 1289,317.4 1242,40.4 	"/>
	<polygon class="st19" points="1499,247.4 1289,317.4 1444,346.4 	"/>
	<polygon class="st20" points="1261,39.4 1499,247.4 1289,317.4 1242,40.4 	"/>
	<polygon class="st0" points="1539,148.4 1499,247.4 1261,39.4 1298,37.4 	"/>
	<polygon class="st21" points="1559,64.4 1539,148.4 1468,55.4 	"/>
	<polygon class="st22" points="1298,37.4 1539,148.4 1468,55.4 	"/>
	<polygon class="st23" points="1444,346.4 1483,353.4 1577,318.4 1499,247.4 	"/>
	<polygon class="st18" points="1539,148.4 1693,259.4 1499,247.4 	"/>
	<polygon class="st24" points="1577,318.4 1499,247.4 1693,259.4 1729,287.5 1676,282.4 	"/>
	<polygon class="st6" points="1539,148.4 1630,66.4 1601,69.4 1559,64.4 	"/>
	<polygon class="st7" points="1748,133.4 1539,148.4 1630,66.4 1752.1,54.6 	"/>
	<polygon class="st25" points="1693,259.4 1539,148.4 1748,133.4 	"/>
	<polygon class="st17" points="1923,99.4 1748,133.4 1752,54.4 1867.6,43 	"/>
	<polygon class="st26" points="1923,37.4 1868,43.4 1923,99.4 	"/>
	<polygon class="st7" points="1693,259.4 1748,133.4 1923,99.4 	"/>
	<polygon class="st27" points="1729,287.5 1693,259.4 1923,99.4 1923,304.4 	"/>
	<polygon class="st27" points="288,308.4 478,37.4 395,46.4 204,153.4 	"/>
	<polygon class="st24" points="288,308.4 156,263.4 204,153.4 	"/>
</g>
</svg>
