<?xml version="1.0" encoding="iso-8859-1"?>
<!-- Generator: Adobe Illustrator 19.0.0, SVG Export Plug-In . SVG Version: 6.00 Build 0)  -->
<svg version="1.1" id="Layer_1" xmlns="http://www.w3.org/2000/svg" xmlns:xlink="http://www.w3.org/1999/xlink" x="0px" y="0px"
	 viewBox="0 0 485.032 485.032" style="enable-background:new 0 0 485.032 485.032;" xml:space="preserve">
<path d="M483.508,99.141c-3.742-27.401-14.161-49.819-30.967-66.63c-21.272-21.266-52.249-32.496-89.605-32.496
	c-76.222,0-169.428,45.856-243.246,119.673C65.198,174.181,25.828,238.709,8.831,301.386c-8.317,30.671-10.775,59.102-7.307,84.504
	c3.742,27.401,14.16,49.817,30.966,66.629c21.27,21.264,52.247,32.495,89.604,32.497c76.225,0,169.429-45.857,243.247-119.675
	c54.492-54.492,93.862-119.02,110.859-181.696C484.518,152.975,486.976,124.544,483.508,99.141z M71.252,436.477
	c-5.647,0-13.272-0.896-17.536-5.158c-8.31-8.311-9.033-35.81,16.272-85.964c24.959-49.469,67.107-105.115,118.679-156.687
	C280.651,96.683,371.54,48.555,413.781,48.555c5.646,0,13.272,0.895,17.536,5.159c8.309,8.309,9.032,35.809-16.273,85.963
	c-24.959,49.47-67.107,105.116-118.679,156.688C204.376,388.353,113.489,436.48,71.252,436.477z M140.903,140.903
	C208.757,73.049,293.024,30.701,361.295,30.032c-56.31,21.422-127.803,71.384-193.841,137.422
	c-53.767,53.766-97.893,112.147-124.25,164.387c-5.214,10.335-9.594,20.158-13.162,29.458c0.154-15.98,2.708-33.493,7.743-52.061
	C53.433,251.533,90.055,191.751,140.903,140.903z M344.128,344.128C276.27,411.985,192.005,454.334,123.739,455
	c56.309-21.423,127.801-71.385,193.838-137.422c53.767-53.767,97.893-112.147,124.25-164.387
	c5.214-10.335,9.594-20.157,13.162-29.457c-0.154,15.98-2.708,33.492-7.743,52.06C431.598,233.497,394.976,293.28,344.128,344.128z"
	/>
<g>
</g>
<g>
</g>
<g>
</g>
<g>
</g>
<g>
</g>
<g>
</g>
<g>
</g>
<g>
</g>
<g>
</g>
<g>
</g>
<g>
</g>
<g>
</g>
<g>
</g>
<g>
</g>
<g>
</g>
</svg>
