<svg id="eu8wvnqvjuh81" xmlns="http://www.w3.org/2000/svg" xmlns:xlink="http://www.w3.org/1999/xlink" viewBox="0 0 684 637.600000" shape-rendering="geometricPrecision" text-rendering="geometricPrecision"><style><![CDATA[#eu8wvnqvjuh83_ts {animation: eu8wvnqvjuh83_ts__ts 3000ms linear infinite normal forwards}@keyframes eu8wvnqvjuh83_ts__ts { 0% {transform: translate(332.146152px,322.021581px) scale(1,1)} 30% {transform: translate(332.146152px,322.021581px) scale(1.282849,1.284848)} 46.666667% {transform: translate(332.146152px,322.021581px) scale(1.186776,1.125772)} 66.666667% {transform: translate(332.146152px,322.021581px) scale(1.277656,1.229221)} 83.333333% {transform: translate(332.146152px,322.021581px) scale(1.277656,1.059472)} 100% {transform: translate(332.146152px,322.021581px) scale(1,1)} }#eu8wvnqvjuh84_to {animation: eu8wvnqvjuh84_to__to 3000ms linear infinite normal forwards}@keyframes eu8wvnqvjuh84_to__to { 0% {transform: translate(59.203803px,389.221515px)} 3.333333% {transform: translate(59.203803px,389.221515px)} 30% {transform: translate(76.151208px,304.484486px)} 63.333333% {transform: translate(59.203803px,389.221515px)} 100% {transform: translate(59.203803px,389.221515px)} }#eu8wvnqvjuh84_ts {animation: eu8wvnqvjuh84_ts__ts 3000ms linear infinite normal forwards}@keyframes eu8wvnqvjuh84_ts__ts { 0% {transform: scale(1,1)} 3.333333% {transform: scale(1,1)} 30% {transform: scale(1.987244,1.987244)} 63.333333% {transform: scale(1,1)} 100% {transform: scale(1,1)} }#eu8wvnqvjuh85_to {animation: eu8wvnqvjuh85_to__to 3000ms linear infinite normal forwards}@keyframes eu8wvnqvjuh85_to__to { 0% {transform: translate(250.611436px,127.541507px)} 6.666667% {transform: translate(250.611436px,127.541507px)} 26.666667% {transform: translate(214.158322px,134.673638px)} 56.666667% {transform: translate(250.611436px,127.541507px)} 100% {transform: translate(250.611436px,127.541507px)} }#eu8wvnqvjuh85_ts {animation: eu8wvnqvjuh85_ts__ts 3000ms linear infinite normal forwards}@keyframes eu8wvnqvjuh85_ts__ts { 0% {transform: scale(1,1)} 6.666667% {transform: scale(1,1)} 26.666667% {transform: scale(1.538358,1.538358)} 56.666667% {transform: scale(1,1)} 100% {transform: scale(1,1)} }#eu8wvnqvjuh86_ts {animation: eu8wvnqvjuh86_ts__ts 3000ms linear infinite normal forwards}@keyframes eu8wvnqvjuh86_ts__ts { 0% {transform: translate(602.182171px,307.443757px) scale(1,1)} 20% {transform: translate(602.182171px,307.443757px) scale(1,1)} 46.666667% {transform: translate(602.182171px,307.443757px) scale(1.854788,1.854788)} 70% {transform: translate(602.182171px,307.443757px) scale(1.235085,1.235085)} 83.333333% {transform: translate(602.182171px,307.443757px) scale(2.119896,2.119896)} 100% {transform: translate(602.182171px,307.443757px) scale(1,1)} }#eu8wvnqvjuh87_to {animation: eu8wvnqvjuh87_to__to 3000ms linear infinite normal forwards}@keyframes eu8wvnqvjuh87_to__to { 0% {transform: translate(318.830121px,543.372347px)} 33.333333% {transform: translate(318.830121px,543.372347px)} 63.333333% {transform: translate(270.195036px,552.378844px)} 100% {transform: translate(318.830121px,543.372347px)} }#eu8wvnqvjuh87_ts {animation: eu8wvnqvjuh87_ts__ts 3000ms linear infinite normal forwards}@keyframes eu8wvnqvjuh87_ts__ts { 0% {transform: scale(1,1)} 33.333333% {transform: scale(1,1)} 63.333333% {transform: scale(1.400000,1.400000)} 100% {transform: scale(1,1)} }#eu8wvnqvjuh88_to {animation: eu8wvnqvjuh88_to__to 3000ms linear infinite normal forwards}@keyframes eu8wvnqvjuh88_to__to { 0% {transform: translate(208.873950px,78.308786px)} 16.666667% {transform: translate(208.873950px,78.308786px)} 43.333333% {transform: translate(115.119798px,61.730308px)} 80% {transform: translate(208.873950px,78.308786px)} 100% {transform: translate(208.873950px,78.308786px)} }#eu8wvnqvjuh88_ts {animation: eu8wvnqvjuh88_ts__ts 3000ms linear infinite normal forwards}@keyframes eu8wvnqvjuh88_ts__ts { 0% {transform: scale(1,1)} 16.666667% {transform: scale(1,1)} 43.333333% {transform: scale(2.277014,2.277014)} 80% {transform: scale(1,1)} 100% {transform: scale(1,1)} }#eu8wvnqvjuh850_tr {animation: eu8wvnqvjuh850_tr__tr 3000ms linear infinite normal forwards}@keyframes eu8wvnqvjuh850_tr__tr { 0% {transform: translate(464.951676px,437.642106px) rotate(0deg)} 33.333333% {transform: translate(464.951676px,437.642106px) rotate(0deg)} 66.666667% {transform: translate(464.951676px,437.642106px) rotate(359.384842deg)} 100% {transform: translate(464.951676px,437.642106px) rotate(359.384842deg)} }#eu8wvnqvjuh863_to {animation: eu8wvnqvjuh863_to__to 3000ms linear infinite normal forwards}@keyframes eu8wvnqvjuh863_to__to { 0% {transform: translate(519.821382px,156.777025px)} 26.666667% {transform: translate(590.776970px,93.006813px)} 43.333333% {transform: translate(555.748262px,122.646489px)} 60% {transform: translate(602.453206px,82.228749px)} 86.666667% {transform: translate(519.821382px,156.777025px)} 100% {transform: translate(519.821382px,156.777025px)} }#eu8wvnqvjuh863_ts {animation: eu8wvnqvjuh863_ts__ts 3000ms linear infinite normal forwards}@keyframes eu8wvnqvjuh863_ts__ts { 0% {transform: scale(1,1)} 26.666667% {transform: scale(2.242947,2.242947)} 43.333333% {transform: scale(1.364680,1.364680)} 60% {transform: scale(1.922509,1.922509)} 86.666667% {transform: scale(1,1)} 100% {transform: scale(1,1)} }#eu8wvnqvjuh865_to {animation: eu8wvnqvjuh865_to__to 3000ms linear infinite normal forwards}@keyframes eu8wvnqvjuh865_to__to { 0% {transform: translate(0px,0px)} 33.333333% {transform: translate(0px,-38.830040px)} 66.666667% {transform: translate(0px,0px)} 83.333333% {transform: translate(0.456824px,-24.211672px)} 100% {transform: translate(0px,0px)} }#eu8wvnqvjuh866_to {animation: eu8wvnqvjuh866_to__to 3000ms linear infinite normal forwards}@keyframes eu8wvnqvjuh866_to__to { 0% {transform: translate(0px,0px)} 33.333333% {transform: translate(0px,-38.830040px)} 66.666667% {transform: translate(0px,0px)} 83.333333% {transform: translate(0.456824px,-24.211672px)} 100% {transform: translate(0px,0px)} }#eu8wvnqvjuh867_to {animation: eu8wvnqvjuh867_to__to 3000ms linear infinite normal forwards}@keyframes eu8wvnqvjuh867_to__to { 0% {transform: translate(0px,0px)} 33.333333% {transform: translate(0px,-38.830040px)} 66.666667% {transform: translate(0px,0px)} 83.333333% {transform: translate(0.456824px,-24.211672px)} 100% {transform: translate(0px,0px)} }#eu8wvnqvjuh868_to {animation: eu8wvnqvjuh868_to__to 3000ms linear infinite normal forwards}@keyframes eu8wvnqvjuh868_to__to { 0% {transform: translate(0px,0px)} 33.333333% {transform: translate(0px,-38.830040px)} 66.666667% {transform: translate(0px,0px)} 83.333333% {transform: translate(0.456824px,-24.211672px)} 100% {transform: translate(0px,0px)} }#eu8wvnqvjuh869_to {animation: eu8wvnqvjuh869_to__to 3000ms linear infinite normal forwards}@keyframes eu8wvnqvjuh869_to__to { 0% {transform: translate(0px,0px)} 33.333333% {transform: translate(0px,-38.830040px)} 66.666667% {transform: translate(0px,0px)} 83.333333% {transform: translate(0.456824px,-24.211672px)} 100% {transform: translate(0px,0px)} }#eu8wvnqvjuh871_to {animation: eu8wvnqvjuh871_to__to 3000ms linear infinite normal forwards}@keyframes eu8wvnqvjuh871_to__to { 0% {transform: translate(0px,0px)} 33.333333% {transform: translate(0px,-38.830040px)} 66.666667% {transform: translate(0px,0px)} 83.333333% {transform: translate(0.456824px,-24.211672px)} 100% {transform: translate(0px,0px)} }#eu8wvnqvjuh872_to {animation: eu8wvnqvjuh872_to__to 3000ms linear infinite normal forwards}@keyframes eu8wvnqvjuh872_to__to { 0% {transform: translate(0px,0px)} 33.333333% {transform: translate(0px,-38.830040px)} 66.666667% {transform: translate(0px,0px)} 83.333333% {transform: translate(0.456824px,-24.211672px)} 100% {transform: translate(0px,0px)} }]]></style><g id="eu8wvnqvjuh82"><g id="eu8wvnqvjuh83_ts" transform="translate(332.146152,322.021581) scale(1,1)"><path id="eu8wvnqvjuh83" d="M548.300000,189C483.600000,132.100000,420.800000,178.500000,350.800000,162.100000C280.400000,145.600000,252.300000,90.700000,172,116C100.900000,138.500000,57.700000,228.600000,96.800000,304C107.900000,325.500000,126.900000,341.700000,134.700000,365.800000C147.200000,404.600000,128.200000,434.400000,131.900000,472.500000C147.300000,630.900000,359,569.600000,436.800000,520.300000C558.900000,443,641.500000,271,548.300000,189Z" transform="translate(-327.963804,-337.356860)" opacity="0.15" fill="rgb(104,104,104)" stroke="none" stroke-width="1"/></g><g id="eu8wvnqvjuh84_to" transform="translate(59.203803,389.221515)"><g id="eu8wvnqvjuh84_ts" transform="scale(1,1)"><path id="eu8wvnqvjuh84" d="M59.300000,404.100000C55.600000,404.100000,51.800000,402.700000,49,399.800000C43.300000,394.100000,43.300000,384.800000,49,379.100000C54.700000,373.400000,64,373.400000,69.700000,379.100000C72.500000,381.900000,74,385.500000,74,389.400000C74,393.300000,72.500000,397,69.700000,399.700000L69.700000,399.700000C66.800000,402.600000,63.100000,404.100000,59.300000,404.100000L59.300000,404.100000ZM59.300000,384.900000C58.100000,384.900000,56.900000,385.300000,56,386.200000C54.200000,388,54.200000,390.900000,56,392.700000C57.800000,394.500000,60.700000,394.500000,62.500000,392.700000C62.500000,392.700000,62.500000,392.700000,62.500000,392.700000C63.400000,391.800000,63.800000,390.700000,63.800000,389.400000C63.800000,388.200000,63.300000,387,62.500000,386.100000C61.700000,385.300000,60.500000,384.900000,59.300000,384.900000Z" transform="translate(-59.203803,-389.221515)" fill="rgb(244,0,0)" stroke="none" stroke-width="1"/></g></g><g id="eu8wvnqvjuh85_to" transform="translate(250.611436,127.541507)"><g id="eu8wvnqvjuh85_ts" transform="scale(1,1)"><path id="eu8wvnqvjuh85" d="M250.400000,142.400000C246.500000,142.400000,242.800000,140.900000,240.100000,138.100000C237.300000,135.300000,235.800000,131.700000,235.800000,127.800000C235.800000,123.900000,237.300000,120.200000,240.100000,117.500000C245.800000,111.800000,255.100000,111.800000,260.700000,117.500000C266.400000,123.200000,266.400000,132.500000,260.700000,138.200000L260.700000,138.200000C260.700000,138.200000,260.700000,138.200000,260.700000,138.200000C257.900000,140.900000,254.300000,142.400000,250.400000,142.400000ZM250.400000,123.200000C249.200000,123.200000,248,123.600000,247.100000,124.500000C246.200000,125.400000,245.800000,126.500000,245.800000,127.800000C245.800000,129,246.300000,130.200000,247.100000,131.100000C248,132,249.100000,132.400000,250.400000,132.400000C251.700000,132.400000,252.800000,131.900000,253.700000,131.100000L253.700000,131.100000C255.500000,129.300000,255.500000,126.400000,253.700000,124.600000C252.700000,123.700000,251.500000,123.200000,250.400000,123.200000Z" transform="translate(-250.611436,-127.541507)" fill="rgb(63,63,63)" stroke="none" stroke-width="1"/></g></g><g id="eu8wvnqvjuh86_ts" transform="translate(602.182171,307.443757) scale(1,1)"><path id="eu8wvnqvjuh86" d="M610.100000,302.300000L606.800000,302.300000L606.800000,299C606.800000,296.200000,604.600000,294,601.800000,294C599,294,596.800000,296.200000,596.800000,299L596.800000,302.300000L593.500000,302.300000C590.700000,302.300000,588.500000,304.500000,588.500000,307.300000C588.500000,310.100000,590.700000,312.300000,593.500000,312.300000L596.800000,312.300000L596.800000,315.600000C596.800000,318.400000,599,320.600000,601.800000,320.600000C604.600000,320.600000,606.800000,318.400000,606.800000,315.600000L606.800000,312.300000L610.100000,312.300000C612.900000,312.300000,615.100000,310.100000,615.100000,307.300000C615.100000,304.500000,612.800000,302.300000,610.100000,302.300000Z" transform="translate(-602.182171,-307.443757)" fill="rgb(63,63,63)" stroke="none" stroke-width="1"/></g><g id="eu8wvnqvjuh87_to" transform="translate(318.830121,543.372347)"><g id="eu8wvnqvjuh87_ts" transform="scale(1,1)"><path id="eu8wvnqvjuh87" d="M326.700000,538L323.400000,538L323.400000,534.700000C323.400000,531.900000,321.200000,529.700000,318.400000,529.700000C315.600000,529.700000,313.400000,531.900000,313.400000,534.700000L313.400000,538L310.100000,538C307.300000,538,305.100000,540.200000,305.100000,543C305.100000,545.800000,307.300000,548,310.100000,548L313.400000,548L313.400000,551.300000C313.400000,554.100000,315.600000,556.300000,318.400000,556.300000C321.200000,556.300000,323.400000,554.100000,323.400000,551.300000L323.400000,548L326.700000,548C329.500000,548,331.700000,545.800000,331.700000,543C331.700000,540.300000,329.500000,538,326.700000,538Z" transform="translate(-318.830121,-543.372347)" fill="rgb(255,77,77)" stroke="none" stroke-width="1"/></g></g><g id="eu8wvnqvjuh88_to" transform="translate(208.873950,78.308786)"><g id="eu8wvnqvjuh88_ts" transform="scale(1,1)"><path id="eu8wvnqvjuh88" d="M216.900000,73.500000L213.600000,73.500000L213.600000,70.200000C213.600000,67.400000,211.400000,65.200000,208.600000,65.200000C205.800000,65.200000,203.600000,67.400000,203.600000,70.200000L203.600000,73.500000L200.300000,73.500000C197.500000,73.500000,195.300000,75.700000,195.300000,78.500000C195.300000,81.300000,197.500000,83.500000,200.300000,83.500000L203.600000,83.500000L203.600000,86.800000C203.600000,89.600000,205.800000,91.800000,208.600000,91.800000C211.400000,91.800000,213.600000,89.600000,213.600000,86.800000L213.600000,83.500000L216.900000,83.500000C219.700000,83.500000,221.900000,81.300000,221.900000,78.500000C221.900000,75.700000,219.600000,73.500000,216.900000,73.500000Z" transform="translate(-208.873950,-78.308786)" fill="rgb(255,77,77)" stroke="none" stroke-width="1"/></g></g><g id="eu8wvnqvjuh89"><g id="eu8wvnqvjuh810"><g id="eu8wvnqvjuh811"><g id="eu8wvnqvjuh812"><g id="eu8wvnqvjuh813"><g id="eu8wvnqvjuh814"><g id="eu8wvnqvjuh815"><g id="eu8wvnqvjuh816"><g id="eu8wvnqvjuh817"><g id="eu8wvnqvjuh818"><g id="eu8wvnqvjuh819"><g id="eu8wvnqvjuh820"><g id="eu8wvnqvjuh821"><path id="eu8wvnqvjuh822" d="M525.300000,543.900000L501.300000,543.900000C495,543.900000,489.900000,538.800000,489.900000,532.500000L489.900000,483L525.300000,483C537.900000,483,548.100000,472.800000,548.100000,460.200000L548.100000,521C548.100000,523.300000,547.800000,525.400000,547.200000,527.500000C544.400000,537,535.700000,543.900000,525.300000,543.900000L525.300000,543.900000Z" fill="rgb(255,77,77)" stroke="none" stroke-width="1"/><path id="eu8wvnqvjuh823" d="M548.200000,517C548.200000,504.400000,538,494.200000,525.400000,494.200000L157.800000,494.200000C145.200000,494.200000,135,484,135,471.400000L135,214.800000L525.300000,214.800000C537.900000,214.800000,548.100000,225,548.100000,237.600000L548.100000,517Z" fill="rgb(63,63,63)" stroke="none" stroke-width="1"/><path id="eu8wvnqvjuh824" d="M523.300000,415.300000L523.300000,293.700000C523.300000,291.100000,521.300000,289,518.700000,288.700000C495.200000,286.500000,476.400000,267.800000,474.200000,244.200000C474,241.600000,471.800000,239.600000,469.200000,239.600000L213.900000,239.600000C211.300000,239.600000,209.200000,241.600000,208.900000,244.200000C206.700000,267.700000,188,286.500000,164.400000,288.700000C161.800000,288.900000,159.800000,291.100000,159.800000,293.700000L159.800000,415.200000C159.800000,417.800000,161.800000,419.900000,164.400000,420.200000C187.900000,422.400000,206.700000,441.100000,208.900000,464.700000C209.100000,467.300000,211.300000,469.300000,213.900000,469.300000L469.200000,469.300000C471.800000,469.300000,473.900000,467.300000,474.200000,464.700000C476.400000,441.200000,495.100000,422.400000,518.700000,420.200000C521.300000,420,523.300000,417.900000,523.300000,415.300000Z" fill="rgb(255,255,255)" stroke="none" stroke-width="1"/><g id="eu8wvnqvjuh825"><g id="eu8wvnqvjuh826"><g id="eu8wvnqvjuh827"><path id="eu8wvnqvjuh828" d="M437.600000,347.200000L310,347.200000C307.200000,347.200000,305,345,305,342.200000C305,339.400000,307.200000,337.200000,310,337.200000L437.600000,337.200000C440.400000,337.200000,442.600000,339.400000,442.600000,342.200000C442.600000,344.900000,440.400000,347.200000,437.600000,347.200000Z" fill="rgb(28,28,28)" stroke="none" stroke-width="1"/></g></g><g id="eu8wvnqvjuh829"><g id="eu8wvnqvjuh830"><path id="eu8wvnqvjuh831" d="M284.500000,347.200000L238.600000,347.200000C235.800000,347.200000,233.600000,345,233.600000,342.200000C233.600000,339.400000,235.800000,337.200000,238.600000,337.200000L284.500000,337.200000C287.300000,337.200000,289.500000,339.400000,289.500000,342.200000C289.500000,344.900000,287.300000,347.200000,284.500000,347.200000Z" fill="rgb(63,63,63)" stroke="none" stroke-width="1"/></g></g><g id="eu8wvnqvjuh832"><g id="eu8wvnqvjuh833"><path id="eu8wvnqvjuh834" d="M437.600000,369.400000L401.900000,369.400000C399.100000,369.400000,396.900000,367.200000,396.900000,364.400000C396.900000,361.600000,399.100000,359.400000,401.900000,359.400000L437.600000,359.400000C440.400000,359.400000,442.600000,361.600000,442.600000,364.400000C442.600000,367.200000,440.400000,369.400000,437.600000,369.400000L437.600000,369.400000Z" fill="rgb(63,63,63)" stroke="none" stroke-width="1"/></g></g><g id="eu8wvnqvjuh835"><g id="eu8wvnqvjuh836"><path id="eu8wvnqvjuh837" d="M376.400000,369.400000L238.600000,369.400000C235.800000,369.400000,233.600000,367.200000,233.600000,364.400000C233.600000,361.600000,235.800000,359.400000,238.600000,359.400000L376.400000,359.400000C379.200000,359.400000,381.400000,361.600000,381.400000,364.400000C381.400000,367.200000,379.100000,369.400000,376.400000,369.400000Z" fill="rgb(28,28,28)" stroke="none" stroke-width="1"/></g></g></g></g></g></g></g><path id="eu8wvnqvjuh838" d="M135,468.500000L135,189.100000C135,176.500000,145.200000,166.300000,157.800000,166.300000L176.100000,166.300000C182.400000,166.300000,187.500000,171.400000,187.500000,177.700000L187.500000,434.300000C187.500000,440.600000,182.400000,445.700000,176.100000,445.700000L157.800000,445.700000C145.200000,445.600000,135,455.900000,135,468.500000Z" fill="rgb(255,108,108)" stroke="none" stroke-width="1"/></g></g></g></g></g></g><g id="eu8wvnqvjuh839"><g id="eu8wvnqvjuh840"><g id="eu8wvnqvjuh841"><path id="eu8wvnqvjuh842" d="M496.800000,465.700000L496.800000,551.900000C496.800000,556.500000,491.600000,559.100000,487.900000,556.400000L464.500000,539.500000L441.100000,556.400000C437.400000,559.100000,432.200000,556.400000,432.200000,551.900000L432.200000,465.700000L496.800000,465.700000Z" fill="rgb(255,108,108)" stroke="none" stroke-width="1"/><g id="eu8wvnqvjuh843"><path id="eu8wvnqvjuh844" d="M496.800000,465.700000L496.800000,496.800000C488,504,476.800000,508.300000,464.600000,508.300000C452.400000,508.300000,441.200000,504,432.400000,496.800000L432.400000,465.600000L496.800000,465.600000Z" fill="rgb(255,44,44)" stroke="none" stroke-width="1"/></g></g><g id="eu8wvnqvjuh845"><circle id="eu8wvnqvjuh846" r="51" transform="matrix(1 0 0 1 464.50000000000000 438.50000000000000)" fill="rgb(255,108,108)" stroke="none" stroke-width="1"/></g><path id="eu8wvnqvjuh847" d="M525.300000,209.800000L192.500000,209.800000L192.500000,177.700000C192.500000,168.700000,185.100000,161.300000,176.100000,161.300000L157.800000,161.300000C142.500000,161.300000,130,173.800000,130,189.100000L130,471.400000C130,486.700000,142.500000,499.200000,157.800000,499.200000L400,499.200000C402.800000,499.200000,405,497,405,494.200000C405,491.400000,402.800000,489.200000,400,489.200000L157.800000,489.200000C148,489.200000,140,481.200000,140,471.400000L140,468.400000C140,458.600000,148,450.600000,157.800000,450.600000L176.100000,450.600000C185.100000,450.600000,192.500000,443.200000,192.500000,434.200000L192.500000,219.800000L525.300000,219.800000C535.100000,219.800000,543.100000,227.800000,543.100000,237.600000L543.100000,495.600000C538.300000,491.600000,532.100000,489.100000,525.300000,489.100000L501.700000,489.100000L501.700000,480.300000C513.200000,470,520.500000,455.100000,520.500000,438.500000C520.500000,407.600000,495.400000,382.500000,464.500000,382.500000C433.600000,382.500000,408.500000,407.600000,408.500000,438.500000C408.500000,469.400000,433.600000,494.500000,464.500000,494.500000C474.400000,494.500000,483.700000,491.900000,491.700000,487.400000L491.700000,551.900000C491.700000,552,491.700000,552.300000,491.400000,552.400000C491.100000,552.600000,490.900000,552.400000,490.800000,552.400000L467.400000,535.500000C465.600000,534.200000,463.300000,534.200000,461.500000,535.500000L438.200000,552.400000C438.100000,552.500000,437.900000,552.600000,437.600000,552.400000C437.300000,552.200000,437.300000,552,437.300000,551.900000L437.300000,511.200000C437.300000,508.400000,435.100000,506.200000,432.300000,506.200000C429.500000,506.200000,427.300000,508.400000,427.300000,511.200000L427.300000,551.900000C427.300000,555.900000,429.500000,559.500000,433.100000,561.300000C436.700000,563.100000,440.900000,562.800000,444.100000,560.500000L464.500000,545.700000L484.900000,560.500000C486.700000,561.800000,488.900000,562.500000,491.100000,562.500000C492.700000,562.500000,494.400000,562.100000,495.900000,561.300000C499.500000,559.500000,501.700000,555.900000,501.700000,551.900000L501.700000,548.800000L525.300000,548.800000C540.600000,548.800000,553.100000,536.300000,553.100000,521L553.100000,237.600000C553.100000,222.300000,540.700000,209.800000,525.300000,209.800000L525.300000,209.800000ZM182.500000,434.200000C182.500000,437.700000,179.600000,440.600000,176.100000,440.600000L157.800000,440.600000C151,440.600000,144.800000,443,140,447.100000L140,320.900000C140,320.900000,140,320.900000,140,320.900000L140,189.100000C140,179.300000,148,171.300000,157.800000,171.300000L176.100000,171.300000C179.600000,171.300000,182.500000,174.200000,182.500000,177.700000L182.500000,434.200000ZM418.500000,438.500000C418.500000,413.100000,439.100000,392.500000,464.500000,392.500000C489.900000,392.500000,510.500000,413.100000,510.500000,438.500000C510.500000,463.900000,489.900000,484.500000,464.500000,484.500000C439.100000,484.500000,418.500000,463.900000,418.500000,438.500000ZM543.100000,521C543.100000,530.800000,535.100000,538.800000,525.300000,538.800000L501.700000,538.800000L501.700000,499.100000L525.300000,499.100000C535.100000,499.100000,543.100000,507.100000,543.100000,516.900000L543.100000,521Z" fill="rgb(244,0,0)" stroke="none" stroke-width="1"/><g id="eu8wvnqvjuh848"><circle id="eu8wvnqvjuh849" r="35.800000" transform="matrix(1 0 0 1 464.50000000000000 438.50000000000000)" fill="rgb(255,255,255)" stroke="none" stroke-width="1"/></g></g><g id="eu8wvnqvjuh850_tr" transform="translate(464.951676,437.642106) rotate(0)"><path id="eu8wvnqvjuh850" d="M467,412.800000L472.200000,428.700000L488.900000,428.700000C491.400000,428.700000,492.400000,431.900000,490.400000,433.300000L476.900000,443.100000L482.100000,459C482.900000,461.400000,480.200000,463.300000,478.200000,461.900000L464.700000,452.100000L451.200000,461.900000C449.200000,463.400000,446.500000,461.400000,447.300000,459L452.500000,443.100000L439,433.300000C437,431.800000,438,428.700000,440.500000,428.700000L457,428.700000L462.200000,412.800000C462.900000,410.400000,466.200000,410.400000,467,412.800000L467,412.800000Z" transform="translate(-464.951676,-437.642106)" fill="rgb(244,0,0)" stroke="none" stroke-width="1"/></g></g></g><path id="eu8wvnqvjuh851" d="M445.800000,317.400000L237.400000,317.400000C231.900000,317.400000,227.400000,312.900000,227.400000,307.400000L227.400000,281.800000C227.400000,276.300000,231.900000,271.800000,237.400000,271.800000L445.700000,271.800000C451.200000,271.800000,455.700000,276.300000,455.700000,281.800000L455.700000,307.400000C455.800000,312.900000,451.300000,317.400000,445.800000,317.400000Z" fill="rgb(255,77,77)" stroke="none" stroke-width="1"/><path id="eu8wvnqvjuh852" d="M343.700000,317.400000L237.400000,317.400000C231.900000,317.400000,227.400000,312.900000,227.400000,307.400000L227.400000,281.800000C227.400000,276.300000,231.900000,271.800000,237.400000,271.800000L343.700000,271.800000C349.200000,271.800000,353.700000,276.300000,353.700000,281.800000L353.700000,307.400000C353.700000,312.900000,349.200000,317.400000,343.700000,317.400000L343.700000,317.400000Z" fill="rgb(255,44,44)" stroke="none" stroke-width="1"/><path id="eu8wvnqvjuh853" d="M292.700000,317.400000L237.400000,317.400000C231.900000,317.400000,227.400000,312.900000,227.400000,307.400000L227.400000,281.800000C227.400000,276.300000,231.900000,271.800000,237.400000,271.800000L292.700000,271.800000C298.200000,271.800000,302.700000,276.300000,302.700000,281.800000L302.700000,307.400000C302.700000,312.900000,298.200000,317.400000,292.700000,317.400000Z" fill="rgb(255,108,108)" stroke="none" stroke-width="1"/><g id="eu8wvnqvjuh854"><g id="eu8wvnqvjuh855"><g id="eu8wvnqvjuh856"><g id="eu8wvnqvjuh857"><path id="eu8wvnqvjuh858" d="M321.700000,417.100000L286,417.100000C283.200000,417.100000,281,414.900000,281,412.100000C281,409.300000,283.200000,407.100000,286,407.100000L321.700000,407.100000C324.500000,407.100000,326.700000,409.300000,326.700000,412.100000C326.700000,414.900000,324.500000,417.100000,321.700000,417.100000Z" fill="rgb(255,77,77)" stroke="none" stroke-width="1"/></g></g><g id="eu8wvnqvjuh859"><g id="eu8wvnqvjuh860"><path id="eu8wvnqvjuh861" d="M372.800000,436.300000L286,436.300000C283.200000,436.300000,281,434.100000,281,431.300000C281,428.500000,283.200000,426.300000,286,426.300000L372.700000,426.300000C375.500000,426.300000,377.700000,428.500000,377.700000,431.300000C377.700000,434.100000,375.500000,436.300000,372.800000,436.300000Z" fill="rgb(255,77,77)" stroke="none" stroke-width="1"/></g></g></g><path id="eu8wvnqvjuh862" d="M266.800000,410.500000C266.800000,401.300000,259.300000,393.900000,250.200000,393.900000C241,393.900000,233.600000,401.400000,233.600000,410.500000C233.600000,415,235.400000,419.100000,238.400000,422.100000C235.500000,425.100000,233.600000,429.200000,233.600000,433.700000C233.600000,436.500000,235.800000,438.700000,238.600000,438.700000C241.400000,438.700000,243.600000,436.500000,243.600000,433.700000C243.600000,430.100000,246.600000,427.100000,250.200000,427.100000C253.800000,427.100000,256.800000,430.100000,256.800000,433.700000C256.800000,436.500000,259,438.700000,261.800000,438.700000C264.600000,438.700000,266.800000,436.500000,266.800000,433.700000C266.800000,429.200000,265,425.100000,262,422.100000C265,419.100000,266.800000,415,266.800000,410.500000ZM250.200000,403.900000C253.800000,403.900000,256.800000,406.900000,256.800000,410.500000C256.800000,414.100000,253.800000,417.100000,250.200000,417.100000C246.600000,417.100000,243.600000,414.100000,243.600000,410.500000C243.600000,406.900000,246.600000,403.900000,250.200000,403.900000Z" fill="rgb(63,63,63)" stroke="none" stroke-width="1"/></g></g></g><g id="eu8wvnqvjuh863_to" transform="translate(519.821382,156.777025)"><g id="eu8wvnqvjuh863_ts" transform="scale(1,1)"><path id="eu8wvnqvjuh863" d="M520.500000,166.600000C519.700000,165.600000,519.300000,164.300000,519.400000,162.900000L520.100000,155.900000L513.100000,155.200000C510.400000,154.900000,508.400000,152.500000,508.600000,149.700000C508.900000,147,511.300000,145,514.100000,145.200000L526.100000,146.400000C528.800000,146.700000,530.800000,149.100000,530.600000,151.900000L529.400000,163.900000C529.100000,166.600000,526.700000,168.600000,523.900000,168.400000C522.500000,168.300000,521.300000,167.600000,520.500000,166.600000Z" transform="translate(-519.821382,-156.777025)" fill="rgb(244,0,0)" stroke="none" stroke-width="1"/></g></g></g><g id="eu8wvnqvjuh864"><g id="eu8wvnqvjuh865_to" transform="translate(0,0)"><path id="eu8wvnqvjuh865" d="M383.800000,187.500000C377.400000,187.500000,372.300000,182.400000,372.300000,176L372.300000,128.200000C372.300000,112.900000,359.800000,100.400000,344.500000,100.400000C329.200000,100.400000,316.700000,112.900000,316.700000,128.200000L316.700000,176C316.700000,182.400000,311.600000,187.500000,305.200000,187.500000C298.800000,187.500000,293.700000,182.400000,293.700000,176L293.700000,128.200000C293.700000,100.200000,316.500000,77.400000,344.500000,77.400000C372.500000,77.400000,395.300000,100.200000,395.300000,128.200000L395.300000,176C395.300000,182.400000,390.200000,187.500000,383.800000,187.500000Z" transform="translate(0,0)" fill="rgb(63,63,63)" stroke="none" stroke-width="1"/></g><g id="eu8wvnqvjuh866_to" transform="translate(0,0)"><path id="eu8wvnqvjuh866" d="M402.700000,312.500000L288,312.500000C278.600000,312.500000,270.900000,304.900000,270.900000,295.400000L270.900000,189.700000C270.900000,180.300000,278.500000,172.600000,288,172.600000L402.700000,172.600000C412.100000,172.600000,419.800000,180.200000,419.800000,189.700000L419.800000,295.400000C419.700000,304.800000,412.100000,312.500000,402.700000,312.500000Z" transform="translate(0,0)" opacity="0.48" fill="rgb(63,63,63)" stroke="none" stroke-width="1"/></g><g id="eu8wvnqvjuh867_to" transform="translate(0,0)"><path id="eu8wvnqvjuh867" d="M401.900000,297.600000L287.200000,297.600000C277.800000,297.600000,270.100000,290,270.100000,280.500000L270.100000,174.800000C270.100000,165.400000,277.700000,157.700000,287.200000,157.700000L401.900000,157.700000C411.300000,157.700000,419,165.300000,419,174.800000L419,280.500000C419,290,411.300000,297.600000,401.900000,297.600000Z" transform="translate(0,0)" fill="rgb(255,77,77)" stroke="none" stroke-width="1"/></g><g id="eu8wvnqvjuh868_to" transform="translate(0,0)"><path id="eu8wvnqvjuh868" d="M419,174.800000L419,280.500000C419,289.900000,411.400000,297.600000,401.900000,297.600000L385.200000,297.600000C394.600000,297.600000,402.300000,290,402.300000,280.500000L402.300000,174.800000C402.300000,165.400000,394.700000,157.700000,385.200000,157.700000L401.900000,157.700000C411.300000,157.800000,419,165.400000,419,174.800000Z" transform="translate(0,0)" opacity="0.46" fill="rgb(255,255,255)" stroke="none" stroke-width="1"/></g><g id="eu8wvnqvjuh869_to" transform="translate(0,0)"><path id="eu8wvnqvjuh869" d="M340.300000,198.200000L329.300000,220.400000C327.100000,224.800000,327.100000,229.900000,329.300000,234.300000L340.300000,256.500000C342,260,347,260,348.800000,256.500000L359.800000,234.300000C362,229.900000,362,224.800000,359.800000,220.400000L348.800000,198.200000C347.100000,194.700000,342.100000,194.700000,340.300000,198.200000L340.300000,198.200000Z" transform="translate(0,0)" fill="rgb(255,255,255)" stroke="none" stroke-width="1"/></g><g id="eu8wvnqvjuh870"><g id="eu8wvnqvjuh871_to" transform="translate(0,0)"><path id="eu8wvnqvjuh871" d="M419,201.800000C416.200000,201.800000,414,204,414,206.800000L414,280.600000C414,287.300000,408.600000,292.700000,401.900000,292.700000L287.200000,292.700000C280.500000,292.700000,275.100000,287.300000,275.100000,280.600000L275.100000,174.800000C275.100000,168.100000,280.500000,162.700000,287.200000,162.700000L401.900000,162.700000C408.600000,162.700000,414,168.100000,414,174.800000L414,178.600000C414,181.400000,416.200000,183.600000,419,183.600000L424,183.600000L424,173.500000C423.300000,161.900000,413.700000,152.700000,402,152.700000L400.400000,152.700000L400.400000,128.100000C400.400000,97.400000,375.400000,72.300000,344.600000,72.300000C313.800000,72.300000,288.800000,97.300000,288.800000,128.100000L288.800000,152.700000L287.200000,152.700000C275.400000,152.700000,265.800000,162,265.200000,173.600000L265.200000,173.600000L265.200000,183.600000L265.200000,183.600000L265.200000,280.500000C265.200000,292.700000,275.100000,302.600000,287.300000,302.600000L402,302.600000C414.200000,302.600000,424.100000,292.700000,424.100000,280.500000L424.100000,206.700000C424,204,421.700000,201.800000,419,201.800000ZM367.300000,152.800000L321.800000,152.800000L321.800000,128.200000C321.800000,115.700000,332,105.400000,344.600000,105.400000C357.200000,105.400000,367.400000,115.600000,367.400000,128.200000L367.400000,152.800000ZM298.800000,128.200000C298.800000,103,319.300000,82.400000,344.600000,82.400000C369.900000,82.400000,390.400000,102.900000,390.400000,128.200000L390.400000,152.800000L377.400000,152.800000L377.400000,128.200000C377.400000,110.100000,362.700000,95.400000,344.600000,95.400000C326.500000,95.400000,311.800000,110.100000,311.800000,128.200000L311.800000,152.800000L298.800000,152.800000L298.800000,128.200000Z" transform="translate(0,0)" fill="rgb(244,0,0)" stroke="none" stroke-width="1"/></g><g id="eu8wvnqvjuh872_to" transform="translate(0,0)"><path id="eu8wvnqvjuh872" d="M353.300000,196C351.600000,192.700000,348.300000,190.600000,344.600000,190.600000C340.900000,190.600000,337.500000,192.700000,335.900000,196L324.900000,218.200000C322.100000,223.900000,322.100000,230.800000,324.900000,236.500000L335.900000,258.700000C337.600000,262,340.900000,264.100000,344.600000,264.100000C348.300000,264.100000,351.700000,262,353.300000,258.700000L364.300000,236.500000C367.100000,230.800000,367.100000,223.900000,364.300000,218.200000L353.300000,196ZM344.800000,200.400000C344.800000,200.400000,344.800000,200.400000,344.800000,200.400000L340.300000,198.200000L344.800000,200.400000ZM355.300000,232.100000L344.500000,253.800000L333.700000,232.100000C332.200000,229.100000,332.200000,225.600000,333.700000,222.700000L344.500000,201L355.300000,222.700000C356.800000,225.600000,356.800000,229.100000,355.300000,232.100000Z" transform="translate(0,0)" fill="rgb(63,63,63)" stroke="none" stroke-width="1"/></g></g></g></svg>