<svg id="ek60e6fimvoe1" xmlns="http://www.w3.org/2000/svg" xmlns:xlink="http://www.w3.org/1999/xlink" viewBox="0 0 599.900000 587.800000" shape-rendering="geometricPrecision" text-rendering="geometricPrecision"><style><![CDATA[#ek60e6fimvoe4_ts {animation: ek60e6fimvoe4_ts__ts 3000ms linear infinite normal forwards}@keyframes ek60e6fimvoe4_ts__ts { 0% {transform: translate(302.377080px,294.162125px) scale(1,1)} 20% {transform: translate(302.377080px,294.162125px) scale(1.137405,1.084291)} 43.333333% {transform: translate(302.377080px,294.162125px) scale(1.079766,0.877395)} 60% {transform: translate(302.377080px,294.162125px) scale(1.140172,1.134562)} 100% {transform: translate(302.377080px,294.162125px) scale(1,1)} }#ek60e6fimvoe7_to {animation: ek60e6fimvoe7_to__to 3000ms linear infinite normal forwards}@keyframes ek60e6fimvoe7_to__to { 0% {transform: translate(0px,0px)} 16.666667% {transform: translate(0px,3.321061px)} 33.333333% {transform: translate(0px,-9.678939px)} 50% {transform: translate(0px,1.628316px)} 66.666667% {transform: translate(0px,-18.371684px)} 100% {transform: translate(0px,0px)} }#ek60e6fimvoe8_to {animation: ek60e6fimvoe8_to__to 3000ms linear infinite normal forwards}@keyframes ek60e6fimvoe8_to__to { 0% {transform: translate(0px,0px)} 16.666667% {transform: translate(0px,3.321061px)} 33.333333% {transform: translate(0px,-9.678939px)} 50% {transform: translate(0px,1.628316px)} 66.666667% {transform: translate(0px,-18.371684px)} 100% {transform: translate(0px,0px)} }#ek60e6fimvoe11_to {animation: ek60e6fimvoe11_to__to 3000ms linear infinite normal forwards}@keyframes ek60e6fimvoe11_to__to { 0% {transform: translate(0px,0px)} 20% {transform: translate(0px,0px)} 43.333333% {transform: translate(0.177568px,-61.162422px)} 63.333333% {transform: translate(0px,0px)} 80% {transform: translate(0.177568px,-61.162422px)} 100% {transform: translate(0px,0px)} }#ek60e6fimvoe17_to {animation: ek60e6fimvoe17_to__to 3000ms linear infinite normal forwards}@keyframes ek60e6fimvoe17_to__to { 0% {transform: translate(0px,0px)} 16.666667% {transform: translate(0px,13px)} 33.333333% {transform: translate(0px,0px)} 50% {transform: translate(0px,7px)} 66.666667% {transform: translate(0px,-1px)} 100% {transform: translate(0px,0px)} }#ek60e6fimvoe24_to {animation: ek60e6fimvoe24_to__to 3000ms linear infinite normal forwards}@keyframes ek60e6fimvoe24_to__to { 0% {transform: translate(0px,0px)} 23.333333% {transform: translate(0px,-43.777988px)} 53.333333% {transform: translate(0px,0px)} 73.333333% {transform: translate(-0.847392px,44.911787px)} 100% {transform: translate(0px,0px)} }#ek60e6fimvoe27_to {animation: ek60e6fimvoe27_to__to 3000ms linear infinite normal forwards}@keyframes ek60e6fimvoe27_to__to { 0% {transform: translate(0px,0px)} 23.333333% {transform: translate(0px,-43.777988px)} 53.333333% {transform: translate(0px,0px)} 73.333333% {transform: translate(-0.847392px,44.911787px)} 100% {transform: translate(0px,0px)} }#ek60e6fimvoe28_to {animation: ek60e6fimvoe28_to__to 3000ms linear infinite normal forwards}@keyframes ek60e6fimvoe28_to__to { 0% {transform: translate(0px,0px)} 23.333333% {transform: translate(0px,-43.777988px)} 53.333333% {transform: translate(0px,0px)} 73.333333% {transform: translate(-0.847392px,44.911787px)} 100% {transform: translate(0px,0px)} }#ek60e6fimvoe30_to {animation: ek60e6fimvoe30_to__to 3000ms linear infinite normal forwards}@keyframes ek60e6fimvoe30_to__to { 0% {transform: translate(0px,0px)} 23.333333% {transform: translate(0px,-43.777988px)} 53.333333% {transform: translate(0px,0px)} 73.333333% {transform: translate(-0.847392px,44.911787px)} 100% {transform: translate(0px,0px)} }#ek60e6fimvoe32_to {animation: ek60e6fimvoe32_to__to 3000ms linear infinite normal forwards}@keyframes ek60e6fimvoe32_to__to { 0% {transform: translate(0px,0px)} 23.333333% {transform: translate(0px,-43.777988px)} 53.333333% {transform: translate(0px,0px)} 73.333333% {transform: translate(-0.847392px,44.911787px)} 100% {transform: translate(0px,0px)} }#ek60e6fimvoe35_to {animation: ek60e6fimvoe35_to__to 3000ms linear infinite normal forwards}@keyframes ek60e6fimvoe35_to__to { 0% {transform: translate(0px,0px)} 20% {transform: translate(0px,0px)} 43.333333% {transform: translate(0.177568px,-61.162422px)} 63.333333% {transform: translate(0px,0px)} 80% {transform: translate(0.177568px,-61.162422px)} 100% {transform: translate(0px,0px)} }#ek60e6fimvoe36_to {animation: ek60e6fimvoe36_to__to 3000ms linear infinite normal forwards}@keyframes ek60e6fimvoe36_to__to { 0% {transform: translate(0px,0px)} 20% {transform: translate(0px,0px)} 43.333333% {transform: translate(0.177568px,-61.162422px)} 63.333333% {transform: translate(0px,0px)} 80% {transform: translate(0.177568px,-61.162422px)} 100% {transform: translate(0px,0px)} }#ek60e6fimvoe38_to {animation: ek60e6fimvoe38_to__to 3000ms linear infinite normal forwards}@keyframes ek60e6fimvoe38_to__to { 0% {transform: translate(0px,0px)} 20% {transform: translate(0px,0px)} 43.333333% {transform: translate(0.177568px,-61.162422px)} 63.333333% {transform: translate(0px,0px)} 80% {transform: translate(0.177568px,-61.162422px)} 100% {transform: translate(0px,0px)} }#ek60e6fimvoe40_to {animation: ek60e6fimvoe40_to__to 3000ms linear infinite normal forwards}@keyframes ek60e6fimvoe40_to__to { 0% {transform: translate(0px,0px)} 20% {transform: translate(0px,0px)} 43.333333% {transform: translate(0.177568px,-61.162422px)} 63.333333% {transform: translate(0px,0px)} 80% {transform: translate(0.177568px,-61.162422px)} 100% {transform: translate(0px,0px)} }#ek60e6fimvoe53_to {animation: ek60e6fimvoe53_to__to 3000ms linear infinite normal forwards}@keyframes ek60e6fimvoe53_to__to { 0% {transform: translate(252.441249px,106.112659px)} 36.666667% {transform: translate(300.289022px,48.011792px)} 70% {transform: translate(252.441249px,106.112659px)} 100% {transform: translate(252.441249px,106.112659px)} }#ek60e6fimvoe53_ts {animation: ek60e6fimvoe53_ts__ts 3000ms linear infinite normal forwards}@keyframes ek60e6fimvoe53_ts__ts { 0% {transform: scale(1,1)} 36.666667% {transform: scale(1.750144,1.750144)} 70% {transform: scale(1,1)} 100% {transform: scale(1,1)} }#ek60e6fimvoe54_ts {animation: ek60e6fimvoe54_ts__ts 3000ms linear infinite normal forwards}@keyframes ek60e6fimvoe54_ts__ts { 0% {transform: translate(485.085868px,151.395190px) scale(1,1)} 46.666667% {transform: translate(485.085868px,151.395190px) scale(2.315206,2.315206)} 86.666667% {transform: translate(485.085868px,151.395190px) scale(1,1)} 100% {transform: translate(485.085868px,151.395190px) scale(1,1)} }#ek60e6fimvoe58_to {animation: ek60e6fimvoe58_to__to 3000ms linear infinite normal forwards}@keyframes ek60e6fimvoe58_to__to { 0% {transform: translate(115.043988px,317.658836px)} 20% {transform: translate(76.044271px,273.432353px)} 50% {transform: translate(115.043988px,317.658836px)} 73.333333% {transform: translate(82.477215px,302.380597px)} 93.333333% {transform: translate(115.043988px,317.658836px)} 100% {transform: translate(115.043988px,317.658836px)} }#ek60e6fimvoe58_ts {animation: ek60e6fimvoe58_ts__ts 3000ms linear infinite normal forwards}@keyframes ek60e6fimvoe58_ts__ts { 0% {transform: scale(1,1)} 20% {transform: scale(2.524833,2.524833)} 50% {transform: scale(1,1)} 73.333333% {transform: scale(1.939762,1.939762)} 93.333333% {transform: scale(1,1)} 100% {transform: scale(1,1)} }]]></style><g id="ek60e6fimvoe2"><g id="ek60e6fimvoe3"><g id="ek60e6fimvoe4_ts" transform="translate(302.377080,294.162125) scale(1,1)"><path id="ek60e6fimvoe4" d="M504.400000,67C440.600000,29,358.100000,31.100000,295.500000,70C260.300000,91.900000,233.100000,123.400000,202.300000,150.600000C175.300000,174.400000,143.900000,191.400000,115.900000,213.800000C14.700000,295.200000,24.300000,514.800000,166.900000,543.900000C228.700000,556.500000,313.100000,560.600000,349.400000,500.300000C384,442.800000,395.600000,383.900000,463.300000,353.400000C486.900000,342.800000,526.300000,343.300000,542.200000,319.900000C562.400000,290.500000,537.300000,259.900000,524,234.200000C506.800000,201.100000,503.200000,168.500000,515.300000,133C525.700000,102.900000,532.900000,89.300000,504.400000,67L504.400000,67Z" transform="translate(-302.377080,-294.162125)" opacity="0.15" fill="rgb(104,104,104)" stroke="none" stroke-width="1"/></g></g><g id="ek60e6fimvoe5"><g id="ek60e6fimvoe6"><g id="ek60e6fimvoe7_to" transform="translate(0,0)"><path id="ek60e6fimvoe7" d="M392.100000,204.900000L345.300000,204.900000C340,204.900000,335.700000,200.600000,335.700000,195.300000L335.700000,149.200000C335.700000,143.900000,340,139.600000,345.300000,139.600000L392.100000,139.600000C397.400000,139.600000,401.700000,143.900000,401.700000,149.200000L401.700000,195.300000C401.700000,200.600000,397.400000,204.900000,392.100000,204.900000Z" transform="translate(0,0)" fill="rgb(255,77,77)" stroke="none" stroke-width="1"/></g><g id="ek60e6fimvoe8_to" transform="translate(0,0)"><path id="ek60e6fimvoe8" d="M392.100000,209.900000L345.300000,209.900000C337.200000,209.900000,330.700000,203.300000,330.700000,195.300000L330.700000,149.200000C330.700000,141.100000,337.300000,134.600000,345.300000,134.600000L392.100000,134.600000C400.200000,134.600000,406.700000,141.200000,406.700000,149.200000L406.700000,195.300000C406.700000,203.300000,400.100000,209.900000,392.100000,209.900000ZM345.200000,144.500000C342.700000,144.500000,340.600000,146.600000,340.600000,149.100000L340.600000,195.200000C340.600000,197.700000,342.700000,199.800000,345.200000,199.800000L392,199.800000C394.500000,199.800000,396.600000,197.700000,396.600000,195.200000L396.600000,149.100000C396.600000,146.600000,394.500000,144.500000,392,144.500000L345.200000,144.500000Z" transform="translate(0,0)" fill="rgb(244,0,0)" stroke="none" stroke-width="1"/></g></g><g id="ek60e6fimvoe9"><path id="ek60e6fimvoe10" d="M367.800000,152.300000L367.800000,156.800000L304.200000,156.800000L304.200000,142.300000L357.800000,142.300000C359.600000,142.300000,361.300000,142.800000,362.800000,143.600000C365.800000,145.300000,367.800000,148.600000,367.800000,152.300000Z" opacity="0.1" fill="rgb(0,0,204)" stroke="none" stroke-width="1"/><g id="ek60e6fimvoe11_to" transform="translate(0,0)"><path id="ek60e6fimvoe11" d="M248.400000,189.800000L190.400000,126.300000C189.200000,125,187.200000,125,186,126.300000L128,189.800000C126.200000,191.700000,127.600000,194.800000,130.200000,194.800000L155,194.800000L155,471.900000L221.400000,471.900000L221.400000,194.800000L246.100000,194.800000C248.800000,194.800000,250.200000,191.700000,248.400000,189.800000L248.400000,189.800000Z" transform="translate(0,0)" fill="rgb(255,255,255)" stroke="rgb(244,0,0)" stroke-width="10" stroke-miterlimit="10"/></g><path id="ek60e6fimvoe12" d="M475.200000,471.400000C474.500000,471.600000,473.700000,471.700000,473,471.700000L125.500000,471.700000C124.700000,471.700000,124,471.600000,123.300000,471.400000C116.600000,469.900000,113.100000,461.900000,117.300000,455.900000L154.100000,403.500000L189.800000,352.600000L198.200000,340.600000L201.100000,336.400000L201.100000,336.400000L207.200000,327.700000L211.400000,321.700000L218.900000,311L220.400000,308.900000L224.100000,303.600000C224.400000,303.200000,224.600000,302.900000,224.900000,302.500000C225.200000,302.100000,225.400000,301.800000,225.700000,301.400000C226,301,226.300000,300.700000,226.500000,300.400000C226.900000,299.900000,227.300000,299.400000,227.800000,299C228,298.800000,228.100000,298.600000,228.300000,298.500000C228.600000,298.200000,228.900000,297.900000,229.200000,297.500000C229.500000,297.200000,229.800000,296.900000,230.100000,296.700000C230.500000,296.400000,230.800000,296,231.200000,295.700000C231.500000,295.400000,231.800000,295.200000,232.200000,294.900000C232.500000,294.600000,232.900000,294.400000,233.200000,294.100000C233.500000,293.800000,233.900000,293.600000,234.200000,293.300000C234.600000,293,234.900000,292.800000,235.300000,292.500000C235.600000,292.300000,235.800000,292.200000,236.100000,292C236.200000,291.900000,236.400000,291.800000,236.500000,291.700000C236.800000,291.500000,237.200000,291.300000,237.500000,291.100000C238.600000,290.400000,239.800000,289.800000,241,289.200000L241,289.200000C241.400000,289,241.800000,288.800000,242.200000,288.600000C243.300000,288.100000,244.300000,287.700000,245.400000,287.300000C245.700000,287.200000,246.100000,287.100000,246.400000,287C246.600000,286.900000,246.900000,286.800000,247.100000,286.800000C247.200000,286.800000,247.400000,286.700000,247.500000,286.700000C247.900000,286.600000,248.300000,286.500000,248.600000,286.400000C248.700000,286.400000,248.700000,286.400000,248.800000,286.300000C248.800000,286.300000,248.800000,286.300000,248.800000,286.300000C249.900000,286,250.900000,285.800000,252,285.600000C252.400000,285.500000,252.800000,285.500000,253.200000,285.400000C253.600000,285.300000,254,285.300000,254.400000,285.200000C254.700000,285.200000,255.100000,285.100000,255.400000,285.100000C255.500000,285.100000,255.500000,285.100000,255.500000,285.100000C255.500000,285.100000,255.500000,285.100000,255.500000,285.100000C257,285,258.500000,284.900000,260,284.900000L337.700000,284.900000C352.100000,284.900000,365.600000,291.900000,373.800000,303.700000L375.600000,306.300000L378.500000,310.500000L385.100000,319.900000L390.700000,327.900000L397.600000,337.700000L397.600000,337.700000L404,346.900000L404,346.900000L438.900000,396.600000L443.900000,403.700000L480.700000,456.100000C485.300000,461.900000,481.900000,469.900000,475.200000,471.400000Z" fill="rgb(63,63,63)" stroke="none" stroke-width="1"/><path id="ek60e6fimvoe13" d="M444.400000,403.500000L444.400000,471.600000L378,471.600000L378,362.600000L353.200000,362.600000C350.600000,362.600000,349.200000,359.500000,351,357.600000L385.600000,319.700000L444.400000,403.500000Z" fill="rgb(30,30,30)" stroke="none" stroke-width="1"/><path id="ek60e6fimvoe14" d="M284.500000,330.200000C284.500000,357.800000,262.100000,380.200000,234.500000,380.200000C214.900000,380.200000,198,369,189.800000,352.600000L224.200000,303.500000C231.600000,293,243.100000,286.200000,255.800000,285C272.800000,292.900000,284.500000,310.200000,284.500000,330.200000Z" fill="rgb(30,30,30)" stroke="none" stroke-width="1"/><path id="ek60e6fimvoe15" d="M391.200000,327.600000L207.300000,327.600000L211.500000,321.600000L219,310.900000L220.500000,308.800000L224.200000,303.500000C224.500000,303.100000,224.700000,302.800000,225,302.400000C225.300000,302,225.500000,301.700000,225.800000,301.300000C226.100000,300.900000,226.400000,300.600000,226.600000,300.300000C227,299.800000,227.400000,299.300000,227.900000,298.900000C228.100000,298.700000,228.200000,298.500000,228.400000,298.400000C228.700000,298.100000,229,297.800000,229.300000,297.400000C229.600000,297.100000,229.900000,296.800000,230.200000,296.600000C230.600000,296.300000,230.900000,295.900000,231.300000,295.600000C231.600000,295.300000,231.900000,295.100000,232.300000,294.800000C232.600000,294.500000,233,294.300000,233.300000,294C233.600000,293.700000,234,293.500000,234.300000,293.200000C234.700000,292.900000,235,292.700000,235.400000,292.400000C235.700000,292.200000,235.900000,292.100000,236.200000,291.900000C236.300000,291.800000,236.500000,291.700000,236.600000,291.600000C236.900000,291.400000,237.300000,291.200000,237.600000,291C238.700000,290.300000,239.900000,289.700000,241.100000,289.100000L241.100000,289.100000C241.500000,288.900000,241.900000,288.700000,242.300000,288.500000C243.400000,288,244.400000,287.600000,245.500000,287.200000C245.800000,287.100000,246.200000,287,246.500000,286.900000C246.700000,286.800000,247,286.700000,247.200000,286.700000C247.300000,286.700000,247.500000,286.600000,247.600000,286.600000C248,286.500000,248.400000,286.400000,248.700000,286.300000C248.800000,286.300000,248.800000,286.300000,248.900000,286.200000C248.900000,286.200000,248.900000,286.200000,248.900000,286.200000C250,285.900000,251,285.700000,252.100000,285.500000C252.500000,285.400000,252.900000,285.400000,253.300000,285.300000C253.700000,285.200000,254.100000,285.200000,254.500000,285.100000C254.800000,285.100000,255.200000,285,255.500000,285C255.600000,285,255.600000,285,255.600000,285C255.600000,285,255.600000,285,255.600000,285C257.100000,284.900000,258.600000,284.800000,260.100000,284.800000L337.800000,284.800000C352.200000,284.800000,365.700000,291.800000,373.900000,303.600000L375.700000,306.200000L378.600000,310.400000L385.200000,319.800000L391.200000,327.600000Z" fill="rgb(30,30,30)" stroke="none" stroke-width="1"/><g id="ek60e6fimvoe16"><g id="ek60e6fimvoe17_to" transform="translate(0,0)"><path id="ek60e6fimvoe17" d="M364.300000,129.400000L364.300000,173.700000C364.300000,179.200000,359.800000,183.700000,354.300000,183.700000L300.700000,183.700000L300.700000,119.400000L354.300000,119.400000C359.800000,119.400000,364.300000,123.900000,364.300000,129.400000Z" transform="translate(0,0)" fill="rgb(255,77,77)" stroke="rgb(244,0,0)" stroke-width="10" stroke-miterlimit="10"/></g></g><polygon id="ek60e6fimvoe18" points="449.400000,401.900000 449.400000,419.400000 439.400000,405.100000 375.500000,314.100000 369.600000,305.700000 376.500000,298.200000 382.400000,306.600000 439.400000,387.700000" fill="rgb(244,0,0)" stroke="none" stroke-width="1"/><g id="ek60e6fimvoe19"><g id="ek60e6fimvoe20"><circle id="ek60e6fimvoe21" r="50" transform="matrix(1 0 0 1 234.50000000000000 306.19999999999999)" fill="rgb(255,77,77)" stroke="none" stroke-width="1"/><path id="ek60e6fimvoe22" d="M274.100000,327.600000C266.500000,341.600000,251.600000,351.100000,234.600000,351.100000C229.700000,351.100000,225,350.300000,220.600000,348.900000L220.600000,359.300000C225.100000,360.500000,229.800000,361.100000,234.600000,361.100000C256.800000,361.100000,275.900000,347.900000,284.600000,329C284.800000,328.500000,285,328,285.200000,327.500000L274.100000,327.500000ZM485.200000,453L449.400000,401.900000L439.400000,387.700000L439.400000,405.100000L449.400000,419.400000L477.100000,458.800000C477.700000,459.700000,478,460.700000,478,461.700000C478,462.500000,477.800000,463.300000,477.400000,464C476.500000,465.700000,474.900000,466.700000,473,466.700000L125.500000,466.700000C123.600000,466.700000,121.900000,465.700000,121.100000,464C120.300000,462.300000,120.300000,460.400000,121.500000,458.800000L154.200000,412.200000L192.700000,357.300000L199.200000,348.100000C205.400000,353.300000,212.700000,357.200000,220.700000,359.300000C225.200000,360.500000,229.900000,361.100000,234.700000,361.100000C256.900000,361.100000,276,347.900000,284.700000,329C284.900000,328.500000,285.100000,328,285.300000,327.500000C287.800000,321.600000,289.300000,315.200000,289.600000,308.600000C289.600000,307.800000,289.700000,306.900000,289.700000,306.100000C289.700000,300.400000,288.800000,294.800000,287.200000,289.600000L338.300000,289.600000C350.800000,289.600000,362.500000,295.600000,369.800000,305.600000L375.700000,314L379.200000,310.200000L382.600000,306.500000L376.700000,298.100000C367.400000,286.500000,353.300000,279.600000,338.300000,279.600000L304.400000,279.600000L304.400000,284.600000L294.400000,284.600000L294.400000,279.600000L282.900000,279.600000C273.500000,262.600000,255.400000,251.100000,234.700000,251.100000C229.900000,251.100000,225.200000,251.700000,220.700000,252.900000C197.100000,259.100000,179.700000,280.600000,179.700000,306.100000C179.700000,319.300000,184.400000,331.300000,192.100000,340.800000L159.300000,387.600000L149.300000,401.900000L113.200000,453C110,457.600000,109.600000,463.600000,112.200000,468.500000C114,471.900000,116.800000,474.400000,120.300000,475.600000C122,476.200000,123.700000,476.500000,125.600000,476.500000L473,476.500000C474.800000,476.500000,476.600000,476.200000,478.300000,475.600000C481.700000,474.300000,484.600000,471.800000,486.400000,468.500000C488.800000,463.600000,488.500000,457.600000,485.200000,453ZM189.500000,306.200000C189.500000,286.300000,202.500000,269.300000,220.500000,263.400000C224.900000,261.900000,229.600000,261.200000,234.500000,261.200000C251.500000,261.200000,266.400000,270.700000,274,284.700000C277.500000,291.100000,279.500000,298.400000,279.500000,306.200000C279.500000,306.900000,279.500000,307.600000,279.500000,308.300000C279.200000,315.300000,277.300000,321.900000,274.100000,327.700000C266.500000,341.700000,251.600000,351.200000,234.600000,351.200000C229.700000,351.200000,225,350.400000,220.600000,349C213.100000,346.500000,206.500000,342.200000,201.300000,336.400000L201.300000,336.400000C194,328.400000,189.500000,317.800000,189.500000,306.200000Z" fill="rgb(244,0,0)" stroke="none" stroke-width="1"/><path id="ek60e6fimvoe23" d="M304.200000,106.400000L304.200000,284.700000L294.200000,284.700000L294.200000,106.400000C294.200000,103.600000,296.400000,101.400000,299.200000,101.400000C302,101.400000,304.200000,103.600000,304.200000,106.400000Z" fill="rgb(244,0,0)" stroke="none" stroke-width="1"/></g></g><g id="ek60e6fimvoe24_to" transform="translate(0,0)"><path id="ek60e6fimvoe24" d="M471.100000,332.300000L413.100000,268.800000C411.900000,267.500000,409.900000,267.500000,408.700000,268.800000L350.700000,332.300000C348.900000,334.200000,350.300000,337.300000,352.900000,337.300000L377.600000,337.300000L377.600000,470.400000L444,470.400000L444,337.300000L468.700000,337.300000C471.500000,337.300000,472.800000,334.200000,471.100000,332.300000Z" transform="translate(0,0)" fill="rgb(255,255,255)" stroke="rgb(244,0,0)" stroke-width="10" stroke-miterlimit="10"/></g><g id="ek60e6fimvoe25"><g id="ek60e6fimvoe26"><g id="ek60e6fimvoe27_to" transform="translate(0,0)"><path id="ek60e6fimvoe27" d="M396.100000,341.800000C396.100000,338.700000,398.600000,336.200000,401.700000,336.200000L401.800000,336.200000C404.900000,336.200000,407.400000,338.700000,407.400000,341.800000C407.400000,344.900000,404.900000,347.400000,401.800000,347.400000L401.700000,347.400000C398.600000,347.400000,396.100000,344.900000,396.100000,341.800000Z" transform="translate(0,0)" fill="rgb(244,0,0)" stroke="none" stroke-width="1"/></g></g><g id="ek60e6fimvoe28_to" transform="translate(0,0)"><path id="ek60e6fimvoe28" d="M420.600000,336.200000C423.700000,336.200000,426.200000,338.700000,426.200000,341.800000C426.200000,344.900000,423.700000,347.400000,420.600000,347.400000L420.500000,347.400000C417.400000,347.400000,414.900000,344.900000,414.900000,341.800000C414.900000,338.700000,417.400000,336.200000,420.500000,336.200000L420.600000,336.200000Z" transform="translate(0,0)" fill="rgb(244,0,0)" stroke="none" stroke-width="1"/></g><g id="ek60e6fimvoe29"><g id="ek60e6fimvoe30_to" transform="translate(0,0)"><path id="ek60e6fimvoe30" d="M396.100000,361.800000C396.100000,358.700000,398.600000,356.200000,401.700000,356.200000L401.800000,356.200000C404.900000,356.200000,407.400000,358.700000,407.400000,361.800000C407.400000,364.900000,404.900000,367.400000,401.800000,367.400000L401.700000,367.400000C398.600000,367.400000,396.100000,364.900000,396.100000,361.800000Z" transform="translate(0,0)" fill="rgb(30,30,30)" stroke="none" stroke-width="1"/></g></g><g id="ek60e6fimvoe31"><g id="ek60e6fimvoe32_to" transform="translate(0,0)"><path id="ek60e6fimvoe32" d="M396.100000,381.800000C396.100000,378.700000,398.600000,376.200000,401.700000,376.200000L401.800000,376.200000C404.900000,376.200000,407.400000,378.700000,407.400000,381.800000C407.400000,384.900000,404.900000,387.400000,401.800000,387.400000L401.700000,387.400000C398.600000,387.400000,396.100000,384.900000,396.100000,381.800000Z" transform="translate(0,0)" fill="rgb(30,30,30)" stroke="none" stroke-width="1"/></g></g></g><g id="ek60e6fimvoe33"><g id="ek60e6fimvoe34"><g id="ek60e6fimvoe35_to" transform="translate(0,0)"><path id="ek60e6fimvoe35" d="M174.800000,195.800000C174.800000,192.700000,177.300000,190.200000,180.400000,190.200000L180.500000,190.200000C183.600000,190.200000,186.100000,192.700000,186.100000,195.800000C186.100000,198.900000,183.600000,201.400000,180.500000,201.400000L180.400000,201.400000C177.300000,201.400000,174.800000,198.900000,174.800000,195.800000Z" transform="translate(0,0)" fill="rgb(244,0,0)" stroke="none" stroke-width="1"/></g></g><g id="ek60e6fimvoe36_to" transform="translate(0,0)"><path id="ek60e6fimvoe36" d="M199.300000,190.200000C202.400000,190.200000,204.900000,192.700000,204.900000,195.800000C204.900000,198.900000,202.400000,201.400000,199.300000,201.400000L199.200000,201.400000C196.100000,201.400000,193.600000,198.900000,193.600000,195.800000C193.600000,192.700000,196.100000,190.200000,199.200000,190.200000L199.300000,190.200000Z" transform="translate(0,0)" fill="rgb(30,30,30)" stroke="none" stroke-width="1"/></g><g id="ek60e6fimvoe37"><g id="ek60e6fimvoe38_to" transform="translate(0,0)"><path id="ek60e6fimvoe38" d="M174.800000,215.800000C174.800000,212.700000,177.300000,210.200000,180.400000,210.200000L180.500000,210.200000C183.600000,210.200000,186.100000,212.700000,186.100000,215.800000C186.100000,218.900000,183.600000,221.400000,180.500000,221.400000L180.400000,221.400000C177.300000,221.400000,174.800000,218.900000,174.800000,215.800000Z" transform="translate(0,0)" fill="rgb(30,30,30)" stroke="none" stroke-width="1"/></g></g><g id="ek60e6fimvoe39"><g id="ek60e6fimvoe40_to" transform="translate(0,0)"><path id="ek60e6fimvoe40" d="M174.800000,235.800000C174.800000,232.700000,177.300000,230.200000,180.400000,230.200000L180.500000,230.200000C183.600000,230.200000,186.100000,232.700000,186.100000,235.800000C186.100000,238.900000,183.600000,241.400000,180.500000,241.400000L180.400000,241.400000C177.300000,241.400000,174.800000,238.900000,174.800000,235.800000Z" transform="translate(0,0)" fill="rgb(244,0,0)" stroke="none" stroke-width="1"/></g></g></g><g id="ek60e6fimvoe41"><circle id="ek60e6fimvoe42" r="47.700000" transform="matrix(1 0 0 1 299.19999999999999 410.39999999999998)" fill="rgb(255,108,108)" stroke="none" stroke-width="1"/><path id="ek60e6fimvoe43" d="M314.600000,427.800000L294.100000,427.800000C294.800000,426.200000,295.100000,424.500000,295.100000,422.800000L295.100000,415.800000L302.200000,415.800000C305,415.800000,307.200000,413.600000,307.200000,410.800000C307.200000,408,305,405.800000,302.200000,405.800000L295.100000,405.800000L295.100000,398.800000C295.100000,395.500000,297.800000,392.900000,301,392.900000C304.200000,392.900000,306.900000,395.600000,306.900000,398.800000C306.900000,401.600000,309.100000,403.800000,311.900000,403.800000C314.700000,403.800000,316.900000,401.600000,316.900000,398.800000C316.900000,390,309.800000,382.900000,301,382.900000C292.200000,382.900000,285.100000,390,285.100000,398.800000L285.100000,405.800000L283.800000,405.800000C281,405.800000,278.800000,408,278.800000,410.800000C278.800000,413.600000,281,415.800000,283.800000,415.800000L285.100000,415.800000L285.100000,422.800000C285.100000,423.600000,284.800000,424.400000,284.200000,424.900000C282,427.100000,281.400000,430.300000,282.600000,433.100000C283.800000,435.900000,286.500000,437.800000,289.600000,437.800000L314.600000,437.800000C317.400000,437.800000,319.600000,435.600000,319.600000,432.800000C319.600000,430,317.400000,427.800000,314.600000,427.800000L314.600000,427.800000Z" fill="rgb(255,255,255)" stroke="none" stroke-width="1"/></g><g id="ek60e6fimvoe44"><g id="ek60e6fimvoe45"><g id="ek60e6fimvoe46"><path id="ek60e6fimvoe47" d="M185.400000,441.300000L222.900000,441.300000C225.700000,441.300000,227.900000,439.100000,227.900000,436.300000C227.900000,433.500000,225.700000,431.300000,222.900000,431.300000L185.400000,431.300000C182.600000,431.300000,180.400000,433.500000,180.400000,436.300000C180.400000,439.100000,182.700000,441.300000,185.400000,441.300000Z" fill="rgb(255,255,255)" stroke="none" stroke-width="1"/></g></g><g id="ek60e6fimvoe48"><g id="ek60e6fimvoe49"><path id="ek60e6fimvoe50" d="M218.400000,423.600000L222.900000,423.600000C225.700000,423.600000,227.900000,421.400000,227.900000,418.600000C227.900000,415.800000,225.700000,413.600000,222.900000,413.600000L218.400000,413.600000C215.600000,413.600000,213.400000,415.800000,213.400000,418.600000C213.400000,421.400000,215.700000,423.600000,218.400000,423.600000Z" fill="rgb(255,255,255)" stroke="none" stroke-width="1"/></g></g></g></g><g id="ek60e6fimvoe51"><path id="ek60e6fimvoe52" d="M475.900000,257.100000C474.900000,256.300000,474.100000,255.200000,473.900000,253.800000L472.900000,247.600000L466.700000,248.600000C464,249,461.400000,247.100000,461,244.400000C460.600000,241.700000,462.500000,239.100000,465.200000,238.700000L476.400000,237C479.100000,236.600000,481.700000,238.500000,482.100000,241.200000L483.800000,252.400000C484.200000,255.100000,482.300000,257.700000,479.600000,258.100000C478.200000,258.200000,476.900000,257.800000,475.900000,257.100000Z" fill="rgb(255,108,108)" stroke="none" stroke-width="1"/></g><g id="ek60e6fimvoe53_to" transform="translate(252.441249,106.112659)"><g id="ek60e6fimvoe53_ts" transform="scale(1,1)"><path id="ek60e6fimvoe53" d="M260.300000,101.400000L257.300000,101.400000L257.300000,98.400000C257.300000,95.600000,255.100000,93.400000,252.300000,93.400000C249.500000,93.400000,247.300000,95.600000,247.300000,98.400000L247.300000,101.400000L244.300000,101.400000C241.500000,101.400000,239.300000,103.600000,239.300000,106.400000C239.300000,109.200000,241.500000,111.400000,244.300000,111.400000L247.300000,111.400000L247.300000,114.400000C247.300000,117.200000,249.500000,119.400000,252.300000,119.400000C255.100000,119.400000,257.300000,117.200000,257.300000,114.400000L257.300000,111.400000L260.300000,111.400000C263.100000,111.400000,265.300000,109.200000,265.300000,106.400000C265.300000,103.600000,263.100000,101.400000,260.300000,101.400000Z" transform="translate(-252.441249,-106.112659)" fill="rgb(30,30,30)" stroke="none" stroke-width="1"/></g></g><g id="ek60e6fimvoe54_ts" transform="translate(485.085868,151.395190) scale(1,1)"><path id="ek60e6fimvoe54" d="M492.400000,145.500000L489.400000,145.500000L489.400000,142.500000C489.400000,139.700000,487.200000,137.500000,484.400000,137.500000C481.600000,137.500000,479.400000,139.700000,479.400000,142.500000L479.400000,145.500000L476.400000,145.500000C473.600000,145.500000,471.400000,147.700000,471.400000,150.500000C471.400000,153.300000,473.600000,155.500000,476.400000,155.500000L479.400000,155.500000L479.400000,158.500000C479.400000,161.300000,481.600000,163.500000,484.400000,163.500000C487.200000,163.500000,489.400000,161.300000,489.400000,158.500000L489.400000,155.500000L492.400000,155.500000C495.200000,155.500000,497.400000,153.300000,497.400000,150.500000C497.400000,147.700000,495.100000,145.500000,492.400000,145.500000Z" transform="translate(-485.085868,-151.395190)" fill="rgb(244,0,0)" stroke="none" stroke-width="1"/></g><g id="ek60e6fimvoe55"><path id="ek60e6fimvoe56" d="M125.100000,396.200000C123.800000,396.200000,122.500000,395.700000,121.600000,394.700000L117.100000,390.200000L112.600000,394.700000C110.600000,396.700000,107.500000,396.700000,105.500000,394.700000C103.500000,392.700000,103.500000,389.600000,105.500000,387.600000L113.500000,379.600000C115.500000,377.600000,118.600000,377.600000,120.600000,379.600000L128.600000,387.600000C130.600000,389.600000,130.600000,392.700000,128.600000,394.700000C127.700000,395.700000,126.400000,396.200000,125.100000,396.200000Z" fill="rgb(244,0,0)" stroke="none" stroke-width="1"/></g><g id="ek60e6fimvoe57"><g id="ek60e6fimvoe58_to" transform="translate(115.043988,317.658836)"><g id="ek60e6fimvoe58_ts" transform="scale(1,1)"><path id="ek60e6fimvoe58" d="M124.200000,315.500000C123.300000,316.400000,122.100000,317,120.700000,317L114.400000,317.100000L114.500000,323.400000C114.600000,326.200000,112.400000,328.500000,109.600000,328.500000C106.800000,328.600000,104.600000,326.400000,104.500000,323.600000L104.200000,312.300000C104.100000,309.500000,106.300000,307.200000,109.100000,307.200000L120.400000,306.900000C123.200000,306.800000,125.400000,309,125.500000,311.800000C125.600000,313.400000,125.100000,314.600000,124.200000,315.500000Z" transform="translate(-115.043988,-317.658836)" fill="rgb(255,108,108)" stroke="none" stroke-width="1"/></g></g></g></g></g><path id="ek60e6fimvoe59" d="M241,300.700000L240.500000,300.700000L240.500000,292.700000L248.200000,292.700000C250.800000,292.700000,253.200000,290.600000,253.400000,288.100000C253.600000,285.100000,251.300000,282.700000,248.400000,282.700000L240.500000,282.700000L240.500000,281.200000C240.500000,278.600000,238.400000,276.200000,235.900000,276C232.900000,275.800000,230.500000,278.100000,230.500000,281L230.500000,282.700000L230,282.700000C223.200000,282.700000,217.100000,287.400000,215.900000,294.100000C214.300000,302.900000,221.100000,310.700000,229.700000,310.700000L230.500000,310.700000L230.500000,318.700000L222.800000,318.700000C220.200000,318.700000,217.800000,320.800000,217.600000,323.300000C217.400000,326.300000,219.700000,328.700000,222.600000,328.700000L230.500000,328.700000L230.500000,330.200000C230.500000,332.800000,232.600000,335.200000,235.100000,335.400000C238.100000,335.600000,240.500000,333.300000,240.500000,330.400000L240.500000,328.700000L241.300000,328.700000C249.900000,328.700000,256.700000,320.900000,255.100000,312.100000C253.900000,305.400000,247.800000,300.700000,241,300.700000ZM229.700000,300.700000C227.200000,300.700000,225.300000,298.400000,225.800000,295.800000C226.200000,293.900000,228,292.700000,229.900000,292.700000L230.500000,292.700000L230.500000,300.700000L229.700000,300.700000ZM241.200000,318.700000L240.600000,318.700000L240.600000,310.700000L241.400000,310.700000C243.900000,310.700000,245.800000,313,245.300000,315.600000C244.900000,317.400000,243.100000,318.700000,241.200000,318.700000Z" fill="rgb(255,255,255)" stroke="none" stroke-width="1"/></svg>