<svg id="telegram" xmlns="http://www.w3.org/2000/svg" width="31.421" height="27.357" viewBox="0 0 31.421 27.357">
  <path id="XMLID_497_" d="M.555,32.518l7.24,2.7,2.8,9.012a.852.852,0,0,0,1.354.408l4.036-3.29a1.2,1.2,0,0,1,1.468-.041l7.279,5.285a.853.853,0,0,0,1.337-.516L31.4,20.429a.854.854,0,0,0-1.143-.97L.547,30.922A.854.854,0,0,0,.555,32.518Zm9.591,1.264L24.3,25.067a.247.247,0,0,1,.3.39L12.915,36.312a2.421,2.421,0,0,0-.75,1.448l-.4,2.948a.366.366,0,0,1-.714.052l-1.53-5.376A1.425,1.425,0,0,1,10.146,33.782Z" transform="translate(0 -19.401)" fill="#fff"/>
</svg>
