<?xml version="1.0" encoding="iso-8859-1"?>
<!-- Generator: Adobe Illustrator 19.0.0, SVG Export Plug-In . SVG Version: 6.00 Build 0)  -->
<svg version="1.1" id="Capa_1" xmlns="http://www.w3.org/2000/svg" xmlns:xlink="http://www.w3.org/1999/xlink" x="0px" y="0px"
	 viewBox="0 0 512 512" style="enable-background:new 0 0 512 512;" xml:space="preserve">
<g>
	<g>
		<path d="M480.898,133.913C448.88,74.937,396.187,31.687,332.258,11.759c-0.26-0.096-0.521-0.177-0.784-0.243
			c-0.924-0.285-1.841-0.582-2.768-0.857C263.174-8.754,194.003-1.487,133.936,31.123C73.869,63.734,30.096,117.782,10.682,183.316
			c-19.414,65.532-12.147,134.703,20.463,194.77c32.611,60.066,86.66,103.839,152.193,123.253
			c24.067,7.13,48.613,10.661,73.03,10.661c42.069,0,83.732-10.49,121.739-31.124c14.445-7.842,28.151-17.069,40.736-27.424
			c3.197-2.631,3.657-7.356,1.026-10.554c-2.631-3.197-7.355-3.656-10.554-1.026c-11.849,9.749-24.755,18.439-38.362,25.826
			c-53.984,29.308-115.775,36.855-174.945,21.577c23.593-58.852,17.947-129.848-15.683-191.795
			c-13.365-24.616-30.332-46.411-50.432-64.779c-3.057-2.794-7.8-2.581-10.593,0.477c-2.793,3.057-2.58,7.8,0.477,10.593
			c18.865,17.239,34.802,37.717,47.369,60.863c31.773,58.527,36.993,125.448,14.395,180.445
			c-11.074-3.592-21.778-7.937-32.061-12.979c11.472-36.422,22.044-100.725-16.047-161.842
			C100.482,257.4,48.717,234.694,17.06,225.341c1.361-10.428,3.402-20.828,6.148-31.145c18.399,3.418,36.524,9.872,53.968,19.244
			c1.129,0.607,2.343,0.895,3.542,0.895c2.671,0,5.258-1.433,6.611-3.951c1.959-3.648,0.591-8.194-3.057-10.153
			c-18.313-9.838-37.359-16.708-56.734-20.481C46.896,121.586,86.956,73.691,141.091,44.302
			c55.068-29.898,118.265-37.156,178.51-20.635c-22.33,58.284-16.288,128.299,16.726,189.113
			c32.922,60.647,88.205,103.827,149.09,116.962c-8.695,27.042-22.258,52.806-40.589,75.949c-2.571,3.246-2.023,7.962,1.223,10.533
			c3.245,2.57,7.962,2.024,10.533-1.223C520.35,334.494,529.894,224.16,480.898,133.913z M120.705,318.189
			c34.065,54.656,25.592,112.555,15.291,146.746c-38.387-21.957-70.043-54.167-91.672-94.005
			c-22.004-40.531-31.747-85.463-28.773-130.382C45.161,249.721,91.248,270.936,120.705,318.189z M489.577,315.304
			c-57.043-11.952-109.039-52.515-140.07-109.679C318.39,148.308,312.748,82.491,333.96,28.084
			c9.997,3.408,19.692,7.419,29.032,12.022c-9.39,31.273-18.672,86.456,6.915,142.498c29.756,65.214,88.853,91.964,125.302,102.581
			C493.975,295.318,492.097,305.379,489.577,315.304z M383.549,176.377c-22.823-49.99-15.458-99.551-7.045-129.052
			c38.18,21.951,69.672,54.063,91.215,93.743c21.917,40.369,31.381,85.007,28.85,128.873
			C462.603,259.555,410.111,234.591,383.549,176.377z"/>
	</g>
</g>
<g>
</g>
<g>
</g>
<g>
</g>
<g>
</g>
<g>
</g>
<g>
</g>
<g>
</g>
<g>
</g>
<g>
</g>
<g>
</g>
<g>
</g>
<g>
</g>
<g>
</g>
<g>
</g>
<g>
</g>
</svg>
