<svg xmlns="http://www.w3.org/2000/svg" width="55.508" height="46.173" viewBox="0 0 55.508 46.173"><defs><style>.a{fill:#76a9ea;}</style></defs><path class="a" d="M54.626,39.862A21.98,21.98,0,0,1,50.8,41.153a11.933,11.933,0,0,0,3.15-5.016h0a.626.626,0,0,0-.915-.729h0a22.085,22.085,0,0,1-5.851,2.417,1.491,1.491,0,0,1-.366.045,1.551,1.551,0,0,1-1.024-.391,11.967,11.967,0,0,0-7.918-2.988,12.8,12.8,0,0,0-3.791.585,11.594,11.594,0,0,0-7.814,8.353,12.766,12.766,0,0,0-.284,4.406.429.429,0,0,1-.108.336.444.444,0,0,1-.33.15l-.042,0A31.379,31.379,0,0,1,3.937,36.8h0a.626.626,0,0,0-1.026.08h0A11.981,11.981,0,0,0,4.858,51.424a10.724,10.724,0,0,1-2.73-1.057h0a.626.626,0,0,0-.929.539h0A11.982,11.982,0,0,0,8.189,61.946q-.128,0-.256,0a10.769,10.769,0,0,1-2.016-.192h0a.626.626,0,0,0-.713.806h0a11.994,11.994,0,0,0,9.474,8.158A22.083,22.083,0,0,1,2.309,74.476H.925a.916.916,0,0,0-.9.691.948.948,0,0,0,.454,1.047,32.846,32.846,0,0,0,16.5,4.45,33.3,33.3,0,0,0,14.1-2.992,31.146,31.146,0,0,0,10.32-7.733,33.9,33.9,0,0,0,6.319-10.583,33.432,33.432,0,0,0,2.148-11.583V47.59A2.036,2.036,0,0,1,50.641,46,23.653,23.653,0,0,0,55.4,40.782h0a.626.626,0,0,0-.774-.92Z" transform="translate(0 -34.491)"/></svg>