<svg id="twitter-logo-silhouette" xmlns="http://www.w3.org/2000/svg" width="38.672" height="31.413" viewBox="0 0 38.672 31.413">
  <g id="Group_130" data-name="Group 130" transform="translate(0 0)">
    <path id="Path_78" data-name="Path 78" d="M38.673,61.158a15.842,15.842,0,0,1-4.555,1.249A7.966,7.966,0,0,0,37.6,58.021a15.993,15.993,0,0,1-5.041,1.926A7.939,7.939,0,0,0,19.046,67.18,22.523,22.523,0,0,1,2.7,58.891,7.942,7.942,0,0,0,5.151,69.48a7.934,7.934,0,0,1-3.593-1v.1A7.941,7.941,0,0,0,7.92,76.362a8.035,8.035,0,0,1-2.09.278,7.615,7.615,0,0,1-1.493-.147A7.937,7.937,0,0,0,11.745,82a15.917,15.917,0,0,1-9.852,3.39A16.858,16.858,0,0,1,0,85.284a22.424,22.424,0,0,0,12.16,3.569c14.593,0,22.57-12.088,22.57-22.57L34.7,65.256A15.842,15.842,0,0,0,38.673,61.158Z" transform="translate(-0.001 -57.441)" fill="#fff"/>
  </g>
</svg>
