<svg xmlns="http://www.w3.org/2000/svg" width="19.005" height="19.005" viewBox="0 0 19.005 19.005">
  <g id="user_2_" data-name="user (2)" transform="translate(-0.001)">
    <g id="Group_236" data-name="Group 236" transform="translate(0.001)">
      <path id="Path_261" data-name="Path 261" d="M9.5,0a9.5,9.5,0,1,0,9.5,9.5A9.5,9.5,0,0,0,9.5,0Zm.029,13.985H5.415c0-2.968,2.607-2.968,3.185-3.744l.066-.354A2.837,2.837,0,0,1,7.28,7.321,2.543,2.543,0,0,1,9.5,4.55a2.543,2.543,0,0,1,2.223,2.771A2.847,2.847,0,0,1,10.36,9.878l.075.4c.635.739,3.155.787,3.155,3.705Z" transform="translate(-0.001)" fill="#fff"/>
    </g>
  </g>
</svg>
