<?xml version="1.0" encoding="utf-8"?>
<!-- Generator: Adobe Illustrator 21.1.0, SVG Export Plug-In . SVG Version: 6.00 Build 0)  -->
<svg version="1.1" id="Capa_1" xmlns="http://www.w3.org/2000/svg" xmlns:xlink="http://www.w3.org/1999/xlink" x="0px" y="0px"
	 viewBox="0 0 512 512" style="enable-background:new 0 0 512 512;" xml:space="preserve">
<style type="text/css">
	.st0{fill:#EF0000;}
	.st1{fill:#212121;}
</style>
<g>
	<g>
		<path class="st0" d="M497,211h-78.9l50.3-29.1c7.2-4.2,9.6-13.4,5.4-20.6l-90-153.9c-4.1-7.1-13.2-9.5-20.4-5.5L103.7,150
			c-7.2,4.1-9.7,13.3-5.6,20.5l23.3,40.4H15c-8.3,0-15,6.7-15,15v271c0,8.3,6.7,15,15,15h482c8.3,0,15-6.7,15-15V226
			C512,217.7,505.3,211,497,211z M365.4,35.4l74.9,128.1L254.1,271h-63.4l-59.1-102.4L365.4,35.4z M482,482H30V361h452V482z
			 M482,331H30v-90h108.8l17.3,30H106c-8.3,0-15,6.7-15,15s6.7,15,15,15c2.1,0,293.4,0,300,0c8.3,0,15-6.7,15-15s-6.7-15-15-15
			h-91.9l52-30H482V331z"/>
	</g>
</g>
<g>
	<g>
		<path class="st1" d="M320.7,91.7c-7.9-2.6-16.4,1.6-19,9.5l-22.3,67l-12.8-12.8c-5.9-5.9-15.4-5.9-21.2,0s-5.9,15.4,0,21.2l30,30
			c7.9,7.9,21.3,4.7,24.8-5.9l30-90C332.9,102.9,328.6,94.4,320.7,91.7z"/>
	</g>
</g>
</svg>
