<svg id="eo6dhn46x6jc1" xmlns="http://www.w3.org/2000/svg" xmlns:xlink="http://www.w3.org/1999/xlink" viewBox="0 0 350 350" shape-rendering="geometricPrecision" text-rendering="geometricPrecision"><style><![CDATA[#eo6dhn46x6jc17_ts {animation: eo6dhn46x6jc17_ts__ts 2500ms linear infinite normal forwards}@keyframes eo6dhn46x6jc17_ts__ts { 0% {transform: translate(70.350000px,97.570313px) scale(1,1)} 40% {transform: translate(70.350000px,97.570313px) scale(1,1)} 60% {transform: translate(70.350000px,97.570313px) scale(1.298748,1.298748)} 80% {transform: translate(70.350000px,97.570313px) scale(1,1)} 100% {transform: translate(70.350000px,97.570313px) scale(1,1)} }#eo6dhn46x6jc24_ts {animation: eo6dhn46x6jc24_ts__ts 2500ms linear infinite normal forwards}@keyframes eo6dhn46x6jc24_ts__ts { 0% {transform: translate(277.500000px,228.500000px) scale(1,1)} 12% {transform: translate(277.500000px,228.500000px) scale(1,1)} 32% {transform: translate(277.500000px,228.500000px) scale(1.193196,1.193196)} 52% {transform: translate(277.500000px,228.500000px) scale(1,1)} 100% {transform: translate(277.500000px,228.500000px) scale(1,1)} }#eo6dhn46x6jc48_tr {animation: eo6dhn46x6jc48_tr__tr 2500ms linear infinite normal forwards}@keyframes eo6dhn46x6jc48_tr__tr { 0% {transform: translate(181.101444px,167.200000px) rotate(0deg)} 56% {transform: translate(181.101444px,167.200000px) rotate(360deg)} 68% {transform: translate(181.101444px,167.200000px) rotate(390deg)} 80% {transform: translate(181.101444px,167.200000px) rotate(360deg)} 100% {transform: translate(181.101444px,167.200000px) rotate(360deg)} }#eo6dhn46x6jc48_ts {animation: eo6dhn46x6jc48_ts__ts 2500ms linear infinite normal forwards}@keyframes eo6dhn46x6jc48_ts__ts { 0% {transform: scale(1,1)} 28% {transform: scale(1.335408,1.335408)} 56% {transform: scale(0.954471,0.954471)} 64% {transform: scale(0.954471,0.954471)} 72% {transform: scale(0.954471,0.954471)} 100% {transform: scale(0.954471,0.954471)} }#eo6dhn46x6jc49_ts {animation: eo6dhn46x6jc49_ts__ts 2500ms linear infinite normal forwards}@keyframes eo6dhn46x6jc49_ts__ts { 0% {transform: translate(280.200000px,108.200000px) scale(1,1)} 20% {transform: translate(280.200000px,108.200000px) scale(1.336465,1.336465)} 40% {transform: translate(280.200000px,108.200000px) scale(1,1)} 100% {transform: translate(280.200000px,108.200000px) scale(1,1)} }#eo6dhn46x6jc53_ts {animation: eo6dhn46x6jc53_ts__ts 2500ms linear infinite normal forwards}@keyframes eo6dhn46x6jc53_ts__ts { 0% {transform: translate(71.300000px,221.500000px) scale(1,1)} 32% {transform: translate(71.300000px,221.500000px) scale(1,1)} 52% {transform: translate(71.300000px,221.500000px) scale(1.319121,1.319121)} 72% {transform: translate(71.300000px,221.500000px) scale(1,1)} 100% {transform: translate(71.300000px,221.500000px) scale(1,1)} }#eo6dhn46x6jc64_ts {animation: eo6dhn46x6jc64_ts__ts 2500ms linear infinite normal forwards}@keyframes eo6dhn46x6jc64_ts__ts { 0% {transform: translate(172.700000px,280.425000px) scale(1,1)} 20% {transform: translate(172.700000px,280.425000px) scale(1,1)} 40% {transform: translate(172.700000px,280.425000px) scale(1.231297,1.231297)} 60% {transform: translate(172.700000px,280.425000px) scale(1,1)} 100% {transform: translate(172.700000px,280.425000px) scale(1,1)} }#eo6dhn46x6jc94_ts {animation: eo6dhn46x6jc94_ts__ts 2500ms linear infinite normal forwards}@keyframes eo6dhn46x6jc94_ts__ts { 0% {transform: translate(181.101445px,53.572827px) scale(0.093654,0.093654)} 48% {transform: translate(181.101445px,53.572827px) scale(0.093654,0.093654)} 68% {transform: translate(181.101445px,53.572827px) scale(0.130295,0.130295)} 88% {transform: translate(181.101445px,53.572827px) scale(0.093654,0.093654)} 100% {transform: translate(181.101445px,53.572827px) scale(0.093654,0.093654)} }]]></style><g id="eo6dhn46x6jc2"><g id="eo6dhn46x6jc3"/></g><g id="eo6dhn46x6jc4"><g id="eo6dhn46x6jc5"/></g><g id="eo6dhn46x6jc6"><g id="eo6dhn46x6jc7"/></g><g id="eo6dhn46x6jc8"><g id="eo6dhn46x6jc9"/></g><g id="eo6dhn46x6jc10"><g id="eo6dhn46x6jc11"/></g><g id="eo6dhn46x6jc12"><g id="eo6dhn46x6jc13"/></g><g id="eo6dhn46x6jc14"><g id="eo6dhn46x6jc15"/></g><g id="eo6dhn46x6jc16"><g id="eo6dhn46x6jc17_ts" transform="translate(70.350000,97.570313) scale(1,1)"><g id="eo6dhn46x6jc17" transform="translate(-70.350000,-97.570313)"><path id="eo6dhn46x6jc18" d="M82.100000,110.900000C81,110.900000,80.100000,110,80.100000,108.900000C80.100000,108.300000,80.400000,107.700000,80.900000,107.300000L93.300000,97.600000L81,87.900000C80.100000,87.200000,80,85.900000,80.700000,85C81.400000,84.100000,82.700000,84,83.600000,84.700000L97.800000,95.900000C98.700000,96.600000,98.800000,97.900000,98.200000,98.800000C98.100000,98.900000,98,99.100000,97.800000,99.200000L83.400000,110.400000C83,110.700000,82.600000,110.800000,82.100000,110.900000L82.100000,110.900000Z" fill="rgb(0,35,35)" stroke="none" stroke-width="1"/><path id="eo6dhn46x6jc19" d="M58.800000,113.900000C58.400000,113.900000,57.900000,113.700000,57.600000,113.500000L42.600000,101.800000C42.100000,101.400000,41.900000,100.800000,41.900000,100.200000C41.900000,99.600000,42.200000,99,42.700000,98.600000L57.500000,86.900000C58.400000,86.200000,59.700000,86.400000,60.400000,87.200000C61.100000,88,60.900000,89.400000,60.100000,90.100000L47.300000,100.300000L60.200000,110.500000C61.100000,111.200000,61.200000,112.500000,60.500000,113.400000C60.100000,113.900000,59.500000,114.200000,58.900000,114.200000L58.800000,113.900000Z" fill="rgb(0,35,35)" stroke="none" stroke-width="1"/><path id="eo6dhn46x6jc20" d="M64.300000,126L63.900000,126C62.800000,125.800000,62.100000,124.700000,62.400000,123.600000C62.400000,123.600000,62.400000,123.600000,62.400000,123.600000L74.400000,70.700000C74.600000,69.600000,75.700000,68.900000,76.800000,69.100000C76.800000,69.100000,76.800000,69.100000,76.800000,69.100000C77.900000,69.400000,78.600000,70.400000,78.300000,71.500000C78.300000,71.500000,78.300000,71.500000,78.300000,71.500000L66.200000,124.400000C66,125.300000,65.200000,126,64.300000,126Z" fill="rgb(234,0,0)" stroke="none" stroke-width="1"/></g></g></g><g id="eo6dhn46x6jc21"><g id="eo6dhn46x6jc22"><g id="eo6dhn46x6jc23"><g id="eo6dhn46x6jc24_ts" transform="translate(277.500000,228.500000) scale(1,1)"><g id="eo6dhn46x6jc24" transform="translate(-277.500000,-228.500000)"><path id="eo6dhn46x6jc25" d="M268.700000,205L254,205L254,219.700000L268.700000,219.700000L268.700000,205ZM265.800000,216.800000L257,216.800000L257,208L265.800000,208L265.800000,216.800000Z" fill="rgb(234,0,0)" stroke="none" stroke-width="1"/><rect id="eo6dhn46x6jc26" width="2.900000" height="2.900000" rx="0" ry="0" transform="matrix(1 0 0 1 259.89999999999998 210.90000000000001)" fill="rgb(0,35,35)" stroke="none" stroke-width="1"/><path id="eo6dhn46x6jc27" d="M286.300000,205L286.300000,219.700000L301,219.700000L301,205L286.300000,205ZM298.100000,216.800000L289.300000,216.800000L289.300000,208L298.100000,208L298.100000,216.800000Z" fill="rgb(234,0,0)" stroke="none" stroke-width="1"/><rect id="eo6dhn46x6jc28" width="2.900000" height="2.900000" rx="0" ry="0" transform="matrix(1 0 0 1 292.19999999999999 210.90000000000001)" fill="rgb(0,35,35)" stroke="none" stroke-width="1"/><path id="eo6dhn46x6jc29" d="M254,252L268.700000,252L268.700000,237.300000L254,237.300000L254,252ZM256.900000,240.300000L265.700000,240.300000L265.700000,249.100000L256.900000,249.100000L256.900000,240.300000Z" fill="rgb(234,0,0)" stroke="none" stroke-width="1"/><rect id="eo6dhn46x6jc30" width="2.900000" height="2.900000" rx="0" ry="0" transform="matrix(1 0 0 1 259.89999999999998 243.19999999999999)" fill="rgb(0,35,35)" stroke="none" stroke-width="1"/><rect id="eo6dhn46x6jc31" width="5.900000" height="2.900000" rx="0" ry="0" transform="matrix(1 0 0 1 277.50000000000000 205)" fill="rgb(0,35,35)" stroke="none" stroke-width="1"/><polygon id="eo6dhn46x6jc32" points="277.500000,216.800000 280.400000,216.800000 280.400000,213.800000 283.400000,213.800000 283.400000,210.900000 274.600000,210.900000 274.600000,207.900000 271.600000,207.900000 271.600000,210.900000 271.600000,212.300000 271.600000,213.800000 277.500000,213.800000" fill="rgb(0,35,35)" stroke="none" stroke-width="1"/><rect id="eo6dhn46x6jc33" width="2.900000" height="2.900000" rx="0" ry="0" transform="matrix(1 0 0 1 271.60000000000002 216.80000000000001)" fill="rgb(0,35,35)" stroke="none" stroke-width="1"/><polygon id="eo6dhn46x6jc34" points="283.400000,219.700000 280.400000,219.700000 280.400000,222.600000 271.600000,222.600000 271.600000,225.600000 283.400000,225.600000" fill="rgb(0,35,35)" stroke="none" stroke-width="1"/><polygon id="eo6dhn46x6jc35" points="256.900000,231.400000 259.900000,231.400000 259.900000,228.500000 256.900000,228.500000 256.900000,222.600000 254,222.600000 254,234.400000 256.900000,234.400000" fill="rgb(0,35,35)" stroke="none" stroke-width="1"/><rect id="eo6dhn46x6jc36" width="2.900000" height="2.900000" rx="0" ry="0" transform="matrix(1 0 0 1 259.89999999999998 222.59999999999999)" fill="rgb(0,35,35)" stroke="none" stroke-width="1"/><polygon id="eo6dhn46x6jc37" points="271.600000,234.400000 277.500000,234.400000 277.500000,231.400000 274.600000,231.400000 274.600000,228.500000 268.700000,228.500000 268.700000,222.600000 265.800000,222.600000 265.800000,228.500000 262.800000,228.500000 262.800000,234.400000 265.800000,234.400000 265.800000,231.400000 267.200000,231.400000 268.700000,231.400000 271.600000,231.400000" fill="rgb(0,35,35)" stroke="none" stroke-width="1"/><rect id="eo6dhn46x6jc38" width="2.900000" height="5.900000" rx="0" ry="0" transform="matrix(1 0 0 1 280.39999999999998 228.50000000000000)" fill="rgb(0,35,35)" stroke="none" stroke-width="1"/><polygon id="eo6dhn46x6jc39" points="280.400000,237.300000 271.600000,237.300000 271.600000,240.300000 277.500000,240.300000 277.500000,249.100000 271.600000,249.100000 271.600000,252 280.400000,252 280.400000,249.100000 286.300000,249.100000 286.300000,246.100000 280.400000,246.100000" fill="rgb(0,35,35)" stroke="none" stroke-width="1"/><rect id="eo6dhn46x6jc40" width="2.900000" height="2.900000" rx="0" ry="0" transform="matrix(1 0 0 1 271.60000000000002 243.19999999999999)" fill="rgb(0,35,35)" stroke="none" stroke-width="1"/><rect id="eo6dhn46x6jc41" width="2.900000" height="5.900000" rx="0" ry="0" transform="matrix(1 0 0 1 283.39999999999998 237.30000000000001)" fill="rgb(0,35,35)" stroke="none" stroke-width="1"/><polygon id="eo6dhn46x6jc42" points="298.100000,243.200000 289.300000,243.200000 289.300000,252 292.200000,252 292.200000,246.100000 298.100000,246.100000" fill="rgb(0,35,35)" stroke="none" stroke-width="1"/><rect id="eo6dhn46x6jc43" width="5.900000" height="2.900000" rx="0" ry="0" transform="matrix(1 0 0 1 295.10000000000002 249.09999999999999)" fill="rgb(0,35,35)" stroke="none" stroke-width="1"/><rect id="eo6dhn46x6jc44" width="2.900000" height="2.900000" rx="0" ry="0" transform="matrix(1 0 0 1 298.10000000000002 237.30000000000001)" fill="rgb(0,35,35)" stroke="none" stroke-width="1"/><polygon id="eo6dhn46x6jc45" points="289.300000,240.300000 292.200000,240.300000 292.200000,231.400000 286.300000,231.400000 286.300000,234.400000 289.300000,234.400000" fill="rgb(0,35,35)" stroke="none" stroke-width="1"/><polygon id="eo6dhn46x6jc46" points="295.100000,225.600000 292.200000,225.600000 292.200000,222.600000 289.300000,222.600000 289.300000,225.600000 286.300000,225.600000 286.300000,228.500000 298.100000,228.500000 298.100000,225.600000 301,225.600000 301,222.600000 295.100000,222.600000" fill="rgb(0,35,35)" stroke="none" stroke-width="1"/><rect id="eo6dhn46x6jc47" width="5.900000" height="2.900000" rx="0" ry="0" transform="matrix(1 0 0 1 295.10000000000002 231.40000000000001)" fill="rgb(0,35,35)" stroke="none" stroke-width="1"/></g></g></g></g></g><g id="eo6dhn46x6jc48_tr" transform="translate(181.101444,167.200000) rotate(0)"><g id="eo6dhn46x6jc48_ts" transform="scale(1,1)"><path id="eo6dhn46x6jc48" d="M222.300000,126C217.800000,121.500000,211.700000,119,205.300000,119C198.900000,119,192.900000,121.500000,188.300000,126L172.100000,142.200000C169.200000,145.100000,167.200000,148.500000,166.100000,152.200000C162.300000,153.300000,158.900000,155.400000,156.100000,158.200000L139.900000,174.400000C135.400000,178.900000,132.900000,185,132.900000,191.400000C132.900000,197.800000,135.400000,203.800000,139.900000,208.400000C144.400000,212.900000,150.500000,215.400000,156.900000,215.400000C163.300000,215.400000,169.300000,212.900000,173.900000,208.400000L190.100000,192.200000C193,189.300000,195,185.900000,196.100000,182.200000C199.900000,181.100000,203.300000,179,206.100000,176.200000L222.300000,160C226.800000,155.500000,229.300000,149.400000,229.300000,143C229.400000,136.600000,226.900000,130.600000,222.300000,126ZM166.800000,167.700000C168,170.800000,169.800000,173.700000,172.300000,176.200000C174.700000,178.600000,177.600000,180.500000,180.800000,181.700000C180.600000,181.900000,180.500000,182,180.300000,182.200000L164,198.300000C162.100000,200.200000,159.700000,201.200000,157,201.200000C154.400000,201.200000,151.900000,200.200000,150,198.300000C146.100000,194.400000,146.100000,188.200000,150,184.300000L166.200000,168.100000C166.400000,168,166.600000,167.800000,166.800000,167.700000ZM188.200000,190.100000L172,206.300000C168,210.300000,162.700000,212.500000,157,212.500000C151.300000,212.500000,146,210.300000,142,206.300000C138,202.300000,135.800000,197,135.800000,191.300000C135.800000,185.600000,138,180.300000,142,176.300000L158.200000,160.100000C160.300000,158,162.700000,156.400000,165.400000,155.400000C164.900000,158.500000,165,161.700000,165.800000,164.800000C165.200000,165.200000,164.700000,165.700000,164.200000,166.200000L148,182.400000C145.600000,184.800000,144.300000,188,144.300000,191.400000C144.300000,194.800000,145.600000,198,148,200.400000C150.400000,202.800000,153.600000,204.100000,157,204.100000C160.400000,204.100000,163.600000,202.800000,166,200.400000L182.200000,184.200000C184.600000,181.800000,185.900000,178.600000,185.900000,175.200000C185.900000,171.800000,184.600000,168.600000,182.200000,166.200000C178.300000,162.300000,178.300000,156.100000,182.200000,152.200000L198.400000,136C200.300000,134.100000,202.700000,133.100000,205.400000,133.100000C208,133.100000,210.500000,134.100000,212.400000,136C214.300000,137.900000,215.300000,140.300000,215.300000,143C215.300000,145.600000,214.300000,148.100000,212.400000,150L196.200000,166.200000C196,166.400000,195.900000,166.500000,195.700000,166.700000C194.500000,163.600000,192.700000,160.700000,190.200000,158.200000C188.800000,156.800000,187.200000,155.500000,185.500000,154.500000C184.800000,154.100000,184,154.300000,183.600000,155C183.200000,155.700000,183.400000,156.500000,184.100000,156.900000C185.600000,157.800000,187,158.900000,188.300000,160.100000C196.400000,168.400000,196.400000,181.800000,188.200000,190.100000L188.200000,190.100000ZM220.300000,157.900000L204.100000,174.100000C202,176.200000,199.600000,177.800000,196.900000,178.800000C197.400000,175.700000,197.300000,172.500000,196.500000,169.400000C197.100000,169,197.600000,168.500000,198.100000,168L214.300000,151.800000C216.700000,149.400000,218,146.200000,218,142.800000C218,139.400000,216.700000,136.200000,214.300000,133.800000C211.900000,131.400000,208.700000,130.100000,205.300000,130.100000C201.900000,130.100000,198.700000,131.400000,196.300000,133.800000L180.100000,150C177.700000,152.400000,176.400000,155.600000,176.400000,159C176.400000,162.400000,177.700000,165.600000,180.100000,168C182,169.900000,183,172.300000,183,175C183,176.400000,182.700000,177.800000,182.100000,179C179.100000,178,176.300000,176.200000,174.100000,174C165.800000,165.700000,165.800000,152.300000,174.100000,144.100000L190.300000,127.900000C194.300000,123.900000,199.600000,121.700000,205.300000,121.700000C211,121.700000,216.300000,123.900000,220.300000,127.900000C224.300000,131.900000,226.500000,137.200000,226.500000,142.900000C226.500000,148.600000,224.300000,153.900000,220.300000,157.900000L220.300000,157.900000Z" transform="translate(-181.101444,-167.200000)" fill="rgb(0,35,35)" stroke="none" stroke-width="1"/></g></g><g id="eo6dhn46x6jc49_ts" transform="translate(280.200000,108.200000) scale(1,1)"><g id="eo6dhn46x6jc49" transform="translate(-280.200000,-108.200000)"><path id="eo6dhn46x6jc50" d="M280.200000,82C265.800000,82,254,93.700000,254,108.200000C254,122.600000,265.700000,134.400000,280.200000,134.400000C294.600000,134.400000,306.400000,122.700000,306.400000,108.200000C306.300000,93.700000,294.600000,82,280.200000,82ZM280.200000,131.700000C267.200000,131.700000,256.700000,121.200000,256.700000,108.200000C256.700000,95.200000,267.200000,84.700000,280.200000,84.700000C293.200000,84.700000,303.700000,95.200000,303.700000,108.200000C303.700000,121.100000,293.200000,131.700000,280.200000,131.700000Z" fill="rgb(0,35,35)" stroke="none" stroke-width="1"/><path id="eo6dhn46x6jc51" d="M288.100000,102.900000C288.100000,98.600000,284.600000,95,280.300000,95C276,95,272.400000,98.500000,272.400000,102.800000C272.400000,105.200000,273.500000,107.500000,275.400000,109L272.500000,116.800000C272.200000,117.500000,272.600000,118.200000,273.300000,118.500000C273.400000,118.600000,273.600000,118.600000,273.800000,118.600000L286.900000,118.600000C287.600000,118.600000,288.200000,118,288.200000,117.300000C288.200000,117.100000,288.200000,117,288.100000,116.800000L285.200000,109C286.900000,107.600000,288,105.300000,288.100000,102.900000ZM282.800000,107.400000C282.300000,107.700000,282,108.400000,282.200000,109L284.800000,116L275.500000,116L278.100000,109C278.300000,108.400000,278.100000,107.700000,277.500000,107.400000C275.900000,106.500000,274.900000,104.800000,274.900000,102.900000C274.900000,100,277.200000,97.700000,280.100000,97.700000C283,97.700000,285.300000,100,285.300000,102.900000C285.400000,104.800000,284.400000,106.500000,282.800000,107.400000Z" fill="rgb(234,0,0)" stroke="none" stroke-width="1"/></g></g><g id="eo6dhn46x6jc52"><g id="eo6dhn46x6jc53_ts" transform="translate(71.300000,221.500000) scale(1,1)"><g id="eo6dhn46x6jc53" transform="translate(-71.300000,-221.500000)"><path id="eo6dhn46x6jc54" d="M77.300000,208L79.300000,208L79.300000,210L77.300000,210L77.300000,208Z" fill="rgb(0,35,35)" stroke="none" stroke-width="1"/><path id="eo6dhn46x6jc55" d="M73.300000,208L75.300000,208L75.300000,210L73.300000,210L73.300000,208Z" fill="rgb(234,0,0)" stroke="none" stroke-width="1"/><path id="eo6dhn46x6jc56" d="M62.300000,236C60.600000,236,59.300000,237.300000,59.300000,239C59.300000,240.700000,60.600000,242,62.300000,242C64,242,65.300000,240.700000,65.300000,239C65.300000,237.400000,64,236,62.300000,236ZM62.300000,240C61.700000,240,61.300000,239.600000,61.300000,239C61.300000,238.400000,61.700000,238,62.300000,238C62.900000,238,63.300000,238.400000,63.300000,239C63.300000,239.600000,62.900000,240,62.300000,240Z" fill="rgb(234,0,0)" stroke="none" stroke-width="1"/><path id="eo6dhn46x6jc57" d="M69.300000,238L71.300000,238L71.300000,240L69.300000,240L69.300000,238Z" fill="rgb(0,35,35)" stroke="none" stroke-width="1"/><path id="eo6dhn46x6jc58" d="M73.300000,238L75.300000,238L75.300000,240L73.300000,240L73.300000,238Z" fill="rgb(234,0,0)" stroke="none" stroke-width="1"/><path id="eo6dhn46x6jc59" d="M77.300000,238L79.300000,238L79.300000,240L77.300000,240L77.300000,238Z" fill="rgb(0,35,35)" stroke="none" stroke-width="1"/><path id="eo6dhn46x6jc60" d="M81.300000,238L83.300000,238L83.300000,240L81.300000,240L81.300000,238Z" fill="rgb(234,0,0)" stroke="none" stroke-width="1"/><path id="eo6dhn46x6jc61" d="M89.300000,238C88.800000,234.600000,85.800000,232,82.400000,232L72.400000,232L72.400000,226L81.400000,226C83.600000,226,85.700000,225.200000,87.300000,223.800000C87.400000,223.800000,87.400000,223.700000,87.500000,223.600000C87.700000,223.400000,88,223.100000,88.200000,222.900000C88.200000,222.900000,88.300000,222.900000,88.300000,222.900000C88.900000,222.200000,89.400000,221.400000,89.800000,220.600000C89.800000,220.600000,89.800000,220.600000,89.700000,220.600000C89.800000,220.400000,89.900000,220.100000,90,219.900000C91.500000,215.500000,89.500000,210.700000,85.200000,208.700000C84.700000,208.500000,84.100000,208.300000,83.500000,208.200000L83.500000,208C83.500000,204.100000,80.400000,201,76.500000,201C75.700000,201,75,201.100000,74.300000,201.400000C73.400000,200.200000,72.300000,199.200000,71,198.500000C70.900000,198.500000,70.800000,198.400000,70.700000,198.300000C69.600000,197.700000,68.400000,197.300000,67.200000,197.100000C67.200000,197.100000,67.200000,197.100000,67.200000,197.100000C66.700000,197,66.100000,197,65.600000,197C65,197,64.500000,197,63.900000,197.100000C63.900000,197.100000,63.900000,197.100000,63.900000,197.100000C62.900000,197.300000,62,197.500000,61.100000,197.900000C61,197.900000,60.900000,198,60.800000,198.100000C57.100000,199.900000,54.600000,203.700000,54.600000,208L54.600000,208.100000C49.600000,208.600000,46.100000,213.100000,46.600000,218C47.100000,222.600000,51,226,55.600000,226L70.600000,226L70.600000,232L60.600000,232C57.100000,232,54.200000,234.600000,53.700000,238L41.300000,238L41.300000,240L53.400000,240C53.900000,243.500000,56.800000,246,60.300000,246L82.300000,246C85.800000,246,88.700000,243.400000,89.200000,240L101.300000,240L101.300000,238L89.300000,238ZM55.300000,224C51.400000,224,48.300000,220.900000,48.300000,217C48.300000,213.100000,51.500000,210,55.300000,210C55.300000,210,55.300000,210,55.300000,210C55.800000,210,56.300000,209.600000,56.300000,209L56.300000,208.900000C56.300000,208.600000,56.300000,208.300000,56.300000,208C56.300000,206.100000,56.900000,204.400000,57.800000,202.900000C59.400000,200.500000,62.100000,199,65.200000,198.900000C68.200000,198.900000,71,200.400000,72.700000,202.900000C72.700000,202.900000,72.700000,203,72.800000,203C73.100000,203.400000,73.600000,203.600000,74.100000,203.400000C74.800000,203.100000,75.500000,202.900000,76.300000,202.900000C79.100000,202.900000,81.300000,205.100000,81.300000,207.900000C81.300000,208.200000,81.300000,208.500000,81.200000,208.800000C81.100000,209.300000,81.500000,209.900000,82,210C82,210,82,210,82.100000,210C83.700000,210.200000,85.100000,210.900000,86.200000,212C87.700000,213.500000,88.500000,215.600000,88.300000,217.800000C87.900000,221.300000,84.900000,224,81.400000,224L55.300000,224ZM82.300000,244L60.300000,244C57.500000,244,55.300000,241.800000,55.300000,239C55.300000,236.200000,57.500000,234,60.300000,234L82.300000,234C85.100000,234,87.300000,236.200000,87.300000,239C87.300000,241.800000,85.100000,244,82.300000,244Z" fill="rgb(0,35,35)" stroke="none" stroke-width="1"/><path id="eo6dhn46x6jc62" d="M88.200000,223C88.800000,222.300000,89.300000,221.500000,89.700000,220.700000C92.300000,219.800000,94.100000,217.500000,94.400000,214.900000C94.800000,211.100000,92.100000,207.600000,88.200000,207.200000C88.200000,207.200000,88.200000,207.200000,88.100000,207.200000C87.600000,207.100000,87.200000,206.600000,87.300000,206C87.400000,205.700000,87.400000,205.400000,87.400000,205C87.400000,202.300000,85.100000,200.100000,82.400000,200.100000C81.700000,200.100000,80.900000,200.300000,80.200000,200.600000C79.700000,200.800000,79.200000,200.700000,78.900000,200.200000C76.300000,196.200000,71.100000,194.900000,67,197.200000C66.500000,197.100000,65.900000,197.100000,65.400000,197.100000C64.800000,197.100000,64.300000,197.100000,63.700000,197.200000C64,196.900000,64.400000,196.600000,64.800000,196.300000C69.700000,192.700000,76.500000,193.600000,80.200000,198.500000C80.900000,198.300000,81.700000,198.100000,82.400000,198.100000C86.300000,198.100000,89.400000,201.200000,89.400000,205.100000L89.400000,205.300000C93.200000,206.200000,96.100000,209.400000,96.400000,213.400000C96.700000,218.200000,93.100000,222.500000,88.200000,223Z" fill="rgb(242,6,6)" stroke="none" stroke-width="1"/></g></g></g><g id="eo6dhn46x6jc63"><g id="eo6dhn46x6jc64_ts" transform="translate(172.700000,280.425000) scale(1,1)"><g id="eo6dhn46x6jc64" transform="translate(-172.700000,-280.425000)"><path id="eo6dhn46x6jc65" d="M198.400000,264.900000C198.400000,264.300000,198,263.700000,197.500000,263.500000L173.500000,251.500000C173,251.300000,172.500000,251.300000,172,251.500000L148,263.500000C147.500000,263.800000,147.100000,264.300000,147.100000,264.900000C147.100000,265.200000,146.700000,273.600000,149.500000,283.200000C151.200000,288.900000,153.600000,293.900000,156.800000,298C160.800000,303.200000,166,307,172.100000,309.400000C172.300000,309.500000,172.500000,309.500000,172.700000,309.500000C172.900000,309.500000,173.100000,309.500000,173.300000,309.400000C179.500000,307.100000,184.600000,303.200000,188.600000,298C191.800000,293.900000,194.300000,288.900000,195.900000,283.200000C198.800000,273.600000,198.500000,265.300000,198.400000,264.900000L198.400000,264.900000ZM192.700000,282.400000C189.200000,294.200000,182.500000,302.100000,172.700000,306.100000C162.900000,302.200000,156.200000,294.200000,152.700000,282.400000C150.600000,275.100000,150.400000,268.500000,150.400000,266.100000L172.700000,254.900000L195,266.100000C195.100000,268.500000,194.900000,275.100000,192.700000,282.400000Z" fill="rgb(0,35,35)" stroke="none" stroke-width="1"/><path id="eo6dhn46x6jc66" d="M190.600000,267.700000L173.500000,259.200000C173,259,172.500000,259,172,259.200000L154.900000,267.700000C154.300000,268,153.900000,268.600000,154,269.300000C154.200000,272.300000,154.700000,276.800000,156.200000,281.700000C159.100000,291.400000,164.500000,298.200000,172.100000,302C172.300000,302.100000,172.600000,302.200000,172.900000,302.200000C173.200000,302.200000,173.400000,302.100000,173.700000,302C181.300000,298.200000,186.600000,291.400000,189.600000,281.700000C191.100000,276.900000,191.600000,272.300000,191.800000,269.300000C191.600000,268.600000,191.200000,268,190.600000,267.700000ZM186.100000,280.700000C183.600000,289.100000,179.100000,295.100000,172.700000,298.500000C166.400000,295.100000,161.900000,289.100000,159.300000,280.700000C158.100000,276.700000,157.600000,273,157.300000,270.200000L172.600000,262.500000L187.900000,270.200000C187.800000,273,187.300000,276.700000,186.100000,280.700000Z" fill="rgb(234,0,0)" stroke="none" stroke-width="1"/></g></g></g><path id="eo6dhn46x6jc67" d="" fill="rgb(0,35,35)" stroke="none" stroke-width="1"/><g id="eo6dhn46x6jc68" transform="matrix(1 0 0 1 56.19999695000004 -115.94999999999999)"><g id="eo6dhn46x6jc69"><g id="eo6dhn46x6jc70"/></g><g id="eo6dhn46x6jc71"><g id="eo6dhn46x6jc72"/></g><g id="eo6dhn46x6jc73"><g id="eo6dhn46x6jc74"/></g><g id="eo6dhn46x6jc75"><g id="eo6dhn46x6jc76"/></g><g id="eo6dhn46x6jc77"><g id="eo6dhn46x6jc78"/></g><g id="eo6dhn46x6jc79"><g id="eo6dhn46x6jc80"/></g><g id="eo6dhn46x6jc81"><g id="eo6dhn46x6jc82"/></g></g><g id="eo6dhn46x6jc83" transform="matrix(0.09717949707206 0 0 0.09717949707206 165.68291362283225 23.11439763326488)"><g id="eo6dhn46x6jc84"><g id="eo6dhn46x6jc85"/></g><g id="eo6dhn46x6jc86"><g id="eo6dhn46x6jc87"/></g><g id="eo6dhn46x6jc88"><g id="eo6dhn46x6jc89"/></g><g id="eo6dhn46x6jc90"><g id="eo6dhn46x6jc91"/></g><g id="eo6dhn46x6jc92"><g id="eo6dhn46x6jc93"/></g></g><g id="eo6dhn46x6jc94_ts" transform="translate(181.101445,53.572827) scale(0.093654,0.093654)"><g id="eo6dhn46x6jc94" transform="translate(-256.050000,-256.050000)"><g id="eo6dhn46x6jc95"><path id="eo6dhn46x6jc96" d="M459.400000,132.900000L330.900000,4.400000C328.100000,1.600000,324.300000,0,320.300000,0L103.400000,0C72.900000,0,48.200000,24.700000,48.200000,55.200000L48.200000,456.900000C48.200000,487.300000,72.900000,512.100000,103.400000,512.100000L408.700000,512.100000C439.100000,512.100000,463.900000,487.400000,463.900000,456.900000L463.900000,143.500000C463.800000,139.600000,462.200000,135.700000,459.400000,132.900000L459.400000,132.900000ZM335.300000,51.200000L412.600000,128.500000L360.400000,128.500000C346.500000,128.500000,335.200000,117.200000,335.200000,103.300000L335.200000,51.200000ZM408.600000,482L103.400000,482C89.500000,482,78.200000,470.700000,78.200000,456.800000L78.200000,55.200000C78.200000,41.300000,89.500000,30,103.400000,30L305.300000,30L305.300000,103.400000C305.300000,133.800000,330,158.600000,360.500000,158.600000L433.900000,158.600000L433.900000,456.900000C433.800000,470.700000,422.500000,482,408.600000,482L408.600000,482Z" fill="rgb(0,35,35)" stroke="none" stroke-width="1"/><path id="eo6dhn46x6jc97" d="M191.700000,224.900000L127.400000,224.900000C119.100000,224.900000,112.400000,231.600000,112.400000,239.900000L112.400000,304.200000C112.400000,312.500000,119.100000,319.200000,127.400000,319.200000L191.700000,319.200000C200,319.200000,206.700000,312.500000,206.700000,304.200000L206.700000,239.900000C206.700000,231.600000,200,224.900000,191.700000,224.900000L191.700000,224.900000ZM176.700000,289.200000L142.400000,289.200000L142.400000,254.900000L176.700000,254.900000L176.700000,289.200000Z" fill="rgb(0,35,35)" stroke="none" stroke-width="1"/><path id="eo6dhn46x6jc98" d="M191.700000,353.500000L127.400000,353.500000C119.100000,353.500000,112.400000,360.200000,112.400000,368.500000L112.400000,432.800000C112.400000,441.100000,119.100000,447.800000,127.400000,447.800000L191.700000,447.800000C200,447.800000,206.700000,441.100000,206.700000,432.800000L206.700000,368.500000C206.700000,360.200000,200,353.500000,191.700000,353.500000ZM176.700000,417.700000L142.400000,417.700000L142.400000,383.400000L176.700000,383.400000L176.700000,417.700000Z" fill="rgb(234,0,0)" stroke="none" stroke-width="1"/><path id="eo6dhn46x6jc99" d="M241,239.900000C241,248.200000,247.700000,254.900000,256,254.900000L320.300000,254.900000C328.600000,254.900000,335.300000,248.200000,335.300000,239.900000C335.300000,231.600000,328.600000,224.900000,320.300000,224.900000L256,224.900000C247.700000,224.900000,241,231.600000,241,239.900000Z" fill="rgb(234,0,0)" stroke="none" stroke-width="1"/><path id="eo6dhn46x6jc100" d="M384.500000,289.200000L256,289.200000C247.700000,289.200000,241,295.900000,241,304.200000C241,312.500000,247.700000,319.200000,256,319.200000L384.500000,319.200000C392.800000,319.200000,399.500000,312.500000,399.500000,304.200000C399.500000,295.900000,392.800000,289.200000,384.500000,289.200000Z" fill="rgb(0,35,35)" stroke="none" stroke-width="1"/><path id="eo6dhn46x6jc101" d="M256,383.500000L320.300000,383.500000C328.600000,383.500000,335.300000,376.800000,335.300000,368.500000C335.300000,360.200000,328.600000,353.500000,320.300000,353.500000L256,353.500000C247.700000,353.500000,241,360.200000,241,368.500000C241,376.800000,247.700000,383.500000,256,383.500000Z" fill="rgb(234,0,0)" stroke="none" stroke-width="1"/><path id="eo6dhn46x6jc102" d="M384.500000,417.700000L256,417.700000C247.700000,417.700000,241,424.400000,241,432.700000C241,441,247.700000,447.700000,256,447.700000L384.500000,447.700000C392.800000,447.700000,399.500000,441,399.500000,432.700000C399.500000,424.400000,392.800000,417.700000,384.500000,417.700000Z" fill="rgb(0,35,35)" stroke="none" stroke-width="1"/><path id="eo6dhn46x6jc103" d="M127.500000,110.300000L207.800000,110.300000C216.100000,110.300000,222.800000,103.600000,222.800000,95.300000C222.800000,87,216.100000,80.300000,207.800000,80.300000L127.500000,80.300000C119.200000,80.300000,112.500000,87,112.500000,95.300000C112.500000,103.600000,119.200000,110.300000,127.500000,110.300000Z" fill="rgb(234,0,0)" stroke="none" stroke-width="1"/><path id="eo6dhn46x6jc104" d="M127.500000,174.600000L256,174.600000C264.300000,174.600000,271,167.900000,271,159.600000C271,151.300000,264.300000,144.600000,256,144.600000L127.500000,144.600000C119.200000,144.600000,112.500000,151.300000,112.500000,159.600000C112.500000,167.900000,119.200000,174.600000,127.500000,174.600000Z" fill="rgb(0,35,35)" stroke="none" stroke-width="1"/></g></g></g></svg>