<?xml version="1.0" encoding="utf-8"?>
<!-- Generator: Adobe Illustrator 21.1.0, SVG Export Plug-In . SVG Version: 6.00 Build 0)  -->
<svg version="1.1" id="Layer_1" xmlns="http://www.w3.org/2000/svg" xmlns:xlink="http://www.w3.org/1999/xlink" x="0px" y="0px"
	 viewBox="0 0 260 260" style="enable-background:new 0 0 260 260;" xml:space="preserve">
<style type="text/css">
	.st0{fill:#000000;}
</style>
<g>
	<g>
		<path class="st0" d="M252.7,59c-1.8-3.2-4.8-4.8-9-4.8c-24.4,0-48.7,0.2-73.1,0c-6.2,0-9.9,2.3-12.6,7.6
			c-6.2,11-12.6,22.1-19.1,33.1c-2.8,4.6-5.3,9.4-8,14c-0.2,0.5-0.5,0.7-0.9,0.9c-0.2-0.2-0.7-0.5-0.9-0.9c-2.8-4.6-5.3-9.4-8-14
			c-6.4-11-12.9-22.1-19.1-33.1c-2.8-5.3-6.4-7.6-12.6-7.6c-24.4,0.2-48.7,0-73.1,0c-3.9,0-6.9,1.6-9,4.8c-1.8,3.4-1.6,6.9,0.5,10.3
			c2.8,4.6,5.5,9.4,8.3,14c7.6,13.1,14.9,26.2,22.5,39.1c7.8,13.8,15.9,27.3,23.9,41.1c7.1,12.2,14.2,24.6,21.4,36.8
			c1.8,3.4,4.8,5.1,8.7,4.8s6.4-2.1,8.3-5.5c1.8-3.4,3.7-6.7,5.7-9.9c6.2-11,12.6-21.8,19.1-32.9c1.4-2.5,3-4.8,4.6-7.6
			c1.6,2.8,3,5.3,4.6,7.6c6.4,11,12.6,21.8,19.1,32.9c1.8,3.2,3.9,6.7,5.7,9.9c1.8,3.2,4.6,5.3,8.3,5.5c3.9,0.2,6.9-1.6,8.7-4.8
			c7.1-12.2,14.2-24.6,21.4-36.8c8-13.8,15.9-27.3,23.9-41.1c7.6-13.1,14.9-26.2,22.5-39.1c2.8-4.8,5.5-9.4,8.3-14
			C254.3,65.9,254.5,62.4,252.7,59z M118.5,131.6c-7.1,12.6-14.5,25.1-21.6,37.5c-1.4,2.3-2.8,4.8-4.6,7.6
			c-20-34.5-39.5-68.7-59.5-103.2c1.1,0,1.8-0.2,2.5-0.2c16.3,0,32.4,0,48.7-0.2c1.8,0,2.8,0.5,3.7,2.1
			c8.7,15.2,17.5,30.3,26.2,45.5c1.4,2.5,3,5.1,4.4,7.6C118.9,129.1,118.9,130.7,118.5,131.6z M168.1,176.7c-1.6-3-3.2-5.3-4.6-7.6
			c-7.1-12.4-14.5-25.1-21.6-37.5c-0.5-0.9-0.5-2.3,0-3.2c1.4-2.5,3-5.1,4.4-7.6c8.7-15.2,17.5-30.3,26.2-45.5
			c0.9-1.6,1.8-2.1,3.7-2.1c16.3,0,32.4,0,48.7,0.2c0.7,0,1.6,0,2.5,0.2C207.7,108,187.9,142.2,168.1,176.7z"/>
	</g>
</g>
</svg>
