<?xml version="1.0" encoding="utf-8"?>
<!-- Generator: Adobe Illustrator 24.2.1, SVG Export Plug-In . SVG Version: 6.00 Build 0)  -->
<svg version="1.1" id="Layer_1" xmlns="http://www.w3.org/2000/svg" xmlns:xlink="http://www.w3.org/1999/xlink" x="0px" y="0px"
	 viewBox="0 0 458 121" style="enable-background:new 0 0 458 121;" xml:space="preserve">
<style type="text/css">
	.st0{fill-rule:evenodd;clip-rule:evenodd;fill:#910000;}
	.st1{fill-rule:evenodd;clip-rule:evenodd;fill:#A80000;}
	.st2{fill-rule:evenodd;clip-rule:evenodd;fill:#BF0000;}
	.st3{fill-rule:evenodd;clip-rule:evenodd;fill:#F40000;}
	.st4{fill:#FFFFFF;}
	.st5{fill:#F40000;}
</style>
<polygon class="st0" points="26.5,54 39.6,54 53.5,82.3 40.4,82.3 26.5,54 "/>
<polygon class="st1" points="53.3,46.7 66.3,46.7 53.5,82.3 40.4,82.3 53.3,46.7 "/>
<polygon class="st2" points="53.3,46.7 66.3,46.7 81.2,82.3 68.1,82.3 53.3,46.7 "/>
<polygon class="st3" points="81.2,82.3 68.1,82.3 83.4,38.9 96.3,38.9 81.2,82.3 "/>
<path class="st4" d="M60.9,119.5c-32.7,0-59.2-26.6-59.2-59.2S28.3,1,60.9,1s59.2,26.6,59.2,59.2S93.6,119.5,60.9,119.5z M60.9,12
	c-26.6,0-48.2,21.6-48.2,48.2c0,26.6,21.6,48.2,48.2,48.2s48.2-21.6,48.2-48.2C109.2,33.6,87.5,12,60.9,12z"/>
<g>
	<path class="st4" d="M210.6,35l-14.9,46.8h-13l-9.3-21l-9.1,21h-13L136.1,35H153l7.1,24.6l11.1-24.4h4.4l11.7,24.7l7-24.8H210.6z"
		/>
	<path class="st4" d="M264.6,35v46.8h-12.5l-1.4-3.3c-3.8,3.1-8.7,4.9-14.1,4.9c-14.3,0-24.6-10.4-24.6-25
		c0-14.5,10.2-24.8,24.6-24.8c5.5,0,10.4,1.8,14.3,5l1.6-3.6L264.6,35z M249.2,58.4c0-6.1-4.4-10.6-10.5-10.6
		c-6.1,0-10.5,4.6-10.5,10.6c0,6.1,4.4,10.7,10.5,10.7S249.2,64.5,249.2,58.4z"/>
	<path class="st4" d="M323.2,35v41.6c0,14.7-9.6,23.8-25.1,23.8c-13.3,0-22.6-6.7-24.7-17.8h15.6c1.1,3.1,5.1,4.8,9,4.8
		c5.4,0,9.7-3.4,9.7-9v-1.4c-3.5,2.2-7.7,3.5-12.2,3.5c-13.4,0-23.4-10-23.4-23.5c0-13.3,10-23.5,23.4-23.5c5.7,0,10.8,2,14.8,5.4
		l2-3.9L323.2,35z M298.1,67.3c5.8,0,10-4.3,10-10.3c0-5.9-4.2-10.2-10-10.2c-5.8,0-10,4.3-10,10.2C288.1,63,292.3,67.3,298.1,67.3
		L298.1,67.3z"/>
	<path class="st4" d="M381.6,58c0,1.4-0.1,2.8-0.3,4.3h-34.8c1.1,5.4,4.5,8.1,9.6,8.1c3.8,0,6.9-1.6,8.5-4.4h16
		c-3.3,10.7-12.8,17.4-24.5,17.4c-14.6,0-25.4-10.7-25.4-25c0-14.4,10.7-24.9,25.4-24.9C371.1,33.5,381.6,44.2,381.6,58L381.6,58z
		 M346.8,53.3h18.9c-1.4-4.7-4.8-7.2-9.7-7.2C351.4,46.1,348.1,48.7,346.8,53.3z"/>
	<path class="st4" d="M419.4,34.8v14.8h-6.3c-5.7,0-8.1,2.5-8.1,8.5v23.8h-16.1V35h10.8l2.5,5.2c3.3-3.8,7.3-5.4,12.9-5.4H419.4z"/>
	<path class="st5" d="M456,34.8v14.8h-6.3c-5.7,0-8.1,2.5-8.1,8.5v23.8h-16.1V35h10.8l2.5,5.2c3.3-3.8,7.3-5.4,12.9-5.4H456z"/>
</g>
</svg>
