<?xml version="1.0" encoding="utf-8"?>
<!-- Generator: Adobe Illustrator 24.2.1, SVG Export Plug-In . SVG Version: 6.00 Build 0)  -->
<svg version="1.1" id="Layer_1" xmlns="http://www.w3.org/2000/svg" xmlns:xlink="http://www.w3.org/1999/xlink" x="0px" y="0px"
	 viewBox="0 0 484 150" style="enable-background:new 0 0 484 150;" xml:space="preserve">
<style type="text/css">
	.st0{fill-rule:evenodd;clip-rule:evenodd;fill:#910000;}
	.st1{fill-rule:evenodd;clip-rule:evenodd;fill:#A80000;}
	.st2{fill-rule:evenodd;clip-rule:evenodd;fill:#BF0000;}
	.st3{fill-rule:evenodd;clip-rule:evenodd;fill:#F40000;}
	.st4{fill:#FFFFFF;}
	.st5{fill:#F40000;}
</style>
<polygon class="st0" points="37.5,69 50.6,69 64.5,97.3 51.4,97.3 37.5,69 "/>
<polygon class="st1" points="64.3,61.7 77.3,61.7 64.5,97.3 51.4,97.3 64.3,61.7 "/>
<polygon class="st2" points="64.3,61.7 77.3,61.7 92.2,97.3 79.1,97.3 64.3,61.7 "/>
<polygon class="st3" points="92.2,97.3 79.1,97.3 94.4,53.9 107.3,53.9 92.2,97.3 "/>
<path class="st4" d="M71.9,134.5c-32.7,0-59.2-26.6-59.2-59.2S39.3,16,71.9,16s59.2,26.6,59.2,59.2S104.6,134.5,71.9,134.5z
	 M71.9,27c-26.6,0-48.2,21.6-48.2,48.2c0,26.6,21.6,48.2,48.2,48.2s48.2-21.6,48.2-48.2C120.2,48.6,98.5,27,71.9,27z"/>
<g>
	<path class="st4" d="M221.6,50l-14.9,46.8h-13l-9.3-21l-9.1,21h-13L147.1,50H164l7.1,24.6l11.1-24.4h4.4l11.7,24.7l7-24.8H221.6z"
		/>
	<path class="st4" d="M275.6,50v46.8h-12.5l-1.4-3.3c-3.8,3.1-8.7,4.9-14.1,4.9c-14.3,0-24.6-10.4-24.6-25
		c0-14.5,10.2-24.8,24.6-24.8c5.5,0,10.4,1.8,14.3,5l1.6-3.6L275.6,50z M260.2,73.4c0-6.1-4.4-10.6-10.5-10.6
		c-6.1,0-10.5,4.6-10.5,10.6c0,6.1,4.4,10.7,10.5,10.7S260.2,79.5,260.2,73.4z"/>
	<path class="st4" d="M334.2,50v41.6c0,14.7-9.6,23.8-25.1,23.8c-13.3,0-22.6-6.7-24.7-17.8h15.6c1.1,3.1,5.1,4.8,9,4.8
		c5.4,0,9.7-3.4,9.7-9v-1.4c-3.5,2.2-7.7,3.5-12.2,3.5c-13.4,0-23.4-10-23.4-23.5c0-13.3,10-23.5,23.4-23.5c5.7,0,10.8,2,14.8,5.4
		l2-3.9L334.2,50z M309.1,82.3c5.8,0,10-4.3,10-10.3c0-5.9-4.2-10.2-10-10.2c-5.8,0-10,4.3-10,10.2C299.1,78,303.3,82.3,309.1,82.3
		L309.1,82.3z"/>
	<path class="st4" d="M392.6,73c0,1.4-0.1,2.8-0.3,4.3h-34.8c1.1,5.4,4.5,8.1,9.6,8.1c3.8,0,6.9-1.6,8.5-4.4h16
		c-3.3,10.7-12.8,17.4-24.5,17.4c-14.6,0-25.4-10.7-25.4-25c0-14.4,10.7-24.9,25.4-24.9C382.1,48.5,392.6,59.2,392.6,73L392.6,73z
		 M357.8,68.3h18.9c-1.4-4.7-4.8-7.2-9.7-7.2C362.4,61.1,359.1,63.7,357.8,68.3z"/>
	<path class="st4" d="M430.4,49.8v14.8h-6.3c-5.7,0-8.1,2.5-8.1,8.5v23.8h-16.1V50h10.8l2.5,5.2c3.3-3.8,7.3-5.4,12.9-5.4H430.4z"/>
	<path class="st5" d="M467,49.8v14.8h-6.3c-5.7,0-8.1,2.5-8.1,8.5v23.8h-16.1V50h10.8l2.5,5.2c3.3-3.8,7.3-5.4,12.9-5.4H467z"/>
</g>
</svg>
