<svg id="e7t4321t1xjs1" xmlns="http://www.w3.org/2000/svg" xmlns:xlink="http://www.w3.org/1999/xlink" viewBox="0 0 512 512" shape-rendering="geometricPrecision" text-rendering="geometricPrecision"><style><![CDATA[#e7t4321t1xjs10_tr {animation: e7t4321t1xjs10_tr__tr 1500ms linear infinite normal forwards}@keyframes e7t4321t1xjs10_tr__tr { 0% {transform: translate(256px,256px) rotate(0deg)} 100% {transform: translate(256px,256px) rotate(360deg)} }]]></style><polygon id="e7t4321t1xjs2" points="110.700000,229.400000 165.900000,229.400000 224.700000,349 169.500000,349 110.700000,229.400000" clip-rule="evenodd" fill="rgb(145,0,0)" fill-rule="evenodd" stroke="none" stroke-width="1"/><polygon id="e7t4321t1xjs3" points="223.800000,198.400000 278.900000,198.400000 224.700000,349 169.500000,349 223.800000,198.400000" clip-rule="evenodd" fill="rgb(168,0,0)" fill-rule="evenodd" stroke="none" stroke-width="1"/><polygon id="e7t4321t1xjs4" points="223.800000,198.400000 278.900000,198.400000 341.900000,349 286.700000,349 223.800000,198.400000" clip-rule="evenodd" fill="rgb(191,0,0)" fill-rule="evenodd" stroke="none" stroke-width="1"/><polygon id="e7t4321t1xjs5" points="341.900000,349 286.700000,349 351.200000,165.300000 406,165.300000 341.900000,349" clip-rule="evenodd" fill="rgb(244,0,0)" fill-rule="evenodd" stroke="none" stroke-width="1"/><path id="e7t4321t1xjs6" d="M256.200000,506.600000C117.900000,506.600000,5.400000,394.100000,5.400000,255.800000C5.400000,117.500000,117.900000,5,256.200000,5C394.500000,5,507,117.500000,507,255.800000C507,394.100000,394.500000,506.600000,256.200000,506.600000ZM256.200000,51.500000C143.600000,51.500000,52,143.200000,52,255.800000C52,368.400000,143.600000,460,256.200000,460C368.800000,460,460.400000,368.400000,460.400000,255.800000C460.500000,143.200000,368.800000,51.500000,256.200000,51.500000Z" fill="rgb(255,255,255)" stroke="none" stroke-width="1"/><path id="e7t4321t1xjs7" d="M256.200000,506.600000C117.900000,506.600000,5.400000,394.100000,5.400000,255.800000C5.400000,117.500000,117.900000,5,256.200000,5C394.500000,5,507,117.500000,507,255.800000C507,394.100000,394.500000,506.600000,256.200000,506.600000ZM256.200000,51.500000C143.600000,51.500000,52,143.200000,52,255.800000C52,368.400000,143.600000,460,256.200000,460C368.800000,460,460.400000,368.400000,460.400000,255.800000C460.500000,143.200000,368.800000,51.500000,256.200000,51.500000Z" fill="rgb(255,255,255)" stroke="none" stroke-width="1"/><g id="e7t4321t1xjs8"><circle id="e7t4321t1xjs9" r="100" transform="matrix(1 0 0 1 161.50000000000000 161.50000000000000)" fill="rgb(255,255,255)" fill-opacity="0" stroke="none" stroke-width="1"/></g><g id="e7t4321t1xjs10_tr" transform="translate(256,256) rotate(0)"><path id="e7t4321t1xjs10" d="M256.200000,29.300000L256.200000,29.700000C256.200000,41.600000,265.200000,51.400000,277.100000,52.600000C373.100000,62.400000,449.700000,139,459.400000,235C460.600000,246.800000,470.400000,255.900000,482.300000,255.900000L482.800000,255.900000C496.400000,255.900000,507.200000,244.200000,505.800000,230.600000C493.900000,112.400000,399.600000,18.100000,281.500000,6.300000C267.900000,4.900000,256.200000,15.700000,256.200000,29.300000Z" transform="translate(-256,-256)" fill="rgb(33,33,33)" stroke="rgb(33,33,33)" stroke-width="10" stroke-linecap="round"/></g></svg>