<?xml version="1.0" encoding="utf-8"?>
<!-- Generator: Adobe Illustrator 24.2.1, SVG Export Plug-In . SVG Version: 6.00 Build 0)  -->
<svg version="1.1" id="Layer_1" xmlns="http://www.w3.org/2000/svg" xmlns:xlink="http://www.w3.org/1999/xlink" x="0px" y="0px"
	 viewBox="0 0 512 512" style="enable-background:new 0 0 512 512;" xml:space="preserve">
<style type="text/css">
	.st0{fill-rule:evenodd;clip-rule:evenodd;fill:#910000;}
	.st1{fill-rule:evenodd;clip-rule:evenodd;fill:#A80000;}
	.st2{fill-rule:evenodd;clip-rule:evenodd;fill:#BF0000;}
	.st3{fill-rule:evenodd;clip-rule:evenodd;fill:#F40000;}
	.st4{fill:#FFFFFF;}
</style>
<polygon class="st0" points="110.7,229.4 165.9,229.4 224.7,349 169.5,349 110.7,229.4 "/>
<polygon class="st1" points="223.8,198.4 278.9,198.4 224.7,349 169.5,349 223.8,198.4 "/>
<polygon class="st2" points="223.8,198.4 278.9,198.4 341.9,349 286.7,349 223.8,198.4 "/>
<polygon class="st3" points="341.9,349 286.7,349 351.2,165.3 406,165.3 341.9,349 "/>
<path class="st4" d="M256.2,506.6C117.9,506.6,5.4,394.1,5.4,255.8S117.9,5,256.2,5S507,117.5,507,255.8S394.5,506.6,256.2,506.6z
	 M256.2,51.5C143.6,51.5,52,143.2,52,255.8C52,368.4,143.6,460,256.2,460s204.2-91.6,204.2-204.2C460.5,143.2,368.8,51.5,256.2,51.5
	z"/>
</svg>
