<svg xmlns="http://www.w3.org/2000/svg" width="142.888" height="33.184" viewBox="0 0 142.888 33.184">
  <g id="wgrprimaryWhite" transform="translate(-6.358 -6.8)">
    <g id="Group_124" data-name="Group 124" transform="translate(6.358 6.8)">
      <g id="Group_123" data-name="Group 123">
        <path id="Path_52" data-name="Path 52" d="M60.566,7.861A2.1,2.1,0,0,0,58.6,6.8c-5.353,0-10.706.051-16.059,0A2.783,2.783,0,0,0,39.76,8.467c-1.364,2.424-2.778,4.848-4.192,7.272-.606,1.01-1.162,2.071-1.768,3.081a.394.394,0,0,1-.2.2c-.05-.051-.152-.1-.2-.2-.606-1.01-1.162-2.071-1.768-3.081-1.414-2.424-2.828-4.848-4.192-7.272A2.783,2.783,0,0,0,24.66,6.8c-5.353.051-10.706,0-16.059,0a2.2,2.2,0,0,0-1.97,1.061,2.172,2.172,0,0,0,.1,2.273c.606,1.01,1.212,2.071,1.818,3.081,1.667,2.879,3.283,5.757,4.949,8.585,1.717,3.03,3.485,6.01,5.252,9.04,1.566,2.677,3.131,5.4,4.7,8.08a1.9,1.9,0,0,0,1.919,1.061,2.051,2.051,0,0,0,1.818-1.212c.4-.758.808-1.465,1.263-2.172,1.364-2.424,2.778-4.8,4.192-7.222.3-.556.657-1.061,1.01-1.667.354.606.657,1.162,1.01,1.667,1.414,2.424,2.778,4.8,4.192,7.222.4.707.859,1.465,1.263,2.172a2.21,2.21,0,0,0,1.818,1.212,1.98,1.98,0,0,0,1.919-1.061c1.566-2.677,3.131-5.4,4.7-8.08,1.768-3.03,3.485-6.01,5.252-9.04,1.667-2.879,3.283-5.757,4.949-8.585.606-1.061,1.212-2.071,1.818-3.081A2.415,2.415,0,0,0,60.566,7.861ZM31.074,23.819c-1.566,2.778-3.182,5.5-4.747,8.232-.3.505-.606,1.061-1.01,1.667-4.394-7.575-8.686-15.1-13.08-22.675.253,0,.4-.051.556-.051,3.586,0,7.121,0,10.706-.051a.78.78,0,0,1,.808.455l5.757,10c.3.556.657,1.111.96,1.667A.81.81,0,0,1,31.074,23.819Zm10.908,9.9c-.354-.657-.707-1.162-1.01-1.667-1.566-2.727-3.182-5.5-4.747-8.232a.863.863,0,0,1,0-.707c.3-.556.657-1.111.96-1.667l5.757-10a.78.78,0,0,1,.808-.455c3.586,0,7.121,0,10.706.051a2.265,2.265,0,0,1,.556.051Q48.5,22.379,41.982,33.717Z" transform="translate(-6.358 -6.8)" fill="#fff"/>
      </g>
    </g>
    <g id="Group_126" data-name="Group 126" transform="translate(48.8 13.466)">
      <g id="Group_125" data-name="Group 125">
        <path id="Path_53" data-name="Path 53" d="M104.944,20.5h-2.323L90.4,41.71h6.111l1.515-3.737h8.131l1.515,3.737h6.262ZM99.692,33.428l2.374-5.959,2.323,5.959Z" transform="translate(-90.4 -20.247)" fill="#fff"/>
        <path id="Path_54" data-name="Path 54" d="M144.564,41.867a11.94,11.94,0,0,1-4.545-.808,11.537,11.537,0,0,1-3.636-2.222,11.129,11.129,0,0,1-2.424-3.434,10.345,10.345,0,0,1-.859-4.394v-.05a11.227,11.227,0,0,1,.859-4.293,11.689,11.689,0,0,1,2.323-3.485,10.232,10.232,0,0,1,3.586-2.323A12.067,12.067,0,0,1,144.362,20a12.387,12.387,0,0,1,4.8.808,13.212,13.212,0,0,1,3.687,2.273l-3.434,4.091a8.918,8.918,0,0,0-2.323-1.465,6.734,6.734,0,0,0-2.727-.505,5,5,0,0,0-2.121.455,5.881,5.881,0,0,0-1.717,1.212,5.611,5.611,0,0,0-1.162,1.818,5.678,5.678,0,0,0-.4,2.273v.05a6.79,6.79,0,0,0,.4,2.323,5.674,5.674,0,0,0,1.212,1.869,5.8,5.8,0,0,0,4.141,1.667,6.343,6.343,0,0,0,3.384-.859V33.433h-4.141V29.191h9.7v9.444a14.553,14.553,0,0,1-3.99,2.323A13.145,13.145,0,0,1,144.564,41.867Z" transform="translate(-111.536 -20)" fill="#fff"/>
        <path id="Path_55" data-name="Path 55" d="M177.2,20.8h16.867v4.949H182.907v3.182h10.1v4.6h-10.1v3.333h11.312v4.949H177.2Z" transform="translate(-133.365 -20.396)" fill="#fff"/>
        <path id="Path_56" data-name="Path 56" d="M214.8,20.8h9.949a12.047,12.047,0,0,1,4.091.606,7.33,7.33,0,0,1,2.727,1.667,6.432,6.432,0,0,1,1.869,4.9v.05a6.826,6.826,0,0,1-1.162,4.04,7.2,7.2,0,0,1-3.131,2.424l5,7.323h-6.717l-4.242-6.363h-2.525v6.363H214.85V20.8Zm9.7,10.1a3.537,3.537,0,0,0,2.323-.657,2.209,2.209,0,0,0,.808-1.818v-.05a2.152,2.152,0,0,0-.859-1.869,3.854,3.854,0,0,0-2.323-.606h-3.838v5.05H224.5Z" transform="translate(-151.977 -20.396)" fill="#fff"/>
      </g>
    </g>
    <path id="Path_57" data-name="Path 57" d="M265.342,35.086a7.2,7.2,0,0,0,3.131-2.424,6.826,6.826,0,0,0,1.162-4.04v-.051a6.432,6.432,0,0,0-1.869-4.9,7.331,7.331,0,0,0-2.727-1.667,12.047,12.047,0,0,0-4.091-.606H251v1.162a6.576,6.576,0,0,1,1.465,1.111,6.432,6.432,0,0,1,1.869,4.9v.051a6.826,6.826,0,0,1-1.161,4.04A7.252,7.252,0,0,1,251,34.581V36.5l4.04,5.909h1.818V36.045h2.576l4.192,6.363h6.717Zm-1.566-6.111a2.209,2.209,0,0,1-.808,1.818,3.537,3.537,0,0,1-2.323.657h-3.838V26.4h3.838a3.96,3.96,0,0,1,2.323.606,2.215,2.215,0,0,1,.859,1.869v.1Z" transform="translate(-121.096 -7.227)" fill="#e80000"/>
  </g>
</svg>
