<svg id="eqfhllt5sb3m1" xmlns="http://www.w3.org/2000/svg" xmlns:xlink="http://www.w3.org/1999/xlink" viewBox="0 0 300 100" shape-rendering="geometricPrecision" text-rendering="geometricPrecision"><style><![CDATA[#eqfhllt5sb3m2_tr {animation: eqfhllt5sb3m2_tr__tr 3500ms linear infinite normal forwards}@keyframes eqfhllt5sb3m2_tr__tr { 0% {transform: translate(150px,50px) rotate(0deg)} 100% {transform: translate(150px,50px) rotate(720deg)} }#eqfhllt5sb3m9_to {animation: eqfhllt5sb3m9_to__to 3500ms linear infinite normal forwards}@keyframes eqfhllt5sb3m9_to__to { 0% {transform: translate(54.092067px,50px)} 14.285714% {transform: translate(54.092067px,50px)} 42.857143% {transform: translate(239.762385px,48.728639px)} 57.142857% {transform: translate(239.762385px,48.728639px)} 85.714286% {transform: translate(54.092067px,50px)} 100% {transform: translate(54.092067px,50px)} }#eqfhllt5sb3m9 {animation: eqfhllt5sb3m9_c_o 3500ms linear infinite normal forwards}@keyframes eqfhllt5sb3m9_c_o { 0% {opacity: 1} 14.285714% {opacity: 1} 22.857143% {opacity: 1} 25.714286% {opacity: 0} 31.428571% {opacity: 0} 34.285714% {opacity: 1} 42.857143% {opacity: 1} 57.142857% {opacity: 1} 65.714286% {opacity: 1} 68.571429% {opacity: 0} 74.285714% {opacity: 0} 77.142857% {opacity: 1} 85.714286% {opacity: 1} 100% {opacity: 1} }#eqfhllt5sb3m16_to {animation: eqfhllt5sb3m16_to__to 3500ms linear infinite normal forwards}@keyframes eqfhllt5sb3m16_to__to { 0% {transform: translate(242.957599px,50.197897px)} 14.285714% {transform: translate(242.957599px,50.197897px)} 42.857143% {transform: translate(54.092067px,51.273152px)} 57.142857% {transform: translate(54.092067px,51.273152px)} 85.714286% {transform: translate(242.957599px,50.197897px)} 100% {transform: translate(242.957599px,50.197897px)} }#eqfhllt5sb3m16 {animation: eqfhllt5sb3m16_c_o 3500ms linear infinite normal forwards}@keyframes eqfhllt5sb3m16_c_o { 0% {opacity: 1} 14.285714% {opacity: 1} 22.857143% {opacity: 1} 25.714286% {opacity: 0} 31.428571% {opacity: 0} 34.285714% {opacity: 1} 42.857143% {opacity: 1} 57.142857% {opacity: 1} 65.714286% {opacity: 1} 68.571429% {opacity: 0} 74.285714% {opacity: 0} 77.142857% {opacity: 1} 85.714286% {opacity: 1} 100% {opacity: 1} }]]></style><g id="eqfhllt5sb3m2_tr" transform="translate(150,50) rotate(0)"><g id="eqfhllt5sb3m2" transform="scale(0.114293,0.114293) translate(-367.168417,-148.005447)"><g id="eqfhllt5sb3m3"><g id="eqfhllt5sb3m4"><path id="eqfhllt5sb3m5" d="M451.115000,291.170000C451.183000,290.792000,451.249000,290.413000,451.316000,290.034000C451.613000,288.328000,451.888000,286.618000,452.140000,284.904000C452.253000,284.138000,452.367000,283.373000,452.471000,282.605000C452.594000,281.693000,452.713000,280.780000,452.823000,279.866000C452.970000,278.658000,453.105000,277.447000,453.229000,276.234000C453.329000,275.257000,453.420000,274.278000,453.506000,273.299000C453.599000,272.245000,453.683000,271.190000,453.759000,270.133000C453.813000,269.380000,453.870000,268.627000,453.915000,267.873000C454.006000,266.357000,454.077000,264.836000,454.134000,263.313000C454.163000,262.541000,454.183000,261.768000,454.203000,260.995000C454.233000,259.826000,454.250000,258.655000,454.259000,257.482000C454.263000,256.987000,454.283000,256.493000,454.283000,255.998000C454.283000,254.347000,454.255000,252.700000,454.214000,251.056000C454.213000,251.027000,454.212000,250.998000,454.211000,250.969000C454.175000,249.530000,454.121000,248.095000,454.054000,246.662000C454.036000,246.263000,454.016000,245.865000,453.995000,245.467000C453.943000,244.498000,453.884000,243.530000,453.818000,242.564000C453.772000,241.874000,453.728000,241.184000,453.675000,240.495000C453.659000,240.291000,453.639000,240.088000,453.623000,239.884000C449.879000,192.979000,429.828000,149.400000,396.190000,115.778000C395.904000,115.491000,395.601000,115.233000,395.299000,114.972000C374.999000,94.882000,350.223000,79.009000,322.175000,69.080000C313.620000,66.045000,304.292000,70.527000,301.266000,79.055000C298.249000,87.575000,302.713000,96.946000,311.241000,99.964000C372.756000,121.746000,415.442000,177.735000,420.922000,241.938000C420.956000,242.350000,420.996000,242.760000,421.028000,243.172000C421.064000,243.629000,421.091000,244.088000,421.123000,244.546000C421.187000,245.484000,421.247000,246.422000,421.295000,247.363000C421.307000,247.596000,421.318000,247.830000,421.330000,248.063000C421.453000,250.695000,421.519000,253.337000,421.519000,255.989000C421.519000,256.475000,421.509000,256.958000,421.505000,257.443000C421.497000,258.322000,421.485000,259.201000,421.463000,260.079000C421.446000,260.771000,421.427000,261.462000,421.401000,262.152000C421.355000,263.394000,421.297000,264.635000,421.222000,265.875000C421.183000,266.527000,421.134000,267.177000,421.087000,267.828000C421.025000,268.693000,420.955000,269.557000,420.880000,270.421000C420.811000,271.211000,420.739000,272,420.659000,272.787000C420.551000,273.844000,420.432000,274.900000,420.304000,275.955000C420.215000,276.685000,420.121000,277.413000,420.023000,278.140000C419.921000,278.895000,419.809000,279.648000,419.697000,280.402000C419.508000,281.665000,419.306000,282.924000,419.089000,284.178000C419.012000,284.624000,418.933000,285.071000,418.853000,285.516000C408.372000,343.102000,367.750000,391.979000,311.243000,411.998000C302.714000,415.007000,298.250000,424.378000,301.268000,432.907000C303.646000,439.625000,309.965000,443.823000,316.710000,443.823000C318.520000,443.823000,320.366000,443.521000,322.168000,442.882000C368.013000,426.650000,405.122000,394.557000,428.205000,354.110000C428.592000,353.580000,428.957000,353.026000,429.285000,352.439000C439.907000,333.380000,447.254000,312.624000,451.115000,291.170000Z" transform="matrix(1 0 0 1 111.17341683122982 -107.98914699023862)" fill="rgb(0,0,0)" stroke="none" stroke-width="1"/><path id="eqfhllt5sb3m6" d="M271.605000,48.391000L181.491000,1.826000C173.433000,-2.319000,163.564000,0.832000,159.420000,8.864000C155.258000,16.905000,158.417000,26.782000,166.449000,30.935000L242.017000,69.975000L201.815000,147.824000C197.662000,155.856000,200.821000,165.742000,208.862000,169.895000C211.267000,171.137000,213.832000,171.723000,216.361000,171.723000C222.298000,171.723000,228.022000,168.484000,230.942000,162.848000L278.644000,70.453000C282.796000,62.422000,279.637000,52.545000,271.605000,48.391000Z" transform="matrix(1 0 0 1 111.17341683122982 -107.98914699023859)" fill="rgb(244,0,0)" stroke="none" stroke-width="1"/><path id="eqfhllt5sb3m7" d="M200.758000,411.988000C134.792000,388.630000,90.472000,325.948000,90.472000,255.988000C90.472000,252.527000,90.579000,249.077000,90.792000,245.641000C90.794000,245.606000,90.797000,245.571000,90.799000,245.535000C90.863000,244.511000,90.938000,243.489000,91.021000,242.467000C91.059000,242.009000,91.102000,241.552000,91.143000,241.094000C91.195000,240.517000,91.247000,239.940000,91.304000,239.365000C91.384000,238.578000,91.470000,237.793000,91.560000,237.009000C91.585000,236.788000,91.610000,236.566000,91.636000,236.345000C99.048000,174.497000,141.033000,121.100000,200.749000,99.952000C209.278000,96.943000,213.742000,87.572000,210.724000,79.043000C207.707000,70.506000,198.362000,66.033000,189.815000,69.068000C132.521000,89.354000,88.874000,134.412000,69.195000,189.602000C68.943000,190.138000,68.713000,190.691000,68.516000,191.264000C62.611000,208.388000,59.113000,226.160000,58.055000,244.240000C58.051000,244.304000,58.049000,244.368000,58.045000,244.431000C57.975000,245.643000,57.913000,246.856000,57.865000,248.071000C57.846000,248.538000,57.837000,249.007000,57.822000,249.475000C57.795000,250.311000,57.764000,251.148000,57.748000,251.985000C57.721000,253.316000,57.707000,254.650000,57.707000,255.986000C57.707000,257.311000,57.721000,258.633000,57.747000,259.953000C58.577000,302.937000,72.886000,343.496000,99.285000,377.481000C99.642000,377.942000,100.025000,378.369000,100.419000,378.780000C123.097000,407.524000,153.752000,430.109000,189.816000,442.878000C191.626000,443.517000,193.472000,443.819000,195.283000,443.819000C202.028000,443.819000,208.347000,439.612000,210.734000,432.894000C213.751000,424.377000,209.287000,415.006000,200.758000,411.988000Z" transform="matrix(1 0 0 1 111.17341683122987 -107.98914699023862)" fill="rgb(0,0,0)" stroke="none" stroke-width="1"/><path id="eqfhllt5sb3m8" d="M345.522000,481.034000L269.963000,442.021000L310.148000,364.154000C314.301000,356.114000,311.142000,346.236000,303.101000,342.083000C295.052000,337.912000,285.183000,341.107000,281.030000,349.130000L233.328000,441.551000C229.175000,449.591000,232.334000,459.469000,240.375000,463.622000L330.489000,510.161000C332.894000,511.403000,335.459000,511.989000,337.988000,511.989000C343.925000,511.989000,349.649000,508.759000,352.569000,503.105000C356.722000,495.073000,353.563000,485.187000,345.522000,481.034000Z" transform="matrix(1 0 0 1 111.17341683122982 -107.98914699023868)" fill="rgb(244,0,0)" stroke="none" stroke-width="1"/></g></g></g></g><g id="eqfhllt5sb3m9_to" transform="translate(54.092067,50)"><g id="eqfhllt5sb3m9" transform="scale(0.146591,0.146591) translate(-256.200003,-255.800003)"><ellipse id="eqfhllt5sb3m10" rx="221" ry="221.500000" transform="matrix(1 0 0 1 259 252.50000000000000)" clip-rule="evenodd" fill="rgb(255,255,255)" fill-rule="evenodd" stroke="none" stroke-width="1"/><polygon id="eqfhllt5sb3m11" points="110.700000,229.400000 165.900000,229.400000 224.700000,349 169.500000,349" clip-rule="evenodd" fill="rgb(145,0,0)" fill-rule="evenodd" stroke="none" stroke-width="1"/><polygon id="eqfhllt5sb3m12" points="223.800000,198.400000 278.900000,198.400000 224.700000,349 169.500000,349" clip-rule="evenodd" fill="rgb(168,0,0)" fill-rule="evenodd" stroke="none" stroke-width="1"/><polygon id="eqfhllt5sb3m13" points="223.800000,198.400000 278.900000,198.400000 341.900000,349 286.700000,349" clip-rule="evenodd" fill="rgb(191,0,0)" fill-rule="evenodd" stroke="none" stroke-width="1"/><polygon id="eqfhllt5sb3m14" points="341.900000,349 286.700000,349 351.200000,165.300000 406,165.300000" clip-rule="evenodd" fill="rgb(244,0,0)" fill-rule="evenodd" stroke="none" stroke-width="1"/><path id="eqfhllt5sb3m15" d="M256.200000,506.600000C117.900000,506.600000,5.400000,394.100000,5.400000,255.800000C5.400000,117.500000,117.900000,5,256.200000,5C394.500000,5,507,117.500000,507,255.800000C507,394.100000,394.500000,506.600000,256.200000,506.600000ZM256.200000,51.500000C143.600000,51.500000,52,143.200000,52,255.800000C52,368.400000,143.600000,460,256.200000,460C368.800000,460,460.400000,368.400000,460.400000,255.800000C460.500000,143.200000,368.800000,51.500000,256.200000,51.500000Z" fill="rgb(33,33,33)" stroke="none" stroke-width="1"/></g></g><g id="eqfhllt5sb3m16_to" transform="translate(242.957599,50.197897)"><g id="eqfhllt5sb3m16" transform="scale(0.150573,0.150573) translate(-256.400006,-256.550009)"><polygon id="eqfhllt5sb3m17" points="469.300000,256 256.800000,468.600000 44.200000,256 122.900000,177.400000 256.400000,310.900000 390.300000,177" clip-rule="evenodd" fill="rgb(244,0,0)" fill-rule="evenodd" stroke="none" stroke-width="1"/><polygon id="eqfhllt5sb3m18" points="390.300000,177 256.400000,310.900000 122.900000,177.400000 192.500000,107.800000 258.300000,173.600000 322.600000,109.300000" clip-rule="evenodd" fill="rgb(191,0,0)" fill-rule="evenodd" stroke="none" stroke-width="1"/><g id="eqfhllt5sb3m19"><polygon id="eqfhllt5sb3m20" points="468.900000,256.600000 256.400000,469.100000 43.900000,256.600000 122.500000,177.900000 192.100000,108.300000 256.400000,44" clip-rule="evenodd" fill="rgb(244,0,0)" fill-rule="evenodd" stroke="none" stroke-width="1"/><path id="eqfhllt5sb3m21" d="M256.400000,507.700000L5.300000,256.500000L256.400000,5.400000L507.500000,256.500000L256.400000,507.700000ZM82.400000,256.600000L256.400000,430.600000L430.400000,256.600000L256.400000,82.600000L82.400000,256.600000Z" fill="rgb(34,34,34)" stroke="none" stroke-width="1"/></g><polygon id="eqfhllt5sb3m22" points="370.500000,188.800000 323.300000,324.300000 282.600000,324.300000 258,265.500000 236.900000,324.300000 196.200000,324.300000 152.900000,236.100000 193.600000,236.100000 213.400000,276.500000 236.200000,213.200000 276.800000,213.200000 301.200000,271.400000 330.100000,188.800000" clip-rule="evenodd" fill="rgb(255,255,255)" fill-rule="evenodd" stroke="none" stroke-width="1"/><polygon id="eqfhllt5sb3m23" points="322.600000,109.300000 258.300000,173.600000 192.500000,107.800000 256.800000,43.500000" clip-rule="evenodd" fill="rgb(145,0,0)" fill-rule="evenodd" stroke="none" stroke-width="1"/><polygon id="eqfhllt5sb3m24" points="469.300000,256 256.800000,468.600000 44.200000,256 122.900000,177.400000 256.400000,310.900000 390.300000,177" clip-rule="evenodd" fill="rgb(244,0,0)" fill-rule="evenodd" stroke="none" stroke-width="1"/><polygon id="eqfhllt5sb3m25" points="390.300000,177 256.400000,310.900000 122.900000,177.400000 189.600000,110.600000 256.700000,177.700000 323.800000,110.600000" clip-rule="evenodd" fill="rgb(191,0,0)" fill-rule="evenodd" stroke="none" stroke-width="1"/><polygon id="eqfhllt5sb3m26" points="369.200000,188.700000 322,324.100000 281.300000,324.100000 256.700000,265.400000 235.600000,324.100000 194.900000,324.100000 151.500000,236 192.200000,236 212.100000,276.400000 234.900000,213.100000 275.500000,213.100000 299.800000,271.300000 328.800000,188.700000" clip-rule="evenodd" fill="rgb(255,255,255)" fill-rule="evenodd" stroke="none" stroke-width="1"/><polygon id="eqfhllt5sb3m27" points="323.800000,110.600000 256.700000,177.700000 189.600000,110.600000 192.500000,107.800000 256.800000,43.500000" clip-rule="evenodd" fill="rgb(145,0,0)" fill-rule="evenodd" stroke="none" stroke-width="1"/></g></g></svg>