<svg id="wgrWordsRed" xmlns="http://www.w3.org/2000/svg" viewBox="0 0 116.643 37.456">
  <path id="Path_65" data-name="Path 65" d="M66.227,9.758,65.515,11.9,57.992,34.623,54.27,45.947H45.559L38.353,25.2,31.147,45.947H22.437L10.4,9.758H20.932l6.256,20.747L34.156,9.6h8.552l6.969,20.906L55.933,9.758Z" transform="translate(-10.4 -9.046)" fill="#000"/>
  <path id="Path_66" data-name="Path 66" d="M107.413,24.579V40.813a4.352,4.352,0,0,1-.713.554,10.084,10.084,0,0,1-1.5,1.029,24.473,24.473,0,0,1-3.484,1.9c-.317.158-.634.238-.95.4-.634.238-1.346.475-1.98.713a23.254,23.254,0,0,1-6.81.871,21.981,21.981,0,0,1-4.039-.317,16.218,16.218,0,0,1-1.9-.4l-.95-.238c-.317-.079-.634-.238-.871-.317a4.244,4.244,0,0,1-.871-.4c-.554-.238-1.109-.554-1.663-.792-.554-.317-1.029-.633-1.584-.95a20.986,20.986,0,0,1-2.059-1.663,19.128,19.128,0,0,1-4.118-5.86c-.079-.238-.238-.475-.317-.713h0L81.044,11.83c.079-.079.238-.158.317-.238a15.949,15.949,0,0,1,1.663-.871c.317-.158.554-.238.871-.4A20.511,20.511,0,0,1,91.655,8.9a22.951,22.951,0,0,1,6.414.792,12.31,12.31,0,0,1,1.821.634,4.244,4.244,0,0,1,.871.4c.317.158.554.238.871.4.238.158.554.238.792.4.317.158.554.317.871.475.317.238.634.4.95.634.079,0,.079.079.158.079.4.317.871.634,1.267.95.079.079.238.158.317.238l.238.238-5.86,7.048c-.317-.238-.634-.554-.95-.792a18.945,18.945,0,0,0-1.663-1.029c-.317-.158-.554-.317-.871-.475l-.475-.238a12.284,12.284,0,0,0-4.672-.871,8.159,8.159,0,0,0-3.643.792,8.436,8.436,0,0,0-2.217,1.5c-.079.079-.238.158-.317.317l-.317.317a9.863,9.863,0,0,0-2.692,6.969v.079a10.672,10.672,0,0,0,.713,3.959,8.784,8.784,0,0,0,2.059,3.168,11.589,11.589,0,0,0,2.217,1.663,2.927,2.927,0,0,0,.871.4,6.678,6.678,0,0,0,1.9.554,8.693,8.693,0,0,0,2.059.158,12.3,12.3,0,0,0,2.455-.238,8.447,8.447,0,0,0,2.138-.634,4.2,4.2,0,0,0,1.188-.634v-4.2H91.021V24.658h16.392Z" transform="translate(-23.553 -8.9)" fill="#000"/>
  <path id="Path_67" data-name="Path 67" d="M115.105,17.61l-.238.317-.079.079L111.7,21.728h6.493V46.751h6.889V35.823h4.355l7.206,10.849h11.482L139.653,34.24a12.454,12.454,0,0,0,5.385-4.2,11.264,11.264,0,0,0,1.98-6.889v-.079a11.149,11.149,0,0,0-7.84-11.245A20.374,20.374,0,0,0,132.13,10.8H120.807l-3.959,4.751-1.5,1.821Zm21.935,6.177a3.831,3.831,0,0,1-1.425,3.088,5.911,5.911,0,0,1-3.959,1.188h-6.573V19.431h6.493a6.529,6.529,0,0,1,3.959,1.029,3.733,3.733,0,0,1,1.425,3.247v.079Z" transform="translate(-31.483 -9.295)" fill="#000"/>
</svg>
