<?xml version="1.0" encoding="utf-8"?>
<!-- Generator: Adobe Illustrator 24.2.1, SVG Export Plug-In . SVG Version: 6.00 Build 0)  -->
<svg version="1.1" id="Layer_1" xmlns="http://www.w3.org/2000/svg" xmlns:xlink="http://www.w3.org/1999/xlink" x="0px" y="0px"
	 viewBox="0 0 100 100" style="enable-background:new 0 0 100 100;" xml:space="preserve">
<style type="text/css">
	.st0{fill:#FFFFFF;}
	.st1{fill:#FF0000;}
	.st2{fill:#212121;}
</style>
<g>
	<ellipse class="st0" cx="55" cy="48.1" rx="34" ry="23.9"/>
	<g>
		<path class="st1" d="M89,22.4C81.4,12.7,69.8,6.3,56.6,6h0c-1.3,0-2.6,0-3.8,0.1c-0.2,0-0.4,0-0.6,0l0,0C18.2,7.7-1.1,27.6,2,26.7
			c4-1.3,17.1-6.4,16.6,0.7l0,0c-3.6,6.2-5.6,13.5-5.6,21.2C12.9,72,31.9,91,55.4,91s42.5-19,42.5-42.5C97.9,38.6,94.6,29.6,89,22.4
			z M54.8,62.1c-17.3,0-31.3-6.4-31.3-14.2c0-7.8,14-14.2,31.3-14.2s31.3,6.4,31.3,14.2C86.1,55.6,72.1,62.1,54.8,62.1z"/>
		<path class="st2" d="M55.4,92c-24,0-43.5-19.5-43.5-43.5c0-7.6,1.9-15,5.6-21.4c0-1.1-0.4-1.5-0.7-1.8c-2.4-1.9-10.2,0.8-13.5,2
			c-0.4,0.1-0.7,0.3-1,0.4c-0.8,0.2-1.2-0.1-1.3-0.3c-0.1-0.2-0.5-0.6-0.2-1.3C1.9,23.3,21.1,6.6,52,5.2c0.3-0.1,0.5-0.1,0.7-0.1
			c1.2,0,2.4-0.1,3.8-0.1c13.1,0.3,25.2,6.5,33.2,16.8l0,0c6,7.7,9.1,17,9.1,26.7C98.9,72.5,79.4,92,55.4,92z M14.2,22.7
			c1.6,0,2.9,0.3,3.9,1c0.7,0.6,1.6,1.7,1.4,3.7l0,0.2l-0.1,0.2c-3.6,6.2-5.5,13.3-5.5,20.6C13.9,71.4,32.5,90,55.4,90
			c22.9,0,41.5-18.6,41.5-41.5c0-9.3-3-18.1-8.7-25.5C80.5,13.2,69,7.3,56.6,7C55.2,7,54,7,52.8,7.1c-0.2,0-0.3,0-0.4,0l-0.2,0
			C26.6,8.3,10.1,19.8,4.6,24.7C7.5,23.7,11.2,22.7,14.2,22.7z M54.8,63.1c-18.1,0-32.3-6.7-32.3-15.2s14.2-15.2,32.3-15.2
			c18.1,0,32.3,6.7,32.3,15.2S72.9,63.1,54.8,63.1z M54.8,34.6c-16.4,0-30.3,6.1-30.3,13.2s13.9,13.2,30.3,13.2
			c16.4,0,30.3-6.1,30.3-13.2S71.3,34.6,54.8,34.6z"/>
	</g>
	
		<ellipse transform="matrix(4.570103e-02 -0.999 0.999 4.570103e-02 -10.1625 85.9003)" class="st2" cx="39.9" cy="48.3" rx="3.5" ry="9.3"/>
	
		<ellipse transform="matrix(0.999 -4.570103e-02 4.570103e-02 0.999 -2.1438 3.2346)" class="st2" cx="69.7" cy="48.5" rx="9.3" ry="3.5"/>
</g>
</svg>
