<?xml version="1.0" encoding="utf-8"?>
<!-- Generator: Adobe Illustrator 24.2.1, SVG Export Plug-In . SVG Version: 6.00 Build 0)  -->
<svg version="1.1" id="Layer_1" xmlns="http://www.w3.org/2000/svg" xmlns:xlink="http://www.w3.org/1999/xlink" x="0px" y="0px"
	 viewBox="0 0 100 100" style="enable-background:new 0 0 100 100;" xml:space="preserve">
<style type="text/css">
	.st0{fill:#FFFFFF;}
	.st1{fill:#FF0000;}
</style>
<g>
	<ellipse class="st0" cx="55.3" cy="48.2" rx="34.6" ry="24.3"/>
	<path class="st1" d="M89.9,22.1c-7.7-9.9-19.6-16.4-33-16.7h-0.1c-1.4,0-2.6,0.1-3.9,0.1c-0.2,0-0.4,0-0.6,0.1l0,0
		C17.8,7.1-1.8,27.5,1.3,26.5c4.1-1.4,17.4-6.5,16.9,0.7l0,0c-3.7,6.3-5.7,13.7-5.7,21.5C12.5,72.6,31.8,92,55.7,92S99,72.6,99,48.7
		C99,38.7,95.6,29.5,89.9,22.1z M55.1,62.5C37.5,62.5,23.3,56,23.3,48c0-8,14.3-14.5,31.9-14.5S87,40,87,48
		C87,56,72.7,62.5,55.1,62.5z"/>
	<ellipse transform="matrix(4.570103e-02 -0.999 0.999 4.570103e-02 -10.3134 86.1151)" cx="39.9" cy="48.5" rx="3.6" ry="9.5"/>
	<ellipse transform="matrix(0.999 -4.570103e-02 4.570103e-02 0.999 -2.1519 3.261)" cx="70.2" cy="48.7" rx="9.5" ry="3.6"/>
</g>
</svg>
