<?xml version="1.0" encoding="utf-8"?>
<!-- Generator: Adobe Illustrator 21.1.0, SVG Export Plug-In . SVG Version: 6.00 Build 0)  -->
<svg version="1.1" id="Capa_1" xmlns="http://www.w3.org/2000/svg" xmlns:xlink="http://www.w3.org/1999/xlink" x="0px" y="0px"
	 viewBox="0 0 480.1 480.1" style="enable-background:new 0 0 480.1 480.1;" xml:space="preserve">
<style type="text/css">
	.st0{fill:#232323;}
	.st1{fill:#002323;}
	.st2{fill:#EA0000;}
</style>
<g>
	<g>
		<g>
			<path class="st0" d="M416.1,320.1c0-1.2-0.3-2.5-0.8-3.6l-31.2-62.3v-30.1c0-2.7-1.3-5.2-3.6-6.7l-24-16
				c-1.9-1.3-4.2-1.6-6.4-1.1l-29.4,7.3l-49.4-21.2l-6.8-47.6l18.8-18.8h40.4l13.6,20.4c1.2,1.8,3.2,3.1,5.3,3.4l48,8
				c1.3,0.2,2.6,0.1,3.8-0.3l42.9-14.3c-2.5-4.8-5.2-9.6-8.1-14.2l-38,12.7l-42.6-7.1l-14.1-21.1c-1.5-2.2-4-3.5-6.6-3.6h-48
				c-2.1,0-4.2,0.8-5.7,2.3l-24,24c-1.8,1.8-2.6,4.3-2.3,6.8l8,56c0.4,2.8,2.2,5.1,4.8,6.2l56,24c1.6,0.7,3.4,0.8,5.1,0.4l28.6-7.1
				l17.5,11.7v27.7c0,1.2,0.3,2.5,0.8,3.6l31.2,62.3v30.1c0,2.1,0.8,4.2,2.3,5.7l15.7,15.7c3.3-4.3,6.3-8.8,9.3-13.4l-11.4-11.3
				V320.1z M260.5,87.2c0.3,0.2,0.7,0.3,1,0.4l24,8c1.4,0.5,3,0.6,4.5,0.2l29.7-7.4l21.8,7.3c0.3,0.1,0.6,0.2,1,0.3l40,8
				c2.1,0.4,4.2,0,6-1.2l17.1-11.4c-3.6-4-7.4-7.9-11.3-11.7l-11.9,7.9l-36.3-7.3l-23.5-7.8c-1.4-0.5-3-0.5-4.5-0.2l-29.8,7.4
				l-13-4.3l9.7-19.3h27c1.2,0,2.5-0.3,3.6-0.8l26.2-13.1c-6.1-3.1-12.3-6-18.7-8.5l-12.9,6.5h-30.1c-3,0-5.8,1.7-7.2,4.4l-16,32
				C254.9,80.4,256.5,85.2,260.5,87.2z M241.6,264.2c-0.5-0.1-1-0.1-1.6-0.1h-27.5l-21.7-36.1c-1.5-2.4-4-3.9-6.9-3.9h-51
				l-13.8-27.6c-1.2-2.3-3.3-3.9-5.9-4.3c-2.5-0.4-5.1,0.4-6.9,2.2l-10.4,10.4v-12.7c0-2.1-0.8-4.2-2.3-5.7l-13.7-13.6V159l49.1-7
				c1.1-0.2,2.1-0.5,3-1.1l40-24c1.1-0.7,2.1-1.6,2.7-2.7l22.5-37.5l21.2-7.1c2.4-0.8,4.3-2.7,5.1-5l8-24c1.4-4.2-0.9-8.7-5.1-10.1
				c-0.4-0.1-0.8-0.2-1.2-0.3l-46.3-7.7l-6.7-4.4c-6.3,2-12.5,4.3-18.5,6.8l17.8,11.8c0.9,0.6,2,1,3.1,1.2l38.8,6.5l-3.8,11.3
				l-20.2,6.7c-1.8,0.6-3.3,1.8-4.3,3.5l-23,38.3l-36.9,22.1l-54.4,7.8c-3.9,0.6-6.9,3.9-6.9,7.9v24c0,2.1,0.8,4.2,2.3,5.7
				l13.7,13.7v13.8l-33.3-22.2l-11.4-34.2c-3.4,7.9-6.3,16-8.8,24.3l5.9,17.6c0.6,1.7,1.7,3.1,3.1,4.1l39.9,26.6l-9.1,9.1
				c-1.5,1.5-2.3,3.5-2.3,5.7v24c0,1.2,0.3,2.5,0.8,3.6l16,32c1.1,2.2,3.2,3.8,5.6,4.3l33.6,6.7v73.5c0,1,0.2,2,0.6,3l16,40
				c0.9,2.2,2.7,3.9,4.9,4.6l24,8c0.8,0.3,1.6,0.4,2.5,0.4c4.4,0,8-3.6,8-8v-36l28.8-21.6c2-1.5,3.2-3.9,3.2-6.4v-20.7l29.7-29.7
				c1.1-1.1,1.9-2.5,2.2-4.1l8-40C248.8,269.3,246,265.1,241.6,264.2z M224.7,308.1l-30.3,30.3c-1.5,1.5-2.3,3.5-2.4,5.7v20
				l-28.8,21.6c-2,1.5-3.2,3.9-3.2,6.4v28.9l-10-3.3l-14-35.1v-78.5c0-3.8-2.7-7.1-6.4-7.8L93.5,289l-13.4-26.8v-18.8l29.8-29.8
				l11,22.1c1.4,2.7,4.1,4.4,7.2,4.4h51.5l21.7,36.1c1.4,2.4,4,3.9,6.8,3.9h22.2L224.7,308.1z"/>
			<path class="st1" d="M168.1,443c-1.2,0-2.4-0.2-3.5-0.6l-24-8c-3.1-1-5.5-3.3-6.7-6.3l-16-40c-0.5-1.3-0.8-2.7-0.8-4.1v-71
				l-31.2-6.2c-3.3-0.7-6.2-2.8-7.7-5.9l-16-32c-0.8-1.5-1.2-3.2-1.2-4.9v-24c0-2.9,1.2-5.7,3.2-7.8l6.5-6.5L34,201.2
				c-2-1.4-3.6-3.4-4.3-5.7l-6.2-18.5l0.3-0.9c2.4-8.3,5.4-16.6,8.9-24.7l3.1-7.2L49.3,185l27.8,18.5v-6.9l-12.8-12.8
				c-2.1-2.1-3.2-4.9-3.2-7.8v-24c0-5.4,4.1-10.1,9.5-10.9l53.8-7.7l35.7-21.4l22.6-37.6c1.4-2.2,3.5-3.9,5.9-4.8l18.8-6.3l2.2-6.6
				l-35.3-5.9c-1.5-0.3-3-0.9-4.3-1.7l-22.4-14.9l5.1-2.2c6.1-2.6,12.4-4.9,18.8-6.9l1.4-0.4l7.3,4.9l45.7,7.6
				c0.6,0.1,1.2,0.2,1.7,0.4c5.7,1.9,8.9,8.1,7,13.9l-8,24c-1.1,3.3-3.7,5.9-7,7l-20.1,6.7l-21.9,36.5c-0.9,1.5-2.2,2.8-3.8,3.8
				l-40,24c-1.3,0.8-2.7,1.3-4.1,1.5l-46.6,6.7v9.9l12.8,12.8c2,2,3.2,4.9,3.2,7.8v5.5l5.3-5.3c2.5-2.5,6-3.7,9.6-3.1
				c3.4,0.6,6.5,2.8,8.1,5.9l12.9,25.9h49.2c3.8,0,7.5,2,9.4,5.3l20.8,34.7h25.8c0.7,0,1.4,0.1,2.1,0.2l0,0c5.9,1.2,9.8,7,8.6,13
				l-8,40c-0.4,2.1-1.4,4.1-3,5.6l-28.8,28.8V368c0,3.5-1.6,6.7-4.4,8.8l-27.6,20.7V432C179.1,438.1,174.1,443,168.1,443z
				 M29.8,176.9l5.6,16.7c0.4,1.1,1,2,2,2.6l42.9,28.6l-11.7,11.7c-0.9,0.9-1.5,2.2-1.5,3.5v24c0,0.8,0.2,1.6,0.5,2.2l16,32
				c0.7,1.4,2,2.4,3.5,2.7l36,7.2V384c0,0.6,0.1,1.3,0.4,1.9l16,40c0.5,1.4,1.7,2.4,3.1,2.9l24,8c0.5,0.2,1,0.3,1.5,0.3
				c2.8,0,5-2.2,5-5v-37.5l30-22.5c1.3-0.9,2-2.4,2-4v-21.9l30.5-30.5c0.7-0.7,1.2-1.6,1.4-2.5l8-40c0.5-2.7-1.2-5.3-3.9-5.9
				c-0.3-0.1-0.7-0.1-1-0.1h-29.2l-22.5-37.6c-0.9-1.5-2.5-2.4-4.3-2.4h-52.9l-14.6-29.2c-0.7-1.4-2.1-2.4-3.7-2.7
				c-1.6-0.3-3.2,0.2-4.3,1.4L93.1,212V192c0-1.3-0.5-2.6-1.5-3.5L77.1,174v-17.6l51.7-7.4c0.6-0.1,1.3-0.3,1.9-0.7l40-24
				c0.7-0.4,1.3-1,1.7-1.7l23.1-38.4l22.2-7.4c1.5-0.5,2.7-1.7,3.2-3.1l8-24c0.9-2.6-0.6-5.4-3.2-6.3c-0.2-0.1-0.5-0.1-0.8-0.2
				l-46.9-7.8l-6-4c-3.9,1.3-7.9,2.7-11.7,4.2l13.1,8.7c0.6,0.4,1.3,0.7,2,0.8l42.2,7l-5.4,16.1l-21.6,7.2c-1.1,0.4-2.1,1.2-2.7,2.2
				l-23.4,38.9l-38.1,22.8l-55,7.9c-2.4,0.3-4.3,2.5-4.3,4.9v24c0,1.3,0.5,2.6,1.5,3.5l14.5,14.5v20.6l-38.8-25.9l-9.2-27.5
				C33.1,166.5,31.3,171.7,29.8,176.9z M163.1,425.1l-15.2-5l-14.8-37v-79c0-2.4-1.7-4.4-4-4.9l-37.6-7.5l-14.4-28.8v-20.8
				l33.6-33.6l12.9,25.8c0.9,1.7,2.6,2.8,4.5,2.8h53.2l22.5,37.6c0.9,1.5,2.5,2.4,4.3,2.4H234l-6.5,32.5l-30.9,30.9
				c-0.9,0.9-1.5,2.2-1.5,3.6v21.5l-30,22.5c-1.3,0.9-2,2.4-2,4V425.1z M152.4,415.2l4.7,1.6V392c0-3.4,1.6-6.7,4.4-8.8l27.6-20.7
				V344c0-3,1.2-5.7,3.2-7.8l29.6-29.6l4.7-23.6h-18.6c-3.8,0-7.5-2-9.4-5.3L177.8,243h-49.8c-4.2,0-8-2.3-9.8-6.1l-9.2-18.4l-26,26
				v16.8l12.5,24.9l34.7,7c5.1,1,8.8,5.6,8.8,10.8v77.9L152.4,415.2z M418.5,378l-18.2-18.2c-2.1-2.1-3.2-4.9-3.2-7.8v-29.4
				L366.2,261c-0.8-1.6-1.1-3.2-1.1-4.9v-26.1l-15-10l-27.3,6.8c-2.3,0.6-4.8,0.4-7-0.6l-56-24c-3.5-1.5-6-4.8-6.6-8.5l-8-56
				c-0.5-3.4,0.7-6.9,3.1-9.3l24-24c2.1-2.1,4.8-3.2,7.8-3.2h48c3.7,0,7.1,1.8,9.1,4.9l13.4,20l40.6,6.8l39.6-13.2l1.2,2
				c2.9,4.6,5.6,9.5,8.2,14.4l1.6,3.1l-46.2,15.4c-1.7,0.6-3.5,0.7-5.3,0.4l-48-8c-3-0.5-5.7-2.2-7.4-4.7L322.2,123h-37.6
				l-16.9,16.9l6.3,44.4l46.9,20.1l28.4-7.1c3-0.8,6.2-0.2,8.8,1.5l24,16c3.1,2,4.9,5.5,4.9,9.2v29.4l30.9,61.7
				c0.8,1.6,1.1,3.3,1.1,4.9v27.4l12.2,12.2l-1.3,2c-2.9,4.6-6.1,9.1-9.4,13.5L418.5,378z M351.2,213.4l19.9,13.3V256
				c0,0.8,0.2,1.6,0.5,2.3l31.5,62.9V352c0,1.3,0.5,2.6,1.5,3.5l13.3,13.3c2-2.8,3.9-5.6,5.8-8.4L413.1,350v-30
				c0-0.8-0.2-1.5-0.5-2.2l-31.5-62.9V224c0-1.7-0.8-3.2-2.2-4.2l-24-16c-1.2-0.8-2.6-1-4-0.7l-30.4,7.6l-51.8-22.2l-7.2-50.7
				l20.8-20.8h43.3l14.5,21.8c0.8,1.1,2,1.9,3.3,2.2l48,8c0.8,0.1,1.6,0.1,2.4-0.2l39.5-13.2c-1.6-3-3.3-6-5.1-8.9l-36.5,12.2
				l-44.6-7.4l-14.8-22.2c-0.9-1.4-2.5-2.2-4.1-2.2h-48c-1.3,0-2.6,0.5-3.5,1.5l-24,24c-1.1,1.1-1.6,2.7-1.4,4.3l8,56
				c0.3,1.7,1.4,3.2,3,3.9l56,24c1,0.4,2.1,0.5,3.2,0.3L351.2,213.4z M384,107c-0.7,0-1.4-0.1-2.2-0.2l-40-8
				c-0.5-0.1-0.9-0.2-1.4-0.4l-20.9-7l-28.9,7.2c-2,0.5-4.1,0.4-6.2-0.3l-24-8c-0.5-0.2-1-0.4-1.4-0.6l0,0
				c-5.4-2.7-7.6-9.3-4.9-14.8l16-32c1.9-3.8,5.7-6.1,9.8-6.1c0,0,0,0,0.1,0h29.4l13.5-6.7l1.3,0.5c6.4,2.6,12.8,5.5,18.9,8.7
				l5.3,2.7L317,57.9c-1.5,0.8-3.2,1.2-4.9,1.2h-25.2l-7.3,14.6l8.9,3l28.9-7.2c2-0.5,4.2-0.4,6.2,0.3l23.3,7.8l34.9,7l12.8-8.5
				l1.7,1.7c3.9,3.8,7.8,7.7,11.4,11.8l2.3,2.6l-20,13.3C388.3,106.4,386.2,107,384,107z M319.8,85.3l22.8,7.6
				c0.1,0,0.2,0.1,0.4,0.1l40.1,8c1.3,0.3,2.6,0,3.7-0.7l14.2-9.5c-2.3-2.5-4.7-4.9-7.1-7.3L383,90.7l-37.8-7.6l-23.5-7.8
				c-0.9-0.3-1.9-0.3-2.8-0.1l-30.6,7.6l-17.2-5.7l12-24.1h28.9c0.8,0,1.6-0.2,2.2-0.5l20.8-10.4c-3.9-1.9-7.8-3.6-11.8-5.3
				L310.9,43h-30.8c0,0,0,0,0,0c-1.9,0-3.6,1.1-4.5,2.8l-16,32c-1.2,2.5-0.2,5.5,2.2,6.7l0,0c0.2,0.1,0.4,0.2,0.7,0.3l24,8
				c0.9,0.3,1.9,0.4,2.8,0.1L319.8,85.3z"/>
		</g>
		<path class="st2" d="M240.1,0.1c-96,0-182.8,57.2-220.7,145.5l-1,1.9l-0.8,2.6C-32.1,272.8,27,412.7,149.8,462.5
			c28.7,11.6,59.3,17.6,90.3,17.6c132.5,0,240-107.4,240-240C480.1,107.5,372.7,0.1,240.1,0.1z M427.4,360.1c-2.9,4.6-6,9-9.3,13.4
			l1,1c-74.2,98.9-214.6,119-313.5,44.7C30.2,362.6-1.7,264.8,25.8,174.6l0.8,2.4c2.4-8.3,5.4-16.4,8.8-24.3l-0.7-2
			c23-52.5,65.1-94.2,117.7-116.8l1.4,1c6-2.5,12.2-4.8,18.5-6.8l-1.5-1c50.3-16.4,104.9-14.3,153.8,5.7l-1.7,0.8
			c6.4,2.6,12.6,5.4,18.7,8.5l1.5-0.8c19.1,9.9,36.6,22.6,52.1,37.5l-1.2,0.8c3.9,3.8,7.7,7.6,11.3,11.7l1.1-0.8
			c9,10,17,20.7,24.1,32.1l-1.3,0.5c2.9,4.6,5.5,9.3,8.1,14.2l1.3-0.4c37.1,71.2,33.1,156.7-10.4,224.2L427.4,360.1z"/>
	</g>
</g>
<path class="st2" d="M239.5,16c-89.8,0-171,53.5-206.3,136.1l-1,1.8l-0.7,2.4C-15.1,271.1,40.2,401.9,155,448.4
	c26.8,10.9,55.5,16.5,84.4,16.4c123.9,0,224.4-100.5,224.5-224.4C463.9,116.5,363.5,16,239.5,16z M414.7,352.7
	c-2.7,4.3-5.6,8.4-8.7,12.5l0.9,0.9c-69.4,92.5-200.7,111.3-293.2,41.8C43.2,355,13.4,263.6,39.1,179.3l0.7,2.2
	c2.3-7.8,5-15.4,8.2-22.7l-0.6-1.9c21.5-49.1,60.8-88.1,110.1-109.2l1.3,0.9c5.7-2.4,11.4-4.5,17.3-6.4l-1.4-0.9
	c47.1-15.3,98.1-13.4,143.9,5.3l-1.6,0.8c6,2.4,11.8,5.1,17.5,8l1.4-0.7c17.8,9.3,34.2,21.1,48.7,35.1l-1.1,0.7
	c3.7,3.5,7.2,7.1,10.6,10.9l1.1-0.7c8.4,9.3,15.9,19.4,22.5,30.1l-1.3,0.4c2.7,4.3,5.2,8.7,7.5,13.3l1.2-0.4
	c34.7,66.5,31,146.6-9.7,209.6L414.7,352.7z"/>
</svg>
